<svg id="visual" viewBox="0 0 960 540" width="960" height="540" xmlns="http://www.w3.org/2000/svg" xmlns:xlink="http://www.w3.org/1999/xlink" version="1.1"><path d="M0 351L26.7 351.2C53.3 351.3 106.7 351.7 160 358.5C213.3 365.3 266.7 378.7 320 386.7C373.3 394.7 426.7 397.3 480 379.3C533.3 361.3 586.7 322.7 640 311.2C693.3 299.7 746.7 315.3 800 327.8C853.3 340.3 906.7 349.7 933.3 354.3L960 359L960 541L933.3 541C906.7 541 853.3 541 800 541C746.7 541 693.3 541 640 541C586.7 541 533.3 541 480 541C426.7 541 373.3 541 320 541C266.7 541 213.3 541 160 541C106.7 541 53.3 541 26.7 541L0 541Z" fill="#5f237a"></path><path d="M0 334L26.7 344.3C53.3 354.7 106.7 375.3 160 391C213.3 406.7 266.7 417.3 320 414C373.3 410.7 426.7 393.3 480 381.3C533.3 369.3 586.7 362.7 640 354.2C693.3 345.7 746.7 335.3 800 329.8C853.3 324.3 906.7 323.7 933.3 323.3L960 323L960 541L933.3 541C906.7 541 853.3 541 800 541C746.7 541 693.3 541 640 541C586.7 541 533.3 541 480 541C426.7 541 373.3 541 320 541C266.7 541 213.3 541 160 541C106.7 541 53.3 541 26.7 541L0 541Z" fill="#762a97"></path><path d="M0 418L26.7 425.3C53.3 432.7 106.7 447.3 160 452.2C213.3 457 266.7 452 320 443.2C373.3 434.3 426.7 421.7 480 415.8C533.3 410 586.7 411 640 405.8C693.3 400.7 746.7 389.3 800 389C853.3 388.7 906.7 399.3 933.3 404.7L960 410L960 541L933.3 541C906.7 541 853.3 541 800 541C746.7 541 693.3 541 640 541C586.7 541 533.3 541 480 541C426.7 541 373.3 541 320 541C266.7 541 213.3 541 160 541C106.7 541 53.3 541 26.7 541L0 541Z" fill="#8e41ae"></path><path d="M0 468L26.7 469.3C53.3 470.7 106.7 473.3 160 468.2C213.3 463 266.7 450 320 452.2C373.3 454.3 426.7 471.7 480 475.2C533.3 478.7 586.7 468.3 640 459.3C693.3 450.3 746.7 442.7 800 446.3C853.3 450 906.7 465 933.3 472.5L960 480L960 541L933.3 541C906.7 541 853.3 541 800 541C746.7 541 693.3 541 640 541C586.7 541 533.3 541 480 541C426.7 541 373.3 541 320 541C266.7 541 213.3 541 160 541C106.7 541 53.3 541 26.7 541L0 541Z" fill="#a464bf"></path></svg>