<svg id="visual" viewBox="0 0 900 600" width="900" height="600" xmlns="http://www.w3.org/2000/svg" xmlns:xlink="http://www.w3.org/1999/xlink" version="1.1"><rect x="0" y="0" width="900" height="600" fill="#001220"></rect><path d="M0 340L37.5 354.2C75 368.3 150 396.7 225 412.8C300 429 375 433 450 419C525 405 600 373 675 360.8C750 348.7 825 356.3 862.5 360.2L900 364L900 601L862.5 601C825 601 750 601 675 601C600 601 525 601 450 601C375 601 300 601 225 601C150 601 75 601 37.5 601L0 601Z" fill="#ff8198"></path><path d="M0 445L37.5 437.5C75 430 150 415 225 410.5C300 406 375 412 450 419C525 426 600 434 675 432C750 430 825 418 862.5 412L900 406L900 601L862.5 601C825 601 750 601 675 601C600 601 525 601 450 601C375 601 300 601 225 601C150 601 75 601 37.5 601L0 601Z" fill="#ff5576"></path><path d="M0 490L37.5 482.5C75 475 150 460 225 459.5C300 459 375 473 450 481.8C525 490.7 600 494.3 675 497.7C750 501 825 504 862.5 505.5L900 507L900 601L862.5 601C825 601 750 601 675 601C600 601 525 601 450 601C375 601 300 601 225 601C150 601 75 601 37.5 601L0 601Z" fill="#ea3159"></path><path d="M0 498L37.5 505.8C75 513.7 150 529.3 225 529.3C300 529.3 375 513.7 450 512.3C525 511 600 524 675 522.8C750 521.7 825 506.3 862.5 498.7L900 491L900 601L862.5 601C825 601 750 601 675 601C600 601 525 601 450 601C375 601 300 601 225 601C150 601 75 601 37.5 601L0 601Z" fill="#c02445"></path></svg>