<?xml version="1.0" encoding="utf-8"?>
<!-- Generator: Adobe Illustrator 25.2.1, SVG Export Plug-In . SVG Version: 6.00 Build 0)  -->
<svg version="1.1" id="visual" xmlns="http://www.w3.org/2000/svg" xmlns:xlink="http://www.w3.org/1999/xlink" x="0px" y="0px"
	 viewBox="0 0 900 600" style="enable-background:new 0 0 900 600;" xml:space="preserve">
<style type="text/css">
	.st0{fill:#FF3864;}
</style>
<polygon points="788,44 675,44 675,72 563,72 563,50 450,50 450,45 338,45 338,41 225,41 225,69 113,69 113,77 0,77 0,600 900,600 
	900,83 900,67 788,67 "/>
<polygon class="st0" points="788,42 675,42 675,70 563,70 563,48 450,48 450,43 338,43 338,39 225,39 225,67 113,67 113,75 0,75 
	0,100 113,100 113,132 225,132 225,115 338,115 338,85 450,85 450,99 563,99 563,123 675,123 675,91 788,91 788,109 900,109 
	900,100 900,81 900,65 788,65 "/>
</svg>
