<svg width="424" height="811" viewBox="0 0 424 811" fill="none" xmlns="http://www.w3.org/2000/svg">
<path d="M18.1753 1.30913C56.9657 1.30913 70.0002 1.30913 108.791 1.30913H380.887C409.213 1.2778 422.592 18.0365 422.592 37.5205C422.592 65.4934 401.379 73.7945 388.125 73.7945C379.007 73.7945 356.792 65.5247 356.792 45.0071C356.792 31.1302 367.038 19.1329 384.334 19.1329C395.489 19.1329 407.771 26.5255 407.771 38.6168C407.771 50.7082 394.611 58.5393 381.232 51.1467C378.099 48.6721 380.981 44.8818 382.893 46.3854C389.723 52.337 402.821 48.86 402.821 38.6795C402.821 29.2821 394.173 24.2388 384.021 24.2388C373.18 24.2388 363.435 29.564 363.435 44.8818C363.435 59.6983 380.229 66.5271 388.501 66.5271C403.98 66.5271 416.294 51.8358 416.294 37.7711C416.294 19.5401 405.327 6.79095 379.947 6.79095C374.245 6.79095 113.867 6.2271 108.101 6.41505C72.1309 7.82466 36.3798 3.31391 0.503418 6.44637M422.592 73.8258V655.045M416.231 80.31V810.228" stroke="#FF3864" stroke-linecap="round" stroke-linejoin="round"/>
</svg>
