<svg width="45" height="45" viewBox="0 0 45 45" fill="none" xmlns="http://www.w3.org/2000/svg">
<path d="M7.5 41.25V33.75L5.625 31.875V26.25H9.375V30H13.125V26.25H16.875V31.875L15 33.75V41.25" stroke="#FF3864" stroke-width="2"/>
<path d="M30 41.25V33.75L28.125 31.875V26.25H31.875V30H35.625V26.25H39.375V31.875L37.5 33.75V41.25" stroke="#FF3864" stroke-width="2"/>
<path d="M11.25 9.375H5.625V5.625H11.25V13.125" stroke="#FF3864" stroke-width="2"/>
<path d="M7.5 24.375V16.875L11.25 13.125" stroke="#FF3864" stroke-width="2"/>
<path d="M15 24.375V16.875L11.25 13.125" stroke="#FF3864" stroke-width="2"/>
<path d="M7.5 18.75H15" stroke="#FF3864" stroke-width="2"/>
<path d="M33.75 9.375H39.375V5.625H33.75V13.125" stroke="#FF3864" stroke-width="2"/>
<path d="M37.5 24.375V16.875L33.75 13.125" stroke="#FF3864" stroke-width="2"/>
<path d="M30 24.375V16.875L33.75 13.125" stroke="#FF3864" stroke-width="2"/>
<path d="M37.5 18.75H30" stroke="#FF3864" stroke-width="2"/>
<path d="M3.75 41.25H41.25" stroke="#FF3864" stroke-width="2"/>
<path d="M20.625 30V28.125" stroke="#FF3864" stroke-width="2"/>
<path d="M20.625 26.25V24.375" stroke="#FF3864" stroke-width="2"/>
<path d="M24.375 26.25V24.375" stroke="#FF3864" stroke-width="2"/>
<path d="M24.375 30V28.125" stroke="#FF3864" stroke-width="2"/>
<path d="M18.75 15H26.25" stroke="#FF3864" stroke-width="2"/>
<path d="M22.5 16.875V20.625" stroke="#FF3864" stroke-width="2"/>
<path d="M15 22.5H18.75V13.125L22.5 9.375" stroke="#FF3864" stroke-width="2"/>
<path d="M30 22.5H26.25V13.125L22.5 9.375" stroke="#FF3864" stroke-width="2"/>
<path d="M22.5 7.5H28.125V3.75H22.5V9.375" stroke="#FF3864" stroke-width="2"/>
<path d="M18.75 41.25V37.5C18.75 33.75 22.5 31.875 22.5 31.875C22.5 31.875 26.25 33.75 26.25 37.5V41.25" stroke="#FF3864" stroke-width="2"/>
<path d="M11.25 37.5V35.625" stroke="#FF3864" stroke-width="2"/>
<path d="M33.75 37.5V35.625" stroke="#FF3864" stroke-width="2"/>
<path d="M11.25 24.375V22.5" stroke="#FF3864" stroke-width="2"/>
<path d="M33.75 24.375V22.5" stroke="#FF3864" stroke-width="2"/>
</svg>
