<svg width="63" height="69" viewBox="0 0 63 69" fill="none" xmlns="http://www.w3.org/2000/svg">
<path fill-rule="evenodd" clip-rule="evenodd" d="M33.2894 31.8742L16.1418 67.4715C15.9356 67.9446 15.4871 68.2672 14.9728 68.3123C14.4585 68.3574 13.9607 68.1178 13.6754 67.6877C13.39 67.2577 13.3627 66.706 13.6043 66.25L30.79 30.5686L22.0836 31.6547C21.4637 31.7308 20.8677 31.39 20.6191 30.8173C20.3704 30.2447 20.5285 29.5768 21.0075 29.1762L28.4905 22.9426L23.556 15.5453C23.2115 15.0265 23.2487 14.3433 23.6473 13.8649C24.046 13.3865 24.7116 13.2264 25.2843 13.4713L34.1819 17.2811L40.5558 9.63643C40.8216 9.31802 41.2143 9.13286 41.6291 9.13027C42.035 9.12795 42.4221 9.30061 42.6915 9.60407C42.9608 9.90753 43.0862 10.3123 43.0355 10.7148L41.7585 20.929L50.6478 24.739C51.2305 24.9907 51.573 25.6007 51.4843 26.2289C51.3956 26.8571 50.8976 27.3486 50.268 27.4292L40.2283 28.6836V38.708C40.2269 39.3455 39.7973 39.9025 39.181 40.0662C38.5646 40.2299 37.9151 39.9594 37.5973 39.4067L33.2894 31.8742ZM10.6238 0.682193C11.2039 0.676673 11.7283 1.02711 11.9448 1.56519L14.5648 8.11251L19.7223 10.6873C20.1997 10.9259 20.5013 11.4137 20.5013 11.9473C20.5013 12.4808 20.1997 12.9686 19.7223 13.2072L14.5648 15.7847L11.9448 22.3319C11.73 22.8651 11.2126 23.2144 10.6375 23.2144C10.0624 23.2144 9.54503 22.8651 9.33025 22.3319L6.71024 15.7847L1.55276 13.2072C1.0753 12.9686 0.773682 12.4808 0.773682 11.9473C0.773682 11.4137 1.0753 10.9259 1.55276 10.6873L6.71024 8.11251L9.33025 1.56519C9.54301 1.03642 10.0536 0.687901 10.6238 0.682193ZM10.6375 5.8815L9.1266 9.65574C8.99826 9.97503 8.75743 10.2363 8.44958 10.3903L5.33418 11.9472L8.44958 13.5042C8.75789 13.6588 8.99878 13.9211 9.1266 14.2413L10.6375 18.0185L12.1484 14.2413C12.2762 13.9211 12.5171 13.6588 12.8254 13.5042L15.9408 11.9472L12.8254 10.3903C12.5176 10.2363 12.2768 9.97503 12.1484 9.65574L10.6375 5.8815ZM48.5893 47.1615C49.1699 47.1232 49.7144 47.4457 49.9598 47.9731L52.0817 52.5149L56.2842 54.3167C56.8018 54.5389 57.1372 55.0479 57.1372 55.611C57.1372 56.174 56.8018 56.683 56.2842 56.9052L52.0817 58.7043L49.9598 63.2489C49.7283 63.7448 49.2303 64.0618 48.6828 64.0618C48.1353 64.0618 47.6374 63.7448 47.4058 63.2489L45.284 58.7043L41.0815 56.9052C40.5639 56.683 40.2285 56.174 40.2285 55.611C40.2285 55.0479 40.5639 54.5389 41.0815 54.3167L45.284 52.5149L47.4058 47.9731C47.6226 47.507 48.0762 47.196 48.5893 47.1615ZM48.6828 51.8986L47.6123 54.1929C47.4652 54.5069 47.2075 54.7557 46.8884 54.8916L45.2124 55.6095L46.8884 56.3276C47.2075 56.4635 47.4652 56.7123 47.6123 57.0262L48.6828 59.3205L49.7534 57.0262C49.9004 56.7123 50.1582 56.4635 50.4772 56.3276L52.1533 55.6095L50.4772 54.8916C50.1581 54.7557 49.9004 54.5069 49.7534 54.1929L48.6828 51.8986H48.6828ZM6.41025 26.0319C8.72821 26.0319 10.6375 27.9403 10.6375 30.2571C10.6375 32.5741 8.72821 34.4826 6.41025 34.4826C4.0923 34.4826 2.183 32.5741 2.183 30.2571C2.183 27.9403 4.0923 26.0319 6.41025 26.0319ZM6.41025 28.8488C5.61535 28.8488 5.00117 29.4627 5.00117 30.2571C5.00117 31.0519 5.61535 31.6657 6.41025 31.6657C7.20516 31.6657 7.81934 31.0519 7.81934 30.2571C7.81934 29.4627 7.20516 28.8488 6.41025 28.8488ZM58.5464 35.8911C60.8644 35.8911 62.7737 37.7995 62.7737 40.1164C62.7737 42.4333 60.8644 44.3418 58.5464 44.3418C56.2285 44.3418 54.3192 42.4333 54.3192 40.1164C54.3192 37.7995 56.2285 35.8911 58.5464 35.8911ZM58.5464 38.708C57.7515 38.708 57.1373 39.3219 57.1373 40.1164C57.1373 40.9111 57.7515 41.5249 58.5464 41.5249C59.3413 41.5249 59.9555 40.9111 59.9555 40.1164C59.9555 39.3219 59.3413 38.708 58.5464 38.708ZM33.8874 57.0179C35.8163 57.0179 37.4101 58.6112 37.4101 60.5391C37.4101 62.4671 35.8163 64.0603 33.8874 64.0603C31.9586 64.0603 30.3647 62.4671 30.3647 60.5391C30.3647 58.6112 31.9586 57.0179 33.8874 57.0179ZM33.8874 59.835C33.4816 59.835 33.1829 60.1336 33.1829 60.5391C33.1829 60.9448 33.4816 61.2434 33.8874 61.2434C34.2932 61.2434 34.592 60.9448 34.592 60.5391C34.592 60.1336 34.2932 59.835 33.8874 59.835ZM29.6602 3.49634C31.589 3.49634 33.1829 5.0896 33.1829 7.01751C33.1829 8.94556 31.589 10.5387 29.6602 10.5387C27.7313 10.5387 26.1375 8.94556 26.1375 7.01751C26.1375 5.0896 27.7313 3.49634 29.6602 3.49634ZM29.6602 6.31325C29.2544 6.31325 28.9556 6.61183 28.9556 7.01751C28.9556 7.42318 29.2544 7.72177 29.6602 7.72177C30.066 7.72177 30.3647 7.42318 30.3647 7.01751C30.3647 6.61183 30.066 6.31325 29.6602 6.31325ZM59.251 15.4684C61.1798 15.4684 62.7737 17.0616 62.7737 18.9895C62.7737 20.9176 61.1798 22.5107 59.251 22.5107C57.3221 22.5107 55.7283 20.9176 55.7283 18.9895C55.7283 17.0616 57.3221 15.4684 59.251 15.4684ZM59.251 18.2853C58.8452 18.2853 58.5464 18.5838 58.5464 18.9895C58.5464 19.3951 58.8452 19.6936 59.251 19.6936C59.6568 19.6936 59.9555 19.3951 59.9555 18.9895C59.9555 18.5838 59.6568 18.2853 59.251 18.2853ZM39.6449 15.13L35.6735 19.8919C35.2747 20.3704 34.6088 20.5304 34.036 20.2852L28.5318 17.9276L31.5371 22.4336C31.9378 23.0328 31.8214 23.8376 31.2674 24.2988L26.509 28.2629L33.0095 27.4512C33.5739 27.3808 34.1253 27.6564 34.4076 28.15L37.4101 33.4015V27.4402C37.4103 26.7295 37.9402 26.1302 38.6458 26.0427L44.7555 25.2781L39.6724 23.1021C39.0957 22.8545 38.7524 22.2556 38.8302 21.6331L39.6449 15.13Z" fill="#FF3864"/>
</svg>
