<svg id="visual" viewBox="0 0 900 600" width="900" height="600" xmlns="http://www.w3.org/2000/svg" xmlns:xlink="http://www.w3.org/1999/xlink" version="1.1"><rect x="0" y="0" width="900" height="600" fill="#000"></rect><path d="M0 102L113 102L113 134L225 134L225 117L338 117L338 87L450 87L450 101L563 101L563 125L675 125L675 93L788 93L788 111L900 111L900 102L900 0L900 0L788 0L788 0L675 0L675 0L563 0L563 0L450 0L450 0L338 0L338 0L225 0L225 0L113 0L113 0L0 0Z" fill="#ff3864"></path><path d="M0 77L113 77L113 69L225 69L225 41L338 41L338 45L450 45L450 50L563 50L563 72L675 72L675 44L788 44L788 67L900 67L900 83L900 0L900 0L788 0L788 0L675 0L675 0L563 0L563 0L450 0L450 0L338 0L338 0L225 0L225 0L113 0L113 0L0 0Z" fill="#201f1d"></path></svg>