<svg width="50" height="51" viewBox="0 0 50 51" fill="none" xmlns="http://www.w3.org/2000/svg">
<g clip-path="url(#clip0_69_12162)">
<path d="M25.0001 49.1649C37.8255 49.1649 48.2226 38.7678 48.2226 25.9424C48.2226 13.117 37.8255 2.71991 25.0001 2.71991C12.1747 2.71991 1.77759 13.117 1.77759 25.9424C1.77759 38.7678 12.1747 49.1649 25.0001 49.1649Z" fill="black"/>
<path d="M25.0001 50.0399C11.7126 50.0399 0.902588 39.2299 0.902588 25.9424C0.902588 12.6549 11.7126 1.84491 25.0001 1.84491C38.2876 1.84491 49.0976 12.6549 49.0976 25.9424C49.0976 39.2299 38.2876 50.0399 25.0001 50.0399ZM25.0001 3.59491C12.6776 3.59491 2.65259 13.6199 2.65259 25.9424C2.65259 38.2649 12.6776 48.2899 25.0001 48.2899C37.3226 48.2899 47.3476 38.2649 47.3476 25.9424C47.3476 13.6199 37.3226 3.59491 25.0001 3.59491Z" fill="#FFEF56"/>
<path d="M35.8386 40.2673H34.8911V41.2061H35.8386V40.2673Z" fill="black"/>
<path d="M35.8386 39.3186H34.8911V40.2674H35.8386V39.3186Z" fill="black"/>
<path d="M35.8386 38.3799H34.8911V39.3186H35.8386V38.3799Z" fill="black"/>
<path d="M35.8386 37.4311H34.8911V38.3798H35.8386V37.4311Z" fill="black"/>
<path d="M34.8899 40.2673H33.95V41.2061H34.8899V40.2673Z" fill="black"/>
<path d="M34.8899 39.3186H33.95V40.2674H34.8899V39.3186Z" fill="#EAD32D"/>
<path d="M34.8899 38.3799H33.95V39.3186H34.8899V38.3799Z" fill="#EAD32D"/>
<path d="M34.8899 37.4311H33.95V38.3798H34.8899V37.4311Z" fill="black"/>
<path d="M34.8899 36.4836H33.95V37.4311H34.8899V36.4836Z" fill="black"/>
<path d="M34.8899 35.5424H33.95V36.4824H34.8899V35.5424Z" fill="black"/>
<path d="M33.9512 40.2673H33.0037V41.2061H33.9512V40.2673Z" fill="black"/>
<path d="M33.9512 39.3186H33.0037V40.2674H33.9512V39.3186Z" fill="#FFEF56"/>
<path d="M33.9512 38.3799H33.0037V39.3186H33.9512V38.3799Z" fill="#EAD32D"/>
<path d="M33.9512 37.4311H33.0037V38.3798H33.9512V37.4311Z" fill="#EAD32D"/>
<path d="M33.9512 36.4836H33.0037V37.4311H33.9512V36.4836Z" fill="#EAD32D"/>
<path d="M33.9512 35.5424H33.0037V36.4824H33.9512V35.5424Z" fill="black"/>
<path d="M33.9512 34.5961H33.0037V35.5436H33.9512V34.5961Z" fill="black"/>
<path d="M33.9512 33.6561H33.0037V34.5949H33.9512V33.6561Z" fill="black"/>
<path d="M33.9512 32.7073H33.0037V33.6561H33.9512V32.7073Z" fill="black"/>
<path d="M33.9512 31.7686H33.0037V32.7074H33.9512V31.7686Z" fill="black"/>
<path d="M33.9512 30.8199H33.0037V31.7686H33.9512V30.8199Z" fill="black"/>
<path d="M33.9512 29.8724H33.0037V30.8199H33.9512V29.8724Z" fill="black"/>
<path d="M33.9512 28.9324H33.0037V29.8711H33.9512V28.9324Z" fill="black"/>
<path d="M33.9512 27.9836H33.0037V28.9324H33.9512V27.9836Z" fill="black"/>
<path d="M33.9512 27.0436H33.0037V27.9823H33.9512V27.0436Z" fill="black"/>
<path d="M33.9512 26.0948H33.0037V27.0436H33.9512V26.0948Z" fill="black"/>
<path d="M33.9512 25.1561H33.0037V26.0949H33.9512V25.1561Z" fill="black"/>
<path d="M33.9512 24.2073H33.0037V25.1561H33.9512V24.2073Z" fill="black"/>
<path d="M33.9512 23.2686H33.0037V24.2074H33.9512V23.2686Z" fill="black"/>
<path d="M33.9512 22.3199H33.0037V23.2686H33.9512V22.3199Z" fill="black"/>
<path d="M33.9512 21.3711H33.0037V22.3198H33.9512V21.3711Z" fill="black"/>
<path d="M33.9512 20.4324H33.0037V21.3711H33.9512V20.4324Z" fill="black"/>
<path d="M33.9512 19.4836H33.0037V20.4323H33.9512V19.4836Z" fill="black"/>
<path d="M33.0025 40.2673H32.0637V41.2061H33.0025V40.2673Z" fill="black"/>
<path d="M33.0025 39.3186H32.0637V40.2674H33.0025V39.3186Z" fill="#FFEF56"/>
<path d="M33.0025 38.3799H32.0637V39.3186H33.0025V38.3799Z" fill="#FFEF56"/>
<path d="M33.0025 37.4311H32.0637V38.3798H33.0025V37.4311Z" fill="#EAD32D"/>
<path d="M33.0025 36.4836H32.0637V37.4311H33.0025V36.4836Z" fill="#EAD32D"/>
<path d="M33.0025 35.5424H32.0637V36.4824H33.0025V35.5424Z" fill="#EAD32D"/>
<path d="M33.0025 34.5961H32.0637V35.5436H33.0025V34.5961Z" fill="#EAD32D"/>
<path d="M33.0025 33.6561H32.0637V34.5949H33.0025V33.6561Z" fill="#EAD32D"/>
<path d="M33.0025 32.7073H32.0637V33.6561H33.0025V32.7073Z" fill="black"/>
<path d="M33.0025 31.7686H32.0637V32.7074H33.0025V31.7686Z" fill="black"/>
<path d="M33.0025 30.8199H32.0637V31.7686H33.0025V30.8199Z" fill="black"/>
<path d="M33.0025 29.8724H32.0637V30.8199H33.0025V29.8724Z" fill="#FFEF56"/>
<path d="M33.0025 28.9324H32.0637V29.8711H33.0025V28.9324Z" fill="#FFEF56"/>
<path d="M33.0025 27.9836H32.0637V28.9324H33.0025V27.9836Z" fill="#FFEF56"/>
<path d="M33.0025 27.0436H32.0637V27.9823H33.0025V27.0436Z" fill="#FFEF56"/>
<path d="M33.0025 26.0948H32.0637V27.0436H33.0025V26.0948Z" fill="#FFEF56"/>
<path d="M33.0025 25.1561H32.0637V26.0949H33.0025V25.1561Z" fill="#FFEF56"/>
<path d="M33.0025 24.2073H32.0637V25.1561H33.0025V24.2073Z" fill="#FFEF56"/>
<path d="M33.0025 23.2686H32.0637V24.2074H33.0025V23.2686Z" fill="#EAD32D"/>
<path d="M33.0025 22.3199H32.0637V23.2686H33.0025V22.3199Z" fill="#EAD32D"/>
<path d="M33.0025 21.3711H32.0637V22.3198H33.0025V21.3711Z" fill="#EAD32D"/>
<path d="M33.0025 20.4324H32.0637V21.3711H33.0025V20.4324Z" fill="#EAD32D"/>
<path d="M33.0025 19.4836H32.0637V20.4323H33.0025V19.4836Z" fill="black"/>
<path d="M33.0025 18.5449H32.0637V19.4836H33.0025V18.5449Z" fill="black"/>
<path d="M32.0637 40.2673H31.115V41.2061H32.0637V40.2673Z" fill="black"/>
<path d="M32.0637 39.3186H31.115V40.2674H32.0637V39.3186Z" fill="#FFEF56"/>
<path d="M32.0637 38.3799H31.115V39.3186H32.0637V38.3799Z" fill="#FFEF56"/>
<path d="M32.0637 37.4311H31.115V38.3798H32.0637V37.4311Z" fill="#FFEF56"/>
<path d="M32.0637 36.4836H31.115V37.4311H32.0637V36.4836Z" fill="#FFEF56"/>
<path d="M32.0637 35.5424H31.115V36.4824H32.0637V35.5424Z" fill="#FFEF56"/>
<path d="M32.0637 34.5961H31.115V35.5436H32.0637V34.5961Z" fill="#EAD32D"/>
<path d="M32.0637 33.6561H31.115V34.5949H32.0637V33.6561Z" fill="black"/>
<path d="M32.0637 32.7073H31.115V33.6561H32.0637V32.7073Z" fill="#00F3FF"/>
<path d="M32.0637 31.7686H31.115V32.7074H32.0637V31.7686Z" fill="#2CF926"/>
<path d="M32.0637 30.8199H31.115V31.7686H32.0637V30.8199Z" fill="#2CF926"/>
<path d="M32.0637 29.8724H31.115V30.8199H32.0637V29.8724Z" fill="black"/>
<path d="M32.0637 28.9324H31.115V29.8711H32.0637V28.9324Z" fill="#FFEF56"/>
<path d="M32.0637 27.9836H31.115V28.9324H32.0637V27.9836Z" fill="black"/>
<path d="M32.0637 27.0436H31.115V27.9823H32.0637V27.0436Z" fill="black"/>
<path d="M32.0637 26.0948H31.115V27.0436H32.0637V26.0948Z" fill="black"/>
<path d="M32.0637 25.1561H31.115V26.0949H32.0637V25.1561Z" fill="#FFEF56"/>
<path d="M32.0637 24.2073H31.115V25.1561H32.0637V24.2073Z" fill="#FFEF56"/>
<path d="M32.0637 23.2686H31.115V24.2074H32.0637V23.2686Z" fill="#FFEF56"/>
<path d="M32.0637 22.3199H31.115V23.2686H32.0637V22.3199Z" fill="#FFEF56"/>
<path d="M32.0637 21.3711H31.115V22.3198H32.0637V21.3711Z" fill="#FFEF56"/>
<path d="M32.0637 20.4324H31.115V21.3711H32.0637V20.4324Z" fill="#EAD32D"/>
<path d="M32.0637 19.4836H31.115V20.4323H32.0637V19.4836Z" fill="#EAD32D"/>
<path d="M32.0637 18.5449H31.115V19.4836H32.0637V18.5449Z" fill="black"/>
<path d="M32.0637 17.5961H31.115V18.5449H32.0637V17.5961Z" fill="black"/>
<path d="M31.115 40.2673H30.1763V41.2061H31.115V40.2673Z" fill="black"/>
<path d="M31.115 39.3186H30.1763V40.2674H31.115V39.3186Z" fill="#FFEF56"/>
<path d="M31.115 38.3799H30.1763V39.3186H31.115V38.3799Z" fill="#FFEF56"/>
<path d="M31.115 37.4311H30.1763V38.3798H31.115V37.4311Z" fill="#FFEF56"/>
<path d="M31.115 36.4836H30.1763V37.4311H31.115V36.4836Z" fill="#FFEF56"/>
<path d="M31.115 35.5424H30.1763V36.4824H31.115V35.5424Z" fill="#FFEF56"/>
<path d="M31.115 34.5961H30.1763V35.5436H31.115V34.5961Z" fill="#FFEF56"/>
<path d="M31.115 33.6561H30.1763V34.5949H31.115V33.6561Z" fill="black"/>
<path d="M31.115 32.7073H30.1763V33.6561H31.115V32.7073Z" fill="#2CF926"/>
<path d="M31.115 31.7686H30.1763V32.7074H31.115V31.7686Z" fill="#00F3FF"/>
<path d="M31.115 30.8199H30.1763V31.7686H31.115V30.8199Z" fill="#00F3FF"/>
<path d="M31.115 29.8724H30.1763V30.8199H31.115V29.8724Z" fill="#EFE4A3"/>
<path d="M31.115 28.9324H30.1763V29.8711H31.115V28.9324Z" fill="black"/>
<path d="M31.115 27.9836H30.1763V28.9324H31.115V27.9836Z" fill="#F9C6AA"/>
<path d="M31.115 27.0436H30.1763V27.9823H31.115V27.0436Z" fill="#F9C6AA"/>
<path d="M31.115 26.0948H30.1763V27.0436H31.115V26.0948Z" fill="#DDA487"/>
<path d="M31.115 25.1561H30.1763V26.0949H31.115V25.1561Z" fill="black"/>
<path d="M31.115 24.2073H30.1763V25.1561H31.115V24.2073Z" fill="#FFEF56"/>
<path d="M31.115 23.2686H30.1763V24.2074H31.115V23.2686Z" fill="#FFEF56"/>
<path d="M31.115 22.3199H30.1763V23.2686H31.115V22.3199Z" fill="#FFEF56"/>
<path d="M31.115 21.3711H30.1763V22.3198H31.115V21.3711Z" fill="#FFEF56"/>
<path d="M31.115 20.4324H30.1763V21.3711H31.115V20.4324Z" fill="#FFEF56"/>
<path d="M31.115 19.4836H30.1763V20.4323H31.115V19.4836Z" fill="#EAD32D"/>
<path d="M31.115 18.5449H30.1763V19.4836H31.115V18.5449Z" fill="#EAD32D"/>
<path d="M31.115 17.5961H30.1763V18.5449H31.115V17.5961Z" fill="black"/>
<path d="M31.115 16.6573H30.1763V17.5961H31.115V16.6573Z" fill="black"/>
<path d="M30.176 40.2673H29.2273V41.2061H30.176V40.2673Z" fill="black"/>
<path d="M30.176 39.3186H29.2273V40.2674H30.176V39.3186Z" fill="#EAD32D"/>
<path d="M30.176 38.3799H29.2273V39.3186H30.176V38.3799Z" fill="#FFEF56"/>
<path d="M30.176 37.4311H29.2273V38.3798H30.176V37.4311Z" fill="#FFEF56"/>
<path d="M30.176 36.4836H29.2273V37.4311H30.176V36.4836Z" fill="#FFEF56"/>
<path d="M30.176 35.5424H29.2273V36.4824H30.176V35.5424Z" fill="#FFEF56"/>
<path d="M30.176 34.5961H29.2273V35.5436H30.176V34.5961Z" fill="#FFEF56"/>
<path d="M30.176 33.6561H29.2273V34.5949H30.176V33.6561Z" fill="black"/>
<path d="M30.176 32.7073H29.2273V33.6561H30.176V32.7073Z" fill="#00F3FF"/>
<path d="M30.176 31.7686H29.2273V32.7074H30.176V31.7686Z" fill="#2CF926"/>
<path d="M30.176 30.8199H29.2273V31.7686H30.176V30.8199Z" fill="#2CF926"/>
<path d="M30.176 29.8724H29.2273V30.8199H30.176V29.8724Z" fill="#EFE4A3"/>
<path d="M30.176 28.9324H29.2273V29.8711H30.176V28.9324Z" fill="black"/>
<path d="M30.176 27.9836H29.2273V28.9324H30.176V27.9836Z" fill="#DDA487"/>
<path d="M30.176 27.0436H29.2273V27.9823H30.176V27.0436Z" fill="#F9C6AA"/>
<path d="M30.176 26.0948H29.2273V27.0436H30.176V26.0948Z" fill="#F9C6AA"/>
<path d="M30.176 25.1561H29.2273V26.0949H30.176V25.1561Z" fill="#DDA487"/>
<path d="M30.176 24.2073H29.2273V25.1561H30.176V24.2073Z" fill="black"/>
<path d="M30.176 23.2686H29.2273V24.2074H30.176V23.2686Z" fill="#FFEF56"/>
<path d="M30.176 22.3199H29.2273V23.2686H30.176V22.3199Z" fill="#FFEF56"/>
<path d="M30.176 21.3711H29.2273V22.3198H30.176V21.3711Z" fill="#FFEF56"/>
<path d="M30.176 20.4324H29.2273V21.3711H30.176V20.4324Z" fill="#FFEF56"/>
<path d="M30.176 19.4836H29.2273V20.4323H30.176V19.4836Z" fill="#FFEF56"/>
<path d="M30.176 18.5449H29.2273V19.4836H30.176V18.5449Z" fill="#EAD32D"/>
<path d="M30.176 17.5961H29.2273V18.5449H30.176V17.5961Z" fill="#EAD32D"/>
<path d="M30.176 16.6573H29.2273V17.5961H30.176V16.6573Z" fill="black"/>
<path d="M30.176 15.7086H29.2273V16.6574H30.176V15.7086Z" fill="black"/>
<path d="M29.2275 40.2673H28.28V41.2061H29.2275V40.2673Z" fill="black"/>
<path d="M29.2275 39.3186H28.28V40.2674H29.2275V39.3186Z" fill="#EAD32D"/>
<path d="M29.2275 38.3799H28.28V39.3186H29.2275V38.3799Z" fill="#EAD32D"/>
<path d="M29.2275 37.4311H28.28V38.3798H29.2275V37.4311Z" fill="#FFEF56"/>
<path d="M29.2275 36.4836H28.28V37.4311H29.2275V36.4836Z" fill="#FFEF56"/>
<path d="M29.2275 35.5424H28.28V36.4824H29.2275V35.5424Z" fill="#FFEF56"/>
<path d="M29.2275 34.5961H28.28V35.5436H29.2275V34.5961Z" fill="#FFEF56"/>
<path d="M29.2275 33.6561H28.28V34.5949H29.2275V33.6561Z" fill="black"/>
<path d="M29.2275 32.7073H28.28V33.6561H29.2275V32.7073Z" fill="#2CF926"/>
<path d="M29.2275 31.7686H28.28V32.7074H29.2275V31.7686Z" fill="#00F3FF"/>
<path d="M29.2275 30.8199H28.28V31.7686H29.2275V30.8199Z" fill="#00F3FF"/>
<path d="M29.2275 29.8724H28.28V30.8199H29.2275V29.8724Z" fill="#EFE4A3"/>
<path d="M29.2275 28.9324H28.28V29.8711H29.2275V28.9324Z" fill="black"/>
<path d="M29.2275 27.9836H28.28V28.9324H29.2275V27.9836Z" fill="#DDA487"/>
<path d="M29.2275 27.0436H28.28V27.9823H29.2275V27.0436Z" fill="#F9C6AA"/>
<path d="M29.2275 26.0948H28.28V27.0436H29.2275V26.0948Z" fill="#F9C6AA"/>
<path d="M29.2275 25.1561H28.28V26.0949H29.2275V25.1561Z" fill="black"/>
<path d="M29.2275 24.2073H28.28V25.1561H29.2275V24.2073Z" fill="#FFEF56"/>
<path d="M29.2275 23.2686H28.28V24.2074H29.2275V23.2686Z" fill="#FFEF56"/>
<path d="M29.2275 22.3199H28.28V23.2686H29.2275V22.3199Z" fill="#FFEF56"/>
<path d="M29.2275 21.3711H28.28V22.3198H29.2275V21.3711Z" fill="#FFEF56"/>
<path d="M29.2275 20.4324H28.28V21.3711H29.2275V20.4324Z" fill="#FFEF56"/>
<path d="M29.2275 19.4836H28.28V20.4323H29.2275V19.4836Z" fill="#FFEF56"/>
<path d="M29.2275 18.5449H28.28V19.4836H29.2275V18.5449Z" fill="#FFEF56"/>
<path d="M29.2275 17.5961H28.28V18.5449H29.2275V17.5961Z" fill="#EAD32D"/>
<path d="M29.2275 16.6573H28.28V17.5961H29.2275V16.6573Z" fill="#EAD32D"/>
<path d="M29.2275 15.7086H28.28V16.6574H29.2275V15.7086Z" fill="black"/>
<path d="M29.2275 14.7599H28.28V15.7086H29.2275V14.7599Z" fill="black"/>
<path d="M28.2786 40.2673H27.3398V41.2061H28.2786V40.2673Z" fill="black"/>
<path d="M28.2786 39.3186H27.3398V40.2674H28.2786V39.3186Z" fill="black"/>
<path d="M28.2786 38.3799H27.3398V39.3186H28.2786V38.3799Z" fill="#EAD32D"/>
<path d="M28.2786 37.4311H27.3398V38.3798H28.2786V37.4311Z" fill="#EAD32D"/>
<path d="M28.2786 36.4836H27.3398V37.4311H28.2786V36.4836Z" fill="#FFEF56"/>
<path d="M28.2786 35.5424H27.3398V36.4824H28.2786V35.5424Z" fill="#FFEF56"/>
<path d="M28.2786 34.5961H27.3398V35.5436H28.2786V34.5961Z" fill="#FFEF56"/>
<path d="M28.2786 33.6561H27.3398V34.5949H28.2786V33.6561Z" fill="black"/>
<path d="M28.2786 32.7073H27.3398V33.6561H28.2786V32.7073Z" fill="#00F3FF"/>
<path d="M28.2786 31.7686H27.3398V32.7074H28.2786V31.7686Z" fill="#2CF926"/>
<path d="M28.2786 30.8199H27.3398V31.7686H28.2786V30.8199Z" fill="#2CF926"/>
<path d="M28.2786 29.8724H27.3398V30.8199H28.2786V29.8724Z" fill="black"/>
<path d="M28.2786 28.9324H27.3398V29.8711H28.2786V28.9324Z" fill="#FFEF56"/>
<path d="M28.2786 27.9836H27.3398V28.9324H28.2786V27.9836Z" fill="black"/>
<path d="M28.2786 27.0436H27.3398V27.9823H28.2786V27.0436Z" fill="#F9C6AA"/>
<path d="M28.2786 26.0948H27.3398V27.0436H28.2786V26.0948Z" fill="#F9C6AA"/>
<path d="M28.2786 25.1561H27.3398V26.0949H28.2786V25.1561Z" fill="black"/>
<path d="M28.2786 24.2073H27.3398V25.1561H28.2786V24.2073Z" fill="#FFEF56"/>
<path d="M28.2786 23.2686H27.3398V24.2074H28.2786V23.2686Z" fill="#FFEF56"/>
<path d="M28.2786 22.3199H27.3398V23.2686H28.2786V22.3199Z" fill="#FFEF56"/>
<path d="M28.2786 21.3711H27.3398V22.3198H28.2786V21.3711Z" fill="#FFEF56"/>
<path d="M28.2786 20.4324H27.3398V21.3711H28.2786V20.4324Z" fill="#FFEF56"/>
<path d="M28.2786 19.4836H27.3398V20.4323H28.2786V19.4836Z" fill="#EAD32D"/>
<path d="M28.2786 18.5449H27.3398V19.4836H28.2786V18.5449Z" fill="#FFEF56"/>
<path d="M28.2786 17.5961H27.3398V18.5449H28.2786V17.5961Z" fill="#FFEF56"/>
<path d="M28.2786 16.6573H27.3398V17.5961H28.2786V16.6573Z" fill="#EAD32D"/>
<path d="M28.2786 15.7086H27.3398V16.6574H28.2786V15.7086Z" fill="#EAD32D"/>
<path d="M28.2786 14.7599H27.3398V15.7086H28.2786V14.7599Z" fill="black"/>
<path d="M27.3399 40.2673H26.3911V41.2061H27.3399V40.2673Z" fill="black"/>
<path d="M27.3399 39.3186H26.3911V40.2674H27.3399V39.3186Z" fill="#2B2403"/>
<path d="M27.3399 38.3799H26.3911V39.3186H27.3399V38.3799Z" fill="black"/>
<path d="M27.3399 37.4311H26.3911V38.3798H27.3399V37.4311Z" fill="black"/>
<path d="M27.3399 36.4836H26.3911V37.4311H27.3399V36.4836Z" fill="#EAD32D"/>
<path d="M27.3399 35.5424H26.3911V36.4824H27.3399V35.5424Z" fill="#EAD32D"/>
<path d="M27.3399 34.5961H26.3911V35.5436H27.3399V34.5961Z" fill="#FFEF56"/>
<path d="M27.3399 33.6561H26.3911V34.5949H27.3399V33.6561Z" fill="#FFEF56"/>
<path d="M27.3399 32.7073H26.3911V33.6561H27.3399V32.7073Z" fill="black"/>
<path d="M27.3399 31.7686H26.3911V32.7074H27.3399V31.7686Z" fill="black"/>
<path d="M27.3399 30.8199H26.3911V31.7686H27.3399V30.8199Z" fill="black"/>
<path d="M27.3399 29.8724H26.3911V30.8199H27.3399V29.8724Z" fill="#FFEF56"/>
<path d="M27.3399 28.9324H26.3911V29.8711H27.3399V28.9324Z" fill="#FFEF56"/>
<path d="M27.3399 27.9836H26.3911V28.9324H27.3399V27.9836Z" fill="black"/>
<path d="M27.3399 27.0436H26.3911V27.9823H27.3399V27.0436Z" fill="#F9C6AA"/>
<path d="M27.3399 26.0948H26.3911V27.0436H27.3399V26.0948Z" fill="#F9C6AA"/>
<path d="M27.3399 25.1561H26.3911V26.0949H27.3399V25.1561Z" fill="black"/>
<path d="M27.3399 24.2073H26.3911V25.1561H27.3399V24.2073Z" fill="#FFEF56"/>
<path d="M27.3399 23.2686H26.3911V24.2074H27.3399V23.2686Z" fill="#FFEF56"/>
<path d="M27.3399 22.3199H26.3911V23.2686H27.3399V22.3199Z" fill="#FFEF56"/>
<path d="M27.3399 21.3711H26.3911V22.3198H27.3399V21.3711Z" fill="#FFEF56"/>
<path d="M27.3399 20.4324H26.3911V21.3711H27.3399V20.4324Z" fill="#EAD32D"/>
<path d="M27.3399 19.4836H26.3911V20.4323H27.3399V19.4836Z" fill="#EAD32D"/>
<path d="M27.3399 18.5449H26.3911V19.4836H27.3399V18.5449Z" fill="#212120"/>
<path d="M27.3399 17.5961H26.3911V18.5449H27.3399V17.5961Z" fill="#FFEF56"/>
<path d="M27.3399 16.6573H26.3911V17.5961H27.3399V16.6573Z" fill="#FFEF56"/>
<path d="M27.3399 15.7086H26.3911V16.6574H27.3399V15.7086Z" fill="black"/>
<path d="M27.3399 14.7599H26.3911V15.7086H27.3399V14.7599Z" fill="black"/>
<path d="M27.3399 13.8199H26.3911V14.7586H27.3399V13.8199Z" fill="black"/>
<path d="M27.3399 12.8711H26.3911V13.8198H27.3399V12.8711Z" fill="black"/>
<path d="M27.3399 11.9324H26.3911V12.8711H27.3399V11.9324Z" fill="black"/>
<path d="M27.3399 10.9836H26.3911V11.9323H27.3399V10.9836Z" fill="black"/>
<path d="M26.3899 40.2673H25.4512V41.2061H26.3899V40.2673Z" fill="black"/>
<path d="M26.3899 39.3186H25.4512V40.2674H26.3899V39.3186Z" fill="#2B2403"/>
<path d="M26.3899 38.3799H25.4512V39.3186H26.3899V38.3799Z" fill="#2B2403"/>
<path d="M26.3899 37.4311H25.4512V38.3798H26.3899V37.4311Z" fill="#352E07"/>
<path d="M26.3899 36.4836H25.4512V37.4311H26.3899V36.4836Z" fill="black"/>
<path d="M26.3899 35.5424H25.4512V36.4824H26.3899V35.5424Z" fill="black"/>
<path d="M26.3899 34.5961H25.4512V35.5436H26.3899V34.5961Z" fill="#EAD32D"/>
<path d="M26.3899 33.6561H25.4512V34.5949H26.3899V33.6561Z" fill="#EAD32D"/>
<path d="M26.3899 32.7073H25.4512V33.6561H26.3899V32.7073Z" fill="#EAD32D"/>
<path d="M26.3899 31.7686H25.4512V32.7074H26.3899V31.7686Z" fill="#EAD32D"/>
<path d="M26.3899 30.8199H25.4512V31.7686H26.3899V30.8199Z" fill="#EAD32D"/>
<path d="M26.3899 29.8724H25.4512V30.8199H26.3899V29.8724Z" fill="#EAD32D"/>
<path d="M26.3899 28.9324H25.4512V29.8711H26.3899V28.9324Z" fill="black"/>
<path d="M26.3899 27.9836H25.4512V28.9324H26.3899V27.9836Z" fill="black"/>
<path d="M26.3899 27.0436H25.4512V27.9823H26.3899V27.0436Z" fill="black"/>
<path d="M26.3899 26.0948H25.4512V27.0436H26.3899V26.0948Z" fill="black"/>
<path d="M26.3899 25.1561H25.4512V26.0949H26.3899V25.1561Z" fill="black"/>
<path d="M26.3899 24.2073H25.4512V25.1561H26.3899V24.2073Z" fill="black"/>
<path d="M26.3899 23.2686H25.4512V24.2074H26.3899V23.2686Z" fill="#EAD32D"/>
<path d="M26.3899 22.3199H25.4512V23.2686H26.3899V22.3199Z" fill="#EAD32D"/>
<path d="M26.3899 21.3711H25.4512V22.3198H26.3899V21.3711Z" fill="#EAD32D"/>
<path d="M26.3899 20.4324H25.4512V21.3711H26.3899V20.4324Z" fill="#EAD32D"/>
<path d="M26.3899 19.4836H25.4512V20.4323H26.3899V19.4836Z" fill="#212120"/>
<path d="M26.3899 18.5449H25.4512V19.4836H26.3899V18.5449Z" fill="#212120"/>
<path d="M26.3899 17.5961H25.4512V18.5449H26.3899V17.5961Z" fill="#FFEF56"/>
<path d="M26.3899 16.6573H25.4512V17.5961H26.3899V16.6573Z" fill="black"/>
<path d="M26.3899 15.7086H25.4512V16.6574H26.3899V15.7086Z" fill="#A8A8A7"/>
<path d="M26.3899 14.7599H25.4512V15.7086H26.3899V14.7599Z" fill="#CCCCCA"/>
<path d="M26.3899 13.8199H25.4512V14.7586H26.3899V13.8199Z" fill="#CCCCCA"/>
<path d="M26.3899 12.8711H25.4512V13.8198H26.3899V12.8711Z" fill="#F9C6AA"/>
<path d="M26.3899 11.9324H25.4512V12.8711H26.3899V11.9324Z" fill="#F9C6AA"/>
<path d="M26.3899 10.9836H25.4512V11.9323H26.3899V10.9836Z" fill="#F9C6AA"/>
<path d="M26.3899 10.0449H25.4512V10.9836H26.3899V10.0449Z" fill="black"/>
<path d="M25.4512 40.2673H24.5024V41.2061H25.4512V40.2673Z" fill="black"/>
<path d="M25.4512 39.3186H24.5024V40.2674H25.4512V39.3186Z" fill="#2B2403"/>
<path d="M25.4512 38.3799H24.5024V39.3186H25.4512V38.3799Z" fill="#2B2403"/>
<path d="M25.4512 37.4311H24.5024V38.3798H25.4512V37.4311Z" fill="#352E07"/>
<path d="M25.4512 36.4836H24.5024V37.4311H25.4512V36.4836Z" fill="#352E07"/>
<path d="M25.4512 35.5424H24.5024V36.4824H25.4512V35.5424Z" fill="black"/>
<path d="M25.4512 34.5961H24.5024V35.5436H25.4512V34.5961Z" fill="black"/>
<path d="M25.4512 33.6561H24.5024V34.5949H25.4512V33.6561Z" fill="black"/>
<path d="M25.4512 32.7073H24.5024V33.6561H25.4512V32.7073Z" fill="black"/>
<path d="M25.4512 31.7686H24.5024V32.7074H25.4512V31.7686Z" fill="black"/>
<path d="M25.4512 30.8199H24.5024V31.7686H25.4512V30.8199Z" fill="black"/>
<path d="M25.4512 29.8724H24.5024V30.8199H25.4512V29.8724Z" fill="black"/>
<path d="M25.4512 28.9324H24.5024V29.8711H25.4512V28.9324Z" fill="black"/>
<path d="M25.4512 27.9836H24.5024V28.9324H25.4512V27.9836Z" fill="#352E07"/>
<path d="M25.4512 27.0436H24.5024V27.9823H25.4512V27.0436Z" fill="#352E07"/>
<path d="M25.4512 26.0948H24.5024V27.0436H25.4512V26.0948Z" fill="#352E07"/>
<path d="M25.4512 25.1561H24.5024V26.0949H25.4512V25.1561Z" fill="#352E07"/>
<path d="M25.4512 24.2073H24.5024V25.1561H25.4512V24.2073Z" fill="black"/>
<path d="M25.4512 23.2686H24.5024V24.2074H25.4512V23.2686Z" fill="black"/>
<path d="M25.4512 22.3199H24.5024V23.2686H25.4512V22.3199Z" fill="black"/>
<path d="M25.4512 21.3711H24.5024V22.3198H25.4512V21.3711Z" fill="black"/>
<path d="M25.4512 20.4324H24.5024V21.3711H25.4512V20.4324Z" fill="black"/>
<path d="M25.4512 19.4836H24.5024V20.4323H25.4512V19.4836Z" fill="#212120"/>
<path d="M25.4512 18.5449H24.5024V19.4836H25.4512V18.5449Z" fill="#212120"/>
<path d="M25.4512 17.5961H24.5024V18.5449H25.4512V17.5961Z" fill="#212120"/>
<path d="M25.4512 16.6573H24.5024V17.5961H25.4512V16.6573Z" fill="#A8A8A7"/>
<path d="M25.4512 15.7086H24.5024V16.6574H25.4512V15.7086Z" fill="#CCCCCA"/>
<path d="M25.4512 14.7599H24.5024V15.7086H25.4512V14.7599Z" fill="#CCCCCA"/>
<path d="M25.4512 13.8199H24.5024V14.7586H25.4512V13.8199Z" fill="#F9C6AA"/>
<path d="M25.4512 12.8711H24.5024V13.8198H25.4512V12.8711Z" fill="#2D2D2D"/>
<path d="M25.4512 11.9324H24.5024V12.8711H25.4512V11.9324Z" fill="#F9C6AA"/>
<path d="M25.4512 10.9836H24.5024V11.9323H25.4512V10.9836Z" fill="#F9C6AA"/>
<path d="M25.4512 10.0449H24.5024V10.9836H25.4512V10.0449Z" fill="black"/>
<path d="M24.5025 40.2673H23.5637V41.2061H24.5025V40.2673Z" fill="black"/>
<path d="M24.5025 39.3186H23.5637V40.2674H24.5025V39.3186Z" fill="#2B2403"/>
<path d="M24.5025 38.3799H23.5637V39.3186H24.5025V38.3799Z" fill="#514911"/>
<path d="M24.5025 37.4311H23.5637V38.3798H24.5025V37.4311Z" fill="#2B2403"/>
<path d="M24.5025 36.4836H23.5637V37.4311H24.5025V36.4836Z" fill="#352E07"/>
<path d="M24.5025 35.5424H23.5637V36.4824H24.5025V35.5424Z" fill="#352E07"/>
<path d="M24.5025 34.5961H23.5637V35.5436H24.5025V34.5961Z" fill="#352E07"/>
<path d="M24.5025 33.6561H23.5637V34.5949H24.5025V33.6561Z" fill="#352E07"/>
<path d="M24.5025 32.7073H23.5637V33.6561H24.5025V32.7073Z" fill="#352E07"/>
<path d="M24.5025 31.7686H23.5637V32.7074H24.5025V31.7686Z" fill="#352E07"/>
<path d="M24.5025 30.8199H23.5637V31.7686H24.5025V30.8199Z" fill="#352E07"/>
<path d="M24.5025 29.8724H23.5637V30.8199H24.5025V29.8724Z" fill="#352E07"/>
<path d="M24.5025 28.9324H23.5637V29.8711H24.5025V28.9324Z" fill="#352E07"/>
<path d="M24.5025 27.9836H23.5637V28.9324H24.5025V27.9836Z" fill="black"/>
<path d="M24.5025 27.0436H23.5637V27.9823H24.5025V27.0436Z" fill="#60561B"/>
<path d="M24.5025 26.0948H23.5637V27.0436H24.5025V26.0948Z" fill="#352E07"/>
<path d="M24.5025 25.1561H23.5637V26.0949H24.5025V25.1561Z" fill="#352E07"/>
<path d="M24.5025 24.2073H23.5637V25.1561H24.5025V24.2073Z" fill="black"/>
<path d="M24.5025 23.2686H23.5637V24.2074H24.5025V23.2686Z" fill="#352E07"/>
<path d="M24.5025 22.3199H23.5637V23.2686H24.5025V22.3199Z" fill="#352E07"/>
<path d="M24.5025 21.3711H23.5637V22.3198H24.5025V21.3711Z" fill="#352E07"/>
<path d="M24.5025 20.4324H23.5637V21.3711H24.5025V20.4324Z" fill="#352E07"/>
<path d="M24.5025 19.4836H23.5637V20.4323H24.5025V19.4836Z" fill="#352E07"/>
<path d="M24.5025 18.5449H23.5637V19.4836H24.5025V18.5449Z" fill="#212120"/>
<path d="M24.5025 17.5961H23.5637V18.5449H24.5025V17.5961Z" fill="#212120"/>
<path d="M24.5025 16.6573H23.5637V17.5961H24.5025V16.6573Z" fill="#A8A8A7"/>
<path d="M24.5025 15.7086H23.5637V16.6574H24.5025V15.7086Z" fill="#CCCCCA"/>
<path d="M24.5025 14.7599H23.5637V15.7086H24.5025V14.7599Z" fill="#CCCCCA"/>
<path d="M24.5025 13.8199H23.5637V14.7586H24.5025V13.8199Z" fill="#F9C6AA"/>
<path d="M24.5025 12.8711H23.5637V13.8198H24.5025V12.8711Z" fill="#2D2D2D"/>
<path d="M24.5025 11.9324H23.5637V12.8711H24.5025V11.9324Z" fill="#F9C6AA"/>
<path d="M24.5025 10.9836H23.5637V11.9323H24.5025V10.9836Z" fill="#F9C6AA"/>
<path d="M24.5025 10.0449H23.5637V10.9836H24.5025V10.0449Z" fill="black"/>
<path d="M23.5637 40.2673H22.615V41.2061H23.5637V40.2673Z" fill="black"/>
<path d="M23.5637 39.3186H22.615V40.2674H23.5637V39.3186Z" fill="#2B2403"/>
<path d="M23.5637 38.3799H22.615V39.3186H23.5637V38.3799Z" fill="#514911"/>
<path d="M23.5637 37.4311H22.615V38.3798H23.5637V37.4311Z" fill="#514911"/>
<path d="M23.5637 36.4836H22.615V37.4311H23.5637V36.4836Z" fill="#514911"/>
<path d="M23.5637 35.5424H22.615V36.4824H23.5637V35.5424Z" fill="#514911"/>
<path d="M23.5637 34.5961H22.615V35.5436H23.5637V34.5961Z" fill="#514911"/>
<path d="M23.5637 33.6561H22.615V34.5949H23.5637V33.6561Z" fill="#514911"/>
<path d="M23.5637 32.7073H22.615V33.6561H23.5637V32.7073Z" fill="#514911"/>
<path d="M23.5637 31.7686H22.615V32.7074H23.5637V31.7686Z" fill="#514911"/>
<path d="M23.5637 30.8199H22.615V31.7686H23.5637V30.8199Z" fill="#514911"/>
<path d="M23.5637 29.8724H22.615V30.8199H23.5637V29.8724Z" fill="#514911"/>
<path d="M23.5637 28.9324H22.615V29.8711H23.5637V28.9324Z" fill="#514911"/>
<path d="M23.5637 27.9836H22.615V28.9324H23.5637V27.9836Z" fill="#514911"/>
<path d="M23.5637 27.0436H22.615V27.9823H23.5637V27.0436Z" fill="black"/>
<path d="M23.5637 26.0948H22.615V27.0436H23.5637V26.0948Z" fill="#60561B"/>
<path d="M23.5637 25.1561H22.615V26.0949H23.5637V25.1561Z" fill="#352E07"/>
<path d="M23.5637 24.2073H22.615V25.1561H23.5637V24.2073Z" fill="black"/>
<path d="M23.5637 23.2686H22.615V24.2074H23.5637V23.2686Z" fill="black"/>
<path d="M23.5637 22.3199H22.615V23.2686H23.5637V22.3199Z" fill="#514911"/>
<path d="M23.5637 21.3711H22.615V22.3198H23.5637V21.3711Z" fill="#514911"/>
<path d="M23.5637 20.4324H22.615V21.3711H23.5637V20.4324Z" fill="#514911"/>
<path d="M23.5637 19.4836H22.615V20.4323H23.5637V19.4836Z" fill="#514911"/>
<path d="M23.5637 18.5449H22.615V19.4836H23.5637V18.5449Z" fill="#212120"/>
<path d="M23.5637 17.5961H22.615V18.5449H23.5637V17.5961Z" fill="#212120"/>
<path d="M23.5637 16.6573H22.615V17.5961H23.5637V16.6573Z" fill="#A8A8A7"/>
<path d="M23.5637 15.7086H22.615V16.6574H23.5637V15.7086Z" fill="#CCCCCA"/>
<path d="M23.5637 14.7599H22.615V15.7086H23.5637V14.7599Z" fill="#CCCCCA"/>
<path d="M23.5637 13.8199H22.615V14.7586H23.5637V13.8199Z" fill="#EA9E78"/>
<path d="M23.5637 12.8711H22.615V13.8198H23.5637V12.8711Z" fill="#F9C6AA"/>
<path d="M23.5637 11.9324H22.615V12.8711H23.5637V11.9324Z" fill="#F9C6AA"/>
<path d="M23.5637 10.9836H22.615V11.9323H23.5637V10.9836Z" fill="#F9C6AA"/>
<path d="M23.5637 10.0449H22.615V10.9836H23.5637V10.0449Z" fill="black"/>
<path d="M22.615 40.2673H21.6763V41.2061H22.615V40.2673Z" fill="black"/>
<path d="M22.615 39.3186H21.6763V40.2674H22.615V39.3186Z" fill="#2B2403"/>
<path d="M22.615 38.3799H21.6763V39.3186H22.615V38.3799Z" fill="#514911"/>
<path d="M22.615 37.4311H21.6763V38.3798H22.615V37.4311Z" fill="#514911"/>
<path d="M22.615 36.4836H21.6763V37.4311H22.615V36.4836Z" fill="black"/>
<path d="M22.615 35.5424H21.6763V36.4824H22.615V35.5424Z" fill="black"/>
<path d="M22.615 34.5961H21.6763V35.5436H22.615V34.5961Z" fill="black"/>
<path d="M22.615 33.6561H21.6763V34.5949H22.615V33.6561Z" fill="black"/>
<path d="M22.615 32.7073H21.6763V33.6561H22.615V32.7073Z" fill="black"/>
<path d="M22.615 31.7686H21.6763V32.7074H22.615V31.7686Z" fill="black"/>
<path d="M22.615 30.8199H21.6763V31.7686H22.615V30.8199Z" fill="black"/>
<path d="M22.615 29.8724H21.6763V30.8199H22.615V29.8724Z" fill="black"/>
<path d="M22.615 28.9324H21.6763V29.8711H22.615V28.9324Z" fill="black"/>
<path d="M22.615 27.9836H21.6763V28.9324H22.615V27.9836Z" fill="black"/>
<path d="M22.615 27.0436H21.6763V27.9823H22.615V27.0436Z" fill="black"/>
<path d="M22.615 26.0948H21.6763V27.0436H22.615V26.0948Z" fill="black"/>
<path d="M22.615 25.1561H21.6763V26.0949H22.615V25.1561Z" fill="black"/>
<path d="M22.615 24.2073H21.6763V25.1561H22.615V24.2073Z" fill="black"/>
<path d="M22.615 23.2686H21.6763V24.2074H22.615V23.2686Z" fill="black"/>
<path d="M22.615 22.3199H21.6763V23.2686H22.615V22.3199Z" fill="black"/>
<path d="M22.615 21.3711H21.6763V22.3198H22.615V21.3711Z" fill="black"/>
<path d="M22.615 20.4324H21.6763V21.3711H22.615V20.4324Z" fill="black"/>
<path d="M22.615 19.4836H21.6763V20.4323H22.615V19.4836Z" fill="#212120"/>
<path d="M22.615 18.5449H21.6763V19.4836H22.615V18.5449Z" fill="#212120"/>
<path d="M22.615 17.5961H21.6763V18.5449H22.615V17.5961Z" fill="#212120"/>
<path d="M22.615 16.6573H21.6763V17.5961H22.615V16.6573Z" fill="#A8A8A7"/>
<path d="M22.615 15.7086H21.6763V16.6574H22.615V15.7086Z" fill="#CCCCCA"/>
<path d="M22.615 14.7599H21.6763V15.7086H22.615V14.7599Z" fill="#CCCCCA"/>
<path d="M22.615 13.8199H21.6763V14.7586H22.615V13.8199Z" fill="#F9C6AA"/>
<path d="M22.615 12.8711H21.6763V13.8198H22.615V12.8711Z" fill="#2D2D2D"/>
<path d="M22.615 11.9324H21.6763V12.8711H22.615V11.9324Z" fill="#F9C6AA"/>
<path d="M22.615 10.9836H21.6763V11.9323H22.615V10.9836Z" fill="#F9C6AA"/>
<path d="M22.615 10.0449H21.6763V10.9836H22.615V10.0449Z" fill="black"/>
<path d="M21.676 40.2673H20.7273V41.2061H21.676V40.2673Z" fill="black"/>
<path d="M21.676 39.3186H20.7273V40.2674H21.676V39.3186Z" fill="#2B2403"/>
<path d="M21.676 38.3799H20.7273V39.3186H21.676V38.3799Z" fill="black"/>
<path d="M21.676 37.4311H20.7273V38.3798H21.676V37.4311Z" fill="black"/>
<path d="M21.676 36.4836H20.7273V37.4311H21.676V36.4836Z" fill="#FFEF56"/>
<path d="M21.676 35.5424H20.7273V36.4824H21.676V35.5424Z" fill="#FFEF56"/>
<path d="M21.676 34.5961H20.7273V35.5436H21.676V34.5961Z" fill="#FFEF56"/>
<path d="M21.676 33.6561H20.7273V34.5949H21.676V33.6561Z" fill="#FFEF56"/>
<path d="M21.676 32.7073H20.7273V33.6561H21.676V32.7073Z" fill="#FFEF56"/>
<path d="M21.676 31.7686H20.7273V32.7074H21.676V31.7686Z" fill="#FFEF56"/>
<path d="M21.676 30.8199H20.7273V31.7686H21.676V30.8199Z" fill="#FFEF56"/>
<path d="M21.676 29.8724H20.7273V30.8199H21.676V29.8724Z" fill="#FFEF56"/>
<path d="M21.676 28.9324H20.7273V29.8711H21.676V28.9324Z" fill="#FFEF56"/>
<path d="M21.676 27.9836H20.7273V28.9324H21.676V27.9836Z" fill="#FFEF56"/>
<path d="M21.676 27.0436H20.7273V27.9823H21.676V27.0436Z" fill="#FFEF56"/>
<path d="M21.676 26.0948H20.7273V27.0436H21.676V26.0948Z" fill="#FFEF56"/>
<path d="M21.676 25.1561H20.7273V26.0949H21.676V25.1561Z" fill="#FFEF56"/>
<path d="M21.676 24.2073H20.7273V25.1561H21.676V24.2073Z" fill="#EAD32D"/>
<path d="M21.676 23.2686H20.7273V24.2074H21.676V23.2686Z" fill="#EAD32D"/>
<path d="M21.676 22.3199H20.7273V23.2686H21.676V22.3199Z" fill="#EAD32D"/>
<path d="M21.676 21.3711H20.7273V22.3198H21.676V21.3711Z" fill="#EAD32D"/>
<path d="M21.676 20.4324H20.7273V21.3711H21.676V20.4324Z" fill="#EAD32D"/>
<path d="M21.676 19.4836H20.7273V20.4323H21.676V19.4836Z" fill="#212120"/>
<path d="M21.676 18.5449H20.7273V19.4836H21.676V18.5449Z" fill="#212120"/>
<path d="M21.676 17.5961H20.7273V18.5449H21.676V17.5961Z" fill="#EAD32D"/>
<path d="M21.676 16.6573H20.7273V17.5961H21.676V16.6573Z" fill="black"/>
<path d="M21.676 15.7086H20.7273V16.6574H21.676V15.7086Z" fill="black"/>
<path d="M21.676 14.7599H20.7273V15.7086H21.676V14.7599Z" fill="black"/>
<path d="M21.676 13.8199H20.7273V14.7586H21.676V13.8199Z" fill="black"/>
<path d="M21.676 12.8711H20.7273V13.8198H21.676V12.8711Z" fill="black"/>
<path d="M21.676 11.9324H20.7273V12.8711H21.676V11.9324Z" fill="black"/>
<path d="M21.676 10.9836H20.7273V11.9323H21.676V10.9836Z" fill="black"/>
<path d="M20.7273 40.2673H19.7786V41.2061H20.7273V40.2673Z" fill="black"/>
<path d="M20.7273 39.3186H19.7786V40.2674H20.7273V39.3186Z" fill="black"/>
<path d="M20.7273 38.3799H19.7786V39.3186H20.7273V38.3799Z" fill="#EAD32D"/>
<path d="M20.7273 37.4311H19.7786V38.3798H20.7273V37.4311Z" fill="#FFEF56"/>
<path d="M20.7273 36.4836H19.7786V37.4311H20.7273V36.4836Z" fill="#FFEF56"/>
<path d="M20.7273 35.5424H19.7786V36.4824H20.7273V35.5424Z" fill="#FFEF56"/>
<path d="M20.7273 34.5961H19.7786V35.5436H20.7273V34.5961Z" fill="#FFEF56"/>
<path d="M20.7273 33.6561H19.7786V34.5949H20.7273V33.6561Z" fill="#FFEF56"/>
<path d="M20.7273 32.7073H19.7786V33.6561H20.7273V32.7073Z" fill="#FFEF56"/>
<path d="M20.7273 31.7686H19.7786V32.7074H20.7273V31.7686Z" fill="#FFEF56"/>
<path d="M20.7273 30.8199H19.7786V31.7686H20.7273V30.8199Z" fill="#FFEF56"/>
<path d="M20.7273 29.8724H19.7786V30.8199H20.7273V29.8724Z" fill="#FFEF56"/>
<path d="M20.7273 28.9324H19.7786V29.8711H20.7273V28.9324Z" fill="#FFEF56"/>
<path d="M20.7273 27.9836H19.7786V28.9324H20.7273V27.9836Z" fill="#FFEF56"/>
<path d="M20.7273 27.0436H19.7786V27.9823H20.7273V27.0436Z" fill="#FFEF56"/>
<path d="M20.7273 26.0948H19.7786V27.0436H20.7273V26.0948Z" fill="#FFEF56"/>
<path d="M20.7273 25.1561H19.7786V26.0949H20.7273V25.1561Z" fill="#FFEF56"/>
<path d="M20.7273 24.2073H19.7786V25.1561H20.7273V24.2073Z" fill="#FFEF56"/>
<path d="M20.7273 23.2686H19.7786V24.2074H20.7273V23.2686Z" fill="#FFEF56"/>
<path d="M20.7273 22.3199H19.7786V23.2686H20.7273V22.3199Z" fill="#EAD32D"/>
<path d="M20.7273 21.3711H19.7786V22.3198H20.7273V21.3711Z" fill="#EAD32D"/>
<path d="M20.7273 20.4324H19.7786V21.3711H20.7273V20.4324Z" fill="#EAD32D"/>
<path d="M20.7273 19.4836H19.7786V20.4323H20.7273V19.4836Z" fill="#EAD32D"/>
<path d="M20.7273 18.5449H19.7786V19.4836H20.7273V18.5449Z" fill="#EAD32D"/>
<path d="M20.7273 17.5961H19.7786V18.5449H20.7273V17.5961Z" fill="#EAD32D"/>
<path d="M20.7273 16.6573H19.7786V17.5961H20.7273V16.6573Z" fill="#EAD32D"/>
<path d="M20.7273 15.7086H19.7786V16.6574H20.7273V15.7086Z" fill="black"/>
<path d="M19.7786 40.2673H18.8398V41.2061H19.7786V40.2673Z" fill="black"/>
<path d="M19.7786 39.3186H18.8398V40.2674H19.7786V39.3186Z" fill="#EAD32D"/>
<path d="M19.7786 38.3799H18.8398V39.3186H19.7786V38.3799Z" fill="#EAD32D"/>
<path d="M19.7786 37.4311H18.8398V38.3798H19.7786V37.4311Z" fill="#EAD32D"/>
<path d="M19.7786 36.4836H18.8398V37.4311H19.7786V36.4836Z" fill="#FFEF56"/>
<path d="M19.7786 35.5424H18.8398V36.4824H19.7786V35.5424Z" fill="#FFEF56"/>
<path d="M19.7786 34.5961H18.8398V35.5436H19.7786V34.5961Z" fill="#FFEF56"/>
<path d="M19.7786 33.6561H18.8398V34.5949H19.7786V33.6561Z" fill="#FFEF56"/>
<path d="M19.7786 32.7073H18.8398V33.6561H19.7786V32.7073Z" fill="#FFEF56"/>
<path d="M19.7786 31.7686H18.8398V32.7074H19.7786V31.7686Z" fill="#FFEF56"/>
<path d="M19.7786 30.8199H18.8398V31.7686H19.7786V30.8199Z" fill="#FFEF56"/>
<path d="M19.7786 29.8724H18.8398V30.8199H19.7786V29.8724Z" fill="#FFEF56"/>
<path d="M19.7786 28.9324H18.8398V29.8711H19.7786V28.9324Z" fill="#FFEF56"/>
<path d="M19.7786 27.9836H18.8398V28.9324H19.7786V27.9836Z" fill="#FFEF56"/>
<path d="M19.7786 27.0436H18.8398V27.9823H19.7786V27.0436Z" fill="#FFEF56"/>
<path d="M19.7786 26.0948H18.8398V27.0436H19.7786V26.0948Z" fill="#FFEF56"/>
<path d="M19.7786 25.1561H18.8398V26.0949H19.7786V25.1561Z" fill="#FFEF56"/>
<path d="M19.7786 24.2073H18.8398V25.1561H19.7786V24.2073Z" fill="#FFEF56"/>
<path d="M19.7786 23.2686H18.8398V24.2074H19.7786V23.2686Z" fill="#FFEF56"/>
<path d="M19.7786 22.3199H18.8398V23.2686H19.7786V22.3199Z" fill="#FFEF56"/>
<path d="M19.7786 21.3711H18.8398V22.3198H19.7786V21.3711Z" fill="#FFEF56"/>
<path d="M19.7786 20.4324H18.8398V21.3711H19.7786V20.4324Z" fill="#EAD32D"/>
<path d="M19.7786 19.4836H18.8398V20.4323H19.7786V19.4836Z" fill="#EAD32D"/>
<path d="M19.7786 18.5449H18.8398V19.4836H19.7786V18.5449Z" fill="#EAD32D"/>
<path d="M19.7786 17.5961H18.8398V18.5449H19.7786V17.5961Z" fill="black"/>
<path d="M19.7786 16.6573H18.8398V17.5961H19.7786V16.6573Z" fill="black"/>
<path d="M18.8399 40.2673H17.8911V41.2061H18.8399V40.2673Z" fill="black"/>
<path d="M18.8399 39.3186H17.8911V40.2674H18.8399V39.3186Z" fill="#EAD32D"/>
<path d="M18.8399 38.3799H17.8911V39.3186H18.8399V38.3799Z" fill="#EAD32D"/>
<path d="M18.8399 37.4311H17.8911V38.3798H18.8399V37.4311Z" fill="#EAD32D"/>
<path d="M18.8399 36.4836H17.8911V37.4311H18.8399V36.4836Z" fill="#EAD32D"/>
<path d="M18.8399 35.5424H17.8911V36.4824H18.8399V35.5424Z" fill="#EAD32D"/>
<path d="M18.8399 34.5961H17.8911V35.5436H18.8399V34.5961Z" fill="#FFEF56"/>
<path d="M18.8399 33.6561H17.8911V34.5949H18.8399V33.6561Z" fill="#FFEF56"/>
<path d="M18.8399 32.7073H17.8911V33.6561H18.8399V32.7073Z" fill="#FFEF56"/>
<path d="M18.8399 31.7686H17.8911V32.7074H18.8399V31.7686Z" fill="#FFEF56"/>
<path d="M18.8399 30.8199H17.8911V31.7686H18.8399V30.8199Z" fill="#FFEF56"/>
<path d="M18.8399 29.8724H17.8911V30.8199H18.8399V29.8724Z" fill="#FFEF56"/>
<path d="M18.8399 28.9324H17.8911V29.8711H18.8399V28.9324Z" fill="#FFEF56"/>
<path d="M18.8399 27.9836H17.8911V28.9324H18.8399V27.9836Z" fill="#FFEF56"/>
<path d="M18.8399 27.0436H17.8911V27.9823H18.8399V27.0436Z" fill="#FFEF56"/>
<path d="M18.8399 26.0948H17.8911V27.0436H18.8399V26.0948Z" fill="#FFEF56"/>
<path d="M18.8399 25.1561H17.8911V26.0949H18.8399V25.1561Z" fill="#FFEF56"/>
<path d="M18.8399 24.2073H17.8911V25.1561H18.8399V24.2073Z" fill="#FFEF56"/>
<path d="M18.8399 23.2686H17.8911V24.2074H18.8399V23.2686Z" fill="#FFEF56"/>
<path d="M18.8399 22.3199H17.8911V23.2686H18.8399V22.3199Z" fill="#FFEF56"/>
<path d="M18.8399 21.3711H17.8911V22.3198H18.8399V21.3711Z" fill="#FFEF56"/>
<path d="M18.8399 20.4324H17.8911V21.3711H18.8399V20.4324Z" fill="#FFEF56"/>
<path d="M18.8399 19.4836H17.8911V20.4323H18.8399V19.4836Z" fill="#EAD32D"/>
<path d="M18.8399 18.5449H17.8911V19.4836H18.8399V18.5449Z" fill="black"/>
<path d="M17.8911 40.2673H16.9524V41.2061H17.8911V40.2673Z" fill="black"/>
<path d="M17.8911 39.3186H16.9524V40.2674H17.8911V39.3186Z" fill="#EAD32D"/>
<path d="M17.8911 38.3799H16.9524V39.3186H17.8911V38.3799Z" fill="#EAD32D"/>
<path d="M17.8911 37.4311H16.9524V38.3798H17.8911V37.4311Z" fill="#EAD32D"/>
<path d="M17.8911 36.4836H16.9524V37.4311H17.8911V36.4836Z" fill="#EAD32D"/>
<path d="M17.8911 35.5424H16.9524V36.4824H17.8911V35.5424Z" fill="#EAD32D"/>
<path d="M17.8911 34.5961H16.9524V35.5436H17.8911V34.5961Z" fill="#EAD32D"/>
<path d="M17.8911 33.6561H16.9524V34.5949H17.8911V33.6561Z" fill="#FFEF56"/>
<path d="M17.8911 32.7073H16.9524V33.6561H17.8911V32.7073Z" fill="#FFEF56"/>
<path d="M17.8911 31.7686H16.9524V32.7074H17.8911V31.7686Z" fill="#FFEF56"/>
<path d="M17.8911 30.8199H16.9524V31.7686H17.8911V30.8199Z" fill="#FFEF56"/>
<path d="M17.8911 29.8724H16.9524V30.8199H17.8911V29.8724Z" fill="#FFEF56"/>
<path d="M17.8911 28.9324H16.9524V29.8711H17.8911V28.9324Z" fill="#FFEF56"/>
<path d="M17.8911 27.9836H16.9524V28.9324H17.8911V27.9836Z" fill="#FFEF56"/>
<path d="M17.8911 27.0436H16.9524V27.9823H17.8911V27.0436Z" fill="#FFEF56"/>
<path d="M17.8911 26.0948H16.9524V27.0436H17.8911V26.0948Z" fill="#FFEF56"/>
<path d="M17.8911 25.1561H16.9524V26.0949H17.8911V25.1561Z" fill="#FFEF56"/>
<path d="M17.8911 24.2073H16.9524V25.1561H17.8911V24.2073Z" fill="#FFEF56"/>
<path d="M17.8911 23.2686H16.9524V24.2074H17.8911V23.2686Z" fill="#FFEF56"/>
<path d="M17.8911 22.3199H16.9524V23.2686H17.8911V22.3199Z" fill="#FFEF56"/>
<path d="M17.8911 21.3711H16.9524V22.3198H17.8911V21.3711Z" fill="#FFEF56"/>
<path d="M17.8911 20.4324H16.9524V21.3711H17.8911V20.4324Z" fill="#EAD32D"/>
<path d="M17.8911 19.4836H16.9524V20.4323H17.8911V19.4836Z" fill="black"/>
<path d="M17.8911 18.5449H16.9524V19.4836H17.8911V18.5449Z" fill="black"/>
<path d="M16.9524 40.2673H16.0037V41.2061H16.9524V40.2673Z" fill="black"/>
<path d="M16.9524 39.3186H16.0037V40.2674H16.9524V39.3186Z" fill="black"/>
<path d="M16.9524 38.3799H16.0037V39.3186H16.9524V38.3799Z" fill="black"/>
<path d="M16.9524 37.4311H16.0037V38.3798H16.9524V37.4311Z" fill="black"/>
<path d="M16.9524 36.4836H16.0037V37.4311H16.9524V36.4836Z" fill="black"/>
<path d="M16.9524 35.5424H16.0037V36.4824H16.9524V35.5424Z" fill="black"/>
<path d="M16.9524 34.5961H16.0037V35.5436H16.9524V34.5961Z" fill="black"/>
<path d="M16.9524 33.6561H16.0037V34.5949H16.9524V33.6561Z" fill="black"/>
<path d="M16.9524 32.7073H16.0037V33.6561H16.9524V32.7073Z" fill="black"/>
<path d="M16.9524 31.7686H16.0037V32.7074H16.9524V31.7686Z" fill="black"/>
<path d="M16.9524 30.8199H16.0037V31.7686H16.9524V30.8199Z" fill="black"/>
<path d="M16.9524 29.8724H16.0037V30.8199H16.9524V29.8724Z" fill="black"/>
<path d="M16.9524 28.9324H16.0037V29.8711H16.9524V28.9324Z" fill="black"/>
<path d="M16.9524 27.9836H16.0037V28.9324H16.9524V27.9836Z" fill="black"/>
<path d="M16.9524 27.0436H16.0037V27.9823H16.9524V27.0436Z" fill="black"/>
<path d="M16.9524 26.0948H16.0037V27.0436H16.9524V26.0948Z" fill="black"/>
<path d="M16.9524 25.1561H16.0037V26.0949H16.9524V25.1561Z" fill="black"/>
<path d="M16.9524 24.2073H16.0037V25.1561H16.9524V24.2073Z" fill="black"/>
<path d="M16.9524 23.2686H16.0037V24.2074H16.9524V23.2686Z" fill="black"/>
<path d="M16.9524 22.3199H16.0037V23.2686H16.9524V22.3199Z" fill="black"/>
<path d="M16.9524 21.3711H16.0037V22.3198H16.9524V21.3711Z" fill="black"/>
<path d="M16.9524 20.4324H16.0037V21.3711H16.9524V20.4324Z" fill="black"/>
</g>
<defs>
<clipPath id="clip0_69_12162">
<rect width="50" height="50" fill="white" transform="translate(0 0.942383)"/>
</clipPath>
</defs>
</svg>
