<svg width="50" height="51" viewBox="0 0 50 51" fill="none" xmlns="http://www.w3.org/2000/svg">
<g clip-path="url(#clip0_69_12151)">
<path d="M24.9998 49.1649C37.8253 49.1649 48.2223 38.7678 48.2223 25.9424C48.2223 13.117 37.8253 2.71991 24.9998 2.71991C12.1744 2.71991 1.77734 13.117 1.77734 25.9424C1.77734 38.7678 12.1744 49.1649 24.9998 49.1649Z" fill="black"/>
<path d="M24.9998 50.0399C11.7123 50.0399 0.902344 39.2299 0.902344 25.9424C0.902344 12.6549 11.7123 1.84491 24.9998 1.84491C38.2873 1.84491 49.0973 12.6549 49.0973 25.9424C49.0973 39.2299 38.2873 50.0399 24.9998 50.0399ZM24.9998 3.59491C12.6773 3.59491 2.65234 13.6199 2.65234 25.9424C2.65234 38.2649 12.6773 48.2899 24.9998 48.2899C37.3223 48.2899 47.3473 38.2649 47.3473 25.9424C47.3473 13.6199 37.3223 3.59491 24.9998 3.59491Z" fill="#AD17AD"/>
<path d="M32.9537 40.4374H32.0737V41.3099H32.9537V40.4374Z" fill="black"/>
<path d="M32.9537 39.5562H32.0737V40.4374H32.9537V39.5562Z" fill="black"/>
<path d="M32.9537 38.6837H32.0737V39.5562H32.9537V38.6837Z" fill="black"/>
<path d="M32.9537 37.8024H32.0737V38.6836H32.9537V37.8024Z" fill="black"/>
<path d="M32.9537 36.9211H32.0737V37.8011H32.9537V36.9211Z" fill="black"/>
<path d="M32.9537 36.0474H32.0737V36.9211H32.9537V36.0474Z" fill="black"/>
<path d="M32.9537 35.1674H32.0737V36.0474H32.9537V35.1674Z" fill="black"/>
<path d="M32.9537 30.7786H32.0737V31.6586H32.9537V30.7786Z" fill="black"/>
<path d="M32.9537 29.9049H32.0737V30.7774H32.9537V29.9049Z" fill="black"/>
<path d="M32.9537 29.0236H32.0737V29.9049H32.9537V29.0236Z" fill="black"/>
<path d="M32.9537 28.1511H32.0737V29.0236H32.9537V28.1511Z" fill="black"/>
<path d="M32.9537 27.2699H32.0737V28.1511H32.9537V27.2699Z" fill="black"/>
<path d="M32.9537 26.3974H32.0737V27.2699H32.9537V26.3974Z" fill="black"/>
<path d="M32.9537 25.5161H32.0737V26.3974H32.9537V25.5161Z" fill="black"/>
<path d="M32.9537 24.6436H32.0737V25.5161H32.9537V24.6436Z" fill="black"/>
<path d="M32.9537 23.7624H32.0737V24.6436H32.9537V23.7624Z" fill="black"/>
<path d="M32.9537 13.2299H32.0737V14.1112H32.9537V13.2299Z" fill="#F20000"/>
<path d="M32.9537 12.3586H32.0737V13.2311H32.9537V12.3586Z" fill="#F20000"/>
<path d="M32.0737 40.4374H31.2012V41.3099H32.0737V40.4374Z" fill="black"/>
<path d="M32.0737 39.5562H31.2012V40.4374H32.0737V39.5562Z" fill="#3C4360"/>
<path d="M32.0737 38.6837H31.2012V39.5562H32.0737V38.6837Z" fill="#3C4360"/>
<path d="M32.0737 37.8024H31.2012V38.6836H32.0737V37.8024Z" fill="#3C4360"/>
<path d="M32.0737 36.9211H31.2012V37.8011H32.0737V36.9211Z" fill="black"/>
<path d="M32.0737 36.0474H31.2012V36.9211H32.0737V36.0474Z" fill="#3C4360"/>
<path d="M32.0737 35.1674H31.2012V36.0474H32.0737V35.1674Z" fill="black"/>
<path d="M32.0737 34.2949H31.2012V35.1674H32.0737V34.2949Z" fill="black"/>
<path d="M32.0737 33.4124H31.2012V34.2937H32.0737V33.4124Z" fill="black"/>
<path d="M32.0737 32.5411H31.2012V33.4136H32.0737V32.5411Z" fill="black"/>
<path d="M32.0737 31.6586H31.2012V32.5399H32.0737V31.6586Z" fill="black"/>
<path d="M32.0737 30.7786H31.2012V31.6586H32.0737V30.7786Z" fill="#F49364"/>
<path d="M32.0737 29.9049H31.2012V30.7774H32.0737V29.9049Z" fill="#AD17AD"/>
<path d="M32.0737 29.0236H31.2012V29.9049H32.0737V29.0236Z" fill="#AD17AD"/>
<path d="M32.0737 28.1511H31.2012V29.0236H32.0737V28.1511Z" fill="#AD17AD"/>
<path d="M32.0737 27.2699H31.2012V28.1511H32.0737V27.2699Z" fill="#AD17AD"/>
<path d="M32.0737 26.3974H31.2012V27.2699H32.0737V26.3974Z" fill="#AD17AD"/>
<path d="M32.0737 25.5161H31.2012V26.3974H32.0737V25.5161Z" fill="#AD17AD"/>
<path d="M32.0737 24.6436H31.2012V25.5161H32.0737V24.6436Z" fill="#AD17AD"/>
<path d="M32.0737 23.7624H31.2012V24.6436H32.0737V23.7624Z" fill="#8A0391"/>
<path d="M32.0737 22.8812H31.2012V23.7624H32.0737V22.8812Z" fill="black"/>
<path d="M32.0737 15.8661H31.2012V16.7387H32.0737V15.8661Z" fill="black"/>
<path d="M32.0737 14.9849H31.2012V15.8661H32.0737V14.9849Z" fill="black"/>
<path d="M32.0737 14.1124H31.2012V14.9849H32.0737V14.1124Z" fill="#F20000"/>
<path d="M32.0737 13.2299H31.2012V14.1112H32.0737V13.2299Z" fill="#F20000"/>
<path d="M32.0737 12.3586H31.2012V13.2311H32.0737V12.3586Z" fill="#F20000"/>
<path d="M31.2001 40.4374H30.3188V41.3099H31.2001V40.4374Z" fill="black"/>
<path d="M31.2001 39.5562H30.3188V40.4374H31.2001V39.5562Z" fill="#3C4360"/>
<path d="M31.2001 38.6837H30.3188V39.5562H31.2001V38.6837Z" fill="#3C4360"/>
<path d="M31.2001 37.8024H30.3188V38.6836H31.2001V37.8024Z" fill="#3C4360"/>
<path d="M31.2001 36.9211H30.3188V37.8011H31.2001V36.9211Z" fill="black"/>
<path d="M31.2001 36.0474H30.3188V36.9211H31.2001V36.0474Z" fill="#3C4360"/>
<path d="M31.2001 35.1674H30.3188V36.0474H31.2001V35.1674Z" fill="#8A0391"/>
<path d="M31.2001 34.2949H30.3188V35.1674H31.2001V34.2949Z" fill="#8A0391"/>
<path d="M31.2001 33.4124H30.3188V34.2937H31.2001V33.4124Z" fill="#8A0391"/>
<path d="M31.2001 32.5411H30.3188V33.4136H31.2001V32.5411Z" fill="#8A0391"/>
<path d="M31.2001 31.6586H30.3188V32.5399H31.2001V31.6586Z" fill="black"/>
<path d="M31.2001 30.7786H30.3188V31.6586H31.2001V30.7786Z" fill="#F49364"/>
<path d="M31.2001 29.9049H30.3188V30.7774H31.2001V29.9049Z" fill="#AD17AD"/>
<path d="M31.2001 29.0236H30.3188V29.9049H31.2001V29.0236Z" fill="#AD17AD"/>
<path d="M31.2001 28.1511H30.3188V29.0236H31.2001V28.1511Z" fill="#AD17AD"/>
<path d="M31.2001 27.2699H30.3188V28.1511H31.2001V27.2699Z" fill="#AD17AD"/>
<path d="M31.2001 26.3974H30.3188V27.2699H31.2001V26.3974Z" fill="#AD17AD"/>
<path d="M31.2001 25.5161H30.3188V26.3974H31.2001V25.5161Z" fill="#AD17AD"/>
<path d="M31.2001 24.6436H30.3188V25.5161H31.2001V24.6436Z" fill="#AD17AD"/>
<path d="M31.2001 23.7624H30.3188V24.6436H31.2001V23.7624Z" fill="#AD17AD"/>
<path d="M31.2001 22.8812H30.3188V23.7624H31.2001V22.8812Z" fill="#500256"/>
<path d="M31.2001 22.0087H30.3188V22.8812H31.2001V22.0087Z" fill="black"/>
<path d="M31.2001 20.2549H30.3188V21.1274H31.2001V20.2549Z" fill="black"/>
<path d="M31.2001 19.3737H30.3188V20.2549H31.2001V19.3737Z" fill="black"/>
<path d="M31.2001 18.5012H30.3188V19.3737H31.2001V18.5012Z" fill="black"/>
<path d="M31.2001 17.6199H30.3188V18.5011H31.2001V17.6199Z" fill="black"/>
<path d="M31.2001 16.7386H30.3188V17.6199H31.2001V16.7386Z" fill="black"/>
<path d="M31.2001 15.8661H30.3188V16.7387H31.2001V15.8661Z" fill="#8A0391"/>
<path d="M31.2001 14.9849H30.3188V15.8661H31.2001V14.9849Z" fill="#F20000"/>
<path d="M31.2001 14.1124H30.3188V14.9849H31.2001V14.1124Z" fill="#F20000"/>
<path d="M31.2001 13.2299H30.3188V14.1112H31.2001V13.2299Z" fill="#F20000"/>
<path d="M30.3188 40.4374H29.4463V41.3099H30.3188V40.4374Z" fill="black"/>
<path d="M30.3188 39.5562H29.4463V40.4374H30.3188V39.5562Z" fill="#3C4360"/>
<path d="M30.3188 38.6837H29.4463V39.5562H30.3188V38.6837Z" fill="black"/>
<path d="M30.3188 37.8024H29.4463V38.6836H30.3188V37.8024Z" fill="black"/>
<path d="M30.3188 36.9211H29.4463V37.8011H30.3188V36.9211Z" fill="black"/>
<path d="M30.3188 36.0474H29.4463V36.9211H30.3188V36.0474Z" fill="#3C4360"/>
<path d="M30.3188 35.1674H29.4463V36.0474H30.3188V35.1674Z" fill="#8A0391"/>
<path d="M30.3188 34.2949H29.4463V35.1674H30.3188V34.2949Z" fill="#8A0391"/>
<path d="M30.3188 33.4124H29.4463V34.2937H30.3188V33.4124Z" fill="#AD17AD"/>
<path d="M30.3188 32.5411H29.4463V33.4136H30.3188V32.5411Z" fill="#AD17AD"/>
<path d="M30.3188 31.6586H29.4463V32.5399H30.3188V31.6586Z" fill="#AD17AD"/>
<path d="M30.3188 30.7786H29.4463V31.6586H30.3188V30.7786Z" fill="#B8602D"/>
<path d="M30.3188 29.9049H29.4463V30.7774H30.3188V29.9049Z" fill="#AD17AD"/>
<path d="M30.3188 29.0236H29.4463V29.9049H30.3188V29.0236Z" fill="#AD17AD"/>
<path d="M30.3188 28.1511H29.4463V29.0236H30.3188V28.1511Z" fill="#AD17AD"/>
<path d="M30.3188 27.2699H29.4463V28.1511H30.3188V27.2699Z" fill="#AD17AD"/>
<path d="M30.3188 26.3974H29.4463V27.2699H30.3188V26.3974Z" fill="#AD17AD"/>
<path d="M30.3188 25.5161H29.4463V26.3974H30.3188V25.5161Z" fill="#AD17AD"/>
<path d="M30.3188 24.6436H29.4463V25.5161H30.3188V24.6436Z" fill="#AD17AD"/>
<path d="M30.3188 23.7624H29.4463V24.6436H30.3188V23.7624Z" fill="#500256"/>
<path d="M30.3188 22.8812H29.4463V23.7624H30.3188V22.8812Z" fill="#63036D"/>
<path d="M30.3188 22.0087H29.4463V22.8812H30.3188V22.0087Z" fill="black"/>
<path d="M30.3188 21.1274H29.4463V22.0086H30.3188V21.1274Z" fill="black"/>
<path d="M30.3188 20.2549H29.4463V21.1274H30.3188V20.2549Z" fill="#873810"/>
<path d="M30.3188 19.3737H29.4463V20.2549H30.3188V19.3737Z" fill="#873810"/>
<path d="M30.3188 18.5012H29.4463V19.3737H30.3188V18.5012Z" fill="#873810"/>
<path d="M30.3188 17.6199H29.4463V18.5011H30.3188V17.6199Z" fill="black"/>
<path d="M30.3188 16.7386H29.4463V17.6199H30.3188V16.7386Z" fill="#AD17AD"/>
<path d="M30.3188 15.8661H29.4463V16.7387H30.3188V15.8661Z" fill="#AD17AD"/>
<path d="M30.3188 14.9849H29.4463V15.8661H30.3188V14.9849Z" fill="#F20000"/>
<path d="M30.3188 14.1124H29.4463V14.9849H30.3188V14.1124Z" fill="#F20000"/>
<path d="M30.3188 13.2299H29.4463V14.1112H30.3188V13.2299Z" fill="black"/>
<path d="M29.4462 40.4374H28.5649V41.3099H29.4462V40.4374Z" fill="black"/>
<path d="M29.4462 39.5562H28.5649V40.4374H29.4462V39.5562Z" fill="black"/>
<path d="M29.4462 36.0474H28.5649V36.9211H29.4462V36.0474Z" fill="black"/>
<path d="M29.4462 35.1674H28.5649V36.0474H29.4462V35.1674Z" fill="#8A0391"/>
<path d="M29.4462 34.2949H28.5649V35.1674H29.4462V34.2949Z" fill="#8A0391"/>
<path d="M29.4462 33.4124H28.5649V34.2937H29.4462V33.4124Z" fill="#AD17AD"/>
<path d="M29.4462 32.5411H28.5649V33.4136H29.4462V32.5411Z" fill="#AD17AD"/>
<path d="M29.4462 31.6586H28.5649V32.5399H29.4462V31.6586Z" fill="#AD17AD"/>
<path d="M29.4462 30.7786H28.5649V31.6586H29.4462V30.7786Z" fill="#AD17AD"/>
<path d="M29.4462 29.9049H28.5649V30.7774H29.4462V29.9049Z" fill="#AD17AD"/>
<path d="M29.4462 29.0236H28.5649V29.9049H29.4462V29.0236Z" fill="#500256"/>
<path d="M29.4462 28.1511H28.5649V29.0236H29.4462V28.1511Z" fill="#500256"/>
<path d="M29.4462 27.2699H28.5649V28.1511H29.4462V27.2699Z" fill="#500256"/>
<path d="M29.4462 26.3974H28.5649V27.2699H29.4462V26.3974Z" fill="#500256"/>
<path d="M29.4462 25.5161H28.5649V26.3974H29.4462V25.5161Z" fill="#500256"/>
<path d="M29.4462 24.6436H28.5649V25.5161H29.4462V24.6436Z" fill="#500256"/>
<path d="M29.4462 23.7624H28.5649V24.6436H29.4462V23.7624Z" fill="#63036D"/>
<path d="M29.4462 22.8812H28.5649V23.7624H29.4462V22.8812Z" fill="#63036D"/>
<path d="M29.4462 22.0087H28.5649V22.8812H29.4462V22.0087Z" fill="black"/>
<path d="M29.4462 21.1274H28.5649V22.0086H29.4462V21.1274Z" fill="#873810"/>
<path d="M29.4462 20.2549H28.5649V21.1274H29.4462V20.2549Z" fill="#F49364"/>
<path d="M29.4462 19.3737H28.5649V20.2549H29.4462V19.3737Z" fill="#F49364"/>
<path d="M29.4462 18.5012H28.5649V19.3737H29.4462V18.5012Z" fill="#873810"/>
<path d="M29.4462 17.6199H28.5649V18.5011H29.4462V17.6199Z" fill="black"/>
<path d="M29.4462 16.7386H28.5649V17.6199H29.4462V16.7386Z" fill="#AD17AD"/>
<path d="M29.4462 15.8661H28.5649V16.7387H29.4462V15.8661Z" fill="#AD17AD"/>
<path d="M29.4462 14.9849H28.5649V15.8661H29.4462V14.9849Z" fill="#8A0391"/>
<path d="M29.4462 14.1124H28.5649V14.9849H29.4462V14.1124Z" fill="#AD17AD"/>
<path d="M29.4462 13.2299H28.5649V14.1112H29.4462V13.2299Z" fill="#AD17AD"/>
<path d="M29.4462 12.3586H28.5649V13.2311H29.4462V12.3586Z" fill="black"/>
<path d="M28.5649 35.1674H27.6924V36.0474H28.5649V35.1674Z" fill="#570459"/>
<path d="M28.5649 34.2949H27.6924V35.1674H28.5649V34.2949Z" fill="#8A0391"/>
<path d="M28.5649 33.4124H27.6924V34.2937H28.5649V33.4124Z" fill="#AD17AD"/>
<path d="M28.5649 32.5411H27.6924V33.4136H28.5649V32.5411Z" fill="#AD17AD"/>
<path d="M28.5649 31.6586H27.6924V32.5399H28.5649V31.6586Z" fill="#AD17AD"/>
<path d="M28.5649 30.7786H27.6924V31.6586H28.5649V30.7786Z" fill="#AD17AD"/>
<path d="M28.5649 29.9049H27.6924V30.7774H28.5649V29.9049Z" fill="#AD17AD"/>
<path d="M28.5649 29.0236H27.6924V29.9049H28.5649V29.0236Z" fill="#500256"/>
<path d="M28.5649 28.1511H27.6924V29.0236H28.5649V28.1511Z" fill="#63036D"/>
<path d="M28.5649 27.2699H27.6924V28.1511H28.5649V27.2699Z" fill="#500256"/>
<path d="M28.5649 26.3974H27.6924V27.2699H28.5649V26.3974Z" fill="#63036D"/>
<path d="M28.5649 25.5161H27.6924V26.3974H28.5649V25.5161Z" fill="#63036D"/>
<path d="M28.5649 24.6436H27.6924V25.5161H28.5649V24.6436Z" fill="#63036D"/>
<path d="M28.5649 23.7624H27.6924V24.6436H28.5649V23.7624Z" fill="#63036D"/>
<path d="M28.5649 22.8812H27.6924V23.7624H28.5649V22.8812Z" fill="black"/>
<path d="M28.5649 22.0087H27.6924V22.8812H28.5649V22.0087Z" fill="#873810"/>
<path d="M28.5649 21.1274H27.6924V22.0086H28.5649V21.1274Z" fill="#F49364"/>
<path d="M28.5649 20.2549H27.6924V21.1274H28.5649V20.2549Z" fill="#FFEFD3"/>
<path d="M28.5649 19.3737H27.6924V20.2549H28.5649V19.3737Z" fill="#FFEFD3"/>
<path d="M28.5649 18.5012H27.6924V19.3737H28.5649V18.5012Z" fill="#F49364"/>
<path d="M28.5649 17.6199H27.6924V18.5011H28.5649V17.6199Z" fill="black"/>
<path d="M28.5649 16.7386H27.6924V17.6199H28.5649V16.7386Z" fill="#AD17AD"/>
<path d="M28.5649 15.8661H27.6924V16.7387H28.5649V15.8661Z" fill="#AD17AD"/>
<path d="M28.5649 14.9849H27.6924V15.8661H28.5649V14.9849Z" fill="#AD17AD"/>
<path d="M28.5649 14.1124H27.6924V14.9849H28.5649V14.1124Z" fill="#AD17AD"/>
<path d="M28.5649 13.2299H27.6924V14.1112H28.5649V13.2299Z" fill="#AD17AD"/>
<path d="M28.5649 12.3586H27.6924V13.2311H28.5649V12.3586Z" fill="black"/>
<path d="M27.6928 40.4374H26.8115V41.3099H27.6928V40.4374Z" fill="black"/>
<path d="M27.6928 39.5562H26.8115V40.4374H27.6928V39.5562Z" fill="black"/>
<path d="M27.6928 38.6837H26.8115V39.5562H27.6928V38.6837Z" fill="black"/>
<path d="M27.6928 37.8024H26.8115V38.6836H27.6928V37.8024Z" fill="black"/>
<path d="M27.6928 36.9211H26.8115V37.8011H27.6928V36.9211Z" fill="black"/>
<path d="M27.6928 36.0474H26.8115V36.9211H27.6928V36.0474Z" fill="black"/>
<path d="M27.6928 35.1674H26.8115V36.0474H27.6928V35.1674Z" fill="black"/>
<path d="M27.6928 34.2949H26.8115V35.1674H27.6928V34.2949Z" fill="#570459"/>
<path d="M27.6928 33.4124H26.8115V34.2937H27.6928V33.4124Z" fill="#8A0391"/>
<path d="M27.6928 32.5411H26.8115V33.4136H27.6928V32.5411Z" fill="#AD17AD"/>
<path d="M27.6928 31.6586H26.8115V32.5399H27.6928V31.6586Z" fill="#AD17AD"/>
<path d="M27.6928 30.7786H26.8115V31.6586H27.6928V30.7786Z" fill="#AD17AD"/>
<path d="M27.6928 29.9049H26.8115V30.7774H27.6928V29.9049Z" fill="#AD17AD"/>
<path d="M27.6928 29.0236H26.8115V29.9049H27.6928V29.0236Z" fill="#500256"/>
<path d="M27.6928 28.1511H26.8115V29.0236H27.6928V28.1511Z" fill="#63036D"/>
<path d="M27.6928 27.2699H26.8115V28.1511H27.6928V27.2699Z" fill="#500256"/>
<path d="M27.6928 26.3974H26.8115V27.2699H27.6928V26.3974Z" fill="#63036D"/>
<path d="M27.6928 25.5161H26.8115V26.3974H27.6928V25.5161Z" fill="#63036D"/>
<path d="M27.6928 24.6436H26.8115V25.5161H27.6928V24.6436Z" fill="#63036D"/>
<path d="M27.6928 23.7624H26.8115V24.6436H27.6928V23.7624Z" fill="black"/>
<path d="M27.6928 22.8812H26.8115V23.7624H27.6928V22.8812Z" fill="#F49364"/>
<path d="M27.6928 22.0087H26.8115V22.8812H27.6928V22.0087Z" fill="#873810"/>
<path d="M27.6928 21.1274H26.8115V22.0086H27.6928V21.1274Z" fill="#FFEFD3"/>
<path d="M27.6928 20.2549H26.8115V21.1274H27.6928V20.2549Z" fill="#FFEFD3"/>
<path d="M27.6928 19.3737H26.8115V20.2549H27.6928V19.3737Z" fill="#FFEFD3"/>
<path d="M27.6928 18.5012H26.8115V19.3737H27.6928V18.5012Z" fill="black"/>
<path d="M27.6928 17.6199H26.8115V18.5011H27.6928V17.6199Z" fill="#AD17AD"/>
<path d="M27.6928 16.7386H26.8115V17.6199H27.6928V16.7386Z" fill="#AD17AD"/>
<path d="M27.6928 15.8661H26.8115V16.7387H27.6928V15.8661Z" fill="#AD17AD"/>
<path d="M27.6928 14.9849H26.8115V15.8661H27.6928V14.9849Z" fill="#AD17AD"/>
<path d="M27.6928 14.1124H26.8115V14.9849H27.6928V14.1124Z" fill="#AD17AD"/>
<path d="M27.6928 13.2299H26.8115V14.1112H27.6928V13.2299Z" fill="#AD17AD"/>
<path d="M27.6928 12.3586H26.8115V13.2311H27.6928V12.3586Z" fill="black"/>
<path d="M26.8115 40.4374H25.939V41.3099H26.8115V40.4374Z" fill="black"/>
<path d="M26.8115 39.5562H25.939V40.4374H26.8115V39.5562Z" fill="#3C4360"/>
<path d="M26.8115 38.6837H25.939V39.5562H26.8115V38.6837Z" fill="#3C4360"/>
<path d="M26.8115 37.8024H25.939V38.6836H26.8115V37.8024Z" fill="#3C4360"/>
<path d="M26.8115 36.9211H25.939V37.8011H26.8115V36.9211Z" fill="black"/>
<path d="M26.8115 36.0474H25.939V36.9211H26.8115V36.0474Z" fill="#3C4360"/>
<path d="M26.8115 35.1674H25.939V36.0474H26.8115V35.1674Z" fill="#570459"/>
<path d="M26.8115 34.2949H25.939V35.1674H26.8115V34.2949Z" fill="#8A0391"/>
<path d="M26.8115 33.4124H25.939V34.2937H26.8115V33.4124Z" fill="#570459"/>
<path d="M26.8115 32.5411H25.939V33.4136H26.8115V32.5411Z" fill="#8A0391"/>
<path d="M26.8115 31.6586H25.939V32.5399H26.8115V31.6586Z" fill="#AD17AD"/>
<path d="M26.8115 30.7786H25.939V31.6586H26.8115V30.7786Z" fill="#AD17AD"/>
<path d="M26.8115 29.9049H25.939V30.7774H26.8115V29.9049Z" fill="#AD17AD"/>
<path d="M26.8115 29.0236H25.939V29.9049H26.8115V29.0236Z" fill="#500256"/>
<path d="M26.8115 28.1511H25.939V29.0236H26.8115V28.1511Z" fill="#500256"/>
<path d="M26.8115 27.2699H25.939V28.1511H26.8115V27.2699Z" fill="#500256"/>
<path d="M26.8115 26.3974H25.939V27.2699H26.8115V26.3974Z" fill="#500256"/>
<path d="M26.8115 25.5161H25.939V26.3974H26.8115V25.5161Z" fill="#500256"/>
<path d="M26.8115 24.6436H25.939V25.5161H26.8115V24.6436Z" fill="#500256"/>
<path d="M26.8115 23.7624H25.939V24.6436H26.8115V23.7624Z" fill="black"/>
<path d="M26.8115 22.8812H25.939V23.7624H26.8115V22.8812Z" fill="#F49364"/>
<path d="M26.8115 22.0087H25.939V22.8812H26.8115V22.0087Z" fill="#873810"/>
<path d="M26.8115 21.1274H25.939V22.0086H26.8115V21.1274Z" fill="#FFEFD3"/>
<path d="M26.8115 20.2549H25.939V21.1274H26.8115V20.2549Z" fill="#FFEFD3"/>
<path d="M26.8115 19.3737H25.939V20.2549H26.8115V19.3737Z" fill="#FFEFD3"/>
<path d="M26.8115 18.5012H25.939V19.3737H26.8115V18.5012Z" fill="black"/>
<path d="M26.8115 17.6199H25.939V18.5011H26.8115V17.6199Z" fill="#AD17AD"/>
<path d="M26.8115 16.7386H25.939V17.6199H26.8115V16.7386Z" fill="#AD17AD"/>
<path d="M26.8115 15.8661H25.939V16.7387H26.8115V15.8661Z" fill="#8A0391"/>
<path d="M26.8115 14.9849H25.939V15.8661H26.8115V14.9849Z" fill="#AD17AD"/>
<path d="M26.8115 14.1124H25.939V14.9849H26.8115V14.1124Z" fill="#AD17AD"/>
<path d="M26.8115 13.2299H25.939V14.1112H26.8115V13.2299Z" fill="#AD17AD"/>
<path d="M26.8115 12.3586H25.939V13.2311H26.8115V12.3586Z" fill="black"/>
<path d="M25.9389 40.4374H25.0576V41.3099H25.9389V40.4374Z" fill="black"/>
<path d="M25.9389 39.5562H25.0576V40.4374H25.9389V39.5562Z" fill="#3C4360"/>
<path d="M25.9389 38.6837H25.0576V39.5562H25.9389V38.6837Z" fill="#3C4360"/>
<path d="M25.9389 37.8024H25.0576V38.6836H25.9389V37.8024Z" fill="#3C4360"/>
<path d="M25.9389 36.9211H25.0576V37.8011H25.9389V36.9211Z" fill="black"/>
<path d="M25.9389 36.0474H25.0576V36.9211H25.9389V36.0474Z" fill="#3C4360"/>
<path d="M25.9389 35.1674H25.0576V36.0474H25.9389V35.1674Z" fill="#570459"/>
<path d="M25.9389 34.2949H25.0576V35.1674H25.9389V34.2949Z" fill="#8A0391"/>
<path d="M25.9389 33.4124H25.0576V34.2937H25.9389V33.4124Z" fill="#AD17AD"/>
<path d="M25.9389 32.5411H25.0576V33.4136H25.9389V32.5411Z" fill="#570459"/>
<path d="M25.9389 31.6586H25.0576V32.5399H25.9389V31.6586Z" fill="#570459"/>
<path d="M25.9389 30.7786H25.0576V31.6586H25.9389V30.7786Z" fill="#AD17AD"/>
<path d="M25.9389 29.9049H25.0576V30.7774H25.9389V29.9049Z" fill="#AD17AD"/>
<path d="M25.9389 29.0236H25.0576V29.9049H25.9389V29.0236Z" fill="#500256"/>
<path d="M25.9389 28.1511H25.0576V29.0236H25.9389V28.1511Z" fill="#500256"/>
<path d="M25.9389 27.2699H25.0576V28.1511H25.9389V27.2699Z" fill="#500256"/>
<path d="M25.9389 26.3974H25.0576V27.2699H25.9389V26.3974Z" fill="#500256"/>
<path d="M25.9389 25.5161H25.0576V26.3974H25.9389V25.5161Z" fill="#500256"/>
<path d="M25.9389 24.6436H25.0576V25.5161H25.9389V24.6436Z" fill="#500256"/>
<path d="M25.9389 23.7624H25.0576V24.6436H25.9389V23.7624Z" fill="black"/>
<path d="M25.9389 22.8812H25.0576V23.7624H25.9389V22.8812Z" fill="#500256"/>
<path d="M25.9389 22.0087H25.0576V22.8812H25.9389V22.0087Z" fill="black"/>
<path d="M25.9389 21.1274H25.0576V22.0086H25.9389V21.1274Z" fill="#FFEFD3"/>
<path d="M25.9389 20.2549H25.0576V21.1274H25.9389V20.2549Z" fill="#FFEFD3"/>
<path d="M25.9389 19.3737H25.0576V20.2549H25.9389V19.3737Z" fill="#FFEFD3"/>
<path d="M25.9389 18.5012H25.0576V19.3737H25.9389V18.5012Z" fill="black"/>
<path d="M25.9389 17.6199H25.0576V18.5011H25.9389V17.6199Z" fill="#AD17AD"/>
<path d="M25.9389 16.7386H25.0576V17.6199H25.9389V16.7386Z" fill="#AD17AD"/>
<path d="M25.9389 15.8661H25.0576V16.7387H25.9389V15.8661Z" fill="#8A0391"/>
<path d="M25.9389 14.9849H25.0576V15.8661H25.9389V14.9849Z" fill="#AD17AD"/>
<path d="M25.9389 14.1124H25.0576V14.9849H25.9389V14.1124Z" fill="#AD17AD"/>
<path d="M25.9389 13.2299H25.0576V14.1112H25.9389V13.2299Z" fill="black"/>
<path d="M25.0575 40.4374H24.1763V41.3099H25.0575V40.4374Z" fill="black"/>
<path d="M25.0575 39.5562H24.1763V40.4374H25.0575V39.5562Z" fill="#3C4360"/>
<path d="M25.0575 38.6837H24.1763V39.5562H25.0575V38.6837Z" fill="black"/>
<path d="M25.0575 37.8024H24.1763V38.6836H25.0575V37.8024Z" fill="black"/>
<path d="M25.0575 36.9211H24.1763V37.8011H25.0575V36.9211Z" fill="black"/>
<path d="M25.0575 36.0474H24.1763V36.9211H25.0575V36.0474Z" fill="#3C4360"/>
<path d="M25.0575 35.1674H24.1763V36.0474H25.0575V35.1674Z" fill="#570459"/>
<path d="M25.0575 34.2949H24.1763V35.1674H25.0575V34.2949Z" fill="#8A0391"/>
<path d="M25.0575 33.4124H24.1763V34.2937H25.0575V33.4124Z" fill="#AD17AD"/>
<path d="M25.0575 32.5411H24.1763V33.4136H25.0575V32.5411Z" fill="#AD17AD"/>
<path d="M25.0575 31.6586H24.1763V32.5399H25.0575V31.6586Z" fill="#AD17AD"/>
<path d="M25.0575 30.7786H24.1763V31.6586H25.0575V30.7786Z" fill="#AD17AD"/>
<path d="M25.0575 29.9049H24.1763V30.7774H25.0575V29.9049Z" fill="#AD17AD"/>
<path d="M25.0575 29.0236H24.1763V29.9049H25.0575V29.0236Z" fill="#500256"/>
<path d="M25.0575 28.1511H24.1763V29.0236H25.0575V28.1511Z" fill="#500256"/>
<path d="M25.0575 27.2699H24.1763V28.1511H25.0575V27.2699Z" fill="#500256"/>
<path d="M25.0575 26.3974H24.1763V27.2699H25.0575V26.3974Z" fill="#500256"/>
<path d="M25.0575 25.5161H24.1763V26.3974H25.0575V25.5161Z" fill="#500256"/>
<path d="M25.0575 24.6436H24.1763V25.5161H25.0575V24.6436Z" fill="#500256"/>
<path d="M25.0575 23.7624H24.1763V24.6436H25.0575V23.7624Z" fill="#500256"/>
<path d="M25.0575 22.8812H24.1763V23.7624H25.0575V22.8812Z" fill="black"/>
<path d="M25.0575 22.0087H24.1763V22.8812H25.0575V22.0087Z" fill="black"/>
<path d="M25.0575 21.1274H24.1763V22.0086H25.0575V21.1274Z" fill="black"/>
<path d="M25.0575 20.2549H24.1763V21.1274H25.0575V20.2549Z" fill="black"/>
<path d="M25.0575 19.3737H24.1763V20.2549H25.0575V19.3737Z" fill="black"/>
<path d="M25.0575 18.5012H24.1763V19.3737H25.0575V18.5012Z" fill="black"/>
<path d="M25.0575 17.6199H24.1763V18.5011H25.0575V17.6199Z" fill="#AD17AD"/>
<path d="M25.0575 16.7386H24.1763V17.6199H25.0575V16.7386Z" fill="#AD17AD"/>
<path d="M25.0575 15.8661H24.1763V16.7387H25.0575V15.8661Z" fill="#8A0391"/>
<path d="M25.0575 14.9849H24.1763V15.8661H25.0575V14.9849Z" fill="#AD17AD"/>
<path d="M25.0575 14.1124H24.1763V14.9849H25.0575V14.1124Z" fill="black"/>
<path d="M24.1762 40.4374H23.3037V41.3099H24.1762V40.4374Z" fill="black"/>
<path d="M24.1762 39.5562H23.3037V40.4374H24.1762V39.5562Z" fill="black"/>
<path d="M24.1762 36.0474H23.3037V36.9211H24.1762V36.0474Z" fill="black"/>
<path d="M24.1762 35.1674H23.3037V36.0474H24.1762V35.1674Z" fill="black"/>
<path d="M24.1762 34.2949H23.3037V35.1674H24.1762V34.2949Z" fill="#8A0391"/>
<path d="M24.1762 33.4124H23.3037V34.2937H24.1762V33.4124Z" fill="#AD17AD"/>
<path d="M24.1762 32.5411H23.3037V33.4136H24.1762V32.5411Z" fill="#AD17AD"/>
<path d="M24.1762 31.6586H23.3037V32.5399H24.1762V31.6586Z" fill="#AD17AD"/>
<path d="M24.1762 30.7786H23.3037V31.6586H24.1762V30.7786Z" fill="#AD17AD"/>
<path d="M24.1762 29.9049H23.3037V30.7774H24.1762V29.9049Z" fill="#AD17AD"/>
<path d="M24.1762 29.0236H23.3037V29.9049H24.1762V29.0236Z" fill="black"/>
<path d="M24.1762 28.1511H23.3037V29.0236H24.1762V28.1511Z" fill="black"/>
<path d="M24.1762 27.2699H23.3037V28.1511H24.1762V27.2699Z" fill="black"/>
<path d="M24.1762 26.3974H23.3037V27.2699H24.1762V26.3974Z" fill="black"/>
<path d="M24.1762 25.5161H23.3037V26.3974H24.1762V25.5161Z" fill="black"/>
<path d="M24.1762 24.6436H23.3037V25.5161H24.1762V24.6436Z" fill="black"/>
<path d="M24.1762 23.7624H23.3037V24.6436H24.1762V23.7624Z" fill="black"/>
<path d="M24.1762 22.8812H23.3037V23.7624H24.1762V22.8812Z" fill="black"/>
<path d="M24.1762 18.5012H23.3037V19.3737H24.1762V18.5012Z" fill="black"/>
<path d="M24.1762 17.6199H23.3037V18.5011H24.1762V17.6199Z" fill="#AD17AD"/>
<path d="M24.1762 16.7386H23.3037V17.6199H24.1762V16.7386Z" fill="#AD17AD"/>
<path d="M24.1762 15.8661H23.3037V16.7387H24.1762V15.8661Z" fill="#8A0391"/>
<path d="M24.1762 14.9849H23.3037V15.8661H24.1762V14.9849Z" fill="black"/>
<path d="M23.3036 34.2949H22.4224V35.1674H23.3036V34.2949Z" fill="black"/>
<path d="M23.3036 33.4124H22.4224V34.2937H23.3036V33.4124Z" fill="black"/>
<path d="M23.3036 32.5411H22.4224V33.4136H23.3036V32.5411Z" fill="black"/>
<path d="M23.3036 31.6586H22.4224V32.5399H23.3036V31.6586Z" fill="black"/>
<path d="M23.3036 30.7786H22.4224V31.6586H23.3036V30.7786Z" fill="black"/>
<path d="M23.3036 29.9049H22.4224V30.7774H23.3036V29.9049Z" fill="black"/>
<path d="M23.3036 27.2699H22.4224V28.1511H23.3036V27.2699Z" fill="black"/>
<path d="M23.3036 26.3974H22.4224V27.2699H23.3036V26.3974Z" fill="#8A0391"/>
<path d="M23.3036 25.5161H22.4224V26.3974H23.3036V25.5161Z" fill="#8A0391"/>
<path d="M23.3036 24.6436H22.4224V25.5161H23.3036V24.6436Z" fill="#8A0391"/>
<path d="M23.3036 23.7624H22.4224V24.6436H23.3036V23.7624Z" fill="black"/>
<path d="M23.3036 18.5012H22.4224V19.3737H23.3036V18.5012Z" fill="black"/>
<path d="M23.3036 17.6199H22.4224V18.5011H23.3036V17.6199Z" fill="#AD17AD"/>
<path d="M23.3036 16.7386H22.4224V17.6199H23.3036V16.7386Z" fill="#AD17AD"/>
<path d="M23.3036 15.8661H22.4224V16.7387H23.3036V15.8661Z" fill="black"/>
<path d="M22.4228 28.1511H21.5503V29.0236H22.4228V28.1511Z" fill="black"/>
<path d="M22.4228 27.2699H21.5503V28.1511H22.4228V27.2699Z" fill="#8A0391"/>
<path d="M22.4228 26.3974H21.5503V27.2699H22.4228V26.3974Z" fill="#8A0391"/>
<path d="M22.4228 25.5161H21.5503V26.3974H22.4228V25.5161Z" fill="#8A0391"/>
<path d="M22.4228 24.6436H21.5503V25.5161H22.4228V24.6436Z" fill="black"/>
<path d="M22.4228 17.6199H21.5503V18.5011H22.4228V17.6199Z" fill="black"/>
<path d="M22.4228 16.7386H21.5503V17.6199H22.4228V16.7386Z" fill="black"/>
<path d="M21.5502 36.9211H20.6689V37.8011H21.5502V36.9211Z" fill="black"/>
<path d="M21.5502 36.0474H20.6689V36.9211H21.5502V36.0474Z" fill="black"/>
<path d="M21.5502 28.1511H20.6689V29.0236H21.5502V28.1511Z" fill="black"/>
<path d="M21.5502 27.2699H20.6689V28.1511H21.5502V27.2699Z" fill="#8A0391"/>
<path d="M21.5502 26.3974H20.6689V27.2699H21.5502V26.3974Z" fill="#8A0391"/>
<path d="M21.5502 25.5161H20.6689V26.3974H21.5502V25.5161Z" fill="black"/>
<path d="M21.5502 14.9849H20.6689V15.8661H21.5502V14.9849Z" fill="black"/>
<path d="M21.5502 14.1124H20.6689V14.9849H21.5502V14.1124Z" fill="black"/>
<path d="M20.6689 37.8024H19.7964V38.6836H20.6689V37.8024Z" fill="black"/>
<path d="M20.6689 36.9211H19.7964V37.8011H20.6689V36.9211Z" fill="#B8602D"/>
<path d="M20.6689 36.0474H19.7964V36.9211H20.6689V36.0474Z" fill="#FFEFD3"/>
<path d="M20.6689 35.1674H19.7964V36.0474H20.6689V35.1674Z" fill="#FFEFD3"/>
<path d="M20.6689 34.2949H19.7964V35.1674H20.6689V34.2949Z" fill="#FFEFD3"/>
<path d="M20.6689 33.4124H19.7964V34.2937H20.6689V33.4124Z" fill="#FFEFD3"/>
<path d="M20.6689 32.5411H19.7964V33.4136H20.6689V32.5411Z" fill="#FFEFD3"/>
<path d="M20.6689 31.6586H19.7964V32.5399H20.6689V31.6586Z" fill="#FFEFD3"/>
<path d="M20.6689 30.7786H19.7964V31.6586H20.6689V30.7786Z" fill="#FFEFD3"/>
<path d="M20.6689 29.9049H19.7964V30.7774H20.6689V29.9049Z" fill="#FFEFD3"/>
<path d="M20.6689 29.0236H19.7964V29.9049H20.6689V29.0236Z" fill="#FFEFD3"/>
<path d="M20.6689 28.1511H19.7964V29.0236H20.6689V28.1511Z" fill="#FFEFD3"/>
<path d="M20.6689 27.2699H19.7964V28.1511H20.6689V27.2699Z" fill="#FFEFD3"/>
<path d="M20.6689 26.3974H19.7964V27.2699H20.6689V26.3974Z" fill="#FFEFD3"/>
<path d="M20.6689 25.5161H19.7964V26.3974H20.6689V25.5161Z" fill="#FFEFD3"/>
<path d="M20.6689 24.6436H19.7964V25.5161H20.6689V24.6436Z" fill="#FFEFD3"/>
<path d="M20.6689 23.7624H19.7964V24.6436H20.6689V23.7624Z" fill="#FFEFD3"/>
<path d="M20.6689 22.8812H19.7964V23.7624H20.6689V22.8812Z" fill="#FFEFD3"/>
<path d="M20.6689 22.0087H19.7964V22.8812H20.6689V22.0087Z" fill="#FFEFD3"/>
<path d="M20.6689 21.1274H19.7964V22.0086H20.6689V21.1274Z" fill="#FFEFD3"/>
<path d="M20.6689 20.2549H19.7964V21.1274H20.6689V20.2549Z" fill="#FFEFD3"/>
<path d="M20.6689 19.3737H19.7964V20.2549H20.6689V19.3737Z" fill="#FFEFD3"/>
<path d="M20.6689 18.5012H19.7964V19.3737H20.6689V18.5012Z" fill="#FFEFD3"/>
<path d="M20.6689 17.6199H19.7964V18.5011H20.6689V17.6199Z" fill="#FFEFD3"/>
<path d="M20.6689 16.7386H19.7964V17.6199H20.6689V16.7386Z" fill="#FFEFD3"/>
<path d="M20.6689 15.8661H19.7964V16.7387H20.6689V15.8661Z" fill="#FFEFD3"/>
<path d="M20.6689 14.9849H19.7964V15.8661H20.6689V14.9849Z" fill="#FFEFD3"/>
<path d="M20.6689 14.1124H19.7964V14.9849H20.6689V14.1124Z" fill="#B8602D"/>
<path d="M20.6689 13.2299H19.7964V14.1112H20.6689V13.2299Z" fill="black"/>
<path d="M19.7963 36.9211H18.915V37.8011H19.7963V36.9211Z" fill="black"/>
<path d="M19.7963 36.0474H18.915V36.9211H19.7963V36.0474Z" fill="black"/>
<path d="M19.7963 35.1674H18.915V36.0474H19.7963V35.1674Z" fill="#B8602D"/>
<path d="M19.7963 34.2949H18.915V35.1674H19.7963V34.2949Z" fill="#B8602D"/>
<path d="M19.7963 33.4124H18.915V34.2937H19.7963V33.4124Z" fill="black"/>
<path d="M19.7963 28.1511H18.915V29.0236H19.7963V28.1511Z" fill="black"/>
<path d="M19.7963 27.2699H18.915V28.1511H19.7963V27.2699Z" fill="#8A0391"/>
<path d="M19.7963 26.3974H18.915V27.2699H19.7963V26.3974Z" fill="#8A0391"/>
<path d="M19.7963 25.5161H18.915V26.3974H19.7963V25.5161Z" fill="black"/>
<path d="M19.7963 17.6199H18.915V18.5011H19.7963V17.6199Z" fill="black"/>
<path d="M19.7963 16.7386H18.915V17.6199H19.7963V16.7386Z" fill="#B8602D"/>
<path d="M19.7963 15.8661H18.915V16.7387H19.7963V15.8661Z" fill="#B8602D"/>
<path d="M19.7963 14.9849H18.915V15.8661H19.7963V14.9849Z" fill="black"/>
<path d="M19.7963 14.1124H18.915V14.9849H19.7963V14.1124Z" fill="black"/>
<path d="M18.9149 35.1674H18.0337V36.0474H18.9149V35.1674Z" fill="black"/>
<path d="M18.9149 34.2949H18.0337V35.1674H18.9149V34.2949Z" fill="#B8602D"/>
<path d="M18.9149 33.4124H18.0337V34.2937H18.9149V33.4124Z" fill="#B8602D"/>
<path d="M18.9149 32.5411H18.0337V33.4136H18.9149V32.5411Z" fill="black"/>
<path d="M18.9149 28.1511H18.0337V29.0236H18.9149V28.1511Z" fill="black"/>
<path d="M18.9149 27.2699H18.0337V28.1511H18.9149V27.2699Z" fill="#873810"/>
<path d="M18.9149 26.3974H18.0337V27.2699H18.9149V26.3974Z" fill="black"/>
<path d="M18.9149 25.5161H18.0337V26.3974H18.9149V25.5161Z" fill="#873810"/>
<path d="M18.9149 18.5012H18.0337V19.3737H18.9149V18.5012Z" fill="black"/>
<path d="M18.9149 17.6199H18.0337V18.5011H18.9149V17.6199Z" fill="#B8602D"/>
<path d="M18.9149 16.7386H18.0337V17.6199H18.9149V16.7386Z" fill="#B8602D"/>
<path d="M18.9149 15.8661H18.0337V16.7387H18.9149V15.8661Z" fill="black"/>
<path d="M18.0336 34.2949H17.1611V35.1674H18.0336V34.2949Z" fill="black"/>
<path d="M18.0336 33.4124H17.1611V34.2937H18.0336V33.4124Z" fill="#B8602D"/>
<path d="M18.0336 32.5411H17.1611V33.4136H18.0336V32.5411Z" fill="#B8602D"/>
<path d="M18.0336 31.6586H17.1611V32.5399H18.0336V31.6586Z" fill="black"/>
<path d="M18.0336 30.7786H17.1611V31.6586H18.0336V30.7786Z" fill="black"/>
<path d="M18.0336 28.1511H17.1611V29.0236H18.0336V28.1511Z" fill="black"/>
<path d="M18.0336 27.2699H17.1611V28.1511H18.0336V27.2699Z" fill="#873810"/>
<path d="M18.0336 26.3974H17.1611V27.2699H18.0336V26.3974Z" fill="#F49364"/>
<path d="M18.0336 25.5161H17.1611V26.3974H18.0336V25.5161Z" fill="black"/>
<path d="M18.0336 20.2549H17.1611V21.1274H18.0336V20.2549Z" fill="black"/>
<path d="M18.0336 19.3737H17.1611V20.2549H18.0336V19.3737Z" fill="black"/>
<path d="M18.0336 18.5012H17.1611V19.3737H18.0336V18.5012Z" fill="#B8602D"/>
<path d="M18.0336 17.6199H17.1611V18.5011H18.0336V17.6199Z" fill="#B8602D"/>
<path d="M18.0336 16.7386H17.1611V17.6199H18.0336V16.7386Z" fill="black"/>
<path d="M17.1615 33.4124H16.2803V34.2937H17.1615V33.4124Z" fill="black"/>
<path d="M17.1615 32.5411H16.2803V33.4136H17.1615V32.5411Z" fill="#B8602D"/>
<path d="M17.1615 31.6586H16.2803V32.5399H17.1615V31.6586Z" fill="#B8602D"/>
<path d="M17.1615 30.7786H16.2803V31.6586H17.1615V30.7786Z" fill="#B8602D"/>
<path d="M17.1615 29.9049H16.2803V30.7774H17.1615V29.9049Z" fill="black"/>
<path d="M17.1615 29.0236H16.2803V29.9049H17.1615V29.0236Z" fill="black"/>
<path d="M17.1615 28.1511H16.2803V29.0236H17.1615V28.1511Z" fill="black"/>
<path d="M17.1615 27.2699H16.2803V28.1511H17.1615V27.2699Z" fill="black"/>
<path d="M17.1615 26.3974H16.2803V27.2699H17.1615V26.3974Z" fill="#873810"/>
<path d="M17.1615 25.5161H16.2803V26.3974H17.1615V25.5161Z" fill="#F49364"/>
<path d="M17.1615 24.6436H16.2803V25.5161H17.1615V24.6436Z" fill="black"/>
<path d="M17.1615 23.7624H16.2803V24.6436H17.1615V23.7624Z" fill="black"/>
<path d="M17.1615 22.8812H16.2803V23.7624H17.1615V22.8812Z" fill="black"/>
<path d="M17.1615 22.0087H16.2803V22.8812H17.1615V22.0087Z" fill="black"/>
<path d="M17.1615 21.1274H16.2803V22.0086H17.1615V21.1274Z" fill="black"/>
<path d="M17.1615 20.2549H16.2803V21.1274H17.1615V20.2549Z" fill="#B8602D"/>
<path d="M17.1615 19.3737H16.2803V20.2549H17.1615V19.3737Z" fill="#B8602D"/>
<path d="M17.1615 18.5012H16.2803V19.3737H17.1615V18.5012Z" fill="#B8602D"/>
<path d="M17.1615 17.6199H16.2803V18.5011H17.1615V17.6199Z" fill="black"/>
<path d="M16.2802 32.5411H15.4077V33.4136H16.2802V32.5411Z" fill="black"/>
<path d="M16.2802 31.6586H15.4077V32.5399H16.2802V31.6586Z" fill="black"/>
<path d="M16.2802 30.7786H15.4077V31.6586H16.2802V30.7786Z" fill="#B8602D"/>
<path d="M16.2802 29.9049H15.4077V30.7774H16.2802V29.9049Z" fill="#B8602D"/>
<path d="M16.2802 29.0236H15.4077V29.9049H16.2802V29.0236Z" fill="#B8602D"/>
<path d="M16.2802 28.1511H15.4077V29.0236H16.2802V28.1511Z" fill="#B8602D"/>
<path d="M16.2802 27.2699H15.4077V28.1511H16.2802V27.2699Z" fill="#B8602D"/>
<path d="M16.2802 26.3974H15.4077V27.2699H16.2802V26.3974Z" fill="#873810"/>
<path d="M16.2802 25.5161H15.4077V26.3974H16.2802V25.5161Z" fill="#873810"/>
<path d="M16.2802 24.6436H15.4077V25.5161H16.2802V24.6436Z" fill="#B8602D"/>
<path d="M16.2802 23.7624H15.4077V24.6436H16.2802V23.7624Z" fill="#B8602D"/>
<path d="M16.2802 22.8812H15.4077V23.7624H16.2802V22.8812Z" fill="#B8602D"/>
<path d="M16.2802 22.0087H15.4077V22.8812H16.2802V22.0087Z" fill="#B8602D"/>
<path d="M16.2802 21.1274H15.4077V22.0086H16.2802V21.1274Z" fill="#B8602D"/>
<path d="M16.2802 20.2549H15.4077V21.1274H16.2802V20.2549Z" fill="#B8602D"/>
<path d="M16.2802 19.3737H15.4077V20.2549H16.2802V19.3737Z" fill="black"/>
<path d="M16.2802 18.5012H15.4077V19.3737H16.2802V18.5012Z" fill="black"/>
<path d="M15.4076 30.7786H14.5264V31.6586H15.4076V30.7786Z" fill="black"/>
<path d="M15.4076 29.9049H14.5264V30.7774H15.4076V29.9049Z" fill="black"/>
<path d="M15.4076 29.0236H14.5264V29.9049H15.4076V29.0236Z" fill="black"/>
<path d="M15.4076 28.1511H14.5264V29.0236H15.4076V28.1511Z" fill="black"/>
<path d="M15.4076 27.2699H14.5264V28.1511H15.4076V27.2699Z" fill="#F49364"/>
<path d="M15.4076 26.3974H14.5264V27.2699H15.4076V26.3974Z" fill="#F49364"/>
<path d="M15.4076 25.5161H14.5264V26.3974H15.4076V25.5161Z" fill="#F49364"/>
<path d="M15.4076 24.6436H14.5264V25.5161H15.4076V24.6436Z" fill="black"/>
<path d="M15.4076 23.7624H14.5264V24.6436H15.4076V23.7624Z" fill="black"/>
<path d="M15.4076 22.8812H14.5264V23.7624H15.4076V22.8812Z" fill="black"/>
<path d="M15.4076 22.0087H14.5264V22.8812H15.4076V22.0087Z" fill="black"/>
<path d="M15.4076 21.1274H14.5264V22.0086H15.4076V21.1274Z" fill="black"/>
<path d="M15.4076 20.2549H14.5264V21.1274H15.4076V20.2549Z" fill="black"/>
<path d="M14.5263 27.2699H13.6538V28.1511H14.5263V27.2699Z" fill="black"/>
<path d="M14.5263 26.3974H13.6538V27.2699H14.5263V26.3974Z" fill="black"/>
<path d="M14.5263 25.5161H13.6538V26.3974H14.5263V25.5161Z" fill="black"/>
</g>
<defs>
<clipPath id="clip0_69_12151">
<rect width="50" height="50" fill="white" transform="translate(0 0.942383)"/>
</clipPath>
</defs>
</svg>
