<svg width="50" height="51" viewBox="0 0 50 51" fill="none" xmlns="http://www.w3.org/2000/svg">
<g clip-path="url(#clip0_69_12152)">
<path d="M48.2223 25.9424C48.2223 38.7674 37.8248 49.1649 24.9998 49.1649C12.1748 49.1649 1.77734 38.7674 1.77734 25.9424C1.77734 13.1174 12.1736 2.71991 24.9998 2.71991C37.8261 2.71991 48.2223 13.1174 48.2223 25.9424Z" fill="black"/>
<path d="M24.9998 49.1649C37.8253 49.1649 48.2223 38.7678 48.2223 25.9424C48.2223 13.117 37.8253 2.71991 24.9998 2.71991C12.1744 2.71991 1.77734 13.117 1.77734 25.9424C1.77734 38.7678 12.1744 49.1649 24.9998 49.1649Z" stroke="#626CA0" stroke-width="2" stroke-miterlimit="10"/>
<path d="M43.6338 31.2136H42.77V32.0699H43.6338V31.2136Z" fill="black"/>
<path d="M42.7713 32.0686H41.915V32.9324H42.7713V32.0686Z" fill="black"/>
<path d="M42.7713 31.2136H41.915V32.0699H42.7713V31.2136Z" fill="#1E2A3F"/>
<path d="M42.7713 30.3486H41.915V31.2124H42.7713V30.3486Z" fill="black"/>
<path d="M41.9136 32.9337H41.0498V33.7899H41.9136V32.9337Z" fill="black"/>
<path d="M41.9136 32.0686H41.0498V32.9324H41.9136V32.0686Z" fill="#2F384C"/>
<path d="M41.9136 31.2136H41.0498V32.0699H41.9136V31.2136Z" fill="#1E2A3F"/>
<path d="M41.9136 30.3486H41.0498V31.2124H41.9136V30.3486Z" fill="#1E2A3F"/>
<path d="M41.9136 29.4861H41.0498V30.3499H41.9136V29.4861Z" fill="black"/>
<path d="M41.0511 32.0686H40.1948V32.9324H41.0511V32.0686Z" fill="black"/>
<path d="M41.0511 31.2136H40.1948V32.0699H41.0511V31.2136Z" fill="#2F384C"/>
<path d="M41.0511 30.3486H40.1948V31.2124H41.0511V30.3486Z" fill="black"/>
<path d="M40.1938 33.7886H39.3301V34.6524H40.1938V33.7886Z" fill="black"/>
<path d="M40.1938 32.9337H39.3301V33.7899H40.1938V32.9337Z" fill="black"/>
<path d="M40.1938 32.0686H39.3301V32.9324H40.1938V32.0686Z" fill="#2F384C"/>
<path d="M40.1938 31.2136H39.3301V32.0699H40.1938V31.2136Z" fill="#2F384C"/>
<path d="M40.1938 30.3486H39.3301V31.2124H40.1938V30.3486Z" fill="#1E2A3F"/>
<path d="M40.1938 29.4861H39.3301V30.3499H40.1938V29.4861Z" fill="black"/>
<path d="M40.1938 28.6311H39.3301V29.4874H40.1938V28.6311Z" fill="black"/>
<path d="M39.3323 34.6536H38.4761V35.5099H39.3323V34.6536Z" fill="black"/>
<path d="M39.3323 33.7886H38.4761V34.6524H39.3323V33.7886Z" fill="#2F384C"/>
<path d="M39.3323 32.9337H38.4761V33.7899H39.3323V32.9337Z" fill="#2F384C"/>
<path d="M39.3323 32.0686H38.4761V32.9324H39.3323V32.0686Z" fill="#2F384C"/>
<path d="M39.3323 31.2136H38.4761V32.0699H39.3323V31.2136Z" fill="#2F384C"/>
<path d="M39.3323 30.3486H38.4761V31.2124H39.3323V30.3486Z" fill="#2F384C"/>
<path d="M39.3323 29.4861H38.4761V30.3499H39.3323V29.4861Z" fill="#1E2A3F"/>
<path d="M39.3323 28.6311H38.4761V29.4874H39.3323V28.6311Z" fill="#1E2A3F"/>
<path d="M39.3323 27.7661H38.4761V28.6299H39.3323V27.7661Z" fill="black"/>
<path d="M38.4761 33.7886H37.6123V34.6524H38.4761V33.7886Z" fill="black"/>
<path d="M38.4761 32.9337H37.6123V33.7899H38.4761V32.9337Z" fill="black"/>
<path d="M38.4761 32.0686H37.6123V32.9324H38.4761V32.0686Z" fill="black"/>
<path d="M38.4761 31.2136H37.6123V32.0699H38.4761V31.2136Z" fill="#2F384C"/>
<path d="M38.4761 30.3486H37.6123V31.2124H38.4761V30.3486Z" fill="black"/>
<path d="M38.4761 29.4861H37.6123V30.3499H38.4761V29.4861Z" fill="black"/>
<path d="M38.4761 28.6311H37.6123V29.4874H38.4761V28.6311Z" fill="black"/>
<path d="M37.6126 32.0686H36.7563V32.9324H37.6126V32.0686Z" fill="black"/>
<path d="M37.6126 31.2136H36.7563V32.0699H37.6126V31.2136Z" fill="#2F384C"/>
<path d="M37.6126 30.3486H36.7563V31.2124H37.6126V30.3486Z" fill="black"/>
<path d="M36.7563 32.0686H35.8926V32.9324H36.7563V32.0686Z" fill="black"/>
<path d="M36.7563 31.2136H35.8926V32.0699H36.7563V31.2136Z" fill="#2F384C"/>
<path d="M36.7563 30.3486H35.8926V31.2124H36.7563V30.3486Z" fill="black"/>
<path d="M36.7563 23.4724H35.8926V24.3287H36.7563V23.4724Z" fill="black"/>
<path d="M35.8911 32.0686H35.0273V32.9324H35.8911V32.0686Z" fill="black"/>
<path d="M35.8911 31.2136H35.0273V32.0699H35.8911V31.2136Z" fill="#2F384C"/>
<path d="M35.8911 30.3486H35.0273V31.2124H35.8911V30.3486Z" fill="black"/>
<path d="M35.8911 24.3286H35.0273V25.1924H35.8911V24.3286Z" fill="black"/>
<path d="M35.8911 23.4724H35.0273V24.3287H35.8911V23.4724Z" fill="#B25212"/>
<path d="M35.8911 22.6086H35.0273V23.4724H35.8911V22.6086Z" fill="black"/>
<path d="M35.8911 21.7437H35.0273V22.6074H35.8911V21.7437Z" fill="black"/>
<path d="M35.8911 20.8886H35.0273V21.7449H35.8911V20.8886Z" fill="black"/>
<path d="M35.0301 32.0686H34.1738V32.9324H35.0301V32.0686Z" fill="black"/>
<path d="M35.0301 31.2136H34.1738V32.0699H35.0301V31.2136Z" fill="#2F384C"/>
<path d="M35.0301 30.3486H34.1738V31.2124H35.0301V30.3486Z" fill="black"/>
<path d="M35.0301 28.6311H34.1738V29.4874H35.0301V28.6311Z" fill="black"/>
<path d="M35.0301 27.7661H34.1738V28.6299H35.0301V27.7661Z" fill="black"/>
<path d="M35.0301 26.9111H34.1738V27.7674H35.0301V26.9111Z" fill="black"/>
<path d="M35.0301 26.0461H34.1738V26.9099H35.0301V26.0461Z" fill="black"/>
<path d="M35.0301 24.3286H34.1738V25.1924H35.0301V24.3286Z" fill="black"/>
<path d="M35.0301 23.4724H34.1738V24.3287H35.0301V23.4724Z" fill="#B25212"/>
<path d="M35.0301 22.6086H34.1738V23.4724H35.0301V22.6086Z" fill="black"/>
<path d="M35.0301 21.7437H34.1738V22.6074H35.0301V21.7437Z" fill="#404E89"/>
<path d="M35.0301 20.8886H34.1738V21.7449H35.0301V20.8886Z" fill="#404E89"/>
<path d="M35.0301 20.0261H34.1738V20.8899H35.0301V20.0261Z" fill="black"/>
<path d="M35.0301 19.1699H34.1738V20.0261H35.0301V19.1699Z" fill="black"/>
<path d="M34.1738 32.0686H33.3101V32.9324H34.1738V32.0686Z" fill="black"/>
<path d="M34.1738 31.2136H33.3101V32.0699H34.1738V31.2136Z" fill="black"/>
<path d="M34.1738 30.3486H33.3101V31.2124H34.1738V30.3486Z" fill="black"/>
<path d="M34.1738 29.4861H33.3101V30.3499H34.1738V29.4861Z" fill="black"/>
<path d="M34.1738 28.6311H33.3101V29.4874H34.1738V28.6311Z" fill="#B25212"/>
<path d="M34.1738 27.7661H33.3101V28.6299H34.1738V27.7661Z" fill="#C1811B"/>
<path d="M34.1738 26.9111H33.3101V27.7674H34.1738V26.9111Z" fill="black"/>
<path d="M34.1738 26.0461H33.3101V26.9099H34.1738V26.0461Z" fill="#626CA0"/>
<path d="M34.1738 25.1924H33.3101V26.0486H34.1738V25.1924Z" fill="black"/>
<path d="M34.1738 24.3286H33.3101V25.1924H34.1738V24.3286Z" fill="#B25212"/>
<path d="M34.1738 23.4724H33.3101V24.3287H34.1738V23.4724Z" fill="#C1811B"/>
<path d="M34.1738 22.6086H33.3101V23.4724H34.1738V22.6086Z" fill="black"/>
<path d="M34.1738 21.7437H33.3101V22.6074H34.1738V21.7437Z" fill="#404E89"/>
<path d="M34.1738 20.8886H33.3101V21.7449H34.1738V20.8886Z" fill="#626CA0"/>
<path d="M34.1738 20.0261H33.3101V20.8899H34.1738V20.0261Z" fill="#626CA0"/>
<path d="M34.1738 19.1699H33.3101V20.0261H34.1738V19.1699Z" fill="#5364AD"/>
<path d="M34.1738 18.3062H33.3101V19.1699H34.1738V18.3062Z" fill="black"/>
<path d="M34.1738 17.4499H33.3101V18.3061H34.1738V17.4499Z" fill="black"/>
<path d="M34.1738 16.5861H33.3101V17.4499H34.1738V16.5861Z" fill="black"/>
<path d="M34.1738 15.7224H33.3101V16.5862H34.1738V15.7224Z" fill="black"/>
<path d="M33.3099 32.0686H32.4536V32.9324H33.3099V32.0686Z" fill="black"/>
<path d="M33.3099 31.2136H32.4536V32.0699H33.3099V31.2136Z" fill="#B25212"/>
<path d="M33.3099 30.3486H32.4536V31.2124H33.3099V30.3486Z" fill="black"/>
<path d="M33.3099 29.4861H32.4536V30.3499H33.3099V29.4861Z" fill="#C1811B"/>
<path d="M33.3099 28.6311H32.4536V29.4874H33.3099V28.6311Z" fill="#B25212"/>
<path d="M33.3099 27.7661H32.4536V28.6299H33.3099V27.7661Z" fill="#C1811B"/>
<path d="M33.3099 26.9111H32.4536V27.7674H33.3099V26.9111Z" fill="black"/>
<path d="M33.3099 26.0461H32.4536V26.9099H33.3099V26.0461Z" fill="#626CA0"/>
<path d="M33.3099 25.1924H32.4536V26.0486H33.3099V25.1924Z" fill="black"/>
<path d="M33.3099 24.3286H32.4536V25.1924H33.3099V24.3286Z" fill="#B25212"/>
<path d="M33.3099 23.4724H32.4536V24.3287H33.3099V23.4724Z" fill="#DBAB65"/>
<path d="M33.3099 22.6086H32.4536V23.4724H33.3099V22.6086Z" fill="#626CA0"/>
<path d="M33.3099 21.7437H32.4536V22.6074H33.3099V21.7437Z" fill="#626CA0"/>
<path d="M33.3099 20.8886H32.4536V21.7449H33.3099V20.8886Z" fill="#626CA0"/>
<path d="M33.3099 20.0261H32.4536V20.8899H33.3099V20.0261Z" fill="#626CA0"/>
<path d="M33.3099 19.1699H32.4536V20.0261H33.3099V19.1699Z" fill="#5364AD"/>
<path d="M33.3099 18.3062H32.4536V19.1699H33.3099V18.3062Z" fill="#5364AD"/>
<path d="M33.3099 17.4499H32.4536V18.3061H33.3099V17.4499Z" fill="#5364AD"/>
<path d="M33.3099 16.5861H32.4536V17.4499H33.3099V16.5861Z" fill="#5364AD"/>
<path d="M33.3099 15.7224H32.4536V16.5862H33.3099V15.7224Z" fill="#626CA0"/>
<path d="M33.3099 14.8674H32.4536V15.7236H33.3099V14.8674Z" fill="black"/>
<path d="M32.4536 32.9337H31.5898V33.7899H32.4536V32.9337Z" fill="black"/>
<path d="M32.4536 32.0686H31.5898V32.9324H32.4536V32.0686Z" fill="#B25212"/>
<path d="M32.4536 31.2136H31.5898V32.0699H32.4536V31.2136Z" fill="#C1811B"/>
<path d="M32.4536 30.3486H31.5898V31.2124H32.4536V30.3486Z" fill="black"/>
<path d="M32.4536 29.4861H31.5898V30.3499H32.4536V29.4861Z" fill="#C1811B"/>
<path d="M32.4536 28.6311H31.5898V29.4874H32.4536V28.6311Z" fill="#C1811B"/>
<path d="M32.4536 27.7661H31.5898V28.6299H32.4536V27.7661Z" fill="#B25212"/>
<path d="M32.4536 26.9111H31.5898V27.7674H32.4536V26.9111Z" fill="black"/>
<path d="M32.4536 26.0461H31.5898V26.9099H32.4536V26.0461Z" fill="#626CA0"/>
<path d="M32.4536 25.1924H31.5898V26.0486H32.4536V25.1924Z" fill="black"/>
<path d="M32.4536 24.3286H31.5898V25.1924H32.4536V24.3286Z" fill="#B25212"/>
<path d="M32.4536 23.4724H31.5898V24.3287H32.4536V23.4724Z" fill="#DBAB65"/>
<path d="M32.4536 22.6086H31.5898V23.4724H32.4536V22.6086Z" fill="black"/>
<path d="M32.4536 21.7437H31.5898V22.6074H32.4536V21.7437Z" fill="#404E89"/>
<path d="M32.4536 20.8886H31.5898V21.7449H32.4536V20.8886Z" fill="#626CA0"/>
<path d="M32.4536 20.0261H31.5898V20.8899H32.4536V20.0261Z" fill="#626CA0"/>
<path d="M32.4536 19.1699H31.5898V20.0261H32.4536V19.1699Z" fill="#626CA0"/>
<path d="M32.4536 18.3062H31.5898V19.1699H32.4536V18.3062Z" fill="#626CA0"/>
<path d="M32.4536 17.4499H31.5898V18.3061H32.4536V17.4499Z" fill="#5364AD"/>
<path d="M32.4536 16.5861H31.5898V17.4499H32.4536V16.5861Z" fill="#626CA0"/>
<path d="M32.4536 15.7224H31.5898V16.5862H32.4536V15.7224Z" fill="#5364AD"/>
<path d="M32.4536 14.8674H31.5898V15.7236H32.4536V14.8674Z" fill="black"/>
<path d="M31.5901 32.9337H30.7339V33.7899H31.5901V32.9337Z" fill="black"/>
<path d="M31.5901 32.0686H30.7339V32.9324H31.5901V32.0686Z" fill="#C1811B"/>
<path d="M31.5901 31.2136H30.7339V32.0699H31.5901V31.2136Z" fill="#DBAB65"/>
<path d="M31.5901 30.3486H30.7339V31.2124H31.5901V30.3486Z" fill="#DBAB65"/>
<path d="M31.5901 29.4861H30.7339V30.3499H31.5901V29.4861Z" fill="black"/>
<path d="M31.5901 28.6311H30.7339V29.4874H31.5901V28.6311Z" fill="#C1811B"/>
<path d="M31.5901 27.7661H30.7339V28.6299H31.5901V27.7661Z" fill="black"/>
<path d="M31.5901 26.9111H30.7339V27.7674H31.5901V26.9111Z" fill="#626CA0"/>
<path d="M31.5901 26.0461H30.7339V26.9099H31.5901V26.0461Z" fill="#626CA0"/>
<path d="M31.5901 25.1924H30.7339V26.0486H31.5901V25.1924Z" fill="#5364AD"/>
<path d="M31.5901 24.3286H30.7339V25.1924H31.5901V24.3286Z" fill="black"/>
<path d="M31.5901 23.4724H30.7339V24.3287H31.5901V23.4724Z" fill="#C1811B"/>
<path d="M31.5901 22.6086H30.7339V23.4724H31.5901V22.6086Z" fill="black"/>
<path d="M31.5901 21.7437H30.7339V22.6074H31.5901V21.7437Z" fill="#404E89"/>
<path d="M31.5901 20.8886H30.7339V21.7449H31.5901V20.8886Z" fill="#404E89"/>
<path d="M31.5901 20.0261H30.7339V20.8899H31.5901V20.0261Z" fill="#626CA0"/>
<path d="M31.5901 19.1699H30.7339V20.0261H31.5901V19.1699Z" fill="#626CA0"/>
<path d="M31.5901 18.3062H30.7339V19.1699H31.5901V18.3062Z" fill="#626CA0"/>
<path d="M31.5901 17.4499H30.7339V18.3061H31.5901V17.4499Z" fill="#626CA0"/>
<path d="M31.5901 16.5861H30.7339V17.4499H31.5901V16.5861Z" fill="#626CA0"/>
<path d="M31.5901 15.7224H30.7339V16.5862H31.5901V15.7224Z" fill="#626CA0"/>
<path d="M31.5901 14.8674H30.7339V15.7236H31.5901V14.8674Z" fill="black"/>
<path d="M30.7339 32.9337H29.8701V33.7899H30.7339V32.9337Z" fill="black"/>
<path d="M30.7339 32.0686H29.8701V32.9324H30.7339V32.0686Z" fill="#DBAB65"/>
<path d="M30.7339 31.2136H29.8701V32.0699H30.7339V31.2136Z" fill="#DBAB65"/>
<path d="M30.7339 30.3486H29.8701V31.2124H30.7339V30.3486Z" fill="#DBAB65"/>
<path d="M30.7339 29.4861H29.8701V30.3499H30.7339V29.4861Z" fill="black"/>
<path d="M30.7339 28.6311H29.8701V29.4874H30.7339V28.6311Z" fill="#C1811B"/>
<path d="M30.7339 27.7661H29.8701V28.6299H30.7339V27.7661Z" fill="black"/>
<path d="M30.7339 26.9111H29.8701V27.7674H30.7339V26.9111Z" fill="#5364AD"/>
<path d="M30.7339 26.0461H29.8701V26.9099H30.7339V26.0461Z" fill="#5364AD"/>
<path d="M30.7339 25.1924H29.8701V26.0486H30.7339V25.1924Z" fill="#5364AD"/>
<path d="M30.7339 24.3286H29.8701V25.1924H30.7339V24.3286Z" fill="black"/>
<path d="M30.7339 23.4724H29.8701V24.3287H30.7339V23.4724Z" fill="#B25212"/>
<path d="M30.7339 22.6086H29.8701V23.4724H30.7339V22.6086Z" fill="#C1811B"/>
<path d="M30.7339 21.7437H29.8701V22.6074H30.7339V21.7437Z" fill="black"/>
<path d="M30.7339 20.8886H29.8701V21.7449H30.7339V20.8886Z" fill="#404E89"/>
<path d="M30.7339 20.0261H29.8701V20.8899H30.7339V20.0261Z" fill="#626CA0"/>
<path d="M30.7339 19.1699H29.8701V20.0261H30.7339V19.1699Z" fill="#626CA0"/>
<path d="M30.7339 18.3062H29.8701V19.1699H30.7339V18.3062Z" fill="#626CA0"/>
<path d="M30.7339 17.4499H29.8701V18.3061H30.7339V17.4499Z" fill="#626CA0"/>
<path d="M30.7339 16.5861H29.8701V17.4499H30.7339V16.5861Z" fill="black"/>
<path d="M30.7339 15.7224H29.8701V16.5862H30.7339V15.7224Z" fill="black"/>
<path d="M30.7339 14.8674H29.8701V15.7236H30.7339V14.8674Z" fill="black"/>
<path d="M29.8711 38.0911H29.0073V38.9549H29.8711V38.0911Z" fill="black"/>
<path d="M29.8711 37.2361H29.0073V38.0924H29.8711V37.2361Z" fill="black"/>
<path d="M29.8711 36.3712H29.0073V37.2349H29.8711V36.3712Z" fill="black"/>
<path d="M29.8711 35.5074H29.0073V36.3711H29.8711V35.5074Z" fill="black"/>
<path d="M29.8711 34.6536H29.0073V35.5099H29.8711V34.6536Z" fill="black"/>
<path d="M29.8711 32.9337H29.0073V33.7899H29.8711V32.9337Z" fill="black"/>
<path d="M29.8711 32.0686H29.0073V32.9324H29.8711V32.0686Z" fill="#B25212"/>
<path d="M29.8711 31.2136H29.0073V32.0699H29.8711V31.2136Z" fill="#DBAB65"/>
<path d="M29.8711 30.3486H29.0073V31.2124H29.8711V30.3486Z" fill="#DBAB65"/>
<path d="M29.8711 29.4861H29.0073V30.3499H29.8711V29.4861Z" fill="#C1811B"/>
<path d="M29.8711 28.6311H29.0073V29.4874H29.8711V28.6311Z" fill="black"/>
<path d="M29.8711 27.7661H29.0073V28.6299H29.8711V27.7661Z" fill="black"/>
<path d="M29.8711 26.9111H29.0073V27.7674H29.8711V26.9111Z" fill="black"/>
<path d="M29.8711 26.0461H29.0073V26.9099H29.8711V26.0461Z" fill="black"/>
<path d="M29.8711 25.1924H29.0073V26.0486H29.8711V25.1924Z" fill="#5364AD"/>
<path d="M29.8711 24.3286H29.0073V25.1924H29.8711V24.3286Z" fill="#5364AD"/>
<path d="M29.8711 23.4724H29.0073V24.3287H29.8711V23.4724Z" fill="black"/>
<path d="M29.8711 22.6086H29.0073V23.4724H29.8711V22.6086Z" fill="#B25212"/>
<path d="M29.8711 21.7437H29.0073V22.6074H29.8711V21.7437Z" fill="#C1811B"/>
<path d="M29.8711 20.8886H29.0073V21.7449H29.8711V20.8886Z" fill="black"/>
<path d="M29.8711 20.0261H29.0073V20.8899H29.8711V20.0261Z" fill="black"/>
<path d="M29.8711 19.1699H29.0073V20.0261H29.8711V19.1699Z" fill="#5364AD"/>
<path d="M29.8711 18.3062H29.0073V19.1699H29.8711V18.3062Z" fill="#5364AD"/>
<path d="M29.8711 17.4499H29.0073V18.3061H29.8711V17.4499Z" fill="black"/>
<path d="M29.8711 16.5861H29.0073V17.4499H29.8711V16.5861Z" fill="black"/>
<path d="M29.0076 38.0911H28.1514V38.9549H29.0076V38.0911Z" fill="black"/>
<path d="M29.0076 37.2361H28.1514V38.0924H29.0076V37.2361Z" fill="#404E89"/>
<path d="M29.0076 36.3712H28.1514V37.2349H29.0076V36.3712Z" fill="#404E89"/>
<path d="M29.0076 35.5074H28.1514V36.3711H29.0076V35.5074Z" fill="#404E89"/>
<path d="M29.0076 34.6536H28.1514V35.5099H29.0076V34.6536Z" fill="black"/>
<path d="M29.0076 33.7886H28.1514V34.6524H29.0076V33.7886Z" fill="black"/>
<path d="M29.0076 32.9337H28.1514V33.7899H29.0076V32.9337Z" fill="black"/>
<path d="M29.0076 32.0686H28.1514V32.9324H29.0076V32.0686Z" fill="black"/>
<path d="M29.0076 31.2136H28.1514V32.0699H29.0076V31.2136Z" fill="#C1811B"/>
<path d="M29.0076 30.3486H28.1514V31.2124H29.0076V30.3486Z" fill="#C1811B"/>
<path d="M29.0076 29.4861H28.1514V30.3499H29.0076V29.4861Z" fill="#C1811B"/>
<path d="M29.0076 28.6311H28.1514V29.4874H29.0076V28.6311Z" fill="black"/>
<path d="M29.0076 27.7661H28.1514V28.6299H29.0076V27.7661Z" fill="#344A91"/>
<path d="M29.0076 26.9111H28.1514V27.7674H29.0076V26.9111Z" fill="#344A91"/>
<path d="M29.0076 26.0461H28.1514V26.9099H29.0076V26.0461Z" fill="#C1811B"/>
<path d="M29.0076 25.1924H28.1514V26.0486H29.0076V25.1924Z" fill="black"/>
<path d="M29.0076 24.3286H28.1514V25.1924H29.0076V24.3286Z" fill="black"/>
<path d="M29.0076 23.4724H28.1514V24.3287H29.0076V23.4724Z" fill="#626CA0"/>
<path d="M29.0076 22.6086H28.1514V23.4724H29.0076V22.6086Z" fill="black"/>
<path d="M29.0076 21.7437H28.1514V22.6074H29.0076V21.7437Z" fill="#B25212"/>
<path d="M29.0076 20.8886H28.1514V21.7449H29.0076V20.8886Z" fill="#C1811B"/>
<path d="M29.0076 20.0261H28.1514V20.8899H29.0076V20.0261Z" fill="#DBAB65"/>
<path d="M29.0076 19.1699H28.1514V20.0261H29.0076V19.1699Z" fill="black"/>
<path d="M29.0076 18.3062H28.1514V19.1699H29.0076V18.3062Z" fill="#5364AD"/>
<path d="M29.0076 17.4499H28.1514V18.3061H29.0076V17.4499Z" fill="black"/>
<path d="M29.0076 16.5861H28.1514V17.4499H29.0076V16.5861Z" fill="black"/>
<path d="M29.0076 15.7224H28.1514V16.5862H29.0076V15.7224Z" fill="black"/>
<path d="M29.0076 14.8674H28.1514V15.7236H29.0076V14.8674Z" fill="black"/>
<path d="M29.0076 14.0037H28.1514V14.8674H29.0076V14.0037Z" fill="black"/>
<path d="M29.0076 13.1474H28.1514V14.0036H29.0076V13.1474Z" fill="black"/>
<path d="M29.0076 12.2836H28.1514V13.1474H29.0076V12.2836Z" fill="black"/>
<path d="M28.1513 38.0911H27.2876V38.9549H28.1513V38.0911Z" fill="black"/>
<path d="M28.1513 37.2361H27.2876V38.0924H28.1513V37.2361Z" fill="#404E89"/>
<path d="M28.1513 36.3712H27.2876V37.2349H28.1513V36.3712Z" fill="#626CA0"/>
<path d="M28.1513 35.5074H27.2876V36.3711H28.1513V35.5074Z" fill="#626CA0"/>
<path d="M28.1513 34.6536H27.2876V35.5099H28.1513V34.6536Z" fill="#404E89"/>
<path d="M28.1513 33.7886H27.2876V34.6524H28.1513V33.7886Z" fill="#404E89"/>
<path d="M28.1513 32.9337H27.2876V33.7899H28.1513V32.9337Z" fill="#404E89"/>
<path d="M28.1513 32.0686H27.2876V32.9324H28.1513V32.0686Z" fill="black"/>
<path d="M28.1513 31.2136H27.2876V32.0699H28.1513V31.2136Z" fill="black"/>
<path d="M28.1513 30.3486H27.2876V31.2124H28.1513V30.3486Z" fill="black"/>
<path d="M28.1513 29.4861H27.2876V30.3499H28.1513V29.4861Z" fill="black"/>
<path d="M28.1513 28.6311H27.2876V29.4874H28.1513V28.6311Z" fill="black"/>
<path d="M28.1513 27.7661H27.2876V28.6299H28.1513V27.7661Z" fill="black"/>
<path d="M28.1513 26.9111H27.2876V27.7674H28.1513V26.9111Z" fill="#42578E"/>
<path d="M28.1513 26.0461H27.2876V26.9099H28.1513V26.0461Z" fill="black"/>
<path d="M28.1513 25.1924H27.2876V26.0486H28.1513V25.1924Z" fill="#C1811B"/>
<path d="M28.1513 24.3286H27.2876V25.1924H28.1513V24.3286Z" fill="black"/>
<path d="M28.1513 23.4724H27.2876V24.3287H28.1513V23.4724Z" fill="#626CA0"/>
<path d="M28.1513 22.6086H27.2876V23.4724H28.1513V22.6086Z" fill="#626CA0"/>
<path d="M28.1513 21.7437H27.2876V22.6074H28.1513V21.7437Z" fill="black"/>
<path d="M28.1513 20.8886H27.2876V21.7449H28.1513V20.8886Z" fill="#B25212"/>
<path d="M28.1513 20.0261H27.2876V20.8899H28.1513V20.0261Z" fill="#C1811B"/>
<path d="M28.1513 19.1699H27.2876V20.0261H28.1513V19.1699Z" fill="#B25212"/>
<path d="M28.1513 18.3062H27.2876V19.1699H28.1513V18.3062Z" fill="black"/>
<path d="M28.1513 17.4499H27.2876V18.3061H28.1513V17.4499Z" fill="#404E89"/>
<path d="M28.1513 16.5861H27.2876V17.4499H28.1513V16.5861Z" fill="#404E89"/>
<path d="M28.1513 15.7224H27.2876V16.5862H28.1513V15.7224Z" fill="#626CA0"/>
<path d="M28.1513 14.8674H27.2876V15.7236H28.1513V14.8674Z" fill="#626CA0"/>
<path d="M28.1513 14.0037H27.2876V14.8674H28.1513V14.0037Z" fill="#404E89"/>
<path d="M28.1513 13.1474H27.2876V14.0036H28.1513V13.1474Z" fill="#404E89"/>
<path d="M28.1513 12.2836H27.2876V13.1474H28.1513V12.2836Z" fill="#404E89"/>
<path d="M28.1513 11.4286H27.2876V12.2849H28.1513V11.4286Z" fill="black"/>
<path d="M27.2874 38.0911H26.4312V38.9549H27.2874V38.0911Z" fill="black"/>
<path d="M27.2874 37.2361H26.4312V38.0924H27.2874V37.2361Z" fill="#404E89"/>
<path d="M27.2874 36.3712H26.4312V37.2349H27.2874V36.3712Z" fill="#C1811B"/>
<path d="M27.2874 35.5074H26.4312V36.3711H27.2874V35.5074Z" fill="#B25212"/>
<path d="M27.2874 34.6536H26.4312V35.5099H27.2874V34.6536Z" fill="#626CA0"/>
<path d="M27.2874 33.7886H26.4312V34.6524H27.2874V33.7886Z" fill="black"/>
<path d="M27.2874 32.9337H26.4312V33.7899H27.2874V32.9337Z" fill="black"/>
<path d="M27.2874 32.0686H26.4312V32.9324H27.2874V32.0686Z" fill="black"/>
<path d="M27.2874 31.2136H26.4312V32.0699H27.2874V31.2136Z" fill="#2F384C"/>
<path d="M27.2874 30.3486H26.4312V31.2124H27.2874V30.3486Z" fill="black"/>
<path d="M27.2874 29.4861H26.4312V30.3499H27.2874V29.4861Z" fill="#344A91"/>
<path d="M27.2874 28.6311H26.4312V29.4874H27.2874V28.6311Z" fill="#42578E"/>
<path d="M27.2874 27.7661H26.4312V28.6299H27.2874V27.7661Z" fill="black"/>
<path d="M27.2874 26.9111H26.4312V27.7674H27.2874V26.9111Z" fill="#42578E"/>
<path d="M27.2874 26.0461H26.4312V26.9099H27.2874V26.0461Z" fill="black"/>
<path d="M27.2874 25.1924H26.4312V26.0486H27.2874V25.1924Z" fill="#B25212"/>
<path d="M27.2874 24.3286H26.4312V25.1924H27.2874V24.3286Z" fill="black"/>
<path d="M27.2874 23.4724H26.4312V24.3287H27.2874V23.4724Z" fill="#404E89"/>
<path d="M27.2874 22.6086H26.4312V23.4724H27.2874V22.6086Z" fill="black"/>
<path d="M27.2874 21.7437H26.4312V22.6074H27.2874V21.7437Z" fill="#C1811B"/>
<path d="M27.2874 20.8886H26.4312V21.7449H27.2874V20.8886Z" fill="black"/>
<path d="M27.2874 20.0261H26.4312V20.8899H27.2874V20.0261Z" fill="black"/>
<path d="M27.2874 19.1699H26.4312V20.0261H27.2874V19.1699Z" fill="black"/>
<path d="M27.2874 18.3062H26.4312V19.1699H27.2874V18.3062Z" fill="#404E89"/>
<path d="M27.2874 17.4499H26.4312V18.3061H27.2874V17.4499Z" fill="#404E89"/>
<path d="M27.2874 16.5861H26.4312V17.4499H27.2874V16.5861Z" fill="#626CA0"/>
<path d="M27.2874 15.7224H26.4312V16.5862H27.2874V15.7224Z" fill="#626CA0"/>
<path d="M27.2874 14.8674H26.4312V15.7236H27.2874V14.8674Z" fill="#626CA0"/>
<path d="M27.2874 14.0037H26.4312V14.8674H27.2874V14.0037Z" fill="#626CA0"/>
<path d="M27.2874 13.1474H26.4312V14.0036H27.2874V13.1474Z" fill="#626CA0"/>
<path d="M27.2874 12.2836H26.4312V13.1474H27.2874V12.2836Z" fill="#404E89"/>
<path d="M27.2874 11.4286H26.4312V12.2849H27.2874V11.4286Z" fill="black"/>
<path d="M26.4311 38.0911H25.5674V38.9549H26.4311V38.0911Z" fill="black"/>
<path d="M26.4311 37.2361H25.5674V38.0924H26.4311V37.2361Z" fill="#404E89"/>
<path d="M26.4311 36.3712H25.5674V37.2349H26.4311V36.3712Z" fill="black"/>
<path d="M26.4311 35.5074H25.5674V36.3711H26.4311V35.5074Z" fill="black"/>
<path d="M26.4311 34.6536H25.5674V35.5099H26.4311V34.6536Z" fill="#B25212"/>
<path d="M26.4311 33.7886H25.5674V34.6524H26.4311V33.7886Z" fill="#B25212"/>
<path d="M26.4311 32.9337H25.5674V33.7899H26.4311V32.9337Z" fill="black"/>
<path d="M26.4311 32.0686H25.5674V32.9324H26.4311V32.0686Z" fill="black"/>
<path d="M26.4311 31.2136H25.5674V32.0699H26.4311V31.2136Z" fill="#2F384C"/>
<path d="M26.4311 30.3486H25.5674V31.2124H26.4311V30.3486Z" fill="black"/>
<path d="M26.4311 29.4861H25.5674V30.3499H26.4311V29.4861Z" fill="#344A91"/>
<path d="M26.4311 28.6311H25.5674V29.4874H26.4311V28.6311Z" fill="#344A91"/>
<path d="M26.4311 27.7661H25.5674V28.6299H26.4311V27.7661Z" fill="#42578E"/>
<path d="M26.4311 26.9111H25.5674V27.7674H26.4311V26.9111Z" fill="black"/>
<path d="M26.4311 26.0461H25.5674V26.9099H26.4311V26.0461Z" fill="#B25212"/>
<path d="M26.4311 25.1924H25.5674V26.0486H26.4311V25.1924Z" fill="#B25212"/>
<path d="M26.4311 24.3286H25.5674V25.1924H26.4311V24.3286Z" fill="black"/>
<path d="M26.4311 23.4724H25.5674V24.3287H26.4311V23.4724Z" fill="#404E89"/>
<path d="M26.4311 22.6086H25.5674V23.4724H26.4311V22.6086Z" fill="black"/>
<path d="M26.4311 21.7437H25.5674V22.6074H26.4311V21.7437Z" fill="#C1811B"/>
<path d="M26.4311 20.8886H25.5674V21.7449H26.4311V20.8886Z" fill="#404E89"/>
<path d="M26.4311 20.0261H25.5674V20.8899H26.4311V20.0261Z" fill="#404E89"/>
<path d="M26.4311 19.1699H25.5674V20.0261H26.4311V19.1699Z" fill="black"/>
<path d="M26.4311 18.3062H25.5674V19.1699H26.4311V18.3062Z" fill="#404E89"/>
<path d="M26.4311 17.4499H25.5674V18.3061H26.4311V17.4499Z" fill="#626CA0"/>
<path d="M26.4311 16.5861H25.5674V17.4499H26.4311V16.5861Z" fill="#626CA0"/>
<path d="M26.4311 15.7224H25.5674V16.5862H26.4311V15.7224Z" fill="#626CA0"/>
<path d="M26.4311 14.8674H25.5674V15.7236H26.4311V14.8674Z" fill="#626CA0"/>
<path d="M26.4311 14.0037H25.5674V14.8674H26.4311V14.0037Z" fill="#626CA0"/>
<path d="M26.4311 13.1474H25.5674V14.0036H26.4311V13.1474Z" fill="#626CA0"/>
<path d="M26.4311 12.2836H25.5674V13.1474H26.4311V12.2836Z" fill="#626CA0"/>
<path d="M26.4311 11.4286H25.5674V12.2849H26.4311V11.4286Z" fill="black"/>
<path d="M25.5687 38.0911H24.7124V38.9549H25.5687V38.0911Z" fill="black"/>
<path d="M25.5687 37.2361H24.7124V38.0924H25.5687V37.2361Z" fill="#C1811B"/>
<path d="M25.5687 36.3712H24.7124V37.2349H25.5687V36.3712Z" fill="#DBAB65"/>
<path d="M25.5687 35.5074H24.7124V36.3711H25.5687V35.5074Z" fill="#C1811B"/>
<path d="M25.5687 34.6536H24.7124V35.5099H25.5687V34.6536Z" fill="black"/>
<path d="M25.5687 33.7886H24.7124V34.6524H25.5687V33.7886Z" fill="#C1811B"/>
<path d="M25.5687 32.9337H24.7124V33.7899H25.5687V32.9337Z" fill="#626CA0"/>
<path d="M25.5687 32.0686H24.7124V32.9324H25.5687V32.0686Z" fill="black"/>
<path d="M25.5687 31.2136H24.7124V32.0699H25.5687V31.2136Z" fill="#2F384C"/>
<path d="M25.5687 30.3486H24.7124V31.2124H25.5687V30.3486Z" fill="black"/>
<path d="M25.5687 29.4861H24.7124V30.3499H25.5687V29.4861Z" fill="#344A91"/>
<path d="M25.5687 28.6311H24.7124V29.4874H25.5687V28.6311Z" fill="#42578E"/>
<path d="M25.5687 27.7661H24.7124V28.6299H25.5687V27.7661Z" fill="#42578E"/>
<path d="M25.5687 26.9111H24.7124V27.7674H25.5687V26.9111Z" fill="black"/>
<path d="M25.5687 26.0461H24.7124V26.9099H25.5687V26.0461Z" fill="#B25212"/>
<path d="M25.5687 25.1924H24.7124V26.0486H25.5687V25.1924Z" fill="black"/>
<path d="M25.5687 24.3286H24.7124V25.1924H25.5687V24.3286Z" fill="#404E89"/>
<path d="M25.5687 23.4724H24.7124V24.3287H25.5687V23.4724Z" fill="black"/>
<path d="M25.5687 22.6086H24.7124V23.4724H25.5687V22.6086Z" fill="#C1811B"/>
<path d="M25.5687 21.7437H24.7124V22.6074H25.5687V21.7437Z" fill="#404E89"/>
<path d="M25.5687 20.8886H24.7124V21.7449H25.5687V20.8886Z" fill="#404E89"/>
<path d="M25.5687 20.0261H24.7124V20.8899H25.5687V20.0261Z" fill="#404E89"/>
<path d="M25.5687 19.1699H24.7124V20.0261H25.5687V19.1699Z" fill="black"/>
<path d="M25.5687 18.3062H24.7124V19.1699H25.5687V18.3062Z" fill="#404E89"/>
<path d="M25.5687 17.4499H24.7124V18.3061H25.5687V17.4499Z" fill="#626CA0"/>
<path d="M25.5687 16.5861H24.7124V17.4499H25.5687V16.5861Z" fill="#626CA0"/>
<path d="M25.5687 15.7224H24.7124V16.5862H25.5687V15.7224Z" fill="#5364AD"/>
<path d="M25.5687 14.8674H24.7124V15.7236H25.5687V14.8674Z" fill="#5364AD"/>
<path d="M25.5687 14.0037H24.7124V14.8674H25.5687V14.0037Z" fill="#626CA0"/>
<path d="M25.5687 13.1474H24.7124V14.0036H25.5687V13.1474Z" fill="#626CA0"/>
<path d="M25.5687 12.2836H24.7124V13.1474H25.5687V12.2836Z" fill="#626CA0"/>
<path d="M25.5687 11.4286H24.7124V12.2849H25.5687V11.4286Z" fill="black"/>
<path d="M24.7124 38.0911H23.8486V38.9549H24.7124V38.0911Z" fill="black"/>
<path d="M24.7124 37.2361H23.8486V38.0924H24.7124V37.2361Z" fill="#DBAB65"/>
<path d="M24.7124 36.3712H23.8486V37.2349H24.7124V36.3712Z" fill="black"/>
<path d="M24.7124 35.5074H23.8486V36.3711H24.7124V35.5074Z" fill="black"/>
<path d="M24.7124 34.6536H23.8486V35.5099H24.7124V34.6536Z" fill="black"/>
<path d="M24.7124 33.7886H23.8486V34.6524H24.7124V33.7886Z" fill="black"/>
<path d="M24.7124 32.9337H23.8486V33.7899H24.7124V32.9337Z" fill="#626CA0"/>
<path d="M24.7124 32.0686H23.8486V32.9324H24.7124V32.0686Z" fill="black"/>
<path d="M24.7124 31.2136H23.8486V32.0699H24.7124V31.2136Z" fill="#2F384C"/>
<path d="M24.7124 30.3486H23.8486V31.2124H24.7124V30.3486Z" fill="black"/>
<path d="M24.7124 29.4861H23.8486V30.3499H24.7124V29.4861Z" fill="#42578E"/>
<path d="M24.7124 28.6311H23.8486V29.4874H24.7124V28.6311Z" fill="#42578E"/>
<path d="M24.7124 27.7661H23.8486V28.6299H24.7124V27.7661Z" fill="#42578E"/>
<path d="M24.7124 26.9111H23.8486V27.7674H24.7124V26.9111Z" fill="black"/>
<path d="M24.7124 26.0461H23.8486V26.9099H24.7124V26.0461Z" fill="#C1811B"/>
<path d="M24.7124 25.1924H23.8486V26.0486H24.7124V25.1924Z" fill="black"/>
<path d="M24.7124 24.3286H23.8486V25.1924H24.7124V24.3286Z" fill="#404E89"/>
<path d="M24.7124 23.4724H23.8486V24.3287H24.7124V23.4724Z" fill="black"/>
<path d="M24.7124 22.6086H23.8486V23.4724H24.7124V22.6086Z" fill="#404E89"/>
<path d="M24.7124 21.7437H23.8486V22.6074H24.7124V21.7437Z" fill="#404E89"/>
<path d="M24.7124 20.8886H23.8486V21.7449H24.7124V20.8886Z" fill="#626CA0"/>
<path d="M24.7124 20.0261H23.8486V20.8899H24.7124V20.0261Z" fill="black"/>
<path d="M24.7124 19.1699H23.8486V20.0261H24.7124V19.1699Z" fill="#404E89"/>
<path d="M24.7124 18.3062H23.8486V19.1699H24.7124V18.3062Z" fill="#404E89"/>
<path d="M24.7124 17.4499H23.8486V18.3061H24.7124V17.4499Z" fill="#626CA0"/>
<path d="M24.7124 16.5861H23.8486V17.4499H24.7124V16.5861Z" fill="#5364AD"/>
<path d="M24.7124 15.7224H23.8486V16.5862H24.7124V15.7224Z" fill="#5364AD"/>
<path d="M24.7124 14.8674H23.8486V15.7236H24.7124V14.8674Z" fill="black"/>
<path d="M24.7124 14.0037H23.8486V14.8674H24.7124V14.0037Z" fill="#626CA0"/>
<path d="M24.7124 13.1474H23.8486V14.0036H24.7124V13.1474Z" fill="#626CA0"/>
<path d="M24.7124 12.2836H23.8486V13.1474H24.7124V12.2836Z" fill="#626CA0"/>
<path d="M24.7124 11.4286H23.8486V12.2849H24.7124V11.4286Z" fill="black"/>
<path d="M23.8489 38.0911H22.9927V38.9549H23.8489V38.0911Z" fill="black"/>
<path d="M23.8489 37.2361H22.9927V38.0924H23.8489V37.2361Z" fill="#C1811B"/>
<path d="M23.8489 36.3712H22.9927V37.2349H23.8489V36.3712Z" fill="black"/>
<path d="M23.8489 35.5074H22.9927V36.3711H23.8489V35.5074Z" fill="#C1811B"/>
<path d="M23.8489 34.6536H22.9927V35.5099H23.8489V34.6536Z" fill="black"/>
<path d="M23.8489 33.7886H22.9927V34.6524H23.8489V33.7886Z" fill="#C1811B"/>
<path d="M23.8489 32.9337H22.9927V33.7899H23.8489V32.9337Z" fill="black"/>
<path d="M23.8489 32.0686H22.9927V32.9324H23.8489V32.0686Z" fill="black"/>
<path d="M23.8489 31.2136H22.9927V32.0699H23.8489V31.2136Z" fill="#2F384C"/>
<path d="M23.8489 30.3486H22.9927V31.2124H23.8489V30.3486Z" fill="black"/>
<path d="M23.8489 29.4861H22.9927V30.3499H23.8489V29.4861Z" fill="#42578E"/>
<path d="M23.8489 28.6311H22.9927V29.4874H23.8489V28.6311Z" fill="#344A91"/>
<path d="M23.8489 27.7661H22.9927V28.6299H23.8489V27.7661Z" fill="black"/>
<path d="M23.8489 26.9111H22.9927V27.7674H23.8489V26.9111Z" fill="black"/>
<path d="M23.8489 26.0461H22.9927V26.9099H23.8489V26.0461Z" fill="#C1811B"/>
<path d="M23.8489 25.1924H22.9927V26.0486H23.8489V25.1924Z" fill="black"/>
<path d="M23.8489 24.3286H22.9927V25.1924H23.8489V24.3286Z" fill="#404E89"/>
<path d="M23.8489 23.4724H22.9927V24.3287H23.8489V23.4724Z" fill="black"/>
<path d="M23.8489 22.6086H22.9927V23.4724H23.8489V22.6086Z" fill="#626CA0"/>
<path d="M23.8489 21.7437H22.9927V22.6074H23.8489V21.7437Z" fill="#404E89"/>
<path d="M23.8489 20.8886H22.9927V21.7449H23.8489V20.8886Z" fill="#626CA0"/>
<path d="M23.8489 20.0261H22.9927V20.8899H23.8489V20.0261Z" fill="black"/>
<path d="M23.8489 19.1699H22.9927V20.0261H23.8489V19.1699Z" fill="#404E89"/>
<path d="M23.8489 18.3062H22.9927V19.1699H23.8489V18.3062Z" fill="#404E89"/>
<path d="M23.8489 17.4499H22.9927V18.3061H23.8489V17.4499Z" fill="#5364AD"/>
<path d="M23.8489 16.5861H22.9927V17.4499H23.8489V16.5861Z" fill="#5364AD"/>
<path d="M23.8489 15.7224H22.9927V16.5862H23.8489V15.7224Z" fill="black"/>
<path d="M23.8489 14.8674H22.9927V15.7236H23.8489V14.8674Z" fill="black"/>
<path d="M23.8489 14.0037H22.9927V14.8674H23.8489V14.0037Z" fill="#626CA0"/>
<path d="M23.8489 13.1474H22.9927V14.0036H23.8489V13.1474Z" fill="#626CA0"/>
<path d="M23.8489 12.2836H22.9927V13.1474H23.8489V12.2836Z" fill="#5364AD"/>
<path d="M23.8489 11.4286H22.9927V12.2849H23.8489V11.4286Z" fill="black"/>
<path d="M22.9927 38.0911H22.1289V38.9549H22.9927V38.0911Z" fill="black"/>
<path d="M22.9927 37.2361H22.1289V38.0924H22.9927V37.2361Z" fill="black"/>
<path d="M22.9927 36.3712H22.1289V37.2349H22.9927V36.3712Z" fill="#C1811B"/>
<path d="M22.9927 35.5074H22.1289V36.3711H22.9927V35.5074Z" fill="#DBAB65"/>
<path d="M22.9927 34.6536H22.1289V35.5099H22.9927V34.6536Z" fill="#C1811B"/>
<path d="M22.9927 33.7886H22.1289V34.6524H22.9927V33.7886Z" fill="black"/>
<path d="M22.9927 32.9337H22.1289V33.7899H22.9927V32.9337Z" fill="#5364AD"/>
<path d="M22.9927 32.0686H22.1289V32.9324H22.9927V32.0686Z" fill="black"/>
<path d="M22.9927 31.2136H22.1289V32.0699H22.9927V31.2136Z" fill="#2F384C"/>
<path d="M22.9927 30.3486H22.1289V31.2124H22.9927V30.3486Z" fill="black"/>
<path d="M22.9927 29.4861H22.1289V30.3499H22.9927V29.4861Z" fill="#344A91"/>
<path d="M22.9927 28.6311H22.1289V29.4874H22.9927V28.6311Z" fill="black"/>
<path d="M22.9927 27.7661H22.1289V28.6299H22.9927V27.7661Z" fill="#42578E"/>
<path d="M22.9927 26.9111H22.1289V27.7674H22.9927V26.9111Z" fill="#344A91"/>
<path d="M22.9927 26.0461H22.1289V26.9099H22.9927V26.0461Z" fill="black"/>
<path d="M22.9927 25.1924H22.1289V26.0486H22.9927V25.1924Z" fill="#C1811B"/>
<path d="M22.9927 24.3286H22.1289V25.1924H22.9927V24.3286Z" fill="black"/>
<path d="M22.9927 23.4724H22.1289V24.3287H22.9927V23.4724Z" fill="black"/>
<path d="M22.9927 22.6086H22.1289V23.4724H22.9927V22.6086Z" fill="#626CA0"/>
<path d="M22.9927 21.7437H22.1289V22.6074H22.9927V21.7437Z" fill="#404E89"/>
<path d="M22.9927 20.8886H22.1289V21.7449H22.9927V20.8886Z" fill="#626CA0"/>
<path d="M22.9927 20.0261H22.1289V20.8899H22.9927V20.0261Z" fill="black"/>
<path d="M22.9927 19.1699H22.1289V20.0261H22.9927V19.1699Z" fill="#404E89"/>
<path d="M22.9927 18.3062H22.1289V19.1699H22.9927V18.3062Z" fill="#5364AD"/>
<path d="M22.9927 17.4499H22.1289V18.3061H22.9927V17.4499Z" fill="black"/>
<path d="M22.9927 16.5861H22.1289V17.4499H22.9927V16.5861Z" fill="black"/>
<path d="M22.9927 15.7224H22.1289V16.5862H22.9927V15.7224Z" fill="black"/>
<path d="M22.9927 14.8674H22.1289V15.7236H22.9927V14.8674Z" fill="black"/>
<path d="M22.9927 14.0037H22.1289V14.8674H22.9927V14.0037Z" fill="#5364AD"/>
<path d="M22.9927 13.1474H22.1289V14.0036H22.9927V13.1474Z" fill="#5364AD"/>
<path d="M22.9927 12.2836H22.1289V13.1474H22.9927V12.2836Z" fill="#5364AD"/>
<path d="M22.9927 11.4286H22.1289V12.2849H22.9927V11.4286Z" fill="black"/>
<path d="M22.1289 38.0911H21.2651V38.9549H22.1289V38.0911Z" fill="black"/>
<path d="M22.1289 37.2361H21.2651V38.0924H22.1289V37.2361Z" fill="#DBAB65"/>
<path d="M22.1289 36.3712H21.2651V37.2349H22.1289V36.3712Z" fill="#C1811B"/>
<path d="M22.1289 35.5074H21.2651V36.3711H22.1289V35.5074Z" fill="black"/>
<path d="M22.1289 34.6536H21.2651V35.5099H22.1289V34.6536Z" fill="black"/>
<path d="M22.1289 33.7886H21.2651V34.6524H22.1289V33.7886Z" fill="black"/>
<path d="M22.1289 32.9337H21.2651V33.7899H22.1289V32.9337Z" fill="black"/>
<path d="M22.1289 32.0686H21.2651V32.9324H22.1289V32.0686Z" fill="black"/>
<path d="M22.1289 31.2136H21.2651V32.0699H22.1289V31.2136Z" fill="#2F384C"/>
<path d="M22.1289 30.3486H21.2651V31.2124H22.1289V30.3486Z" fill="black"/>
<path d="M22.1289 29.4861H21.2651V30.3499H22.1289V29.4861Z" fill="black"/>
<path d="M22.1289 28.6311H21.2651V29.4874H22.1289V28.6311Z" fill="black"/>
<path d="M22.1289 27.7661H21.2651V28.6299H22.1289V27.7661Z" fill="black"/>
<path d="M22.1289 26.9111H21.2651V27.7674H22.1289V26.9111Z" fill="black"/>
<path d="M22.1289 26.0461H21.2651V26.9099H22.1289V26.0461Z" fill="black"/>
<path d="M22.1289 25.1924H21.2651V26.0486H22.1289V25.1924Z" fill="black"/>
<path d="M22.1289 24.3286H21.2651V25.1924H22.1289V24.3286Z" fill="black"/>
<path d="M22.1289 23.4724H21.2651V24.3287H22.1289V23.4724Z" fill="#404E89"/>
<path d="M22.1289 22.6086H21.2651V23.4724H22.1289V22.6086Z" fill="black"/>
<path d="M22.1289 21.7437H21.2651V22.6074H22.1289V21.7437Z" fill="#626CA0"/>
<path d="M22.1289 20.8886H21.2651V21.7449H22.1289V20.8886Z" fill="#626CA0"/>
<path d="M22.1289 20.0261H21.2651V20.8899H22.1289V20.0261Z" fill="black"/>
<path d="M22.1289 19.1699H21.2651V20.0261H22.1289V19.1699Z" fill="black"/>
<path d="M22.1289 18.3062H21.2651V19.1699H22.1289V18.3062Z" fill="black"/>
<path d="M22.1289 17.4499H21.2651V18.3061H22.1289V17.4499Z" fill="black"/>
<path d="M22.1289 16.5861H21.2651V17.4499H22.1289V16.5861Z" fill="black"/>
<path d="M22.1289 15.7224H21.2651V16.5862H22.1289V15.7224Z" fill="black"/>
<path d="M22.1289 14.8674H21.2651V15.7236H22.1289V14.8674Z" fill="black"/>
<path d="M22.1289 14.0037H21.2651V14.8674H22.1289V14.0037Z" fill="black"/>
<path d="M22.1289 13.1474H21.2651V14.0036H22.1289V13.1474Z" fill="black"/>
<path d="M22.1289 12.2836H21.2651V13.1474H22.1289V12.2836Z" fill="black"/>
<path d="M21.2649 38.0911H20.4087V38.9549H21.2649V38.0911Z" fill="black"/>
<path d="M21.2649 37.2361H20.4087V38.0924H21.2649V37.2361Z" fill="#DBAB65"/>
<path d="M21.2649 36.3712H20.4087V37.2349H21.2649V36.3712Z" fill="black"/>
<path d="M21.2649 32.0686H20.4087V32.9324H21.2649V32.0686Z" fill="black"/>
<path d="M21.2649 31.2136H20.4087V32.0699H21.2649V31.2136Z" fill="#2F384C"/>
<path d="M21.2649 30.3486H20.4087V31.2124H21.2649V30.3486Z" fill="black"/>
<path d="M21.2649 29.4861H20.4087V30.3499H21.2649V29.4861Z" fill="#DBAB65"/>
<path d="M21.2649 28.6311H20.4087V29.4874H21.2649V28.6311Z" fill="black"/>
<path d="M21.2649 27.7661H20.4087V28.6299H21.2649V27.7661Z" fill="#DBAB65"/>
<path d="M21.2649 26.9111H20.4087V27.7674H21.2649V26.9111Z" fill="#B25212"/>
<path d="M21.2649 26.0461H20.4087V26.9099H21.2649V26.0461Z" fill="#C1811B"/>
<path d="M21.2649 25.1924H20.4087V26.0486H21.2649V25.1924Z" fill="black"/>
<path d="M21.2649 24.3286H20.4087V25.1924H21.2649V24.3286Z" fill="black"/>
<path d="M21.2649 23.4724H20.4087V24.3287H21.2649V23.4724Z" fill="black"/>
<path d="M21.2649 22.6086H20.4087V23.4724H21.2649V22.6086Z" fill="black"/>
<path d="M21.2649 21.7437H20.4087V22.6074H21.2649V21.7437Z" fill="black"/>
<path d="M21.2649 20.8886H20.4087V21.7449H21.2649V20.8886Z" fill="black"/>
<path d="M21.2649 20.0261H20.4087V20.8899H21.2649V20.0261Z" fill="#404E89"/>
<path d="M21.2649 19.1699H20.4087V20.0261H21.2649V19.1699Z" fill="#404E89"/>
<path d="M21.2649 18.3062H20.4087V19.1699H21.2649V18.3062Z" fill="#626CA0"/>
<path d="M21.2649 17.4499H20.4087V18.3061H21.2649V17.4499Z" fill="#626CA0"/>
<path d="M21.2649 16.5861H20.4087V17.4499H21.2649V16.5861Z" fill="#626CA0"/>
<path d="M21.2649 15.7224H20.4087V16.5862H21.2649V15.7224Z" fill="black"/>
<path d="M20.4101 38.0911H19.5464V38.9549H20.4101V38.0911Z" fill="black"/>
<path d="M20.4101 37.2361H19.5464V38.0924H20.4101V37.2361Z" fill="#C1811B"/>
<path d="M20.4101 36.3712H19.5464V37.2349H20.4101V36.3712Z" fill="black"/>
<path d="M20.4101 32.0686H19.5464V32.9324H20.4101V32.0686Z" fill="black"/>
<path d="M20.4101 31.2136H19.5464V32.0699H20.4101V31.2136Z" fill="#2F384C"/>
<path d="M20.4101 30.3486H19.5464V31.2124H20.4101V30.3486Z" fill="black"/>
<path d="M20.4101 29.4861H19.5464V30.3499H20.4101V29.4861Z" fill="#DBAB65"/>
<path d="M20.4101 28.6311H19.5464V29.4874H20.4101V28.6311Z" fill="#C1811B"/>
<path d="M20.4101 27.7661H19.5464V28.6299H20.4101V27.7661Z" fill="black"/>
<path d="M20.4101 26.9111H19.5464V27.7674H20.4101V26.9111Z" fill="black"/>
<path d="M20.4101 26.0461H19.5464V26.9099H20.4101V26.0461Z" fill="black"/>
<path d="M20.4101 25.1924H19.5464V26.0486H20.4101V25.1924Z" fill="black"/>
<path d="M20.4101 24.3286H19.5464V25.1924H20.4101V24.3286Z" fill="black"/>
<path d="M20.4101 23.4724H19.5464V24.3287H20.4101V23.4724Z" fill="black"/>
<path d="M20.4101 22.6086H19.5464V23.4724H20.4101V22.6086Z" fill="#C1811B"/>
<path d="M20.4101 21.7437H19.5464V22.6074H20.4101V21.7437Z" fill="black"/>
<path d="M20.4101 20.8886H19.5464V21.7449H20.4101V20.8886Z" fill="#404E89"/>
<path d="M20.4101 20.0261H19.5464V20.8899H20.4101V20.0261Z" fill="#404E89"/>
<path d="M20.4101 19.1699H19.5464V20.0261H20.4101V19.1699Z" fill="#626CA0"/>
<path d="M20.4101 18.3062H19.5464V19.1699H20.4101V18.3062Z" fill="#5364AD"/>
<path d="M20.4101 17.4499H19.5464V18.3061H20.4101V17.4499Z" fill="#5364AD"/>
<path d="M20.4101 16.5861H19.5464V17.4499H20.4101V16.5861Z" fill="#626CA0"/>
<path d="M20.4101 15.7224H19.5464V16.5862H20.4101V15.7224Z" fill="black"/>
<path d="M19.5462 38.0911H18.6899V38.9549H19.5462V38.0911Z" fill="black"/>
<path d="M19.5462 37.2361H18.6899V38.0924H19.5462V37.2361Z" fill="black"/>
<path d="M19.5462 32.0686H18.6899V32.9324H19.5462V32.0686Z" fill="black"/>
<path d="M19.5462 31.2136H18.6899V32.0699H19.5462V31.2136Z" fill="#2F384C"/>
<path d="M19.5462 30.3486H18.6899V31.2124H19.5462V30.3486Z" fill="black"/>
<path d="M19.5462 29.4861H18.6899V30.3499H19.5462V29.4861Z" fill="#C1811B"/>
<path d="M19.5462 28.6311H18.6899V29.4874H19.5462V28.6311Z" fill="#C1811B"/>
<path d="M19.5462 27.7661H18.6899V28.6299H19.5462V27.7661Z" fill="black"/>
<path d="M19.5462 22.6086H18.6899V23.4724H19.5462V22.6086Z" fill="black"/>
<path d="M19.5462 21.7437H18.6899V22.6074H19.5462V21.7437Z" fill="#C1811B"/>
<path d="M19.5462 20.8886H18.6899V21.7449H19.5462V20.8886Z" fill="black"/>
<path d="M19.5462 20.0261H18.6899V20.8899H19.5462V20.0261Z" fill="#404E89"/>
<path d="M19.5462 19.1699H18.6899V20.0261H19.5462V19.1699Z" fill="#5364AD"/>
<path d="M19.5462 18.3062H18.6899V19.1699H19.5462V18.3062Z" fill="black"/>
<path d="M19.5462 17.4499H18.6899V18.3061H19.5462V17.4499Z" fill="black"/>
<path d="M19.5462 16.5861H18.6899V17.4499H19.5462V16.5861Z" fill="black"/>
<path d="M18.6899 32.0686H17.8262V32.9324H18.6899V32.0686Z" fill="black"/>
<path d="M18.6899 31.2136H17.8262V32.0699H18.6899V31.2136Z" fill="#2F384C"/>
<path d="M18.6899 30.3486H17.8262V31.2124H18.6899V30.3486Z" fill="black"/>
<path d="M18.6899 29.4861H17.8262V30.3499H18.6899V29.4861Z" fill="black"/>
<path d="M18.6899 28.6311H17.8262V29.4874H18.6899V28.6311Z" fill="black"/>
<path d="M18.6899 21.7437H17.8262V22.6074H18.6899V21.7437Z" fill="black"/>
<path d="M18.6899 20.8886H17.8262V21.7449H18.6899V20.8886Z" fill="black"/>
<path d="M18.6899 20.0261H17.8262V20.8899H18.6899V20.0261Z" fill="black"/>
<path d="M18.6899 19.1699H17.8262V20.0261H18.6899V19.1699Z" fill="black"/>
<path d="M17.8274 32.0686H16.9712V32.9324H17.8274V32.0686Z" fill="black"/>
<path d="M17.8274 31.2136H16.9712V32.0699H17.8274V31.2136Z" fill="#2F384C"/>
<path d="M17.8274 30.3486H16.9712V31.2124H17.8274V30.3486Z" fill="black"/>
<path d="M16.9702 32.0686H16.1064V32.9324H16.9702V32.0686Z" fill="black"/>
<path d="M16.9702 31.2136H16.1064V32.0699H16.9702V31.2136Z" fill="#2F384C"/>
<path d="M16.9702 30.3486H16.1064V31.2124H16.9702V30.3486Z" fill="black"/>
<path d="M16.1064 35.5074H15.2427V36.3711H16.1064V35.5074Z" fill="black"/>
<path d="M16.1064 34.6536H15.2427V35.5099H16.1064V34.6536Z" fill="black"/>
<path d="M16.1064 32.0686H15.2427V32.9324H16.1064V32.0686Z" fill="black"/>
<path d="M16.1064 31.2136H15.2427V32.0699H16.1064V31.2136Z" fill="#2D3D54"/>
<path d="M16.1064 30.3486H15.2427V31.2124H16.1064V30.3486Z" fill="black"/>
<path d="M16.1064 27.7661H15.2427V28.6299H16.1064V27.7661Z" fill="black"/>
<path d="M16.1064 26.9111H15.2427V27.7674H16.1064V26.9111Z" fill="black"/>
<path d="M15.2439 36.3712H14.3877V37.2349H15.2439V36.3712Z" fill="black"/>
<path d="M15.2439 35.5074H14.3877V36.3711H15.2439V35.5074Z" fill="#4A5A7F"/>
<path d="M15.2439 34.6536H14.3877V35.5099H15.2439V34.6536Z" fill="#4A5A7F"/>
<path d="M15.2439 33.7886H14.3877V34.6524H15.2439V33.7886Z" fill="black"/>
<path d="M15.2439 32.9337H14.3877V33.7899H15.2439V32.9337Z" fill="black"/>
<path d="M15.2439 32.0686H14.3877V32.9324H15.2439V32.0686Z" fill="#1C2C3F"/>
<path d="M15.2439 31.2136H14.3877V32.0699H15.2439V31.2136Z" fill="#1C2C3F"/>
<path d="M15.2439 30.3486H14.3877V31.2124H15.2439V30.3486Z" fill="#1C2C3F"/>
<path d="M15.2439 29.4861H14.3877V30.3499H15.2439V29.4861Z" fill="black"/>
<path d="M15.2439 28.6311H14.3877V29.4874H15.2439V28.6311Z" fill="black"/>
<path d="M15.2439 27.7661H14.3877V28.6299H15.2439V27.7661Z" fill="#54679B"/>
<path d="M15.2439 26.9111H14.3877V27.7674H15.2439V26.9111Z" fill="#4A5A7F"/>
<path d="M15.2439 26.0461H14.3877V26.9099H15.2439V26.0461Z" fill="black"/>
<path d="M14.3877 37.2361H13.5239V38.0924H14.3877V37.2361Z" fill="black"/>
<path d="M14.3877 36.3712H13.5239V37.2349H14.3877V36.3712Z" fill="#54679B"/>
<path d="M14.3877 35.5074H13.5239V36.3711H14.3877V35.5074Z" fill="#54679B"/>
<path d="M14.3877 34.6536H13.5239V35.5099H14.3877V34.6536Z" fill="#4A5A7F"/>
<path d="M14.3877 33.7886H13.5239V34.6524H14.3877V33.7886Z" fill="#4A5A7F"/>
<path d="M14.3877 32.9337H13.5239V33.7899H14.3877V32.9337Z" fill="black"/>
<path d="M14.3877 32.0686H13.5239V32.9324H14.3877V32.0686Z" fill="#2D3D54"/>
<path d="M14.3877 31.2136H13.5239V32.0699H14.3877V31.2136Z" fill="#1C2C3F"/>
<path d="M14.3877 30.3486H13.5239V31.2124H14.3877V30.3486Z" fill="#1C2C3F"/>
<path d="M14.3877 29.4861H13.5239V30.3499H14.3877V29.4861Z" fill="black"/>
<path d="M14.3877 28.6311H13.5239V29.4874H14.3877V28.6311Z" fill="#54679B"/>
<path d="M14.3877 27.7661H13.5239V28.6299H14.3877V27.7661Z" fill="#54679B"/>
<path d="M14.3877 26.9111H13.5239V27.7674H14.3877V26.9111Z" fill="#4A5A7F"/>
<path d="M14.3877 26.0461H13.5239V26.9099H14.3877V26.0461Z" fill="#4A5A7F"/>
<path d="M14.3877 25.1924H13.5239V26.0486H14.3877V25.1924Z" fill="black"/>
<path d="M13.5252 37.2361H12.6689V38.0924H13.5252V37.2361Z" fill="black"/>
<path d="M13.5252 36.3712H12.6689V37.2349H13.5252V36.3712Z" fill="#54679B"/>
<path d="M13.5252 35.5074H12.6689V36.3711H13.5252V35.5074Z" fill="#54679B"/>
<path d="M13.5252 34.6536H12.6689V35.5099H13.5252V34.6536Z" fill="#54679B"/>
<path d="M13.5252 33.7886H12.6689V34.6524H13.5252V33.7886Z" fill="#4A5A7F"/>
<path d="M13.5252 32.9337H12.6689V33.7899H13.5252V32.9337Z" fill="black"/>
<path d="M13.5252 32.0686H12.6689V32.9324H13.5252V32.0686Z" fill="#2D3D54"/>
<path d="M13.5252 31.2136H12.6689V32.0699H13.5252V31.2136Z" fill="#2D3D54"/>
<path d="M13.5252 30.3486H12.6689V31.2124H13.5252V30.3486Z" fill="#1C2C3F"/>
<path d="M13.5252 29.4861H12.6689V30.3499H13.5252V29.4861Z" fill="black"/>
<path d="M13.5252 28.6311H12.6689V29.4874H13.5252V28.6311Z" fill="#54679B"/>
<path d="M13.5252 27.7661H12.6689V28.6299H13.5252V27.7661Z" fill="#54679B"/>
<path d="M13.5252 26.9111H12.6689V27.7674H13.5252V26.9111Z" fill="#54679B"/>
<path d="M13.5252 26.0461H12.6689V26.9099H13.5252V26.0461Z" fill="#4A5A7F"/>
<path d="M13.5252 25.1924H12.6689V26.0486H13.5252V25.1924Z" fill="black"/>
<path d="M12.6675 37.2361H11.8037V38.0924H12.6675V37.2361Z" fill="black"/>
<path d="M12.6675 36.3712H11.8037V37.2349H12.6675V36.3712Z" fill="#4A5A7F"/>
<path d="M12.6675 35.5074H11.8037V36.3711H12.6675V35.5074Z" fill="#54679B"/>
<path d="M12.6675 34.6536H11.8037V35.5099H12.6675V34.6536Z" fill="black"/>
<path d="M12.6675 33.7886H11.8037V34.6524H12.6675V33.7886Z" fill="black"/>
<path d="M12.6675 32.9337H11.8037V33.7899H12.6675V32.9337Z" fill="black"/>
<path d="M12.6675 32.0686H11.8037V32.9324H12.6675V32.0686Z" fill="#2D3D54"/>
<path d="M12.6675 31.2136H11.8037V32.0699H12.6675V31.2136Z" fill="#2D3D54"/>
<path d="M12.6675 30.3486H11.8037V31.2124H12.6675V30.3486Z" fill="#1C2C3F"/>
<path d="M12.6675 29.4861H11.8037V30.3499H12.6675V29.4861Z" fill="black"/>
<path d="M12.6675 28.6311H11.8037V29.4874H12.6675V28.6311Z" fill="black"/>
<path d="M12.6675 27.7661H11.8037V28.6299H12.6675V27.7661Z" fill="black"/>
<path d="M12.6675 26.9111H11.8037V27.7674H12.6675V26.9111Z" fill="#54679B"/>
<path d="M12.6675 26.0461H11.8037V26.9099H12.6675V26.0461Z" fill="#4A5A7F"/>
<path d="M12.6675 25.1924H11.8037V26.0486H12.6675V25.1924Z" fill="black"/>
<path d="M11.805 37.2361H10.9487V38.0924H11.805V37.2361Z" fill="black"/>
<path d="M11.805 36.3712H10.9487V37.2349H11.805V36.3712Z" fill="#4A5A7F"/>
<path d="M11.805 35.5074H10.9487V36.3711H11.805V35.5074Z" fill="black"/>
<path d="M11.805 32.0686H10.9487V32.9324H11.805V32.0686Z" fill="black"/>
<path d="M11.805 31.2136H10.9487V32.0699H11.805V31.2136Z" fill="#1C2C3F"/>
<path d="M11.805 30.3486H10.9487V31.2124H11.805V30.3486Z" fill="black"/>
<path d="M11.805 26.9111H10.9487V27.7674H11.805V26.9111Z" fill="black"/>
<path d="M11.805 26.0461H10.9487V26.9099H11.805V26.0461Z" fill="#4A5A7F"/>
<path d="M11.805 25.1924H10.9487V26.0486H11.805V25.1924Z" fill="black"/>
<path d="M10.9487 37.2361H10.085V38.0924H10.9487V37.2361Z" fill="black"/>
<path d="M10.9487 36.3712H10.085V37.2349H10.9487V36.3712Z" fill="black"/>
<path d="M10.9487 32.9337H10.085V33.7899H10.9487V32.9337Z" fill="black"/>
<path d="M10.9487 32.0686H10.085V32.9324H10.9487V32.0686Z" fill="#2D3D54"/>
<path d="M10.9487 31.2136H10.085V32.0699H10.9487V31.2136Z" fill="#2D3D54"/>
<path d="M10.9487 30.3486H10.085V31.2124H10.9487V30.3486Z" fill="#1C2C3F"/>
<path d="M10.9487 29.4861H10.085V30.3499H10.9487V29.4861Z" fill="black"/>
<path d="M10.9487 26.0461H10.085V26.9099H10.9487V26.0461Z" fill="black"/>
<path d="M10.9487 25.1924H10.085V26.0486H10.9487V25.1924Z" fill="black"/>
<path d="M10.0862 32.0686H9.22998V32.9324H10.0862V32.0686Z" fill="black"/>
<path d="M10.0862 31.2136H9.22998V32.0699H10.0862V31.2136Z" fill="#2D3D54"/>
<path d="M10.0862 30.3486H9.22998V31.2124H10.0862V30.3486Z" fill="black"/>
<path d="M9.22996 31.2136H8.36621V32.0699H9.22996V31.2136Z" fill="black"/>
</g>
<defs>
<clipPath id="clip0_69_12152">
<rect width="50" height="50" fill="white" transform="translate(0 0.942383)"/>
</clipPath>
</defs>
</svg>
