<svg width="50" height="51" viewBox="0 0 50 51" fill="none" xmlns="http://www.w3.org/2000/svg">
<g clip-path="url(#clip0_69_12161)">
<path d="M25.0001 49.1649C37.8255 49.1649 48.2226 38.7678 48.2226 25.9424C48.2226 13.117 37.8255 2.71991 25.0001 2.71991C12.1747 2.71991 1.77759 13.117 1.77759 25.9424C1.77759 38.7678 12.1747 49.1649 25.0001 49.1649Z" fill="black"/>
<path d="M25.0001 50.0399C11.7126 50.0399 0.902588 39.2299 0.902588 25.9424C0.902588 12.6549 11.7126 1.84491 25.0001 1.84491C38.2876 1.84491 49.0976 12.6549 49.0976 25.9424C49.0976 39.2299 38.2876 50.0399 25.0001 50.0399ZM25.0001 3.59491C12.6776 3.59491 2.65259 13.6199 2.65259 25.9424C2.65259 38.2649 12.6776 48.2899 25.0001 48.2899C37.3226 48.2899 47.3476 38.2649 47.3476 25.9424C47.3476 13.6199 37.3226 3.59491 25.0001 3.59491Z" fill="#D35353"/>
<path d="M39.5027 32.5074H38.679V33.3236H39.5027V32.5074Z" fill="black"/>
<path d="M39.5027 31.6836H38.679V32.5073H39.5027V31.6836Z" fill="black"/>
<path d="M39.5027 30.8674H38.679V31.6836H39.5027V30.8674Z" fill="black"/>
<path d="M38.6788 32.5074H37.8625V33.3236H38.6788V32.5074Z" fill="black"/>
<path d="M38.6788 31.6836H37.8625V32.5073H38.6788V31.6836Z" fill="#BC9311"/>
<path d="M38.6788 30.8674H37.8625V31.6836H38.6788V30.8674Z" fill="#BC9311"/>
<path d="M38.6788 30.0436H37.8625V30.8673H38.6788V30.0436Z" fill="black"/>
<path d="M37.8614 32.5074H37.0376V33.3236H37.8614V32.5074Z" fill="black"/>
<path d="M37.8614 31.6836H37.0376V32.5073H37.8614V31.6836Z" fill="#BC9311"/>
<path d="M37.8614 30.8674H37.0376V31.6836H37.8614V30.8674Z" fill="#FFCE17"/>
<path d="M37.8614 30.0436H37.0376V30.8673H37.8614V30.0436Z" fill="#BC9311"/>
<path d="M37.8614 29.2198H37.0376V30.0436H37.8614V29.2198Z" fill="black"/>
<path d="M37.0377 32.5074H36.2214V33.3236H37.0377V32.5074Z" fill="black"/>
<path d="M37.0377 31.6836H36.2214V32.5073H37.0377V31.6836Z" fill="#FFCE17"/>
<path d="M37.0377 30.8674H36.2214V31.6836H37.0377V30.8674Z" fill="#D8B8B8"/>
<path d="M37.0377 30.0436H36.2214V30.8673H37.0377V30.0436Z" fill="#D8B8B8"/>
<path d="M37.0377 29.2198H36.2214V30.0436H37.0377V29.2198Z" fill="#BA9595"/>
<path d="M37.0377 28.4036H36.2214V29.2199H37.0377V28.4036Z" fill="black"/>
<path d="M37.0377 27.5786H36.2214V28.4024H37.0377V27.5786Z" fill="black"/>
<path d="M36.2215 36.6124H35.3977V37.4286H36.2215V36.6124Z" fill="black"/>
<path d="M36.2215 35.7886H35.3977V36.6123H36.2215V35.7886Z" fill="black"/>
<path d="M36.2215 34.9648H35.3977V35.7886H36.2215V34.9648Z" fill="black"/>
<path d="M36.2215 34.1473H35.3977V34.9636H36.2215V34.1473Z" fill="black"/>
<path d="M36.2215 33.3248H35.3977V34.1486H36.2215V33.3248Z" fill="black"/>
<path d="M36.2215 32.5074H35.3977V33.3236H36.2215V32.5074Z" fill="black"/>
<path d="M36.2215 31.6836H35.3977V32.5073H36.2215V31.6836Z" fill="#FFCE17"/>
<path d="M36.2215 30.8674H35.3977V31.6836H36.2215V30.8674Z" fill="#D8B8B8"/>
<path d="M36.2215 30.0436H35.3977V30.8673H36.2215V30.0436Z" fill="#D8B8B8"/>
<path d="M36.2215 29.2198H35.3977V30.0436H36.2215V29.2198Z" fill="#D8B8B8"/>
<path d="M36.2215 28.4036H35.3977V29.2199H36.2215V28.4036Z" fill="#D8B8B8"/>
<path d="M36.2215 27.5786H35.3977V28.4024H36.2215V27.5786Z" fill="#D8B8B8"/>
<path d="M36.2215 26.7623H35.3977V27.5786H36.2215V26.7623Z" fill="black"/>
<path d="M36.2215 25.9386H35.3977V26.7623H36.2215V25.9386Z" fill="black"/>
<path d="M35.3977 36.6124H34.574V37.4286H35.3977V36.6124Z" fill="black"/>
<path d="M35.3977 35.7886H34.574V36.6123H35.3977V35.7886Z" fill="#BC9311"/>
<path d="M35.3977 34.9648H34.574V35.7886H35.3977V34.9648Z" fill="#BC9311"/>
<path d="M35.3977 34.1473H34.574V34.9636H35.3977V34.1473Z" fill="#BC9311"/>
<path d="M35.3977 33.3248H34.574V34.1486H35.3977V33.3248Z" fill="#FFCE17"/>
<path d="M35.3977 32.5074H34.574V33.3236H35.3977V32.5074Z" fill="#FFCE17"/>
<path d="M35.3977 31.6836H34.574V32.5073H35.3977V31.6836Z" fill="#D8B8B8"/>
<path d="M35.3977 30.8674H34.574V31.6836H35.3977V30.8674Z" fill="#D8B8B8"/>
<path d="M35.3977 30.0436H34.574V30.8673H35.3977V30.0436Z" fill="#D8B8B8"/>
<path d="M35.3977 29.2198H34.574V30.0436H35.3977V29.2198Z" fill="#D8B8B8"/>
<path d="M35.3977 28.4036H34.574V29.2199H35.3977V28.4036Z" fill="#D8B8B8"/>
<path d="M35.3977 27.5786H34.574V28.4024H35.3977V27.5786Z" fill="#D8B8B8"/>
<path d="M35.3977 26.7623H34.574V27.5786H35.3977V26.7623Z" fill="#D8B8B8"/>
<path d="M35.3977 25.9386H34.574V26.7623H35.3977V25.9386Z" fill="#D8B8B8"/>
<path d="M35.3977 25.1224H34.574V25.9386H35.3977V25.1224Z" fill="black"/>
<path d="M35.3977 24.2986H34.574V25.1223H35.3977V24.2986Z" fill="black"/>
<path d="M35.3977 21.8336H34.574V22.6574H35.3977V21.8336Z" fill="black"/>
<path d="M35.3977 21.0173H34.574V21.8336H35.3977V21.0173Z" fill="black"/>
<path d="M35.3977 20.1936H34.574V21.0174H35.3977V20.1936Z" fill="black"/>
<path d="M34.5726 37.4286H33.7563V38.2523H34.5726V37.4286Z" fill="black"/>
<path d="M34.5726 36.6124H33.7563V37.4286H34.5726V36.6124Z" fill="#A05252"/>
<path d="M34.5726 35.7886H33.7563V36.6123H34.5726V35.7886Z" fill="black"/>
<path d="M34.5726 34.9648H33.7563V35.7886H34.5726V34.9648Z" fill="#BC9311"/>
<path d="M34.5726 34.1473H33.7563V34.9636H34.5726V34.1473Z" fill="#FFCE17"/>
<path d="M34.5726 33.3248H33.7563V34.1486H34.5726V33.3248Z" fill="#D8B8B8"/>
<path d="M34.5726 32.5074H33.7563V33.3236H34.5726V32.5074Z" fill="#D8B8B8"/>
<path d="M34.5726 31.6836H33.7563V32.5073H34.5726V31.6836Z" fill="#D8B8B8"/>
<path d="M34.5726 30.8674H33.7563V31.6836H34.5726V30.8674Z" fill="#D8B8B8"/>
<path d="M34.5726 30.0436H33.7563V30.8673H34.5726V30.0436Z" fill="#D8B8B8"/>
<path d="M34.5726 29.2198H33.7563V30.0436H34.5726V29.2198Z" fill="#D8B8B8"/>
<path d="M34.5726 28.4036H33.7563V29.2199H34.5726V28.4036Z" fill="#D8B8B8"/>
<path d="M34.5726 27.5786H33.7563V28.4024H34.5726V27.5786Z" fill="#D8B8B8"/>
<path d="M34.5726 26.7623H33.7563V27.5786H34.5726V26.7623Z" fill="#D8B8B8"/>
<path d="M34.5726 25.9386H33.7563V26.7623H34.5726V25.9386Z" fill="#D8B8B8"/>
<path d="M34.5726 25.1224H33.7563V25.9386H34.5726V25.1224Z" fill="#D8B8B8"/>
<path d="M34.5726 24.2986H33.7563V25.1223H34.5726V24.2986Z" fill="#D8B8B8"/>
<path d="M34.5726 23.4824H33.7563V24.2986H34.5726V23.4824Z" fill="black"/>
<path d="M34.5726 22.6573H33.7563V23.4811H34.5726V22.6573Z" fill="black"/>
<path d="M34.5726 21.8336H33.7563V22.6574H34.5726V21.8336Z" fill="black"/>
<path d="M34.5726 21.0173H33.7563V21.8336H34.5726V21.0173Z" fill="#844141"/>
<path d="M34.5726 20.1936H33.7563V21.0174H34.5726V20.1936Z" fill="#A05252"/>
<path d="M34.5726 19.3774H33.7563V20.1936H34.5726V19.3774Z" fill="black"/>
<path d="M34.5726 18.5536H33.7563V19.3773H34.5726V18.5536Z" fill="black"/>
<path d="M33.7576 37.4286H32.9338V38.2523H33.7576V37.4286Z" fill="black"/>
<path d="M33.7576 36.6124H32.9338V37.4286H33.7576V36.6124Z" fill="#A05252"/>
<path d="M33.7576 35.7886H32.9338V36.6123H33.7576V35.7886Z" fill="#A05252"/>
<path d="M33.7576 34.9648H32.9338V35.7886H33.7576V34.9648Z" fill="black"/>
<path d="M33.7576 34.1473H32.9338V34.9636H33.7576V34.1473Z" fill="#FFCE17"/>
<path d="M33.7576 33.3248H32.9338V34.1486H33.7576V33.3248Z" fill="#D8B8B8"/>
<path d="M33.7576 32.5074H32.9338V33.3236H33.7576V32.5074Z" fill="#D8B8B8"/>
<path d="M33.7576 31.6836H32.9338V32.5073H33.7576V31.6836Z" fill="#D8B8B8"/>
<path d="M33.7576 30.8674H32.9338V31.6836H33.7576V30.8674Z" fill="#D8B8B8"/>
<path d="M33.7576 30.0436H32.9338V30.8673H33.7576V30.0436Z" fill="#D8B8B8"/>
<path d="M33.7576 29.2198H32.9338V30.0436H33.7576V29.2198Z" fill="#D8B8B8"/>
<path d="M33.7576 28.4036H32.9338V29.2199H33.7576V28.4036Z" fill="#D8B8B8"/>
<path d="M33.7576 27.5786H32.9338V28.4024H33.7576V27.5786Z" fill="#D8B8B8"/>
<path d="M33.7576 26.7623H32.9338V27.5786H33.7576V26.7623Z" fill="#D8B8B8"/>
<path d="M33.7576 25.9386H32.9338V26.7623H33.7576V25.9386Z" fill="#D8B8B8"/>
<path d="M33.7576 25.1224H32.9338V25.9386H33.7576V25.1224Z" fill="#D8B8B8"/>
<path d="M33.7576 24.2986H32.9338V25.1223H33.7576V24.2986Z" fill="#D8B8B8"/>
<path d="M33.7576 23.4824H32.9338V24.2986H33.7576V23.4824Z" fill="#D8B8B8"/>
<path d="M33.7576 22.6573H32.9338V23.4811H33.7576V22.6573Z" fill="#BA9595"/>
<path d="M33.7576 21.8336H32.9338V22.6574H33.7576V21.8336Z" fill="#844141"/>
<path d="M33.7576 21.0173H32.9338V21.8336H33.7576V21.0173Z" fill="#844141"/>
<path d="M33.7576 20.1936H32.9338V21.0174H33.7576V20.1936Z" fill="#A05252"/>
<path d="M33.7576 19.3774H32.9338V20.1936H33.7576V19.3774Z" fill="#A05252"/>
<path d="M33.7576 18.5536H32.9338V19.3773H33.7576V18.5536Z" fill="#A05252"/>
<path d="M33.7576 17.7374H32.9338V18.5536H33.7576V17.7374Z" fill="black"/>
<path d="M32.9339 38.2524H32.1177V39.0686H32.9339V38.2524Z" fill="black"/>
<path d="M32.9339 37.4286H32.1177V38.2523H32.9339V37.4286Z" fill="#A05252"/>
<path d="M32.9339 36.6124H32.1177V37.4286H32.9339V36.6124Z" fill="#A05252"/>
<path d="M32.9339 35.7886H32.1177V36.6123H32.9339V35.7886Z" fill="#A05252"/>
<path d="M32.9339 34.9648H32.1177V35.7886H32.9339V34.9648Z" fill="#A05252"/>
<path d="M32.9339 34.1473H32.1177V34.9636H32.9339V34.1473Z" fill="black"/>
<path d="M32.9339 33.3248H32.1177V34.1486H32.9339V33.3248Z" fill="black"/>
<path d="M32.9339 32.5074H32.1177V33.3236H32.9339V32.5074Z" fill="#D8B8B8"/>
<path d="M32.9339 31.6836H32.1177V32.5073H32.9339V31.6836Z" fill="#D8B8B8"/>
<path d="M32.9339 30.8674H32.1177V31.6836H32.9339V30.8674Z" fill="#D8B8B8"/>
<path d="M32.9339 30.0436H32.1177V30.8673H32.9339V30.0436Z" fill="#D8B8B8"/>
<path d="M32.9339 29.2198H32.1177V30.0436H32.9339V29.2198Z" fill="#D8B8B8"/>
<path d="M32.9339 28.4036H32.1177V29.2199H32.9339V28.4036Z" fill="#D8B8B8"/>
<path d="M32.9339 27.5786H32.1177V28.4024H32.9339V27.5786Z" fill="#D8B8B8"/>
<path d="M32.9339 26.7623H32.1177V27.5786H32.9339V26.7623Z" fill="#D8B8B8"/>
<path d="M32.9339 25.9386H32.1177V26.7623H32.9339V25.9386Z" fill="#D8B8B8"/>
<path d="M32.9339 25.1224H32.1177V25.9386H32.9339V25.1224Z" fill="#D8B8B8"/>
<path d="M32.9339 24.2986H32.1177V25.1223H32.9339V24.2986Z" fill="#D8B8B8"/>
<path d="M32.9339 23.4824H32.1177V24.2986H32.9339V23.4824Z" fill="#BA9595"/>
<path d="M32.9339 22.6573H32.1177V23.4811H32.9339V22.6573Z" fill="#BA9595"/>
<path d="M32.9339 21.8336H32.1177V22.6574H32.9339V21.8336Z" fill="#844141"/>
<path d="M32.9339 21.0173H32.1177V21.8336H32.9339V21.0173Z" fill="#A05252"/>
<path d="M32.9339 20.1936H32.1177V21.0174H32.9339V20.1936Z" fill="#A05252"/>
<path d="M32.9339 19.3774H32.1177V20.1936H32.9339V19.3774Z" fill="#A05252"/>
<path d="M32.9339 18.5536H32.1177V19.3773H32.9339V18.5536Z" fill="#A05252"/>
<path d="M32.9339 17.7374H32.1177V18.5536H32.9339V17.7374Z" fill="#BA9595"/>
<path d="M32.9339 16.9124H32.1177V17.7361H32.9339V16.9124Z" fill="black"/>
<path d="M32.1165 40.7098H31.2927V41.5336H32.1165V40.7098Z" fill="black"/>
<path d="M32.1165 39.8923H31.2927V40.7086H32.1165V39.8923Z" fill="black"/>
<path d="M32.1165 38.2524H31.2927V39.0686H32.1165V38.2524Z" fill="black"/>
<path d="M32.1165 37.4286H31.2927V38.2523H32.1165V37.4286Z" fill="#A05252"/>
<path d="M32.1165 36.6124H31.2927V37.4286H32.1165V36.6124Z" fill="#A05252"/>
<path d="M32.1165 35.7886H31.2927V36.6123H32.1165V35.7886Z" fill="black"/>
<path d="M32.1165 34.9648H31.2927V35.7886H32.1165V34.9648Z" fill="black"/>
<path d="M32.1165 34.1473H31.2927V34.9636H32.1165V34.1473Z" fill="#FFCE17"/>
<path d="M32.1165 33.3248H31.2927V34.1486H32.1165V33.3248Z" fill="#FFCE17"/>
<path d="M32.1165 32.5074H31.2927V33.3236H32.1165V32.5074Z" fill="#D8B8B8"/>
<path d="M32.1165 31.6836H31.2927V32.5073H32.1165V31.6836Z" fill="#D8B8B8"/>
<path d="M32.1165 30.8674H31.2927V31.6836H32.1165V30.8674Z" fill="#D8B8B8"/>
<path d="M32.1165 30.0436H31.2927V30.8673H32.1165V30.0436Z" fill="#D8B8B8"/>
<path d="M32.1165 29.2198H31.2927V30.0436H32.1165V29.2198Z" fill="#D8B8B8"/>
<path d="M32.1165 28.4036H31.2927V29.2199H32.1165V28.4036Z" fill="#D8B8B8"/>
<path d="M32.1165 27.5786H31.2927V28.4024H32.1165V27.5786Z" fill="#D8B8B8"/>
<path d="M32.1165 26.7623H31.2927V27.5786H32.1165V26.7623Z" fill="#D8B8B8"/>
<path d="M32.1165 25.9386H31.2927V26.7623H32.1165V25.9386Z" fill="#D8B8B8"/>
<path d="M32.1165 25.1224H31.2927V25.9386H32.1165V25.1224Z" fill="#D8B8B8"/>
<path d="M32.1165 24.2986H31.2927V25.1223H32.1165V24.2986Z" fill="#D8B8B8"/>
<path d="M32.1165 23.4824H31.2927V24.2986H32.1165V23.4824Z" fill="#BA9595"/>
<path d="M32.1165 22.6573H31.2927V23.4811H32.1165V22.6573Z" fill="#844141"/>
<path d="M32.1165 21.8336H31.2927V22.6574H32.1165V21.8336Z" fill="#844141"/>
<path d="M32.1165 21.0173H31.2927V21.8336H32.1165V21.0173Z" fill="#A05252"/>
<path d="M32.1165 20.1936H31.2927V21.0174H32.1165V20.1936Z" fill="#A05252"/>
<path d="M32.1165 19.3774H31.2927V20.1936H32.1165V19.3774Z" fill="#A05252"/>
<path d="M32.1165 18.5536H31.2927V19.3773H32.1165V18.5536Z" fill="#BA9595"/>
<path d="M32.1165 17.7374H31.2927V18.5536H32.1165V17.7374Z" fill="#BA9595"/>
<path d="M32.1165 16.9124H31.2927V17.7361H32.1165V16.9124Z" fill="black"/>
<path d="M31.2926 40.7098H30.4763V41.5336H31.2926V40.7098Z" fill="black"/>
<path d="M31.2926 39.8923H30.4763V40.7086H31.2926V39.8923Z" fill="#7F4E4E"/>
<path d="M31.2926 39.0698H30.4763V39.8936H31.2926V39.0698Z" fill="black"/>
<path d="M31.2926 38.2524H30.4763V39.0686H31.2926V38.2524Z" fill="black"/>
<path d="M31.2926 37.4286H30.4763V38.2523H31.2926V37.4286Z" fill="#A05252"/>
<path d="M31.2926 36.6124H30.4763V37.4286H31.2926V36.6124Z" fill="black"/>
<path d="M31.2926 35.7886H30.4763V36.6123H31.2926V35.7886Z" fill="#BC9311"/>
<path d="M31.2926 34.9648H30.4763V35.7886H31.2926V34.9648Z" fill="#BC9311"/>
<path d="M31.2926 34.1473H30.4763V34.9636H31.2926V34.1473Z" fill="#FFCE17"/>
<path d="M31.2926 33.3248H30.4763V34.1486H31.2926V33.3248Z" fill="#D8B8B8"/>
<path d="M31.2926 32.5074H30.4763V33.3236H31.2926V32.5074Z" fill="#D8B8B8"/>
<path d="M31.2926 31.6836H30.4763V32.5073H31.2926V31.6836Z" fill="#D8B8B8"/>
<path d="M31.2926 30.8674H30.4763V31.6836H31.2926V30.8674Z" fill="#D8B8B8"/>
<path d="M31.2926 30.0436H30.4763V30.8673H31.2926V30.0436Z" fill="#D8B8B8"/>
<path d="M31.2926 29.2198H30.4763V30.0436H31.2926V29.2198Z" fill="#D8B8B8"/>
<path d="M31.2926 28.4036H30.4763V29.2199H31.2926V28.4036Z" fill="#D8B8B8"/>
<path d="M31.2926 27.5786H30.4763V28.4024H31.2926V27.5786Z" fill="#D8B8B8"/>
<path d="M31.2926 26.7623H30.4763V27.5786H31.2926V26.7623Z" fill="#D8B8B8"/>
<path d="M31.2926 25.9386H30.4763V26.7623H31.2926V25.9386Z" fill="#D8B8B8"/>
<path d="M31.2926 25.1224H30.4763V25.9386H31.2926V25.1224Z" fill="#D8B8B8"/>
<path d="M31.2926 24.2986H30.4763V25.1223H31.2926V24.2986Z" fill="#D8B8B8"/>
<path d="M31.2926 23.4824H30.4763V24.2986H31.2926V23.4824Z" fill="#BA9595"/>
<path d="M31.2926 22.6573H30.4763V23.4811H31.2926V22.6573Z" fill="#844141"/>
<path d="M31.2926 21.8336H30.4763V22.6574H31.2926V21.8336Z" fill="#A05252"/>
<path d="M31.2926 21.0173H30.4763V21.8336H31.2926V21.0173Z" fill="#A05252"/>
<path d="M31.2926 20.1936H30.4763V21.0174H31.2926V20.1936Z" fill="#A05252"/>
<path d="M31.2926 19.3774H30.4763V20.1936H31.2926V19.3774Z" fill="#A05252"/>
<path d="M31.2926 18.5536H30.4763V19.3773H31.2926V18.5536Z" fill="#D8B8B8"/>
<path d="M31.2926 17.7374H30.4763V18.5536H31.2926V17.7374Z" fill="#BA9595"/>
<path d="M31.2926 16.9124H30.4763V17.7361H31.2926V16.9124Z" fill="#BA9595"/>
<path d="M31.2926 16.0886H30.4763V16.9124H31.2926V16.0886Z" fill="black"/>
<path d="M30.4763 40.7098H29.6526V41.5336H30.4763V40.7098Z" fill="black"/>
<path d="M30.4763 39.8923H29.6526V40.7086H30.4763V39.8923Z" fill="#7F4E4E"/>
<path d="M30.4763 39.0698H29.6526V39.8936H30.4763V39.0698Z" fill="#7F4E4E"/>
<path d="M30.4763 38.2524H29.6526V39.0686H30.4763V38.2524Z" fill="black"/>
<path d="M30.4763 37.4286H29.6526V38.2523H30.4763V37.4286Z" fill="#A05252"/>
<path d="M30.4763 36.6124H29.6526V37.4286H30.4763V36.6124Z" fill="black"/>
<path d="M30.4763 35.7886H29.6526V36.6123H30.4763V35.7886Z" fill="black"/>
<path d="M30.4763 34.9648H29.6526V35.7886H30.4763V34.9648Z" fill="black"/>
<path d="M30.4763 34.1473H29.6526V34.9636H30.4763V34.1473Z" fill="black"/>
<path d="M30.4763 33.3248H29.6526V34.1486H30.4763V33.3248Z" fill="black"/>
<path d="M30.4763 32.5074H29.6526V33.3236H30.4763V32.5074Z" fill="#FFCE17"/>
<path d="M30.4763 31.6836H29.6526V32.5073H30.4763V31.6836Z" fill="#BA9595"/>
<path d="M30.4763 30.8674H29.6526V31.6836H30.4763V30.8674Z" fill="#BA9595"/>
<path d="M30.4763 30.0436H29.6526V30.8673H30.4763V30.0436Z" fill="#BA9595"/>
<path d="M30.4763 29.2198H29.6526V30.0436H30.4763V29.2198Z" fill="#BA9595"/>
<path d="M30.4763 28.4036H29.6526V29.2199H30.4763V28.4036Z" fill="#BA9595"/>
<path d="M30.4763 27.5786H29.6526V28.4024H30.4763V27.5786Z" fill="#BA9595"/>
<path d="M30.4763 26.7623H29.6526V27.5786H30.4763V26.7623Z" fill="#D8B8B8"/>
<path d="M30.4763 25.9386H29.6526V26.7623H30.4763V25.9386Z" fill="#D8B8B8"/>
<path d="M30.4763 25.1224H29.6526V25.9386H30.4763V25.1224Z" fill="#D8B8B8"/>
<path d="M30.4763 24.2986H29.6526V25.1223H30.4763V24.2986Z" fill="#BA9595"/>
<path d="M30.4763 23.4824H29.6526V24.2986H30.4763V23.4824Z" fill="#BA9595"/>
<path d="M30.4763 22.6573H29.6526V23.4811H30.4763V22.6573Z" fill="#844141"/>
<path d="M30.4763 21.8336H29.6526V22.6574H30.4763V21.8336Z" fill="#A05252"/>
<path d="M30.4763 21.0173H29.6526V21.8336H30.4763V21.0173Z" fill="#A05252"/>
<path d="M30.4763 20.1936H29.6526V21.0174H30.4763V20.1936Z" fill="#A05252"/>
<path d="M30.4763 19.3774H29.6526V20.1936H30.4763V19.3774Z" fill="#A05252"/>
<path d="M30.4763 18.5536H29.6526V19.3773H30.4763V18.5536Z" fill="#D8B8B8"/>
<path d="M30.4763 17.7374H29.6526V18.5536H30.4763V17.7374Z" fill="#D8B8B8"/>
<path d="M30.4763 16.9124H29.6526V17.7361H30.4763V16.9124Z" fill="#BA9595"/>
<path d="M30.4763 16.0886H29.6526V16.9124H30.4763V16.0886Z" fill="black"/>
<path d="M30.4763 15.2723H29.6526V16.0886H30.4763V15.2723Z" fill="black"/>
<path d="M30.4763 14.4486H29.6526V15.2724H30.4763V14.4486Z" fill="black"/>
<path d="M29.6526 40.7098H28.8289V41.5336H29.6526V40.7098Z" fill="black"/>
<path d="M29.6526 39.8923H28.8289V40.7086H29.6526V39.8923Z" fill="#7F4E4E"/>
<path d="M29.6526 39.0698H28.8289V39.8936H29.6526V39.0698Z" fill="black"/>
<path d="M29.6526 38.2524H28.8289V39.0686H29.6526V38.2524Z" fill="#A05252"/>
<path d="M29.6526 37.4286H28.8289V38.2523H29.6526V37.4286Z" fill="#A05252"/>
<path d="M29.6526 36.6124H28.8289V37.4286H29.6526V36.6124Z" fill="#A05252"/>
<path d="M29.6526 35.7886H28.8289V36.6123H29.6526V35.7886Z" fill="#A05252"/>
<path d="M29.6526 34.9648H28.8289V35.7886H29.6526V34.9648Z" fill="black"/>
<path d="M29.6526 34.1473H28.8289V34.9636H29.6526V34.1473Z" fill="#BC9311"/>
<path d="M29.6526 33.3248H28.8289V34.1486H29.6526V33.3248Z" fill="#BC9311"/>
<path d="M29.6526 32.5074H28.8289V33.3236H29.6526V32.5074Z" fill="#FFCE17"/>
<path d="M29.6526 31.6836H28.8289V32.5073H29.6526V31.6836Z" fill="#FFCE17"/>
<path d="M29.6526 30.8674H28.8289V31.6836H29.6526V30.8674Z" fill="#BA9595"/>
<path d="M29.6526 30.0436H28.8289V30.8673H29.6526V30.0436Z" fill="#BA9595"/>
<path d="M29.6526 29.2198H28.8289V30.0436H29.6526V29.2198Z" fill="#BA9595"/>
<path d="M29.6526 28.4036H28.8289V29.2199H29.6526V28.4036Z" fill="#BA9595"/>
<path d="M29.6526 27.5786H28.8289V28.4024H29.6526V27.5786Z" fill="#BA9595"/>
<path d="M29.6526 26.7623H28.8289V27.5786H29.6526V26.7623Z" fill="#BA9595"/>
<path d="M29.6526 25.9386H28.8289V26.7623H29.6526V25.9386Z" fill="#BA9595"/>
<path d="M29.6526 25.1224H28.8289V25.9386H29.6526V25.1224Z" fill="#BA9595"/>
<path d="M29.6526 24.2986H28.8289V25.1223H29.6526V24.2986Z" fill="#BA9595"/>
<path d="M29.6526 23.4824H28.8289V24.2986H29.6526V23.4824Z" fill="#844141"/>
<path d="M29.6526 22.6573H28.8289V23.4811H29.6526V22.6573Z" fill="#844141"/>
<path d="M29.6526 21.8336H28.8289V22.6574H29.6526V21.8336Z" fill="#A05252"/>
<path d="M29.6526 21.0173H28.8289V21.8336H29.6526V21.0173Z" fill="#A05252"/>
<path d="M29.6526 20.1936H28.8289V21.0174H29.6526V20.1936Z" fill="#A05252"/>
<path d="M29.6526 19.3774H28.8289V20.1936H29.6526V19.3774Z" fill="#D8B8B8"/>
<path d="M29.6526 18.5536H28.8289V19.3773H29.6526V18.5536Z" fill="#D8B8B8"/>
<path d="M29.6526 17.7374H28.8289V18.5536H29.6526V17.7374Z" fill="#D8B8B8"/>
<path d="M29.6526 16.9124H28.8289V17.7361H29.6526V16.9124Z" fill="#BA9595"/>
<path d="M29.6526 16.0886H28.8289V16.9124H29.6526V16.0886Z" fill="#BA9595"/>
<path d="M29.6526 15.2723H28.8289V16.0886H29.6526V15.2723Z" fill="#BA9595"/>
<path d="M29.6526 14.4486H28.8289V15.2724H29.6526V14.4486Z" fill="#BA9595"/>
<path d="M29.6526 13.6324H28.8289V14.4486H29.6526V13.6324Z" fill="black"/>
<path d="M29.6526 12.8074H28.8289V13.6311H29.6526V12.8074Z" fill="black"/>
<path d="M28.8289 40.7098H28.0127V41.5336H28.8289V40.7098Z" fill="black"/>
<path d="M28.8289 39.8923H28.0127V40.7086H28.8289V39.8923Z" fill="#7F4E4E"/>
<path d="M28.8289 39.0698H28.0127V39.8936H28.8289V39.0698Z" fill="black"/>
<path d="M28.8289 38.2524H28.0127V39.0686H28.8289V38.2524Z" fill="#A05252"/>
<path d="M28.8289 37.4286H28.0127V38.2523H28.8289V37.4286Z" fill="#A05252"/>
<path d="M28.8289 36.6124H28.0127V37.4286H28.8289V36.6124Z" fill="#A05252"/>
<path d="M28.8289 35.7886H28.0127V36.6123H28.8289V35.7886Z" fill="#A05252"/>
<path d="M28.8289 34.9648H28.0127V35.7886H28.8289V34.9648Z" fill="black"/>
<path d="M28.8289 34.1473H28.0127V34.9636H28.8289V34.1473Z" fill="black"/>
<path d="M28.8289 33.3248H28.0127V34.1486H28.8289V33.3248Z" fill="black"/>
<path d="M28.8289 32.5074H28.0127V33.3236H28.8289V32.5074Z" fill="black"/>
<path d="M28.8289 31.6836H28.0127V32.5073H28.8289V31.6836Z" fill="black"/>
<path d="M28.8289 30.8674H28.0127V31.6836H28.8289V30.8674Z" fill="black"/>
<path d="M28.8289 30.0436H28.0127V30.8673H28.8289V30.0436Z" fill="black"/>
<path d="M28.8289 29.2198H28.0127V30.0436H28.8289V29.2198Z" fill="black"/>
<path d="M28.8289 28.4036H28.0127V29.2199H28.8289V28.4036Z" fill="black"/>
<path d="M28.8289 27.5786H28.0127V28.4024H28.8289V27.5786Z" fill="black"/>
<path d="M28.8289 26.7623H28.0127V27.5786H28.8289V26.7623Z" fill="#BA9595"/>
<path d="M28.8289 25.9386H28.0127V26.7623H28.8289V25.9386Z" fill="#BA9595"/>
<path d="M28.8289 25.1224H28.0127V25.9386H28.8289V25.1224Z" fill="#BA9595"/>
<path d="M28.8289 24.2986H28.0127V25.1223H28.8289V24.2986Z" fill="#BA9595"/>
<path d="M28.8289 23.4824H28.0127V24.2986H28.8289V23.4824Z" fill="#844141"/>
<path d="M28.8289 22.6573H28.0127V23.4811H28.8289V22.6573Z" fill="#A05252"/>
<path d="M28.8289 21.8336H28.0127V22.6574H28.8289V21.8336Z" fill="#A05252"/>
<path d="M28.8289 21.0173H28.0127V21.8336H28.8289V21.0173Z" fill="#A05252"/>
<path d="M28.8289 20.1936H28.0127V21.0174H28.8289V20.1936Z" fill="#A05252"/>
<path d="M28.8289 19.3774H28.0127V20.1936H28.8289V19.3774Z" fill="#D8B8B8"/>
<path d="M28.8289 18.5536H28.0127V19.3773H28.8289V18.5536Z" fill="#D8B8B8"/>
<path d="M28.8289 17.7374H28.0127V18.5536H28.8289V17.7374Z" fill="#D8B8B8"/>
<path d="M28.8289 16.9124H28.0127V17.7361H28.8289V16.9124Z" fill="#D8B8B8"/>
<path d="M28.8289 16.0886H28.0127V16.9124H28.8289V16.0886Z" fill="#844141"/>
<path d="M28.8289 15.2723H28.0127V16.0886H28.8289V15.2723Z" fill="#844141"/>
<path d="M28.8289 14.4486H28.0127V15.2724H28.8289V14.4486Z" fill="#844141"/>
<path d="M28.8289 13.6324H28.0127V14.4486H28.8289V13.6324Z" fill="#BA9595"/>
<path d="M28.8289 12.8074H28.0127V13.6311H28.8289V12.8074Z" fill="#BA9595"/>
<path d="M28.8289 11.9924H28.0127V12.8086H28.8289V11.9924Z" fill="black"/>
<path d="M28.0112 40.7098H27.1875V41.5336H28.0112V40.7098Z" fill="black"/>
<path d="M28.0112 39.8923H27.1875V40.7086H28.0112V39.8923Z" fill="black"/>
<path d="M28.0112 39.0698H27.1875V39.8936H28.0112V39.0698Z" fill="black"/>
<path d="M28.0112 38.2524H27.1875V39.0686H28.0112V38.2524Z" fill="#A05252"/>
<path d="M28.0112 37.4286H27.1875V38.2523H28.0112V37.4286Z" fill="#A05252"/>
<path d="M28.0112 36.6124H27.1875V37.4286H28.0112V36.6124Z" fill="#A05252"/>
<path d="M28.0112 35.7886H27.1875V36.6123H28.0112V35.7886Z" fill="#BA9595"/>
<path d="M28.0112 34.9648H27.1875V35.7886H28.0112V34.9648Z" fill="#BA9595"/>
<path d="M28.0112 34.1473H27.1875V34.9636H28.0112V34.1473Z" fill="#BA9595"/>
<path d="M28.0112 33.3248H27.1875V34.1486H28.0112V33.3248Z" fill="#BA9595"/>
<path d="M28.0112 32.5074H27.1875V33.3236H28.0112V32.5074Z" fill="#BA9595"/>
<path d="M28.0112 31.6836H27.1875V32.5073H28.0112V31.6836Z" fill="#BA9595"/>
<path d="M28.0112 30.8674H27.1875V31.6836H28.0112V30.8674Z" fill="#BA9595"/>
<path d="M28.0112 30.0436H27.1875V30.8673H28.0112V30.0436Z" fill="#BA9595"/>
<path d="M28.0112 29.2198H27.1875V30.0436H28.0112V29.2198Z" fill="#BA9595"/>
<path d="M28.0112 28.4036H27.1875V29.2199H28.0112V28.4036Z" fill="#BA9595"/>
<path d="M28.0112 27.5786H27.1875V28.4024H28.0112V27.5786Z" fill="#BA9595"/>
<path d="M28.0112 26.7623H27.1875V27.5786H28.0112V26.7623Z" fill="black"/>
<path d="M28.0112 25.9386H27.1875V26.7623H28.0112V25.9386Z" fill="black"/>
<path d="M28.0112 25.1224H27.1875V25.9386H28.0112V25.1224Z" fill="black"/>
<path d="M28.0112 24.2986H27.1875V25.1223H28.0112V24.2986Z" fill="black"/>
<path d="M28.0112 23.4824H27.1875V24.2986H28.0112V23.4824Z" fill="#844141"/>
<path d="M28.0112 22.6573H27.1875V23.4811H28.0112V22.6573Z" fill="#A05252"/>
<path d="M28.0112 21.8336H27.1875V22.6574H28.0112V21.8336Z" fill="#A05252"/>
<path d="M28.0112 21.0173H27.1875V21.8336H28.0112V21.0173Z" fill="#A05252"/>
<path d="M28.0112 20.1936H27.1875V21.0174H28.0112V20.1936Z" fill="#A05252"/>
<path d="M28.0112 19.3774H27.1875V20.1936H28.0112V19.3774Z" fill="#D8B8B8"/>
<path d="M28.0112 18.5536H27.1875V19.3773H28.0112V18.5536Z" fill="#D8B8B8"/>
<path d="M28.0112 17.7374H27.1875V18.5536H28.0112V17.7374Z" fill="#D8B8B8"/>
<path d="M28.0112 16.9124H27.1875V17.7361H28.0112V16.9124Z" fill="#844141"/>
<path d="M28.0112 16.0886H27.1875V16.9124H28.0112V16.0886Z" fill="#A05252"/>
<path d="M28.0112 15.2723H27.1875V16.0886H28.0112V15.2723Z" fill="#A05252"/>
<path d="M28.0112 14.4486H27.1875V15.2724H28.0112V14.4486Z" fill="#A05252"/>
<path d="M28.0112 13.6324H27.1875V14.4486H28.0112V13.6324Z" fill="#844141"/>
<path d="M28.0112 12.8074H27.1875V13.6311H28.0112V12.8074Z" fill="#BA9595"/>
<path d="M28.0112 11.9924H27.1875V12.8086H28.0112V11.9924Z" fill="#BA9595"/>
<path d="M28.0112 11.1674H27.1875V11.9911H28.0112V11.1674Z" fill="black"/>
<path d="M27.1888 39.0698H26.3726V39.8936H27.1888V39.0698Z" fill="black"/>
<path d="M27.1888 38.2524H26.3726V39.0686H27.1888V38.2524Z" fill="#A05252"/>
<path d="M27.1888 37.4286H26.3726V38.2523H27.1888V37.4286Z" fill="#A05252"/>
<path d="M27.1888 36.6124H26.3726V37.4286H27.1888V36.6124Z" fill="#A05252"/>
<path d="M27.1888 35.7886H26.3726V36.6123H27.1888V35.7886Z" fill="#D8B8B8"/>
<path d="M27.1888 34.9648H26.3726V35.7886H27.1888V34.9648Z" fill="#D8B8B8"/>
<path d="M27.1888 34.1473H26.3726V34.9636H27.1888V34.1473Z" fill="#D8B8B8"/>
<path d="M27.1888 33.3248H26.3726V34.1486H27.1888V33.3248Z" fill="#D8B8B8"/>
<path d="M27.1888 32.5074H26.3726V33.3236H27.1888V32.5074Z" fill="#D8B8B8"/>
<path d="M27.1888 31.6836H26.3726V32.5073H27.1888V31.6836Z" fill="#D8B8B8"/>
<path d="M27.1888 30.8674H26.3726V31.6836H27.1888V30.8674Z" fill="#D8B8B8"/>
<path d="M27.1888 30.0436H26.3726V30.8673H27.1888V30.0436Z" fill="#D8B8B8"/>
<path d="M27.1888 29.2198H26.3726V30.0436H27.1888V29.2198Z" fill="#D8B8B8"/>
<path d="M27.1888 28.4036H26.3726V29.2199H27.1888V28.4036Z" fill="#D8B8B8"/>
<path d="M27.1888 27.5786H26.3726V28.4024H27.1888V27.5786Z" fill="#D8B8B8"/>
<path d="M27.1888 26.7623H26.3726V27.5786H27.1888V26.7623Z" fill="#BA9595"/>
<path d="M27.1888 25.9386H26.3726V26.7623H27.1888V25.9386Z" fill="#BA9595"/>
<path d="M27.1888 25.1224H26.3726V25.9386H27.1888V25.1224Z" fill="#BA9595"/>
<path d="M27.1888 24.2986H26.3726V25.1223H27.1888V24.2986Z" fill="#BA9595"/>
<path d="M27.1888 23.4824H26.3726V24.2986H27.1888V23.4824Z" fill="#844141"/>
<path d="M27.1888 22.6573H26.3726V23.4811H27.1888V22.6573Z" fill="#A05252"/>
<path d="M27.1888 21.8336H26.3726V22.6574H27.1888V21.8336Z" fill="#A05252"/>
<path d="M27.1888 21.0173H26.3726V21.8336H27.1888V21.0173Z" fill="#A05252"/>
<path d="M27.1888 20.1936H26.3726V21.0174H27.1888V20.1936Z" fill="#D8B8B8"/>
<path d="M27.1888 19.3774H26.3726V20.1936H27.1888V19.3774Z" fill="#D8B8B8"/>
<path d="M27.1888 18.5536H26.3726V19.3773H27.1888V18.5536Z" fill="#D8B8B8"/>
<path d="M27.1888 17.7374H26.3726V18.5536H27.1888V17.7374Z" fill="#844141"/>
<path d="M27.1888 16.9124H26.3726V17.7361H27.1888V16.9124Z" fill="#A05252"/>
<path d="M27.1888 16.0886H26.3726V16.9124H27.1888V16.0886Z" fill="#E5B798"/>
<path d="M27.1888 15.2723H26.3726V16.0886H27.1888V15.2723Z" fill="#603C28"/>
<path d="M27.1888 14.4486H26.3726V15.2724H27.1888V14.4486Z" fill="#603C28"/>
<path d="M27.1888 13.6324H26.3726V14.4486H27.1888V13.6324Z" fill="#A05252"/>
<path d="M27.1888 12.8074H26.3726V13.6311H27.1888V12.8074Z" fill="#844141"/>
<path d="M27.1888 11.9924H26.3726V12.8086H27.1888V11.9924Z" fill="#BA9595"/>
<path d="M27.1888 11.1674H26.3726V11.9911H27.1888V11.1674Z" fill="#BA9595"/>
<path d="M27.1888 10.3524H26.3726V11.1686H27.1888V10.3524Z" fill="black"/>
<path d="M26.3714 39.0698H25.5476V39.8936H26.3714V39.0698Z" fill="black"/>
<path d="M26.3714 38.2524H25.5476V39.0686H26.3714V38.2524Z" fill="#A05252"/>
<path d="M26.3714 37.4286H25.5476V38.2523H26.3714V37.4286Z" fill="#A05252"/>
<path d="M26.3714 36.6124H25.5476V37.4286H26.3714V36.6124Z" fill="#A05252"/>
<path d="M26.3714 35.7886H25.5476V36.6123H26.3714V35.7886Z" fill="#FFCE17"/>
<path d="M26.3714 34.9648H25.5476V35.7886H26.3714V34.9648Z" fill="#FFCE17"/>
<path d="M26.3714 34.1473H25.5476V34.9636H26.3714V34.1473Z" fill="#FFCE17"/>
<path d="M26.3714 33.3248H25.5476V34.1486H26.3714V33.3248Z" fill="#FFCE17"/>
<path d="M26.3714 32.5074H25.5476V33.3236H26.3714V32.5074Z" fill="#FFCE17"/>
<path d="M26.3714 31.6836H25.5476V32.5073H26.3714V31.6836Z" fill="#D8B8B8"/>
<path d="M26.3714 30.8674H25.5476V31.6836H26.3714V30.8674Z" fill="#D8B8B8"/>
<path d="M26.3714 30.0436H25.5476V30.8673H26.3714V30.0436Z" fill="#D8B8B8"/>
<path d="M26.3714 29.2198H25.5476V30.0436H26.3714V29.2198Z" fill="#D8B8B8"/>
<path d="M26.3714 28.4036H25.5476V29.2199H26.3714V28.4036Z" fill="#D8B8B8"/>
<path d="M26.3714 27.5786H25.5476V28.4024H26.3714V27.5786Z" fill="#D8B8B8"/>
<path d="M26.3714 26.7623H25.5476V27.5786H26.3714V26.7623Z" fill="#D8B8B8"/>
<path d="M26.3714 25.9386H25.5476V26.7623H26.3714V25.9386Z" fill="#BA9595"/>
<path d="M26.3714 25.1224H25.5476V25.9386H26.3714V25.1224Z" fill="#BA9595"/>
<path d="M26.3714 24.2986H25.5476V25.1223H26.3714V24.2986Z" fill="#BA9595"/>
<path d="M26.3714 23.4824H25.5476V24.2986H26.3714V23.4824Z" fill="#844141"/>
<path d="M26.3714 22.6573H25.5476V23.4811H26.3714V22.6573Z" fill="#A05252"/>
<path d="M26.3714 21.8336H25.5476V22.6574H26.3714V21.8336Z" fill="#A05252"/>
<path d="M26.3714 21.0173H25.5476V21.8336H26.3714V21.0173Z" fill="#A05252"/>
<path d="M26.3714 20.1936H25.5476V21.0174H26.3714V20.1936Z" fill="#D8B8B8"/>
<path d="M26.3714 19.3774H25.5476V20.1936H26.3714V19.3774Z" fill="#D8B8B8"/>
<path d="M26.3714 18.5536H25.5476V19.3773H26.3714V18.5536Z" fill="#D8B8B8"/>
<path d="M26.3714 17.7374H25.5476V18.5536H26.3714V17.7374Z" fill="#844141"/>
<path d="M26.3714 16.9124H25.5476V17.7361H26.3714V16.9124Z" fill="#A05252"/>
<path d="M26.3714 16.0886H25.5476V16.9124H26.3714V16.0886Z" fill="#E5B798"/>
<path d="M26.3714 15.2723H25.5476V16.0886H26.3714V15.2723Z" fill="#B28364"/>
<path d="M26.3714 14.4486H25.5476V15.2724H26.3714V14.4486Z" fill="#603C28"/>
<path d="M26.3714 13.6324H25.5476V14.4486H26.3714V13.6324Z" fill="#A05252"/>
<path d="M26.3714 12.8074H25.5476V13.6311H26.3714V12.8074Z" fill="#A05252"/>
<path d="M26.3714 11.9924H25.5476V12.8086H26.3714V11.9924Z" fill="#844141"/>
<path d="M26.3714 11.1674H25.5476V11.9911H26.3714V11.1674Z" fill="#BA9595"/>
<path d="M26.3714 10.3524H25.5476V11.1686H26.3714V10.3524Z" fill="black"/>
<path d="M25.5477 39.0698H24.7314V39.8936H25.5477V39.0698Z" fill="black"/>
<path d="M25.5477 38.2524H24.7314V39.0686H25.5477V38.2524Z" fill="black"/>
<path d="M25.5477 37.4286H24.7314V38.2523H25.5477V37.4286Z" fill="black"/>
<path d="M25.5477 36.6124H24.7314V37.4286H25.5477V36.6124Z" fill="black"/>
<path d="M25.5477 35.7886H24.7314V36.6123H25.5477V35.7886Z" fill="black"/>
<path d="M25.5477 34.9648H24.7314V35.7886H25.5477V34.9648Z" fill="black"/>
<path d="M25.5477 34.1473H24.7314V34.9636H25.5477V34.1473Z" fill="black"/>
<path d="M25.5477 33.3248H24.7314V34.1486H25.5477V33.3248Z" fill="black"/>
<path d="M25.5477 32.5074H24.7314V33.3236H25.5477V32.5074Z" fill="black"/>
<path d="M25.5477 31.6836H24.7314V32.5073H25.5477V31.6836Z" fill="#FFCE17"/>
<path d="M25.5477 30.8674H24.7314V31.6836H25.5477V30.8674Z" fill="#FFCE17"/>
<path d="M25.5477 30.0436H24.7314V30.8673H25.5477V30.0436Z" fill="#FFCE17"/>
<path d="M25.5477 29.2198H24.7314V30.0436H25.5477V29.2198Z" fill="#FFCE17"/>
<path d="M25.5477 28.4036H24.7314V29.2199H25.5477V28.4036Z" fill="#FFCE17"/>
<path d="M25.5477 27.5786H24.7314V28.4024H25.5477V27.5786Z" fill="#FFCE17"/>
<path d="M25.5477 26.7623H24.7314V27.5786H25.5477V26.7623Z" fill="#FFCE17"/>
<path d="M25.5477 25.9386H24.7314V26.7623H25.5477V25.9386Z" fill="#BC9311"/>
<path d="M25.5477 25.1224H24.7314V25.9386H25.5477V25.1224Z" fill="#BC9311"/>
<path d="M25.5477 24.2986H24.7314V25.1223H25.5477V24.2986Z" fill="#BC9311"/>
<path d="M25.5477 23.4824H24.7314V24.2986H25.5477V23.4824Z" fill="#844141"/>
<path d="M25.5477 22.6573H24.7314V23.4811H25.5477V22.6573Z" fill="#A05252"/>
<path d="M25.5477 21.8336H24.7314V22.6574H25.5477V21.8336Z" fill="#A05252"/>
<path d="M25.5477 21.0173H24.7314V21.8336H25.5477V21.0173Z" fill="#A05252"/>
<path d="M25.5477 20.1936H24.7314V21.0174H25.5477V20.1936Z" fill="#D8B8B8"/>
<path d="M25.5477 19.3774H24.7314V20.1936H25.5477V19.3774Z" fill="#D8B8B8"/>
<path d="M25.5477 18.5536H24.7314V19.3773H25.5477V18.5536Z" fill="#D8B8B8"/>
<path d="M25.5477 17.7374H24.7314V18.5536H25.5477V17.7374Z" fill="#844141"/>
<path d="M25.5477 16.9124H24.7314V17.7361H25.5477V16.9124Z" fill="#A05252"/>
<path d="M25.5477 16.0886H24.7314V16.9124H25.5477V16.0886Z" fill="#E5B798"/>
<path d="M25.5477 15.2723H24.7314V16.0886H25.5477V15.2723Z" fill="#B28364"/>
<path d="M25.5477 14.4486H24.7314V15.2724H25.5477V14.4486Z" fill="#603C28"/>
<path d="M25.5477 13.6324H24.7314V14.4486H25.5477V13.6324Z" fill="#A05252"/>
<path d="M25.5477 12.8074H24.7314V13.6311H25.5477V12.8074Z" fill="#A05252"/>
<path d="M25.5477 11.9924H24.7314V12.8086H25.5477V11.9924Z" fill="#A05252"/>
<path d="M25.5477 11.1674H24.7314V11.9911H25.5477V11.1674Z" fill="#844141"/>
<path d="M25.5477 10.3524H24.7314V11.1686H25.5477V10.3524Z" fill="black"/>
<path d="M24.7315 38.2524H23.9077V39.0686H24.7315V38.2524Z" fill="black"/>
<path d="M24.7315 37.4286H23.9077V38.2523H24.7315V37.4286Z" fill="#BC9311"/>
<path d="M24.7315 36.6124H23.9077V37.4286H24.7315V36.6124Z" fill="#BC9311"/>
<path d="M24.7315 35.7886H23.9077V36.6123H24.7315V35.7886Z" fill="#BA9595"/>
<path d="M24.7315 34.9648H23.9077V35.7886H24.7315V34.9648Z" fill="#BA9595"/>
<path d="M24.7315 34.1473H23.9077V34.9636H24.7315V34.1473Z" fill="#BA9595"/>
<path d="M24.7315 33.3248H23.9077V34.1486H24.7315V33.3248Z" fill="#BA9595"/>
<path d="M24.7315 32.5074H23.9077V33.3236H24.7315V32.5074Z" fill="#BA9595"/>
<path d="M24.7315 31.6836H23.9077V32.5073H24.7315V31.6836Z" fill="black"/>
<path d="M24.7315 30.8674H23.9077V31.6836H24.7315V30.8674Z" fill="black"/>
<path d="M24.7315 30.0436H23.9077V30.8673H24.7315V30.0436Z" fill="black"/>
<path d="M24.7315 29.2198H23.9077V30.0436H24.7315V29.2198Z" fill="black"/>
<path d="M24.7315 28.4036H23.9077V29.2199H24.7315V28.4036Z" fill="black"/>
<path d="M24.7315 27.5786H23.9077V28.4024H24.7315V27.5786Z" fill="black"/>
<path d="M24.7315 26.7623H23.9077V27.5786H24.7315V26.7623Z" fill="black"/>
<path d="M24.7315 25.9386H23.9077V26.7623H24.7315V25.9386Z" fill="black"/>
<path d="M24.7315 25.1224H23.9077V25.9386H24.7315V25.1224Z" fill="black"/>
<path d="M24.7315 24.2986H23.9077V25.1223H24.7315V24.2986Z" fill="black"/>
<path d="M24.7315 23.4824H23.9077V24.2986H24.7315V23.4824Z" fill="#844141"/>
<path d="M24.7315 22.6573H23.9077V23.4811H24.7315V22.6573Z" fill="#A05252"/>
<path d="M24.7315 21.8336H23.9077V22.6574H24.7315V21.8336Z" fill="#A05252"/>
<path d="M24.7315 21.0173H23.9077V21.8336H24.7315V21.0173Z" fill="#A05252"/>
<path d="M24.7315 20.1936H23.9077V21.0174H24.7315V20.1936Z" fill="#D8B8B8"/>
<path d="M24.7315 19.3774H23.9077V20.1936H24.7315V19.3774Z" fill="#D8B8B8"/>
<path d="M24.7315 18.5536H23.9077V19.3773H24.7315V18.5536Z" fill="#D8B8B8"/>
<path d="M24.7315 17.7374H23.9077V18.5536H24.7315V17.7374Z" fill="#844141"/>
<path d="M24.7315 16.9124H23.9077V17.7361H24.7315V16.9124Z" fill="#A05252"/>
<path d="M24.7315 16.0886H23.9077V16.9124H24.7315V16.0886Z" fill="#E5B798"/>
<path d="M24.7315 15.2723H23.9077V16.0886H24.7315V15.2723Z" fill="#B28364"/>
<path d="M24.7315 14.4486H23.9077V15.2724H24.7315V14.4486Z" fill="#603C28"/>
<path d="M24.7315 13.6324H23.9077V14.4486H24.7315V13.6324Z" fill="#A05252"/>
<path d="M24.7315 12.8074H23.9077V13.6311H24.7315V12.8074Z" fill="#A05252"/>
<path d="M24.7315 11.9924H23.9077V12.8086H24.7315V11.9924Z" fill="#844141"/>
<path d="M24.7315 11.1674H23.9077V11.9911H24.7315V11.1674Z" fill="black"/>
<path d="M23.9076 40.7098H23.0913V41.5336H23.9076V40.7098Z" fill="black"/>
<path d="M23.9076 39.8923H23.0913V40.7086H23.9076V39.8923Z" fill="black"/>
<path d="M23.9076 39.0698H23.0913V39.8936H23.9076V39.0698Z" fill="black"/>
<path d="M23.9076 38.2524H23.0913V39.0686H23.9076V38.2524Z" fill="black"/>
<path d="M23.9076 37.4286H23.0913V38.2523H23.9076V37.4286Z" fill="#BC9311"/>
<path d="M23.9076 36.6124H23.0913V37.4286H23.9076V36.6124Z" fill="#BC9311"/>
<path d="M23.9076 35.7886H23.0913V36.6123H23.9076V35.7886Z" fill="#BA9595"/>
<path d="M23.9076 34.9648H23.0913V35.7886H23.9076V34.9648Z" fill="#BA9595"/>
<path d="M23.9076 34.1473H23.0913V34.9636H23.9076V34.1473Z" fill="#BA9595"/>
<path d="M23.9076 33.3248H23.0913V34.1486H23.9076V33.3248Z" fill="#BA9595"/>
<path d="M23.9076 32.5074H23.0913V33.3236H23.9076V32.5074Z" fill="#BA9595"/>
<path d="M23.9076 31.6836H23.0913V32.5073H23.9076V31.6836Z" fill="#BA9595"/>
<path d="M23.9076 30.8674H23.0913V31.6836H23.9076V30.8674Z" fill="#BA9595"/>
<path d="M23.9076 30.0436H23.0913V30.8673H23.9076V30.0436Z" fill="#BA9595"/>
<path d="M23.9076 29.2198H23.0913V30.0436H23.9076V29.2198Z" fill="#BA9595"/>
<path d="M23.9076 28.4036H23.0913V29.2199H23.9076V28.4036Z" fill="#BA9595"/>
<path d="M23.9076 27.5786H23.0913V28.4024H23.9076V27.5786Z" fill="#BA9595"/>
<path d="M23.9076 26.7623H23.0913V27.5786H23.9076V26.7623Z" fill="#BA9595"/>
<path d="M23.9076 25.9386H23.0913V26.7623H23.9076V25.9386Z" fill="#BA9595"/>
<path d="M23.9076 25.1224H23.0913V25.9386H23.9076V25.1224Z" fill="#BA9595"/>
<path d="M23.9076 24.2986H23.0913V25.1223H23.9076V24.2986Z" fill="#BA9595"/>
<path d="M23.9076 23.4824H23.0913V24.2986H23.9076V23.4824Z" fill="#844141"/>
<path d="M23.9076 22.6573H23.0913V23.4811H23.9076V22.6573Z" fill="#A05252"/>
<path d="M23.9076 21.8336H23.0913V22.6574H23.9076V21.8336Z" fill="#A05252"/>
<path d="M23.9076 21.0173H23.0913V21.8336H23.9076V21.0173Z" fill="#A05252"/>
<path d="M23.9076 20.1936H23.0913V21.0174H23.9076V20.1936Z" fill="#D8B8B8"/>
<path d="M23.9076 19.3774H23.0913V20.1936H23.9076V19.3774Z" fill="#D8B8B8"/>
<path d="M23.9076 18.5536H23.0913V19.3773H23.9076V18.5536Z" fill="#D8B8B8"/>
<path d="M23.9076 17.7374H23.0913V18.5536H23.9076V17.7374Z" fill="#844141"/>
<path d="M23.9076 16.9124H23.0913V17.7361H23.9076V16.9124Z" fill="#A05252"/>
<path d="M23.9076 16.0886H23.0913V16.9124H23.9076V16.0886Z" fill="#B28364"/>
<path d="M23.9076 15.2723H23.0913V16.0886H23.9076V15.2723Z" fill="#B28364"/>
<path d="M23.9076 14.4486H23.0913V15.2724H23.9076V14.4486Z" fill="#603C28"/>
<path d="M23.9076 13.6324H23.0913V14.4486H23.9076V13.6324Z" fill="#A05252"/>
<path d="M23.9076 12.8074H23.0913V13.6311H23.9076V12.8074Z" fill="#A05252"/>
<path d="M23.9076 11.9924H23.0913V12.8086H23.9076V11.9924Z" fill="#844141"/>
<path d="M23.9076 11.1674H23.0913V11.9911H23.9076V11.1674Z" fill="black"/>
<path d="M23.0913 40.7098H22.2676V41.5336H23.0913V40.7098Z" fill="black"/>
<path d="M23.0913 39.8923H22.2676V40.7086H23.0913V39.8923Z" fill="#7F4E4E"/>
<path d="M23.0913 39.0698H22.2676V39.8936H23.0913V39.0698Z" fill="#7F4E4E"/>
<path d="M23.0913 38.2524H22.2676V39.0686H23.0913V38.2524Z" fill="black"/>
<path d="M23.0913 37.4286H22.2676V38.2523H23.0913V37.4286Z" fill="#BC9311"/>
<path d="M23.0913 36.6124H22.2676V37.4286H23.0913V36.6124Z" fill="#BC9311"/>
<path d="M23.0913 35.7886H22.2676V36.6123H23.0913V35.7886Z" fill="#BA9595"/>
<path d="M23.0913 34.9648H22.2676V35.7886H23.0913V34.9648Z" fill="#BA9595"/>
<path d="M23.0913 34.1473H22.2676V34.9636H23.0913V34.1473Z" fill="#BA9595"/>
<path d="M23.0913 33.3248H22.2676V34.1486H23.0913V33.3248Z" fill="#D8B8B8"/>
<path d="M23.0913 32.5074H22.2676V33.3236H23.0913V32.5074Z" fill="#D8B8B8"/>
<path d="M23.0913 31.6836H22.2676V32.5073H23.0913V31.6836Z" fill="#D8B8B8"/>
<path d="M23.0913 30.8674H22.2676V31.6836H23.0913V30.8674Z" fill="#D8B8B8"/>
<path d="M23.0913 30.0436H22.2676V30.8673H23.0913V30.0436Z" fill="#D8B8B8"/>
<path d="M23.0913 29.2198H22.2676V30.0436H23.0913V29.2198Z" fill="#D8B8B8"/>
<path d="M23.0913 28.4036H22.2676V29.2199H23.0913V28.4036Z" fill="#D8B8B8"/>
<path d="M23.0913 27.5786H22.2676V28.4024H23.0913V27.5786Z" fill="#D8B8B8"/>
<path d="M23.0913 26.7623H22.2676V27.5786H23.0913V26.7623Z" fill="#D8B8B8"/>
<path d="M23.0913 25.9386H22.2676V26.7623H23.0913V25.9386Z" fill="#D8B8B8"/>
<path d="M23.0913 25.1224H22.2676V25.9386H23.0913V25.1224Z" fill="#D8B8B8"/>
<path d="M23.0913 24.2986H22.2676V25.1223H23.0913V24.2986Z" fill="#BA9595"/>
<path d="M23.0913 23.4824H22.2676V24.2986H23.0913V23.4824Z" fill="#844141"/>
<path d="M23.0913 22.6573H22.2676V23.4811H23.0913V22.6573Z" fill="#A05252"/>
<path d="M23.0913 21.8336H22.2676V22.6574H23.0913V21.8336Z" fill="#A05252"/>
<path d="M23.0913 21.0173H22.2676V21.8336H23.0913V21.0173Z" fill="#A05252"/>
<path d="M23.0913 20.1936H22.2676V21.0174H23.0913V20.1936Z" fill="#D8B8B8"/>
<path d="M23.0913 19.3774H22.2676V20.1936H23.0913V19.3774Z" fill="#D8B8B8"/>
<path d="M23.0913 18.5536H22.2676V19.3773H23.0913V18.5536Z" fill="#BA9595"/>
<path d="M23.0913 17.7374H22.2676V18.5536H23.0913V17.7374Z" fill="#844141"/>
<path d="M23.0913 16.9124H22.2676V17.7361H23.0913V16.9124Z" fill="#844141"/>
<path d="M23.0913 16.0886H22.2676V16.9124H23.0913V16.0886Z" fill="#A05252"/>
<path d="M23.0913 15.2723H22.2676V16.0886H23.0913V15.2723Z" fill="#A05252"/>
<path d="M23.0913 14.4486H22.2676V15.2724H23.0913V14.4486Z" fill="#A05252"/>
<path d="M23.0913 13.6324H22.2676V14.4486H23.0913V13.6324Z" fill="#A05252"/>
<path d="M23.0913 12.8074H22.2676V13.6311H23.0913V12.8074Z" fill="#844141"/>
<path d="M23.0913 11.9924H22.2676V12.8086H23.0913V11.9924Z" fill="black"/>
<path d="M22.2664 40.7098H21.4426V41.5336H22.2664V40.7098Z" fill="black"/>
<path d="M22.2664 39.8923H21.4426V40.7086H22.2664V39.8923Z" fill="#7F4E4E"/>
<path d="M22.2664 39.0698H21.4426V39.8936H22.2664V39.0698Z" fill="#7F4E4E"/>
<path d="M22.2664 38.2524H21.4426V39.0686H22.2664V38.2524Z" fill="black"/>
<path d="M22.2664 37.4286H21.4426V38.2523H22.2664V37.4286Z" fill="#FFCE17"/>
<path d="M22.2664 36.6124H21.4426V37.4286H22.2664V36.6124Z" fill="#FFCE17"/>
<path d="M22.2664 35.7886H21.4426V36.6123H22.2664V35.7886Z" fill="#D8B8B8"/>
<path d="M22.2664 34.9648H21.4426V35.7886H22.2664V34.9648Z" fill="#D8B8B8"/>
<path d="M22.2664 34.1473H21.4426V34.9636H22.2664V34.1473Z" fill="#D8B8B8"/>
<path d="M22.2664 33.3248H21.4426V34.1486H22.2664V33.3248Z" fill="#D8B8B8"/>
<path d="M22.2664 32.5074H21.4426V33.3236H22.2664V32.5074Z" fill="#D8B8B8"/>
<path d="M22.2664 31.6836H21.4426V32.5073H22.2664V31.6836Z" fill="#D8B8B8"/>
<path d="M22.2664 30.8674H21.4426V31.6836H22.2664V30.8674Z" fill="#D8B8B8"/>
<path d="M22.2664 30.0436H21.4426V30.8673H22.2664V30.0436Z" fill="#D8B8B8"/>
<path d="M22.2664 29.2198H21.4426V30.0436H22.2664V29.2198Z" fill="#D8B8B8"/>
<path d="M22.2664 28.4036H21.4426V29.2199H22.2664V28.4036Z" fill="#D8B8B8"/>
<path d="M22.2664 27.5786H21.4426V28.4024H22.2664V27.5786Z" fill="#D8B8B8"/>
<path d="M22.2664 26.7623H21.4426V27.5786H22.2664V26.7623Z" fill="#D8B8B8"/>
<path d="M22.2664 25.9386H21.4426V26.7623H22.2664V25.9386Z" fill="#D8B8B8"/>
<path d="M22.2664 25.1224H21.4426V25.9386H22.2664V25.1224Z" fill="#D8B8B8"/>
<path d="M22.2664 24.2986H21.4426V25.1223H22.2664V24.2986Z" fill="#BA9595"/>
<path d="M22.2664 23.4824H21.4426V24.2986H22.2664V23.4824Z" fill="#844141"/>
<path d="M22.2664 22.6573H21.4426V23.4811H22.2664V22.6573Z" fill="#A05252"/>
<path d="M22.2664 21.8336H21.4426V22.6574H22.2664V21.8336Z" fill="#A05252"/>
<path d="M22.2664 21.0173H21.4426V21.8336H22.2664V21.0173Z" fill="#A05252"/>
<path d="M22.2664 20.1936H21.4426V21.0174H22.2664V20.1936Z" fill="#D8B8B8"/>
<path d="M22.2664 19.3774H21.4426V20.1936H22.2664V19.3774Z" fill="#BA9595"/>
<path d="M22.2664 18.5536H21.4426V19.3773H22.2664V18.5536Z" fill="#BA9595"/>
<path d="M22.2664 17.7374H21.4426V18.5536H22.2664V17.7374Z" fill="#BA9595"/>
<path d="M22.2664 16.9124H21.4426V17.7361H22.2664V16.9124Z" fill="#844141"/>
<path d="M22.2664 16.0886H21.4426V16.9124H22.2664V16.0886Z" fill="#844141"/>
<path d="M22.2664 15.2723H21.4426V16.0886H22.2664V15.2723Z" fill="#844141"/>
<path d="M22.2664 14.4486H21.4426V15.2724H22.2664V14.4486Z" fill="#844141"/>
<path d="M22.2664 13.6324H21.4426V14.4486H22.2664V13.6324Z" fill="#844141"/>
<path d="M22.2664 12.8074H21.4426V13.6311H22.2664V12.8074Z" fill="black"/>
<path d="M21.4427 40.7098H20.6265V41.5336H21.4427V40.7098Z" fill="black"/>
<path d="M21.4427 39.8923H20.6265V40.7086H21.4427V39.8923Z" fill="#7F4E4E"/>
<path d="M21.4427 39.0698H20.6265V39.8936H21.4427V39.0698Z" fill="#7F4E4E"/>
<path d="M21.4427 38.2524H20.6265V39.0686H21.4427V38.2524Z" fill="black"/>
<path d="M21.4427 37.4286H20.6265V38.2523H21.4427V37.4286Z" fill="#FFCE17"/>
<path d="M21.4427 36.6124H20.6265V37.4286H21.4427V36.6124Z" fill="#FFCE17"/>
<path d="M21.4427 35.7886H20.6265V36.6123H21.4427V35.7886Z" fill="#D8B8B8"/>
<path d="M21.4427 34.9648H20.6265V35.7886H21.4427V34.9648Z" fill="#D8B8B8"/>
<path d="M21.4427 34.1473H20.6265V34.9636H21.4427V34.1473Z" fill="#D8B8B8"/>
<path d="M21.4427 33.3248H20.6265V34.1486H21.4427V33.3248Z" fill="#D8B8B8"/>
<path d="M21.4427 32.5074H20.6265V33.3236H21.4427V32.5074Z" fill="#BA9595"/>
<path d="M21.4427 31.6836H20.6265V32.5073H21.4427V31.6836Z" fill="#BA9595"/>
<path d="M21.4427 30.8674H20.6265V31.6836H21.4427V30.8674Z" fill="#BA9595"/>
<path d="M21.4427 30.0436H20.6265V30.8673H21.4427V30.0436Z" fill="#BA9595"/>
<path d="M21.4427 29.2198H20.6265V30.0436H21.4427V29.2198Z" fill="#BA9595"/>
<path d="M21.4427 28.4036H20.6265V29.2199H21.4427V28.4036Z" fill="#BA9595"/>
<path d="M21.4427 27.5786H20.6265V28.4024H21.4427V27.5786Z" fill="#BA9595"/>
<path d="M21.4427 26.7623H20.6265V27.5786H21.4427V26.7623Z" fill="#BA9595"/>
<path d="M21.4427 25.9386H20.6265V26.7623H21.4427V25.9386Z" fill="#BA9595"/>
<path d="M21.4427 25.1224H20.6265V25.9386H21.4427V25.1224Z" fill="#BA9595"/>
<path d="M21.4427 24.2986H20.6265V25.1223H21.4427V24.2986Z" fill="#BA9595"/>
<path d="M21.4427 23.4824H20.6265V24.2986H21.4427V23.4824Z" fill="#BA9595"/>
<path d="M21.4427 22.6573H20.6265V23.4811H21.4427V22.6573Z" fill="#844141"/>
<path d="M21.4427 21.8336H20.6265V22.6574H21.4427V21.8336Z" fill="#A05252"/>
<path d="M21.4427 21.0173H20.6265V21.8336H21.4427V21.0173Z" fill="#A05252"/>
<path d="M21.4427 20.1936H20.6265V21.0174H21.4427V20.1936Z" fill="#BA9595"/>
<path d="M21.4427 19.3774H20.6265V20.1936H21.4427V19.3774Z" fill="#BA9595"/>
<path d="M21.4427 18.5536H20.6265V19.3773H21.4427V18.5536Z" fill="#BA9595"/>
<path d="M21.4427 17.7374H20.6265V18.5536H21.4427V17.7374Z" fill="#BA9595"/>
<path d="M21.4427 16.9124H20.6265V17.7361H21.4427V16.9124Z" fill="#BA9595"/>
<path d="M21.4427 16.0886H20.6265V16.9124H21.4427V16.0886Z" fill="black"/>
<path d="M21.4427 15.2723H20.6265V16.0886H21.4427V15.2723Z" fill="black"/>
<path d="M21.4427 14.4486H20.6265V15.2724H21.4427V14.4486Z" fill="black"/>
<path d="M21.4427 13.6324H20.6265V14.4486H21.4427V13.6324Z" fill="black"/>
<path d="M20.6265 40.7098H19.8027V41.5336H20.6265V40.7098Z" fill="black"/>
<path d="M20.6265 39.8923H19.8027V40.7086H20.6265V39.8923Z" fill="#7F4E4E"/>
<path d="M20.6265 39.0698H19.8027V39.8936H20.6265V39.0698Z" fill="black"/>
<path d="M20.6265 38.2524H19.8027V39.0686H20.6265V38.2524Z" fill="black"/>
<path d="M20.6265 37.4286H19.8027V38.2523H20.6265V37.4286Z" fill="#BC9311"/>
<path d="M20.6265 36.6124H19.8027V37.4286H20.6265V36.6124Z" fill="#BC9311"/>
<path d="M20.6265 35.7886H19.8027V36.6123H20.6265V35.7886Z" fill="#BA9595"/>
<path d="M20.6265 34.9648H19.8027V35.7886H20.6265V34.9648Z" fill="#BA9595"/>
<path d="M20.6265 34.1473H19.8027V34.9636H20.6265V34.1473Z" fill="#BA9595"/>
<path d="M20.6265 33.3248H19.8027V34.1486H20.6265V33.3248Z" fill="#BA9595"/>
<path d="M20.6265 32.5074H19.8027V33.3236H20.6265V32.5074Z" fill="#BA9595"/>
<path d="M20.6265 31.6836H19.8027V32.5073H20.6265V31.6836Z" fill="#BA9595"/>
<path d="M20.6265 30.8674H19.8027V31.6836H20.6265V30.8674Z" fill="#BA9595"/>
<path d="M20.6265 30.0436H19.8027V30.8673H20.6265V30.0436Z" fill="#BC9311"/>
<path d="M20.6265 29.2198H19.8027V30.0436H20.6265V29.2198Z" fill="#BC9311"/>
<path d="M20.6265 28.4036H19.8027V29.2199H20.6265V28.4036Z" fill="#BC9311"/>
<path d="M20.6265 27.5786H19.8027V28.4024H20.6265V27.5786Z" fill="#BC9311"/>
<path d="M20.6265 26.7623H19.8027V27.5786H20.6265V26.7623Z" fill="#BC9311"/>
<path d="M20.6265 25.9386H19.8027V26.7623H20.6265V25.9386Z" fill="#BC9311"/>
<path d="M20.6265 25.1224H19.8027V25.9386H20.6265V25.1224Z" fill="#BC9311"/>
<path d="M20.6265 24.2986H19.8027V25.1223H20.6265V24.2986Z" fill="#BC9311"/>
<path d="M20.6265 23.4824H19.8027V24.2986H20.6265V23.4824Z" fill="#BC9311"/>
<path d="M20.6265 22.6573H19.8027V23.4811H20.6265V22.6573Z" fill="#BC9311"/>
<path d="M20.6265 21.8336H19.8027V22.6574H20.6265V21.8336Z" fill="#844141"/>
<path d="M20.6265 21.0173H19.8027V21.8336H20.6265V21.0173Z" fill="#A05252"/>
<path d="M20.6265 20.1936H19.8027V21.0174H20.6265V20.1936Z" fill="#A05252"/>
<path d="M20.6265 19.3774H19.8027V20.1936H20.6265V19.3774Z" fill="#A05252"/>
<path d="M20.6265 18.5536H19.8027V19.3773H20.6265V18.5536Z" fill="#A05252"/>
<path d="M20.6265 17.7374H19.8027V18.5536H20.6265V17.7374Z" fill="#A05252"/>
<path d="M20.6265 16.9124H19.8027V17.7361H20.6265V16.9124Z" fill="#A05252"/>
<path d="M20.6265 16.0886H19.8027V16.9124H20.6265V16.0886Z" fill="black"/>
<path d="M19.8026 40.7098H18.9863V41.5336H19.8026V40.7098Z" fill="black"/>
<path d="M19.8026 39.8923H18.9863V40.7086H19.8026V39.8923Z" fill="black"/>
<path d="M19.8026 38.2524H18.9863V39.0686H19.8026V38.2524Z" fill="black"/>
<path d="M19.8026 37.4286H18.9863V38.2523H19.8026V37.4286Z" fill="#BC9311"/>
<path d="M19.8026 36.6124H18.9863V37.4286H19.8026V36.6124Z" fill="#BC9311"/>
<path d="M19.8026 35.7886H18.9863V36.6123H19.8026V35.7886Z" fill="#BA9595"/>
<path d="M19.8026 34.9648H18.9863V35.7886H19.8026V34.9648Z" fill="#BA9595"/>
<path d="M19.8026 34.1473H18.9863V34.9636H19.8026V34.1473Z" fill="#BA9595"/>
<path d="M19.8026 33.3248H18.9863V34.1486H19.8026V33.3248Z" fill="#BC9311"/>
<path d="M19.8026 32.5074H18.9863V33.3236H19.8026V32.5074Z" fill="#BC9311"/>
<path d="M19.8026 31.6836H18.9863V32.5073H19.8026V31.6836Z" fill="#BC9311"/>
<path d="M19.8026 30.8674H18.9863V31.6836H19.8026V30.8674Z" fill="#BC9311"/>
<path d="M19.8026 30.0436H18.9863V30.8673H19.8026V30.0436Z" fill="black"/>
<path d="M19.8026 29.2198H18.9863V30.0436H19.8026V29.2198Z" fill="black"/>
<path d="M19.8026 28.4036H18.9863V29.2199H19.8026V28.4036Z" fill="black"/>
<path d="M19.8026 27.5786H18.9863V28.4024H19.8026V27.5786Z" fill="black"/>
<path d="M19.8026 26.7623H18.9863V27.5786H19.8026V26.7623Z" fill="black"/>
<path d="M19.8026 25.9386H18.9863V26.7623H19.8026V25.9386Z" fill="black"/>
<path d="M19.8026 25.1224H18.9863V25.9386H19.8026V25.1224Z" fill="black"/>
<path d="M19.8026 24.2986H18.9863V25.1223H19.8026V24.2986Z" fill="black"/>
<path d="M19.8026 23.4824H18.9863V24.2986H19.8026V23.4824Z" fill="black"/>
<path d="M19.8026 22.6573H18.9863V23.4811H19.8026V22.6573Z" fill="black"/>
<path d="M19.8026 21.8336H18.9863V22.6574H19.8026V21.8336Z" fill="#844141"/>
<path d="M19.8026 21.0173H18.9863V21.8336H19.8026V21.0173Z" fill="#844141"/>
<path d="M19.8026 20.1936H18.9863V21.0174H19.8026V20.1936Z" fill="#844141"/>
<path d="M19.8026 19.3774H18.9863V20.1936H19.8026V19.3774Z" fill="#A05252"/>
<path d="M19.8026 18.5536H18.9863V19.3773H19.8026V18.5536Z" fill="#A05252"/>
<path d="M19.8026 17.7374H18.9863V18.5536H19.8026V17.7374Z" fill="#A05252"/>
<path d="M19.8026 16.9124H18.9863V17.7361H19.8026V16.9124Z" fill="black"/>
<path d="M18.9863 38.2524H18.1626V39.0686H18.9863V38.2524Z" fill="black"/>
<path d="M18.9863 37.4286H18.1626V38.2523H18.9863V37.4286Z" fill="#BC9311"/>
<path d="M18.9863 36.6124H18.1626V37.4286H18.9863V36.6124Z" fill="#BC9311"/>
<path d="M18.9863 35.7886H18.1626V36.6123H18.9863V35.7886Z" fill="#BA9595"/>
<path d="M18.9863 34.9648H18.1626V35.7886H18.9863V34.9648Z" fill="#BC9311"/>
<path d="M18.9863 34.1473H18.1626V34.9636H18.9863V34.1473Z" fill="#BC9311"/>
<path d="M18.9863 33.3248H18.1626V34.1486H18.9863V33.3248Z" fill="black"/>
<path d="M18.9863 32.5074H18.1626V33.3236H18.9863V32.5074Z" fill="black"/>
<path d="M18.9863 31.6836H18.1626V32.5073H18.9863V31.6836Z" fill="black"/>
<path d="M18.9863 30.8674H18.1626V31.6836H18.9863V30.8674Z" fill="black"/>
<path d="M18.9863 30.0436H18.1626V30.8673H18.9863V30.0436Z" fill="#844141"/>
<path d="M18.9863 29.2198H18.1626V30.0436H18.9863V29.2198Z" fill="#844141"/>
<path d="M18.9863 28.4036H18.1626V29.2199H18.9863V28.4036Z" fill="#844141"/>
<path d="M18.9863 27.5786H18.1626V28.4024H18.9863V27.5786Z" fill="#844141"/>
<path d="M18.9863 26.7623H18.1626V27.5786H18.9863V26.7623Z" fill="#844141"/>
<path d="M18.9863 25.9386H18.1626V26.7623H18.9863V25.9386Z" fill="#844141"/>
<path d="M18.9863 25.1224H18.1626V25.9386H18.9863V25.1224Z" fill="black"/>
<path d="M18.9863 24.2986H18.1626V25.1223H18.9863V24.2986Z" fill="black"/>
<path d="M18.9863 23.4824H18.1626V24.2986H18.9863V23.4824Z" fill="#BA9595"/>
<path d="M18.9863 22.6573H18.1626V23.4811H18.9863V22.6573Z" fill="#BA9595"/>
<path d="M18.9863 21.8336H18.1626V22.6574H18.9863V21.8336Z" fill="#BA9595"/>
<path d="M18.9863 21.0173H18.1626V21.8336H18.9863V21.0173Z" fill="#BA9595"/>
<path d="M18.9863 20.1936H18.1626V21.0174H18.9863V20.1936Z" fill="#BA9595"/>
<path d="M18.9863 19.3774H18.1626V20.1936H18.9863V19.3774Z" fill="#844141"/>
<path d="M18.9863 18.5536H18.1626V19.3773H18.9863V18.5536Z" fill="#844141"/>
<path d="M18.9863 17.7374H18.1626V18.5536H18.9863V17.7374Z" fill="black"/>
<path d="M18.1627 38.2524H17.3464V39.0686H18.1627V38.2524Z" fill="black"/>
<path d="M18.1627 37.4286H17.3464V38.2523H18.1627V37.4286Z" fill="#BC9311"/>
<path d="M18.1627 36.6124H17.3464V37.4286H18.1627V36.6124Z" fill="#BC9311"/>
<path d="M18.1627 35.7886H17.3464V36.6123H18.1627V35.7886Z" fill="#BC9311"/>
<path d="M18.1627 34.9648H17.3464V35.7886H18.1627V34.9648Z" fill="black"/>
<path d="M18.1627 34.1473H17.3464V34.9636H18.1627V34.1473Z" fill="black"/>
<path d="M18.1627 33.3248H17.3464V34.1486H18.1627V33.3248Z" fill="#844141"/>
<path d="M18.1627 32.5074H17.3464V33.3236H18.1627V32.5074Z" fill="#844141"/>
<path d="M18.1627 31.6836H17.3464V32.5073H18.1627V31.6836Z" fill="#844141"/>
<path d="M18.1627 30.8674H17.3464V31.6836H18.1627V30.8674Z" fill="#844141"/>
<path d="M18.1627 30.0436H17.3464V30.8673H18.1627V30.0436Z" fill="#844141"/>
<path d="M18.1627 29.2198H17.3464V30.0436H18.1627V29.2198Z" fill="#844141"/>
<path d="M18.1627 28.4036H17.3464V29.2199H18.1627V28.4036Z" fill="#844141"/>
<path d="M18.1627 27.5786H17.3464V28.4024H18.1627V27.5786Z" fill="#844141"/>
<path d="M18.1627 26.7623H17.3464V27.5786H18.1627V26.7623Z" fill="black"/>
<path d="M18.1627 25.9386H17.3464V26.7623H18.1627V25.9386Z" fill="black"/>
<path d="M18.1627 25.1224H17.3464V25.9386H18.1627V25.1224Z" fill="#D8B8B8"/>
<path d="M18.1627 24.2986H17.3464V25.1223H18.1627V24.2986Z" fill="#D8B8B8"/>
<path d="M18.1627 23.4824H17.3464V24.2986H18.1627V23.4824Z" fill="#D8B8B8"/>
<path d="M18.1627 22.6573H17.3464V23.4811H18.1627V22.6573Z" fill="#D8B8B8"/>
<path d="M18.1627 21.8336H17.3464V22.6574H18.1627V21.8336Z" fill="#D8B8B8"/>
<path d="M18.1627 21.0173H17.3464V21.8336H18.1627V21.0173Z" fill="#BA9595"/>
<path d="M18.1627 20.1936H17.3464V21.0174H18.1627V20.1936Z" fill="black"/>
<path d="M18.1627 19.3774H17.3464V20.1936H18.1627V19.3774Z" fill="black"/>
<path d="M18.1627 18.5536H17.3464V19.3773H18.1627V18.5536Z" fill="black"/>
<path d="M17.3465 38.2524H16.5227V39.0686H17.3465V38.2524Z" fill="black"/>
<path d="M17.3465 37.4286H16.5227V38.2523H17.3465V37.4286Z" fill="#BC9311"/>
<path d="M17.3465 36.6124H16.5227V37.4286H17.3465V36.6124Z" fill="black"/>
<path d="M17.3465 35.7886H16.5227V36.6123H17.3465V35.7886Z" fill="black"/>
<path d="M17.3465 34.9648H16.5227V35.7886H17.3465V34.9648Z" fill="black"/>
<path d="M17.3465 34.1473H16.5227V34.9636H17.3465V34.1473Z" fill="#844141"/>
<path d="M17.3465 33.3248H16.5227V34.1486H17.3465V33.3248Z" fill="#844141"/>
<path d="M17.3465 32.5074H16.5227V33.3236H17.3465V32.5074Z" fill="#844141"/>
<path d="M17.3465 31.6836H16.5227V32.5073H17.3465V31.6836Z" fill="#844141"/>
<path d="M17.3465 30.8674H16.5227V31.6836H17.3465V30.8674Z" fill="#844141"/>
<path d="M17.3465 30.0436H16.5227V30.8673H17.3465V30.0436Z" fill="#844141"/>
<path d="M17.3465 29.2198H16.5227V30.0436H17.3465V29.2198Z" fill="#844141"/>
<path d="M17.3465 28.4036H16.5227V29.2199H17.3465V28.4036Z" fill="black"/>
<path d="M17.3465 27.5786H16.5227V28.4024H17.3465V27.5786Z" fill="black"/>
<path d="M17.3465 26.7623H16.5227V27.5786H17.3465V26.7623Z" fill="#D8B8B8"/>
<path d="M17.3465 25.9386H16.5227V26.7623H17.3465V25.9386Z" fill="#D8B8B8"/>
<path d="M17.3465 25.1224H16.5227V25.9386H17.3465V25.1224Z" fill="#D8B8B8"/>
<path d="M17.3465 24.2986H16.5227V25.1223H17.3465V24.2986Z" fill="#D8B8B8"/>
<path d="M17.3465 23.4824H16.5227V24.2986H17.3465V23.4824Z" fill="black"/>
<path d="M17.3465 22.6573H16.5227V23.4811H17.3465V22.6573Z" fill="black"/>
<path d="M17.3465 21.8336H16.5227V22.6574H17.3465V21.8336Z" fill="black"/>
<path d="M17.3465 21.0173H16.5227V21.8336H17.3465V21.0173Z" fill="black"/>
<path d="M16.5213 38.2524H15.6975V39.0686H16.5213V38.2524Z" fill="black"/>
<path d="M16.5213 37.4286H15.6975V38.2523H16.5213V37.4286Z" fill="black"/>
<path d="M16.5213 36.6124H15.6975V37.4286H16.5213V36.6124Z" fill="black"/>
<path d="M16.5213 34.9648H15.6975V35.7886H16.5213V34.9648Z" fill="black"/>
<path d="M16.5213 34.1473H15.6975V34.9636H16.5213V34.1473Z" fill="#844141"/>
<path d="M16.5213 33.3248H15.6975V34.1486H16.5213V33.3248Z" fill="#844141"/>
<path d="M16.5213 32.5074H15.6975V33.3236H16.5213V32.5074Z" fill="#844141"/>
<path d="M16.5213 31.6836H15.6975V32.5073H16.5213V31.6836Z" fill="#844141"/>
<path d="M16.5213 30.8674H15.6975V31.6836H16.5213V30.8674Z" fill="#844141"/>
<path d="M16.5213 30.0436H15.6975V30.8673H16.5213V30.0436Z" fill="black"/>
<path d="M16.5213 29.2198H15.6975V30.0436H16.5213V29.2198Z" fill="black"/>
<path d="M16.5213 28.4036H15.6975V29.2199H16.5213V28.4036Z" fill="#D8B8B8"/>
<path d="M16.5213 27.5786H15.6975V28.4024H16.5213V27.5786Z" fill="#D8B8B8"/>
<path d="M16.5213 26.7623H15.6975V27.5786H16.5213V26.7623Z" fill="#D8B8B8"/>
<path d="M16.5213 25.9386H15.6975V26.7623H16.5213V25.9386Z" fill="#D8B8B8"/>
<path d="M16.5213 25.1224H15.6975V25.9386H16.5213V25.1224Z" fill="#D8B8B8"/>
<path d="M16.5213 24.2986H15.6975V25.1223H16.5213V24.2986Z" fill="black"/>
<path d="M15.6976 34.9648H14.8813V35.7886H15.6976V34.9648Z" fill="black"/>
<path d="M15.6976 34.1473H14.8813V34.9636H15.6976V34.1473Z" fill="#844141"/>
<path d="M15.6976 33.3248H14.8813V34.1486H15.6976V33.3248Z" fill="#844141"/>
<path d="M15.6976 32.5074H14.8813V33.3236H15.6976V32.5074Z" fill="black"/>
<path d="M15.6976 31.6836H14.8813V32.5073H15.6976V31.6836Z" fill="black"/>
<path d="M15.6976 30.8674H14.8813V31.6836H15.6976V30.8674Z" fill="black"/>
<path d="M15.6976 30.0436H14.8813V30.8673H15.6976V30.0436Z" fill="#D8B8B8"/>
<path d="M15.6976 29.2198H14.8813V30.0436H15.6976V29.2198Z" fill="#D8B8B8"/>
<path d="M15.6976 28.4036H14.8813V29.2199H15.6976V28.4036Z" fill="#D8B8B8"/>
<path d="M15.6976 27.5786H14.8813V28.4024H15.6976V27.5786Z" fill="#D8B8B8"/>
<path d="M15.6976 26.7623H14.8813V27.5786H15.6976V26.7623Z" fill="#D8B8B8"/>
<path d="M15.6976 25.9386H14.8813V26.7623H15.6976V25.9386Z" fill="#D8B8B8"/>
<path d="M15.6976 25.1224H14.8813V25.9386H15.6976V25.1224Z" fill="black"/>
<path d="M14.8814 34.9648H14.0576V35.7886H14.8814V34.9648Z" fill="black"/>
<path d="M14.8814 34.1473H14.0576V34.9636H14.8814V34.1473Z" fill="black"/>
<path d="M14.8814 33.3248H14.0576V34.1486H14.8814V33.3248Z" fill="black"/>
<path d="M14.8814 32.5074H14.0576V33.3236H14.8814V32.5074Z" fill="#D8B8B8"/>
<path d="M14.8814 31.6836H14.0576V32.5073H14.8814V31.6836Z" fill="#D8B8B8"/>
<path d="M14.8814 30.8674H14.0576V31.6836H14.8814V30.8674Z" fill="#D8B8B8"/>
<path d="M14.8814 30.0436H14.0576V30.8673H14.8814V30.0436Z" fill="#D8B8B8"/>
<path d="M14.8814 29.2198H14.0576V30.0436H14.8814V29.2198Z" fill="#D8B8B8"/>
<path d="M14.8814 28.4036H14.0576V29.2199H14.8814V28.4036Z" fill="#D8B8B8"/>
<path d="M14.8814 27.5786H14.0576V28.4024H14.8814V27.5786Z" fill="black"/>
<path d="M14.8814 26.7623H14.0576V27.5786H14.8814V26.7623Z" fill="black"/>
<path d="M14.8814 25.9386H14.0576V26.7623H14.8814V25.9386Z" fill="black"/>
<path d="M14.0577 36.6124H13.2415V37.4286H14.0577V36.6124Z" fill="black"/>
<path d="M14.0577 35.7886H13.2415V36.6123H14.0577V35.7886Z" fill="black"/>
<path d="M14.0577 34.9648H13.2415V35.7886H14.0577V34.9648Z" fill="black"/>
<path d="M14.0577 34.1473H13.2415V34.9636H14.0577V34.1473Z" fill="#A05252"/>
<path d="M14.0577 33.3248H13.2415V34.1486H14.0577V33.3248Z" fill="#A05252"/>
<path d="M14.0577 32.5074H13.2415V33.3236H14.0577V32.5074Z" fill="#D8B8B8"/>
<path d="M14.0577 31.6836H13.2415V32.5073H14.0577V31.6836Z" fill="#D8B8B8"/>
<path d="M14.0577 30.8674H13.2415V31.6836H14.0577V30.8674Z" fill="#D8B8B8"/>
<path d="M14.0577 30.0436H13.2415V30.8673H14.0577V30.0436Z" fill="#D8B8B8"/>
<path d="M14.0577 29.2198H13.2415V30.0436H14.0577V29.2198Z" fill="#D8B8B8"/>
<path d="M14.0577 28.4036H13.2415V29.2199H14.0577V28.4036Z" fill="black"/>
<path d="M13.2415 36.6124H12.4177V37.4286H13.2415V36.6124Z" fill="black"/>
<path d="M13.2415 35.7886H12.4177V36.6123H13.2415V35.7886Z" fill="#A05252"/>
<path d="M13.2415 34.9648H12.4177V35.7886H13.2415V34.9648Z" fill="#A05252"/>
<path d="M13.2415 34.1473H12.4177V34.9636H13.2415V34.1473Z" fill="#A05252"/>
<path d="M13.2415 33.3248H12.4177V34.1486H13.2415V33.3248Z" fill="#A05252"/>
<path d="M13.2415 32.5074H12.4177V33.3236H13.2415V32.5074Z" fill="#A05252"/>
<path d="M13.2415 31.6836H12.4177V32.5073H13.2415V31.6836Z" fill="#D8B8B8"/>
<path d="M13.2415 30.8674H12.4177V31.6836H13.2415V30.8674Z" fill="#D8B8B8"/>
<path d="M13.2415 30.0436H12.4177V30.8673H13.2415V30.0436Z" fill="black"/>
<path d="M13.2415 29.2198H12.4177V30.0436H13.2415V29.2198Z" fill="black"/>
<path d="M12.4176 35.7886H11.6013V36.6123H12.4176V35.7886Z" fill="black"/>
<path d="M12.4176 34.9648H11.6013V35.7886H12.4176V34.9648Z" fill="#A05252"/>
<path d="M12.4176 34.1473H11.6013V34.9636H12.4176V34.1473Z" fill="#A05252"/>
<path d="M12.4176 33.3248H11.6013V34.1486H12.4176V33.3248Z" fill="#A05252"/>
<path d="M12.4176 32.5074H11.6013V33.3236H12.4176V32.5074Z" fill="#A05252"/>
<path d="M12.4176 31.6836H11.6013V32.5073H12.4176V31.6836Z" fill="black"/>
<path d="M12.4176 30.8674H11.6013V31.6836H12.4176V30.8674Z" fill="black"/>
<path d="M11.6001 34.9648H10.7764V35.7886H11.6001V34.9648Z" fill="black"/>
<path d="M11.6001 34.1473H10.7764V34.9636H11.6001V34.1473Z" fill="black"/>
<path d="M11.6001 33.3248H10.7764V34.1486H11.6001V33.3248Z" fill="black"/>
<path d="M11.6001 32.5074H10.7764V33.3236H11.6001V32.5074Z" fill="black"/>
</g>
<defs>
<clipPath id="clip0_69_12161">
<rect width="50" height="50" fill="white" transform="translate(0 0.942383)"/>
</clipPath>
</defs>
</svg>
