<svg width="50" height="51" viewBox="0 0 50 51" fill="none" xmlns="http://www.w3.org/2000/svg">
<g clip-path="url(#clip0_69_12159)">
<path d="M24.9998 49.1649C37.8253 49.1649 48.2223 38.7678 48.2223 25.9424C48.2223 13.117 37.8253 2.71991 24.9998 2.71991C12.1744 2.71991 1.77734 13.117 1.77734 25.9424C1.77734 38.7678 12.1744 49.1649 24.9998 49.1649Z" fill="black"/>
<path d="M24.9998 50.0399C11.7123 50.0399 0.902344 39.2299 0.902344 25.9424C0.902344 12.6549 11.7123 1.84491 24.9998 1.84491C38.2873 1.84491 49.0973 12.6549 49.0973 25.9424C49.0973 39.2299 38.2873 50.0399 24.9998 50.0399ZM24.9998 3.59491C12.6773 3.59491 2.65234 13.6199 2.65234 25.9424C2.65234 38.2649 12.6773 48.2899 24.9998 48.2899C37.3223 48.2899 47.3473 38.2649 47.3473 25.9424C47.3473 13.6199 37.3223 3.59491 24.9998 3.59491Z" fill="#CFAA18"/>
<path d="M38.5962 25.7874H37.7949V26.5886H38.5962V25.7874Z" fill="black"/>
<path d="M38.5962 24.9949H37.7949V25.7886H38.5962V24.9949Z" fill="black"/>
<path d="M37.7934 27.3824H36.9922V28.1836H37.7934V27.3824Z" fill="black"/>
<path d="M37.7934 26.5898H36.9922V27.3836H37.7934V26.5898Z" fill="black"/>
<path d="M37.7934 24.1924H36.9922V24.9936H37.7934V24.1924Z" fill="black"/>
<path d="M36.9935 31.3749H36.1997V32.1761H36.9935V31.3749Z" fill="black"/>
<path d="M36.9935 28.1849H36.1997V28.9786H36.9935V28.1849Z" fill="black"/>
<path d="M36.9935 27.3824H36.1997V28.1836H36.9935V27.3824Z" fill="black"/>
<path d="M36.9935 23.3911H36.1997V24.1924H36.9935V23.3911Z" fill="black"/>
<path d="M36.9935 21.7961H36.1997V22.5974H36.9935V21.7961Z" fill="black"/>
<path d="M36.1987 39.3574H35.3975V40.1511H36.1987V39.3574Z" fill="black"/>
<path d="M36.1987 38.5561H35.3975V39.3573H36.1987V38.5561Z" fill="black"/>
<path d="M36.1987 32.1761H35.3975V32.9699H36.1987V32.1761Z" fill="black"/>
<path d="M36.1987 30.5736H35.3975V31.3749H36.1987V30.5736Z" fill="black"/>
<path d="M36.1987 29.7798H35.3975V30.5736H36.1987V29.7798Z" fill="black"/>
<path d="M36.1987 28.9774H35.3975V29.7786H36.1987V28.9774Z" fill="black"/>
<path d="M36.1987 28.1849H35.3975V28.9786H36.1987V28.1849Z" fill="black"/>
<path d="M36.1987 22.5974H35.3975V23.3911H36.1987V22.5974Z" fill="black"/>
<path d="M36.1987 21.0024H35.3975V21.7961H36.1987V21.0024Z" fill="black"/>
<path d="M35.3973 40.1523H34.6035V40.9536H35.3973V40.1523Z" fill="black"/>
<path d="M35.3973 37.7624H34.6035V38.5561H35.3973V37.7624Z" fill="black"/>
<path d="M35.3973 36.1599H34.6035V36.9611H35.3973V36.1599Z" fill="black"/>
<path d="M35.3973 35.3649H34.6035V36.1586H35.3973V35.3649Z" fill="black"/>
<path d="M35.3973 34.5649H34.6035V35.3661H35.3973V34.5649Z" fill="black"/>
<path d="M35.3973 32.1761H34.6035V32.9699H35.3973V32.1761Z" fill="black"/>
<path d="M35.3973 29.7798H34.6035V30.5736H35.3973V29.7798Z" fill="black"/>
<path d="M35.3973 23.3911H34.6035V24.1924H35.3973V23.3911Z" fill="black"/>
<path d="M35.3973 20.2011H34.6035V21.0024H35.3973V20.2011Z" fill="black"/>
<path d="M34.6035 40.1523H33.8022V40.9536H34.6035V40.1523Z" fill="black"/>
<path d="M34.6035 36.9611H33.8022V37.7624H34.6035V36.9611Z" fill="black"/>
<path d="M34.6035 36.1599H33.8022V36.9611H34.6035V36.1599Z" fill="black"/>
<path d="M34.6035 34.5649H33.8022V35.3661H34.6035V34.5649Z" fill="black"/>
<path d="M34.6035 33.7711H33.8022V34.5649H34.6035V33.7711Z" fill="black"/>
<path d="M34.6035 32.9698H33.8022V33.7711H34.6035V32.9698Z" fill="black"/>
<path d="M34.6035 32.1761H33.8022V32.9699H34.6035V32.1761Z" fill="black"/>
<path d="M34.6035 28.9774H33.8022V29.7786H34.6035V28.9774Z" fill="black"/>
<path d="M34.6035 26.5898H33.8022V27.3836H34.6035V26.5898Z" fill="black"/>
<path d="M34.6035 25.7874H33.8022V26.5886H34.6035V25.7874Z" fill="black"/>
<path d="M34.6035 24.9949H33.8022V25.7886H34.6035V24.9949Z" fill="black"/>
<path d="M34.6035 24.1924H33.8022V24.9936H34.6035V24.1924Z" fill="black"/>
<path d="M34.6035 20.2011H33.8022V21.0024H34.6035V20.2011Z" fill="black"/>
<path d="M34.6035 19.4073H33.8022V20.2011H34.6035V19.4073Z" fill="black"/>
<path d="M33.8025 40.1523H33.0088V40.9536H33.8025V40.1523Z" fill="black"/>
<path d="M33.8025 36.1599H33.0088V36.9611H33.8025V36.1599Z" fill="black"/>
<path d="M33.8025 34.5649H33.0088V35.3661H33.8025V34.5649Z" fill="black"/>
<path d="M33.8025 31.3749H33.0088V32.1761H33.8025V31.3749Z" fill="black"/>
<path d="M33.8025 28.9774H33.0088V29.7786H33.8025V28.9774Z" fill="black"/>
<path d="M33.8025 28.1849H33.0088V28.9786H33.8025V28.1849Z" fill="black"/>
<path d="M33.8025 27.3824H33.0088V28.1836H33.8025V27.3824Z" fill="black"/>
<path d="M33.8025 18.6061H33.0088V19.4074H33.8025V18.6061Z" fill="black"/>
<path d="M33.0097 40.1523H32.2085V40.9536H33.0097V40.1523Z" fill="black"/>
<path d="M33.0097 36.1599H32.2085V36.9611H33.0097V36.1599Z" fill="black"/>
<path d="M33.0097 34.5649H32.2085V35.3661H33.0097V34.5649Z" fill="black"/>
<path d="M33.0097 30.5736H32.2085V31.3749H33.0097V30.5736Z" fill="black"/>
<path d="M33.0097 29.7798H32.2085V30.5736H33.0097V29.7798Z" fill="black"/>
<path d="M33.0097 19.4073H32.2085V20.2011H33.0097V19.4073Z" fill="black"/>
<path d="M32.2075 40.1523H31.4062V40.9536H32.2075V40.1523Z" fill="black"/>
<path d="M32.2075 36.1599H31.4062V36.9611H32.2075V36.1599Z" fill="black"/>
<path d="M32.2075 34.5649H31.4062V35.3661H32.2075V34.5649Z" fill="black"/>
<path d="M32.2075 30.5736H31.4062V31.3749H32.2075V30.5736Z" fill="black"/>
<path d="M32.2075 18.6061H31.4062V19.4074H32.2075V18.6061Z" fill="black"/>
<path d="M31.4061 40.1523H30.6123V40.9536H31.4061V40.1523Z" fill="black"/>
<path d="M31.4061 36.9611H30.6123V37.7624H31.4061V36.9611Z" fill="black"/>
<path d="M31.4061 36.1599H30.6123V36.9611H31.4061V36.1599Z" fill="black"/>
<path d="M31.4061 34.5649H30.6123V35.3661H31.4061V34.5649Z" fill="black"/>
<path d="M31.4061 31.3749H30.6123V32.1761H31.4061V31.3749Z" fill="black"/>
<path d="M31.4061 17.8049H30.6123V18.6061H31.4061V17.8049Z" fill="black"/>
<path d="M31.4061 17.0111H30.6123V17.8049H31.4061V17.0111Z" fill="black"/>
<path d="M31.4061 16.2098H30.6123V17.0111H31.4061V16.2098Z" fill="black"/>
<path d="M30.6123 39.3574H29.811V40.1511H30.6123V39.3574Z" fill="black"/>
<path d="M30.6123 38.5561H29.811V39.3573H30.6123V38.5561Z" fill="black"/>
<path d="M30.6123 37.7624H29.811V38.5561H30.6123V37.7624Z" fill="black"/>
<path d="M30.6123 36.1599H29.811V36.9611H30.6123V36.1599Z" fill="black"/>
<path d="M30.6123 35.3649H29.811V36.1586H30.6123V35.3649Z" fill="black"/>
<path d="M30.6123 34.5649H29.811V35.3661H30.6123V34.5649Z" fill="black"/>
<path d="M30.6123 33.7711H29.811V34.5649H30.6123V33.7711Z" fill="black"/>
<path d="M30.6123 32.9698H29.811V33.7711H30.6123V32.9698Z" fill="black"/>
<path d="M30.6123 32.1761H29.811V32.9699H30.6123V32.1761Z" fill="black"/>
<path d="M30.6123 17.8049H29.811V18.6061H30.6123V17.8049Z" fill="black"/>
<path d="M30.6123 15.4161H29.811V16.2099H30.6123V15.4161Z" fill="black"/>
<path d="M29.8108 32.9698H29.0171V33.7711H29.8108V32.9698Z" fill="black"/>
<path d="M29.8108 18.6061H29.0171V19.4074H29.8108V18.6061Z" fill="black"/>
<path d="M29.8108 14.6149H29.0171V15.4161H29.8108V14.6149Z" fill="black"/>
<path d="M29.0176 39.3574H28.2163V40.1511H29.0176V39.3574Z" fill="black"/>
<path d="M29.0176 38.5561H28.2163V39.3573H29.0176V38.5561Z" fill="black"/>
<path d="M29.0176 37.7624H28.2163V38.5561H29.0176V37.7624Z" fill="black"/>
<path d="M29.0176 36.9611H28.2163V37.7624H29.0176V36.9611Z" fill="black"/>
<path d="M29.0176 36.1599H28.2163V36.9611H29.0176V36.1599Z" fill="black"/>
<path d="M29.0176 35.3649H28.2163V36.1586H29.0176V35.3649Z" fill="black"/>
<path d="M29.0176 34.5649H28.2163V35.3661H29.0176V34.5649Z" fill="black"/>
<path d="M29.0176 33.7711H28.2163V34.5649H29.0176V33.7711Z" fill="black"/>
<path d="M29.0176 18.6061H28.2163V19.4074H29.0176V18.6061Z" fill="black"/>
<path d="M29.0176 14.6149H28.2163V15.4161H29.0176V14.6149Z" fill="black"/>
<path d="M28.2146 40.1523H27.4209V40.9536H28.2146V40.1523Z" fill="black"/>
<path d="M28.2146 36.1599H27.4209V36.9611H28.2146V36.1599Z" fill="black"/>
<path d="M28.2146 34.5649H27.4209V35.3661H28.2146V34.5649Z" fill="black"/>
<path d="M28.2146 32.9698H27.4209V33.7711H28.2146V32.9698Z" fill="black"/>
<path d="M28.2146 32.1761H27.4209V32.9699H28.2146V32.1761Z" fill="black"/>
<path d="M28.2146 31.3749H27.4209V32.1761H28.2146V31.3749Z" fill="black"/>
<path d="M28.2146 18.6061H27.4209V19.4074H28.2146V18.6061Z" fill="black"/>
<path d="M28.2146 14.6149H27.4209V15.4161H28.2146V14.6149Z" fill="black"/>
<path d="M27.4238 40.1523H26.6226V40.9536H27.4238V40.1523Z" fill="black"/>
<path d="M27.4238 36.1599H26.6226V36.9611H27.4238V36.1599Z" fill="black"/>
<path d="M27.4238 34.5649H26.6226V35.3661H27.4238V34.5649Z" fill="black"/>
<path d="M27.4238 30.5736H26.6226V31.3749H27.4238V30.5736Z" fill="black"/>
<path d="M27.4238 18.6061H26.6226V19.4074H27.4238V18.6061Z" fill="black"/>
<path d="M27.4238 14.6149H26.6226V15.4161H27.4238V14.6149Z" fill="black"/>
<path d="M26.6199 40.1523H25.8262V40.9536H26.6199V40.1523Z" fill="black"/>
<path d="M26.6199 36.1599H25.8262V36.9611H26.6199V36.1599Z" fill="black"/>
<path d="M26.6199 34.5649H25.8262V35.3661H26.6199V34.5649Z" fill="black"/>
<path d="M26.6199 29.7798H25.8262V30.5736H26.6199V29.7798Z" fill="black"/>
<path d="M26.6199 18.6061H25.8262V19.4074H26.6199V18.6061Z" fill="black"/>
<path d="M26.6199 14.6149H25.8262V15.4161H26.6199V14.6149Z" fill="black"/>
<path d="M25.8271 40.1523H25.0259V40.9536H25.8271V40.1523Z" fill="black"/>
<path d="M25.8271 36.1599H25.0259V36.9611H25.8271V36.1599Z" fill="black"/>
<path d="M25.8271 34.5649H25.0259V35.3661H25.8271V34.5649Z" fill="black"/>
<path d="M25.8271 29.7798H25.0259V30.5736H25.8271V29.7798Z" fill="black"/>
<path d="M25.8271 18.6061H25.0259V19.4074H25.8271V18.6061Z" fill="black"/>
<path d="M25.8271 15.4161H25.0259V16.2099H25.8271V15.4161Z" fill="black"/>
<path d="M25.0259 40.1523H24.2246V40.9536H25.0259V40.1523Z" fill="black"/>
<path d="M25.0259 37.7624H24.2246V38.5561H25.0259V37.7624Z" fill="black"/>
<path d="M25.0259 36.9611H24.2246V37.7624H25.0259V36.9611Z" fill="black"/>
<path d="M25.0259 36.1599H24.2246V36.9611H25.0259V36.1599Z" fill="black"/>
<path d="M25.0259 34.5649H24.2246V35.3661H25.0259V34.5649Z" fill="black"/>
<path d="M25.0259 33.7711H24.2246V34.5649H25.0259V33.7711Z" fill="black"/>
<path d="M25.0259 32.9698H24.2246V33.7711H25.0259V32.9698Z" fill="black"/>
<path d="M25.0259 32.1761H24.2246V32.9699H25.0259V32.1761Z" fill="black"/>
<path d="M25.0259 31.3749H24.2246V32.1761H25.0259V31.3749Z" fill="black"/>
<path d="M25.0259 30.5736H24.2246V31.3749H25.0259V30.5736Z" fill="black"/>
<path d="M25.0259 19.4073H24.2246V20.2011H25.0259V19.4073Z" fill="black"/>
<path d="M25.0259 16.2098H24.2246V17.0111H25.0259V16.2098Z" fill="black"/>
<path d="M24.2249 40.1523H23.4312V40.9536H24.2249V40.1523Z" fill="black"/>
<path d="M24.2249 37.7624H23.4312V38.5561H24.2249V37.7624Z" fill="black"/>
<path d="M24.2249 36.1599H23.4312V36.9611H24.2249V36.1599Z" fill="black"/>
<path d="M24.2249 35.3649H23.4312V36.1586H24.2249V35.3649Z" fill="black"/>
<path d="M24.2249 34.5649H23.4312V35.3661H24.2249V34.5649Z" fill="black"/>
<path d="M24.2249 31.3749H23.4312V32.1761H24.2249V31.3749Z" fill="black"/>
<path d="M24.2249 28.9774H23.4312V29.7786H24.2249V28.9774Z" fill="black"/>
<path d="M24.2249 28.1849H23.4312V28.9786H24.2249V28.1849Z" fill="black"/>
<path d="M24.2249 21.7961H23.4312V22.5974H24.2249V21.7961Z" fill="black"/>
<path d="M24.2249 21.0024H23.4312V21.7961H24.2249V21.0024Z" fill="black"/>
<path d="M24.2249 20.2011H23.4312V21.0024H24.2249V20.2011Z" fill="black"/>
<path d="M24.2249 19.4073H23.4312V20.2011H24.2249V19.4073Z" fill="black"/>
<path d="M24.2249 18.6061H23.4312V19.4074H24.2249V18.6061Z" fill="black"/>
<path d="M24.2249 17.8049H23.4312V18.6061H24.2249V17.8049Z" fill="black"/>
<path d="M24.2249 17.0111H23.4312V17.8049H24.2249V17.0111Z" fill="black"/>
<path d="M23.4311 40.1523H22.6299V40.9536H23.4311V40.1523Z" fill="black"/>
<path d="M23.4311 37.7624H22.6299V38.5561H23.4311V37.7624Z" fill="black"/>
<path d="M23.4311 30.5736H22.6299V31.3749H23.4311V30.5736Z" fill="black"/>
<path d="M23.4311 29.7798H22.6299V30.5736H23.4311V29.7798Z" fill="black"/>
<path d="M23.4311 27.3824H22.6299V28.1836H23.4311V27.3824Z" fill="black"/>
<path d="M23.4311 26.5898H22.6299V27.3836H23.4311V26.5898Z" fill="black"/>
<path d="M23.4311 25.7874H22.6299V26.5886H23.4311V25.7874Z" fill="black"/>
<path d="M23.4311 24.9949H22.6299V25.7886H23.4311V24.9949Z" fill="black"/>
<path d="M23.4311 24.1924H22.6299V24.9936H23.4311V24.1924Z" fill="black"/>
<path d="M23.4311 23.3911H22.6299V24.1924H23.4311V23.3911Z" fill="black"/>
<path d="M23.4311 22.5974H22.6299V23.3911H23.4311V22.5974Z" fill="black"/>
<path d="M23.4311 20.2011H22.6299V21.0024H23.4311V20.2011Z" fill="black"/>
<path d="M22.6297 39.3574H21.8359V40.1511H22.6297V39.3574Z" fill="black"/>
<path d="M22.6297 38.5561H21.8359V39.3573H22.6297V38.5561Z" fill="black"/>
<path d="M22.6297 25.7874H21.8359V26.5886H22.6297V25.7874Z" fill="black"/>
<path d="M22.6297 21.0024H21.8359V21.7961H22.6297V21.0024Z" fill="black"/>
<path d="M21.8349 26.5898H21.0337V27.3836H21.8349V26.5898Z" fill="black"/>
<path d="M21.8349 21.7961H21.0337V22.5974H21.8349V21.7961Z" fill="black"/>
<path d="M21.0335 26.5898H20.2397V27.3836H21.0335V26.5898Z" fill="black"/>
<path d="M21.0335 24.1924H20.2397V24.9936H21.0335V24.1924Z" fill="black"/>
<path d="M21.0335 23.3911H20.2397V24.1924H21.0335V23.3911Z" fill="black"/>
<path d="M21.0335 22.5974H20.2397V23.3911H21.0335V22.5974Z" fill="black"/>
<path d="M21.0335 21.0024H20.2397V21.7961H21.0335V21.0024Z" fill="black"/>
<path d="M21.0335 20.2011H20.2397V21.0024H21.0335V20.2011Z" fill="black"/>
<path d="M21.0335 19.4073H20.2397V20.2011H21.0335V19.4073Z" fill="black"/>
<path d="M21.0335 18.6061H20.2397V19.4074H21.0335V18.6061Z" fill="black"/>
<path d="M21.0335 17.8049H20.2397V18.6061H21.0335V17.8049Z" fill="black"/>
<path d="M21.0335 17.0111H20.2397V17.8049H21.0335V17.0111Z" fill="black"/>
<path d="M20.2412 27.3824H19.4399V28.1836H20.2412V27.3824Z" fill="black"/>
<path d="M20.2412 24.1924H19.4399V24.9936H20.2412V24.1924Z" fill="black"/>
<path d="M20.2412 21.7961H19.4399V22.5974H20.2412V21.7961Z" fill="black"/>
<path d="M20.2412 16.2098H19.4399V17.0111H20.2412V16.2098Z" fill="black"/>
<path d="M19.4385 27.3824H18.6372V28.1836H19.4385V27.3824Z" fill="black"/>
<path d="M19.4385 24.9949H18.6372V25.7886H19.4385V24.9949Z" fill="black"/>
<path d="M19.4385 21.0024H18.6372V21.7961H19.4385V21.0024Z" fill="black"/>
<path d="M19.4385 17.0111H18.6372V17.8049H19.4385V17.0111Z" fill="black"/>
<path d="M18.6385 34.5649H17.8447V35.3661H18.6385V34.5649Z" fill="black"/>
<path d="M18.6385 33.7711H17.8447V34.5649H18.6385V33.7711Z" fill="black"/>
<path d="M18.6385 28.1849H17.8447V28.9786H18.6385V28.1849Z" fill="black"/>
<path d="M18.6385 25.7874H17.8447V26.5886H18.6385V25.7874Z" fill="black"/>
<path d="M18.6385 20.2011H17.8447V21.0024H18.6385V20.2011Z" fill="black"/>
<path d="M18.6385 17.8049H17.8447V18.6061H18.6385V17.8049Z" fill="black"/>
<path d="M18.6385 15.4161H17.8447V16.2099H18.6385V15.4161Z" fill="black"/>
<path d="M17.8437 35.3649H17.0425V36.1586H17.8437V35.3649Z" fill="black"/>
<path d="M17.8437 32.9698H17.0425V33.7711H17.8437V32.9698Z" fill="black"/>
<path d="M17.8437 32.1761H17.0425V32.9699H17.8437V32.1761Z" fill="black"/>
<path d="M17.8437 31.3749H17.0425V32.1761H17.8437V31.3749Z" fill="black"/>
<path d="M17.8437 30.5736H17.0425V31.3749H17.8437V30.5736Z" fill="black"/>
<path d="M17.8437 29.7798H17.0425V30.5736H17.8437V29.7798Z" fill="black"/>
<path d="M17.8437 28.9774H17.0425V29.7786H17.8437V28.9774Z" fill="black"/>
<path d="M17.8437 24.9949H17.0425V25.7886H17.8437V24.9949Z" fill="black"/>
<path d="M17.8437 24.1924H17.0425V24.9936H17.8437V24.1924Z" fill="black"/>
<path d="M17.8437 23.3911H17.0425V24.1924H17.8437V23.3911Z" fill="black"/>
<path d="M17.8437 22.5974H17.0425V23.3911H17.8437V22.5974Z" fill="black"/>
<path d="M17.8437 21.7961H17.0425V22.5974H17.8437V21.7961Z" fill="black"/>
<path d="M17.8437 21.0024H17.0425V21.7961H17.8437V21.0024Z" fill="black"/>
<path d="M17.8437 20.2011H17.0425V21.0024H17.8437V20.2011Z" fill="black"/>
<path d="M17.8437 19.4073H17.0425V20.2011H17.8437V19.4073Z" fill="black"/>
<path d="M17.8437 18.6061H17.0425V19.4074H17.8437V18.6061Z" fill="black"/>
<path d="M17.8437 17.8049H17.0425V18.6061H17.8437V17.8049Z" fill="black"/>
<path d="M17.8437 17.0111H17.0425V17.8049H17.8437V17.0111Z" fill="black"/>
<path d="M17.8437 16.2098H17.0425V17.0111H17.8437V16.2098Z" fill="black"/>
<path d="M17.8437 14.6149H17.0425V15.4161H17.8437V14.6149Z" fill="black"/>
<path d="M17.0423 36.1599H16.2485V36.9611H17.0423V36.1599Z" fill="black"/>
<path d="M17.0423 28.9774H16.2485V29.7786H17.0423V28.9774Z" fill="black"/>
<path d="M17.0423 24.1924H16.2485V24.9936H17.0423V24.1924Z" fill="black"/>
<path d="M17.0423 14.6149H16.2485V15.4161H17.0423V14.6149Z" fill="black"/>
<path d="M16.2485 35.3649H15.4473V36.1586H16.2485V35.3649Z" fill="black"/>
<path d="M16.2485 32.9698H15.4473V33.7711H16.2485V32.9698Z" fill="black"/>
<path d="M16.2485 32.1761H15.4473V32.9699H16.2485V32.1761Z" fill="black"/>
<path d="M16.2485 31.3749H15.4473V32.1761H16.2485V31.3749Z" fill="black"/>
<path d="M16.2485 30.5736H15.4473V31.3749H16.2485V30.5736Z" fill="black"/>
<path d="M16.2485 29.7798H15.4473V30.5736H16.2485V29.7798Z" fill="black"/>
<path d="M16.2485 28.9774H15.4473V29.7786H16.2485V28.9774Z" fill="black"/>
<path d="M16.2485 24.1924H15.4473V24.9936H16.2485V24.1924Z" fill="black"/>
<path d="M16.2485 23.3911H15.4473V24.1924H16.2485V23.3911Z" fill="black"/>
<path d="M16.2485 22.5974H15.4473V23.3911H16.2485V22.5974Z" fill="black"/>
<path d="M16.2485 21.7961H15.4473V22.5974H16.2485V21.7961Z" fill="black"/>
<path d="M16.2485 21.0024H15.4473V21.7961H16.2485V21.0024Z" fill="black"/>
<path d="M16.2485 20.2011H15.4473V21.0024H16.2485V20.2011Z" fill="black"/>
<path d="M16.2485 19.4073H15.4473V20.2011H16.2485V19.4073Z" fill="black"/>
<path d="M16.2485 18.6061H15.4473V19.4074H16.2485V18.6061Z" fill="black"/>
<path d="M16.2485 17.8049H15.4473V18.6061H16.2485V17.8049Z" fill="black"/>
<path d="M16.2485 17.0111H15.4473V17.8049H16.2485V17.0111Z" fill="black"/>
<path d="M16.2485 16.2098H15.4473V17.0111H16.2485V16.2098Z" fill="black"/>
<path d="M16.2485 14.6149H15.4473V15.4161H16.2485V14.6149Z" fill="black"/>
<path d="M15.4476 34.5649H14.6538V35.3661H15.4476V34.5649Z" fill="black"/>
<path d="M15.4476 33.7711H14.6538V34.5649H15.4476V33.7711Z" fill="black"/>
<path d="M15.4476 28.1849H14.6538V28.9786H15.4476V28.1849Z" fill="black"/>
<path d="M15.4476 27.3824H14.6538V28.1836H15.4476V27.3824Z" fill="black"/>
<path d="M15.4476 26.5898H14.6538V27.3836H15.4476V26.5898Z" fill="black"/>
<path d="M15.4476 25.7874H14.6538V26.5886H15.4476V25.7874Z" fill="black"/>
<path d="M15.4476 24.9949H14.6538V25.7886H15.4476V24.9949Z" fill="black"/>
<path d="M15.4476 20.2011H14.6538V21.0024H15.4476V20.2011Z" fill="black"/>
<path d="M15.4476 17.8049H14.6538V18.6061H15.4476V17.8049Z" fill="black"/>
<path d="M15.4476 15.4161H14.6538V16.2099H15.4476V15.4161Z" fill="black"/>
<path d="M14.6538 20.2011H13.8525V21.0024H14.6538V20.2011Z" fill="black"/>
<path d="M14.6538 17.8049H13.8525V18.6061H14.6538V17.8049Z" fill="black"/>
<path d="M13.8523 21.0024H13.0586V21.7961H13.8523V21.0024Z" fill="black"/>
<path d="M13.8523 17.0111H13.0586V17.8049H13.8523V17.0111Z" fill="black"/>
<path d="M13.0586 22.5974H12.2573V23.3911H13.0586V22.5974Z" fill="black"/>
<path d="M13.0586 21.7961H12.2573V22.5974H13.0586V21.7961Z" fill="black"/>
<path d="M13.0586 16.2098H12.2573V17.0111H13.0586V16.2098Z" fill="black"/>
<path d="M13.0586 15.4161H12.2573V16.2099H13.0586V15.4161Z" fill="black"/>
<path d="M37.7913 25.7874H36.9976V26.5887H37.7913V25.7874Z" fill="#373370"/>
<path d="M37.7913 24.9949H36.9976V25.7886H37.7913V24.9949Z" fill="#373370"/>
<path d="M36.9985 26.5899H36.1973V27.3837H36.9985V26.5899Z" fill="#373370"/>
<path d="M36.9985 25.7874H36.1973V26.5887H36.9985V25.7874Z" fill="#373370"/>
<path d="M36.9985 24.9949H36.1973V25.7886H36.9985V24.9949Z" fill="#373370"/>
<path d="M36.9985 24.1924H36.1973V24.9936H36.9985V24.1924Z" fill="#373370"/>
<path d="M36.1961 31.3749H35.4023V32.1761H36.1961V31.3749Z" fill="#E2A066"/>
<path d="M36.1961 27.3824H35.4023V28.1836H36.1961V27.3824Z" fill="#373370"/>
<path d="M36.1961 26.5899H35.4023V27.3837H36.1961V26.5899Z" fill="#373370"/>
<path d="M36.1961 25.7874H35.4023V26.5887H36.1961V25.7874Z" fill="#453D7C"/>
<path d="M36.1961 24.9949H35.4023V25.7886H36.1961V24.9949Z" fill="#453D7C"/>
<path d="M36.1961 24.1924H35.4023V24.9936H36.1961V24.1924Z" fill="#373370"/>
<path d="M36.1961 23.3911H35.4023V24.1924H36.1961V23.3911Z" fill="#373370"/>
<path d="M36.1961 21.7961H35.4023V22.5974H36.1961V21.7961Z" fill="#CFAA18"/>
<path d="M35.4023 39.3574H34.6011V40.1511H35.4023V39.3574Z" fill="#7C6916"/>
<path d="M35.4023 38.5562H34.6011V39.3574H35.4023V38.5562Z" fill="#7C6916"/>
<path d="M35.4023 31.3749H34.6011V32.1761H35.4023V31.3749Z" fill="#E2A066"/>
<path d="M35.4023 30.5736H34.6011V31.3749H35.4023V30.5736Z" fill="#E2A066"/>
<path d="M35.4023 28.9774H34.6011V29.7787H35.4023V28.9774Z" fill="#453D7C"/>
<path d="M35.4023 28.1849H34.6011V28.9786H35.4023V28.1849Z" fill="#453D7C"/>
<path d="M35.4023 27.3824H34.6011V28.1836H35.4023V27.3824Z" fill="#453D7C"/>
<path d="M35.4023 26.5899H34.6011V27.3837H35.4023V26.5899Z" fill="#453D7C"/>
<path d="M35.4023 25.7874H34.6011V26.5887H35.4023V25.7874Z" fill="#453D7C"/>
<path d="M35.4023 24.9949H34.6011V25.7886H35.4023V24.9949Z" fill="#453D7C"/>
<path d="M35.4023 24.1924H34.6011V24.9936H35.4023V24.1924Z" fill="#453D7C"/>
<path d="M35.4023 22.5974H34.6011V23.3912H35.4023V22.5974Z" fill="#CFAA18"/>
<path d="M35.4023 21.7961H34.6011V22.5974H35.4023V21.7961Z" fill="#CFAA18"/>
<path d="M35.4023 21.0024H34.6011V21.7961H35.4023V21.0024Z" fill="#CFAA18"/>
<path d="M34.6014 39.3574H33.8076V40.1511H34.6014V39.3574Z" fill="#7C6916"/>
<path d="M34.6014 38.5562H33.8076V39.3574H34.6014V38.5562Z" fill="#7C6916"/>
<path d="M34.6014 37.7624H33.8076V38.5561H34.6014V37.7624Z" fill="#7C6916"/>
<path d="M34.6014 35.3649H33.8076V36.1586H34.6014V35.3649Z" fill="#7C6916"/>
<path d="M34.6014 31.3749H33.8076V32.1761H34.6014V31.3749Z" fill="#E2A066"/>
<path d="M34.6014 30.5736H33.8076V31.3749H34.6014V30.5736Z" fill="#E2A066"/>
<path d="M34.6014 29.7799H33.8076V30.5737H34.6014V29.7799Z" fill="#E2A066"/>
<path d="M34.6014 28.1849H33.8076V28.9786H34.6014V28.1849Z" fill="#453D7C"/>
<path d="M34.6014 27.3824H33.8076V28.1836H34.6014V27.3824Z" fill="#453D7C"/>
<path d="M34.6014 23.3911H33.8076V24.1924H34.6014V23.3911Z" fill="#CFAA18"/>
<path d="M34.6014 22.5974H33.8076V23.3912H34.6014V22.5974Z" fill="#B28A0D"/>
<path d="M34.6014 21.7961H33.8076V22.5974H34.6014V21.7961Z" fill="#B28A0D"/>
<path d="M34.6014 21.0024H33.8076V21.7961H34.6014V21.0024Z" fill="#CFAA18"/>
<path d="M33.8076 39.3574H33.0063V40.1511H33.8076V39.3574Z" fill="#A18824"/>
<path d="M33.8076 38.5562H33.0063V39.3574H33.8076V38.5562Z" fill="#7C6916"/>
<path d="M33.8076 37.7624H33.0063V38.5561H33.8076V37.7624Z" fill="#7C6916"/>
<path d="M33.8076 36.9611H33.0063V37.7624H33.8076V36.9611Z" fill="#7C6916"/>
<path d="M33.8076 35.3649H33.0063V36.1586H33.8076V35.3649Z" fill="#7C6916"/>
<path d="M33.8076 33.7711H33.0063V34.5649H33.8076V33.7711Z" fill="#373370"/>
<path d="M33.8076 32.9699H33.0063V33.7712H33.8076V32.9699Z" fill="#373370"/>
<path d="M33.8076 32.1761H33.0063V32.9699H33.8076V32.1761Z" fill="#373370"/>
<path d="M33.8076 30.5736H33.0063V31.3749H33.8076V30.5736Z" fill="#E2A066"/>
<path d="M33.8076 29.7799H33.0063V30.5737H33.8076V29.7799Z" fill="#E2A066"/>
<path d="M33.8076 26.5899H33.0063V27.3837H33.8076V26.5899Z" fill="#CFAA18"/>
<path d="M33.8076 25.7874H33.0063V26.5887H33.8076V25.7874Z" fill="#CFAA18"/>
<path d="M33.8076 24.9949H33.0063V25.7886H33.8076V24.9949Z" fill="#CFAA18"/>
<path d="M33.8076 24.1924H33.0063V24.9936H33.8076V24.1924Z" fill="#CFAA18"/>
<path d="M33.8076 23.3911H33.0063V24.1924H33.8076V23.3911Z" fill="#CFAA18"/>
<path d="M33.8076 22.5974H33.0063V23.3912H33.8076V22.5974Z" fill="#CFAA18"/>
<path d="M33.8076 21.7961H33.0063V22.5974H33.8076V21.7961Z" fill="#B28A0D"/>
<path d="M33.8076 21.0024H33.0063V21.7961H33.8076V21.0024Z" fill="#B28A0D"/>
<path d="M33.8076 20.2011H33.0063V21.0024H33.8076V20.2011Z" fill="#CFAA18"/>
<path d="M33.8076 19.4074H33.0063V20.2012H33.8076V19.4074Z" fill="#CFAA18"/>
<path d="M33.0063 39.3574H32.2051V40.1511H33.0063V39.3574Z" fill="#A18824"/>
<path d="M33.0063 38.5562H32.2051V39.3574H33.0063V38.5562Z" fill="#A18824"/>
<path d="M33.0063 37.7624H32.2051V38.5561H33.0063V37.7624Z" fill="#A18824"/>
<path d="M33.0063 36.9611H32.2051V37.7624H33.0063V36.9611Z" fill="#A18824"/>
<path d="M33.0063 35.3649H32.2051V36.1586H33.0063V35.3649Z" fill="#7C6916"/>
<path d="M33.0063 33.7711H32.2051V34.5649H33.0063V33.7711Z" fill="#373370"/>
<path d="M33.0063 32.9699H32.2051V33.7712H33.0063V32.9699Z" fill="#373370"/>
<path d="M33.0063 32.1761H32.2051V32.9699H33.0063V32.1761Z" fill="#373370"/>
<path d="M33.0063 31.3749H32.2051V32.1761H33.0063V31.3749Z" fill="#373370"/>
<path d="M33.0063 28.9774H32.2051V29.7787H33.0063V28.9774Z" fill="#CFAA18"/>
<path d="M33.0063 28.1849H32.2051V28.9786H33.0063V28.1849Z" fill="#CFAA18"/>
<path d="M33.0063 27.3824H32.2051V28.1836H33.0063V27.3824Z" fill="#CFAA18"/>
<path d="M33.0063 26.5899H32.2051V27.3837H33.0063V26.5899Z" fill="#CFAA18"/>
<path d="M33.0063 25.7874H32.2051V26.5887H33.0063V25.7874Z" fill="#CFAA18"/>
<path d="M33.0063 24.9949H32.2051V25.7886H33.0063V24.9949Z" fill="#B28A0D"/>
<path d="M33.0063 24.1924H32.2051V24.9936H33.0063V24.1924Z" fill="#B28A0D"/>
<path d="M33.0063 23.3911H32.2051V24.1924H33.0063V23.3911Z" fill="#CFAA18"/>
<path d="M33.0063 22.5974H32.2051V23.3912H33.0063V22.5974Z" fill="#CFAA18"/>
<path d="M33.0063 21.7961H32.2051V22.5974H33.0063V21.7961Z" fill="#CFAA18"/>
<path d="M33.0063 21.0024H32.2051V21.7961H33.0063V21.0024Z" fill="#CFAA18"/>
<path d="M33.0063 20.2011H32.2051V21.0024H33.0063V20.2011Z" fill="#CFAA18"/>
<path d="M33.0063 14.6149H32.2051V15.4161H33.0063V14.6149Z" fill="black"/>
<path d="M33.0063 13.8211H32.2051V14.6149H33.0063V13.8211Z" fill="black"/>
<path d="M33.0063 13.0199H32.2051V13.8211H33.0063V13.0199Z" fill="black"/>
<path d="M33.0063 12.2261H32.2051V13.0199H33.0063V12.2261Z" fill="black"/>
<path d="M32.2039 39.3574H31.4102V40.1511H32.2039V39.3574Z" fill="#A18824"/>
<path d="M32.2039 38.5562H31.4102V39.3574H32.2039V38.5562Z" fill="#A18824"/>
<path d="M32.2039 37.7624H31.4102V38.5561H32.2039V37.7624Z" fill="#A18824"/>
<path d="M32.2039 36.9611H31.4102V37.7624H32.2039V36.9611Z" fill="#A18824"/>
<path d="M32.2039 35.3649H31.4102V36.1586H32.2039V35.3649Z" fill="#A18824"/>
<path d="M32.2039 33.7711H31.4102V34.5649H32.2039V33.7711Z" fill="#453D7C"/>
<path d="M32.2039 32.9699H31.4102V33.7712H32.2039V32.9699Z" fill="#453D7C"/>
<path d="M32.2039 32.1761H31.4102V32.9699H32.2039V32.1761Z" fill="#453D7C"/>
<path d="M32.2039 31.3749H31.4102V32.1761H32.2039V31.3749Z" fill="#373370"/>
<path d="M32.2039 29.7799H31.4102V30.5737H32.2039V29.7799Z" fill="#CFAA18"/>
<path d="M32.2039 28.9774H31.4102V29.7787H32.2039V28.9774Z" fill="#CFAA18"/>
<path d="M32.2039 28.1849H31.4102V28.9786H32.2039V28.1849Z" fill="#CFAA18"/>
<path d="M32.2039 27.3824H31.4102V28.1836H32.2039V27.3824Z" fill="#CFAA18"/>
<path d="M32.2039 26.5899H31.4102V27.3837H32.2039V26.5899Z" fill="#B28A0D"/>
<path d="M32.2039 25.7874H31.4102V26.5887H32.2039V25.7874Z" fill="#B28A0D"/>
<path d="M32.2039 24.9949H31.4102V25.7886H32.2039V24.9949Z" fill="#CFAA18"/>
<path d="M32.2039 24.1924H31.4102V24.9936H32.2039V24.1924Z" fill="#CFAA18"/>
<path d="M32.2039 23.3911H31.4102V24.1924H32.2039V23.3911Z" fill="#CFAA18"/>
<path d="M32.2039 22.5974H31.4102V23.3912H32.2039V22.5974Z" fill="#CFAA18"/>
<path d="M32.2039 21.7961H31.4102V22.5974H32.2039V21.7961Z" fill="#CFAA18"/>
<path d="M32.2039 21.0024H31.4102V21.7961H32.2039V21.0024Z" fill="#CFAA18"/>
<path d="M32.2039 20.2011H31.4102V21.0024H32.2039V20.2011Z" fill="#CFAA18"/>
<path d="M32.2039 19.4074H31.4102V20.2012H32.2039V19.4074Z" fill="#CFAA18"/>
<path d="M32.2039 15.4161H31.4102V16.2099H32.2039V15.4161Z" fill="black"/>
<path d="M32.2039 14.6149H31.4102V15.4161H32.2039V14.6149Z" fill="#CFAA18"/>
<path d="M32.2039 13.8211H31.4102V14.6149H32.2039V13.8211Z" fill="#CFAA18"/>
<path d="M32.2039 13.0199H31.4102V13.8211H32.2039V13.0199Z" fill="black"/>
<path d="M31.4111 39.3574H30.6099V40.1511H31.4111V39.3574Z" fill="#A18824"/>
<path d="M31.4111 38.5562H30.6099V39.3574H31.4111V38.5562Z" fill="#A18824"/>
<path d="M31.4111 37.7624H30.6099V38.5561H31.4111V37.7624Z" fill="#A18824"/>
<path d="M31.4111 35.3649H30.6099V36.1586H31.4111V35.3649Z" fill="#A18824"/>
<path d="M31.4111 33.7711H30.6099V34.5649H31.4111V33.7711Z" fill="#453D7C"/>
<path d="M31.4111 32.9699H30.6099V33.7712H31.4111V32.9699Z" fill="#453D7C"/>
<path d="M31.4111 32.1761H30.6099V32.9699H31.4111V32.1761Z" fill="#453D7C"/>
<path d="M31.4111 30.5736H30.6099V31.3749H31.4111V30.5736Z" fill="#CFAA18"/>
<path d="M31.4111 29.7799H30.6099V30.5737H31.4111V29.7799Z" fill="#CFAA18"/>
<path d="M31.4111 28.9774H30.6099V29.7787H31.4111V28.9774Z" fill="#CFAA18"/>
<path d="M31.4111 28.1849H30.6099V28.9786H31.4111V28.1849Z" fill="#B28A0D"/>
<path d="M31.4111 27.3824H30.6099V28.1836H31.4111V27.3824Z" fill="#CFAA18"/>
<path d="M31.4111 26.5899H30.6099V27.3837H31.4111V26.5899Z" fill="#CFAA18"/>
<path d="M31.4111 25.7874H30.6099V26.5887H31.4111V25.7874Z" fill="#B28A0D"/>
<path d="M31.4111 24.9949H30.6099V25.7886H31.4111V24.9949Z" fill="#B28A0D"/>
<path d="M31.4111 24.1924H30.6099V24.9936H31.4111V24.1924Z" fill="#CFAA18"/>
<path d="M31.4111 23.3911H30.6099V24.1924H31.4111V23.3911Z" fill="#CFAA18"/>
<path d="M31.4111 22.5974H30.6099V23.3912H31.4111V22.5974Z" fill="#B28A0D"/>
<path d="M31.4111 21.7961H30.6099V22.5974H31.4111V21.7961Z" fill="#B28A0D"/>
<path d="M31.4111 21.0024H30.6099V21.7961H31.4111V21.0024Z" fill="#CFAA18"/>
<path d="M31.4111 20.2011H30.6099V21.0024H31.4111V20.2011Z" fill="#B28A0D"/>
<path d="M31.4111 19.4074H30.6099V20.2012H31.4111V19.4074Z" fill="#CFAA18"/>
<path d="M31.4111 18.6061H30.6099V19.4074H31.4111V18.6061Z" fill="#CFAA18"/>
<path d="M31.4111 15.4161H30.6099V16.2099H31.4111V15.4161Z" fill="#CFAA18"/>
<path d="M31.4111 14.6149H30.6099V15.4161H31.4111V14.6149Z" fill="#CFAA18"/>
<path d="M31.4111 13.8211H30.6099V14.6149H31.4111V13.8211Z" fill="black"/>
<path d="M30.6102 31.3749H29.8164V32.1761H30.6102V31.3749Z" fill="#CFAA18"/>
<path d="M30.6102 30.5736H29.8164V31.3749H30.6102V30.5736Z" fill="#CFAA18"/>
<path d="M30.6102 29.7799H29.8164V30.5737H30.6102V29.7799Z" fill="#CFAA18"/>
<path d="M30.6102 28.9774H29.8164V29.7787H30.6102V28.9774Z" fill="#CFAA18"/>
<path d="M30.6102 28.1849H29.8164V28.9786H30.6102V28.1849Z" fill="#CFAA18"/>
<path d="M30.6102 27.3824H29.8164V28.1836H30.6102V27.3824Z" fill="#B28A0D"/>
<path d="M30.6102 26.5899H29.8164V27.3837H30.6102V26.5899Z" fill="#CFAA18"/>
<path d="M30.6102 25.7874H29.8164V26.5887H30.6102V25.7874Z" fill="#CFAA18"/>
<path d="M30.6102 24.9949H29.8164V25.7886H30.6102V24.9949Z" fill="#CFAA18"/>
<path d="M30.6102 24.1924H29.8164V24.9936H30.6102V24.1924Z" fill="#CFAA18"/>
<path d="M30.6102 23.3911H29.8164V24.1924H30.6102V23.3911Z" fill="#CFAA18"/>
<path d="M30.6102 22.5974H29.8164V23.3912H30.6102V22.5974Z" fill="#CFAA18"/>
<path d="M30.6102 21.7961H29.8164V22.5974H30.6102V21.7961Z" fill="#CFAA18"/>
<path d="M30.6102 21.0024H29.8164V21.7961H30.6102V21.0024Z" fill="#B28A0D"/>
<path d="M30.6102 20.2011H29.8164V21.0024H30.6102V20.2011Z" fill="#B28A0D"/>
<path d="M30.6102 19.4074H29.8164V20.2012H30.6102V19.4074Z" fill="#CE8A57"/>
<path d="M30.6102 18.6061H29.8164V19.4074H30.6102V18.6061Z" fill="#CE8A57"/>
<path d="M30.6102 17.0111H29.8164V17.8049H30.6102V17.0111Z" fill="#2C2E3A"/>
<path d="M30.6102 16.2099H29.8164V17.0112H30.6102V16.2099Z" fill="#091442"/>
<path d="M30.6102 14.6149H29.8164V15.4161H30.6102V14.6149Z" fill="black"/>
<path d="M29.8164 32.1761H29.0151V32.9699H29.8164V32.1761Z" fill="#CFAA18"/>
<path d="M29.8164 31.3749H29.0151V32.1761H29.8164V31.3749Z" fill="#B28A0D"/>
<path d="M29.8164 30.5736H29.0151V31.3749H29.8164V30.5736Z" fill="#B28A0D"/>
<path d="M29.8164 29.7799H29.0151V30.5737H29.8164V29.7799Z" fill="#CFAA18"/>
<path d="M29.8164 28.9774H29.0151V29.7787H29.8164V28.9774Z" fill="#CFAA18"/>
<path d="M29.8164 28.1849H29.0151V28.9786H29.8164V28.1849Z" fill="#CFAA18"/>
<path d="M29.8164 27.3824H29.0151V28.1836H29.8164V27.3824Z" fill="#CFAA18"/>
<path d="M29.8164 26.5899H29.0151V27.3837H29.8164V26.5899Z" fill="#B28A0D"/>
<path d="M29.8164 25.7874H29.0151V26.5887H29.8164V25.7874Z" fill="#B28A0D"/>
<path d="M29.8164 24.9949H29.0151V25.7886H29.8164V24.9949Z" fill="#CFAA18"/>
<path d="M29.8164 24.1924H29.0151V24.9936H29.8164V24.1924Z" fill="#CFAA18"/>
<path d="M29.8164 23.3911H29.0151V24.1924H29.8164V23.3911Z" fill="#B28A0D"/>
<path d="M29.8164 22.5974H29.0151V23.3912H29.8164V22.5974Z" fill="#CFAA18"/>
<path d="M29.8164 21.7961H29.0151V22.5974H29.8164V21.7961Z" fill="#CFAA18"/>
<path d="M29.8164 21.0024H29.0151V21.7961H29.8164V21.0024Z" fill="#CFAA18"/>
<path d="M29.8164 20.2011H29.0151V21.0024H29.8164V20.2011Z" fill="#CE8A57"/>
<path d="M29.8164 19.4074H29.0151V20.2012H29.8164V19.4074Z" fill="#E2A066"/>
<path d="M29.8164 17.8049H29.0151V18.6061H29.8164V17.8049Z" fill="#091442"/>
<path d="M29.8164 17.0111H29.0151V17.8049H29.8164V17.0111Z" fill="#091442"/>
<path d="M29.8164 16.2099H29.0151V17.0112H29.8164V16.2099Z" fill="#091442"/>
<path d="M29.8164 15.4161H29.0151V16.2099H29.8164V15.4161Z" fill="#091442"/>
<path d="M29.0149 32.9699H28.2212V33.7712H29.0149V32.9699Z" fill="#CFAA18"/>
<path d="M29.0149 32.1761H28.2212V32.9699H29.0149V32.1761Z" fill="#CFAA18"/>
<path d="M29.0149 31.3749H28.2212V32.1761H29.0149V31.3749Z" fill="#CFAA18"/>
<path d="M29.0149 30.5736H28.2212V31.3749H29.0149V30.5736Z" fill="#CFAA18"/>
<path d="M29.0149 29.7799H28.2212V30.5737H29.0149V29.7799Z" fill="#CFAA18"/>
<path d="M29.0149 28.9774H28.2212V29.7787H29.0149V28.9774Z" fill="#B28A0D"/>
<path d="M29.0149 28.1849H28.2212V28.9786H29.0149V28.1849Z" fill="#CFAA18"/>
<path d="M29.0149 27.3824H28.2212V28.1836H29.0149V27.3824Z" fill="#CFAA18"/>
<path d="M29.0149 26.5899H28.2212V27.3837H29.0149V26.5899Z" fill="#CFAA18"/>
<path d="M29.0149 25.7874H28.2212V26.5887H29.0149V25.7874Z" fill="#B28A0D"/>
<path d="M29.0149 24.9949H28.2212V25.7886H29.0149V24.9949Z" fill="#CFAA18"/>
<path d="M29.0149 24.1924H28.2212V24.9936H29.0149V24.1924Z" fill="#CFAA18"/>
<path d="M29.0149 23.3911H28.2212V24.1924H29.0149V23.3911Z" fill="#B28A0D"/>
<path d="M29.0149 22.5974H28.2212V23.3912H29.0149V22.5974Z" fill="#CFAA18"/>
<path d="M29.0149 21.7961H28.2212V22.5974H29.0149V21.7961Z" fill="#CFAA18"/>
<path d="M29.0149 21.0024H28.2212V21.7961H29.0149V21.0024Z" fill="#FFC78F"/>
<path d="M29.0149 20.2011H28.2212V21.0024H29.0149V20.2011Z" fill="#FFC78F"/>
<path d="M29.0149 19.4074H28.2212V20.2012H29.0149V19.4074Z" fill="#E2A066"/>
<path d="M29.0149 17.8049H28.2212V18.6061H29.0149V17.8049Z" fill="#2C2E3A"/>
<path d="M29.0149 17.0111H28.2212V17.8049H29.0149V17.0111Z" fill="#101A54"/>
<path d="M29.0149 16.2099H28.2212V17.0112H29.0149V16.2099Z" fill="#101A54"/>
<path d="M29.0149 15.4161H28.2212V16.2099H29.0149V15.4161Z" fill="#091442"/>
<path d="M28.2212 39.3574H27.4199V40.1511H28.2212V39.3574Z" fill="#7C6916"/>
<path d="M28.2212 38.5562H27.4199V39.3574H28.2212V38.5562Z" fill="#7C6916"/>
<path d="M28.2212 37.7624H27.4199V38.5561H28.2212V37.7624Z" fill="#7C6916"/>
<path d="M28.2212 36.9611H27.4199V37.7624H28.2212V36.9611Z" fill="#7C6916"/>
<path d="M28.2212 35.3649H27.4199V36.1586H28.2212V35.3649Z" fill="#7C6916"/>
<path d="M28.2212 33.7711H27.4199V34.5649H28.2212V33.7711Z" fill="#373370"/>
<path d="M28.2212 30.5736H27.4199V31.3749H28.2212V30.5736Z" fill="#CFAA18"/>
<path d="M28.2212 29.7799H27.4199V30.5737H28.2212V29.7799Z" fill="#CFAA18"/>
<path d="M28.2212 28.9774H27.4199V29.7787H28.2212V28.9774Z" fill="#B28A0D"/>
<path d="M28.2212 28.1849H27.4199V28.9786H28.2212V28.1849Z" fill="#B28A0D"/>
<path d="M28.2212 27.3824H27.4199V28.1836H28.2212V27.3824Z" fill="#B28A0D"/>
<path d="M28.2212 26.5899H27.4199V27.3837H28.2212V26.5899Z" fill="#CFAA18"/>
<path d="M28.2212 25.7874H27.4199V26.5887H28.2212V25.7874Z" fill="#CFAA18"/>
<path d="M28.2212 24.9949H27.4199V25.7886H28.2212V24.9949Z" fill="#B28A0D"/>
<path d="M28.2212 24.1924H27.4199V24.9936H28.2212V24.1924Z" fill="#CFAA18"/>
<path d="M28.2212 23.3911H27.4199V24.1924H28.2212V23.3911Z" fill="#CFAA18"/>
<path d="M28.2212 22.5974H27.4199V23.3912H28.2212V22.5974Z" fill="#B28A0D"/>
<path d="M28.2212 21.7961H27.4199V22.5974H28.2212V21.7961Z" fill="#CFAA18"/>
<path d="M28.2212 21.0024H27.4199V21.7961H28.2212V21.0024Z" fill="#FFC78F"/>
<path d="M28.2212 20.2011H27.4199V21.0024H28.2212V20.2011Z" fill="#FFC78F"/>
<path d="M28.2212 19.4074H27.4199V20.2012H28.2212V19.4074Z" fill="#E2A066"/>
<path d="M28.2212 17.8049H27.4199V18.6061H28.2212V17.8049Z" fill="#101A54"/>
<path d="M28.2212 17.0111H27.4199V17.8049H28.2212V17.0111Z" fill="#101A54"/>
<path d="M28.2212 16.2099H27.4199V17.0112H28.2212V16.2099Z" fill="#101A54"/>
<path d="M28.2212 15.4161H27.4199V16.2099H28.2212V15.4161Z" fill="#101A54"/>
<path d="M27.4199 39.3574H26.6187V40.1511H27.4199V39.3574Z" fill="#A18824"/>
<path d="M27.4199 38.5562H26.6187V39.3574H27.4199V38.5562Z" fill="#7C6916"/>
<path d="M27.4199 37.7624H26.6187V38.5561H27.4199V37.7624Z" fill="#7C6916"/>
<path d="M27.4199 36.9611H26.6187V37.7624H27.4199V36.9611Z" fill="#7C6916"/>
<path d="M27.4199 35.3649H26.6187V36.1586H27.4199V35.3649Z" fill="#7C6916"/>
<path d="M27.4199 33.7711H26.6187V34.5649H27.4199V33.7711Z" fill="#373370"/>
<path d="M27.4199 32.9699H26.6187V33.7712H27.4199V32.9699Z" fill="#373370"/>
<path d="M27.4199 32.1761H26.6187V32.9699H27.4199V32.1761Z" fill="#373370"/>
<path d="M27.4199 31.3749H26.6187V32.1761H27.4199V31.3749Z" fill="#373370"/>
<path d="M27.4199 29.7799H26.6187V30.5737H27.4199V29.7799Z" fill="#CFAA18"/>
<path d="M27.4199 28.9774H26.6187V29.7787H27.4199V28.9774Z" fill="#CFAA18"/>
<path d="M27.4199 28.1849H26.6187V28.9786H27.4199V28.1849Z" fill="#CFAA18"/>
<path d="M27.4199 27.3824H26.6187V28.1836H27.4199V27.3824Z" fill="#B28A0D"/>
<path d="M27.4199 26.5899H26.6187V27.3837H27.4199V26.5899Z" fill="#CFAA18"/>
<path d="M27.4199 25.7874H26.6187V26.5887H27.4199V25.7874Z" fill="#CFAA18"/>
<path d="M27.4199 24.9949H26.6187V25.7886H27.4199V24.9949Z" fill="#CFAA18"/>
<path d="M27.4199 24.1924H26.6187V24.9936H27.4199V24.1924Z" fill="#CFAA18"/>
<path d="M27.4199 23.3911H26.6187V24.1924H27.4199V23.3911Z" fill="#B28A0D"/>
<path d="M27.4199 22.5974H26.6187V23.3912H27.4199V22.5974Z" fill="#CFAA18"/>
<path d="M27.4199 21.7961H26.6187V22.5974H27.4199V21.7961Z" fill="#CFAA18"/>
<path d="M27.4199 21.0024H26.6187V21.7961H27.4199V21.0024Z" fill="#FFC78F"/>
<path d="M27.4199 20.2011H26.6187V21.0024H27.4199V20.2011Z" fill="#FFC78F"/>
<path d="M27.4199 19.4074H26.6187V20.2012H27.4199V19.4074Z" fill="#E2A066"/>
<path d="M27.4199 17.8049H26.6187V18.6061H27.4199V17.8049Z" fill="#2C2E3A"/>
<path d="M27.4199 17.0111H26.6187V17.8049H27.4199V17.0111Z" fill="#101A54"/>
<path d="M27.4199 16.2099H26.6187V17.0112H27.4199V16.2099Z" fill="#101A54"/>
<path d="M27.4199 15.4161H26.6187V16.2099H27.4199V15.4161Z" fill="#101A54"/>
<path d="M26.6185 39.3574H25.8247V40.1511H26.6185V39.3574Z" fill="#A18824"/>
<path d="M26.6185 38.5562H25.8247V39.3574H26.6185V38.5562Z" fill="#A18824"/>
<path d="M26.6185 37.7624H25.8247V38.5561H26.6185V37.7624Z" fill="#7C6916"/>
<path d="M26.6185 36.9611H25.8247V37.7624H26.6185V36.9611Z" fill="#7C6916"/>
<path d="M26.6185 35.3649H25.8247V36.1586H26.6185V35.3649Z" fill="#7C6916"/>
<path d="M26.6185 33.7711H25.8247V34.5649H26.6185V33.7711Z" fill="#453D7C"/>
<path d="M26.6185 32.9699H25.8247V33.7712H26.6185V32.9699Z" fill="#453D7C"/>
<path d="M26.6185 32.1761H25.8247V32.9699H26.6185V32.1761Z" fill="#453D7C"/>
<path d="M26.6185 31.3749H25.8247V32.1761H26.6185V31.3749Z" fill="#373370"/>
<path d="M26.6185 30.5736H25.8247V31.3749H26.6185V30.5736Z" fill="#373370"/>
<path d="M26.6185 28.9774H25.8247V29.7787H26.6185V28.9774Z" fill="#CFAA18"/>
<path d="M26.6185 28.1849H25.8247V28.9786H26.6185V28.1849Z" fill="#CFAA18"/>
<path d="M26.6185 27.3824H25.8247V28.1836H26.6185V27.3824Z" fill="#CFAA18"/>
<path d="M26.6185 26.5899H25.8247V27.3837H26.6185V26.5899Z" fill="#CFAA18"/>
<path d="M26.6185 25.7874H25.8247V26.5887H26.6185V25.7874Z" fill="#CFAA18"/>
<path d="M26.6185 24.9949H25.8247V25.7886H26.6185V24.9949Z" fill="#CFAA18"/>
<path d="M26.6185 24.1924H25.8247V24.9936H26.6185V24.1924Z" fill="#CFAA18"/>
<path d="M26.6185 23.3911H25.8247V24.1924H26.6185V23.3911Z" fill="#B28A0D"/>
<path d="M26.6185 22.5974H25.8247V23.3912H26.6185V22.5974Z" fill="#CFAA18"/>
<path d="M26.6185 21.7961H25.8247V22.5974H26.6185V21.7961Z" fill="#CFAA18"/>
<path d="M26.6185 21.0024H25.8247V21.7961H26.6185V21.0024Z" fill="#FFC78F"/>
<path d="M26.6185 20.2011H25.8247V21.0024H26.6185V20.2011Z" fill="#FFC78F"/>
<path d="M26.6185 19.4074H25.8247V20.2012H26.6185V19.4074Z" fill="#E2A066"/>
<path d="M26.6185 17.8049H25.8247V18.6061H26.6185V17.8049Z" fill="#101A54"/>
<path d="M26.6185 17.0111H25.8247V17.8049H26.6185V17.0111Z" fill="#101A54"/>
<path d="M26.6185 16.2099H25.8247V17.0112H26.6185V16.2099Z" fill="#101A54"/>
<path d="M26.6185 15.4161H25.8247V16.2099H26.6185V15.4161Z" fill="#101A54"/>
<path d="M25.8237 39.3574H25.0225V40.1511H25.8237V39.3574Z" fill="#A18824"/>
<path d="M25.8237 38.5562H25.0225V39.3574H25.8237V38.5562Z" fill="#A18824"/>
<path d="M25.8237 37.7624H25.0225V38.5561H25.8237V37.7624Z" fill="#A18824"/>
<path d="M25.8237 36.9611H25.0225V37.7624H25.8237V36.9611Z" fill="#A18824"/>
<path d="M25.8237 35.3649H25.0225V36.1586H25.8237V35.3649Z" fill="#7C6916"/>
<path d="M25.8237 33.7711H25.0225V34.5649H25.8237V33.7711Z" fill="#453D7C"/>
<path d="M25.8237 32.9699H25.0225V33.7712H25.8237V32.9699Z" fill="#453D7C"/>
<path d="M25.8237 32.1761H25.0225V32.9699H25.8237V32.1761Z" fill="#453D7C"/>
<path d="M25.8237 31.3749H25.0225V32.1761H25.8237V31.3749Z" fill="#453D7C"/>
<path d="M25.8237 30.5736H25.0225V31.3749H25.8237V30.5736Z" fill="#373370"/>
<path d="M25.8237 28.9774H25.0225V29.7787H25.8237V28.9774Z" fill="#CFAA18"/>
<path d="M25.8237 28.1849H25.0225V28.9786H25.8237V28.1849Z" fill="#CFAA18"/>
<path d="M25.8237 27.3824H25.0225V28.1836H25.8237V27.3824Z" fill="#CFAA18"/>
<path d="M25.8237 26.5899H25.0225V27.3837H25.8237V26.5899Z" fill="#B28A0D"/>
<path d="M25.8237 25.7874H25.0225V26.5887H25.8237V25.7874Z" fill="#B28A0D"/>
<path d="M25.8237 24.9949H25.0225V25.7886H25.8237V24.9949Z" fill="#B28A0D"/>
<path d="M25.8237 24.1924H25.0225V24.9936H25.8237V24.1924Z" fill="#B28A0D"/>
<path d="M25.8237 23.3911H25.0225V24.1924H25.8237V23.3911Z" fill="#CFAA18"/>
<path d="M25.8237 22.5974H25.0225V23.3912H25.8237V22.5974Z" fill="#B28A0D"/>
<path d="M25.8237 21.7961H25.0225V22.5974H25.8237V21.7961Z" fill="#B28A0D"/>
<path d="M25.8237 21.0024H25.0225V21.7961H25.8237V21.0024Z" fill="#CFAA18"/>
<path d="M25.8237 20.2011H25.0225V21.0024H25.8237V20.2011Z" fill="#FFC78F"/>
<path d="M25.8237 19.4074H25.0225V20.2012H25.8237V19.4074Z" fill="#E2A066"/>
<path d="M25.8237 17.8049H25.0225V18.6061H25.8237V17.8049Z" fill="#2C2E3A"/>
<path d="M25.8237 17.0111H25.0225V17.8049H25.8237V17.0111Z" fill="#101A54"/>
<path d="M25.8237 16.2099H25.0225V17.0112H25.8237V16.2099Z" fill="#101A54"/>
<path d="M25.8237 14.6149H25.0225V15.4161H25.8237V14.6149Z" fill="black"/>
<path d="M25.0223 39.3574H24.2285V40.1511H25.0223V39.3574Z" fill="#A18824"/>
<path d="M25.0223 38.5562H24.2285V39.3574H25.0223V38.5562Z" fill="#A18824"/>
<path d="M25.0223 35.3649H24.2285V36.1586H25.0223V35.3649Z" fill="#A18824"/>
<path d="M25.0223 29.7799H24.2285V30.5737H25.0223V29.7799Z" fill="#CFAA18"/>
<path d="M25.0223 28.9774H24.2285V29.7787H25.0223V28.9774Z" fill="#CFAA18"/>
<path d="M25.0223 28.1849H24.2285V28.9786H25.0223V28.1849Z" fill="#CFAA18"/>
<path d="M25.0223 27.3824H24.2285V28.1836H25.0223V27.3824Z" fill="#B28A0D"/>
<path d="M25.0223 26.5899H24.2285V27.3837H25.0223V26.5899Z" fill="#B28A0D"/>
<path d="M25.0223 25.7874H24.2285V26.5887H25.0223V25.7874Z" fill="#CFAA18"/>
<path d="M25.0223 24.9949H24.2285V25.7886H25.0223V24.9949Z" fill="#CFAA18"/>
<path d="M25.0223 24.1924H24.2285V24.9936H25.0223V24.1924Z" fill="#B28A0D"/>
<path d="M25.0223 23.3911H24.2285V24.1924H25.0223V23.3911Z" fill="#B28A0D"/>
<path d="M25.0223 22.5974H24.2285V23.3912H25.0223V22.5974Z" fill="#CFAA18"/>
<path d="M25.0223 21.7961H24.2285V22.5974H25.0223V21.7961Z" fill="#CFAA18"/>
<path d="M25.0223 21.0024H24.2285V21.7961H25.0223V21.0024Z" fill="#CFAA18"/>
<path d="M25.0223 20.2011H24.2285V21.0024H25.0223V20.2011Z" fill="#CFAA18"/>
<path d="M25.0223 18.6061H24.2285V19.4074H25.0223V18.6061Z" fill="#2C2E3A"/>
<path d="M25.0223 17.8049H24.2285V18.6061H25.0223V17.8049Z" fill="#101A54"/>
<path d="M25.0223 17.0111H24.2285V17.8049H25.0223V17.0111Z" fill="#101A54"/>
<path d="M25.0223 15.4161H24.2285V16.2099H25.0223V15.4161Z" fill="#CFAA18"/>
<path d="M25.0223 14.6149H24.2285V15.4161H25.0223V14.6149Z" fill="#CFAA18"/>
<path d="M25.0223 13.8211H24.2285V14.6149H25.0223V13.8211Z" fill="black"/>
<path d="M24.2285 39.3574H23.4272V40.1511H24.2285V39.3574Z" fill="#A18824"/>
<path d="M24.2285 38.5562H23.4272V39.3574H24.2285V38.5562Z" fill="#A18824"/>
<path d="M24.2285 30.5736H23.4272V31.3749H24.2285V30.5736Z" fill="#CFAA18"/>
<path d="M24.2285 29.7799H23.4272V30.5737H24.2285V29.7799Z" fill="#CFAA18"/>
<path d="M24.2285 27.3824H23.4272V28.1836H24.2285V27.3824Z" fill="#CFAA18"/>
<path d="M24.2285 26.5899H23.4272V27.3837H24.2285V26.5899Z" fill="#CFAA18"/>
<path d="M24.2285 25.7874H23.4272V26.5887H24.2285V25.7874Z" fill="#CFAA18"/>
<path d="M24.2285 24.9949H23.4272V25.7886H24.2285V24.9949Z" fill="#CFAA18"/>
<path d="M24.2285 24.1924H23.4272V24.9936H24.2285V24.1924Z" fill="#CFAA18"/>
<path d="M24.2285 23.3911H23.4272V24.1924H24.2285V23.3911Z" fill="#A18824"/>
<path d="M24.2285 22.5974H23.4272V23.3912H24.2285V22.5974Z" fill="#CFAA18"/>
<path d="M24.2285 16.2099H23.4272V17.0112H24.2285V16.2099Z" fill="black"/>
<path d="M24.2285 15.4161H23.4272V16.2099H24.2285V15.4161Z" fill="black"/>
<path d="M24.2285 14.6149H23.4272V15.4161H24.2285V14.6149Z" fill="#CFAA18"/>
<path d="M24.2285 13.8211H23.4272V14.6149H24.2285V13.8211Z" fill="#CFAA18"/>
<path d="M24.2285 13.0199H23.4272V13.8211H24.2285V13.0199Z" fill="black"/>
<path d="M23.4275 39.3574H22.6338V40.1511H23.4275V39.3574Z" fill="#A18824"/>
<path d="M23.4275 38.5562H22.6338V39.3574H23.4275V38.5562Z" fill="#A18824"/>
<path d="M23.4275 21.7961H22.6338V22.5974H23.4275V21.7961Z" fill="#373370"/>
<path d="M23.4275 21.0024H22.6338V21.7961H23.4275V21.0024Z" fill="#373370"/>
<path d="M23.4275 15.4161H22.6338V16.2099H23.4275V15.4161Z" fill="black"/>
<path d="M23.4275 14.6149H22.6338V15.4161H23.4275V14.6149Z" fill="black"/>
<path d="M23.4275 13.8211H22.6338V14.6149H23.4275V13.8211Z" fill="black"/>
<path d="M23.4275 13.0199H22.6338V13.8211H23.4275V13.0199Z" fill="black"/>
<path d="M23.4275 12.2261H22.6338V13.0199H23.4275V12.2261Z" fill="black"/>
<path d="M22.6338 24.9949H21.8325V25.7886H22.6338V24.9949Z" fill="#373370"/>
<path d="M22.6338 24.1924H21.8325V24.9936H22.6338V24.1924Z" fill="#373370"/>
<path d="M22.6338 23.3911H21.8325V24.1924H22.6338V23.3911Z" fill="#373370"/>
<path d="M22.6338 22.5974H21.8325V23.3912H22.6338V22.5974Z" fill="#373370"/>
<path d="M22.6338 21.7961H21.8325V22.5974H22.6338V21.7961Z" fill="#373370"/>
<path d="M21.8323 25.7874H21.0386V26.5887H21.8323V25.7874Z" fill="#373370"/>
<path d="M21.8323 24.9949H21.0386V25.7886H21.8323V24.9949Z" fill="#373370"/>
<path d="M21.8323 24.1924H21.0386V24.9936H21.8323V24.1924Z" fill="#373370"/>
<path d="M21.8323 23.3911H21.0386V24.1924H21.8323V23.3911Z" fill="#373370"/>
<path d="M21.8323 22.5974H21.0386V23.3912H21.8323V22.5974Z" fill="#373370"/>
<path d="M21.0386 25.7874H20.2373V26.5887H21.0386V25.7874Z" fill="#373370"/>
<path d="M21.0386 24.9949H20.2373V25.7886H21.0386V24.9949Z" fill="#373370"/>
<path d="M20.2373 26.5899H19.436V27.3837H20.2373V26.5899Z" fill="#373370"/>
<path d="M20.2373 25.7874H19.436V26.5887H20.2373V25.7874Z" fill="#373370"/>
<path d="M20.2373 24.9949H19.436V25.7886H20.2373V24.9949Z" fill="#373370"/>
<path d="M20.2373 21.0024H19.436V21.7961H20.2373V21.0024Z" fill="#5C5C7A"/>
<path d="M20.2373 20.2011H19.436V21.0024H20.2373V20.2011Z" fill="#5C5C7A"/>
<path d="M20.2373 19.4074H19.436V20.2012H20.2373V19.4074Z" fill="#5C5C7A"/>
<path d="M20.2373 18.6061H19.436V19.4074H20.2373V18.6061Z" fill="#5C5C7A"/>
<path d="M20.2373 17.8049H19.436V18.6061H20.2373V17.8049Z" fill="#5C5C7A"/>
<path d="M20.2373 17.0111H19.436V17.8049H20.2373V17.0111Z" fill="#5C5C7A"/>
<path d="M19.4363 26.5899H18.6426V27.3837H19.4363V26.5899Z" fill="#373370"/>
<path d="M19.4363 25.7874H18.6426V26.5887H19.4363V25.7874Z" fill="#373370"/>
<path d="M19.4363 20.2011H18.6426V21.0024H19.4363V20.2011Z" fill="#727296"/>
<path d="M19.4363 19.4074H18.6426V20.2012H19.4363V19.4074Z" fill="#727296"/>
<path d="M19.4363 18.6061H18.6426V19.4074H19.4363V18.6061Z" fill="#727296"/>
<path d="M19.4363 17.8049H18.6426V18.6061H19.4363V17.8049Z" fill="#727296"/>
<path d="M18.6426 27.3824H17.8413V28.1836H18.6426V27.3824Z" fill="#242D63"/>
<path d="M18.6426 26.5899H17.8413V27.3837H18.6426V26.5899Z" fill="#242D63"/>
<path d="M18.6426 19.4074H17.8413V20.2012H18.6426V19.4074Z" fill="#727296"/>
<path d="M18.6426 18.6061H17.8413V19.4074H18.6426V18.6061Z" fill="#727296"/>
<path d="M17.8411 34.5649H17.0474V35.3661H17.8411V34.5649Z" fill="#5C5C7A"/>
<path d="M17.8411 33.7711H17.0474V34.5649H17.8411V33.7711Z" fill="#5C5C7A"/>
<path d="M17.8411 28.1849H17.0474V28.9786H17.8411V28.1849Z" fill="#E2A066"/>
<path d="M17.8411 27.3824H17.0474V28.1836H17.8411V27.3824Z" fill="#E2A066"/>
<path d="M17.8411 26.5899H17.0474V27.3837H17.8411V26.5899Z" fill="#E2A066"/>
<path d="M17.8411 25.7874H17.0474V26.5887H17.8411V25.7874Z" fill="#E2A066"/>
<path d="M17.8411 15.4161H17.0474V16.2099H17.8411V15.4161Z" fill="#5C5C7A"/>
<path d="M17.0473 35.3649H16.2461V36.1586H17.0473V35.3649Z" fill="#727296"/>
<path d="M17.0473 34.5649H16.2461V35.3661H17.0473V34.5649Z" fill="#727296"/>
<path d="M17.0473 33.7711H16.2461V34.5649H17.0473V33.7711Z" fill="#5C5C7A"/>
<path d="M17.0473 32.9699H16.2461V33.7712H17.0473V32.9699Z" fill="#773725"/>
<path d="M17.0473 32.1761H16.2461V32.9699H17.0473V32.1761Z" fill="#773725"/>
<path d="M17.0473 31.3749H16.2461V32.1761H17.0473V31.3749Z" fill="#773725"/>
<path d="M17.0473 30.5736H16.2461V31.3749H17.0473V30.5736Z" fill="#773725"/>
<path d="M17.0473 29.7799H16.2461V30.5737H17.0473V29.7799Z" fill="#773725"/>
<path d="M17.0473 28.1849H16.2461V28.9786H17.0473V28.1849Z" fill="#E2A066"/>
<path d="M17.0473 27.3824H16.2461V28.1836H17.0473V27.3824Z" fill="#E2A066"/>
<path d="M17.0473 26.5899H16.2461V27.3837H17.0473V26.5899Z" fill="#E2A066"/>
<path d="M17.0473 25.7874H16.2461V26.5887H17.0473V25.7874Z" fill="#E2A066"/>
<path d="M17.0473 24.9949H16.2461V25.7886H17.0473V24.9949Z" fill="#E2A066"/>
<path d="M17.0473 23.3911H16.2461V24.1924H17.0473V23.3911Z" fill="#773725"/>
<path d="M17.0473 22.5974H16.2461V23.3912H17.0473V22.5974Z" fill="#773725"/>
<path d="M17.0473 21.7961H16.2461V22.5974H17.0473V21.7961Z" fill="#773725"/>
<path d="M17.0473 21.0024H16.2461V21.7961H17.0473V21.0024Z" fill="#773725"/>
<path d="M17.0473 20.2011H16.2461V21.0024H17.0473V20.2011Z" fill="#773725"/>
<path d="M17.0473 19.4074H16.2461V20.2012H17.0473V19.4074Z" fill="#773725"/>
<path d="M17.0473 18.6061H16.2461V19.4074H17.0473V18.6061Z" fill="#773725"/>
<path d="M17.0473 17.8049H16.2461V18.6061H17.0473V17.8049Z" fill="#773725"/>
<path d="M17.0473 17.0111H16.2461V17.8049H17.0473V17.0111Z" fill="#773725"/>
<path d="M17.0473 16.2099H16.2461V17.0112H17.0473V16.2099Z" fill="#773725"/>
<path d="M17.0473 15.4161H16.2461V16.2099H17.0473V15.4161Z" fill="#5C5C7A"/>
<path d="M16.2464 34.5649H15.4526V35.3661H16.2464V34.5649Z" fill="#727296"/>
<path d="M16.2464 33.7711H15.4526V34.5649H16.2464V33.7711Z" fill="#727296"/>
<path d="M16.2464 28.1849H15.4526V28.9786H16.2464V28.1849Z" fill="#E2A066"/>
<path d="M16.2464 27.3824H15.4526V28.1836H16.2464V27.3824Z" fill="#E2A066"/>
<path d="M16.2464 26.5899H15.4526V27.3837H16.2464V26.5899Z" fill="#E2A066"/>
<path d="M16.2464 25.7874H15.4526V26.5887H16.2464V25.7874Z" fill="#E2A066"/>
<path d="M16.2464 24.9949H15.4526V25.7886H16.2464V24.9949Z" fill="#E2A066"/>
<path d="M16.2464 15.4161H15.4526V16.2099H16.2464V15.4161Z" fill="#727296"/>
<path d="M15.4526 19.4074H14.6514V20.2012H15.4526V19.4074Z" fill="#5C5C7A"/>
<path d="M15.4526 18.6061H14.6514V19.4074H15.4526V18.6061Z" fill="#5C5C7A"/>
<path d="M14.6513 19.4074H13.8501V20.2012H14.6513V19.4074Z" fill="#5C5C7A"/>
<path d="M14.6513 18.6061H13.8501V19.4074H14.6513V18.6061Z" fill="#5C5C7A"/>
<path d="M13.8499 20.2011H13.0562V21.0024H13.8499V20.2011Z" fill="#5C5C7A"/>
<path d="M13.8499 19.4074H13.0562V20.2012H13.8499V19.4074Z" fill="#5C5C7A"/>
<path d="M13.8499 18.6061H13.0562V19.4074H13.8499V18.6061Z" fill="#5C5C7A"/>
<path d="M13.8499 17.8049H13.0562V18.6061H13.8499V17.8049Z" fill="#5C5C7A"/>
<path d="M13.0561 21.0024H12.2549V21.7961H13.0561V21.0024Z" fill="#5C5C7A"/>
<path d="M13.0561 20.2011H12.2549V21.0024H13.0561V20.2011Z" fill="#5C5C7A"/>
<path d="M13.0561 19.4074H12.2549V20.2012H13.0561V19.4074Z" fill="#5C5C7A"/>
<path d="M13.0561 18.6061H12.2549V19.4074H13.0561V18.6061Z" fill="#5C5C7A"/>
<path d="M13.0561 17.8049H12.2549V18.6061H13.0561V17.8049Z" fill="#5C5C7A"/>
<path d="M13.0561 17.0111H12.2549V17.8049H13.0561V17.0111Z" fill="#5C5C7A"/>
<path d="M12.2552 23.3911H11.4614V24.1924H12.2552V23.3911Z" fill="black"/>
<path d="M12.2552 22.5974H11.4614V23.3912H12.2552V22.5974Z" fill="#727296"/>
<path d="M12.2552 21.7961H11.4614V22.5974H12.2552V21.7961Z" fill="#727296"/>
<path d="M12.2552 21.0024H11.4614V21.7961H12.2552V21.0024Z" fill="#727296"/>
<path d="M12.2552 20.2011H11.4614V21.0024H12.2552V20.2011Z" fill="#5C5C7A"/>
<path d="M12.2552 19.4074H11.4614V20.2012H12.2552V19.4074Z" fill="#5C5C7A"/>
<path d="M12.2552 18.6061H11.4614V19.4074H12.2552V18.6061Z" fill="#5C5C7A"/>
<path d="M12.2552 17.8049H11.4614V18.6061H12.2552V17.8049Z" fill="#5C5C7A"/>
<path d="M12.2552 17.0111H11.4614V17.8049H12.2552V17.0111Z" fill="#727296"/>
<path d="M12.2552 16.2099H11.4614V17.0112H12.2552V16.2099Z" fill="#727296"/>
<path d="M12.2552 15.4161H11.4614V16.2099H12.2552V15.4161Z" fill="#727296"/>
<path d="M12.2552 14.6149H11.4614V15.4161H12.2552V14.6149Z" fill="black"/>
<path d="M11.4614 22.5974H10.6602V23.3912H11.4614V22.5974Z" fill="black"/>
<path d="M11.4614 21.7961H10.6602V22.5974H11.4614V21.7961Z" fill="#727296"/>
<path d="M11.4614 21.0024H10.6602V21.7961H11.4614V21.0024Z" fill="#727296"/>
<path d="M11.4614 20.2011H10.6602V21.0024H11.4614V20.2011Z" fill="#727296"/>
<path d="M11.4614 19.4074H10.6602V20.2012H11.4614V19.4074Z" fill="#727296"/>
<path d="M11.4614 18.6061H10.6602V19.4074H11.4614V18.6061Z" fill="#727296"/>
<path d="M11.4614 17.8049H10.6602V18.6061H11.4614V17.8049Z" fill="#727296"/>
<path d="M11.4614 17.0111H10.6602V17.8049H11.4614V17.0111Z" fill="#727296"/>
<path d="M11.4614 16.2099H10.6602V17.0112H11.4614V16.2099Z" fill="#727296"/>
<path d="M11.4614 15.4161H10.6602V16.2099H11.4614V15.4161Z" fill="black"/>
<path d="M10.66 21.7961H9.86621V22.5974H10.66V21.7961Z" fill="black"/>
<path d="M10.66 21.0024H9.86621V21.7961H10.66V21.0024Z" fill="#727296"/>
<path d="M10.66 20.2011H9.86621V21.0024H10.66V20.2011Z" fill="#727296"/>
<path d="M10.66 19.4074H9.86621V20.2012H10.66V19.4074Z" fill="#727296"/>
<path d="M10.66 18.6061H9.86621V19.4074H10.66V18.6061Z" fill="#727296"/>
<path d="M10.66 17.8049H9.86621V18.6061H10.66V17.8049Z" fill="#727296"/>
<path d="M10.66 17.0111H9.86621V17.8049H10.66V17.0111Z" fill="#727296"/>
<path d="M10.66 16.2099H9.86621V17.0112H10.66V16.2099Z" fill="black"/>
<path d="M9.86619 21.0024H9.06494V21.7961H9.86619V21.0024Z" fill="black"/>
<path d="M9.86619 20.2011H9.06494V21.0024H9.86619V20.2011Z" fill="black"/>
<path d="M9.86619 19.4074H9.06494V20.2012H9.86619V19.4074Z" fill="black"/>
<path d="M9.86619 18.6061H9.06494V19.4074H9.86619V18.6061Z" fill="black"/>
<path d="M9.86619 17.8049H9.06494V18.6061H9.86619V17.8049Z" fill="black"/>
<path d="M9.86619 17.0111H9.06494V17.8049H9.86619V17.0111Z" fill="black"/>
</g>
<defs>
<clipPath id="clip0_69_12159">
<rect width="50" height="50" fill="white" transform="translate(0 0.942383)"/>
</clipPath>
</defs>
</svg>
