<svg width="50" height="51" viewBox="0 0 50 51" fill="none" xmlns="http://www.w3.org/2000/svg">
<g clip-path="url(#clip0_69_12154)">
<path d="M48.2223 25.9424C48.2223 38.7674 37.8248 49.1649 24.9998 49.1649C12.1748 49.1649 1.77734 38.7674 1.77734 25.9424C1.77734 13.1174 12.1736 2.71991 24.9998 2.71991C37.8261 2.71991 48.2223 13.1174 48.2223 25.9424Z" fill="black"/>
<path d="M24.9998 50.0399C11.7123 50.0399 0.902344 39.2299 0.902344 25.9424C0.902344 12.6549 11.7123 1.84491 24.9998 1.84491C38.2873 1.84491 49.0973 12.6549 49.0973 25.9424C49.0973 39.2299 38.2873 50.0399 24.9998 50.0399ZM24.9998 3.59491C12.6773 3.59491 2.65234 13.6199 2.65234 25.9424C2.65234 38.2649 12.6773 48.2899 24.9998 48.2899C37.3223 48.2899 47.3473 38.2649 47.3473 25.9424C47.3473 13.6199 37.3223 3.59491 24.9998 3.59491Z" fill="#751545"/>
<path d="M37.0762 34.7186H36.1899V35.6049H37.0762V34.7186Z" fill="black"/>
<path d="M37.0762 33.8224H36.1899V34.7174H37.0762V33.8224Z" fill="black"/>
<path d="M36.1875 36.5012H35.2925V37.3874H36.1875V36.5012Z" fill="black"/>
<path d="M36.1875 35.6061H35.2925V36.5011H36.1875V35.6061Z" fill="black"/>
<path d="M36.1875 34.7186H35.2925V35.6049H36.1875V34.7186Z" fill="#FF5290"/>
<path d="M36.1875 33.8224H35.2925V34.7174H36.1875V33.8224Z" fill="#FF5290"/>
<path d="M36.1875 32.9362H35.2925V33.8224H36.1875V32.9362Z" fill="black"/>
<path d="M35.2925 37.3886H34.3975V38.2836H35.2925V37.3886Z" fill="black"/>
<path d="M35.2925 36.5012H34.3975V37.3874H35.2925V36.5012Z" fill="#FF5290"/>
<path d="M35.2925 35.6061H34.3975V36.5011H35.2925V35.6061Z" fill="#FF5290"/>
<path d="M35.2925 34.7186H34.3975V35.6049H35.2925V34.7186Z" fill="#FF5290"/>
<path d="M35.2925 33.8224H34.3975V34.7174H35.2925V33.8224Z" fill="#FF5290"/>
<path d="M35.2925 32.9362H34.3975V33.8224H35.2925V32.9362Z" fill="black"/>
<path d="M34.3975 37.3886H33.5112V38.2836H34.3975V37.3886Z" fill="black"/>
<path d="M34.3975 36.5012H33.5112V37.3874H34.3975V36.5012Z" fill="#FF5290"/>
<path d="M34.3975 35.6061H33.5112V36.5011H34.3975V35.6061Z" fill="#FF5A8D"/>
<path d="M34.3975 34.7186H33.5112V35.6049H34.3975V34.7186Z" fill="#FF5A8D"/>
<path d="M34.3975 33.8224H33.5112V34.7174H34.3975V33.8224Z" fill="#FF5290"/>
<path d="M34.3975 32.9362H33.5112V33.8224H34.3975V32.9362Z" fill="black"/>
<path d="M34.3975 16.8737H33.5112V17.7687H34.3975V16.8737Z" fill="black"/>
<path d="M34.3975 15.0911H33.5112V15.9861H34.3975V15.0911Z" fill="black"/>
<path d="M33.5102 38.2836H32.6152V39.1786H33.5102V38.2836Z" fill="black"/>
<path d="M33.5102 37.3886H32.6152V38.2836H33.5102V37.3886Z" fill="#FF5290"/>
<path d="M33.5102 36.5012H32.6152V37.3874H33.5102V36.5012Z" fill="#FF5A8D"/>
<path d="M33.5102 35.6061H32.6152V36.5011H33.5102V35.6061Z" fill="#FF5A8D"/>
<path d="M33.5102 34.7186H32.6152V35.6049H33.5102V34.7186Z" fill="#FF5A8D"/>
<path d="M33.5102 33.8224H32.6152V34.7174H33.5102V33.8224Z" fill="#FF5290"/>
<path d="M33.5102 32.9362H32.6152V33.8224H33.5102V32.9362Z" fill="black"/>
<path d="M33.5102 22.2311H32.6152V23.1174H33.5102V22.2311Z" fill="black"/>
<path d="M33.5102 21.3349H32.6152V22.2299H33.5102V21.3349Z" fill="black"/>
<path d="M33.5102 17.7699H32.6152V18.6649H33.5102V17.7699Z" fill="black"/>
<path d="M33.5102 16.8737H32.6152V17.7687H33.5102V16.8737Z" fill="#CCBE58"/>
<path d="M33.5102 15.9874H32.6152V16.8736H33.5102V15.9874Z" fill="black"/>
<path d="M33.5102 15.0911H32.6152V15.9861H33.5102V15.0911Z" fill="#CCBE58"/>
<path d="M33.5102 14.2049H32.6152V15.0911H33.5102V14.2049Z" fill="black"/>
<path d="M32.6138 40.0674H31.7275V40.9624H32.6138V40.0674Z" fill="black"/>
<path d="M32.6138 39.1799H31.7275V40.0661H32.6138V39.1799Z" fill="black"/>
<path d="M32.6138 38.2836H31.7275V39.1786H32.6138V38.2836Z" fill="#FF5A8D"/>
<path d="M32.6138 37.3886H31.7275V38.2836H32.6138V37.3886Z" fill="#FF5A8D"/>
<path d="M32.6138 36.5012H31.7275V37.3874H32.6138V36.5012Z" fill="#FF5A8D"/>
<path d="M32.6138 35.6061H31.7275V36.5011H32.6138V35.6061Z" fill="#FF5A8D"/>
<path d="M32.6138 34.7186H31.7275V35.6049H32.6138V34.7186Z" fill="#FF5A8D"/>
<path d="M32.6138 33.8224H31.7275V34.7174H32.6138V33.8224Z" fill="#FF5A8D"/>
<path d="M32.6138 32.9362H31.7275V33.8224H32.6138V32.9362Z" fill="black"/>
<path d="M32.6138 23.1187H31.7275V24.0137H32.6138V23.1187Z" fill="black"/>
<path d="M32.6138 22.2311H31.7275V23.1174H32.6138V22.2311Z" fill="#FF5290"/>
<path d="M32.6138 21.3349H31.7275V22.2299H32.6138V21.3349Z" fill="#FF5290"/>
<path d="M32.6138 20.4486H31.7275V21.3349H32.6138V20.4486Z" fill="black"/>
<path d="M32.6138 17.7699H31.7275V18.6649H32.6138V17.7699Z" fill="black"/>
<path d="M32.6138 16.8737H31.7275V17.7687H32.6138V16.8737Z" fill="#CCBE58"/>
<path d="M32.6138 15.9874H31.7275V16.8736H32.6138V15.9874Z" fill="#CCBB69"/>
<path d="M32.6138 15.0911H31.7275V15.9861H32.6138V15.0911Z" fill="#CCBE58"/>
<path d="M32.6138 14.2049H31.7275V15.0911H32.6138V14.2049Z" fill="#CCBE58"/>
<path d="M32.6138 13.3087H31.7275V14.2037H32.6138V13.3087Z" fill="black"/>
<path d="M31.7275 40.9624H30.8325V41.8487H31.7275V40.9624Z" fill="black"/>
<path d="M31.7275 40.0674H30.8325V40.9624H31.7275V40.0674Z" fill="#FF5290"/>
<path d="M31.7275 39.1799H30.8325V40.0661H31.7275V39.1799Z" fill="#FF5290"/>
<path d="M31.7275 38.2836H30.8325V39.1786H31.7275V38.2836Z" fill="#FF5A8D"/>
<path d="M31.7275 37.3886H30.8325V38.2836H31.7275V37.3886Z" fill="#FF5A8D"/>
<path d="M31.7275 36.5012H30.8325V37.3874H31.7275V36.5012Z" fill="#FF5A8D"/>
<path d="M31.7275 35.6061H30.8325V36.5011H31.7275V35.6061Z" fill="#FF5A8D"/>
<path d="M31.7275 34.7186H30.8325V35.6049H31.7275V34.7186Z" fill="#FF5A8D"/>
<path d="M31.7275 33.8224H30.8325V34.7174H31.7275V33.8224Z" fill="#FF5A8D"/>
<path d="M31.7275 32.9362H30.8325V33.8224H31.7275V32.9362Z" fill="black"/>
<path d="M31.7275 24.0136H30.8325V24.9086H31.7275V24.0136Z" fill="black"/>
<path d="M31.7275 23.1187H30.8325V24.0137H31.7275V23.1187Z" fill="#FF5A8D"/>
<path d="M31.7275 22.2311H30.8325V23.1174H31.7275V22.2311Z" fill="#FF5A8D"/>
<path d="M31.7275 21.3349H30.8325V22.2299H31.7275V21.3349Z" fill="#FF5290"/>
<path d="M31.7275 20.4486H30.8325V21.3349H31.7275V20.4486Z" fill="black"/>
<path d="M31.7275 18.6649H30.8325V19.5511H31.7275V18.6649Z" fill="black"/>
<path d="M31.7275 17.7699H30.8325V18.6649H31.7275V17.7699Z" fill="#CCBE58"/>
<path d="M31.7275 16.8737H30.8325V17.7687H31.7275V16.8737Z" fill="#DBD38B"/>
<path d="M31.7275 15.9874H30.8325V16.8736H31.7275V15.9874Z" fill="#CCBB69"/>
<path d="M31.7275 15.0911H30.8325V15.9861H31.7275V15.0911Z" fill="#CCBB69"/>
<path d="M31.7275 14.2049H30.8325V15.0911H31.7275V14.2049Z" fill="#CCBE58"/>
<path d="M31.7275 13.3087H30.8325V14.2037H31.7275V13.3087Z" fill="#CCBE58"/>
<path d="M31.7275 12.4211H30.8325V13.3074H31.7275V12.4211Z" fill="black"/>
<path d="M30.8311 40.9624H29.9448V41.8487H30.8311V40.9624Z" fill="black"/>
<path d="M30.8311 40.0674H29.9448V40.9624H30.8311V40.0674Z" fill="#FF5290"/>
<path d="M30.8311 39.1799H29.9448V40.0661H30.8311V39.1799Z" fill="#FF749A"/>
<path d="M30.8311 38.2836H29.9448V39.1786H30.8311V38.2836Z" fill="#FF749A"/>
<path d="M30.8311 37.3886H29.9448V38.2836H30.8311V37.3886Z" fill="#FF5A8D"/>
<path d="M30.8311 36.5012H29.9448V37.3874H30.8311V36.5012Z" fill="#FF5A8D"/>
<path d="M30.8311 35.6061H29.9448V36.5011H30.8311V35.6061Z" fill="#FF5A8D"/>
<path d="M30.8311 34.7186H29.9448V35.6049H30.8311V34.7186Z" fill="#FF5A8D"/>
<path d="M30.8311 33.8224H29.9448V34.7174H30.8311V33.8224Z" fill="#FF5A8D"/>
<path d="M30.8311 32.9362H29.9448V33.8224H30.8311V32.9362Z" fill="black"/>
<path d="M30.8311 24.0136H29.9448V24.9086H30.8311V24.0136Z" fill="black"/>
<path d="M30.8311 23.1187H29.9448V24.0137H30.8311V23.1187Z" fill="#FF5A8D"/>
<path d="M30.8311 22.2311H29.9448V23.1174H30.8311V22.2311Z" fill="#FF749A"/>
<path d="M30.8311 21.3349H29.9448V22.2299H30.8311V21.3349Z" fill="#FF5A8D"/>
<path d="M30.8311 20.4486H29.9448V21.3349H30.8311V20.4486Z" fill="black"/>
<path d="M30.8311 19.5524H29.9448V20.4474H30.8311V19.5524Z" fill="black"/>
<path d="M30.8311 18.6649H29.9448V19.5511H30.8311V18.6649Z" fill="#CCBE58"/>
<path d="M30.8311 17.7699H29.9448V18.6649H30.8311V17.7699Z" fill="#DBD38B"/>
<path d="M30.8311 16.8737H29.9448V17.7687H30.8311V16.8737Z" fill="#DBD38B"/>
<path d="M30.8311 15.9874H29.9448V16.8736H30.8311V15.9874Z" fill="#DBD38B"/>
<path d="M30.8311 15.0911H29.9448V15.9861H30.8311V15.0911Z" fill="#CCBB69"/>
<path d="M30.8311 14.2049H29.9448V15.0911H30.8311V14.2049Z" fill="#CCBB69"/>
<path d="M30.8311 13.3087H29.9448V14.2037H30.8311V13.3087Z" fill="#CCBE58"/>
<path d="M30.8311 12.4211H29.9448V13.3074H30.8311V12.4211Z" fill="black"/>
<path d="M29.9448 40.9624H29.0498V41.8487H29.9448V40.9624Z" fill="black"/>
<path d="M29.9448 40.0674H29.0498V40.9624H29.9448V40.0674Z" fill="#FF5A8D"/>
<path d="M29.9448 39.1799H29.0498V40.0661H29.9448V39.1799Z" fill="#FF749A"/>
<path d="M29.9448 38.2836H29.0498V39.1786H29.9448V38.2836Z" fill="#FF749A"/>
<path d="M29.9448 37.3886H29.0498V38.2836H29.9448V37.3886Z" fill="#FF749A"/>
<path d="M29.9448 36.5012H29.0498V37.3874H29.9448V36.5012Z" fill="#FF5A8D"/>
<path d="M29.9448 35.6061H29.0498V36.5011H29.9448V35.6061Z" fill="#FF5A8D"/>
<path d="M29.9448 34.7186H29.0498V35.6049H29.9448V34.7186Z" fill="#FF5A8D"/>
<path d="M29.9448 33.8224H29.0498V34.7174H29.9448V33.8224Z" fill="black"/>
<path d="M29.9448 23.1187H29.0498V24.0137H29.9448V23.1187Z" fill="black"/>
<path d="M29.9448 22.2311H29.0498V23.1174H29.9448V22.2311Z" fill="#FF749A"/>
<path d="M29.9448 21.3349H29.0498V22.2299H29.9448V21.3349Z" fill="#FF5A8D"/>
<path d="M29.9448 20.4486H29.0498V21.3349H29.9448V20.4486Z" fill="black"/>
<path d="M29.9448 19.5524H29.0498V20.4474H29.9448V19.5524Z" fill="#FF5290"/>
<path d="M29.9448 18.6649H29.0498V19.5511H29.9448V18.6649Z" fill="#FF5290"/>
<path d="M29.9448 17.7699H29.0498V18.6649H29.9448V17.7699Z" fill="#DBD38B"/>
<path d="M29.9448 16.8737H29.0498V17.7687H29.9448V16.8737Z" fill="#DBD38B"/>
<path d="M29.9448 15.9874H29.0498V16.8736H29.9448V15.9874Z" fill="#DBD38B"/>
<path d="M29.9448 15.0911H29.0498V15.9861H29.9448V15.0911Z" fill="#DBD38B"/>
<path d="M29.9448 14.2049H29.0498V15.0911H29.9448V14.2049Z" fill="#CCBB69"/>
<path d="M29.9448 13.3087H29.0498V14.2037H29.9448V13.3087Z" fill="#CCBE58"/>
<path d="M29.9448 12.4211H29.0498V13.3074H29.9448V12.4211Z" fill="black"/>
<path d="M29.0488 41.8499H28.1538V42.7449H29.0488V41.8499Z" fill="black"/>
<path d="M29.0488 40.9624H28.1538V41.8487H29.0488V40.9624Z" fill="#FF5290"/>
<path d="M29.0488 40.0674H28.1538V40.9624H29.0488V40.0674Z" fill="#FF749A"/>
<path d="M29.0488 39.1799H28.1538V40.0661H29.0488V39.1799Z" fill="#FF749A"/>
<path d="M29.0488 38.2836H28.1538V39.1786H29.0488V38.2836Z" fill="#FF749A"/>
<path d="M29.0488 37.3886H28.1538V38.2836H29.0488V37.3886Z" fill="#FF749A"/>
<path d="M29.0488 36.5012H28.1538V37.3874H29.0488V36.5012Z" fill="#FF749A"/>
<path d="M29.0488 35.6061H28.1538V36.5011H29.0488V35.6061Z" fill="#FF5A8D"/>
<path d="M29.0488 34.7186H28.1538V35.6049H29.0488V34.7186Z" fill="black"/>
<path d="M29.0488 24.0136H28.1538V24.9086H29.0488V24.0136Z" fill="black"/>
<path d="M29.0488 23.1187H28.1538V24.0137H29.0488V23.1187Z" fill="#FF749A"/>
<path d="M29.0488 22.2311H28.1538V23.1174H29.0488V22.2311Z" fill="#FF749A"/>
<path d="M29.0488 21.3349H28.1538V22.2299H29.0488V21.3349Z" fill="#FF749A"/>
<path d="M29.0488 20.4486H28.1538V21.3349H29.0488V20.4486Z" fill="#FF5A8D"/>
<path d="M29.0488 19.5524H28.1538V20.4474H29.0488V19.5524Z" fill="#FF5A8D"/>
<path d="M29.0488 18.6649H28.1538V19.5511H29.0488V18.6649Z" fill="#FF5290"/>
<path d="M29.0488 17.7699H28.1538V18.6649H29.0488V17.7699Z" fill="#DBD38B"/>
<path d="M29.0488 16.8737H28.1538V17.7687H29.0488V16.8737Z" fill="#DBD38B"/>
<path d="M29.0488 15.9874H28.1538V16.8736H29.0488V15.9874Z" fill="#DBD38B"/>
<path d="M29.0488 15.0911H28.1538V15.9861H29.0488V15.0911Z" fill="#DBD38B"/>
<path d="M29.0488 14.2049H28.1538V15.0911H29.0488V14.2049Z" fill="#CCBB69"/>
<path d="M29.0488 13.3087H28.1538V14.2037H29.0488V13.3087Z" fill="#CCBE58"/>
<path d="M29.0488 12.4211H28.1538V13.3074H29.0488V12.4211Z" fill="black"/>
<path d="M28.1524 41.8499H27.2661V42.7449H28.1524V41.8499Z" fill="black"/>
<path d="M28.1524 40.9624H27.2661V41.8487H28.1524V40.9624Z" fill="#FF5290"/>
<path d="M28.1524 40.0674H27.2661V40.9624H28.1524V40.0674Z" fill="#FF749A"/>
<path d="M28.1524 39.1799H27.2661V40.0661H28.1524V39.1799Z" fill="#FF749A"/>
<path d="M28.1524 38.2836H27.2661V39.1786H28.1524V38.2836Z" fill="#FF749A"/>
<path d="M28.1524 37.3886H27.2661V38.2836H28.1524V37.3886Z" fill="#FF749A"/>
<path d="M28.1524 36.5012H27.2661V37.3874H28.1524V36.5012Z" fill="#FF749A"/>
<path d="M28.1524 35.6061H27.2661V36.5011H28.1524V35.6061Z" fill="#FF5A8D"/>
<path d="M28.1524 34.7186H27.2661V35.6049H28.1524V34.7186Z" fill="black"/>
<path d="M28.1524 29.3624H27.2661V30.2574H28.1524V29.3624Z" fill="black"/>
<path d="M28.1524 28.4749H27.2661V29.3611H28.1524V28.4749Z" fill="black"/>
<path d="M28.1524 27.5786H27.2661V28.4736H28.1524V27.5786Z" fill="black"/>
<path d="M28.1524 26.6924H27.2661V27.5786H28.1524V26.6924Z" fill="black"/>
<path d="M28.1524 24.0136H27.2661V24.9086H28.1524V24.0136Z" fill="black"/>
<path d="M28.1524 23.1187H27.2661V24.0137H28.1524V23.1187Z" fill="#FF749A"/>
<path d="M28.1524 22.2311H27.2661V23.1174H28.1524V22.2311Z" fill="#FF749A"/>
<path d="M28.1524 21.3349H27.2661V22.2299H28.1524V21.3349Z" fill="#FF749A"/>
<path d="M28.1524 20.4486H27.2661V21.3349H28.1524V20.4486Z" fill="#FF749A"/>
<path d="M28.1524 19.5524H27.2661V20.4474H28.1524V19.5524Z" fill="#FF5A8D"/>
<path d="M28.1524 18.6649H27.2661V19.5511H28.1524V18.6649Z" fill="#FF5A8D"/>
<path d="M28.1524 17.7699H27.2661V18.6649H28.1524V17.7699Z" fill="#DBD38B"/>
<path d="M28.1524 16.8737H27.2661V17.7687H28.1524V16.8737Z" fill="#DBD38B"/>
<path d="M28.1524 15.9874H27.2661V16.8736H28.1524V15.9874Z" fill="#DBD38B"/>
<path d="M28.1524 15.0911H27.2661V15.9861H28.1524V15.0911Z" fill="#DBD38B"/>
<path d="M28.1524 14.2049H27.2661V15.0911H28.1524V14.2049Z" fill="#DBD38B"/>
<path d="M28.1524 13.3087H27.2661V14.2037H28.1524V13.3087Z" fill="#CCBB69"/>
<path d="M28.1524 12.4211H27.2661V13.3074H28.1524V12.4211Z" fill="black"/>
<path d="M27.2661 41.8499H26.3711V42.7449H27.2661V41.8499Z" fill="black"/>
<path d="M27.2661 40.9624H26.3711V41.8487H27.2661V40.9624Z" fill="#FF5A8D"/>
<path d="M27.2661 40.0674H26.3711V40.9624H27.2661V40.0674Z" fill="#FF749A"/>
<path d="M27.2661 39.1799H26.3711V40.0661H27.2661V39.1799Z" fill="#FF749A"/>
<path d="M27.2661 38.2836H26.3711V39.1786H27.2661V38.2836Z" fill="#FF749A"/>
<path d="M27.2661 37.3886H26.3711V38.2836H27.2661V37.3886Z" fill="#FF749A"/>
<path d="M27.2661 36.5012H26.3711V37.3874H27.2661V36.5012Z" fill="#FF749A"/>
<path d="M27.2661 35.6061H26.3711V36.5011H27.2661V35.6061Z" fill="#FF5A8D"/>
<path d="M27.2661 34.7186H26.3711V35.6049H27.2661V34.7186Z" fill="black"/>
<path d="M27.2661 33.8224H26.3711V34.7174H27.2661V33.8224Z" fill="black"/>
<path d="M27.2661 32.9362H26.3711V33.8224H27.2661V32.9362Z" fill="black"/>
<path d="M27.2661 32.0411H26.3711V32.9361H27.2661V32.0411Z" fill="black"/>
<path d="M27.2661 31.1436H26.3711V32.0386H27.2661V31.1436Z" fill="black"/>
<path d="M27.2661 30.2574H26.3711V31.1436H27.2661V30.2574Z" fill="black"/>
<path d="M27.2661 29.3624H26.3711V30.2574H27.2661V29.3624Z" fill="#FF5A8D"/>
<path d="M27.2661 28.4749H26.3711V29.3611H27.2661V28.4749Z" fill="#FF5A8D"/>
<path d="M27.2661 27.5786H26.3711V28.4736H27.2661V27.5786Z" fill="#FF5A8D"/>
<path d="M27.2661 26.6924H26.3711V27.5786H27.2661V26.6924Z" fill="#FF5290"/>
<path d="M27.2661 25.7974H26.3711V26.6924H27.2661V25.7974Z" fill="black"/>
<path d="M27.2661 24.9086H26.3711V25.7949H27.2661V24.9086Z" fill="black"/>
<path d="M27.2661 24.0136H26.3711V24.9086H27.2661V24.0136Z" fill="black"/>
<path d="M27.2661 23.1187H26.3711V24.0137H27.2661V23.1187Z" fill="#FF749A"/>
<path d="M27.2661 22.2311H26.3711V23.1174H27.2661V22.2311Z" fill="#FF749A"/>
<path d="M27.2661 21.3349H26.3711V22.2299H27.2661V21.3349Z" fill="#FF749A"/>
<path d="M27.2661 20.4486H26.3711V21.3349H27.2661V20.4486Z" fill="#FF5A8D"/>
<path d="M27.2661 19.5524H26.3711V20.4474H27.2661V19.5524Z" fill="#FF5A8D"/>
<path d="M27.2661 18.6649H26.3711V19.5511H27.2661V18.6649Z" fill="black"/>
<path d="M27.2661 17.7699H26.3711V18.6649H27.2661V17.7699Z" fill="black"/>
<path d="M27.2661 16.8737H26.3711V17.7687H27.2661V16.8737Z" fill="#EF997B"/>
<path d="M27.2661 15.9874H26.3711V16.8736H27.2661V15.9874Z" fill="#DBD38B"/>
<path d="M27.2661 15.0911H26.3711V15.9861H27.2661V15.0911Z" fill="#DBD38B"/>
<path d="M27.2661 14.2049H26.3711V15.0911H27.2661V14.2049Z" fill="#DBD38B"/>
<path d="M27.2661 13.3087H26.3711V14.2037H27.2661V13.3087Z" fill="#CCBB69"/>
<path d="M27.2661 12.4211H26.3711V13.3074H27.2661V12.4211Z" fill="black"/>
<path d="M26.3701 41.8499H25.4839V42.7449H26.3701V41.8499Z" fill="black"/>
<path d="M26.3701 40.9624H25.4839V41.8487H26.3701V40.9624Z" fill="#FF749A"/>
<path d="M26.3701 40.0674H25.4839V40.9624H26.3701V40.0674Z" fill="#FF749A"/>
<path d="M26.3701 39.1799H25.4839V40.0661H26.3701V39.1799Z" fill="#FF749A"/>
<path d="M26.3701 38.2836H25.4839V39.1786H26.3701V38.2836Z" fill="#FF749A"/>
<path d="M26.3701 37.3886H25.4839V38.2836H26.3701V37.3886Z" fill="#FF749A"/>
<path d="M26.3701 36.5012H25.4839V37.3874H26.3701V36.5012Z" fill="#FF749A"/>
<path d="M26.3701 35.6061H25.4839V36.5011H26.3701V35.6061Z" fill="#FF749A"/>
<path d="M26.3701 34.7186H25.4839V35.6049H26.3701V34.7186Z" fill="#FF5A8D"/>
<path d="M26.3701 33.8224H25.4839V34.7174H26.3701V33.8224Z" fill="#FF5A8D"/>
<path d="M26.3701 32.9362H25.4839V33.8224H26.3701V32.9362Z" fill="#FF5A8D"/>
<path d="M26.3701 32.0411H25.4839V32.9361H26.3701V32.0411Z" fill="#FF5A8D"/>
<path d="M26.3701 31.1436H25.4839V32.0386H26.3701V31.1436Z" fill="#FF5A8D"/>
<path d="M26.3701 30.2574H25.4839V31.1436H26.3701V30.2574Z" fill="#FF5A8D"/>
<path d="M26.3701 29.3624H25.4839V30.2574H26.3701V29.3624Z" fill="#FF749A"/>
<path d="M26.3701 28.4749H25.4839V29.3611H26.3701V28.4749Z" fill="#FF749A"/>
<path d="M26.3701 27.5786H25.4839V28.4736H26.3701V27.5786Z" fill="#FF5A8D"/>
<path d="M26.3701 26.6924H25.4839V27.5786H26.3701V26.6924Z" fill="#FF5290"/>
<path d="M26.3701 25.7974H25.4839V26.6924H26.3701V25.7974Z" fill="#FF5290"/>
<path d="M26.3701 24.9086H25.4839V25.7949H26.3701V24.9086Z" fill="#72512D"/>
<path d="M26.3701 24.0136H25.4839V24.9086H26.3701V24.0136Z" fill="#72512D"/>
<path d="M26.3701 23.1187H25.4839V24.0137H26.3701V23.1187Z" fill="#FF749A"/>
<path d="M26.3701 22.2311H25.4839V23.1174H26.3701V22.2311Z" fill="#FF749A"/>
<path d="M26.3701 21.3349H25.4839V22.2299H26.3701V21.3349Z" fill="#FF5A8D"/>
<path d="M26.3701 20.4486H25.4839V21.3349H26.3701V20.4486Z" fill="#EF997B"/>
<path d="M26.3701 19.5524H25.4839V20.4474H26.3701V19.5524Z" fill="#EF997B"/>
<path d="M26.3701 18.6649H25.4839V19.5511H26.3701V18.6649Z" fill="#EF997B"/>
<path d="M26.3701 17.7699H25.4839V18.6649H26.3701V17.7699Z" fill="#EF997B"/>
<path d="M26.3701 16.8737H25.4839V17.7687H26.3701V16.8737Z" fill="#EF997B"/>
<path d="M26.3701 15.9874H25.4839V16.8736H26.3701V15.9874Z" fill="#EF997B"/>
<path d="M26.3701 15.0911H25.4839V15.9861H26.3701V15.0911Z" fill="#DBD38B"/>
<path d="M26.3701 14.2049H25.4839V15.0911H26.3701V14.2049Z" fill="#DBD38B"/>
<path d="M26.3701 13.3087H25.4839V14.2037H26.3701V13.3087Z" fill="#DBD38B"/>
<path d="M26.3701 12.4211H25.4839V13.3074H26.3701V12.4211Z" fill="black"/>
<path d="M25.4824 41.8499H24.5874V42.7449H25.4824V41.8499Z" fill="black"/>
<path d="M25.4824 40.9624H24.5874V41.8487H25.4824V40.9624Z" fill="#FF5A8D"/>
<path d="M25.4824 40.0674H24.5874V40.9624H25.4824V40.0674Z" fill="#FF749A"/>
<path d="M25.4824 39.1799H24.5874V40.0661H25.4824V39.1799Z" fill="#FF749A"/>
<path d="M25.4824 38.2836H24.5874V39.1786H25.4824V38.2836Z" fill="#FF749A"/>
<path d="M25.4824 37.3886H24.5874V38.2836H25.4824V37.3886Z" fill="#FF749A"/>
<path d="M25.4824 36.5012H24.5874V37.3874H25.4824V36.5012Z" fill="#FF749A"/>
<path d="M25.4824 35.6061H24.5874V36.5011H25.4824V35.6061Z" fill="#FF749A"/>
<path d="M25.4824 34.7186H24.5874V35.6049H25.4824V34.7186Z" fill="#FF749A"/>
<path d="M25.4824 33.8224H24.5874V34.7174H25.4824V33.8224Z" fill="#FF749A"/>
<path d="M25.4824 32.9362H24.5874V33.8224H25.4824V32.9362Z" fill="#FF749A"/>
<path d="M25.4824 32.0411H24.5874V32.9361H25.4824V32.0411Z" fill="#FF749A"/>
<path d="M25.4824 31.1436H24.5874V32.0386H25.4824V31.1436Z" fill="#FF749A"/>
<path d="M25.4824 30.2574H24.5874V31.1436H25.4824V30.2574Z" fill="#FF749A"/>
<path d="M25.4824 29.3624H24.5874V30.2574H25.4824V29.3624Z" fill="#FF749A"/>
<path d="M25.4824 28.4749H24.5874V29.3611H25.4824V28.4749Z" fill="#FF749A"/>
<path d="M25.4824 27.5786H24.5874V28.4736H25.4824V27.5786Z" fill="#FF749A"/>
<path d="M25.4824 26.6924H24.5874V27.5786H25.4824V26.6924Z" fill="#FF5A8D"/>
<path d="M25.4824 25.7974H24.5874V26.6924H25.4824V25.7974Z" fill="#FF5A8D"/>
<path d="M25.4824 24.9086H24.5874V25.7949H25.4824V24.9086Z" fill="#7A5A34"/>
<path d="M25.4824 24.0136H24.5874V24.9086H25.4824V24.0136Z" fill="#72512D"/>
<path d="M25.4824 23.1187H24.5874V24.0137H25.4824V23.1187Z" fill="#FF749A"/>
<path d="M25.4824 22.2311H24.5874V23.1174H25.4824V22.2311Z" fill="#FF5A8D"/>
<path d="M25.4824 21.3349H24.5874V22.2299H25.4824V21.3349Z" fill="#FF5A8D"/>
<path d="M25.4824 20.4486H24.5874V21.3349H25.4824V20.4486Z" fill="#EF997B"/>
<path d="M25.4824 19.5524H24.5874V20.4474H25.4824V19.5524Z" fill="#EF997B"/>
<path d="M25.4824 18.6649H24.5874V19.5511H25.4824V18.6649Z" fill="#EF997B"/>
<path d="M25.4824 17.7699H24.5874V18.6649H25.4824V17.7699Z" fill="#EF997B"/>
<path d="M25.4824 16.8737H24.5874V17.7687H25.4824V16.8737Z" fill="#C6C4C6"/>
<path d="M25.4824 15.9874H24.5874V16.8736H25.4824V15.9874Z" fill="#EF997B"/>
<path d="M25.4824 15.0911H24.5874V15.9861H25.4824V15.0911Z" fill="#DBD38B"/>
<path d="M25.4824 14.2049H24.5874V15.0911H25.4824V14.2049Z" fill="#DBD38B"/>
<path d="M25.4824 13.3087H24.5874V14.2037H25.4824V13.3087Z" fill="#DBD38B"/>
<path d="M25.4824 12.4211H24.5874V13.3074H25.4824V12.4211Z" fill="black"/>
<path d="M24.5874 41.8499H23.7012V42.7449H24.5874V41.8499Z" fill="black"/>
<path d="M24.5874 40.9624H23.7012V41.8487H24.5874V40.9624Z" fill="#FF5A8D"/>
<path d="M24.5874 40.0674H23.7012V40.9624H24.5874V40.0674Z" fill="#FF5A8D"/>
<path d="M24.5874 39.1799H23.7012V40.0661H24.5874V39.1799Z" fill="#FF749A"/>
<path d="M24.5874 38.2836H23.7012V39.1786H24.5874V38.2836Z" fill="#FF749A"/>
<path d="M24.5874 37.3886H23.7012V38.2836H24.5874V37.3886Z" fill="#FF749A"/>
<path d="M24.5874 36.5012H23.7012V37.3874H24.5874V36.5012Z" fill="#FF749A"/>
<path d="M24.5874 35.6061H23.7012V36.5011H24.5874V35.6061Z" fill="#FF749A"/>
<path d="M24.5874 34.7186H23.7012V35.6049H24.5874V34.7186Z" fill="#FF749A"/>
<path d="M24.5874 33.8224H23.7012V34.7174H24.5874V33.8224Z" fill="#FF749A"/>
<path d="M24.5874 32.9362H23.7012V33.8224H24.5874V32.9362Z" fill="#FF749A"/>
<path d="M24.5874 32.0411H23.7012V32.9361H24.5874V32.0411Z" fill="#FF749A"/>
<path d="M24.5874 31.1436H23.7012V32.0386H24.5874V31.1436Z" fill="#FF749A"/>
<path d="M24.5874 30.2574H23.7012V31.1436H24.5874V30.2574Z" fill="#FF749A"/>
<path d="M24.5874 29.3624H23.7012V30.2574H24.5874V29.3624Z" fill="#FF749A"/>
<path d="M24.5874 28.4749H23.7012V29.3611H24.5874V28.4749Z" fill="#FF749A"/>
<path d="M24.5874 27.5786H23.7012V28.4736H24.5874V27.5786Z" fill="#FF749A"/>
<path d="M24.5874 26.6924H23.7012V27.5786H24.5874V26.6924Z" fill="#FF749A"/>
<path d="M24.5874 25.7974H23.7012V26.6924H24.5874V25.7974Z" fill="#FF5A8D"/>
<path d="M24.5874 24.9086H23.7012V25.7949H24.5874V24.9086Z" fill="#7A5A34"/>
<path d="M24.5874 24.0136H23.7012V24.9086H24.5874V24.0136Z" fill="#7A5A34"/>
<path d="M24.5874 23.1187H23.7012V24.0137H24.5874V23.1187Z" fill="#FF5A8D"/>
<path d="M24.5874 22.2311H23.7012V23.1174H24.5874V22.2311Z" fill="#EF997B"/>
<path d="M24.5874 21.3349H23.7012V22.2299H24.5874V21.3349Z" fill="#FF749A"/>
<path d="M24.5874 20.4486H23.7012V21.3349H24.5874V20.4486Z" fill="#EF997B"/>
<path d="M24.5874 19.5524H23.7012V20.4474H24.5874V19.5524Z" fill="black"/>
<path d="M24.5874 18.6649H23.7012V19.5511H24.5874V18.6649Z" fill="#EF997B"/>
<path d="M24.5874 17.7699H23.7012V18.6649H24.5874V17.7699Z" fill="#EF997B"/>
<path d="M24.5874 16.8737H23.7012V17.7687H24.5874V16.8737Z" fill="#EF997B"/>
<path d="M24.5874 15.9874H23.7012V16.8736H24.5874V15.9874Z" fill="#EF997B"/>
<path d="M24.5874 15.0911H23.7012V15.9861H24.5874V15.0911Z" fill="#DBD38B"/>
<path d="M24.5874 14.2049H23.7012V15.0911H24.5874V14.2049Z" fill="#DBD38B"/>
<path d="M24.5874 13.3087H23.7012V14.2037H24.5874V13.3087Z" fill="#DBD38B"/>
<path d="M24.5874 12.4211H23.7012V13.3074H24.5874V12.4211Z" fill="black"/>
<path d="M23.7012 40.9624H22.8062V41.8487H23.7012V40.9624Z" fill="black"/>
<path d="M23.7012 40.0674H22.8062V40.9624H23.7012V40.0674Z" fill="#FF5A8D"/>
<path d="M23.7012 39.1799H22.8062V40.0661H23.7012V39.1799Z" fill="#FF749A"/>
<path d="M23.7012 38.2836H22.8062V39.1786H23.7012V38.2836Z" fill="#FF749A"/>
<path d="M23.7012 37.3886H22.8062V38.2836H23.7012V37.3886Z" fill="#FF5A8D"/>
<path d="M23.7012 36.5012H22.8062V37.3874H23.7012V36.5012Z" fill="black"/>
<path d="M23.7012 35.6061H22.8062V36.5011H23.7012V35.6061Z" fill="black"/>
<path d="M23.7012 34.7186H22.8062V35.6049H23.7012V34.7186Z" fill="black"/>
<path d="M23.7012 33.8224H22.8062V34.7174H23.7012V33.8224Z" fill="black"/>
<path d="M23.7012 32.9362H22.8062V33.8224H23.7012V32.9362Z" fill="black"/>
<path d="M23.7012 32.0411H22.8062V32.9361H23.7012V32.0411Z" fill="black"/>
<path d="M23.7012 31.1436H22.8062V32.0386H23.7012V31.1436Z" fill="#FF5A8D"/>
<path d="M23.7012 30.2574H22.8062V31.1436H23.7012V30.2574Z" fill="#FF5A8D"/>
<path d="M23.7012 29.3624H22.8062V30.2574H23.7012V29.3624Z" fill="#FF749A"/>
<path d="M23.7012 28.4749H22.8062V29.3611H23.7012V28.4749Z" fill="#FF749A"/>
<path d="M23.7012 27.5786H22.8062V28.4736H23.7012V27.5786Z" fill="#FF749A"/>
<path d="M23.7012 26.6924H22.8062V27.5786H23.7012V26.6924Z" fill="#FF749A"/>
<path d="M23.7012 25.7974H22.8062V26.6924H23.7012V25.7974Z" fill="#FF5A8D"/>
<path d="M23.7012 24.9086H22.8062V25.7949H23.7012V24.9086Z" fill="#7A5A34"/>
<path d="M23.7012 24.0136H22.8062V24.9086H23.7012V24.0136Z" fill="#7A5A34"/>
<path d="M23.7012 23.1187H22.8062V24.0137H23.7012V23.1187Z" fill="#FF749A"/>
<path d="M23.7012 22.2311H22.8062V23.1174H23.7012V22.2311Z" fill="#EF997B"/>
<path d="M23.7012 21.3349H22.8062V22.2299H23.7012V21.3349Z" fill="#FF749A"/>
<path d="M23.7012 20.4486H22.8062V21.3349H23.7012V20.4486Z" fill="#FF749A"/>
<path d="M23.7012 19.5524H22.8062V20.4474H23.7012V19.5524Z" fill="black"/>
<path d="M23.7012 18.6649H22.8062V19.5511H23.7012V18.6649Z" fill="black"/>
<path d="M23.7012 17.7699H22.8062V18.6649H23.7012V17.7699Z" fill="#EF997B"/>
<path d="M23.7012 16.8737H22.8062V17.7687H23.7012V16.8737Z" fill="#C6C4C6"/>
<path d="M23.7012 15.9874H22.8062V16.8736H23.7012V15.9874Z" fill="#EF997B"/>
<path d="M23.7012 15.0911H22.8062V15.9861H23.7012V15.0911Z" fill="#DBD38B"/>
<path d="M23.7012 14.2049H22.8062V15.0911H23.7012V14.2049Z" fill="#CCBB69"/>
<path d="M23.7012 13.3087H22.8062V14.2037H23.7012V13.3087Z" fill="black"/>
<path d="M22.8037 40.9624H21.9175V41.8487H22.8037V40.9624Z" fill="black"/>
<path d="M22.8037 40.0674H21.9175V40.9624H22.8037V40.0674Z" fill="#FF5A8D"/>
<path d="M22.8037 39.1799H21.9175V40.0661H22.8037V39.1799Z" fill="#FF749A"/>
<path d="M22.8037 38.2836H21.9175V39.1786H22.8037V38.2836Z" fill="#FF5A8D"/>
<path d="M22.8037 37.3886H21.9175V38.2836H22.8037V37.3886Z" fill="black"/>
<path d="M22.8037 31.1436H21.9175V32.0386H22.8037V31.1436Z" fill="black"/>
<path d="M22.8037 30.2574H21.9175V31.1436H22.8037V30.2574Z" fill="black"/>
<path d="M22.8037 29.3624H21.9175V30.2574H22.8037V29.3624Z" fill="black"/>
<path d="M22.8037 28.4749H21.9175V29.3611H22.8037V28.4749Z" fill="#FF749A"/>
<path d="M22.8037 27.5786H21.9175V28.4736H22.8037V27.5786Z" fill="#FF749A"/>
<path d="M22.8037 26.6924H21.9175V27.5786H22.8037V26.6924Z" fill="#FF749A"/>
<path d="M22.8037 25.7974H21.9175V26.6924H22.8037V25.7974Z" fill="black"/>
<path d="M22.8037 24.9086H21.9175V25.7949H22.8037V24.9086Z" fill="black"/>
<path d="M22.8037 24.0136H21.9175V24.9086H22.8037V24.0136Z" fill="#EF997B"/>
<path d="M22.8037 23.1187H21.9175V24.0137H22.8037V23.1187Z" fill="black"/>
<path d="M22.8037 22.2311H21.9175V23.1174H22.8037V22.2311Z" fill="#EF997B"/>
<path d="M22.8037 21.3349H21.9175V22.2299H22.8037V21.3349Z" fill="#FF749A"/>
<path d="M22.8037 20.4486H21.9175V21.3349H22.8037V20.4486Z" fill="black"/>
<path d="M22.8037 17.7699H21.9175V18.6649H22.8037V17.7699Z" fill="black"/>
<path d="M22.8037 16.8737H21.9175V17.7687H22.8037V16.8737Z" fill="black"/>
<path d="M22.8037 15.9874H21.9175V16.8736H22.8037V15.9874Z" fill="#CCBB69"/>
<path d="M22.8037 15.0911H21.9175V15.9861H22.8037V15.0911Z" fill="#CCBB69"/>
<path d="M22.8037 14.2049H21.9175V15.0911H22.8037V14.2049Z" fill="black"/>
<path d="M21.9175 40.9624H21.0225V41.8487H21.9175V40.9624Z" fill="black"/>
<path d="M21.9175 40.0674H21.0225V40.9624H21.9175V40.0674Z" fill="#FF5A8D"/>
<path d="M21.9175 39.1799H21.0225V40.0661H21.9175V39.1799Z" fill="#FF749A"/>
<path d="M21.9175 38.2836H21.0225V39.1786H21.9175V38.2836Z" fill="black"/>
<path d="M21.9175 28.4749H21.0225V29.3611H21.9175V28.4749Z" fill="black"/>
<path d="M21.9175 27.5786H21.0225V28.4736H21.9175V27.5786Z" fill="black"/>
<path d="M21.9175 26.6924H21.0225V27.5786H21.9175V26.6924Z" fill="black"/>
<path d="M21.9175 25.7974H21.0225V26.6924H21.9175V25.7974Z" fill="black"/>
<path d="M21.9175 24.9086H21.0225V25.7949H21.9175V24.9086Z" fill="#EF997B"/>
<path d="M21.9175 24.0136H21.0225V24.9086H21.9175V24.0136Z" fill="#EF997B"/>
<path d="M21.9175 23.1187H21.0225V24.0137H21.9175V23.1187Z" fill="black"/>
<path d="M21.9175 22.2311H21.0225V23.1174H21.9175V22.2311Z" fill="#EF997B"/>
<path d="M21.9175 21.3349H21.0225V22.2299H21.9175V21.3349Z" fill="black"/>
<path d="M21.9175 15.9874H21.0225V16.8736H21.9175V15.9874Z" fill="black"/>
<path d="M21.9175 15.0911H21.0225V15.9861H21.9175V15.0911Z" fill="black"/>
<path d="M21.0224 40.9624H20.1274V41.8487H21.0224V40.9624Z" fill="black"/>
<path d="M21.0224 40.0674H20.1274V40.9624H21.0224V40.0674Z" fill="#FF5A8D"/>
<path d="M21.0224 39.1799H20.1274V40.0661H21.0224V39.1799Z" fill="#FF5A8D"/>
<path d="M21.0224 38.2836H20.1274V39.1786H21.0224V38.2836Z" fill="black"/>
<path d="M21.0224 25.7974H20.1274V26.6924H21.0224V25.7974Z" fill="black"/>
<path d="M21.0224 24.9086H20.1274V25.7949H21.0224V24.9086Z" fill="#EF997B"/>
<path d="M21.0224 24.0136H20.1274V24.9086H21.0224V24.0136Z" fill="black"/>
<path d="M21.0224 23.1187H20.1274V24.0137H21.0224V23.1187Z" fill="black"/>
<path d="M21.0224 22.2311H20.1274V23.1174H21.0224V22.2311Z" fill="#EF997B"/>
<path d="M21.0224 21.3349H20.1274V22.2299H21.0224V21.3349Z" fill="black"/>
<path d="M20.1275 40.0674H19.2412V40.9624H20.1275V40.0674Z" fill="black"/>
<path d="M20.1275 39.1799H19.2412V40.0661H20.1275V39.1799Z" fill="black"/>
<path d="M20.1275 26.6924H19.2412V27.5786H20.1275V26.6924Z" fill="black"/>
<path d="M20.1275 25.7974H19.2412V26.6924H20.1275V25.7974Z" fill="#EF997B"/>
<path d="M20.1275 24.9086H19.2412V25.7949H20.1275V24.9086Z" fill="#EF997B"/>
<path d="M20.1275 24.0136H19.2412V24.9086H20.1275V24.0136Z" fill="black"/>
<path d="M20.1275 23.1187H19.2412V24.0137H20.1275V23.1187Z" fill="black"/>
<path d="M20.1275 22.2311H19.2412V23.1174H20.1275V22.2311Z" fill="#EF997B"/>
<path d="M20.1275 21.3349H19.2412V22.2299H20.1275V21.3349Z" fill="#EF997B"/>
<path d="M20.1275 20.4486H19.2412V21.3349H20.1275V20.4486Z" fill="black"/>
<path d="M20.1275 15.0911H19.2412V15.9861H20.1275V15.0911Z" fill="#751545"/>
<path d="M20.1275 14.2049H19.2412V15.0911H20.1275V14.2049Z" fill="#751545"/>
<path d="M20.1275 13.3087H19.2412V14.2037H20.1275V13.3087Z" fill="#751545"/>
<path d="M20.1275 12.4211H19.2412V13.3074H20.1275V12.4211Z" fill="#751545"/>
<path d="M19.2388 39.1799H18.3438V40.0661H19.2388V39.1799Z" fill="#751545"/>
<path d="M19.2388 38.2836H18.3438V39.1786H19.2388V38.2836Z" fill="#751545"/>
<path d="M19.2388 37.3886H18.3438V38.2836H19.2388V37.3886Z" fill="#751545"/>
<path d="M19.2388 36.5012H18.3438V37.3874H19.2388V36.5012Z" fill="#751545"/>
<path d="M19.2388 35.6061H18.3438V36.5011H19.2388V35.6061Z" fill="#751545"/>
<path d="M19.2388 34.7186H18.3438V35.6049H19.2388V34.7186Z" fill="#751545"/>
<path d="M19.2388 33.8224H18.3438V34.7174H19.2388V33.8224Z" fill="#751545"/>
<path d="M19.2388 32.9362H18.3438V33.8224H19.2388V32.9362Z" fill="#751545"/>
<path d="M19.2388 32.0411H18.3438V32.9361H19.2388V32.0411Z" fill="#751545"/>
<path d="M19.2388 31.1436H18.3438V32.0386H19.2388V31.1436Z" fill="#751545"/>
<path d="M19.2388 30.2574H18.3438V31.1436H19.2388V30.2574Z" fill="#751545"/>
<path d="M19.2388 29.3624H18.3438V30.2574H19.2388V29.3624Z" fill="#751545"/>
<path d="M19.2388 28.4749H18.3438V29.3611H19.2388V28.4749Z" fill="#751545"/>
<path d="M19.2388 27.5786H18.3438V28.4736H19.2388V27.5786Z" fill="#751545"/>
<path d="M19.2388 26.6924H18.3438V27.5786H19.2388V26.6924Z" fill="#751545"/>
<path d="M19.2388 25.7974H18.3438V26.6924H19.2388V25.7974Z" fill="#751545"/>
<path d="M19.2388 24.9086H18.3438V25.7949H19.2388V24.9086Z" fill="#751545"/>
<path d="M19.2388 24.0136H18.3438V24.9086H19.2388V24.0136Z" fill="#751545"/>
<path d="M19.2388 23.1187H18.3438V24.0137H19.2388V23.1187Z" fill="black"/>
<path d="M19.2388 22.2311H18.3438V23.1174H19.2388V22.2311Z" fill="#EF997B"/>
<path d="M19.2388 21.3349H18.3438V22.2299H19.2388V21.3349Z" fill="#EF997B"/>
<path d="M19.2388 20.4486H18.3438V21.3349H19.2388V20.4486Z" fill="#751545"/>
<path d="M19.2388 19.5524H18.3438V20.4474H19.2388V19.5524Z" fill="#751545"/>
<path d="M19.2388 18.6649H18.3438V19.5511H19.2388V18.6649Z" fill="#751545"/>
<path d="M19.2388 17.7699H18.3438V18.6649H19.2388V17.7699Z" fill="#751545"/>
<path d="M19.2388 16.8737H18.3438V17.7687H19.2388V16.8737Z" fill="#751545"/>
<path d="M19.2388 15.9874H18.3438V16.8736H19.2388V15.9874Z" fill="#751545"/>
<path d="M19.2388 15.0911H18.3438V15.9861H19.2388V15.0911Z" fill="#751545"/>
<path d="M19.2388 14.2049H18.3438V15.0911H19.2388V14.2049Z" fill="#751545"/>
<path d="M19.2388 13.3087H18.3438V14.2037H19.2388V13.3087Z" fill="#751545"/>
<path d="M19.2388 12.4211H18.3438V13.3074H19.2388V12.4211Z" fill="#751545"/>
<path d="M19.2388 11.5261H18.3438V12.4211H19.2388V11.5261Z" fill="#751545"/>
<path d="M18.3438 25.7974H17.4575V26.6924H18.3438V25.7974Z" fill="black"/>
<path d="M18.3438 24.9086H17.4575V25.7949H18.3438V24.9086Z" fill="black"/>
<path d="M18.3438 22.2311H17.4575V23.1174H18.3438V22.2311Z" fill="black"/>
<path d="M18.3438 21.3349H17.4575V22.2299H18.3438V21.3349Z" fill="black"/>
<path d="M18.3438 19.5524H17.4575V20.4474H18.3438V19.5524Z" fill="#751545"/>
<path d="M18.3438 18.6649H17.4575V19.5511H18.3438V18.6649Z" fill="#751545"/>
<path d="M18.3438 17.7699H17.4575V18.6649H18.3438V17.7699Z" fill="#751545"/>
<path d="M18.3438 16.8737H17.4575V17.7687H18.3438V16.8737Z" fill="#751545"/>
<path d="M18.3438 15.9874H17.4575V16.8736H18.3438V15.9874Z" fill="#751545"/>
<path d="M18.3438 15.0911H17.4575V15.9861H18.3438V15.0911Z" fill="#751545"/>
<path d="M18.3438 14.2049H17.4575V15.0911H18.3438V14.2049Z" fill="#06E1F7"/>
<path d="M18.3438 13.3087H17.4575V14.2037H18.3438V13.3087Z" fill="#06E1F7"/>
<path d="M18.3438 12.4211H17.4575V13.3074H18.3438V12.4211Z" fill="#751545"/>
<path d="M18.3438 11.5261H17.4575V12.4211H18.3438V11.5261Z" fill="#751545"/>
<path d="M18.3438 10.6386H17.4575V11.5249H18.3438V10.6386Z" fill="#751545"/>
<path d="M17.4575 16.8737H16.5625V17.7687H17.4575V16.8737Z" fill="#751545"/>
<path d="M17.4575 15.9874H16.5625V16.8736H17.4575V15.9874Z" fill="#751545"/>
<path d="M17.4575 15.0911H16.5625V15.9861H17.4575V15.0911Z" fill="#751545"/>
<path d="M17.4575 14.2049H16.5625V15.0911H17.4575V14.2049Z" fill="#06E1F7"/>
<path d="M17.4575 13.3087H16.5625V14.2037H17.4575V13.3087Z" fill="#06E1F7"/>
<path d="M17.4575 12.4211H16.5625V13.3074H17.4575V12.4211Z" fill="#751545"/>
<path d="M17.4575 11.5261H16.5625V12.4211H17.4575V11.5261Z" fill="#751545"/>
<path d="M17.4575 10.6386H16.5625V11.5249H17.4575V10.6386Z" fill="#751545"/>
<path d="M16.5601 15.0911H15.6738V15.9861H16.5601V15.0911Z" fill="#751545"/>
<path d="M16.5601 14.2049H15.6738V15.0911H16.5601V14.2049Z" fill="#751545"/>
<path d="M16.5601 13.3087H15.6738V14.2037H16.5601V13.3087Z" fill="#751545"/>
<path d="M16.5601 12.4211H15.6738V13.3074H16.5601V12.4211Z" fill="#751545"/>
<path d="M16.5601 11.5261H15.6738V12.4211H16.5601V11.5261Z" fill="#751545"/>
</g>
<defs>
<clipPath id="clip0_69_12154">
<rect width="50" height="50" fill="white" transform="translate(0 0.942383)"/>
</clipPath>
</defs>
</svg>
