<svg width="50" height="51" viewBox="0 0 50 51" fill="none" xmlns="http://www.w3.org/2000/svg">
<g clip-path="url(#clip0_69_12163)">
<path d="M25.0001 49.1649C37.8255 49.1649 48.2226 38.7678 48.2226 25.9424C48.2226 13.117 37.8255 2.71991 25.0001 2.71991C12.1747 2.71991 1.77759 13.117 1.77759 25.9424C1.77759 38.7678 12.1747 49.1649 25.0001 49.1649Z" fill="black"/>
<path d="M25.0001 50.0399C11.7126 50.0399 0.902588 39.2299 0.902588 25.9424C0.902588 12.6549 11.7126 1.84491 25.0001 1.84491C38.2876 1.84491 49.0976 12.6549 49.0976 25.9424C49.0976 39.2299 38.2876 50.0399 25.0001 50.0399ZM25.0001 3.59491C12.6776 3.59491 2.65259 13.6199 2.65259 25.9424C2.65259 38.2649 12.6776 48.2899 25.0001 48.2899C37.3226 48.2899 47.3476 38.2649 47.3476 25.9424C47.3476 13.6199 37.3226 3.59491 25.0001 3.59491Z" fill="#C64B1A"/>
<path d="M26.3612 37.6887H25.6387V38.4049H26.3612V37.6887Z" fill="#6B1F01"/>
<path d="M26.3612 38.4049H25.6387V39.1274H26.3612V38.4049Z" fill="#6B1F01"/>
<path d="M26.3612 34.8137H25.6387V35.5287H26.3612V34.8137Z" fill="#6B1F01"/>
<path d="M26.3612 34.0911H25.6387V34.8136H26.3612V34.0911Z" fill="#6B1F01"/>
<path d="M26.3612 35.5286H25.6387V36.2511H26.3612V35.5286Z" fill="#6B1F01"/>
<path d="M26.3612 36.2512H25.6387V36.9662H26.3612V36.2512Z" fill="#6B1F01"/>
<path d="M25.6388 36.9674H24.9238V37.6899H25.6388V36.9674Z" fill="#7C2A05"/>
<path d="M24.9237 38.4049H24.2012V39.1274H24.9237V38.4049Z" fill="#7C2A05"/>
<path d="M25.6388 35.5286H24.9238V36.2511H25.6388V35.5286Z" fill="#6B1F01"/>
<path d="M24.9237 37.6887H24.2012V38.4049H24.9237V37.6887Z" fill="#7C2A05"/>
<path d="M24.9237 35.5286H24.2012V36.2511H24.9237V35.5286Z" fill="#7C2A05"/>
<path d="M25.6388 34.8137H24.9238V35.5287H25.6388V34.8137Z" fill="#7C2A05"/>
<path d="M25.6388 36.2512H24.9238V36.9662H25.6388V36.2512Z" fill="#7C2A05"/>
<path d="M25.6388 34.0911H24.9238V34.8136H25.6388V34.0911Z" fill="#6B1F01"/>
<path d="M24.9237 36.9674H24.2012V37.6899H24.9237V36.9674Z" fill="#7C2A05"/>
<path d="M24.9237 36.2512H24.2012V36.9662H24.9237V36.2512Z" fill="#7C2A05"/>
<path d="M24.9237 34.0911H24.2012V34.8136H24.9237V34.0911Z" fill="#7C2A05"/>
<path d="M24.9237 34.8137H24.2012V35.5287H24.9237V34.8137Z" fill="#7C2A05"/>
<path d="M22.04 38.4049H21.325V39.1274H22.04V38.4049Z" fill="#6B1F01"/>
<path d="M22.7625 33.3687H22.04V34.0912H22.7625V33.3687Z" fill="#7C2A05"/>
<path d="M22.7625 35.5286H22.04V36.2511H22.7625V35.5286Z" fill="#7C2A05"/>
<path d="M22.7625 34.0911H22.04V34.8136H22.7625V34.0911Z" fill="#7C2A05"/>
<path d="M22.7625 34.8137H22.04V35.5287H22.7625V34.8137Z" fill="#7C2A05"/>
<path d="M22.7625 36.2512H22.04V36.9662H22.7625V36.2512Z" fill="#6B1F01"/>
<path d="M22.04 34.0911H21.325V34.8136H22.04V34.0911Z" fill="#7C2A05"/>
<path d="M22.04 35.5286H21.325V36.2511H22.04V35.5286Z" fill="#6B1F01"/>
<path d="M22.04 36.2512H21.325V36.9662H22.04V36.2512Z" fill="#6B1F01"/>
<path d="M22.04 34.8137H21.325V35.5287H22.04V34.8137Z" fill="#7C2A05"/>
<path d="M22.04 33.3687H21.325V34.0912H22.04V33.3687Z" fill="#7C2A05"/>
<path d="M23.485 38.4049H22.7625V39.1274H23.485V38.4049Z" fill="#6B1F01"/>
<path d="M22.7625 37.6887H22.04V38.4049H22.7625V37.6887Z" fill="#6B1F01"/>
<path d="M23.485 37.6887H22.7625V38.4049H23.485V37.6887Z" fill="#7C2A05"/>
<path d="M23.485 35.5286H22.7625V36.2511H23.485V35.5286Z" fill="#7C2A05"/>
<path d="M23.485 36.9674H22.7625V37.6899H23.485V36.9674Z" fill="#7C2A05"/>
<path d="M23.485 36.2512H22.7625V36.9662H23.485V36.2512Z" fill="#7C2A05"/>
<path d="M23.485 34.0911H22.7625V34.8136H23.485V34.0911Z" fill="#7C2A05"/>
<path d="M23.485 34.8137H22.7625V35.5287H23.485V34.8137Z" fill="#7C2A05"/>
<path d="M22.7625 36.9674H22.04V37.6899H22.7625V36.9674Z" fill="#6B1F01"/>
<path d="M33.5512 39.1274H32.835V39.8424H33.5512V39.1274Z" fill="black"/>
<path d="M33.5512 38.4049H32.835V39.1274H33.5512V38.4049Z" fill="black"/>
<path d="M33.5512 37.6887H32.835V38.4049H33.5512V37.6887Z" fill="black"/>
<path d="M33.5512 36.9674H32.835V37.6899H33.5512V36.9674Z" fill="black"/>
<path d="M33.5512 36.2512H32.835V36.9662H33.5512V36.2512Z" fill="black"/>
<path d="M33.5512 35.5286H32.835V36.2511H33.5512V35.5286Z" fill="black"/>
<path d="M33.5512 34.8137H32.835V35.5287H33.5512V34.8137Z" fill="black"/>
<path d="M33.5512 34.0911H32.835V34.8136H33.5512V34.0911Z" fill="black"/>
<path d="M33.5512 33.3687H32.835V34.0912H33.5512V33.3687Z" fill="black"/>
<path d="M33.5512 32.6524H32.835V33.3687H33.5512V32.6524Z" fill="black"/>
<path d="M33.5512 31.9312H32.835V32.6537H33.5512V31.9312Z" fill="black"/>
<path d="M33.5512 31.2149H32.835V31.9299H33.5512V31.2149Z" fill="black"/>
<path d="M33.5512 30.4924H32.835V31.2149H33.5512V30.4924Z" fill="black"/>
<path d="M33.5512 29.7774H32.835V30.4924H33.5512V29.7774Z" fill="black"/>
<path d="M33.5512 29.0549H32.835V29.7774H33.5512V29.0549Z" fill="black"/>
<path d="M33.5512 28.3324H32.835V29.0549H33.5512V28.3324Z" fill="black"/>
<path d="M33.5512 27.6161H32.835V28.3312H33.5512V27.6161Z" fill="black"/>
<path d="M33.5512 26.8936H32.835V27.6161H33.5512V26.8936Z" fill="black"/>
<path d="M33.5512 26.1786H32.835V26.8937H33.5512V26.1786Z" fill="black"/>
<path d="M33.5512 25.4561H32.835V26.1786H33.5512V25.4561Z" fill="black"/>
<path d="M33.5512 24.7411H32.835V25.4562H33.5512V24.7411Z" fill="black"/>
<path d="M33.5512 24.0186H32.835V24.7411H33.5512V24.0186Z" fill="black"/>
<path d="M33.5512 23.3024H32.835V24.0174H33.5512V23.3024Z" fill="black"/>
<path d="M32.8363 39.1274H32.1138V39.8424H32.8363V39.1274Z" fill="black"/>
<path d="M32.8363 38.4049H32.1138V39.1274H32.8363V38.4049Z" fill="#DB4B03"/>
<path d="M32.8363 37.6887H32.1138V38.4049H32.8363V37.6887Z" fill="#DB4B03"/>
<path d="M32.8363 36.9674H32.1138V37.6899H32.8363V36.9674Z" fill="#DB4B03"/>
<path d="M32.8363 36.2512H32.1138V36.9662H32.8363V36.2512Z" fill="#DB4B03"/>
<path d="M32.8363 35.5286H32.1138V36.2511H32.8363V35.5286Z" fill="#DB4B03"/>
<path d="M32.8363 34.8137H32.1138V35.5287H32.8363V34.8137Z" fill="#DB4B03"/>
<path d="M32.8363 34.0911H32.1138V34.8136H32.8363V34.0911Z" fill="#DB4B03"/>
<path d="M32.8363 33.3687H32.1138V34.0912H32.8363V33.3687Z" fill="#DB4B03"/>
<path d="M32.8363 32.6524H32.1138V33.3687H32.8363V32.6524Z" fill="#DB4B03"/>
<path d="M32.8363 31.9312H32.1138V32.6537H32.8363V31.9312Z" fill="#FF5A00"/>
<path d="M32.8363 31.2149H32.1138V31.9299H32.8363V31.2149Z" fill="#FF5A00"/>
<path d="M32.8363 30.4924H32.1138V31.2149H32.8363V30.4924Z" fill="#FF5A00"/>
<path d="M32.8363 29.7774H32.1138V30.4924H32.8363V29.7774Z" fill="#FF5A00"/>
<path d="M32.8363 29.0549H32.1138V29.7774H32.8363V29.0549Z" fill="#FF5A00"/>
<path d="M32.8363 28.3324H32.1138V29.0549H32.8363V28.3324Z" fill="#FF5A00"/>
<path d="M32.8363 27.6161H32.1138V28.3312H32.8363V27.6161Z" fill="#FF5A00"/>
<path d="M32.8363 26.8936H32.1138V27.6161H32.8363V26.8936Z" fill="#FF5A00"/>
<path d="M32.8363 26.1786H32.1138V26.8937H32.8363V26.1786Z" fill="#FF5A00"/>
<path d="M32.8363 25.4561H32.1138V26.1786H32.8363V25.4561Z" fill="#FF5A00"/>
<path d="M32.8363 24.7411H32.1138V25.4562H32.8363V24.7411Z" fill="#DB4B03"/>
<path d="M32.8363 24.0186H32.1138V24.7411H32.8363V24.0186Z" fill="#DB4B03"/>
<path d="M32.8363 23.3024H32.1138V24.0174H32.8363V23.3024Z" fill="#DB4B03"/>
<path d="M32.8363 22.5799H32.1138V23.3024H32.8363V22.5799Z" fill="black"/>
<path d="M32.8363 21.8574H32.1138V22.5799H32.8363V21.8574Z" fill="black"/>
<path d="M32.1125 38.4049H31.3975V39.1274H32.1125V38.4049Z" fill="black"/>
<path d="M32.1125 37.6887H31.3975V38.4049H32.1125V37.6887Z" fill="#DB4B03"/>
<path d="M32.1125 36.9674H31.3975V37.6899H32.1125V36.9674Z" fill="#DB4B03"/>
<path d="M32.1125 36.2512H31.3975V36.9662H32.1125V36.2512Z" fill="#DB4B03"/>
<path d="M32.1125 35.5286H31.3975V36.2511H32.1125V35.5286Z" fill="#DB4B03"/>
<path d="M32.1125 34.8137H31.3975V35.5287H32.1125V34.8137Z" fill="#DB4B03"/>
<path d="M32.1125 34.0911H31.3975V34.8136H32.1125V34.0911Z" fill="#FF5A00"/>
<path d="M32.1125 33.3687H31.3975V34.0912H32.1125V33.3687Z" fill="#FF5A00"/>
<path d="M32.1125 32.6524H31.3975V33.3687H32.1125V32.6524Z" fill="#FF5A00"/>
<path d="M32.1125 31.9312H31.3975V32.6537H32.1125V31.9312Z" fill="#FF5A00"/>
<path d="M32.1125 31.2149H31.3975V31.9299H32.1125V31.2149Z" fill="#FF5A00"/>
<path d="M32.1125 30.4924H31.3975V31.2149H32.1125V30.4924Z" fill="#FF5A00"/>
<path d="M32.1125 29.7774H31.3975V30.4924H32.1125V29.7774Z" fill="#FF5A00"/>
<path d="M32.1125 29.0549H31.3975V29.7774H32.1125V29.0549Z" fill="#FF5A00"/>
<path d="M32.1125 28.3324H31.3975V29.0549H32.1125V28.3324Z" fill="#FF5A00"/>
<path d="M32.1125 27.6161H31.3975V28.3312H32.1125V27.6161Z" fill="#FF5A00"/>
<path d="M32.1125 26.8936H31.3975V27.6161H32.1125V26.8936Z" fill="#FF5A00"/>
<path d="M32.1125 26.1786H31.3975V26.8937H32.1125V26.1786Z" fill="#FF5A00"/>
<path d="M32.1125 25.4561H31.3975V26.1786H32.1125V25.4561Z" fill="#FF5A00"/>
<path d="M32.1125 24.7411H31.3975V25.4562H32.1125V24.7411Z" fill="#FF5A00"/>
<path d="M32.1125 24.0186H31.3975V24.7411H32.1125V24.0186Z" fill="#FF5A00"/>
<path d="M32.1125 23.3024H31.3975V24.0174H32.1125V23.3024Z" fill="#DB4B03"/>
<path d="M32.1125 22.5799H31.3975V23.3024H32.1125V22.5799Z" fill="#DB4B03"/>
<path d="M32.1125 21.8574H31.3975V22.5799H32.1125V21.8574Z" fill="black"/>
<path d="M32.1125 21.1424H31.3975V21.8574H32.1125V21.1424Z" fill="black"/>
<path d="M31.3975 39.1274H30.675V39.8424H31.3975V39.1274Z" fill="black"/>
<path d="M31.3975 38.4049H30.675V39.1274H31.3975V38.4049Z" fill="#DB4B03"/>
<path d="M31.3975 37.6887H30.675V38.4049H31.3975V37.6887Z" fill="#DB4B03"/>
<path d="M31.3975 36.9674H30.675V37.6899H31.3975V36.9674Z" fill="#DB4B03"/>
<path d="M31.3975 36.2512H30.675V36.9662H31.3975V36.2512Z" fill="#DB4B03"/>
<path d="M31.3975 35.5286H30.675V36.2511H31.3975V35.5286Z" fill="#DB4B03"/>
<path d="M31.3975 34.8137H30.675V35.5287H31.3975V34.8137Z" fill="#FF5A00"/>
<path d="M31.3975 34.0911H30.675V34.8136H31.3975V34.0911Z" fill="#FF5A00"/>
<path d="M31.3975 33.3687H30.675V34.0912H31.3975V33.3687Z" fill="#FF5A00"/>
<path d="M31.3975 32.6524H30.675V33.3687H31.3975V32.6524Z" fill="#FF5A00"/>
<path d="M31.3975 31.9312H30.675V32.6537H31.3975V31.9312Z" fill="#FF5A00"/>
<path d="M31.3975 31.2149H30.675V31.9299H31.3975V31.2149Z" fill="#FF5A00"/>
<path d="M31.3975 30.4924H30.675V31.2149H31.3975V30.4924Z" fill="#FF5A00"/>
<path d="M31.3975 29.7774H30.675V30.4924H31.3975V29.7774Z" fill="#FF5A00"/>
<path d="M31.3975 29.0549H30.675V29.7774H31.3975V29.0549Z" fill="#FF5A00"/>
<path d="M31.3975 28.3324H30.675V29.0549H31.3975V28.3324Z" fill="#FF5A00"/>
<path d="M31.3975 27.6161H30.675V28.3312H31.3975V27.6161Z" fill="#FF5A00"/>
<path d="M31.3975 26.8936H30.675V27.6161H31.3975V26.8936Z" fill="#FF5A00"/>
<path d="M31.3975 26.1786H30.675V26.8937H31.3975V26.1786Z" fill="#FF5A00"/>
<path d="M31.3975 25.4561H30.675V26.1786H31.3975V25.4561Z" fill="#FF5A00"/>
<path d="M31.3975 24.7411H30.675V25.4562H31.3975V24.7411Z" fill="#FF5A00"/>
<path d="M31.3975 24.0186H30.675V24.7411H31.3975V24.0186Z" fill="#FF5A00"/>
<path d="M31.3975 23.3024H30.675V24.0174H31.3975V23.3024Z" fill="#FF5A00"/>
<path d="M31.3975 22.5799H30.675V23.3024H31.3975V22.5799Z" fill="#DB4B03"/>
<path d="M31.3975 21.8574H30.675V22.5799H31.3975V21.8574Z" fill="#DB4B03"/>
<path d="M31.3975 21.1424H30.675V21.8574H31.3975V21.1424Z" fill="black"/>
<path d="M31.3975 20.4199H30.675V21.1424H31.3975V20.4199Z" fill="black"/>
<path d="M31.3975 19.7049H30.675V20.4199H31.3975V19.7049Z" fill="black"/>
<path d="M31.3975 18.9824H30.675V19.7049H31.3975V18.9824Z" fill="black"/>
<path d="M30.675 39.1274H29.96V39.8424H30.675V39.1274Z" fill="black"/>
<path d="M30.675 38.4049H29.96V39.1274H30.675V38.4049Z" fill="#DB4B03"/>
<path d="M30.675 37.6887H29.96V38.4049H30.675V37.6887Z" fill="#DB4B03"/>
<path d="M30.675 36.9674H29.96V37.6899H30.675V36.9674Z" fill="#DB4B03"/>
<path d="M30.675 36.2512H29.96V36.9662H30.675V36.2512Z" fill="#DB4B03"/>
<path d="M30.675 35.5286H29.96V36.2511H30.675V35.5286Z" fill="#FF5A00"/>
<path d="M30.675 34.8137H29.96V35.5287H30.675V34.8137Z" fill="#FF5A00"/>
<path d="M30.675 34.0911H29.96V34.8136H30.675V34.0911Z" fill="#FF5A00"/>
<path d="M30.675 33.3687H29.96V34.0912H30.675V33.3687Z" fill="#FF5A00"/>
<path d="M30.675 32.6524H29.96V33.3687H30.675V32.6524Z" fill="#FF5A00"/>
<path d="M30.675 31.9312H29.96V32.6537H30.675V31.9312Z" fill="#FF5A00"/>
<path d="M30.675 31.2149H29.96V31.9299H30.675V31.2149Z" fill="#FF5A00"/>
<path d="M30.675 30.4924H29.96V31.2149H30.675V30.4924Z" fill="#FF5A00"/>
<path d="M30.675 29.7774H29.96V30.4924H30.675V29.7774Z" fill="#FF5A00"/>
<path d="M30.675 29.0549H29.96V29.7774H30.675V29.0549Z" fill="#FF5A00"/>
<path d="M30.675 28.3324H29.96V29.0549H30.675V28.3324Z" fill="#FF5A00"/>
<path d="M30.675 27.6161H29.96V28.3312H30.675V27.6161Z" fill="#FF5A00"/>
<path d="M30.675 26.8936H29.96V27.6161H30.675V26.8936Z" fill="#FF5A00"/>
<path d="M30.675 26.1786H29.96V26.8937H30.675V26.1786Z" fill="#FF5A00"/>
<path d="M30.675 25.4561H29.96V26.1786H30.675V25.4561Z" fill="#FF5A00"/>
<path d="M30.675 24.7411H29.96V25.4562H30.675V24.7411Z" fill="#FF5A00"/>
<path d="M30.675 24.0186H29.96V24.7411H30.675V24.0186Z" fill="#FF5A00"/>
<path d="M30.675 23.3024H29.96V24.0174H30.675V23.3024Z" fill="#FF5A00"/>
<path d="M30.675 22.5799H29.96V23.3024H30.675V22.5799Z" fill="#FF5A00"/>
<path d="M30.675 21.8574H29.96V22.5799H30.675V21.8574Z" fill="#DB4B03"/>
<path d="M30.675 21.1424H29.96V21.8574H30.675V21.1424Z" fill="#DB4B03"/>
<path d="M30.675 20.4199H29.96V21.1424H30.675V20.4199Z" fill="black"/>
<path d="M30.675 19.7049H29.96V20.4199H30.675V19.7049Z" fill="#DB4B03"/>
<path d="M30.675 18.9824H29.96V19.7049H30.675V18.9824Z" fill="#DB4B03"/>
<path d="M30.675 18.2661H29.96V18.9811H30.675V18.2661Z" fill="black"/>
<path d="M29.96 39.1274H29.2375V39.8424H29.96V39.1274Z" fill="black"/>
<path d="M29.96 38.4049H29.2375V39.1274H29.96V38.4049Z" fill="#DB4B03"/>
<path d="M29.96 37.6887H29.2375V38.4049H29.96V37.6887Z" fill="#DB4B03"/>
<path d="M29.96 36.9674H29.2375V37.6899H29.96V36.9674Z" fill="#DB4B03"/>
<path d="M29.96 36.2512H29.2375V36.9662H29.96V36.2512Z" fill="#FF5A00"/>
<path d="M29.96 35.5286H29.2375V36.2511H29.96V35.5286Z" fill="#FF5A00"/>
<path d="M29.96 34.8137H29.2375V35.5287H29.96V34.8137Z" fill="#FF5A00"/>
<path d="M29.96 34.0911H29.2375V34.8136H29.96V34.0911Z" fill="#FF5A00"/>
<path d="M29.96 33.3687H29.2375V34.0912H29.96V33.3687Z" fill="#FF5A00"/>
<path d="M29.96 32.6524H29.2375V33.3687H29.96V32.6524Z" fill="#FF5A00"/>
<path d="M29.96 31.9312H29.2375V32.6537H29.96V31.9312Z" fill="#FF5A00"/>
<path d="M29.96 31.2149H29.2375V31.9299H29.96V31.2149Z" fill="#FF5A00"/>
<path d="M29.96 30.4924H29.2375V31.2149H29.96V30.4924Z" fill="#FF5A00"/>
<path d="M29.96 29.7774H29.2375V30.4924H29.96V29.7774Z" fill="#FF5A00"/>
<path d="M29.96 29.0549H29.2375V29.7774H29.96V29.0549Z" fill="#FF5A00"/>
<path d="M29.96 28.3324H29.2375V29.0549H29.96V28.3324Z" fill="#FF5A00"/>
<path d="M29.96 27.6161H29.2375V28.3312H29.96V27.6161Z" fill="#FF5A00"/>
<path d="M29.96 26.8936H29.2375V27.6161H29.96V26.8936Z" fill="#FF5A00"/>
<path d="M29.96 26.1786H29.2375V26.8937H29.96V26.1786Z" fill="#FF5A00"/>
<path d="M29.96 25.4561H29.2375V26.1786H29.96V25.4561Z" fill="#FF5A00"/>
<path d="M29.96 24.7411H29.2375V25.4562H29.96V24.7411Z" fill="#FF5A00"/>
<path d="M29.96 24.0186H29.2375V24.7411H29.96V24.0186Z" fill="#FF5A00"/>
<path d="M29.96 23.3024H29.2375V24.0174H29.96V23.3024Z" fill="#FF5A00"/>
<path d="M29.96 22.5799H29.2375V23.3024H29.96V22.5799Z" fill="#FF5A00"/>
<path d="M29.96 21.8574H29.2375V22.5799H29.96V21.8574Z" fill="#DB4B03"/>
<path d="M29.96 21.1424H29.2375V21.8574H29.96V21.1424Z" fill="black"/>
<path d="M29.96 20.4199H29.2375V21.1424H29.96V20.4199Z" fill="#DB4B03"/>
<path d="M29.96 19.7049H29.2375V20.4199H29.96V19.7049Z" fill="#FF5A00"/>
<path d="M29.96 18.9824H29.2375V19.7049H29.96V18.9824Z" fill="#DB4B03"/>
<path d="M29.96 18.2661H29.2375V18.9811H29.96V18.2661Z" fill="#DB4B03"/>
<path d="M29.96 17.5436H29.2375V18.2661H29.96V17.5436Z" fill="black"/>
<path d="M29.96 16.8212H29.2375V17.5437H29.96V16.8212Z" fill="black"/>
<path d="M29.2374 39.1274H28.5149V39.8424H29.2374V39.1274Z" fill="black"/>
<path d="M29.2374 38.4049H28.5149V39.1274H29.2374V38.4049Z" fill="#DB4B03"/>
<path d="M29.2374 37.6887H28.5149V38.4049H29.2374V37.6887Z" fill="#DB4B03"/>
<path d="M29.2374 36.9674H28.5149V37.6899H29.2374V36.9674Z" fill="#FF5A00"/>
<path d="M29.2374 36.2512H28.5149V36.9662H29.2374V36.2512Z" fill="#FF5A00"/>
<path d="M29.2374 35.5286H28.5149V36.2511H29.2374V35.5286Z" fill="#FF5A00"/>
<path d="M29.2374 34.8137H28.5149V35.5287H29.2374V34.8137Z" fill="#FF5A00"/>
<path d="M29.2374 34.0911H28.5149V34.8136H29.2374V34.0911Z" fill="#FF5A00"/>
<path d="M29.2374 33.3687H28.5149V34.0912H29.2374V33.3687Z" fill="#FF5A00"/>
<path d="M29.2374 32.6524H28.5149V33.3687H29.2374V32.6524Z" fill="#FF5A00"/>
<path d="M29.2374 31.9312H28.5149V32.6537H29.2374V31.9312Z" fill="#FF5A00"/>
<path d="M29.2374 31.2149H28.5149V31.9299H29.2374V31.2149Z" fill="#FF5A00"/>
<path d="M29.2374 30.4924H28.5149V31.2149H29.2374V30.4924Z" fill="#FF5A00"/>
<path d="M29.2374 29.7774H28.5149V30.4924H29.2374V29.7774Z" fill="#FF5A00"/>
<path d="M29.2374 29.0549H28.5149V29.7774H29.2374V29.0549Z" fill="#FF5A00"/>
<path d="M29.2374 28.3324H28.5149V29.0549H29.2374V28.3324Z" fill="#FF5A00"/>
<path d="M29.2374 27.6161H28.5149V28.3312H29.2374V27.6161Z" fill="#FF5A00"/>
<path d="M29.2374 26.8936H28.5149V27.6161H29.2374V26.8936Z" fill="#FF5A00"/>
<path d="M29.2374 26.1786H28.5149V26.8937H29.2374V26.1786Z" fill="#FF5A00"/>
<path d="M29.2374 25.4561H28.5149V26.1786H29.2374V25.4561Z" fill="#FF5A00"/>
<path d="M29.2374 24.7411H28.5149V25.4562H29.2374V24.7411Z" fill="#FF5A00"/>
<path d="M29.2374 24.0186H28.5149V24.7411H29.2374V24.0186Z" fill="#FF5A00"/>
<path d="M29.2374 23.3024H28.5149V24.0174H29.2374V23.3024Z" fill="#DB4B03"/>
<path d="M29.2374 22.5799H28.5149V23.3024H29.2374V22.5799Z" fill="#DB4B03"/>
<path d="M29.2374 21.8574H28.5149V22.5799H29.2374V21.8574Z" fill="black"/>
<path d="M29.2374 21.1424H28.5149V21.8574H29.2374V21.1424Z" fill="#DB4B03"/>
<path d="M29.2374 20.4199H28.5149V21.1424H29.2374V20.4199Z" fill="#FF5A00"/>
<path d="M29.2374 19.7049H28.5149V20.4199H29.2374V19.7049Z" fill="#FF5A00"/>
<path d="M29.2374 18.9824H28.5149V19.7049H29.2374V18.9824Z" fill="#FF5A00"/>
<path d="M29.2374 18.2661H28.5149V18.9811H29.2374V18.2661Z" fill="#DB4B03"/>
<path d="M29.2374 17.5436H28.5149V18.2661H29.2374V17.5436Z" fill="#DB4B03"/>
<path d="M29.2374 16.8212H28.5149V17.5437H29.2374V16.8212Z" fill="#DB4B03"/>
<path d="M29.2374 16.1061H28.5149V16.8211H29.2374V16.1061Z" fill="black"/>
<path d="M29.2374 15.3837H28.5149V16.1062H29.2374V15.3837Z" fill="black"/>
<path d="M28.5138 39.1274H27.7988V39.8424H28.5138V39.1274Z" fill="black"/>
<path d="M28.5138 38.4049H27.7988V39.1274H28.5138V38.4049Z" fill="#DB4B03"/>
<path d="M28.5138 37.6887H27.7988V38.4049H28.5138V37.6887Z" fill="#DB4B03"/>
<path d="M28.5138 36.9674H27.7988V37.6899H28.5138V36.9674Z" fill="#FF5A00"/>
<path d="M28.5138 36.2512H27.7988V36.9662H28.5138V36.2512Z" fill="#FF5A00"/>
<path d="M28.5138 35.5286H27.7988V36.2511H28.5138V35.5286Z" fill="#FF5A00"/>
<path d="M28.5138 34.8137H27.7988V35.5287H28.5138V34.8137Z" fill="#FF5A00"/>
<path d="M28.5138 34.0911H27.7988V34.8136H28.5138V34.0911Z" fill="#FF5A00"/>
<path d="M28.5138 33.3687H27.7988V34.0912H28.5138V33.3687Z" fill="#FF5A00"/>
<path d="M28.5138 32.6524H27.7988V33.3687H28.5138V32.6524Z" fill="#FF5A00"/>
<path d="M28.5138 31.9312H27.7988V32.6537H28.5138V31.9312Z" fill="#FF5A00"/>
<path d="M28.5138 31.2149H27.7988V31.9299H28.5138V31.2149Z" fill="#FF5A00"/>
<path d="M28.5138 30.4924H27.7988V31.2149H28.5138V30.4924Z" fill="#FF5A00"/>
<path d="M28.5138 29.7774H27.7988V30.4924H28.5138V29.7774Z" fill="#FF5A00"/>
<path d="M28.5138 29.0549H27.7988V29.7774H28.5138V29.0549Z" fill="#FF5A00"/>
<path d="M28.5138 28.3324H27.7988V29.0549H28.5138V28.3324Z" fill="#FF5A00"/>
<path d="M28.5138 27.6161H27.7988V28.3312H28.5138V27.6161Z" fill="#FF5A00"/>
<path d="M28.5138 26.8936H27.7988V27.6161H28.5138V26.8936Z" fill="#FF5A00"/>
<path d="M28.5138 26.1786H27.7988V26.8937H28.5138V26.1786Z" fill="#FF5A00"/>
<path d="M28.5138 25.4561H27.7988V26.1786H28.5138V25.4561Z" fill="#FF5A00"/>
<path d="M28.5138 24.7411H27.7988V25.4562H28.5138V24.7411Z" fill="#FF5A00"/>
<path d="M28.5138 24.0186H27.7988V24.7411H28.5138V24.0186Z" fill="#DB4B03"/>
<path d="M28.5138 23.3024H27.7988V24.0174H28.5138V23.3024Z" fill="black"/>
<path d="M28.5138 22.5799H27.7988V23.3024H28.5138V22.5799Z" fill="black"/>
<path d="M28.5138 21.8574H27.7988V22.5799H28.5138V21.8574Z" fill="#FF5A00"/>
<path d="M28.5138 21.1424H27.7988V21.8574H28.5138V21.1424Z" fill="black"/>
<path d="M28.5138 20.4199H27.7988V21.1424H28.5138V20.4199Z" fill="#FF5A00"/>
<path d="M28.5138 19.7049H27.7988V20.4199H28.5138V19.7049Z" fill="#FF5A00"/>
<path d="M28.5138 18.9824H27.7988V19.7049H28.5138V18.9824Z" fill="#FF5A00"/>
<path d="M28.5138 18.2661H27.7988V18.9811H28.5138V18.2661Z" fill="#FF5A00"/>
<path d="M28.5138 17.5436H27.7988V18.2661H28.5138V17.5436Z" fill="#DB4B03"/>
<path d="M28.5138 16.8212H27.7988V17.5437H28.5138V16.8212Z" fill="#DB4B03"/>
<path d="M28.5138 16.1061H27.7988V16.8211H28.5138V16.1061Z" fill="#DB4B03"/>
<path d="M28.5138 15.3837H27.7988V16.1062H28.5138V15.3837Z" fill="black"/>
<path d="M28.5138 14.6686H27.7988V15.3836H28.5138V14.6686Z" fill="black"/>
<path d="M28.5138 13.9462H27.7988V14.6687H28.5138V13.9462Z" fill="black"/>
<path d="M27.7987 39.1274H27.0762V39.8424H27.7987V39.1274Z" fill="black"/>
<path d="M27.7987 38.4049H27.0762V39.1274H27.7987V38.4049Z" fill="#DB4B03"/>
<path d="M27.7987 37.6887H27.0762V38.4049H27.7987V37.6887Z" fill="#FF5A00"/>
<path d="M27.7987 36.9674H27.0762V37.6899H27.7987V36.9674Z" fill="#FF5A00"/>
<path d="M27.7987 36.2512H27.0762V36.9662H27.7987V36.2512Z" fill="#FF5A00"/>
<path d="M27.7987 35.5286H27.0762V36.2511H27.7987V35.5286Z" fill="#FF5A00"/>
<path d="M27.7987 34.8137H27.0762V35.5287H27.7987V34.8137Z" fill="#FF5A00"/>
<path d="M27.7987 34.0911H27.0762V34.8136H27.7987V34.0911Z" fill="#FF5A00"/>
<path d="M27.7987 33.3687H27.0762V34.0912H27.7987V33.3687Z" fill="#FF5A00"/>
<path d="M27.7987 32.6524H27.0762V33.3687H27.7987V32.6524Z" fill="#FF5A00"/>
<path d="M27.7987 31.9312H27.0762V32.6537H27.7987V31.9312Z" fill="#FF5A00"/>
<path d="M27.7987 31.2149H27.0762V31.9299H27.7987V31.2149Z" fill="#FF5A00"/>
<path d="M27.7987 30.4924H27.0762V31.2149H27.7987V30.4924Z" fill="#FF5A00"/>
<path d="M27.7987 29.7774H27.0762V30.4924H27.7987V29.7774Z" fill="#FF5A00"/>
<path d="M27.7987 29.0549H27.0762V29.7774H27.7987V29.0549Z" fill="#FF5A00"/>
<path d="M27.7987 28.3324H27.0762V29.0549H27.7987V28.3324Z" fill="#FF5A00"/>
<path d="M27.7987 27.6161H27.0762V28.3312H27.7987V27.6161Z" fill="#FF5A00"/>
<path d="M27.7987 26.8936H27.0762V27.6161H27.7987V26.8936Z" fill="#DB4B03"/>
<path d="M27.7987 26.1786H27.0762V26.8937H27.7987V26.1786Z" fill="#DB4B03"/>
<path d="M27.7987 25.4561H27.0762V26.1786H27.7987V25.4561Z" fill="#DB4B03"/>
<path d="M27.7987 24.7411H27.0762V25.4562H27.7987V24.7411Z" fill="#DB4B03"/>
<path d="M27.7987 24.0186H27.0762V24.7411H27.7987V24.0186Z" fill="#6B1F01"/>
<path d="M27.7987 23.3024H27.0762V24.0174H27.7987V23.3024Z" fill="#6B1F01"/>
<path d="M27.7987 22.5799H27.0762V23.3024H27.7987V22.5799Z" fill="black"/>
<path d="M27.7987 21.8574H27.0762V22.5799H27.7987V21.8574Z" fill="#FF5A00"/>
<path d="M27.7987 21.1424H27.0762V21.8574H27.7987V21.1424Z" fill="black"/>
<path d="M27.7987 20.4199H27.0762V21.1424H27.7987V20.4199Z" fill="black"/>
<path d="M27.7987 19.7049H27.0762V20.4199H27.7987V19.7049Z" fill="#FF5A00"/>
<path d="M27.7987 18.9824H27.0762V19.7049H27.7987V18.9824Z" fill="#FF5A00"/>
<path d="M27.7987 18.2661H27.0762V18.9811H27.7987V18.2661Z" fill="#FF5A00"/>
<path d="M27.7987 17.5436H27.0762V18.2661H27.7987V17.5436Z" fill="#FF5A00"/>
<path d="M27.7987 16.8212H27.0762V17.5437H27.7987V16.8212Z" fill="#FF5A00"/>
<path d="M27.7987 16.1061H27.0762V16.8211H27.7987V16.1061Z" fill="#DB4B03"/>
<path d="M27.7987 15.3837H27.0762V16.1062H27.7987V15.3837Z" fill="#DB4B03"/>
<path d="M27.7987 14.6686H27.0762V15.3836H27.7987V14.6686Z" fill="#FF5A00"/>
<path d="M27.7987 13.9462H27.0762V14.6687H27.7987V13.9462Z" fill="black"/>
<path d="M27.0763 39.1274H26.3613V39.8424H27.0763V39.1274Z" fill="black"/>
<path d="M27.0763 38.4049H26.3613V39.1274H27.0763V38.4049Z" fill="black"/>
<path d="M27.0763 37.6887H26.3613V38.4049H27.0763V37.6887Z" fill="black"/>
<path d="M27.0763 36.9674H26.3613V37.6899H27.0763V36.9674Z" fill="black"/>
<path d="M27.0763 36.2512H26.3613V36.9662H27.0763V36.2512Z" fill="black"/>
<path d="M27.0763 35.5286H26.3613V36.2511H27.0763V35.5286Z" fill="black"/>
<path d="M27.0763 34.8137H26.3613V35.5287H27.0763V34.8137Z" fill="black"/>
<path d="M27.0763 34.0911H26.3613V34.8136H27.0763V34.0911Z" fill="black"/>
<path d="M27.0763 33.3687H26.3613V34.0912H27.0763V33.3687Z" fill="black"/>
<path d="M27.0763 32.6524H26.3613V33.3687H27.0763V32.6524Z" fill="black"/>
<path d="M27.0763 31.9312H26.3613V32.6537H27.0763V31.9312Z" fill="black"/>
<path d="M27.0763 31.2149H26.3613V31.9299H27.0763V31.2149Z" fill="black"/>
<path d="M27.0763 30.4924H26.3613V31.2149H27.0763V30.4924Z" fill="black"/>
<path d="M27.0763 29.7774H26.3613V30.4924H27.0763V29.7774Z" fill="black"/>
<path d="M27.0763 29.0549H26.3613V29.7774H27.0763V29.0549Z" fill="black"/>
<path d="M27.0763 28.3324H26.3613V29.0549H27.0763V28.3324Z" fill="black"/>
<path d="M27.0763 27.6161H26.3613V28.3312H27.0763V27.6161Z" fill="black"/>
<path d="M27.0763 26.8936H26.3613V27.6161H27.0763V26.8936Z" fill="black"/>
<path d="M27.0763 26.1786H26.3613V26.8937H27.0763V26.1786Z" fill="black"/>
<path d="M27.0763 25.4561H26.3613V26.1786H27.0763V25.4561Z" fill="black"/>
<path d="M27.0763 24.7411H26.3613V25.4562H27.0763V24.7411Z" fill="black"/>
<path d="M27.0763 24.0186H26.3613V24.7411H27.0763V24.0186Z" fill="#200621"/>
<path d="M27.0763 23.3024H26.3613V24.0174H27.0763V23.3024Z" fill="#6B1F01"/>
<path d="M27.0763 22.5799H26.3613V23.3024H27.0763V22.5799Z" fill="black"/>
<path d="M27.0763 21.8574H26.3613V22.5799H27.0763V21.8574Z" fill="black"/>
<path d="M27.0763 21.1424H26.3613V21.8574H27.0763V21.1424Z" fill="#200621"/>
<path d="M27.0763 20.4199H26.3613V21.1424H27.0763V20.4199Z" fill="#200621"/>
<path d="M27.0763 19.7049H26.3613V20.4199H27.0763V19.7049Z" fill="black"/>
<path d="M27.0763 18.9824H26.3613V19.7049H27.0763V18.9824Z" fill="#FF5A00"/>
<path d="M27.0763 18.2661H26.3613V18.9811H27.0763V18.2661Z" fill="#FF5A00"/>
<path d="M27.0763 17.5436H26.3613V18.2661H27.0763V17.5436Z" fill="#FF5A00"/>
<path d="M27.0763 16.8212H26.3613V17.5437H27.0763V16.8212Z" fill="#FF5A00"/>
<path d="M27.0763 16.1061H26.3613V16.8211H27.0763V16.1061Z" fill="#FF5A00"/>
<path d="M27.0763 15.3837H26.3613V16.1062H27.0763V15.3837Z" fill="#DB4B03"/>
<path d="M27.0763 14.6686H26.3613V15.3836H27.0763V14.6686Z" fill="#DB4B03"/>
<path d="M27.0763 13.9462H26.3613V14.6687H27.0763V13.9462Z" fill="#DB4B03"/>
<path d="M27.0763 13.2311H26.3613V13.9461H27.0763V13.2311Z" fill="black"/>
<path d="M26.3612 39.1274H25.6387V39.8424H26.3612V39.1274Z" fill="black"/>
<path d="M26.3612 36.9674H25.6387V37.6899H26.3612V36.9674Z" fill="black"/>
<path d="M26.3612 33.3687H25.6387V34.0912H26.3612V33.3687Z" fill="#200621"/>
<path d="M26.3612 32.6524H25.6387V33.3687H26.3612V32.6524Z" fill="#6B1F01"/>
<path d="M26.3612 31.9312H25.6387V32.6537H26.3612V31.9312Z" fill="#6B1F01"/>
<path d="M26.3612 31.2149H25.6387V31.9299H26.3612V31.2149Z" fill="#6B1F01"/>
<path d="M26.3612 30.4924H25.6387V31.2149H26.3612V30.4924Z" fill="#6B1F01"/>
<path d="M26.3612 29.7774H25.6387V30.4924H26.3612V29.7774Z" fill="#6B1F01"/>
<path d="M26.3612 29.0549H25.6387V29.7774H26.3612V29.0549Z" fill="#200621"/>
<path d="M26.3612 28.3324H25.6387V29.0549H26.3612V28.3324Z" fill="#6B1F01"/>
<path d="M26.3612 27.6161H25.6387V28.3312H26.3612V27.6161Z" fill="#6B1F01"/>
<path d="M26.3612 26.8936H25.6387V27.6161H26.3612V26.8936Z" fill="#6B1F01"/>
<path d="M26.3612 26.1786H25.6387V26.8937H26.3612V26.1786Z" fill="#6B1F01"/>
<path d="M26.3612 25.4561H25.6387V26.1786H26.3612V25.4561Z" fill="#6B1F01"/>
<path d="M26.3612 24.7411H25.6387V25.4562H26.3612V24.7411Z" fill="#6B1F01"/>
<path d="M26.3612 24.0186H25.6387V24.7411H26.3612V24.0186Z" fill="#200621"/>
<path d="M26.3612 23.3024H25.6387V24.0174H26.3612V23.3024Z" fill="#6B1F01"/>
<path d="M26.3612 22.5799H25.6387V23.3024H26.3612V22.5799Z" fill="black"/>
<path d="M26.3612 21.8574H25.6387V22.5799H26.3612V21.8574Z" fill="#200621"/>
<path d="M26.3612 21.1424H25.6387V21.8574H26.3612V21.1424Z" fill="#200621"/>
<path d="M26.3612 20.4199H25.6387V21.1424H26.3612V20.4199Z" fill="#200621"/>
<path d="M26.3612 19.7049H25.6387V20.4199H26.3612V19.7049Z" fill="#200621"/>
<path d="M26.3612 18.9824H25.6387V19.7049H26.3612V18.9824Z" fill="black"/>
<path d="M26.3612 18.2661H25.6387V18.9811H26.3612V18.2661Z" fill="#FF5A00"/>
<path d="M26.3612 17.5436H25.6387V18.2661H26.3612V17.5436Z" fill="#FF5A00"/>
<path d="M26.3612 16.8212H25.6387V17.5437H26.3612V16.8212Z" fill="#FF5A00"/>
<path d="M26.3612 16.1061H25.6387V16.8211H26.3612V16.1061Z" fill="#FF5A00"/>
<path d="M26.3612 15.3837H25.6387V16.1062H26.3612V15.3837Z" fill="#FF5A00"/>
<path d="M26.3612 14.6686H25.6387V15.3836H26.3612V14.6686Z" fill="#FF5A00"/>
<path d="M26.3612 13.9462H25.6387V14.6687H26.3612V13.9462Z" fill="#DB4B03"/>
<path d="M26.3612 13.2311H25.6387V13.9461H26.3612V13.2311Z" fill="black"/>
<path d="M25.6388 39.1274H24.9238V39.8424H25.6388V39.1274Z" fill="black"/>
<path d="M25.6388 38.4049H24.9238V39.1274H25.6388V38.4049Z" fill="black"/>
<path d="M25.6388 37.6887H24.9238V38.4049H25.6388V37.6887Z" fill="black"/>
<path d="M25.6388 33.3687H24.9238V34.0912H25.6388V33.3687Z" fill="#200621"/>
<path d="M25.6388 32.6524H24.9238V33.3687H25.6388V32.6524Z" fill="#7C2A05"/>
<path d="M25.6388 31.9312H24.9238V32.6537H25.6388V31.9312Z" fill="#6B1F01"/>
<path d="M25.6388 31.2149H24.9238V31.9299H25.6388V31.2149Z" fill="#6B1F01"/>
<path d="M25.6388 30.4924H24.9238V31.2149H25.6388V30.4924Z" fill="#6B1F01"/>
<path d="M25.6388 29.7774H24.9238V30.4924H25.6388V29.7774Z" fill="#6B1F01"/>
<path d="M25.6388 29.0549H24.9238V29.7774H25.6388V29.0549Z" fill="#200621"/>
<path d="M25.6388 28.3324H24.9238V29.0549H25.6388V28.3324Z" fill="#200621"/>
<path d="M25.6388 27.6161H24.9238V28.3312H25.6388V27.6161Z" fill="#7C2A05"/>
<path d="M25.6388 26.8936H24.9238V27.6161H25.6388V26.8936Z" fill="#7C2A05"/>
<path d="M25.6388 26.1786H24.9238V26.8937H25.6388V26.1786Z" fill="#6B1F01"/>
<path d="M25.6388 25.4561H24.9238V26.1786H25.6388V25.4561Z" fill="#6B1F01"/>
<path d="M25.6388 24.7411H24.9238V25.4562H25.6388V24.7411Z" fill="#6B1F01"/>
<path d="M25.6388 24.0186H24.9238V24.7411H25.6388V24.0186Z" fill="#200621"/>
<path d="M25.6388 23.3024H24.9238V24.0174H25.6388V23.3024Z" fill="#7C2A05"/>
<path d="M25.6388 22.5799H24.9238V23.3024H25.6388V22.5799Z" fill="#6B1F01"/>
<path d="M25.6388 21.8574H24.9238V22.5799H25.6388V21.8574Z" fill="#200621"/>
<path d="M25.6388 21.1424H24.9238V21.8574H25.6388V21.1424Z" fill="#200621"/>
<path d="M25.6388 20.4199H24.9238V21.1424H25.6388V20.4199Z" fill="#200621"/>
<path d="M25.6388 19.7049H24.9238V20.4199H25.6388V19.7049Z" fill="#200621"/>
<path d="M25.6388 18.9824H24.9238V19.7049H25.6388V18.9824Z" fill="#200621"/>
<path d="M25.6388 18.2661H24.9238V18.9811H25.6388V18.2661Z" fill="black"/>
<path d="M25.6388 17.5436H24.9238V18.2661H25.6388V17.5436Z" fill="#FF5A00"/>
<path d="M25.6388 16.8212H24.9238V17.5437H25.6388V16.8212Z" fill="#FF5A00"/>
<path d="M25.6388 16.1061H24.9238V16.8211H25.6388V16.1061Z" fill="#FF5A00"/>
<path d="M25.6388 15.3837H24.9238V16.1062H25.6388V15.3837Z" fill="#FF5A00"/>
<path d="M25.6388 14.6686H24.9238V15.3836H25.6388V14.6686Z" fill="#FF5A00"/>
<path d="M25.6388 13.9462H24.9238V14.6687H25.6388V13.9462Z" fill="#FF5A00"/>
<path d="M25.6388 13.2311H24.9238V13.9461H25.6388V13.2311Z" fill="black"/>
<path d="M24.9237 39.1274H24.2012V39.8424H24.9237V39.1274Z" fill="black"/>
<path d="M24.9237 33.3687H24.2012V34.0912H24.9237V33.3687Z" fill="#200621"/>
<path d="M24.9237 32.6524H24.2012V33.3687H24.9237V32.6524Z" fill="#7C2A05"/>
<path d="M24.9237 31.9312H24.2012V32.6537H24.9237V31.9312Z" fill="#7C2A05"/>
<path d="M24.9237 31.2149H24.2012V31.9299H24.9237V31.2149Z" fill="#7C2A05"/>
<path d="M24.9237 30.4924H24.2012V31.2149H24.9237V30.4924Z" fill="#6B1F01"/>
<path d="M24.9237 29.7774H24.2012V30.4924H24.9237V29.7774Z" fill="#6B1F01"/>
<path d="M24.9237 29.0549H24.2012V29.7774H24.9237V29.0549Z" fill="#6B1F01"/>
<path d="M24.9237 28.3324H24.2012V29.0549H24.9237V28.3324Z" fill="#200621"/>
<path d="M24.9237 27.6161H24.2012V28.3312H24.9237V27.6161Z" fill="#7C2A05"/>
<path d="M24.9237 26.8936H24.2012V27.6161H24.9237V26.8936Z" fill="#7C2A05"/>
<path d="M24.9237 26.1786H24.2012V26.8937H24.9237V26.1786Z" fill="#7C2A05"/>
<path d="M24.9237 25.4561H24.2012V26.1786H24.9237V25.4561Z" fill="#6B1F01"/>
<path d="M24.9237 24.7411H24.2012V25.4562H24.9237V24.7411Z" fill="#6B1F01"/>
<path d="M24.9237 24.0186H24.2012V24.7411H24.9237V24.0186Z" fill="#200621"/>
<path d="M24.9237 23.3024H24.2012V24.0174H24.9237V23.3024Z" fill="#7C2A05"/>
<path d="M24.9237 22.5799H24.2012V23.3024H24.9237V22.5799Z" fill="#200621"/>
<path d="M24.9237 21.8574H24.2012V22.5799H24.9237V21.8574Z" fill="#200621"/>
<path d="M24.9237 21.1424H24.2012V21.8574H24.9237V21.1424Z" fill="#200621"/>
<path d="M24.9237 20.4199H24.2012V21.1424H24.9237V20.4199Z" fill="#200621"/>
<path d="M24.9237 19.7049H24.2012V20.4199H24.9237V19.7049Z" fill="#200621"/>
<path d="M24.9237 18.9824H24.2012V19.7049H24.9237V18.9824Z" fill="#200621"/>
<path d="M24.9237 18.2661H24.2012V18.9811H24.9237V18.2661Z" fill="#200621"/>
<path d="M24.9237 17.5436H24.2012V18.2661H24.9237V17.5436Z" fill="black"/>
<path d="M24.9237 16.8212H24.2012V17.5437H24.9237V16.8212Z" fill="#FF5A00"/>
<path d="M24.9237 16.1061H24.2012V16.8211H24.9237V16.1061Z" fill="#FF5A00"/>
<path d="M24.9237 15.3837H24.2012V16.1062H24.9237V15.3837Z" fill="#FF5A00"/>
<path d="M24.9237 14.6686H24.2012V15.3836H24.9237V14.6686Z" fill="#FF5A00"/>
<path d="M24.9237 13.9462H24.2012V14.6687H24.9237V13.9462Z" fill="#FF5A00"/>
<path d="M24.9237 13.2311H24.2012V13.9461H24.9237V13.2311Z" fill="black"/>
<path d="M24.1999 39.1274H23.4849V39.8424H24.1999V39.1274Z" fill="black"/>
<path d="M24.1999 38.4049H23.4849V39.1274H24.1999V38.4049Z" fill="black"/>
<path d="M24.1999 37.6887H23.4849V38.4049H24.1999V37.6887Z" fill="#200621"/>
<path d="M24.1999 36.9674H23.4849V37.6899H24.1999V36.9674Z" fill="#200621"/>
<path d="M24.1999 36.2512H23.4849V36.9662H24.1999V36.2512Z" fill="#200621"/>
<path d="M24.1999 35.5286H23.4849V36.2511H24.1999V35.5286Z" fill="#200621"/>
<path d="M24.1999 34.8137H23.4849V35.5287H24.1999V34.8137Z" fill="#200621"/>
<path d="M24.1999 34.0911H23.4849V34.8136H24.1999V34.0911Z" fill="#200621"/>
<path d="M24.1999 33.3687H23.4849V34.0912H24.1999V33.3687Z" fill="#7C2A05"/>
<path d="M24.1999 32.6524H23.4849V33.3687H24.1999V32.6524Z" fill="#7C2A05"/>
<path d="M24.1999 31.9312H23.4849V32.6537H24.1999V31.9312Z" fill="#7C2A05"/>
<path d="M24.1999 31.2149H23.4849V31.9299H24.1999V31.2149Z" fill="#7C2A05"/>
<path d="M24.1999 30.4924H23.4849V31.2149H24.1999V30.4924Z" fill="#7C2A05"/>
<path d="M24.1999 29.7774H23.4849V30.4924H24.1999V29.7774Z" fill="#7C2A05"/>
<path d="M24.1999 29.0549H23.4849V29.7774H24.1999V29.0549Z" fill="#6B1F01"/>
<path d="M24.1999 28.3324H23.4849V29.0549H24.1999V28.3324Z" fill="#200621"/>
<path d="M24.1999 27.6161H23.4849V28.3312H24.1999V27.6161Z" fill="#200621"/>
<path d="M24.1999 26.8936H23.4849V27.6161H24.1999V26.8936Z" fill="#7C2A05"/>
<path d="M24.1999 26.1786H23.4849V26.8937H24.1999V26.1786Z" fill="#7C2A05"/>
<path d="M24.1999 25.4561H23.4849V26.1786H24.1999V25.4561Z" fill="#7C2A05"/>
<path d="M24.1999 24.7411H23.4849V25.4562H24.1999V24.7411Z" fill="#6B1F01"/>
<path d="M24.1999 24.0186H23.4849V24.7411H24.1999V24.0186Z" fill="#200621"/>
<path d="M24.1999 23.3024H23.4849V24.0174H24.1999V23.3024Z" fill="#7C2A05"/>
<path d="M24.1999 22.5799H23.4849V23.3024H24.1999V22.5799Z" fill="#200621"/>
<path d="M24.1999 21.8574H23.4849V22.5799H24.1999V21.8574Z" fill="#200621"/>
<path d="M24.1999 21.1424H23.4849V21.8574H24.1999V21.1424Z" fill="#200621"/>
<path d="M24.1999 20.4199H23.4849V21.1424H24.1999V20.4199Z" fill="#200621"/>
<path d="M24.1999 19.7049H23.4849V20.4199H24.1999V19.7049Z" fill="#200621"/>
<path d="M24.1999 18.9824H23.4849V19.7049H24.1999V18.9824Z" fill="#200621"/>
<path d="M24.1999 18.2661H23.4849V18.9811H24.1999V18.2661Z" fill="#200621"/>
<path d="M24.1999 17.5436H23.4849V18.2661H24.1999V17.5436Z" fill="black"/>
<path d="M24.1999 16.8212H23.4849V17.5437H24.1999V16.8212Z" fill="black"/>
<path d="M24.1999 16.1061H23.4849V16.8211H24.1999V16.1061Z" fill="#FF5A00"/>
<path d="M24.1999 15.3837H23.4849V16.1062H24.1999V15.3837Z" fill="#FF5A00"/>
<path d="M24.1999 14.6686H23.4849V15.3836H24.1999V14.6686Z" fill="#FF5A00"/>
<path d="M24.1999 13.9462H23.4849V14.6687H24.1999V13.9462Z" fill="#FF5A00"/>
<path d="M24.1999 13.2311H23.4849V13.9461H24.1999V13.2311Z" fill="black"/>
<path d="M23.485 39.1274H22.7625V39.8424H23.485V39.1274Z" fill="black"/>
<path d="M23.485 33.3687H22.7625V34.0912H23.485V33.3687Z" fill="#200621"/>
<path d="M23.485 32.6524H22.7625V33.3687H23.485V32.6524Z" fill="#7C2A05"/>
<path d="M23.485 31.9312H22.7625V32.6537H23.485V31.9312Z" fill="#7C2A05"/>
<path d="M23.485 31.2149H22.7625V31.9299H23.485V31.2149Z" fill="#7C2A05"/>
<path d="M23.485 30.4924H22.7625V31.2149H23.485V30.4924Z" fill="#7C2A05"/>
<path d="M23.485 29.7774H22.7625V30.4924H23.485V29.7774Z" fill="#7C2A05"/>
<path d="M23.485 29.0549H22.7625V29.7774H23.485V29.0549Z" fill="#7C2A05"/>
<path d="M23.485 28.3324H22.7625V29.0549H23.485V28.3324Z" fill="#7C2A05"/>
<path d="M23.485 27.6161H22.7625V28.3312H23.485V27.6161Z" fill="#200621"/>
<path d="M23.485 26.8936H22.7625V27.6161H23.485V26.8936Z" fill="#6B1F01"/>
<path d="M23.485 26.1786H22.7625V26.8937H23.485V26.1786Z" fill="#7C2A05"/>
<path d="M23.485 25.4561H22.7625V26.1786H23.485V25.4561Z" fill="#7C2A05"/>
<path d="M23.485 24.7411H22.7625V25.4562H23.485V24.7411Z" fill="#7C2A05"/>
<path d="M23.485 24.0186H22.7625V24.7411H23.485V24.0186Z" fill="#200621"/>
<path d="M23.485 23.3024H22.7625V24.0174H23.485V23.3024Z" fill="#200621"/>
<path d="M23.485 22.5799H22.7625V23.3024H23.485V22.5799Z" fill="#200621"/>
<path d="M23.485 21.8574H22.7625V22.5799H23.485V21.8574Z" fill="#200621"/>
<path d="M23.485 21.1424H22.7625V21.8574H23.485V21.1424Z" fill="#200621"/>
<path d="M23.485 20.4199H22.7625V21.1424H23.485V20.4199Z" fill="#200621"/>
<path d="M23.485 19.7049H22.7625V20.4199H23.485V19.7049Z" fill="#200621"/>
<path d="M23.485 18.9824H22.7625V19.7049H23.485V18.9824Z" fill="#200621"/>
<path d="M23.485 18.2661H22.7625V18.9811H23.485V18.2661Z" fill="#200621"/>
<path d="M23.485 17.5436H22.7625V18.2661H23.485V17.5436Z" fill="#200621"/>
<path d="M23.485 16.8212H22.7625V17.5437H23.485V16.8212Z" fill="black"/>
<path d="M23.485 16.1061H22.7625V16.8211H23.485V16.1061Z" fill="#FF5A00"/>
<path d="M23.485 15.3837H22.7625V16.1062H23.485V15.3837Z" fill="#FF5A00"/>
<path d="M23.485 14.6686H22.7625V15.3836H23.485V14.6686Z" fill="#FF5A00"/>
<path d="M23.485 13.9462H22.7625V14.6687H23.485V13.9462Z" fill="black"/>
<path d="M22.7625 39.1274H22.04V39.8424H22.7625V39.1274Z" fill="black"/>
<path d="M22.7625 38.4049H22.04V39.1274H22.7625V38.4049Z" fill="black"/>
<path d="M22.7625 32.6524H22.04V33.3687H22.7625V32.6524Z" fill="#200621"/>
<path d="M22.7625 31.9312H22.04V32.6537H22.7625V31.9312Z" fill="#6B1F01"/>
<path d="M22.7625 31.2149H22.04V31.9299H22.7625V31.2149Z" fill="#7C2A05"/>
<path d="M22.7625 30.4924H22.04V31.2149H22.7625V30.4924Z" fill="#7C2A05"/>
<path d="M22.7625 29.7774H22.04V30.4924H22.7625V29.7774Z" fill="#7C2A05"/>
<path d="M22.7625 29.0549H22.04V29.7774H22.7625V29.0549Z" fill="#7C2A05"/>
<path d="M22.7625 28.3324H22.04V29.0549H22.7625V28.3324Z" fill="#6B1F01"/>
<path d="M22.7625 27.6161H22.04V28.3312H22.7625V27.6161Z" fill="#200621"/>
<path d="M22.7625 26.8936H22.04V27.6161H22.7625V26.8936Z" fill="#6B1F01"/>
<path d="M22.7625 26.1786H22.04V26.8937H22.7625V26.1786Z" fill="#200621"/>
<path d="M22.7625 25.4561H22.04V26.1786H22.7625V25.4561Z" fill="#200621"/>
<path d="M22.7625 24.7411H22.04V25.4562H22.7625V24.7411Z" fill="#200621"/>
<path d="M22.7625 24.0186H22.04V24.7411H22.7625V24.0186Z" fill="#6B1F01"/>
<path d="M22.7625 23.3024H22.04V24.0174H22.7625V23.3024Z" fill="#200621"/>
<path d="M22.7625 22.5799H22.04V23.3024H22.7625V22.5799Z" fill="#200621"/>
<path d="M22.7625 21.8574H22.04V22.5799H22.7625V21.8574Z" fill="#200621"/>
<path d="M22.7625 21.1424H22.04V21.8574H22.7625V21.1424Z" fill="#200621"/>
<path d="M22.7625 20.4199H22.04V21.1424H22.7625V20.4199Z" fill="#200621"/>
<path d="M22.7625 19.7049H22.04V20.4199H22.7625V19.7049Z" fill="#200621"/>
<path d="M22.7625 18.9824H22.04V19.7049H22.7625V18.9824Z" fill="#200621"/>
<path d="M22.7625 18.2661H22.04V18.9811H22.7625V18.2661Z" fill="#200621"/>
<path d="M22.7625 17.5436H22.04V18.2661H22.7625V17.5436Z" fill="#200621"/>
<path d="M22.7625 16.8212H22.04V17.5437H22.7625V16.8212Z" fill="black"/>
<path d="M22.7625 16.1061H22.04V16.8211H22.7625V16.1061Z" fill="#FF5A00"/>
<path d="M22.7625 15.3837H22.04V16.1062H22.7625V15.3837Z" fill="#FF5A00"/>
<path d="M22.7625 14.6686H22.04V15.3836H22.7625V14.6686Z" fill="#FF5A00"/>
<path d="M22.7625 13.9462H22.04V14.6687H22.7625V13.9462Z" fill="black"/>
<path d="M22.04 39.1274H21.325V39.8424H22.04V39.1274Z" fill="black"/>
<path d="M22.04 37.6887H21.325V38.4049H22.04V37.6887Z" fill="black"/>
<path d="M22.04 36.9674H21.325V37.6899H22.04V36.9674Z" fill="black"/>
<path d="M22.04 32.6524H21.325V33.3687H22.04V32.6524Z" fill="#200621"/>
<path d="M22.04 31.9312H21.325V32.6537H22.04V31.9312Z" fill="#6B1F01"/>
<path d="M22.04 31.2149H21.325V31.9299H22.04V31.2149Z" fill="#7C2A05"/>
<path d="M22.04 30.4924H21.325V31.2149H22.04V30.4924Z" fill="#7C2A05"/>
<path d="M22.04 29.7774H21.325V30.4924H22.04V29.7774Z" fill="#6B1F01"/>
<path d="M22.04 29.0549H21.325V29.7774H22.04V29.0549Z" fill="#6B1F01"/>
<path d="M22.04 28.3324H21.325V29.0549H22.04V28.3324Z" fill="#6B1F01"/>
<path d="M22.04 27.6161H21.325V28.3312H22.04V27.6161Z" fill="#6B1F01"/>
<path d="M22.04 26.8936H21.325V27.6161H22.04V26.8936Z" fill="#200621"/>
<path d="M22.04 26.1786H21.325V26.8937H22.04V26.1786Z" fill="#7C2A05"/>
<path d="M22.04 25.4561H21.325V26.1786H22.04V25.4561Z" fill="#7C2A05"/>
<path d="M22.04 24.7411H21.325V25.4562H22.04V24.7411Z" fill="#7C2A05"/>
<path d="M22.04 24.0186H21.325V24.7411H22.04V24.0186Z" fill="black"/>
<path d="M22.04 23.3024H21.325V24.0174H22.04V23.3024Z" fill="black"/>
<path d="M22.04 22.5799H21.325V23.3024H22.04V22.5799Z" fill="black"/>
<path d="M22.04 21.8574H21.325V22.5799H22.04V21.8574Z" fill="black"/>
<path d="M22.04 21.1424H21.325V21.8574H22.04V21.1424Z" fill="#200621"/>
<path d="M22.04 20.4199H21.325V21.1424H22.04V20.4199Z" fill="#200621"/>
<path d="M22.04 19.7049H21.325V20.4199H22.04V19.7049Z" fill="#200621"/>
<path d="M22.04 18.9824H21.325V19.7049H22.04V18.9824Z" fill="#200621"/>
<path d="M22.04 18.2661H21.325V18.9811H22.04V18.2661Z" fill="#200621"/>
<path d="M22.04 17.5436H21.325V18.2661H22.04V17.5436Z" fill="#200621"/>
<path d="M22.04 16.8212H21.325V17.5437H22.04V16.8212Z" fill="black"/>
<path d="M22.04 16.1061H21.325V16.8211H22.04V16.1061Z" fill="#DB4B03"/>
<path d="M22.04 15.3837H21.325V16.1062H22.04V15.3837Z" fill="#DB4B03"/>
<path d="M22.04 14.6686H21.325V15.3836H22.04V14.6686Z" fill="black"/>
<path d="M21.325 39.1274H20.6025V39.8424H21.325V39.1274Z" fill="black"/>
<path d="M21.325 38.4049H20.6025V39.1274H21.325V38.4049Z" fill="black"/>
<path d="M21.325 37.6887H20.6025V38.4049H21.325V37.6887Z" fill="black"/>
<path d="M21.325 36.9674H20.6025V37.6899H21.325V36.9674Z" fill="black"/>
<path d="M21.325 36.2512H20.6025V36.9662H21.325V36.2512Z" fill="black"/>
<path d="M21.325 35.5286H20.6025V36.2511H21.325V35.5286Z" fill="black"/>
<path d="M21.325 34.8137H20.6025V35.5287H21.325V34.8137Z" fill="black"/>
<path d="M21.325 34.0911H20.6025V34.8136H21.325V34.0911Z" fill="black"/>
<path d="M21.325 33.3687H20.6025V34.0912H21.325V33.3687Z" fill="black"/>
<path d="M21.325 32.6524H20.6025V33.3687H21.325V32.6524Z" fill="black"/>
<path d="M21.325 31.9312H20.6025V32.6537H21.325V31.9312Z" fill="black"/>
<path d="M21.325 31.2149H20.6025V31.9299H21.325V31.2149Z" fill="black"/>
<path d="M21.325 30.4924H20.6025V31.2149H21.325V30.4924Z" fill="black"/>
<path d="M21.325 29.7774H20.6025V30.4924H21.325V29.7774Z" fill="black"/>
<path d="M21.325 29.0549H20.6025V29.7774H21.325V29.0549Z" fill="black"/>
<path d="M21.325 28.3324H20.6025V29.0549H21.325V28.3324Z" fill="black"/>
<path d="M21.325 27.6161H20.6025V28.3312H21.325V27.6161Z" fill="black"/>
<path d="M21.325 26.8936H20.6025V27.6161H21.325V26.8936Z" fill="black"/>
<path d="M21.325 26.1786H20.6025V26.8937H21.325V26.1786Z" fill="black"/>
<path d="M21.325 25.4561H20.6025V26.1786H21.325V25.4561Z" fill="#7C2A05"/>
<path d="M21.325 24.7411H20.6025V25.4562H21.325V24.7411Z" fill="black"/>
<path d="M21.325 24.0186H20.6025V24.7411H21.325V24.0186Z" fill="#DB4B03"/>
<path d="M21.325 23.3024H20.6025V24.0174H21.325V23.3024Z" fill="#DB4B03"/>
<path d="M21.325 22.5799H20.6025V23.3024H21.325V22.5799Z" fill="black"/>
<path d="M21.325 21.1424H20.6025V21.8574H21.325V21.1424Z" fill="black"/>
<path d="M21.325 20.4199H20.6025V21.1424H21.325V20.4199Z" fill="black"/>
<path d="M21.325 19.7049H20.6025V20.4199H21.325V19.7049Z" fill="#200621"/>
<path d="M21.325 18.9824H20.6025V19.7049H21.325V18.9824Z" fill="black"/>
<path d="M21.325 18.2661H20.6025V18.9811H21.325V18.2661Z" fill="black"/>
<path d="M21.325 17.5436H20.6025V18.2661H21.325V17.5436Z" fill="black"/>
<path d="M21.325 16.8212H20.6025V17.5437H21.325V16.8212Z" fill="#DB4B03"/>
<path d="M21.325 16.1061H20.6025V16.8211H21.325V16.1061Z" fill="#DB4B03"/>
<path d="M21.325 15.3837H20.6025V16.1062H21.325V15.3837Z" fill="black"/>
<path d="M20.6025 39.1274H19.8875V39.8424H20.6025V39.1274Z" fill="black"/>
<path d="M20.6025 38.4049H19.8875V39.1274H20.6025V38.4049Z" fill="#DB4B03"/>
<path d="M20.6025 37.6887H19.8875V38.4049H20.6025V37.6887Z" fill="#DB4B03"/>
<path d="M20.6025 36.9674H19.8875V37.6899H20.6025V36.9674Z" fill="#E54A05"/>
<path d="M20.6025 36.2512H19.8875V36.9662H20.6025V36.2512Z" fill="#E54A05"/>
<path d="M20.6025 35.5286H19.8875V36.2511H20.6025V35.5286Z" fill="#E54A05"/>
<path d="M20.6025 34.8137H19.8875V35.5287H20.6025V34.8137Z" fill="#E54A05"/>
<path d="M20.6025 34.0911H19.8875V34.8136H20.6025V34.0911Z" fill="#E54A05"/>
<path d="M20.6025 33.3687H19.8875V34.0912H20.6025V33.3687Z" fill="#FF5A00"/>
<path d="M20.6025 32.6524H19.8875V33.3687H20.6025V32.6524Z" fill="#FF5A00"/>
<path d="M20.6025 31.9312H19.8875V32.6537H20.6025V31.9312Z" fill="#FF5A00"/>
<path d="M20.6025 31.2149H19.8875V31.9299H20.6025V31.2149Z" fill="#FF5A00"/>
<path d="M20.6025 30.4924H19.8875V31.2149H20.6025V30.4924Z" fill="#FF5A00"/>
<path d="M20.6025 29.7774H19.8875V30.4924H20.6025V29.7774Z" fill="#FF5A00"/>
<path d="M20.6025 29.0549H19.8875V29.7774H20.6025V29.0549Z" fill="#FF5A00"/>
<path d="M20.6025 28.3324H19.8875V29.0549H20.6025V28.3324Z" fill="#FF5A00"/>
<path d="M20.6025 27.6161H19.8875V28.3312H20.6025V27.6161Z" fill="#FF5A00"/>
<path d="M20.6025 26.8936H19.8875V27.6161H20.6025V26.8936Z" fill="#FF5A00"/>
<path d="M20.6025 26.1786H19.8875V26.8937H20.6025V26.1786Z" fill="#FF5A00"/>
<path d="M20.6025 25.4561H19.8875V26.1786H20.6025V25.4561Z" fill="black"/>
<path d="M20.6025 24.7411H19.8875V25.4562H20.6025V24.7411Z" fill="#DB4B03"/>
<path d="M20.6025 24.0186H19.8875V24.7411H20.6025V24.0186Z" fill="#FF5A00"/>
<path d="M20.6025 23.3024H19.8875V24.0174H20.6025V23.3024Z" fill="#DB4B03"/>
<path d="M20.6025 22.5799H19.8875V23.3024H20.6025V22.5799Z" fill="black"/>
<path d="M20.6025 19.7049H19.8875V20.4199H20.6025V19.7049Z" fill="black"/>
<path d="M20.6025 18.9824H19.8875V19.7049H20.6025V18.9824Z" fill="black"/>
<path d="M20.6025 18.2661H19.8875V18.9811H20.6025V18.2661Z" fill="#DB4B03"/>
<path d="M20.6025 17.5436H19.8875V18.2661H20.6025V17.5436Z" fill="#DB4B03"/>
<path d="M20.6025 16.8212H19.8875V17.5437H20.6025V16.8212Z" fill="black"/>
<path d="M20.6025 16.1061H19.8875V16.8211H20.6025V16.1061Z" fill="black"/>
<path d="M19.8875 39.1274H19.165V39.8424H19.8875V39.1274Z" fill="black"/>
<path d="M19.8875 38.4049H19.165V39.1274H19.8875V38.4049Z" fill="#DB4B03"/>
<path d="M19.8875 37.6887H19.165V38.4049H19.8875V37.6887Z" fill="#DB4B03"/>
<path d="M19.8875 36.9674H19.165V37.6899H19.8875V36.9674Z" fill="#E54A05"/>
<path d="M19.8875 36.2512H19.165V36.9662H19.8875V36.2512Z" fill="#E54A05"/>
<path d="M19.8875 35.5286H19.165V36.2511H19.8875V35.5286Z" fill="#FF5A00"/>
<path d="M19.8875 34.8137H19.165V35.5287H19.8875V34.8137Z" fill="#FF5A00"/>
<path d="M19.8875 34.0911H19.165V34.8136H19.8875V34.0911Z" fill="#FF5A00"/>
<path d="M19.8875 33.3687H19.165V34.0912H19.8875V33.3687Z" fill="#FF5A00"/>
<path d="M19.8875 32.6524H19.165V33.3687H19.8875V32.6524Z" fill="#FF5A00"/>
<path d="M19.8875 31.9312H19.165V32.6537H19.8875V31.9312Z" fill="#FF5A00"/>
<path d="M19.8875 31.2149H19.165V31.9299H19.8875V31.2149Z" fill="#FF5A00"/>
<path d="M19.8875 30.4924H19.165V31.2149H19.8875V30.4924Z" fill="#FF5A00"/>
<path d="M19.8875 29.7774H19.165V30.4924H19.8875V29.7774Z" fill="#FF5A00"/>
<path d="M19.8875 29.0549H19.165V29.7774H19.8875V29.0549Z" fill="#FF5A00"/>
<path d="M19.8875 28.3324H19.165V29.0549H19.8875V28.3324Z" fill="#FF5A00"/>
<path d="M19.8875 27.6161H19.165V28.3312H19.8875V27.6161Z" fill="#FF5A00"/>
<path d="M19.8875 26.8936H19.165V27.6161H19.8875V26.8936Z" fill="#FF5A00"/>
<path d="M19.8875 26.1786H19.165V26.8937H19.8875V26.1786Z" fill="#DB4B03"/>
<path d="M19.8875 25.4561H19.165V26.1786H19.8875V25.4561Z" fill="#DB4B03"/>
<path d="M19.8875 24.7411H19.165V25.4562H19.8875V24.7411Z" fill="#DB4B03"/>
<path d="M19.8875 24.0186H19.165V24.7411H19.8875V24.0186Z" fill="#DB4B03"/>
<path d="M19.8875 23.3024H19.165V24.0174H19.8875V23.3024Z" fill="black"/>
<path d="M19.8875 18.2661H19.165V18.9811H19.8875V18.2661Z" fill="black"/>
<path d="M19.8875 17.5436H19.165V18.2661H19.8875V17.5436Z" fill="black"/>
<path d="M19.1637 39.1274H18.4487V39.8424H19.1637V39.1274Z" fill="black"/>
<path d="M19.1637 38.4049H18.4487V39.1274H19.1637V38.4049Z" fill="black"/>
<path d="M19.1637 37.6887H18.4487V38.4049H19.1637V37.6887Z" fill="black"/>
<path d="M19.1637 36.9674H18.4487V37.6899H19.1637V36.9674Z" fill="black"/>
<path d="M19.1637 36.2512H18.4487V36.9662H19.1637V36.2512Z" fill="black"/>
<path d="M19.1637 35.5286H18.4487V36.2511H19.1637V35.5286Z" fill="black"/>
<path d="M19.1637 34.8137H18.4487V35.5287H19.1637V34.8137Z" fill="black"/>
<path d="M19.1637 34.0911H18.4487V34.8136H19.1637V34.0911Z" fill="black"/>
<path d="M19.1637 33.3687H18.4487V34.0912H19.1637V33.3687Z" fill="black"/>
<path d="M19.1637 32.6524H18.4487V33.3687H19.1637V32.6524Z" fill="black"/>
<path d="M19.1637 31.9312H18.4487V32.6537H19.1637V31.9312Z" fill="black"/>
<path d="M19.1637 31.2149H18.4487V31.9299H19.1637V31.2149Z" fill="black"/>
<path d="M19.1637 30.4924H18.4487V31.2149H19.1637V30.4924Z" fill="black"/>
<path d="M19.1637 29.7774H18.4487V30.4924H19.1637V29.7774Z" fill="black"/>
<path d="M19.1637 29.0549H18.4487V29.7774H19.1637V29.0549Z" fill="black"/>
<path d="M19.1637 28.3324H18.4487V29.0549H19.1637V28.3324Z" fill="black"/>
<path d="M19.1637 27.6161H18.4487V28.3312H19.1637V27.6161Z" fill="black"/>
<path d="M19.1637 26.8936H18.4487V27.6161H19.1637V26.8936Z" fill="black"/>
<path d="M19.1637 26.1786H18.4487V26.8937H19.1637V26.1786Z" fill="black"/>
<path d="M19.1637 25.4561H18.4487V26.1786H19.1637V25.4561Z" fill="black"/>
<path d="M19.1637 24.7411H18.4487V25.4562H19.1637V24.7411Z" fill="black"/>
<path d="M19.1637 24.0186H18.4487V24.7411H19.1637V24.0186Z" fill="black"/>
<path d="M24.3624 20.8986H23.9937V21.2674H24.3624V20.8986Z" fill="#E80037"/>
<path d="M24.3624 21.2674H23.9937V21.6286H24.3624V21.2674Z" fill="#E80037"/>
<path d="M23.2711 21.9899H22.9023V22.3586H23.2711V21.9899Z" fill="#E80037"/>
<path d="M23.9936 21.6286H23.6323V21.9899H23.9936V21.6286Z" fill="#E80037"/>
<path d="M23.6325 21.9899H23.2712V22.3586H23.6325V21.9899Z" fill="#E80037"/>
<path d="M22.9025 21.6286H22.5413V21.9899H22.9025V21.6286Z" fill="#E80037"/>
<path d="M23.2711 21.6286H22.9023V21.9899H23.2711V21.6286Z" fill="#E80037"/>
<path d="M23.6325 21.6286H23.2712V21.9899H23.6325V21.6286Z" fill="#E80037"/>
<path d="M22.9025 21.2674H22.5413V21.6286H22.9025V21.2674Z" fill="#E80037"/>
<path d="M22.5411 20.8986H22.1724V21.2674H22.5411V20.8986Z" fill="#E80037"/>
<path d="M22.5411 21.2674H22.1724V21.6286H22.5411V21.2674Z" fill="#E80037"/>
<path d="M23.2711 21.2674H22.9023V21.6286H23.2711V21.2674Z" fill="#E80037"/>
<path d="M23.9936 21.2674H23.6323V21.6286H23.9936V21.2674Z" fill="#E80037"/>
<path d="M23.6325 21.2674H23.2712V21.6286H23.6325V21.2674Z" fill="#E80037"/>
<path d="M21.8112 19.0774H21.45V19.4461H21.8112V19.0774Z" fill="#E80037"/>
<path d="M21.4501 19.4461H21.0813V19.8074H21.4501V19.4461Z" fill="#E80037"/>
<path d="M21.4501 19.0774H21.0813V19.4461H21.4501V19.0774Z" fill="#E80037"/>
<path d="M21.8112 19.4461H21.45V19.8074H21.8112V19.4461Z" fill="#E80037"/>
<path d="M22.1725 19.4461H21.8113V19.8074H22.1725V19.4461Z" fill="#E80037"/>
<path d="M25.0924 18.7161H24.7236V19.0774H25.0924V18.7161Z" fill="#E80037"/>
<path d="M24.7238 18.7161H24.3625V19.0774H24.7238V18.7161Z" fill="#E80037"/>
<path d="M24.3624 18.7161H23.9937V19.0774H24.3624V18.7161Z" fill="#E80037"/>
<path d="M24.7238 19.0774H24.3625V19.4461H24.7238V19.0774Z" fill="#E80037"/>
<path d="M24.3624 19.4461H23.9937V19.8074H24.3624V19.4461Z" fill="#E80037"/>
<path d="M24.3624 19.0774H23.9937V19.4461H24.3624V19.0774Z" fill="#E80037"/>
<path d="M23.9936 19.4461H23.6323V19.8074H23.9936V19.4461Z" fill="#E80037"/>
<path d="M23.9936 19.0774H23.6323V19.4461H23.9936V19.0774Z" fill="#E80037"/>
<path d="M23.6325 19.4461H23.2712V19.8074H23.6325V19.4461Z" fill="#E80037"/>
<path d="M37.1036 15.8036H36.7437V16.1649H37.1036V15.8036Z" fill="#360066"/>
<path d="M36.7438 16.1649H36.375V16.5336H36.7438V16.1649Z" fill="#360066"/>
<path d="M36.3749 16.5336H36.0137V16.8949H36.3749V16.5336Z" fill="#360066"/>
<path d="M36.0136 16.8949H35.6523V17.2636H36.0136V16.8949Z" fill="#360066"/>
<path d="M35.6524 17.2636H35.2837V17.6249H35.6524V17.2636Z" fill="#360066"/>
<path d="M35.2836 17.6249H34.9224V17.9861H35.2836V17.6249Z" fill="#360066"/>
<path d="M35.2836 18.3549H34.9224V18.7161H35.2836V18.3549Z" fill="#270947"/>
<path d="M37.4737 16.1649H37.105V16.5336H37.4737V16.1649Z" fill="#270947"/>
<path d="M37.4737 15.4424H37.105V15.8036H37.4737V15.4424Z" fill="#360066"/>
<path d="M37.4737 15.8036H37.105V16.1649H37.4737V15.8036Z" fill="#360066"/>
<path d="M37.1036 16.5336H36.7437V16.8949H37.1036V16.5336Z" fill="#270947"/>
<path d="M37.1036 16.1649H36.7437V16.5336H37.1036V16.1649Z" fill="#360066"/>
<path d="M36.7438 16.8949H36.375V17.2636H36.7438V16.8949Z" fill="#270947"/>
<path d="M36.7438 16.5336H36.375V16.8949H36.7438V16.5336Z" fill="#360066"/>
<path d="M36.3749 17.2636H36.0137V17.6249H36.3749V17.2636Z" fill="#270947"/>
<path d="M36.3749 16.8949H36.0137V17.2636H36.3749V16.8949Z" fill="#360066"/>
<path d="M36.0136 17.2636H35.6523V17.6249H36.0136V17.2636Z" fill="#360066"/>
<path d="M36.0136 17.6249H35.6523V17.9861H36.0136V17.6249Z" fill="#270947"/>
<path d="M35.6524 17.9861H35.2837V18.3549H35.6524V17.9861Z" fill="#270947"/>
<path d="M35.6524 17.6249H35.2837V17.9861H35.6524V17.6249Z" fill="#360066"/>
<path d="M35.2836 17.9861H34.9224V18.3549H35.2836V17.9861Z" fill="#360066"/>
<path d="M34.9225 17.9861H34.5537V18.3549H34.9225V17.9861Z" fill="#360066"/>
<path d="M34.5524 18.3549H34.1924V18.7161H34.5524V18.3549Z" fill="#360066"/>
<path d="M34.1926 18.7161H33.8313V19.0774H34.1926V18.7161Z" fill="#360066"/>
<path d="M33.8312 19.8074H33.4624V20.1761H33.8312V19.8074Z" fill="#270947"/>
<path d="M33.8312 19.0774H33.4624V19.4461H33.8312V19.0774Z" fill="#360066"/>
<path d="M33.4623 20.1761H33.1011V20.5374H33.4623V20.1761Z" fill="#270947"/>
<path d="M34.9225 18.7161H34.5537V19.0774H34.9225V18.7161Z" fill="#270947"/>
<path d="M34.9225 18.3549H34.5537V18.7161H34.9225V18.3549Z" fill="#360066"/>
<path d="M34.5524 19.0774H34.1924V19.4461H34.5524V19.0774Z" fill="#270947"/>
<path d="M34.5524 18.7161H34.1924V19.0774H34.5524V18.7161Z" fill="#360066"/>
<path d="M34.1926 19.0774H33.8313V19.4461H34.1926V19.0774Z" fill="#360066"/>
<path d="M34.1926 19.4461H33.8313V19.8074H34.1926V19.4461Z" fill="#270947"/>
<path d="M33.8312 19.4461H33.4624V19.8074H33.8312V19.4461Z" fill="#360066"/>
<path d="M33.4623 19.4461H33.1011V19.8074H33.4623V19.4461Z" fill="#360066"/>
<path d="M33.4623 19.8074H33.1011V20.1761H33.4623V19.8074Z" fill="#360066"/>
<path d="M33.1012 20.1761H32.74V20.5374H33.1012V20.1761Z" fill="#360066"/>
<path d="M33.1012 19.8074H32.74V20.1761H33.1012V19.8074Z" fill="#360066"/>
<path d="M33.1012 20.5374H32.74V20.8986H33.1012V20.5374Z" fill="#270947"/>
<path d="M32.7398 20.8986H32.3711V21.2674H32.7398V20.8986Z" fill="#270947"/>
<path d="M32.7398 20.5374H32.3711V20.8986H32.7398V20.5374Z" fill="#360066"/>
<path d="M32.7398 20.1761H32.3711V20.5374H32.7398V20.1761Z" fill="#360066"/>
<path d="M32.37 20.8986H32.01V21.2674H32.37V20.8986Z" fill="#360066"/>
<path d="M32.37 20.5374H32.01V20.8986H32.37V20.5374Z" fill="#360066"/>
<path d="M38.1962 17.6249H37.835V17.9861H38.1962V17.6249Z" fill="black"/>
<path d="M38.1962 16.8949H37.835V17.2636H38.1962V16.8949Z" fill="black"/>
<path d="M37.8349 17.9861H37.4736V18.3549H37.8349V17.9861Z" fill="black"/>
<path d="M37.8349 17.6249H37.4736V17.9861H37.8349V17.6249Z" fill="black"/>
<path d="M37.8349 17.2636H37.4736V17.6249H37.8349V17.2636Z" fill="black"/>
<path d="M37.8349 16.8949H37.4736V17.2636H37.8349V16.8949Z" fill="black"/>
<path d="M37.8349 16.5336H37.4736V16.8949H37.8349V16.5336Z" fill="black"/>
<path d="M37.8349 16.1649H37.4736V16.5336H37.8349V16.1649Z" fill="black"/>
<path d="M37.8349 15.8036H37.4736V16.1649H37.8349V15.8036Z" fill="black"/>
<path d="M37.8349 15.4424H37.4736V15.8036H37.8349V15.4424Z" fill="black"/>
<path d="M37.8349 15.0736H37.4736V15.4424H37.8349V15.0736Z" fill="black"/>
<path d="M37.8349 14.7124H37.4736V15.0737H37.8349V14.7124Z" fill="black"/>
<path d="M37.4737 16.5336H37.105V16.8949H37.4737V16.5336Z" fill="black"/>
<path d="M37.4737 15.0736H37.105V15.4424H37.4737V15.0736Z" fill="black"/>
<path d="M37.4737 14.7124H37.105V15.0737H37.4737V14.7124Z" fill="black"/>
<path d="M37.4737 14.3436H37.105V14.7124H37.4737V14.3436Z" fill="black"/>
<path d="M37.1036 18.7161H36.7437V19.0774H37.1036V18.7161Z" fill="black"/>
<path d="M37.1036 17.6249H36.7437V17.9861H37.1036V17.6249Z" fill="black"/>
<path d="M37.1036 16.8949H36.7437V17.2636H37.1036V16.8949Z" fill="black"/>
<path d="M37.1036 15.4424H36.7437V15.8036H37.1036V15.4424Z" fill="black"/>
<path d="M36.7438 18.7161H36.375V19.0774H36.7438V18.7161Z" fill="black"/>
<path d="M36.7438 18.3549H36.375V18.7161H36.7438V18.3549Z" fill="black"/>
<path d="M36.7438 17.9861H36.375V18.3549H36.7438V17.9861Z" fill="black"/>
<path d="M36.7438 17.6249H36.375V17.9861H36.7438V17.6249Z" fill="black"/>
<path d="M36.7438 17.2636H36.375V17.6249H36.7438V17.2636Z" fill="black"/>
<path d="M36.7438 15.8036H36.375V16.1649H36.7438V15.8036Z" fill="black"/>
<path d="M36.3749 17.6249H36.0137V17.9861H36.3749V17.6249Z" fill="black"/>
<path d="M36.3749 16.1649H36.0137V16.5336H36.3749V16.1649Z" fill="black"/>
<path d="M36.0136 19.4461H35.6523V19.8074H36.0136V19.4461Z" fill="black"/>
<path d="M36.0136 18.7161H35.6523V19.0774H36.0136V18.7161Z" fill="black"/>
<path d="M36.0136 17.9861H35.6523V18.3549H36.0136V17.9861Z" fill="black"/>
<path d="M36.0136 16.5336H35.6523V16.8949H36.0136V16.5336Z" fill="black"/>
<path d="M35.6524 35.4698H35.2837V35.8311H35.6524V35.4698Z" fill="black"/>
<path d="M35.6524 35.1011H35.2837V35.4699H35.6524V35.1011Z" fill="black"/>
<path d="M35.6524 19.8074H35.2837V20.1761H35.6524V19.8074Z" fill="black"/>
<path d="M35.6524 19.4461H35.2837V19.8074H35.6524V19.4461Z" fill="black"/>
<path d="M35.6524 19.0774H35.2837V19.4461H35.6524V19.0774Z" fill="black"/>
<path d="M35.6524 18.7161H35.2837V19.0774H35.6524V18.7161Z" fill="black"/>
<path d="M35.6524 18.3549H35.2837V18.7161H35.6524V18.3549Z" fill="black"/>
<path d="M35.6524 16.8949H35.2837V17.2636H35.6524V16.8949Z" fill="black"/>
<path d="M35.2836 35.4698H34.9224V35.8311H35.2836V35.4698Z" fill="black"/>
<path d="M35.2836 35.1011H34.9224V35.4699H35.2836V35.1011Z" fill="#525D6D"/>
<path d="M35.2836 34.7399H34.9224V35.1011H35.2836V34.7399Z" fill="black"/>
<path d="M35.2836 22.3586H34.9224V22.7199H35.2836V22.3586Z" fill="black"/>
<path d="M35.2836 21.6286H34.9224V21.9899H35.2836V21.6286Z" fill="black"/>
<path d="M35.2836 20.8986H34.9224V21.2674H35.2836V20.8986Z" fill="black"/>
<path d="M35.2836 18.7161H34.9224V19.0774H35.2836V18.7161Z" fill="black"/>
<path d="M35.2836 17.2636H34.9224V17.6249H35.2836V17.2636Z" fill="black"/>
<path d="M34.9225 35.1011H34.5537V35.4699H34.9225V35.1011Z" fill="black"/>
<path d="M34.9225 34.7399H34.5537V35.1011H34.9225V34.7399Z" fill="#525D6D"/>
<path d="M34.9225 34.3712H34.5537V34.7399H34.9225V34.3712Z" fill="black"/>
<path d="M34.9225 22.7198H34.5537V23.0886H34.9225V22.7198Z" fill="black"/>
<path d="M34.9225 22.3586H34.5537V22.7199H34.9225V22.3586Z" fill="black"/>
<path d="M34.9225 21.9899H34.5537V22.3586H34.9225V21.9899Z" fill="black"/>
<path d="M34.9225 21.6286H34.5537V21.9899H34.9225V21.6286Z" fill="black"/>
<path d="M34.9225 21.2674H34.5537V21.6286H34.9225V21.2674Z" fill="black"/>
<path d="M34.9225 20.8986H34.5537V21.2674H34.9225V20.8986Z" fill="black"/>
<path d="M34.9225 20.5374H34.5537V20.8986H34.9225V20.5374Z" fill="black"/>
<path d="M34.9225 20.1761H34.5537V20.5374H34.9225V20.1761Z" fill="black"/>
<path d="M34.9225 19.8074H34.5537V20.1761H34.9225V19.8074Z" fill="black"/>
<path d="M34.9225 19.4461H34.5537V19.8074H34.9225V19.4461Z" fill="black"/>
<path d="M34.9225 19.0774H34.5537V19.4461H34.9225V19.0774Z" fill="black"/>
<path d="M34.9225 17.6249H34.5537V17.9861H34.9225V17.6249Z" fill="black"/>
<path d="M34.5524 34.7399H34.1924V35.1011H34.5524V34.7399Z" fill="black"/>
<path d="M34.5524 34.3712H34.1924V34.7399H34.5524V34.3712Z" fill="#525D6D"/>
<path d="M34.5524 34.0099H34.1924V34.3699H34.5524V34.0099Z" fill="black"/>
<path d="M34.5524 19.4461H34.1924V19.8074H34.5524V19.4461Z" fill="black"/>
<path d="M34.5524 17.9861H34.1924V18.3549H34.5524V17.9861Z" fill="black"/>
<path d="M34.1926 34.3712H33.8313V34.7399H34.1926V34.3712Z" fill="black"/>
<path d="M34.1926 34.0099H33.8313V34.3699H34.1926V34.0099Z" fill="#525D6D"/>
<path d="M34.1926 33.6486H33.8313V34.0099H34.1926V33.6486Z" fill="black"/>
<path d="M34.1926 19.8074H33.8313V20.1761H34.1926V19.8074Z" fill="black"/>
<path d="M34.1926 18.3549H33.8313V18.7161H34.1926V18.3549Z" fill="black"/>
<path d="M33.8312 34.0099H33.4624V34.3699H33.8312V34.0099Z" fill="black"/>
<path d="M33.8312 33.6486H33.4624V34.0099H33.8312V33.6486Z" fill="#525D6D"/>
<path d="M33.8312 33.2799H33.4624V33.6487H33.8312V33.2799Z" fill="black"/>
<path d="M33.8312 20.1761H33.4624V20.5374H33.8312V20.1761Z" fill="black"/>
<path d="M33.8312 18.7161H33.4624V19.0774H33.8312V18.7161Z" fill="black"/>
<path d="M33.4623 20.5374H33.1011V20.8986H33.4623V20.5374Z" fill="black"/>
<path d="M33.4623 19.0774H33.1011V19.4461H33.4623V19.0774Z" fill="black"/>
<path d="M33.1012 20.8986H32.74V21.2674H33.1012V20.8986Z" fill="black"/>
<path d="M33.1012 19.4461H32.74V19.8074H33.1012V19.4461Z" fill="black"/>
<path d="M32.7398 21.6286H32.3711V21.9899H32.7398V21.6286Z" fill="black"/>
<path d="M32.7398 21.2674H32.3711V21.6286H32.7398V21.2674Z" fill="black"/>
<path d="M32.7398 19.8074H32.3711V20.1761H32.7398V19.8074Z" fill="black"/>
<path d="M32.37 21.6286H32.01V21.9899H32.37V21.6286Z" fill="black"/>
<path d="M32.37 21.2674H32.01V21.6286H32.37V21.2674Z" fill="black"/>
<path d="M32.37 20.1761H32.01V20.5374H32.37V20.1761Z" fill="black"/>
<path d="M32.0099 20.8986H31.6411V21.2674H32.0099V20.8986Z" fill="black"/>
<path d="M32.0099 20.5374H31.6411V20.8986H32.0099V20.5374Z" fill="black"/>
<path d="M31.6413 20.8986H31.28V21.2674H31.6413V20.8986Z" fill="black"/>
<path d="M20.3587 22.3586H19.99V22.7199H20.3587V22.3586Z" fill="black"/>
<path d="M19.9899 22.7198H19.6287V23.0886H19.9899V22.7198Z" fill="black"/>
<path d="M19.9899 22.3586H19.6287V22.7199H19.9899V22.3586Z" fill="#525D6D"/>
<path d="M19.9899 21.9899H19.6287V22.3586H19.9899V21.9899Z" fill="black"/>
<path d="M19.6288 22.3586H19.26V22.7199H19.6288V22.3586Z" fill="black"/>
<path d="M19.6288 21.9899H19.26V22.3586H19.6288V21.9899Z" fill="#525D6D"/>
<path d="M19.6288 21.6286H19.26V21.9899H19.6288V21.6286Z" fill="black"/>
<path d="M19.2599 21.9899H18.8987V22.3586H19.2599V21.9899Z" fill="black"/>
<path d="M19.2599 21.6286H18.8987V21.9899H19.2599V21.6286Z" fill="#525D6D"/>
<path d="M19.2599 21.2674H18.8987V21.6286H19.2599V21.2674Z" fill="black"/>
<path d="M18.8986 21.6286H18.5374V21.9899H18.8986V21.6286Z" fill="black"/>
<path d="M18.8986 21.2674H18.5374V21.6286H18.8986V21.2674Z" fill="#525D6D"/>
<path d="M18.8986 20.8986H18.5374V21.2674H18.8986V20.8986Z" fill="black"/>
<path d="M18.5375 35.4698H18.1687V35.8311H18.5375V35.4698Z" fill="black"/>
<path d="M18.5375 35.1011H18.1687V35.4699H18.5375V35.1011Z" fill="#360066"/>
<path d="M18.5375 34.7399H18.1687V35.1011H18.5375V34.7399Z" fill="#360066"/>
<path d="M18.5375 34.3712H18.1687V34.7399H18.5375V34.3712Z" fill="#360066"/>
<path d="M18.5375 34.0099H18.1687V34.3699H18.5375V34.0099Z" fill="black"/>
<path d="M18.5375 21.2674H18.1687V21.6286H18.5375V21.2674Z" fill="black"/>
<path d="M18.5375 20.8986H18.1687V21.2674H18.5375V20.8986Z" fill="#525D6D"/>
<path d="M18.5375 20.5374H18.1687V20.8986H18.5375V20.5374Z" fill="black"/>
<path d="M18.1686 35.4698H17.8074V35.8311H18.1686V35.4698Z" fill="black"/>
<path d="M18.1686 35.1011H17.8074V35.4699H18.1686V35.1011Z" fill="#360066"/>
<path d="M18.1686 34.7399H17.8074V35.1011H18.1686V34.7399Z" fill="#360066"/>
<path d="M18.1686 34.3712H17.8074V34.7399H18.1686V34.3712Z" fill="#360066"/>
<path d="M18.1686 34.0099H17.8074V34.3699H18.1686V34.0099Z" fill="black"/>
<path d="M18.1686 21.2674H17.8074V21.6286H18.1686V21.2674Z" fill="black"/>
<path d="M18.1686 20.8986H17.8074V21.2674H18.1686V20.8986Z" fill="black"/>
<path d="M18.1686 20.5374H17.8074V20.8986H18.1686V20.5374Z" fill="#525D6D"/>
<path d="M18.1686 20.1761H17.8074V20.5374H18.1686V20.1761Z" fill="black"/>
<path d="M17.8075 36.1924H17.4463V36.5611H17.8075V36.1924Z" fill="black"/>
<path d="M17.8075 35.8311H17.4463V36.1924H17.8075V35.8311Z" fill="black"/>
<path d="M17.8075 35.4698H17.4463V35.8311H17.8075V35.4698Z" fill="black"/>
<path d="M17.8075 35.1011H17.4463V35.4699H17.8075V35.1011Z" fill="#360066"/>
<path d="M17.8075 34.7399H17.4463V35.1011H17.8075V34.7399Z" fill="#360066"/>
<path d="M17.8075 34.3712H17.4463V34.7399H17.8075V34.3712Z" fill="#360066"/>
<path d="M17.8075 34.0099H17.4463V34.3699H17.8075V34.0099Z" fill="black"/>
<path d="M17.8075 21.2674H17.4463V21.6286H17.8075V21.2674Z" fill="black"/>
<path d="M17.8075 20.8986H17.4463V21.2674H17.8075V20.8986Z" fill="#4A535E"/>
<path d="M17.8075 20.5374H17.4463V20.8986H17.8075V20.5374Z" fill="black"/>
<path d="M17.8075 20.1761H17.4463V20.5374H17.8075V20.1761Z" fill="#525D6D"/>
<path d="M17.8075 19.8074H17.4463V20.1761H17.8075V19.8074Z" fill="black"/>
<path d="M17.4461 36.1924H17.0774V36.5611H17.4461V36.1924Z" fill="black"/>
<path d="M17.4461 35.8311H17.0774V36.1924H17.4461V35.8311Z" fill="#360066"/>
<path d="M17.4461 35.4698H17.0774V35.8311H17.4461V35.4698Z" fill="black"/>
<path d="M17.4461 35.1011H17.0774V35.4699H17.4461V35.1011Z" fill="black"/>
<path d="M17.4461 34.7399H17.0774V35.1011H17.4461V34.7399Z" fill="black"/>
<path d="M17.4461 34.3712H17.0774V34.7399H17.4461V34.3712Z" fill="black"/>
<path d="M17.4461 34.0099H17.0774V34.3699H17.4461V34.0099Z" fill="black"/>
<path d="M17.4461 31.4586H17.0774V31.8274H17.4461V31.4586Z" fill="black"/>
<path d="M17.4461 21.2674H17.0774V21.6286H17.4461V21.2674Z" fill="black"/>
<path d="M17.4461 20.8986H17.0774V21.2674H17.4461V20.8986Z" fill="#4A535E"/>
<path d="M17.4461 20.5374H17.0774V20.8986H17.4461V20.5374Z" fill="#5F646D"/>
<path d="M17.4461 20.1761H17.0774V20.5374H17.4461V20.1761Z" fill="black"/>
<path d="M17.4461 19.8074H17.0774V20.1761H17.4461V19.8074Z" fill="#525D6D"/>
<path d="M17.4461 19.4461H17.0774V19.8074H17.4461V19.4461Z" fill="black"/>
<path d="M17.0776 36.1924H16.7163V36.5611H17.0776V36.1924Z" fill="black"/>
<path d="M17.0776 35.8311H16.7163V36.1924H17.0776V35.8311Z" fill="#360066"/>
<path d="M17.0776 35.4698H16.7163V35.8311H17.0776V35.4698Z" fill="#360066"/>
<path d="M17.0776 35.1011H16.7163V35.4699H17.0776V35.1011Z" fill="#360066"/>
<path d="M17.0776 34.7399H16.7163V35.1011H17.0776V34.7399Z" fill="black"/>
<path d="M17.0776 31.4586H16.7163V31.8274H17.0776V31.4586Z" fill="black"/>
<path d="M17.0776 31.0974H16.7163V31.4586H17.0776V31.0974Z" fill="black"/>
<path d="M17.0776 21.6286H16.7163V21.9899H17.0776V21.6286Z" fill="black"/>
<path d="M17.0776 21.2674H16.7163V21.6286H17.0776V21.2674Z" fill="#4A535E"/>
<path d="M17.0776 20.8986H16.7163V21.2674H17.0776V20.8986Z" fill="#4A535E"/>
<path d="M17.0776 20.5374H16.7163V20.8986H17.0776V20.5374Z" fill="#5F646D"/>
<path d="M17.0776 20.1761H16.7163V20.5374H17.0776V20.1761Z" fill="#5F646D"/>
<path d="M17.0776 19.8074H16.7163V20.1761H17.0776V19.8074Z" fill="black"/>
<path d="M17.0776 19.4461H16.7163V19.8074H17.0776V19.4461Z" fill="#525D6D"/>
<path d="M17.0776 19.0774H16.7163V19.4461H17.0776V19.0774Z" fill="black"/>
<path d="M16.7162 36.1924H16.3474V36.5611H16.7162V36.1924Z" fill="black"/>
<path d="M16.7162 35.8311H16.3474V36.1924H16.7162V35.8311Z" fill="black"/>
<path d="M16.7162 35.4698H16.3474V35.8311H16.7162V35.4698Z" fill="black"/>
<path d="M16.7162 35.1011H16.3474V35.4699H16.7162V35.1011Z" fill="black"/>
<path d="M16.7162 34.7399H16.3474V35.1011H16.7162V34.7399Z" fill="black"/>
<path d="M16.7162 31.4586H16.3474V31.8274H16.7162V31.4586Z" fill="black"/>
<path d="M16.7162 31.0974H16.3474V31.4586H16.7162V31.0974Z" fill="#4A535E"/>
<path d="M16.7162 30.7361H16.3474V31.0974H16.7162V30.7361Z" fill="black"/>
<path d="M16.7162 21.6286H16.3474V21.9899H16.7162V21.6286Z" fill="black"/>
<path d="M16.7162 21.2674H16.3474V21.6286H16.7162V21.2674Z" fill="#4A535E"/>
<path d="M16.7162 20.8986H16.3474V21.2674H16.7162V20.8986Z" fill="#5F646D"/>
<path d="M16.7162 20.5374H16.3474V20.8986H16.7162V20.5374Z" fill="#5F646D"/>
<path d="M16.7162 20.1761H16.3474V20.5374H16.7162V20.1761Z" fill="#5F646D"/>
<path d="M16.7162 19.8074H16.3474V20.1761H16.7162V19.8074Z" fill="black"/>
<path d="M16.7162 19.4461H16.3474V19.8074H16.7162V19.4461Z" fill="black"/>
<path d="M16.7162 19.0774H16.3474V19.4461H16.7162V19.0774Z" fill="#525D6D"/>
<path d="M16.7162 18.7161H16.3474V19.0774H16.7162V18.7161Z" fill="black"/>
<path d="M16.3473 31.4586H15.9861V31.8274H16.3473V31.4586Z" fill="black"/>
<path d="M16.3473 31.0974H15.9861V31.4586H16.3473V31.0974Z" fill="#4A535E"/>
<path d="M16.3473 30.7361H15.9861V31.0974H16.3473V30.7361Z" fill="#4A535E"/>
<path d="M16.3473 30.3674H15.9861V30.7361H16.3473V30.3674Z" fill="black"/>
<path d="M16.3473 21.9899H15.9861V22.3586H16.3473V21.9899Z" fill="black"/>
<path d="M16.3473 21.6286H15.9861V21.9899H16.3473V21.6286Z" fill="#4A535E"/>
<path d="M16.3473 21.2674H15.9861V21.6286H16.3473V21.2674Z" fill="#4A535E"/>
<path d="M16.3473 20.8986H15.9861V21.2674H16.3473V20.8986Z" fill="#5F646D"/>
<path d="M16.3473 20.5374H15.9861V20.8986H16.3473V20.5374Z" fill="#5F646D"/>
<path d="M16.3473 20.1761H15.9861V20.5374H16.3473V20.1761Z" fill="#5F646D"/>
<path d="M16.3473 19.8074H15.9861V20.1761H16.3473V19.8074Z" fill="#4A535E"/>
<path d="M16.3473 19.4461H15.9861V19.8074H16.3473V19.4461Z" fill="black"/>
<path d="M16.3473 19.0774H15.9861V19.4461H16.3473V19.0774Z" fill="#525D6D"/>
<path d="M16.3473 18.7161H15.9861V19.0774H16.3473V18.7161Z" fill="black"/>
<path d="M15.9862 31.0974H15.625V31.4586H15.9862V31.0974Z" fill="black"/>
<path d="M15.9862 30.7361H15.625V31.0974H15.9862V30.7361Z" fill="#4A535E"/>
<path d="M15.9862 30.3674H15.625V30.7361H15.9862V30.3674Z" fill="#4A535E"/>
<path d="M15.9862 30.0061H15.625V30.3674H15.9862V30.0061Z" fill="black"/>
<path d="M15.9862 29.6449H15.625V30.0049H15.9862V29.6449Z" fill="black"/>
<path d="M15.9862 21.9899H15.625V22.3586H15.9862V21.9899Z" fill="black"/>
<path d="M15.9862 21.6286H15.625V21.9899H15.9862V21.6286Z" fill="#4A535E"/>
<path d="M15.9862 21.2674H15.625V21.6286H15.9862V21.2674Z" fill="#5F646D"/>
<path d="M15.9862 20.8986H15.625V21.2674H15.9862V20.8986Z" fill="#5F646D"/>
<path d="M15.9862 20.5374H15.625V20.8986H15.9862V20.5374Z" fill="#5F646D"/>
<path d="M15.9862 20.1761H15.625V20.5374H15.9862V20.1761Z" fill="#5F646D"/>
<path d="M15.9862 19.8074H15.625V20.1761H15.9862V19.8074Z" fill="#4A535E"/>
<path d="M15.9862 19.4461H15.625V19.8074H15.9862V19.4461Z" fill="black"/>
<path d="M15.9862 19.0774H15.625V19.4461H15.9862V19.0774Z" fill="#525D6D"/>
<path d="M15.9862 18.7161H15.625V19.0774H15.9862V18.7161Z" fill="black"/>
<path d="M15.6249 31.0974H15.2561V31.4586H15.6249V31.0974Z" fill="black"/>
<path d="M15.6249 30.7361H15.2561V31.0974H15.6249V30.7361Z" fill="#4A535E"/>
<path d="M15.6249 30.3674H15.2561V30.7361H15.6249V30.3674Z" fill="#4A535E"/>
<path d="M15.6249 30.0061H15.2561V30.3674H15.6249V30.0061Z" fill="#4A535E"/>
<path d="M15.6249 29.6449H15.2561V30.0049H15.6249V29.6449Z" fill="#4A535E"/>
<path d="M15.6249 29.2761H15.2561V29.6449H15.6249V29.2761Z" fill="black"/>
<path d="M15.6249 28.9149H15.2561V29.2761H15.6249V28.9149Z" fill="black"/>
<path d="M15.6249 22.3586H15.2561V22.7199H15.6249V22.3586Z" fill="black"/>
<path d="M15.6249 21.9899H15.2561V22.3586H15.6249V21.9899Z" fill="#4A535E"/>
<path d="M15.6249 21.6286H15.2561V21.9899H15.6249V21.6286Z" fill="#4A535E"/>
<path d="M15.6249 21.2674H15.2561V21.6286H15.6249V21.2674Z" fill="#5F646D"/>
<path d="M15.6249 20.8986H15.2561V21.2674H15.6249V20.8986Z" fill="#5F646D"/>
<path d="M15.6249 20.5374H15.2561V20.8986H15.6249V20.5374Z" fill="#5F646D"/>
<path d="M15.6249 20.1761H15.2561V20.5374H15.6249V20.1761Z" fill="#5F646D"/>
<path d="M15.6249 19.8074H15.2561V20.1761H15.6249V19.8074Z" fill="#4A535E"/>
<path d="M15.6249 19.4461H15.2561V19.8074H15.6249V19.4461Z" fill="#4A535E"/>
<path d="M15.6249 19.0774H15.2561V19.4461H15.6249V19.0774Z" fill="black"/>
<path d="M15.2563 31.0974H14.895V31.4586H15.2563V31.0974Z" fill="black"/>
<path d="M15.2563 30.7361H14.895V31.0974H15.2563V30.7361Z" fill="#4A535E"/>
<path d="M15.2563 30.3674H14.895V30.7361H15.2563V30.3674Z" fill="#4A535E"/>
<path d="M15.2563 30.0061H14.895V30.3674H15.2563V30.0061Z" fill="#5F646D"/>
<path d="M15.2563 29.6449H14.895V30.0049H15.2563V29.6449Z" fill="#4A535E"/>
<path d="M15.2563 29.2761H14.895V29.6449H15.2563V29.2761Z" fill="#4A535E"/>
<path d="M15.2563 28.9149H14.895V29.2761H15.2563V28.9149Z" fill="#4A535E"/>
<path d="M15.2563 28.5461H14.895V28.9149H15.2563V28.5461Z" fill="black"/>
<path d="M15.2563 28.1849H14.895V28.5461H15.2563V28.1849Z" fill="black"/>
<path d="M15.2563 22.7198H14.895V23.0886H15.2563V22.7198Z" fill="black"/>
<path d="M15.2563 22.3586H14.895V22.7199H15.2563V22.3586Z" fill="#4A535E"/>
<path d="M15.2563 21.9899H14.895V22.3586H15.2563V21.9899Z" fill="#4A535E"/>
<path d="M15.2563 21.6286H14.895V21.9899H15.2563V21.6286Z" fill="#5F646D"/>
<path d="M15.2563 21.2674H14.895V21.6286H15.2563V21.2674Z" fill="#5F646D"/>
<path d="M15.2563 20.8986H14.895V21.2674H15.2563V20.8986Z" fill="#5F646D"/>
<path d="M15.2563 20.5374H14.895V20.8986H15.2563V20.5374Z" fill="#5F646D"/>
<path d="M15.2563 20.1761H14.895V20.5374H15.2563V20.1761Z" fill="#5F646D"/>
<path d="M15.2563 19.8074H14.895V20.1761H15.2563V19.8074Z" fill="#4A535E"/>
<path d="M15.2563 19.4461H14.895V19.8074H15.2563V19.4461Z" fill="#4A535E"/>
<path d="M15.2563 19.0774H14.895V19.4461H15.2563V19.0774Z" fill="black"/>
<path d="M14.8949 30.7361H14.5261V31.0974H14.8949V30.7361Z" fill="black"/>
<path d="M14.8949 30.3674H14.5261V30.7361H14.8949V30.3674Z" fill="#4A535E"/>
<path d="M14.8949 30.0061H14.5261V30.3674H14.8949V30.0061Z" fill="#5F646D"/>
<path d="M14.8949 29.6449H14.5261V30.0049H14.8949V29.6449Z" fill="#5F646D"/>
<path d="M14.8949 29.2761H14.5261V29.6449H14.8949V29.2761Z" fill="#5F646D"/>
<path d="M14.8949 28.9149H14.5261V29.2761H14.8949V28.9149Z" fill="#4A535E"/>
<path d="M14.8949 28.5461H14.5261V28.9149H14.8949V28.5461Z" fill="#5F646D"/>
<path d="M14.8949 28.1849H14.5261V28.5461H14.8949V28.1849Z" fill="#5F646D"/>
<path d="M14.8949 27.8236H14.5261V28.1849H14.8949V27.8236Z" fill="black"/>
<path d="M14.8949 27.4549H14.5261V27.8236H14.8949V27.4549Z" fill="black"/>
<path d="M14.8949 23.0886H14.5261V23.4499H14.8949V23.0886Z" fill="black"/>
<path d="M14.8949 22.7198H14.5261V23.0886H14.8949V22.7198Z" fill="#4A535E"/>
<path d="M14.8949 22.3586H14.5261V22.7199H14.8949V22.3586Z" fill="#4A535E"/>
<path d="M14.8949 21.9899H14.5261V22.3586H14.8949V21.9899Z" fill="#5F646D"/>
<path d="M14.8949 21.6286H14.5261V21.9899H14.8949V21.6286Z" fill="#5F646D"/>
<path d="M14.8949 21.2674H14.5261V21.6286H14.8949V21.2674Z" fill="#5F646D"/>
<path d="M14.8949 20.8986H14.5261V21.2674H14.8949V20.8986Z" fill="#5F646D"/>
<path d="M14.8949 20.5374H14.5261V20.8986H14.8949V20.5374Z" fill="#4A535E"/>
<path d="M14.8949 20.1761H14.5261V20.5374H14.8949V20.1761Z" fill="#4A535E"/>
<path d="M14.8949 19.8074H14.5261V20.1761H14.8949V19.8074Z" fill="#4A535E"/>
<path d="M14.8949 19.4461H14.5261V19.8074H14.8949V19.4461Z" fill="black"/>
<path d="M14.5263 30.7361H14.165V31.0974H14.5263V30.7361Z" fill="black"/>
<path d="M14.5263 30.3674H14.165V30.7361H14.5263V30.3674Z" fill="#4A535E"/>
<path d="M14.5263 30.0061H14.165V30.3674H14.5263V30.0061Z" fill="#4A535E"/>
<path d="M14.5263 29.6449H14.165V30.0049H14.5263V29.6449Z" fill="#5F646D"/>
<path d="M14.5263 29.2761H14.165V29.6449H14.5263V29.2761Z" fill="#5F646D"/>
<path d="M14.5263 28.9149H14.165V29.2761H14.5263V28.9149Z" fill="#5F646D"/>
<path d="M14.5263 28.5461H14.165V28.9149H14.5263V28.5461Z" fill="#5F646D"/>
<path d="M14.5263 28.1849H14.165V28.5461H14.5263V28.1849Z" fill="#5F646D"/>
<path d="M14.5263 27.8236H14.165V28.1849H14.5263V27.8236Z" fill="#5F646D"/>
<path d="M14.5263 27.4549H14.165V27.8236H14.5263V27.4549Z" fill="#5F646D"/>
<path d="M14.5263 27.0936H14.165V27.4536H14.5263V27.0936Z" fill="black"/>
<path d="M14.5263 26.7249H14.165V27.0936H14.5263V26.7249Z" fill="black"/>
<path d="M14.5263 26.3636H14.165V26.7249H14.5263V26.3636Z" fill="black"/>
<path d="M14.5263 23.4499H14.165V23.8111H14.5263V23.4499Z" fill="black"/>
<path d="M14.5263 23.0886H14.165V23.4499H14.5263V23.0886Z" fill="#4A535E"/>
<path d="M14.5263 22.7198H14.165V23.0886H14.5263V22.7198Z" fill="#4A535E"/>
<path d="M14.5263 22.3586H14.165V22.7199H14.5263V22.3586Z" fill="#4A535E"/>
<path d="M14.5263 21.9899H14.165V22.3586H14.5263V21.9899Z" fill="#5F646D"/>
<path d="M14.5263 21.6286H14.165V21.9899H14.5263V21.6286Z" fill="#5F646D"/>
<path d="M14.5263 21.2674H14.165V21.6286H14.5263V21.2674Z" fill="#5F646D"/>
<path d="M14.5263 20.8986H14.165V21.2674H14.5263V20.8986Z" fill="#5F646D"/>
<path d="M14.5263 20.5374H14.165V20.8986H14.5263V20.5374Z" fill="#4A535E"/>
<path d="M14.5263 20.1761H14.165V20.5374H14.5263V20.1761Z" fill="#4A535E"/>
<path d="M14.5263 19.8074H14.165V20.1761H14.5263V19.8074Z" fill="black"/>
<path d="M14.165 30.3674H13.8037V30.7361H14.165V30.3674Z" fill="black"/>
<path d="M14.165 30.0061H13.8037V30.3674H14.165V30.0061Z" fill="black"/>
<path d="M14.165 29.6449H13.8037V30.0049H14.165V29.6449Z" fill="#4A535E"/>
<path d="M14.165 29.2761H13.8037V29.6449H14.165V29.2761Z" fill="#5F646D"/>
<path d="M14.165 28.9149H13.8037V29.2761H14.165V28.9149Z" fill="#5F646D"/>
<path d="M14.165 28.5461H13.8037V28.9149H14.165V28.5461Z" fill="#5F646D"/>
<path d="M14.165 28.1849H13.8037V28.5461H14.165V28.1849Z" fill="#5F646D"/>
<path d="M14.165 27.8236H13.8037V28.1849H14.165V27.8236Z" fill="#5F646D"/>
<path d="M14.165 27.4549H13.8037V27.8236H14.165V27.4549Z" fill="#5F646D"/>
<path d="M14.165 27.0936H13.8037V27.4536H14.165V27.0936Z" fill="#5F646D"/>
<path d="M14.165 26.7249H13.8037V27.0936H14.165V26.7249Z" fill="#4A535E"/>
<path d="M14.165 26.3636H13.8037V26.7249H14.165V26.3636Z" fill="#5F646D"/>
<path d="M14.165 26.0011H13.8037V26.3623H14.165V26.0011Z" fill="black"/>
<path d="M14.165 25.6336H13.8037V26.0024H14.165V25.6336Z" fill="black"/>
<path d="M14.165 24.5411H13.8037V24.9099H14.165V24.5411Z" fill="black"/>
<path d="M14.165 24.1799H13.8037V24.5411H14.165V24.1799Z" fill="black"/>
<path d="M14.165 23.8112H13.8037V24.1799H14.165V23.8112Z" fill="black"/>
<path d="M14.165 23.4499H13.8037V23.8111H14.165V23.4499Z" fill="#4A535E"/>
<path d="M14.165 23.0886H13.8037V23.4499H14.165V23.0886Z" fill="#4A535E"/>
<path d="M14.165 22.7198H13.8037V23.0886H14.165V22.7198Z" fill="#5F646D"/>
<path d="M14.165 22.3586H13.8037V22.7199H14.165V22.3586Z" fill="#5F646D"/>
<path d="M14.165 21.9899H13.8037V22.3586H14.165V21.9899Z" fill="#5F646D"/>
<path d="M14.165 21.6286H13.8037V21.9899H14.165V21.6286Z" fill="#5F646D"/>
<path d="M14.165 21.2674H13.8037V21.6286H14.165V21.2674Z" fill="#5F646D"/>
<path d="M14.165 20.8986H13.8037V21.2674H14.165V20.8986Z" fill="#4A535E"/>
<path d="M14.165 20.5374H13.8037V20.8986H14.165V20.5374Z" fill="#4A535E"/>
<path d="M14.165 20.1761H13.8037V20.5374H14.165V20.1761Z" fill="#4A535E"/>
<path d="M14.165 19.8074H13.8037V20.1761H14.165V19.8074Z" fill="black"/>
<path d="M13.8038 30.0061H13.4351V30.3674H13.8038V30.0061Z" fill="black"/>
<path d="M13.8038 29.6449H13.4351V30.0049H13.8038V29.6449Z" fill="#4A535E"/>
<path d="M13.8038 29.2761H13.4351V29.6449H13.8038V29.2761Z" fill="#4A535E"/>
<path d="M13.8038 28.9149H13.4351V29.2761H13.8038V28.9149Z" fill="#5F646D"/>
<path d="M13.8038 28.5461H13.4351V28.9149H13.8038V28.5461Z" fill="#5F646D"/>
<path d="M13.8038 28.1849H13.4351V28.5461H13.8038V28.1849Z" fill="#5F646D"/>
<path d="M13.8038 27.8236H13.4351V28.1849H13.8038V27.8236Z" fill="#5F646D"/>
<path d="M13.8038 27.4549H13.4351V27.8236H13.8038V27.4549Z" fill="#5F646D"/>
<path d="M13.8038 27.0936H13.4351V27.4536H13.8038V27.0936Z" fill="#5F646D"/>
<path d="M13.8038 26.7249H13.4351V27.0936H13.8038V26.7249Z" fill="#5F646D"/>
<path d="M13.8038 26.3636H13.4351V26.7249H13.8038V26.3636Z" fill="#5F646D"/>
<path d="M13.8038 26.0011H13.4351V26.3623H13.8038V26.0011Z" fill="#4A535E"/>
<path d="M13.8038 25.6336H13.4351V26.0024H13.8038V25.6336Z" fill="#4A535E"/>
<path d="M13.8038 25.2711H13.4351V25.6324H13.8038V25.2711Z" fill="black"/>
<path d="M13.8038 24.9099H13.4351V25.2711H13.8038V24.9099Z" fill="black"/>
<path d="M13.8038 24.5411H13.4351V24.9099H13.8038V24.5411Z" fill="#4A535E"/>
<path d="M13.8038 24.1799H13.4351V24.5411H13.8038V24.1799Z" fill="#4A535E"/>
<path d="M13.8038 23.8112H13.4351V24.1799H13.8038V23.8112Z" fill="#4A535E"/>
<path d="M13.8038 23.4499H13.4351V23.8111H13.8038V23.4499Z" fill="#4A535E"/>
<path d="M13.8038 23.0886H13.4351V23.4499H13.8038V23.0886Z" fill="#5F646D"/>
<path d="M13.8038 22.7198H13.4351V23.0886H13.8038V22.7198Z" fill="#5F646D"/>
<path d="M13.8038 22.3586H13.4351V22.7199H13.8038V22.3586Z" fill="#5F646D"/>
<path d="M13.8038 21.9899H13.4351V22.3586H13.8038V21.9899Z" fill="#5F646D"/>
<path d="M13.8038 21.6286H13.4351V21.9899H13.8038V21.6286Z" fill="#5F646D"/>
<path d="M13.8038 21.2674H13.4351V21.6286H13.8038V21.2674Z" fill="#4A535E"/>
<path d="M13.8038 20.8986H13.4351V21.2674H13.8038V20.8986Z" fill="#4A535E"/>
<path d="M13.8038 20.5374H13.4351V20.8986H13.8038V20.5374Z" fill="black"/>
<path d="M13.8038 20.1761H13.4351V20.5374H13.8038V20.1761Z" fill="black"/>
<path d="M13.435 29.6449H13.0737V30.0049H13.435V29.6449Z" fill="black"/>
<path d="M13.435 29.2761H13.0737V29.6449H13.435V29.2761Z" fill="black"/>
<path d="M13.435 28.9149H13.0737V29.2761H13.435V28.9149Z" fill="#5F646D"/>
<path d="M13.435 28.5461H13.0737V28.9149H13.435V28.5461Z" fill="#5F646D"/>
<path d="M13.435 28.1849H13.0737V28.5461H13.435V28.1849Z" fill="#5F646D"/>
<path d="M13.435 27.8236H13.0737V28.1849H13.435V27.8236Z" fill="#5F646D"/>
<path d="M13.435 27.4549H13.0737V27.8236H13.435V27.4549Z" fill="#5F646D"/>
<path d="M13.435 27.0936H13.0737V27.4536H13.435V27.0936Z" fill="#5F646D"/>
<path d="M13.435 26.7249H13.0737V27.0936H13.435V26.7249Z" fill="#5F646D"/>
<path d="M13.435 26.3636H13.0737V26.7249H13.435V26.3636Z" fill="#5F646D"/>
<path d="M13.435 26.0011H13.0737V26.3623H13.435V26.0011Z" fill="#5F646D"/>
<path d="M13.435 25.6336H13.0737V26.0024H13.435V25.6336Z" fill="#4A535E"/>
<path d="M13.435 25.2711H13.0737V25.6324H13.435V25.2711Z" fill="#4A535E"/>
<path d="M13.435 24.9099H13.0737V25.2711H13.435V24.9099Z" fill="#4A535E"/>
<path d="M13.435 24.5411H13.0737V24.9099H13.435V24.5411Z" fill="#4A535E"/>
<path d="M13.435 24.1799H13.0737V24.5411H13.435V24.1799Z" fill="#4A535E"/>
<path d="M13.435 23.8112H13.0737V24.1799H13.435V23.8112Z" fill="#5F646D"/>
<path d="M13.435 23.4499H13.0737V23.8111H13.435V23.4499Z" fill="#5F646D"/>
<path d="M13.435 23.0886H13.0737V23.4499H13.435V23.0886Z" fill="#5F646D"/>
<path d="M13.435 22.7198H13.0737V23.0886H13.435V22.7198Z" fill="#5F646D"/>
<path d="M13.435 22.3586H13.0737V22.7199H13.435V22.3586Z" fill="#5F646D"/>
<path d="M13.435 21.9899H13.0737V22.3586H13.435V21.9899Z" fill="#5F646D"/>
<path d="M13.435 21.6286H13.0737V21.9899H13.435V21.6286Z" fill="#4A535E"/>
<path d="M13.435 21.2674H13.0737V21.6286H13.435V21.2674Z" fill="#4A535E"/>
<path d="M13.435 20.8986H13.0737V21.2674H13.435V20.8986Z" fill="black"/>
<path d="M13.435 20.5374H13.0737V20.8986H13.435V20.5374Z" fill="black"/>
<path d="M13.0737 29.2761H12.7124V29.6449H13.0737V29.2761Z" fill="black"/>
<path d="M13.0737 28.9149H12.7124V29.2761H13.0737V28.9149Z" fill="black"/>
<path d="M13.0737 28.5461H12.7124V28.9149H13.0737V28.5461Z" fill="#5F646D"/>
<path d="M13.0737 28.1849H12.7124V28.5461H13.0737V28.1849Z" fill="#5F646D"/>
<path d="M13.0737 27.8236H12.7124V28.1849H13.0737V27.8236Z" fill="#5F646D"/>
<path d="M13.0737 27.4549H12.7124V27.8236H13.0737V27.4549Z" fill="#5F646D"/>
<path d="M13.0737 27.0936H12.7124V27.4536H13.0737V27.0936Z" fill="#5F646D"/>
<path d="M13.0737 26.7249H12.7124V27.0936H13.0737V26.7249Z" fill="#5F646D"/>
<path d="M13.0737 26.3636H12.7124V26.7249H13.0737V26.3636Z" fill="#5F646D"/>
<path d="M13.0737 26.0011H12.7124V26.3623H13.0737V26.0011Z" fill="#5F646D"/>
<path d="M13.0737 25.6336H12.7124V26.0024H13.0737V25.6336Z" fill="#5F646D"/>
<path d="M13.0737 25.2711H12.7124V25.6324H13.0737V25.2711Z" fill="#5F646D"/>
<path d="M13.0737 24.9099H12.7124V25.2711H13.0737V24.9099Z" fill="#5F646D"/>
<path d="M13.0737 24.5411H12.7124V24.9099H13.0737V24.5411Z" fill="#5F646D"/>
<path d="M13.0737 24.1799H12.7124V24.5411H13.0737V24.1799Z" fill="#5F646D"/>
<path d="M13.0737 23.8112H12.7124V24.1799H13.0737V23.8112Z" fill="#5F646D"/>
<path d="M13.0737 23.4499H12.7124V23.8111H13.0737V23.4499Z" fill="#5F646D"/>
<path d="M13.0737 23.0886H12.7124V23.4499H13.0737V23.0886Z" fill="#5F646D"/>
<path d="M13.0737 22.7198H12.7124V23.0886H13.0737V22.7198Z" fill="#5F646D"/>
<path d="M13.0737 22.3586H12.7124V22.7199H13.0737V22.3586Z" fill="#5F646D"/>
<path d="M13.0737 21.9899H12.7124V22.3586H13.0737V21.9899Z" fill="#4A535E"/>
<path d="M13.0737 21.6286H12.7124V21.9899H13.0737V21.6286Z" fill="#4A535E"/>
<path d="M13.0737 21.2674H12.7124V21.6286H13.0737V21.2674Z" fill="black"/>
<path d="M13.0737 20.8986H12.7124V21.2674H13.0737V20.8986Z" fill="black"/>
<path d="M12.7125 28.5461H12.3438V28.9149H12.7125V28.5461Z" fill="black"/>
<path d="M12.7125 28.1849H12.3438V28.5461H12.7125V28.1849Z" fill="#5F646D"/>
<path d="M12.7125 27.8236H12.3438V28.1849H12.7125V27.8236Z" fill="#5F646D"/>
<path d="M12.7125 27.4549H12.3438V27.8236H12.7125V27.4549Z" fill="#5F646D"/>
<path d="M12.7125 27.0936H12.3438V27.4536H12.7125V27.0936Z" fill="#5F646D"/>
<path d="M12.7125 26.7249H12.3438V27.0936H12.7125V26.7249Z" fill="#5F646D"/>
<path d="M12.7125 26.3636H12.3438V26.7249H12.7125V26.3636Z" fill="#5F646D"/>
<path d="M12.7125 26.0011H12.3438V26.3623H12.7125V26.0011Z" fill="#5F646D"/>
<path d="M12.7125 25.6336H12.3438V26.0024H12.7125V25.6336Z" fill="#5F646D"/>
<path d="M12.7125 25.2711H12.3438V25.6324H12.7125V25.2711Z" fill="#5F646D"/>
<path d="M12.7125 24.9099H12.3438V25.2711H12.7125V24.9099Z" fill="#5F646D"/>
<path d="M12.7125 24.5411H12.3438V24.9099H12.7125V24.5411Z" fill="#5F646D"/>
<path d="M12.7125 24.1799H12.3438V24.5411H12.7125V24.1799Z" fill="#5F646D"/>
<path d="M12.7125 23.8112H12.3438V24.1799H12.7125V23.8112Z" fill="#5F646D"/>
<path d="M12.7125 23.4499H12.3438V23.8111H12.7125V23.4499Z" fill="#5F646D"/>
<path d="M12.7125 23.0886H12.3438V23.4499H12.7125V23.0886Z" fill="#5F646D"/>
<path d="M12.7125 22.7198H12.3438V23.0886H12.7125V22.7198Z" fill="#5F646D"/>
<path d="M12.7125 22.3586H12.3438V22.7199H12.7125V22.3586Z" fill="#4A535E"/>
<path d="M12.7125 21.9899H12.3438V22.3586H12.7125V21.9899Z" fill="#4A535E"/>
<path d="M12.7125 21.6286H12.3438V21.9899H12.7125V21.6286Z" fill="black"/>
<path d="M12.7125 21.2674H12.3438V21.6286H12.7125V21.2674Z" fill="black"/>
<path d="M12.3437 28.5461H11.9824V28.9149H12.3437V28.5461Z" fill="black"/>
<path d="M12.3437 28.1849H11.9824V28.5461H12.3437V28.1849Z" fill="black"/>
<path d="M12.3437 27.8236H11.9824V28.1849H12.3437V27.8236Z" fill="black"/>
<path d="M12.3437 27.4549H11.9824V27.8236H12.3437V27.4549Z" fill="black"/>
<path d="M12.3437 27.0936H11.9824V27.4536H12.3437V27.0936Z" fill="#4A535E"/>
<path d="M12.3437 26.7249H11.9824V27.0936H12.3437V26.7249Z" fill="#4A535E"/>
<path d="M12.3437 26.3636H11.9824V26.7249H12.3437V26.3636Z" fill="#4A535E"/>
<path d="M12.3437 26.0011H11.9824V26.3623H12.3437V26.0011Z" fill="#4A535E"/>
<path d="M12.3437 25.6336H11.9824V26.0024H12.3437V25.6336Z" fill="#4A535E"/>
<path d="M12.3437 25.2711H11.9824V25.6324H12.3437V25.2711Z" fill="#5F646D"/>
<path d="M12.3437 24.9099H11.9824V25.2711H12.3437V24.9099Z" fill="#5F646D"/>
<path d="M12.3437 24.5411H11.9824V24.9099H12.3437V24.5411Z" fill="#5F646D"/>
<path d="M12.3437 24.1799H11.9824V24.5411H12.3437V24.1799Z" fill="#5F646D"/>
<path d="M12.3437 23.8112H11.9824V24.1799H12.3437V23.8112Z" fill="#5F646D"/>
<path d="M12.3437 23.4499H11.9824V23.8111H12.3437V23.4499Z" fill="#4A535E"/>
<path d="M12.3437 23.0886H11.9824V23.4499H12.3437V23.0886Z" fill="#4A535E"/>
<path d="M12.3437 22.7198H11.9824V23.0886H12.3437V22.7198Z" fill="#4A535E"/>
<path d="M12.3437 22.3586H11.9824V22.7199H12.3437V22.3586Z" fill="#4A535E"/>
<path d="M12.3437 21.9899H11.9824V22.3586H12.3437V21.9899Z" fill="black"/>
<path d="M12.3437 21.6286H11.9824V21.9899H12.3437V21.6286Z" fill="black"/>
<path d="M11.9825 27.4549H11.6138V27.8236H11.9825V27.4549Z" fill="black"/>
<path d="M11.9825 27.0936H11.6138V27.4536H11.9825V27.0936Z" fill="black"/>
<path d="M11.9825 26.7249H11.6138V27.0936H11.9825V26.7249Z" fill="black"/>
<path d="M11.9825 26.3636H11.6138V26.7249H11.9825V26.3636Z" fill="black"/>
<path d="M11.9825 26.0011H11.6138V26.3623H11.9825V26.0011Z" fill="black"/>
<path d="M11.9825 25.6336H11.6138V26.0024H11.9825V25.6336Z" fill="#4A535E"/>
<path d="M11.9825 25.2711H11.6138V25.6324H11.9825V25.2711Z" fill="#4A535E"/>
<path d="M11.9825 24.9099H11.6138V25.2711H11.9825V24.9099Z" fill="#4A535E"/>
<path d="M11.9825 24.5411H11.6138V24.9099H11.9825V24.5411Z" fill="#4A535E"/>
<path d="M11.9825 24.1799H11.6138V24.5411H11.9825V24.1799Z" fill="#4A535E"/>
<path d="M11.9825 23.8112H11.6138V24.1799H11.9825V23.8112Z" fill="#4A535E"/>
<path d="M11.9825 23.4499H11.6138V23.8111H11.9825V23.4499Z" fill="black"/>
<path d="M11.9825 23.0886H11.6138V23.4499H11.9825V23.0886Z" fill="black"/>
<path d="M11.9825 22.7198H11.6138V23.0886H11.9825V22.7198Z" fill="black"/>
<path d="M11.9825 22.3586H11.6138V22.7199H11.9825V22.3586Z" fill="black"/>
<path d="M11.9825 21.9899H11.6138V22.3586H11.9825V21.9899Z" fill="black"/>
<path d="M11.6137 26.0011H11.2524V26.3623H11.6137V26.0011Z" fill="black"/>
<path d="M11.6137 25.6336H11.2524V26.0024H11.6137V25.6336Z" fill="black"/>
<path d="M11.6137 25.2711H11.2524V25.6324H11.6137V25.2711Z" fill="black"/>
<path d="M11.6137 24.9099H11.2524V25.2711H11.6137V24.9099Z" fill="black"/>
<path d="M11.6137 24.5411H11.2524V24.9099H11.6137V24.5411Z" fill="black"/>
<path d="M11.6137 24.1799H11.2524V24.5411H11.6137V24.1799Z" fill="black"/>
<path d="M11.6137 23.8112H11.2524V24.1799H11.6137V23.8112Z" fill="black"/>
<path d="M11.6137 23.4499H11.2524V23.8111H11.6137V23.4499Z" fill="black"/>
</g>
<defs>
<clipPath id="clip0_69_12163">
<rect width="50" height="50" fill="white" transform="translate(0 0.942383)"/>
</clipPath>
</defs>
</svg>
