<svg width="50" height="51" viewBox="0 0 50 51" fill="none" xmlns="http://www.w3.org/2000/svg">
<g clip-path="url(#clip0_69_12158)">
<path d="M24.9998 49.1649C37.8253 49.1649 48.2223 38.7678 48.2223 25.9424C48.2223 13.117 37.8253 2.71991 24.9998 2.71991C12.1744 2.71991 1.77734 13.117 1.77734 25.9424C1.77734 38.7678 12.1744 49.1649 24.9998 49.1649Z" fill="black"/>
<path d="M24.9998 50.0399C11.7123 50.0399 0.902344 39.2299 0.902344 25.9424C0.902344 12.6549 11.7123 1.84491 24.9998 1.84491C38.2873 1.84491 49.0973 12.6549 49.0973 25.9424C49.0973 39.2299 38.2873 50.0399 24.9998 50.0399ZM24.9998 3.59491C12.6773 3.59491 2.65234 13.6199 2.65234 25.9424C2.65234 38.2649 12.6773 48.2899 24.9998 48.2899C37.3223 48.2899 47.3473 38.2649 47.3473 25.9424C47.3473 13.6199 37.3223 3.59491 24.9998 3.59491Z" fill="#4CED63"/>
<path d="M35.066 40.7999H34.1035V41.7624H35.066V40.7999Z" fill="#28AF5F"/>
<path d="M35.066 39.8461H34.1035V40.7999H35.066V39.8461Z" fill="#28AF5F"/>
<path d="M35.066 19.7124H34.1035V20.6662H35.066V19.7124Z" fill="#28AF5F"/>
<path d="M35.066 18.7487H34.1035V19.7112H35.066V18.7487Z" fill="#28AF5F"/>
<path d="M35.066 17.7961H34.1035V18.7499H35.066V17.7961Z" fill="#28AF5F"/>
<path d="M34.1036 40.7999H33.1499V41.7624H34.1036V40.7999Z" fill="#28AF5F"/>
<path d="M34.1036 39.8461H33.1499V40.7999H34.1036V39.8461Z" fill="#28AF5F"/>
<path d="M34.1036 38.8836H33.1499V39.8461H34.1036V38.8836Z" fill="#28AF5F"/>
<path d="M34.1036 37.9299H33.1499V38.8836H34.1036V37.9299Z" fill="#28AF5F"/>
<path d="M34.1036 36.9674H33.1499V37.9299H34.1036V36.9674Z" fill="#28AF5F"/>
<path d="M34.1036 20.6649H33.1499V21.6274H34.1036V20.6649Z" fill="#298E52"/>
<path d="M34.1036 19.7124H33.1499V20.6662H34.1036V19.7124Z" fill="#EA8634"/>
<path d="M34.1036 18.7487H33.1499V19.7112H34.1036V18.7487Z" fill="#E5A870"/>
<path d="M34.1036 17.7961H33.1499V18.7499H34.1036V17.7961Z" fill="#EA8634"/>
<path d="M34.1036 16.8324H33.1499V17.7949H34.1036V16.8324Z" fill="#28AF5F"/>
<path d="M34.1036 13.0012H33.1499V13.9549H34.1036V13.0012Z" fill="#4C2501"/>
<path d="M34.1036 12.0386H33.1499V13.0011H34.1036V12.0386Z" fill="#4C2501"/>
<path d="M34.1036 11.0849H33.1499V12.0386H34.1036V11.0849Z" fill="#4C2501"/>
<path d="M33.15 40.7999H32.1875V41.7624H33.15V40.7999Z" fill="#28AF5F"/>
<path d="M33.15 39.8461H32.1875V40.7999H33.15V39.8461Z" fill="#2ECC71"/>
<path d="M33.15 38.8836H32.1875V39.8461H33.15V38.8836Z" fill="#2ECC71"/>
<path d="M33.15 37.9299H32.1875V38.8836H33.15V37.9299Z" fill="#2ECC71"/>
<path d="M33.15 36.9674H32.1875V37.9299H33.15V36.9674Z" fill="#2ECC71"/>
<path d="M33.15 36.0037H32.1875V36.9662H33.15V36.0037Z" fill="#28AF5F"/>
<path d="M33.15 35.0511H32.1875V36.0049H33.15V35.0511Z" fill="#28AF5F"/>
<path d="M33.15 34.0874H32.1875V35.0499H33.15V34.0874Z" fill="#28AF5F"/>
<path d="M33.15 33.1336H32.1875V34.0874H33.15V33.1336Z" fill="#28AF5F"/>
<path d="M33.15 20.6649H32.1875V21.6274H33.15V20.6649Z" fill="#298E52"/>
<path d="M33.15 19.7124H32.1875V20.6662H33.15V19.7124Z" fill="#E5A870"/>
<path d="M33.15 18.7487H32.1875V19.7112H33.15V18.7487Z" fill="#E5A870"/>
<path d="M33.15 17.7961H32.1875V18.7499H33.15V17.7961Z" fill="#EA8634"/>
<path d="M33.15 16.8324H32.1875V17.7949H33.15V16.8324Z" fill="#EA8634"/>
<path d="M33.15 15.8811H32.1875V16.8349H33.15V15.8811Z" fill="#28AF5F"/>
<path d="M33.15 13.9549H32.1875V14.9174H33.15V13.9549Z" fill="#4C2501"/>
<path d="M33.15 11.0849H32.1875V12.0386H33.15V11.0849Z" fill="#4C2501"/>
<path d="M32.1861 40.7999H31.2236V41.7624H32.1861V40.7999Z" fill="#28AF5F"/>
<path d="M32.1861 39.8461H31.2236V40.7999H32.1861V39.8461Z" fill="#28AF5F"/>
<path d="M32.1861 38.8836H31.2236V39.8461H32.1861V38.8836Z" fill="#28AF5F"/>
<path d="M32.1861 37.9299H31.2236V38.8836H32.1861V37.9299Z" fill="#2ECC71"/>
<path d="M32.1861 36.9674H31.2236V37.9299H32.1861V36.9674Z" fill="#2ECC71"/>
<path d="M32.1861 36.0037H31.2236V36.9662H32.1861V36.0037Z" fill="#2ECC71"/>
<path d="M32.1861 35.0511H31.2236V36.0049H32.1861V35.0511Z" fill="#2ECC71"/>
<path d="M32.1861 34.0874H31.2236V35.0499H32.1861V34.0874Z" fill="#2ECC71"/>
<path d="M32.1861 33.1336H31.2236V34.0874H32.1861V33.1336Z" fill="#2ECC71"/>
<path d="M32.1861 32.1711H31.2236V33.1336H32.1861V32.1711Z" fill="#28AF5F"/>
<path d="M32.1861 31.2199H31.2236V32.1737H32.1861V31.2199Z" fill="#28AF5F"/>
<path d="M32.1861 20.6649H31.2236V21.6274H32.1861V20.6649Z" fill="#298E52"/>
<path d="M32.1861 19.7124H31.2236V20.6662H32.1861V19.7124Z" fill="#E5A870"/>
<path d="M32.1861 18.7487H31.2236V19.7112H32.1861V18.7487Z" fill="#E5A870"/>
<path d="M32.1861 17.7961H31.2236V18.7499H32.1861V17.7961Z" fill="#E5A870"/>
<path d="M32.1861 16.8324H31.2236V17.7949H32.1861V16.8324Z" fill="#E5A870"/>
<path d="M32.1861 15.8811H31.2236V16.8349H32.1861V15.8811Z" fill="#EA8634"/>
<path d="M32.1861 14.9174H31.2236V15.8799H32.1861V14.9174Z" fill="#EA8634"/>
<path d="M32.1861 13.9549H31.2236V14.9174H32.1861V13.9549Z" fill="#EA8634"/>
<path d="M32.1861 12.0386H31.2236V13.0011H32.1861V12.0386Z" fill="#4C2501"/>
<path d="M31.2262 40.7999H30.2725V41.7624H31.2262V40.7999Z" fill="#28AF5F"/>
<path d="M31.2262 39.8461H30.2725V40.7999H31.2262V39.8461Z" fill="#28AF5F"/>
<path d="M31.2262 38.8836H30.2725V39.8461H31.2262V38.8836Z" fill="#28AF5F"/>
<path d="M31.2262 37.9299H30.2725V38.8836H31.2262V37.9299Z" fill="#28AF5F"/>
<path d="M31.2262 36.9674H30.2725V37.9299H31.2262V36.9674Z" fill="#2ECC71"/>
<path d="M31.2262 36.0037H30.2725V36.9662H31.2262V36.0037Z" fill="#2ECC71"/>
<path d="M31.2262 35.0511H30.2725V36.0049H31.2262V35.0511Z" fill="#2ECC71"/>
<path d="M31.2262 34.0874H30.2725V35.0499H31.2262V34.0874Z" fill="#2ECC71"/>
<path d="M31.2262 33.1336H30.2725V34.0874H31.2262V33.1336Z" fill="#2ECC71"/>
<path d="M31.2262 32.1711H30.2725V33.1336H31.2262V32.1711Z" fill="#2ECC71"/>
<path d="M31.2262 31.2199H30.2725V32.1737H31.2262V31.2199Z" fill="#2ECC71"/>
<path d="M31.2262 30.2549H30.2725V31.2174H31.2262V30.2549Z" fill="#28AF5F"/>
<path d="M31.2262 29.2924H30.2725V30.2549H31.2262V29.2924Z" fill="#28AF5F"/>
<path d="M31.2262 21.6287H30.2725V22.5912H31.2262V21.6287Z" fill="#298E52"/>
<path d="M31.2262 20.6649H30.2725V21.6274H31.2262V20.6649Z" fill="#298E52"/>
<path d="M31.2262 19.7124H30.2725V20.6662H31.2262V19.7124Z" fill="#298E52"/>
<path d="M31.2262 18.7487H30.2725V19.7112H31.2262V18.7487Z" fill="#298E52"/>
<path d="M31.2262 17.7961H30.2725V18.7499H31.2262V17.7961Z" fill="#E5A870"/>
<path d="M31.2262 16.8324H30.2725V17.7949H31.2262V16.8324Z" fill="#E5A870"/>
<path d="M31.2262 15.8811H30.2725V16.8349H31.2262V15.8811Z" fill="#E5A870"/>
<path d="M31.2262 14.9174H30.2725V15.8799H31.2262V14.9174Z" fill="#E5A870"/>
<path d="M31.2262 13.9549H30.2725V14.9174H31.2262V13.9549Z" fill="#E5A870"/>
<path d="M31.2262 13.0012H30.2725V13.9549H31.2262V13.0012Z" fill="#4C2501"/>
<path d="M30.2726 40.7999H29.3101V41.7624H30.2726V40.7999Z" fill="#28AF5F"/>
<path d="M30.2726 39.8461H29.3101V40.7999H30.2726V39.8461Z" fill="#28AF5F"/>
<path d="M30.2726 38.8836H29.3101V39.8461H30.2726V38.8836Z" fill="#2ECC71"/>
<path d="M30.2726 37.9299H29.3101V38.8836H30.2726V37.9299Z" fill="#28AF5F"/>
<path d="M30.2726 36.9674H29.3101V37.9299H30.2726V36.9674Z" fill="#28AF5F"/>
<path d="M30.2726 36.0037H29.3101V36.9662H30.2726V36.0037Z" fill="#2ECC71"/>
<path d="M30.2726 35.0511H29.3101V36.0049H30.2726V35.0511Z" fill="#2ECC71"/>
<path d="M30.2726 34.0874H29.3101V35.0499H30.2726V34.0874Z" fill="#2ECC71"/>
<path d="M30.2726 33.1336H29.3101V34.0874H30.2726V33.1336Z" fill="#2ECC71"/>
<path d="M30.2726 32.1711H29.3101V33.1336H30.2726V32.1711Z" fill="#2ECC71"/>
<path d="M30.2726 31.2199H29.3101V32.1737H30.2726V31.2199Z" fill="#2ECC71"/>
<path d="M30.2726 30.2549H29.3101V31.2174H30.2726V30.2549Z" fill="#2ECC71"/>
<path d="M30.2726 29.2924H29.3101V30.2549H30.2726V29.2924Z" fill="#2ECC71"/>
<path d="M30.2726 28.3399H29.3101V29.2937H30.2726V28.3399Z" fill="#28AF5F"/>
<path d="M30.2726 27.3774H29.3101V28.3399H30.2726V27.3774Z" fill="#28AF5F"/>
<path d="M30.2726 26.4236H29.3101V27.3774H30.2726V26.4236Z" fill="#28AF5F"/>
<path d="M30.2726 22.5911H29.3101V23.5449H30.2726V22.5911Z" fill="#298E52"/>
<path d="M30.2726 21.6287H29.3101V22.5912H30.2726V21.6287Z" fill="#28AF5F"/>
<path d="M30.2726 20.6649H29.3101V21.6274H30.2726V20.6649Z" fill="#28AF5F"/>
<path d="M30.2726 19.7124H29.3101V20.6662H30.2726V19.7124Z" fill="#298E52"/>
<path d="M30.2726 18.7487H29.3101V19.7112H30.2726V18.7487Z" fill="#298E52"/>
<path d="M30.2726 17.7961H29.3101V18.7499H30.2726V17.7961Z" fill="#298E52"/>
<path d="M30.2726 16.8324H29.3101V17.7949H30.2726V16.8324Z" fill="#4C2501"/>
<path d="M30.2726 15.8811H29.3101V16.8349H30.2726V15.8811Z" fill="#E5A870"/>
<path d="M30.2726 14.9174H29.3101V15.8799H30.2726V14.9174Z" fill="#E5A870"/>
<path d="M30.2726 13.9549H29.3101V14.9174H30.2726V13.9549Z" fill="#E5A870"/>
<path d="M29.3102 40.7999H28.3564V41.7624H29.3102V40.7999Z" fill="#28AF5F"/>
<path d="M29.3102 39.8461H28.3564V40.7999H29.3102V39.8461Z" fill="#28AF5F"/>
<path d="M29.3102 38.8836H28.3564V39.8461H29.3102V38.8836Z" fill="#2ECC71"/>
<path d="M29.3102 37.9299H28.3564V38.8836H29.3102V37.9299Z" fill="#28AF5F"/>
<path d="M29.3102 36.9674H28.3564V37.9299H29.3102V36.9674Z" fill="#28AF5F"/>
<path d="M29.3102 36.0037H28.3564V36.9662H29.3102V36.0037Z" fill="#2ECC71"/>
<path d="M29.3102 35.0511H28.3564V36.0049H29.3102V35.0511Z" fill="#2ECC71"/>
<path d="M29.3102 34.0874H28.3564V35.0499H29.3102V34.0874Z" fill="#2ECC71"/>
<path d="M29.3102 33.1336H28.3564V34.0874H29.3102V33.1336Z" fill="#2ECC71"/>
<path d="M29.3102 32.1711H28.3564V33.1336H29.3102V32.1711Z" fill="#2ECC71"/>
<path d="M29.3102 31.2199H28.3564V32.1737H29.3102V31.2199Z" fill="#2ECC71"/>
<path d="M29.3102 30.2549H28.3564V31.2174H29.3102V30.2549Z" fill="#2ECC71"/>
<path d="M29.3102 29.2924H28.3564V30.2549H29.3102V29.2924Z" fill="#2ECC71"/>
<path d="M29.3102 28.3399H28.3564V29.2937H29.3102V28.3399Z" fill="#2ECC71"/>
<path d="M29.3102 27.3774H28.3564V28.3399H29.3102V27.3774Z" fill="#2ECC71"/>
<path d="M29.3102 26.4236H28.3564V27.3774H29.3102V26.4236Z" fill="#2ECC71"/>
<path d="M29.3102 25.4611H28.3564V26.4236H29.3102V25.4611Z" fill="#298E52"/>
<path d="M29.3102 24.5074H28.3564V25.4611H29.3102V24.5074Z" fill="#025624"/>
<path d="M29.3102 23.5449H28.3564V24.5074H29.3102V23.5449Z" fill="#298E52"/>
<path d="M29.3102 22.5911H28.3564V23.5449H29.3102V22.5911Z" fill="#28AF5F"/>
<path d="M29.3102 21.6287H28.3564V22.5912H29.3102V21.6287Z" fill="#28AF5F"/>
<path d="M29.3102 20.6649H28.3564V21.6274H29.3102V20.6649Z" fill="#28AF5F"/>
<path d="M29.3102 19.7124H28.3564V20.6662H29.3102V19.7124Z" fill="#28AF5F"/>
<path d="M29.3102 18.7487H28.3564V19.7112H29.3102V18.7487Z" fill="#4C2501"/>
<path d="M29.3102 17.7961H28.3564V18.7499H29.3102V17.7961Z" fill="#4C2501"/>
<path d="M29.3102 16.8324H28.3564V17.7949H29.3102V16.8324Z" fill="#298E52"/>
<path d="M29.3102 15.8811H28.3564V16.8349H29.3102V15.8811Z" fill="#298E52"/>
<path d="M29.3102 14.9174H28.3564V15.8799H29.3102V14.9174Z" fill="#298E52"/>
<path d="M28.3551 40.7999H27.3926V41.7624H28.3551V40.7999Z" fill="#28AF5F"/>
<path d="M28.3551 39.8461H27.3926V40.7999H28.3551V39.8461Z" fill="#28AF5F"/>
<path d="M28.3551 38.8836H27.3926V39.8461H28.3551V38.8836Z" fill="#28AF5F"/>
<path d="M28.3551 37.9299H27.3926V38.8836H28.3551V37.9299Z" fill="#2ECC71"/>
<path d="M28.3551 36.9674H27.3926V37.9299H28.3551V36.9674Z" fill="#28AF5F"/>
<path d="M28.3551 36.0037H27.3926V36.9662H28.3551V36.0037Z" fill="#28AF5F"/>
<path d="M28.3551 35.0511H27.3926V36.0049H28.3551V35.0511Z" fill="#2ECC71"/>
<path d="M28.3551 34.0874H27.3926V35.0499H28.3551V34.0874Z" fill="#2ECC71"/>
<path d="M28.3551 33.1336H27.3926V34.0874H28.3551V33.1336Z" fill="#2ECC71"/>
<path d="M28.3551 32.1711H27.3926V33.1336H28.3551V32.1711Z" fill="#2ECC71"/>
<path d="M28.3551 31.2199H27.3926V32.1737H28.3551V31.2199Z" fill="#2ECC71"/>
<path d="M28.3551 30.2549H27.3926V31.2174H28.3551V30.2549Z" fill="#2ECC71"/>
<path d="M28.3551 29.2924H27.3926V30.2549H28.3551V29.2924Z" fill="#2ECC71"/>
<path d="M28.3551 28.3399H27.3926V29.2937H28.3551V28.3399Z" fill="#2ECC71"/>
<path d="M28.3551 27.3774H27.3926V28.3399H28.3551V27.3774Z" fill="#2ECC71"/>
<path d="M28.3551 26.4236H27.3926V27.3774H28.3551V26.4236Z" fill="#2ECC71"/>
<path d="M28.3551 25.4611H27.3926V26.4236H28.3551V25.4611Z" fill="#298E52"/>
<path d="M28.3551 24.5074H27.3926V25.4611H28.3551V24.5074Z" fill="#025624"/>
<path d="M28.3551 23.5449H27.3926V24.5074H28.3551V23.5449Z" fill="#28AF5F"/>
<path d="M28.3551 22.5911H27.3926V23.5449H28.3551V22.5911Z" fill="#28AF5F"/>
<path d="M28.3551 21.6287H27.3926V22.5912H28.3551V21.6287Z" fill="#2ECC71"/>
<path d="M28.3551 20.6649H27.3926V21.6274H28.3551V20.6649Z" fill="#28AF5F"/>
<path d="M28.3551 19.7124H27.3926V20.6662H28.3551V19.7124Z" fill="#28AF5F"/>
<path d="M28.3551 18.7487H27.3926V19.7112H28.3551V18.7487Z" fill="#28AF5F"/>
<path d="M28.3551 17.7961H27.3926V18.7499H28.3551V17.7961Z" fill="#298E52"/>
<path d="M28.3551 16.8324H27.3926V17.7949H28.3551V16.8324Z" fill="#2ECC71"/>
<path d="M28.3551 15.8811H27.3926V16.8349H28.3551V15.8811Z" fill="#28AF5F"/>
<path d="M28.3551 14.9174H27.3926V15.8799H28.3551V14.9174Z" fill="#298E52"/>
<path d="M28.3551 13.0012H27.3926V13.9549H28.3551V13.0012Z" fill="#5B5957"/>
<path d="M28.3551 12.0386H27.3926V13.0011H28.3551V12.0386Z" fill="#878481"/>
<path d="M28.3551 11.0849H27.3926V12.0386H28.3551V11.0849Z" fill="#878481"/>
<path d="M27.3937 40.7999H26.4399V41.7624H27.3937V40.7999Z" fill="#28AF5F"/>
<path d="M27.3937 39.8461H26.4399V40.7999H27.3937V39.8461Z" fill="#28AF5F"/>
<path d="M27.3937 38.8836H26.4399V39.8461H27.3937V38.8836Z" fill="#28AF5F"/>
<path d="M27.3937 37.9299H26.4399V38.8836H27.3937V37.9299Z" fill="#2ECC71"/>
<path d="M27.3937 36.9674H26.4399V37.9299H27.3937V36.9674Z" fill="#28AF5F"/>
<path d="M27.3937 36.0037H26.4399V36.9662H27.3937V36.0037Z" fill="#28AF5F"/>
<path d="M27.3937 35.0511H26.4399V36.0049H27.3937V35.0511Z" fill="#2ECC71"/>
<path d="M27.3937 34.0874H26.4399V35.0499H27.3937V34.0874Z" fill="#2ECC71"/>
<path d="M27.3937 33.1336H26.4399V34.0874H27.3937V33.1336Z" fill="#2ECC71"/>
<path d="M27.3937 32.1711H26.4399V33.1336H27.3937V32.1711Z" fill="#2ECC71"/>
<path d="M27.3937 31.2199H26.4399V32.1737H27.3937V31.2199Z" fill="#2ECC71"/>
<path d="M27.3937 30.2549H26.4399V31.2174H27.3937V30.2549Z" fill="#2ECC71"/>
<path d="M27.3937 29.2924H26.4399V30.2549H27.3937V29.2924Z" fill="#2ECC71"/>
<path d="M27.3937 28.3399H26.4399V29.2937H27.3937V28.3399Z" fill="#2ECC71"/>
<path d="M27.3937 27.3774H26.4399V28.3399H27.3937V27.3774Z" fill="#2ECC71"/>
<path d="M27.3937 26.4236H26.4399V27.3774H27.3937V26.4236Z" fill="#28AF5F"/>
<path d="M27.3937 25.4611H26.4399V26.4236H27.3937V25.4611Z" fill="#025624"/>
<path d="M27.3937 24.5074H26.4399V25.4611H27.3937V24.5074Z" fill="#298E52"/>
<path d="M27.3937 23.5449H26.4399V24.5074H27.3937V23.5449Z" fill="#28AF5F"/>
<path d="M27.3937 22.5911H26.4399V23.5449H27.3937V22.5911Z" fill="#2ECC71"/>
<path d="M27.3937 21.6287H26.4399V22.5912H27.3937V21.6287Z" fill="#2ECC71"/>
<path d="M27.3937 20.6649H26.4399V21.6274H27.3937V20.6649Z" fill="#2ECC71"/>
<path d="M27.3937 19.7124H26.4399V20.6662H27.3937V19.7124Z" fill="#28AF5F"/>
<path d="M27.3937 18.7487H26.4399V19.7112H27.3937V18.7487Z" fill="#28AF5F"/>
<path d="M27.3937 17.7961H26.4399V18.7499H27.3937V17.7961Z" fill="#28AF5F"/>
<path d="M27.3937 16.8324H26.4399V17.7949H27.3937V16.8324Z" fill="#2ECC71"/>
<path d="M27.3937 15.8811H26.4399V16.8349H27.3937V15.8811Z" fill="#2ECC71"/>
<path d="M27.3937 14.9174H26.4399V15.8799H27.3937V14.9174Z" fill="#28AF5F"/>
<path d="M27.3937 13.9549H26.4399V14.9174H27.3937V13.9549Z" fill="#EFAD65"/>
<path d="M27.3937 13.0012H26.4399V13.9549H27.3937V13.0012Z" fill="#5B5957"/>
<path d="M27.3937 12.0386H26.4399V13.0011H27.3937V12.0386Z" fill="#878481"/>
<path d="M27.3937 11.0849H26.4399V12.0386H27.3937V11.0849Z" fill="#878481"/>
<path d="M27.3937 10.1224H26.4399V11.0849H27.3937V10.1224Z" fill="#EFAD65"/>
<path d="M26.4386 40.7999H25.4761V41.7624H26.4386V40.7999Z" fill="#28AF5F"/>
<path d="M26.4386 39.8461H25.4761V40.7999H26.4386V39.8461Z" fill="#28AF5F"/>
<path d="M26.4386 38.8836H25.4761V39.8461H26.4386V38.8836Z" fill="#28AF5F"/>
<path d="M26.4386 37.9299H25.4761V38.8836H26.4386V37.9299Z" fill="#28AF5F"/>
<path d="M26.4386 36.9674H25.4761V37.9299H26.4386V36.9674Z" fill="#2ECC71"/>
<path d="M26.4386 36.0037H25.4761V36.9662H26.4386V36.0037Z" fill="#28AF5F"/>
<path d="M26.4386 35.0511H25.4761V36.0049H26.4386V35.0511Z" fill="#28AF5F"/>
<path d="M26.4386 34.0874H25.4761V35.0499H26.4386V34.0874Z" fill="#2ECC71"/>
<path d="M26.4386 33.1336H25.4761V34.0874H26.4386V33.1336Z" fill="#025624"/>
<path d="M26.4386 32.1711H25.4761V33.1336H26.4386V32.1711Z" fill="#025624"/>
<path d="M26.4386 31.2199H25.4761V32.1737H26.4386V31.2199Z" fill="#025624"/>
<path d="M26.4386 30.2549H25.4761V31.2174H26.4386V30.2549Z" fill="#2ECC71"/>
<path d="M26.4386 29.2924H25.4761V30.2549H26.4386V29.2924Z" fill="#2ECC71"/>
<path d="M26.4386 28.3399H25.4761V29.2937H26.4386V28.3399Z" fill="#2ECC71"/>
<path d="M26.4386 27.3774H25.4761V28.3399H26.4386V27.3774Z" fill="#2ECC71"/>
<path d="M26.4386 26.4236H25.4761V27.3774H26.4386V26.4236Z" fill="#28AF5F"/>
<path d="M26.4386 25.4611H25.4761V26.4236H26.4386V25.4611Z" fill="#025624"/>
<path d="M26.4386 24.5074H25.4761V25.4611H26.4386V24.5074Z" fill="#28AF5F"/>
<path d="M26.4386 23.5449H25.4761V24.5074H26.4386V23.5449Z" fill="#28AF5F"/>
<path d="M26.4386 22.5911H25.4761V23.5449H26.4386V22.5911Z" fill="#28AF5F"/>
<path d="M26.4386 21.6287H25.4761V22.5912H26.4386V21.6287Z" fill="#28AF5F"/>
<path d="M26.4386 20.6649H25.4761V21.6274H26.4386V20.6649Z" fill="#2ECC71"/>
<path d="M26.4386 19.7124H25.4761V20.6662H26.4386V19.7124Z" fill="#2ECC71"/>
<path d="M26.4386 18.7487H25.4761V19.7112H26.4386V18.7487Z" fill="#2ECC71"/>
<path d="M26.4386 17.7961H25.4761V18.7499H26.4386V17.7961Z" fill="#2ECC71"/>
<path d="M26.4386 16.8324H25.4761V17.7949H26.4386V16.8324Z" fill="#2ECC71"/>
<path d="M26.4386 15.8811H25.4761V16.8349H26.4386V15.8811Z" fill="#28AF5F"/>
<path d="M26.4386 14.9174H25.4761V15.8799H26.4386V14.9174Z" fill="#EFAD65"/>
<path d="M26.4386 13.9549H25.4761V14.9174H26.4386V13.9549Z" fill="#EFAD65"/>
<path d="M26.4386 13.0012H25.4761V13.9549H26.4386V13.0012Z" fill="#EFAD65"/>
<path d="M26.4386 12.0386H25.4761V13.0011H26.4386V12.0386Z" fill="#5B5957"/>
<path d="M26.4386 11.0849H25.4761V12.0386H26.4386V11.0849Z" fill="#878481"/>
<path d="M26.4386 10.1224H25.4761V11.0849H26.4386V10.1224Z" fill="#EFAD65"/>
<path d="M25.4777 40.7999H24.5239V41.7624H25.4777V40.7999Z" fill="#28AF5F"/>
<path d="M25.4777 39.8461H24.5239V40.7999H25.4777V39.8461Z" fill="#28AF5F"/>
<path d="M25.4777 38.8836H24.5239V39.8461H25.4777V38.8836Z" fill="#28AF5F"/>
<path d="M25.4777 37.9299H24.5239V38.8836H25.4777V37.9299Z" fill="#28AF5F"/>
<path d="M25.4777 36.9674H24.5239V37.9299H25.4777V36.9674Z" fill="#2ECC71"/>
<path d="M25.4777 36.0037H24.5239V36.9662H25.4777V36.0037Z" fill="#28AF5F"/>
<path d="M25.4777 35.0511H24.5239V36.0049H25.4777V35.0511Z" fill="#28AF5F"/>
<path d="M25.4777 34.0874H24.5239V35.0499H25.4777V34.0874Z" fill="#2ECC71"/>
<path d="M25.4777 33.1336H24.5239V34.0874H25.4777V33.1336Z" fill="#2ECC71"/>
<path d="M25.4777 32.1711H24.5239V33.1336H25.4777V32.1711Z" fill="#2ECC71"/>
<path d="M25.4777 31.2199H24.5239V32.1737H25.4777V31.2199Z" fill="#2ECC71"/>
<path d="M25.4777 30.2549H24.5239V31.2174H25.4777V30.2549Z" fill="#025624"/>
<path d="M25.4777 29.2924H24.5239V30.2549H25.4777V29.2924Z" fill="#025624"/>
<path d="M25.4777 28.3399H24.5239V29.2937H25.4777V28.3399Z" fill="#025624"/>
<path d="M25.4777 27.3774H24.5239V28.3399H25.4777V27.3774Z" fill="#025624"/>
<path d="M25.4777 26.4236H24.5239V27.3774H25.4777V26.4236Z" fill="#28AF5F"/>
<path d="M25.4777 25.4611H24.5239V26.4236H25.4777V25.4611Z" fill="#025624"/>
<path d="M25.4777 24.5074H24.5239V25.4611H25.4777V24.5074Z" fill="#28AF5F"/>
<path d="M25.4777 23.5449H24.5239V24.5074H25.4777V23.5449Z" fill="#28AF5F"/>
<path d="M25.4777 22.5911H24.5239V23.5449H25.4777V22.5911Z" fill="#28AF5F"/>
<path d="M25.4777 21.6287H24.5239V22.5912H25.4777V21.6287Z" fill="#28AF5F"/>
<path d="M25.4777 20.6649H24.5239V21.6274H25.4777V20.6649Z" fill="#28AF5F"/>
<path d="M25.4777 19.7124H24.5239V20.6662H25.4777V19.7124Z" fill="#2ECC71"/>
<path d="M25.4777 18.7487H24.5239V19.7112H25.4777V18.7487Z" fill="#2ECC71"/>
<path d="M25.4777 17.7961H24.5239V18.7499H25.4777V17.7961Z" fill="#2ECC71"/>
<path d="M25.4777 16.8324H24.5239V17.7949H25.4777V16.8324Z" fill="#2ECC71"/>
<path d="M25.4777 15.8811H24.5239V16.8349H25.4777V15.8811Z" fill="#28AF5F"/>
<path d="M25.4777 14.9174H24.5239V15.8799H25.4777V14.9174Z" fill="#EFAD65"/>
<path d="M25.4777 13.9549H24.5239V14.9174H25.4777V13.9549Z" fill="#EFAD65"/>
<path d="M25.4777 13.0012H24.5239V13.9549H25.4777V13.0012Z" fill="#EFAD65"/>
<path d="M25.4777 12.0386H24.5239V13.0011H25.4777V12.0386Z" fill="#EFAD65"/>
<path d="M25.4777 11.0849H24.5239V12.0386H25.4777V11.0849Z" fill="#EFAD65"/>
<path d="M25.4777 10.1224H24.5239V11.0849H25.4777V10.1224Z" fill="#EFAD65"/>
<path d="M24.5226 40.7999H23.5601V41.7624H24.5226V40.7999Z" fill="#28AF5F"/>
<path d="M24.5226 39.8461H23.5601V40.7999H24.5226V39.8461Z" fill="#28AF5F"/>
<path d="M24.5226 38.8836H23.5601V39.8461H24.5226V38.8836Z" fill="#28AF5F"/>
<path d="M24.5226 37.9299H23.5601V38.8836H24.5226V37.9299Z" fill="#28AF5F"/>
<path d="M24.5226 36.9674H23.5601V37.9299H24.5226V36.9674Z" fill="#28AF5F"/>
<path d="M24.5226 36.0037H23.5601V36.9662H24.5226V36.0037Z" fill="#2ECC71"/>
<path d="M24.5226 35.0511H23.5601V36.0049H24.5226V35.0511Z" fill="#28AF5F"/>
<path d="M24.5226 34.0874H23.5601V35.0499H24.5226V34.0874Z" fill="#2ECC71"/>
<path d="M24.5226 33.1336H23.5601V34.0874H24.5226V33.1336Z" fill="#2ECC71"/>
<path d="M24.5226 32.1711H23.5601V33.1336H24.5226V32.1711Z" fill="#2ECC71"/>
<path d="M24.5226 31.2199H23.5601V32.1737H24.5226V31.2199Z" fill="#2ECC71"/>
<path d="M24.5226 30.2549H23.5601V31.2174H24.5226V30.2549Z" fill="#2ECC71"/>
<path d="M24.5226 29.2924H23.5601V30.2549H24.5226V29.2924Z" fill="#2ECC71"/>
<path d="M24.5226 28.3399H23.5601V29.2937H24.5226V28.3399Z" fill="#2ECC71"/>
<path d="M24.5226 27.3774H23.5601V28.3399H24.5226V27.3774Z" fill="#28AF5F"/>
<path d="M24.5226 26.4236H23.5601V27.3774H24.5226V26.4236Z" fill="#025624"/>
<path d="M24.5226 25.4611H23.5601V26.4236H24.5226V25.4611Z" fill="#025624"/>
<path d="M24.5226 24.5074H23.5601V25.4611H24.5226V24.5074Z" fill="#28AF5F"/>
<path d="M24.5226 23.5449H23.5601V24.5074H24.5226V23.5449Z" fill="#28AF5F"/>
<path d="M24.5226 22.5911H23.5601V23.5449H24.5226V22.5911Z" fill="#28AF5F"/>
<path d="M24.5226 21.6287H23.5601V22.5912H24.5226V21.6287Z" fill="#28AF5F"/>
<path d="M24.5226 20.6649H23.5601V21.6274H24.5226V20.6649Z" fill="#28AF5F"/>
<path d="M24.5226 19.7124H23.5601V20.6662H24.5226V19.7124Z" fill="#28AF5F"/>
<path d="M24.5226 18.7487H23.5601V19.7112H24.5226V18.7487Z" fill="#2ECC71"/>
<path d="M24.5226 17.7961H23.5601V18.7499H24.5226V17.7961Z" fill="#2ECC71"/>
<path d="M24.5226 16.8324H23.5601V17.7949H24.5226V16.8324Z" fill="#2ECC71"/>
<path d="M24.5226 15.8811H23.5601V16.8349H24.5226V15.8811Z" fill="#28AF5F"/>
<path d="M24.5226 14.9174H23.5601V15.8799H24.5226V14.9174Z" fill="#EFAD65"/>
<path d="M24.5226 13.9549H23.5601V14.9174H24.5226V13.9549Z" fill="#EFAD65"/>
<path d="M24.5226 13.0012H23.5601V13.9549H24.5226V13.0012Z" fill="#EFAD65"/>
<path d="M24.5226 12.0386H23.5601V13.0011H24.5226V12.0386Z" fill="#EFAD65"/>
<path d="M24.5226 11.0849H23.5601V12.0386H24.5226V11.0849Z" fill="#EFAD65"/>
<path d="M24.5226 10.1224H23.5601V11.0849H24.5226V10.1224Z" fill="#EFAD65"/>
<path d="M23.5602 40.7999H22.5977V41.7624H23.5602V40.7999Z" fill="#28AF5F"/>
<path d="M23.5602 39.8461H22.5977V40.7999H23.5602V39.8461Z" fill="#28AF5F"/>
<path d="M23.5602 38.8836H22.5977V39.8461H23.5602V38.8836Z" fill="#28AF5F"/>
<path d="M23.5602 37.9299H22.5977V38.8836H23.5602V37.9299Z" fill="#28AF5F"/>
<path d="M23.5602 36.9674H22.5977V37.9299H23.5602V36.9674Z" fill="#28AF5F"/>
<path d="M23.5602 36.0037H22.5977V36.9662H23.5602V36.0037Z" fill="#2ECC71"/>
<path d="M23.5602 35.0511H22.5977V36.0049H23.5602V35.0511Z" fill="#28AF5F"/>
<path d="M23.5602 34.0874H22.5977V35.0499H23.5602V34.0874Z" fill="#2ECC71"/>
<path d="M23.5602 33.1336H22.5977V34.0874H23.5602V33.1336Z" fill="#025624"/>
<path d="M23.5602 32.1711H22.5977V33.1336H23.5602V32.1711Z" fill="#025624"/>
<path d="M23.5602 31.2199H22.5977V32.1737H23.5602V31.2199Z" fill="#025624"/>
<path d="M23.5602 30.2549H22.5977V31.2174H23.5602V30.2549Z" fill="#025624"/>
<path d="M23.5602 29.2924H22.5977V30.2549H23.5602V29.2924Z" fill="#025624"/>
<path d="M23.5602 28.3399H22.5977V29.2937H23.5602V28.3399Z" fill="#025624"/>
<path d="M23.5602 27.3774H22.5977V28.3399H23.5602V27.3774Z" fill="#025624"/>
<path d="M23.5602 26.4236H22.5977V27.3774H23.5602V26.4236Z" fill="#28AF5F"/>
<path d="M23.5602 25.4611H22.5977V26.4236H23.5602V25.4611Z" fill="#28AF5F"/>
<path d="M23.5602 24.5074H22.5977V25.4611H23.5602V24.5074Z" fill="#025624"/>
<path d="M23.5602 23.5449H22.5977V24.5074H23.5602V23.5449Z" fill="#2ECC71"/>
<path d="M23.5602 22.5911H22.5977V23.5449H23.5602V22.5911Z" fill="#2ECC71"/>
<path d="M23.5602 21.6287H22.5977V22.5912H23.5602V21.6287Z" fill="#2ECC71"/>
<path d="M23.5602 20.6649H22.5977V21.6274H23.5602V20.6649Z" fill="#2ECC71"/>
<path d="M23.5602 19.7124H22.5977V20.6662H23.5602V19.7124Z" fill="#2ECC71"/>
<path d="M23.5602 18.7487H22.5977V19.7112H23.5602V18.7487Z" fill="#2ECC71"/>
<path d="M23.5602 17.7961H22.5977V18.7499H23.5602V17.7961Z" fill="#2ECC71"/>
<path d="M23.5602 16.8324H22.5977V17.7949H23.5602V16.8324Z" fill="#28AF5F"/>
<path d="M23.5602 15.8811H22.5977V16.8349H23.5602V15.8811Z" fill="#28AF5F"/>
<path d="M23.5602 14.9174H22.5977V15.8799H23.5602V14.9174Z" fill="#EFAD65"/>
<path d="M23.5602 13.9549H22.5977V14.9174H23.5602V13.9549Z" fill="#EA8634"/>
<path d="M23.5602 13.0012H22.5977V13.9549H23.5602V13.0012Z" fill="#EA8634"/>
<path d="M23.5602 12.0386H22.5977V13.0011H23.5602V12.0386Z" fill="#EFAD65"/>
<path d="M23.5602 11.0849H22.5977V12.0386H23.5602V11.0849Z" fill="#EFAD65"/>
<path d="M22.5973 40.7999H21.6436V41.7624H22.5973V40.7999Z" fill="#28AF5F"/>
<path d="M22.5973 39.8461H21.6436V40.7999H22.5973V39.8461Z" fill="#28AF5F"/>
<path d="M22.5973 38.8836H21.6436V39.8461H22.5973V38.8836Z" fill="#28AF5F"/>
<path d="M22.5973 37.9299H21.6436V38.8836H22.5973V37.9299Z" fill="#28AF5F"/>
<path d="M22.5973 36.9674H21.6436V37.9299H22.5973V36.9674Z" fill="#28AF5F"/>
<path d="M22.5973 36.0037H21.6436V36.9662H22.5973V36.0037Z" fill="#28AF5F"/>
<path d="M22.5973 35.0511H21.6436V36.0049H22.5973V35.0511Z" fill="#28AF5F"/>
<path d="M22.5973 34.0874H21.6436V35.0499H22.5973V34.0874Z" fill="#28AF5F"/>
<path d="M22.5973 33.1336H21.6436V34.0874H22.5973V33.1336Z" fill="#28AF5F"/>
<path d="M22.5973 32.1711H21.6436V33.1336H22.5973V32.1711Z" fill="#2ECC71"/>
<path d="M22.5973 31.2199H21.6436V32.1737H22.5973V31.2199Z" fill="#2ECC71"/>
<path d="M22.5973 30.2549H21.6436V31.2174H22.5973V30.2549Z" fill="#2ECC71"/>
<path d="M22.5973 29.2924H21.6436V30.2549H22.5973V29.2924Z" fill="#2ECC71"/>
<path d="M22.5973 28.3399H21.6436V29.2937H22.5973V28.3399Z" fill="#28AF5F"/>
<path d="M22.5973 23.5449H21.6436V24.5074H22.5973V23.5449Z" fill="#28AF5F"/>
<path d="M22.5973 22.5911H21.6436V23.5449H22.5973V22.5911Z" fill="#2ECC71"/>
<path d="M22.5973 21.6287H21.6436V22.5912H22.5973V21.6287Z" fill="#2ECC71"/>
<path d="M22.5973 20.6649H21.6436V21.6274H22.5973V20.6649Z" fill="#2ECC71"/>
<path d="M22.5973 19.7124H21.6436V20.6662H22.5973V19.7124Z" fill="#28AF5F"/>
<path d="M22.5973 18.7487H21.6436V19.7112H22.5973V18.7487Z" fill="#28AF5F"/>
<path d="M22.5973 17.7961H21.6436V18.7499H22.5973V17.7961Z" fill="#28AF5F"/>
<path d="M21.6437 40.7999H20.6812V41.7624H21.6437V40.7999Z" fill="#28AF5F"/>
<path d="M21.6437 39.8461H20.6812V40.7999H21.6437V39.8461Z" fill="#28AF5F"/>
<path d="M21.6437 38.8836H20.6812V39.8461H21.6437V38.8836Z" fill="#28AF5F"/>
<path d="M21.6437 37.9299H20.6812V38.8836H21.6437V37.9299Z" fill="#28AF5F"/>
<path d="M21.6437 36.9674H20.6812V37.9299H21.6437V36.9674Z" fill="#28AF5F"/>
<path d="M21.6437 36.0037H20.6812V36.9662H21.6437V36.0037Z" fill="#28AF5F"/>
<path d="M21.6437 35.0511H20.6812V36.0049H21.6437V35.0511Z" fill="#2ECC71"/>
<path d="M21.6437 34.0874H20.6812V35.0499H21.6437V34.0874Z" fill="#2ECC71"/>
<path d="M21.6437 33.1336H20.6812V34.0874H21.6437V33.1336Z" fill="#2ECC71"/>
<path d="M21.6437 32.1711H20.6812V33.1336H21.6437V32.1711Z" fill="#2ECC71"/>
<path d="M21.6437 31.2199H20.6812V32.1737H21.6437V31.2199Z" fill="#2ECC71"/>
<path d="M21.6437 30.2549H20.6812V31.2174H21.6437V30.2549Z" fill="#28AF5F"/>
<path d="M21.6437 29.2924H20.6812V30.2549H21.6437V29.2924Z" fill="#28AF5F"/>
<path d="M21.6437 23.5449H20.6812V24.5074H21.6437V23.5449Z" fill="#28AF5F"/>
<path d="M21.6437 22.5911H20.6812V23.5449H21.6437V22.5911Z" fill="#28AF5F"/>
<path d="M21.6437 21.6287H20.6812V22.5912H21.6437V21.6287Z" fill="#28AF5F"/>
<path d="M21.6437 20.6649H20.6812V21.6274H21.6437V20.6649Z" fill="#28AF5F"/>
<path d="M21.6437 19.7124H20.6812V20.6662H21.6437V19.7124Z" fill="#28AF5F"/>
<path d="M20.6813 40.7999H19.7275V41.7624H20.6813V40.7999Z" fill="#28AF5F"/>
<path d="M20.6813 39.8461H19.7275V40.7999H20.6813V39.8461Z" fill="#2ECC71"/>
<path d="M20.6813 38.8836H19.7275V39.8461H20.6813V38.8836Z" fill="#2ECC71"/>
<path d="M20.6813 37.9299H19.7275V38.8836H20.6813V37.9299Z" fill="#2ECC71"/>
<path d="M20.6813 36.9674H19.7275V37.9299H20.6813V36.9674Z" fill="#2ECC71"/>
<path d="M20.6813 36.0037H19.7275V36.9662H20.6813V36.0037Z" fill="#2ECC71"/>
<path d="M20.6813 35.0511H19.7275V36.0049H20.6813V35.0511Z" fill="#2ECC71"/>
<path d="M20.6813 34.0874H19.7275V35.0499H20.6813V34.0874Z" fill="#2ECC71"/>
<path d="M20.6813 33.1336H19.7275V34.0874H20.6813V33.1336Z" fill="#28AF5F"/>
<path d="M20.6813 32.1711H19.7275V33.1336H20.6813V32.1711Z" fill="#28AF5F"/>
<path d="M20.6813 31.2199H19.7275V32.1737H20.6813V31.2199Z" fill="#28AF5F"/>
<path d="M20.6813 24.5074H19.7275V25.4611H20.6813V24.5074Z" fill="#28AF5F"/>
<path d="M20.6813 23.5449H19.7275V24.5074H20.6813V23.5449Z" fill="#28AF5F"/>
<path d="M20.6813 22.5911H19.7275V23.5449H20.6813V22.5911Z" fill="#28AF5F"/>
<path d="M20.6813 21.6287H19.7275V22.5912H20.6813V21.6287Z" fill="#28AF5F"/>
<path d="M19.7276 40.7999H18.7651V41.7624H19.7276V40.7999Z" fill="#28AF5F"/>
<path d="M19.7276 39.8461H18.7651V40.7999H19.7276V39.8461Z" fill="#28AF5F"/>
<path d="M19.7276 38.8836H18.7651V39.8461H19.7276V38.8836Z" fill="#28AF5F"/>
<path d="M19.7276 37.9299H18.7651V38.8836H19.7276V37.9299Z" fill="#28AF5F"/>
<path d="M19.7276 36.9674H18.7651V37.9299H19.7276V36.9674Z" fill="#28AF5F"/>
<path d="M19.7276 36.0037H18.7651V36.9662H19.7276V36.0037Z" fill="#28AF5F"/>
<path d="M19.7276 35.0511H18.7651V36.0049H19.7276V35.0511Z" fill="#28AF5F"/>
<path d="M19.7276 34.0874H18.7651V35.0499H19.7276V34.0874Z" fill="#28AF5F"/>
<path d="M19.7276 33.1336H18.7651V34.0874H19.7276V33.1336Z" fill="#28AF5F"/>
<path d="M19.7276 24.5074H18.7651V25.4611H19.7276V24.5074Z" fill="#EFAD65"/>
<path d="M19.7276 23.5449H18.7651V24.5074H19.7276V23.5449Z" fill="#EFAD65"/>
<path d="M19.7276 22.5911H18.7651V23.5449H19.7276V22.5911Z" fill="#EFAD65"/>
<path d="M19.7276 21.6287H18.7651V22.5912H19.7276V21.6287Z" fill="#28AF5F"/>
<path d="M18.7663 24.5074H17.8125V25.4611H18.7663V24.5074Z" fill="#EFAD65"/>
<path d="M18.7663 23.5449H17.8125V24.5074H18.7663V23.5449Z" fill="#EFAD65"/>
<path d="M18.7663 22.5911H17.8125V23.5449H18.7663V22.5911Z" fill="#EFAD65"/>
<path d="M17.8126 23.5449H16.8501V24.5074H17.8126V23.5449Z" fill="#EFAD65"/>
<path d="M17.8126 22.5911H16.8501V23.5449H17.8126V22.5911Z" fill="#EFAD65"/>
<path d="M17.8126 21.6287H16.8501V22.5912H17.8126V21.6287Z" fill="#EFAD65"/>
<path d="M17.8126 13.9549H16.8501V14.9174H17.8126V13.9549Z" fill="#5E320A"/>
<path d="M17.8126 13.0012H16.8501V13.9549H17.8126V13.0012Z" fill="#5E320A"/>
<path d="M17.8126 12.0386H16.8501V13.0011H17.8126V12.0386Z" fill="#5E320A"/>
<path d="M17.8126 11.0849H16.8501V12.0386H17.8126V11.0849Z" fill="#5E320A"/>
<path d="M16.8502 37.9299H15.8877V38.8836H16.8502V37.9299Z" fill="#492807"/>
<path d="M16.8502 36.9674H15.8877V37.9299H16.8502V36.9674Z" fill="#492807"/>
<path d="M16.8502 36.0037H15.8877V36.9662H16.8502V36.0037Z" fill="#492807"/>
<path d="M16.8502 35.0511H15.8877V36.0049H16.8502V35.0511Z" fill="#492807"/>
<path d="M16.8502 34.0874H15.8877V35.0499H16.8502V34.0874Z" fill="#492807"/>
<path d="M16.8502 33.1336H15.8877V34.0874H16.8502V33.1336Z" fill="#492807"/>
<path d="M16.8502 32.1711H15.8877V33.1336H16.8502V32.1711Z" fill="#492807"/>
<path d="M16.8502 31.2199H15.8877V32.1737H16.8502V31.2199Z" fill="#492807"/>
<path d="M16.8502 30.2549H15.8877V31.2174H16.8502V30.2549Z" fill="#492807"/>
<path d="M16.8502 29.2924H15.8877V30.2549H16.8502V29.2924Z" fill="#492807"/>
<path d="M16.8502 28.3399H15.8877V29.2937H16.8502V28.3399Z" fill="#492807"/>
<path d="M16.8502 27.3774H15.8877V28.3399H16.8502V27.3774Z" fill="#492807"/>
<path d="M16.8502 26.4236H15.8877V27.3774H16.8502V26.4236Z" fill="#492807"/>
<path d="M16.8502 25.4611H15.8877V26.4236H16.8502V25.4611Z" fill="#492807"/>
<path d="M16.8502 24.5074H15.8877V25.4611H16.8502V24.5074Z" fill="#492807"/>
<path d="M16.8502 23.5449H15.8877V24.5074H16.8502V23.5449Z" fill="#EFAD65"/>
<path d="M16.8502 22.5911H15.8877V23.5449H16.8502V22.5911Z" fill="#EFAD65"/>
<path d="M16.8502 21.6287H15.8877V22.5912H16.8502V21.6287Z" fill="#EFAD65"/>
<path d="M16.8502 20.6649H15.8877V21.6274H16.8502V20.6649Z" fill="#492807"/>
<path d="M16.8502 19.7124H15.8877V20.6662H16.8502V19.7124Z" fill="#492807"/>
<path d="M16.8502 18.7487H15.8877V19.7112H16.8502V18.7487Z" fill="#492807"/>
<path d="M16.8502 17.7961H15.8877V18.7499H16.8502V17.7961Z" fill="#492807"/>
<path d="M16.8502 16.8324H15.8877V17.7949H16.8502V16.8324Z" fill="#492807"/>
<path d="M16.8502 15.8811H15.8877V16.8349H16.8502V15.8811Z" fill="#492807"/>
<path d="M16.8502 14.9174H15.8877V15.8799H16.8502V14.9174Z" fill="#492807"/>
<path d="M16.8502 13.9549H15.8877V14.9174H16.8502V13.9549Z" fill="#5E320A"/>
<path d="M16.8502 13.0012H15.8877V13.9549H16.8502V13.0012Z" fill="#723B0E"/>
<path d="M16.8502 12.0386H15.8877V13.0011H16.8502V12.0386Z" fill="#723B0E"/>
<path d="M15.8873 22.5911H14.9336V23.5449H15.8873V22.5911Z" fill="#EFAD65"/>
<path d="M15.8873 21.6287H14.9336V22.5912H15.8873V21.6287Z" fill="#EFAD65"/>
<path d="M15.8873 14.9174H14.9336V15.8799H15.8873V14.9174Z" fill="#5E320A"/>
<path d="M15.8873 13.9549H14.9336V14.9174H15.8873V13.9549Z" fill="#723B0E"/>
<path d="M15.8873 13.0012H14.9336V13.9549H15.8873V13.0012Z" fill="#84400D"/>
</g>
<defs>
<clipPath id="clip0_69_12158">
<rect width="50" height="50" fill="white" transform="translate(0 0.942383)"/>
</clipPath>
</defs>
</svg>
