<svg width="50" height="51" viewBox="0 0 50 51" fill="none" xmlns="http://www.w3.org/2000/svg">
<g clip-path="url(#clip0_69_12155)">
<path d="M24.9998 49.1649C37.8253 49.1649 48.2223 38.7678 48.2223 25.9424C48.2223 13.117 37.8253 2.71991 24.9998 2.71991C12.1744 2.71991 1.77734 13.117 1.77734 25.9424C1.77734 38.7678 12.1744 49.1649 24.9998 49.1649Z" fill="black"/>
<path d="M24.9998 50.0399C11.7123 50.0399 0.902344 39.2299 0.902344 25.9424C0.902344 12.6549 11.7123 1.84491 24.9998 1.84491C38.2873 1.84491 49.0973 12.6549 49.0973 25.9424C49.0973 39.2299 38.2873 50.0399 24.9998 50.0399ZM24.9998 3.59491C12.6773 3.59491 2.65234 13.6199 2.65234 25.9424C2.65234 38.2649 12.6773 48.2899 24.9998 48.2899C37.3223 48.2899 47.3473 38.2649 47.3473 25.9424C47.3473 13.6199 37.3223 3.59491 24.9998 3.59491Z" fill="#455360"/>
<path d="M39.4192 30.5386H38.6392V31.3111H39.4192V30.5386Z" fill="#455360"/>
<path d="M39.4192 29.7586H38.6392V30.5386H39.4192V29.7586Z" fill="#455360"/>
<path d="M39.4192 28.9786H38.6392V29.7586H39.4192V28.9786Z" fill="#455360"/>
<path d="M39.4192 28.2049H38.6392V28.9774H39.4192V28.2049Z" fill="#455360"/>
<path d="M38.6392 31.3124H37.8667V32.0924H38.6392V31.3124Z" fill="#455379"/>
<path d="M38.6392 27.4249H37.8667V28.2049H38.6392V27.4249Z" fill="black"/>
<path d="M37.8664 30.5386H37.0864V31.3111H37.8664V30.5386Z" fill="#455360"/>
<path d="M37.8664 29.7586H37.0864V30.5386H37.8664V29.7586Z" fill="#455360"/>
<path d="M37.8664 28.9786H37.0864V29.7586H37.8664V28.9786Z" fill="#455360"/>
<path d="M37.8664 28.2049H37.0864V28.9774H37.8664V28.2049Z" fill="black"/>
<path d="M37.8664 27.4249H37.0864V28.2049H37.8664V27.4249Z" fill="black"/>
<path d="M37.8664 26.6523H37.0864V27.4248H37.8664V26.6523Z" fill="black"/>
<path d="M37.0866 31.3124H36.3066V32.0924H37.0866V31.3124Z" fill="#455379"/>
<path d="M37.0866 28.2049H36.3066V28.9774H37.0866V28.2049Z" fill="black"/>
<path d="M37.0866 27.4249H36.3066V28.2049H37.0866V27.4249Z" fill="black"/>
<path d="M37.0866 26.6523H36.3066V27.4248H37.0866V26.6523Z" fill="black"/>
<path d="M36.305 27.4249H35.5312V28.2049H36.305V27.4249Z" fill="black"/>
<path d="M36.305 26.6523H35.5312V27.4248H36.305V26.6523Z" fill="black"/>
<path d="M35.5329 29.7586H34.7529V30.5386H35.5329V29.7586Z" fill="#455360"/>
<path d="M35.5329 28.9786H34.7529V29.7586H35.5329V28.9786Z" fill="#455360"/>
<path d="M35.5329 28.2049H34.7529V28.9774H35.5329V28.2049Z" fill="#455360"/>
<path d="M35.5329 27.4249H34.7529V28.2049H35.5329V27.4249Z" fill="black"/>
<path d="M35.5329 26.6523H34.7529V27.4248H35.5329V26.6523Z" fill="black"/>
<path d="M35.5329 25.8711H34.7529V26.6511H35.5329V25.8711Z" fill="black"/>
<path d="M35.5329 25.0986H34.7529V25.8711H35.5329V25.0986Z" fill="black"/>
<path d="M35.5329 24.3186H34.7529V25.0986H35.5329V24.3186Z" fill="black"/>
<path d="M34.7515 30.5386H33.979V31.3111H34.7515V30.5386Z" fill="#455379"/>
<path d="M34.7515 26.6523H33.979V27.4248H34.7515V26.6523Z" fill="black"/>
<path d="M34.7515 25.8711H33.979V26.6511H34.7515V25.8711Z" fill="#2D1212"/>
<path d="M34.7515 25.0986H33.979V25.8711H34.7515V25.0986Z" fill="#2D1212"/>
<path d="M34.7515 24.3186H33.979V25.0986H34.7515V24.3186Z" fill="#2D1212"/>
<path d="M34.7515 23.5461H33.979V24.3186H34.7515V23.5461Z" fill="black"/>
<path d="M34.7515 22.7649H33.979V23.5449H34.7515V22.7649Z" fill="black"/>
<path d="M34.7515 21.9849H33.979V22.7649H34.7515V21.9849Z" fill="black"/>
<path d="M33.9792 25.8711H33.1992V26.6511H33.9792V25.8711Z" fill="black"/>
<path d="M33.9792 25.0986H33.1992V25.8711H33.9792V25.0986Z" fill="#2D1212"/>
<path d="M33.9792 24.3186H33.1992V25.0986H33.9792V24.3186Z" fill="#2D1212"/>
<path d="M33.9792 23.5461H33.1992V24.3186H33.9792V23.5461Z" fill="#2D1212"/>
<path d="M33.9792 22.7649H33.1992V23.5449H33.9792V22.7649Z" fill="#2D1212"/>
<path d="M33.9792 21.9849H33.1992V22.7649H33.9792V21.9849Z" fill="#2D1212"/>
<path d="M33.9792 21.2123H33.1992V21.9848H33.9792V21.2123Z" fill="black"/>
<path d="M33.1988 25.0986H32.4263V25.8711H33.1988V25.0986Z" fill="black"/>
<path d="M33.1988 24.3186H32.4263V25.0986H33.1988V24.3186Z" fill="#2D1212"/>
<path d="M33.1988 23.5461H32.4263V24.3186H33.1988V23.5461Z" fill="#2D1212"/>
<path d="M33.1988 22.7649H32.4263V23.5449H33.1988V22.7649Z" fill="#2D1212"/>
<path d="M33.1988 21.9849H32.4263V22.7649H33.1988V21.9849Z" fill="#2D1212"/>
<path d="M33.1988 21.2123H32.4263V21.9848H33.1988V21.2123Z" fill="#2D1212"/>
<path d="M33.1988 20.4311H32.4263V21.2111H33.1988V20.4311Z" fill="black"/>
<path d="M32.425 40.6386H31.645V41.4111H32.425V40.6386Z" fill="#CE0505"/>
<path d="M32.425 39.8599H31.645V40.6399H32.425V39.8599Z" fill="#CE0505"/>
<path d="M32.425 39.0848H31.645V39.8586H32.425V39.0848Z" fill="#CE0505"/>
<path d="M32.425 38.3061H31.645V39.0861H32.425V38.3061Z" fill="#E80C0C"/>
<path d="M32.425 37.5323H31.645V38.3048H32.425V37.5323Z" fill="#E80C0C"/>
<path d="M32.425 36.7524H31.645V37.5324H32.425V36.7524Z" fill="#E80C0C"/>
<path d="M32.425 35.9799H31.645V36.7524H32.425V35.9799Z" fill="black"/>
<path d="M32.425 34.4186H31.645V35.1986H32.425V34.4186Z" fill="black"/>
<path d="M32.425 33.6448H31.645V34.4186H32.425V33.6448Z" fill="black"/>
<path d="M32.425 27.4249H31.645V28.2049H32.425V27.4249Z" fill="black"/>
<path d="M32.425 26.6523H31.645V27.4248H32.425V26.6523Z" fill="black"/>
<path d="M32.425 25.8711H31.645V26.6511H32.425V25.8711Z" fill="black"/>
<path d="M32.425 25.0986H31.645V25.8711H32.425V25.0986Z" fill="black"/>
<path d="M32.425 24.3186H31.645V25.0986H32.425V24.3186Z" fill="black"/>
<path d="M32.425 23.5461H31.645V24.3186H32.425V23.5461Z" fill="#2D1212"/>
<path d="M32.425 22.7649H31.645V23.5449H32.425V22.7649Z" fill="#2D1212"/>
<path d="M32.425 21.9849H31.645V22.7649H32.425V21.9849Z" fill="#2D1212"/>
<path d="M32.425 21.2123H31.645V21.9848H32.425V21.2123Z" fill="#2D1212"/>
<path d="M32.425 20.4311H31.645V21.2111H32.425V20.4311Z" fill="black"/>
<path d="M32.425 18.8774H31.645V19.6574H32.425V18.8774Z" fill="black"/>
<path d="M32.425 18.1049H31.645V18.8774H32.425V18.1049Z" fill="black"/>
<path d="M32.425 17.3249H31.645V18.1049H32.425V17.3249Z" fill="black"/>
<path d="M32.425 16.5436H31.645V17.3236H32.425V16.5436Z" fill="black"/>
<path d="M32.425 15.7711H31.645V16.5436H32.425V15.7711Z" fill="black"/>
<path d="M31.6452 37.5323H30.8652V38.3048H31.6452V37.5323Z" fill="#E80C0C"/>
<path d="M31.6452 36.7524H30.8652V37.5324H31.6452V36.7524Z" fill="#E80C0C"/>
<path d="M31.6452 35.9799H30.8652V36.7524H31.6452V35.9799Z" fill="#FF0000"/>
<path d="M31.6452 35.1986H30.8652V35.9786H31.6452V35.1986Z" fill="black"/>
<path d="M31.6452 34.4186H30.8652V35.1986H31.6452V34.4186Z" fill="#2D1212"/>
<path d="M31.6452 33.6448H30.8652V34.4186H31.6452V33.6448Z" fill="black"/>
<path d="M31.6452 32.8661H30.8652V33.6461H31.6452V32.8661Z" fill="black"/>
<path d="M31.6452 32.0923H30.8652V32.8648H31.6452V32.0923Z" fill="black"/>
<path d="M31.6452 31.3124H30.8652V32.0924H31.6452V31.3124Z" fill="black"/>
<path d="M31.6452 30.5386H30.8652V31.3111H31.6452V30.5386Z" fill="black"/>
<path d="M31.6452 23.5461H30.8652V24.3186H31.6452V23.5461Z" fill="black"/>
<path d="M31.6452 22.7649H30.8652V23.5449H31.6452V22.7649Z" fill="#2D1212"/>
<path d="M31.6452 21.9849H30.8652V22.7649H31.6452V21.9849Z" fill="#2D1212"/>
<path d="M31.6452 21.2123H30.8652V21.9848H31.6452V21.2123Z" fill="#2D1212"/>
<path d="M31.6452 20.4311H30.8652V21.2111H31.6452V20.4311Z" fill="#2D1212"/>
<path d="M31.6452 19.6586H30.8652V20.4311H31.6452V19.6586Z" fill="black"/>
<path d="M31.6452 18.1049H30.8652V18.8774H31.6452V18.1049Z" fill="black"/>
<path d="M31.6452 17.3249H30.8652V18.1049H31.6452V17.3249Z" fill="#2D1212"/>
<path d="M31.6452 16.5436H30.8652V17.3236H31.6452V16.5436Z" fill="#2D1212"/>
<path d="M31.6452 15.7711H30.8652V16.5436H31.6452V15.7711Z" fill="#2D1212"/>
<path d="M31.6452 14.9911H30.8652V15.7711H31.6452V14.9911Z" fill="black"/>
<path d="M31.6452 14.2186H30.8652V14.9911H31.6452V14.2186Z" fill="black"/>
<path d="M30.8653 39.0848H30.0928V39.8586H30.8653V39.0848Z" fill="#C40505"/>
<path d="M30.8653 38.3061H30.0928V39.0861H30.8653V38.3061Z" fill="#CE0505"/>
<path d="M30.8653 37.5323H30.0928V38.3048H30.8653V37.5323Z" fill="#CE0505"/>
<path d="M30.8653 36.7524H30.0928V37.5324H30.8653V36.7524Z" fill="#2D1212"/>
<path d="M30.8653 35.9799H30.0928V36.7524H30.8653V35.9799Z" fill="#2D1212"/>
<path d="M30.8653 35.1986H30.0928V35.9786H30.8653V35.1986Z" fill="#FF0000"/>
<path d="M30.8653 34.4186H30.0928V35.1986H30.8653V34.4186Z" fill="#2D1212"/>
<path d="M30.8653 33.6448H30.0928V34.4186H30.8653V33.6448Z" fill="#2D1212"/>
<path d="M30.8653 32.8661H30.0928V33.6461H30.8653V32.8661Z" fill="#2D1212"/>
<path d="M30.8653 32.0923H30.0928V32.8648H30.8653V32.0923Z" fill="#2D1212"/>
<path d="M30.8653 31.3124H30.0928V32.0924H30.8653V31.3124Z" fill="#2D1212"/>
<path d="M30.8653 30.5386H30.0928V31.3111H30.8653V30.5386Z" fill="#2D1212"/>
<path d="M30.8653 29.7586H30.0928V30.5386H30.8653V29.7586Z" fill="black"/>
<path d="M30.8653 28.9786H30.0928V29.7586H30.8653V28.9786Z" fill="black"/>
<path d="M30.8653 28.2049H30.0928V28.9774H30.8653V28.2049Z" fill="black"/>
<path d="M30.8653 27.4249H30.0928V28.2049H30.8653V27.4249Z" fill="black"/>
<path d="M30.8653 26.6523H30.0928V27.4248H30.8653V26.6523Z" fill="black"/>
<path d="M30.8653 25.8711H30.0928V26.6511H30.8653V25.8711Z" fill="black"/>
<path d="M30.8653 25.0986H30.0928V25.8711H30.8653V25.0986Z" fill="black"/>
<path d="M30.8653 24.3186H30.0928V25.0986H30.8653V24.3186Z" fill="black"/>
<path d="M30.8653 23.5461H30.0928V24.3186H30.8653V23.5461Z" fill="#2D1212"/>
<path d="M30.8653 22.7649H30.0928V23.5449H30.8653V22.7649Z" fill="#2D1212"/>
<path d="M30.8653 21.9849H30.0928V22.7649H30.8653V21.9849Z" fill="#2D1212"/>
<path d="M30.8653 21.2123H30.0928V21.9848H30.8653V21.2123Z" fill="#2D1212"/>
<path d="M30.8653 20.4311H30.0928V21.2111H30.8653V20.4311Z" fill="#2D1212"/>
<path d="M30.8653 19.6586H30.0928V20.4311H30.8653V19.6586Z" fill="#2D1212"/>
<path d="M30.8653 18.8774H30.0928V19.6574H30.8653V18.8774Z" fill="black"/>
<path d="M30.8653 17.3249H30.0928V18.1049H30.8653V17.3249Z" fill="black"/>
<path d="M30.8653 16.5436H30.0928V17.3236H30.8653V16.5436Z" fill="#321E1E"/>
<path d="M30.8653 15.7711H30.0928V16.5436H30.8653V15.7711Z" fill="#321E1E"/>
<path d="M30.8653 14.9911H30.0928V15.7711H30.8653V14.9911Z" fill="#321E1E"/>
<path d="M30.8653 14.2186H30.0928V14.9911H30.8653V14.2186Z" fill="#321E1E"/>
<path d="M30.8653 13.4374H30.0928V14.2174H30.8653V13.4374Z" fill="black"/>
<path d="M30.0915 37.5323H29.3115V38.3048H30.0915V37.5323Z" fill="#C40505"/>
<path d="M30.0915 36.7524H29.3115V37.5324H30.0915V36.7524Z" fill="#321E1E"/>
<path d="M30.0915 35.9799H29.3115V36.7524H30.0915V35.9799Z" fill="#321E1E"/>
<path d="M30.0915 35.1986H29.3115V35.9786H30.0915V35.1986Z" fill="#2D1212"/>
<path d="M30.0915 34.4186H29.3115V35.1986H30.0915V34.4186Z" fill="#321E1E"/>
<path d="M30.0915 33.6448H29.3115V34.4186H30.0915V33.6448Z" fill="#321E1E"/>
<path d="M30.0915 32.8661H29.3115V33.6461H30.0915V32.8661Z" fill="#321E1E"/>
<path d="M30.0915 32.0923H29.3115V32.8648H30.0915V32.0923Z" fill="#321E1E"/>
<path d="M30.0915 31.3124H29.3115V32.0924H30.0915V31.3124Z" fill="#321E1E"/>
<path d="M30.0915 30.5386H29.3115V31.3111H30.0915V30.5386Z" fill="#2D1212"/>
<path d="M30.0915 29.7586H29.3115V30.5386H30.0915V29.7586Z" fill="#2D1212"/>
<path d="M30.0915 28.9786H29.3115V29.7586H30.0915V28.9786Z" fill="#2D1212"/>
<path d="M30.0915 28.2049H29.3115V28.9774H30.0915V28.2049Z" fill="#2D1212"/>
<path d="M30.0915 27.4249H29.3115V28.2049H30.0915V27.4249Z" fill="#2D1212"/>
<path d="M30.0915 26.6523H29.3115V27.4248H30.0915V26.6523Z" fill="#2D1212"/>
<path d="M30.0915 25.8711H29.3115V26.6511H30.0915V25.8711Z" fill="#2D1212"/>
<path d="M30.0915 25.0986H29.3115V25.8711H30.0915V25.0986Z" fill="#2D1212"/>
<path d="M30.0915 24.3186H29.3115V25.0986H30.0915V24.3186Z" fill="#2D1212"/>
<path d="M30.0915 23.5461H29.3115V24.3186H30.0915V23.5461Z" fill="#2D1212"/>
<path d="M30.0915 22.7649H29.3115V23.5449H30.0915V22.7649Z" fill="#321E1E"/>
<path d="M30.0915 21.9849H29.3115V22.7649H30.0915V21.9849Z" fill="#2D1212"/>
<path d="M30.0915 21.2123H29.3115V21.9848H30.0915V21.2123Z" fill="#321E1E"/>
<path d="M30.0915 20.4311H29.3115V21.2111H30.0915V20.4311Z" fill="#2D1212"/>
<path d="M30.0915 19.6586H29.3115V20.4311H30.0915V19.6586Z" fill="#2D1212"/>
<path d="M30.0915 18.8774H29.3115V19.6574H30.0915V18.8774Z" fill="#2D1212"/>
<path d="M30.0915 18.1049H29.3115V18.8774H30.0915V18.1049Z" fill="black"/>
<path d="M30.0915 17.3249H29.3115V18.1049H30.0915V17.3249Z" fill="#321E1E"/>
<path d="M30.0915 16.5436H29.3115V17.3236H30.0915V16.5436Z" fill="#321E1E"/>
<path d="M30.0915 15.7711H29.3115V16.5436H30.0915V15.7711Z" fill="#321E1E"/>
<path d="M30.0915 14.9911H29.3115V15.7711H30.0915V14.9911Z" fill="#321E1E"/>
<path d="M30.0915 14.2186H29.3115V14.9911H30.0915V14.2186Z" fill="#321E1E"/>
<path d="M30.0915 13.4374H29.3115V14.2174H30.0915V13.4374Z" fill="#321E1E"/>
<path d="M30.0915 12.6649H29.3115V13.4374H30.0915V12.6649Z" fill="black"/>
<path d="M29.3116 38.3061H28.5391V39.0861H29.3116V38.3061Z" fill="#C60606"/>
<path d="M29.3116 37.5323H28.5391V38.3048H29.3116V37.5323Z" fill="#CE0505"/>
<path d="M29.3116 36.7524H28.5391V37.5324H29.3116V36.7524Z" fill="#321E1E"/>
<path d="M29.3116 35.9799H28.5391V36.7524H29.3116V35.9799Z" fill="#CE0505"/>
<path d="M29.3116 35.1986H28.5391V35.9786H29.3116V35.1986Z" fill="#E80C0C"/>
<path d="M29.3116 34.4186H28.5391V35.1986H29.3116V34.4186Z" fill="#321E1E"/>
<path d="M29.3116 33.6448H28.5391V34.4186H29.3116V33.6448Z" fill="#321E1E"/>
<path d="M29.3116 32.8661H28.5391V33.6461H29.3116V32.8661Z" fill="#321E1E"/>
<path d="M29.3116 32.0923H28.5391V32.8648H29.3116V32.0923Z" fill="#321E1E"/>
<path d="M29.3116 31.3124H28.5391V32.0924H29.3116V31.3124Z" fill="#321E1E"/>
<path d="M29.3116 30.5386H28.5391V31.3111H29.3116V30.5386Z" fill="#321E1E"/>
<path d="M29.3116 29.7586H28.5391V30.5386H29.3116V29.7586Z" fill="#321E1E"/>
<path d="M29.3116 28.9786H28.5391V29.7586H29.3116V28.9786Z" fill="#321E1E"/>
<path d="M29.3116 28.2049H28.5391V28.9774H29.3116V28.2049Z" fill="#321E1E"/>
<path d="M29.3116 27.4249H28.5391V28.2049H29.3116V27.4249Z" fill="#321E1E"/>
<path d="M29.3116 26.6523H28.5391V27.4248H29.3116V26.6523Z" fill="#321E1E"/>
<path d="M29.3116 25.8711H28.5391V26.6511H29.3116V25.8711Z" fill="#321E1E"/>
<path d="M29.3116 25.0986H28.5391V25.8711H29.3116V25.0986Z" fill="#321E1E"/>
<path d="M29.3116 24.3186H28.5391V25.0986H29.3116V24.3186Z" fill="#321E1E"/>
<path d="M29.3116 23.5461H28.5391V24.3186H29.3116V23.5461Z" fill="#321E1E"/>
<path d="M29.3116 22.7649H28.5391V23.5449H29.3116V22.7649Z" fill="#321E1E"/>
<path d="M29.3116 21.9849H28.5391V22.7649H29.3116V21.9849Z" fill="#321E1E"/>
<path d="M29.3116 21.2123H28.5391V21.9848H29.3116V21.2123Z" fill="#321E1E"/>
<path d="M29.3116 20.4311H28.5391V21.2111H29.3116V20.4311Z" fill="#321E1E"/>
<path d="M29.3116 19.6586H28.5391V20.4311H29.3116V19.6586Z" fill="#2D1212"/>
<path d="M29.3116 18.8774H28.5391V19.6574H29.3116V18.8774Z" fill="#2D1212"/>
<path d="M29.3116 18.1049H28.5391V18.8774H29.3116V18.1049Z" fill="#321E1E"/>
<path d="M29.3116 17.3249H28.5391V18.1049H29.3116V17.3249Z" fill="#321E1E"/>
<path d="M29.3116 16.5436H28.5391V17.3236H29.3116V16.5436Z" fill="#0C0C0C"/>
<path d="M29.3116 15.7711H28.5391V16.5436H29.3116V15.7711Z" fill="#0C0C0C"/>
<path d="M29.3116 14.9911H28.5391V15.7711H29.3116V14.9911Z" fill="#FF0000"/>
<path d="M29.3116 14.2186H28.5391V14.9911H29.3116V14.2186Z" fill="#0C0C0C"/>
<path d="M29.3116 13.4374H28.5391V14.2174H29.3116V13.4374Z" fill="#321E1E"/>
<path d="M29.3116 12.6649H28.5391V13.4374H29.3116V12.6649Z" fill="#321E1E"/>
<path d="M29.3116 11.8849H28.5391V12.6649H29.3116V11.8849Z" fill="black"/>
<path d="M28.5388 39.8599H27.7588V40.6399H28.5388V39.8599Z" fill="#C40505"/>
<path d="M28.5388 39.0848H27.7588V39.8586H28.5388V39.0848Z" fill="#C60606"/>
<path d="M28.5388 38.3061H27.7588V39.0861H28.5388V38.3061Z" fill="#C60606"/>
<path d="M28.5388 37.5323H27.7588V38.3048H28.5388V37.5323Z" fill="#E50000"/>
<path d="M28.5388 36.7524H27.7588V37.5324H28.5388V36.7524Z" fill="#E80C0C"/>
<path d="M28.5388 35.9799H27.7588V36.7524H28.5388V35.9799Z" fill="#E80C0C"/>
<path d="M28.5388 35.1986H27.7588V35.9786H28.5388V35.1986Z" fill="#321E1E"/>
<path d="M28.5388 34.4186H27.7588V35.1986H28.5388V34.4186Z" fill="#321E1E"/>
<path d="M28.5388 33.6448H27.7588V34.4186H28.5388V33.6448Z" fill="#321E1E"/>
<path d="M28.5388 32.8661H27.7588V33.6461H28.5388V32.8661Z" fill="#321E1E"/>
<path d="M28.5388 32.0923H27.7588V32.8648H28.5388V32.0923Z" fill="#321E1E"/>
<path d="M28.5388 31.3124H27.7588V32.0924H28.5388V31.3124Z" fill="#321E1E"/>
<path d="M28.5388 30.5386H27.7588V31.3111H28.5388V30.5386Z" fill="#321E1E"/>
<path d="M28.5388 29.7586H27.7588V30.5386H28.5388V29.7586Z" fill="#321E1E"/>
<path d="M28.5388 28.9786H27.7588V29.7586H28.5388V28.9786Z" fill="#321E1E"/>
<path d="M28.5388 28.2049H27.7588V28.9774H28.5388V28.2049Z" fill="#321E1E"/>
<path d="M28.5388 27.4249H27.7588V28.2049H28.5388V27.4249Z" fill="#321E1E"/>
<path d="M28.5388 26.6523H27.7588V27.4248H28.5388V26.6523Z" fill="#321E1E"/>
<path d="M28.5388 25.8711H27.7588V26.6511H28.5388V25.8711Z" fill="#321E1E"/>
<path d="M28.5388 25.0986H27.7588V25.8711H28.5388V25.0986Z" fill="#321E1E"/>
<path d="M28.5388 24.3186H27.7588V25.0986H28.5388V24.3186Z" fill="#321E1E"/>
<path d="M28.5388 23.5461H27.7588V24.3186H28.5388V23.5461Z" fill="#321E1E"/>
<path d="M28.5388 22.7649H27.7588V23.5449H28.5388V22.7649Z" fill="#321E1E"/>
<path d="M28.5388 21.9849H27.7588V22.7649H28.5388V21.9849Z" fill="#321E1E"/>
<path d="M28.5388 21.2123H27.7588V21.9848H28.5388V21.2123Z" fill="#321E1E"/>
<path d="M28.5388 20.4311H27.7588V21.2111H28.5388V20.4311Z" fill="#321E1E"/>
<path d="M28.5388 19.6586H27.7588V20.4311H28.5388V19.6586Z" fill="#321E1E"/>
<path d="M28.5388 18.8774H27.7588V19.6574H28.5388V18.8774Z" fill="#2D1212"/>
<path d="M28.5388 18.1049H27.7588V18.8774H28.5388V18.1049Z" fill="#321E1E"/>
<path d="M28.5388 17.3249H27.7588V18.1049H28.5388V17.3249Z" fill="#0C0C0C"/>
<path d="M28.5388 16.5436H27.7588V17.3236H28.5388V16.5436Z" fill="#0C0C0C"/>
<path d="M28.5388 15.7711H27.7588V16.5436H28.5388V15.7711Z" fill="#0C0C0C"/>
<path d="M28.5388 14.9911H27.7588V15.7711H28.5388V14.9911Z" fill="#FF0000"/>
<path d="M28.5388 14.2186H27.7588V14.9911H28.5388V14.2186Z" fill="#0C0C0C"/>
<path d="M28.5388 13.4374H27.7588V14.2174H28.5388V13.4374Z" fill="#0C0C0C"/>
<path d="M28.5388 12.6649H27.7588V13.4374H28.5388V12.6649Z" fill="#321E1E"/>
<path d="M28.5388 11.8849H27.7588V12.6649H28.5388V11.8849Z" fill="black"/>
<path d="M28.5388 11.1124H27.7588V11.8849H28.5388V11.1124Z" fill="black"/>
<path d="M27.7588 39.8599H26.9863V40.6399H27.7588V39.8599Z" fill="#C40505"/>
<path d="M27.7588 39.0848H26.9863V39.8586H27.7588V39.0848Z" fill="#E50000"/>
<path d="M27.7588 38.3061H26.9863V39.0861H27.7588V38.3061Z" fill="#E50000"/>
<path d="M27.7588 37.5323H26.9863V38.3048H27.7588V37.5323Z" fill="#E50000"/>
<path d="M27.7588 36.7524H26.9863V37.5324H27.7588V36.7524Z" fill="black"/>
<path d="M27.7588 35.9799H26.9863V36.7524H27.7588V35.9799Z" fill="#E80C0C"/>
<path d="M27.7588 35.1986H26.9863V35.9786H27.7588V35.1986Z" fill="#E80C0C"/>
<path d="M27.7588 34.4186H26.9863V35.1986H27.7588V34.4186Z" fill="#321E1E"/>
<path d="M27.7588 33.6448H26.9863V34.4186H27.7588V33.6448Z" fill="#321E1E"/>
<path d="M27.7588 32.8661H26.9863V33.6461H27.7588V32.8661Z" fill="#321E1E"/>
<path d="M27.7588 32.0923H26.9863V32.8648H27.7588V32.0923Z" fill="#321E1E"/>
<path d="M27.7588 31.3124H26.9863V32.0924H27.7588V31.3124Z" fill="#321E1E"/>
<path d="M27.7588 30.5386H26.9863V31.3111H27.7588V30.5386Z" fill="#321E1E"/>
<path d="M27.7588 29.7586H26.9863V30.5386H27.7588V29.7586Z" fill="#321E1E"/>
<path d="M27.7588 28.9786H26.9863V29.7586H27.7588V28.9786Z" fill="#321E1E"/>
<path d="M27.7588 28.2049H26.9863V28.9774H27.7588V28.2049Z" fill="#321E1E"/>
<path d="M27.7588 27.4249H26.9863V28.2049H27.7588V27.4249Z" fill="#321E1E"/>
<path d="M27.7588 26.6523H26.9863V27.4248H27.7588V26.6523Z" fill="#321E1E"/>
<path d="M27.7588 25.8711H26.9863V26.6511H27.7588V25.8711Z" fill="#321E1E"/>
<path d="M27.7588 25.0986H26.9863V25.8711H27.7588V25.0986Z" fill="#321E1E"/>
<path d="M27.7588 24.3186H26.9863V25.0986H27.7588V24.3186Z" fill="#321E1E"/>
<path d="M27.7588 23.5461H26.9863V24.3186H27.7588V23.5461Z" fill="#321E1E"/>
<path d="M27.7588 22.7649H26.9863V23.5449H27.7588V22.7649Z" fill="#321E1E"/>
<path d="M27.7588 21.9849H26.9863V22.7649H27.7588V21.9849Z" fill="#321E1E"/>
<path d="M27.7588 21.2123H26.9863V21.9848H27.7588V21.2123Z" fill="#321E1E"/>
<path d="M27.7588 20.4311H26.9863V21.2111H27.7588V20.4311Z" fill="#321E1E"/>
<path d="M27.7588 19.6586H26.9863V20.4311H27.7588V19.6586Z" fill="#321E1E"/>
<path d="M27.7588 18.8774H26.9863V19.6574H27.7588V18.8774Z" fill="#2D1212"/>
<path d="M27.7588 18.1049H26.9863V18.8774H27.7588V18.1049Z" fill="#321E1E"/>
<path d="M27.7588 17.3249H26.9863V18.1049H27.7588V17.3249Z" fill="#0C0C0C"/>
<path d="M27.7588 16.5436H26.9863V17.3236H27.7588V16.5436Z" fill="#0C0C0C"/>
<path d="M27.7588 15.7711H26.9863V16.5436H27.7588V15.7711Z" fill="#0C0C0C"/>
<path d="M27.7588 14.9911H26.9863V15.7711H27.7588V14.9911Z" fill="#0C0C0C"/>
<path d="M27.7588 14.2186H26.9863V14.9911H27.7588V14.2186Z" fill="#0C0C0C"/>
<path d="M27.7588 13.4374H26.9863V14.2174H27.7588V13.4374Z" fill="#0C0C0C"/>
<path d="M27.7588 12.6649H26.9863V13.4374H27.7588V12.6649Z" fill="black"/>
<path d="M27.7588 11.8849H26.9863V12.6649H27.7588V11.8849Z" fill="#321E1E"/>
<path d="M27.7588 11.1124H26.9863V11.8849H27.7588V11.1124Z" fill="black"/>
<path d="M26.9851 41.4124H26.2051V42.1924H26.9851V41.4124Z" fill="#C40505"/>
<path d="M26.9851 40.6386H26.2051V41.4111H26.9851V40.6386Z" fill="#C40505"/>
<path d="M26.9851 39.8599H26.2051V40.6399H26.9851V39.8599Z" fill="#E50000"/>
<path d="M26.9851 39.0848H26.2051V39.8586H26.9851V39.0848Z" fill="#E50000"/>
<path d="M26.9851 38.3061H26.2051V39.0861H26.9851V38.3061Z" fill="black"/>
<path d="M26.9851 37.5323H26.2051V38.3048H26.9851V37.5323Z" fill="black"/>
<path d="M26.9851 35.1986H26.2051V35.9786H26.9851V35.1986Z" fill="#2D1212"/>
<path d="M26.9851 34.4186H26.2051V35.1986H26.9851V34.4186Z" fill="#2D1212"/>
<path d="M26.9851 33.6448H26.2051V34.4186H26.9851V33.6448Z" fill="#321E1E"/>
<path d="M26.9851 32.8661H26.2051V33.6461H26.9851V32.8661Z" fill="#321E1E"/>
<path d="M26.9851 32.0923H26.2051V32.8648H26.9851V32.0923Z" fill="#321E1E"/>
<path d="M26.9851 31.3124H26.2051V32.0924H26.9851V31.3124Z" fill="#321E1E"/>
<path d="M26.9851 30.5386H26.2051V31.3111H26.9851V30.5386Z" fill="#321E1E"/>
<path d="M26.9851 29.7586H26.2051V30.5386H26.9851V29.7586Z" fill="#321E1E"/>
<path d="M26.9851 28.9786H26.2051V29.7586H26.9851V28.9786Z" fill="#321E1E"/>
<path d="M26.9851 28.2049H26.2051V28.9774H26.9851V28.2049Z" fill="#321E1E"/>
<path d="M26.9851 27.4249H26.2051V28.2049H26.9851V27.4249Z" fill="#321E1E"/>
<path d="M26.9851 26.6523H26.2051V27.4248H26.9851V26.6523Z" fill="#321E1E"/>
<path d="M26.9851 25.8711H26.2051V26.6511H26.9851V25.8711Z" fill="#321E1E"/>
<path d="M26.9851 25.0986H26.2051V25.8711H26.9851V25.0986Z" fill="#321E1E"/>
<path d="M26.9851 24.3186H26.2051V25.0986H26.9851V24.3186Z" fill="#321E1E"/>
<path d="M26.9851 23.5461H26.2051V24.3186H26.9851V23.5461Z" fill="#321E1E"/>
<path d="M26.9851 22.7649H26.2051V23.5449H26.9851V22.7649Z" fill="#321E1E"/>
<path d="M26.9851 21.9849H26.2051V22.7649H26.9851V21.9849Z" fill="#321E1E"/>
<path d="M26.9851 21.2123H26.2051V21.9848H26.9851V21.2123Z" fill="#321E1E"/>
<path d="M26.9851 20.4311H26.2051V21.2111H26.9851V20.4311Z" fill="#321E1E"/>
<path d="M26.9851 19.6586H26.2051V20.4311H26.9851V19.6586Z" fill="#321E1E"/>
<path d="M26.9851 18.8774H26.2051V19.6574H26.9851V18.8774Z" fill="#2D1212"/>
<path d="M26.9851 18.1049H26.2051V18.8774H26.9851V18.1049Z" fill="#321E1E"/>
<path d="M26.9851 17.3249H26.2051V18.1049H26.9851V17.3249Z" fill="#0C0C0C"/>
<path d="M26.9851 16.5436H26.2051V17.3236H26.9851V16.5436Z" fill="#0C0C0C"/>
<path d="M26.9851 15.7711H26.2051V16.5436H26.9851V15.7711Z" fill="#0C0C0C"/>
<path d="M26.9851 14.9911H26.2051V15.7711H26.9851V14.9911Z" fill="black"/>
<path d="M26.9851 14.2186H26.2051V14.9911H26.9851V14.2186Z" fill="#0C0C0C"/>
<path d="M26.9851 13.4374H26.2051V14.2174H26.9851V13.4374Z" fill="#0C0C0C"/>
<path d="M26.9851 12.6649H26.2051V13.4374H26.9851V12.6649Z" fill="black"/>
<path d="M26.9851 11.8849H26.2051V12.6649H26.9851V11.8849Z" fill="#321E1E"/>
<path d="M26.9851 11.1124H26.2051V11.8849H26.9851V11.1124Z" fill="black"/>
<path d="M26.2051 35.9799H25.4326V36.7524H26.2051V35.9799Z" fill="black"/>
<path d="M26.2051 35.1986H25.4326V35.9786H26.2051V35.1986Z" fill="#2D1212"/>
<path d="M26.2051 34.4186H25.4326V35.1986H26.2051V34.4186Z" fill="#321E1E"/>
<path d="M26.2051 33.6448H25.4326V34.4186H26.2051V33.6448Z" fill="#321E1E"/>
<path d="M26.2051 32.8661H25.4326V33.6461H26.2051V32.8661Z" fill="#321E1E"/>
<path d="M26.2051 32.0923H25.4326V32.8648H26.2051V32.0923Z" fill="#321E1E"/>
<path d="M26.2051 31.3124H25.4326V32.0924H26.2051V31.3124Z" fill="#321E1E"/>
<path d="M26.2051 30.5386H25.4326V31.3111H26.2051V30.5386Z" fill="#321E1E"/>
<path d="M26.2051 29.7586H25.4326V30.5386H26.2051V29.7586Z" fill="#321E1E"/>
<path d="M26.2051 28.9786H25.4326V29.7586H26.2051V28.9786Z" fill="#321E1E"/>
<path d="M26.2051 28.2049H25.4326V28.9774H26.2051V28.2049Z" fill="#321E1E"/>
<path d="M26.2051 27.4249H25.4326V28.2049H26.2051V27.4249Z" fill="#321E1E"/>
<path d="M26.2051 26.6523H25.4326V27.4248H26.2051V26.6523Z" fill="#321E1E"/>
<path d="M26.2051 25.8711H25.4326V26.6511H26.2051V25.8711Z" fill="#321E1E"/>
<path d="M26.2051 25.0986H25.4326V25.8711H26.2051V25.0986Z" fill="#321E1E"/>
<path d="M26.2051 24.3186H25.4326V25.0986H26.2051V24.3186Z" fill="#321E1E"/>
<path d="M26.2051 23.5461H25.4326V24.3186H26.2051V23.5461Z" fill="#321E1E"/>
<path d="M26.2051 22.7649H25.4326V23.5449H26.2051V22.7649Z" fill="#321E1E"/>
<path d="M26.2051 21.9849H25.4326V22.7649H26.2051V21.9849Z" fill="#321E1E"/>
<path d="M26.2051 21.2123H25.4326V21.9848H26.2051V21.2123Z" fill="#321E1E"/>
<path d="M26.2051 20.4311H25.4326V21.2111H26.2051V20.4311Z" fill="#321E1E"/>
<path d="M26.2051 19.6586H25.4326V20.4311H26.2051V19.6586Z" fill="#321E1E"/>
<path d="M26.2051 18.8774H25.4326V19.6574H26.2051V18.8774Z" fill="#2D1212"/>
<path d="M26.2051 18.1049H25.4326V18.8774H26.2051V18.1049Z" fill="black"/>
<path d="M26.2051 17.3249H25.4326V18.1049H26.2051V17.3249Z" fill="#321E1E"/>
<path d="M26.2051 16.5436H25.4326V17.3236H26.2051V16.5436Z" fill="#0C0C0C"/>
<path d="M26.2051 15.7711H25.4326V16.5436H26.2051V15.7711Z" fill="#0C0C0C"/>
<path d="M26.2051 14.9911H25.4326V15.7711H26.2051V14.9911Z" fill="#FF0000"/>
<path d="M26.2051 14.2186H25.4326V14.9911H26.2051V14.2186Z" fill="#0C0C0C"/>
<path d="M26.2051 13.4374H25.4326V14.2174H26.2051V13.4374Z" fill="black"/>
<path d="M26.2051 12.6649H25.4326V13.4374H26.2051V12.6649Z" fill="#321E1E"/>
<path d="M26.2051 11.8849H25.4326V12.6649H26.2051V11.8849Z" fill="black"/>
<path d="M25.4314 39.8599H24.6514V40.6399H25.4314V39.8599Z" fill="#CE0505"/>
<path d="M25.4314 39.0848H24.6514V39.8586H25.4314V39.0848Z" fill="#CE0505"/>
<path d="M25.4314 38.3061H24.6514V39.0861H25.4314V38.3061Z" fill="#CE0505"/>
<path d="M25.4314 37.5323H24.6514V38.3048H25.4314V37.5323Z" fill="black"/>
<path d="M25.4314 36.7524H24.6514V37.5324H25.4314V36.7524Z" fill="black"/>
<path d="M25.4314 35.9799H24.6514V36.7524H25.4314V35.9799Z" fill="#2D1212"/>
<path d="M25.4314 35.1986H24.6514V35.9786H25.4314V35.1986Z" fill="#E80C0C"/>
<path d="M25.4314 34.4186H24.6514V35.1986H25.4314V34.4186Z" fill="#E80C0C"/>
<path d="M25.4314 33.6448H24.6514V34.4186H25.4314V33.6448Z" fill="#321E1E"/>
<path d="M25.4314 32.8661H24.6514V33.6461H25.4314V32.8661Z" fill="#321E1E"/>
<path d="M25.4314 32.0923H24.6514V32.8648H25.4314V32.0923Z" fill="#321E1E"/>
<path d="M25.4314 31.3124H24.6514V32.0924H25.4314V31.3124Z" fill="#321E1E"/>
<path d="M25.4314 30.5386H24.6514V31.3111H25.4314V30.5386Z" fill="#321E1E"/>
<path d="M25.4314 29.7586H24.6514V30.5386H25.4314V29.7586Z" fill="#321E1E"/>
<path d="M25.4314 28.9786H24.6514V29.7586H25.4314V28.9786Z" fill="#321E1E"/>
<path d="M25.4314 28.2049H24.6514V28.9774H25.4314V28.2049Z" fill="#321E1E"/>
<path d="M25.4314 27.4249H24.6514V28.2049H25.4314V27.4249Z" fill="#321E1E"/>
<path d="M25.4314 26.6523H24.6514V27.4248H25.4314V26.6523Z" fill="#321E1E"/>
<path d="M25.4314 25.8711H24.6514V26.6511H25.4314V25.8711Z" fill="#321E1E"/>
<path d="M25.4314 25.0986H24.6514V25.8711H25.4314V25.0986Z" fill="#321E1E"/>
<path d="M25.4314 24.3186H24.6514V25.0986H25.4314V24.3186Z" fill="#321E1E"/>
<path d="M25.4314 23.5461H24.6514V24.3186H25.4314V23.5461Z" fill="#321E1E"/>
<path d="M25.4314 22.7649H24.6514V23.5449H25.4314V22.7649Z" fill="#321E1E"/>
<path d="M25.4314 21.9849H24.6514V22.7649H25.4314V21.9849Z" fill="#321E1E"/>
<path d="M25.4314 21.2123H24.6514V21.9848H25.4314V21.2123Z" fill="#2D1212"/>
<path d="M25.4314 20.4311H24.6514V21.2111H25.4314V20.4311Z" fill="#2D1212"/>
<path d="M25.4314 19.6586H24.6514V20.4311H25.4314V19.6586Z" fill="#2D1212"/>
<path d="M25.4314 18.8774H24.6514V19.6574H25.4314V18.8774Z" fill="black"/>
<path d="M25.4314 17.3249H24.6514V18.1049H25.4314V17.3249Z" fill="black"/>
<path d="M25.4314 16.5436H24.6514V17.3236H25.4314V16.5436Z" fill="#321E1E"/>
<path d="M25.4314 15.7711H24.6514V16.5436H25.4314V15.7711Z" fill="#321E1E"/>
<path d="M25.4314 14.9911H24.6514V15.7711H25.4314V14.9911Z" fill="#321E1E"/>
<path d="M25.4314 14.2186H24.6514V14.9911H25.4314V14.2186Z" fill="#321E1E"/>
<path d="M25.4314 13.4374H24.6514V14.2174H25.4314V13.4374Z" fill="#321E1E"/>
<path d="M25.4314 12.6649H24.6514V13.4374H25.4314V12.6649Z" fill="black"/>
<path d="M25.4314 11.8849H24.6514V12.6649H25.4314V11.8849Z" fill="black"/>
<path d="M24.6516 38.3061H23.8716V39.0861H24.6516V38.3061Z" fill="#CE0505"/>
<path d="M24.6516 37.5323H23.8716V38.3048H24.6516V37.5323Z" fill="#2D1212"/>
<path d="M24.6516 36.7524H23.8716V37.5324H24.6516V36.7524Z" fill="#2D1212"/>
<path d="M24.6516 35.9799H23.8716V36.7524H24.6516V35.9799Z" fill="#E80C0C"/>
<path d="M24.6516 35.1986H23.8716V35.9786H24.6516V35.1986Z" fill="#E80C0C"/>
<path d="M24.6516 34.4186H23.8716V35.1986H24.6516V34.4186Z" fill="#321E1E"/>
<path d="M24.6516 33.6448H23.8716V34.4186H24.6516V33.6448Z" fill="#321E1E"/>
<path d="M24.6516 32.8661H23.8716V33.6461H24.6516V32.8661Z" fill="#321E1E"/>
<path d="M24.6516 32.0923H23.8716V32.8648H24.6516V32.0923Z" fill="black"/>
<path d="M24.6516 31.3124H23.8716V32.0924H24.6516V31.3124Z" fill="black"/>
<path d="M24.6516 30.5386H23.8716V31.3111H24.6516V30.5386Z" fill="black"/>
<path d="M24.6516 29.7586H23.8716V30.5386H24.6516V29.7586Z" fill="#2D1212"/>
<path d="M24.6516 28.9786H23.8716V29.7586H24.6516V28.9786Z" fill="#2D1212"/>
<path d="M24.6516 28.2049H23.8716V28.9774H24.6516V28.2049Z" fill="#2D1212"/>
<path d="M24.6516 27.4249H23.8716V28.2049H24.6516V27.4249Z" fill="#2D1212"/>
<path d="M24.6516 26.6523H23.8716V27.4248H24.6516V26.6523Z" fill="#2D1212"/>
<path d="M24.6516 25.8711H23.8716V26.6511H24.6516V25.8711Z" fill="#2D1212"/>
<path d="M24.6516 25.0986H23.8716V25.8711H24.6516V25.0986Z" fill="#2D1212"/>
<path d="M24.6516 24.3186H23.8716V25.0986H24.6516V24.3186Z" fill="#2D1212"/>
<path d="M24.6516 23.5461H23.8716V24.3186H24.6516V23.5461Z" fill="#2D1212"/>
<path d="M24.6516 22.7649H23.8716V23.5449H24.6516V22.7649Z" fill="#2D1212"/>
<path d="M24.6516 21.9849H23.8716V22.7649H24.6516V21.9849Z" fill="#2D1212"/>
<path d="M24.6516 21.2123H23.8716V21.9848H24.6516V21.2123Z" fill="#2D1212"/>
<path d="M24.6516 20.4311H23.8716V21.2111H24.6516V20.4311Z" fill="#2D1212"/>
<path d="M24.6516 19.6586H23.8716V20.4311H24.6516V19.6586Z" fill="black"/>
<path d="M24.6516 16.5436H23.8716V17.3236H24.6516V16.5436Z" fill="black"/>
<path d="M24.6516 15.7711H23.8716V16.5436H24.6516V15.7711Z" fill="black"/>
<path d="M24.6516 14.9911H23.8716V15.7711H24.6516V14.9911Z" fill="black"/>
<path d="M24.6516 14.2186H23.8716V14.9911H24.6516V14.2186Z" fill="black"/>
<path d="M24.6516 13.4374H23.8716V14.2174H24.6516V13.4374Z" fill="black"/>
<path d="M23.8716 39.0848H23.0991V39.8586H23.8716V39.0848Z" fill="#CE0505"/>
<path d="M23.8716 38.3061H23.0991V39.0861H23.8716V38.3061Z" fill="#C60606"/>
<path d="M23.8716 37.5323H23.0991V38.3048H23.8716V37.5323Z" fill="#C60606"/>
<path d="M23.8716 36.7524H23.0991V37.5324H23.8716V36.7524Z" fill="#E80C0C"/>
<path d="M23.8716 35.9799H23.0991V36.7524H23.8716V35.9799Z" fill="#E80C0C"/>
<path d="M23.8716 35.1986H23.0991V35.9786H23.8716V35.1986Z" fill="#E80C0C"/>
<path d="M23.8716 34.4186H23.0991V35.1986H23.8716V34.4186Z" fill="#E80C0C"/>
<path d="M23.8716 33.6448H23.0991V34.4186H23.8716V33.6448Z" fill="black"/>
<path d="M23.8716 32.8661H23.0991V33.6461H23.8716V32.8661Z" fill="black"/>
<path d="M23.8716 32.0923H23.0991V32.8648H23.8716V32.0923Z" fill="black"/>
<path d="M23.8716 30.5386H23.0991V31.3111H23.8716V30.5386Z" fill="black"/>
<path d="M23.8716 29.7586H23.0991V30.5386H23.8716V29.7586Z" fill="black"/>
<path d="M23.8716 28.9786H23.0991V29.7586H23.8716V28.9786Z" fill="black"/>
<path d="M23.8716 28.2049H23.0991V28.9774H23.8716V28.2049Z" fill="black"/>
<path d="M23.8716 27.4249H23.0991V28.2049H23.8716V27.4249Z" fill="black"/>
<path d="M23.8716 26.6523H23.0991V27.4248H23.8716V26.6523Z" fill="black"/>
<path d="M23.8716 25.8711H23.0991V26.6511H23.8716V25.8711Z" fill="black"/>
<path d="M23.8716 25.0986H23.0991V25.8711H23.8716V25.0986Z" fill="#2D1212"/>
<path d="M23.8716 24.3186H23.0991V25.0986H23.8716V24.3186Z" fill="#2D1212"/>
<path d="M23.8716 23.5461H23.0991V24.3186H23.8716V23.5461Z" fill="#2D1212"/>
<path d="M23.8716 22.7649H23.0991V23.5449H23.8716V22.7649Z" fill="#2D1212"/>
<path d="M23.8716 21.9849H23.0991V22.7649H23.8716V21.9849Z" fill="#2D1212"/>
<path d="M23.8716 21.2123H23.0991V21.9848H23.8716V21.2123Z" fill="#2D1212"/>
<path d="M23.8716 20.4311H23.0991V21.2111H23.8716V20.4311Z" fill="black"/>
<path d="M23.0979 39.8599H22.3179V40.6399H23.0979V39.8599Z" fill="#C60606"/>
<path d="M23.0979 39.0848H22.3179V39.8586H23.0979V39.0848Z" fill="#C60606"/>
<path d="M23.0979 38.3061H22.3179V39.0861H23.0979V38.3061Z" fill="#C60606"/>
<path d="M23.0979 37.5323H22.3179V38.3048H23.0979V37.5323Z" fill="#C60606"/>
<path d="M23.0979 36.7524H22.3179V37.5324H23.0979V36.7524Z" fill="#C60606"/>
<path d="M23.0979 35.9799H22.3179V36.7524H23.0979V35.9799Z" fill="#C60606"/>
<path d="M23.0979 25.0986H22.3179V25.8711H23.0979V25.0986Z" fill="black"/>
<path d="M23.0979 24.3186H22.3179V25.0986H23.0979V24.3186Z" fill="#2D1212"/>
<path d="M23.0979 23.5461H22.3179V24.3186H23.0979V23.5461Z" fill="#2D1212"/>
<path d="M23.0979 22.7649H22.3179V23.5449H23.0979V22.7649Z" fill="#2D1212"/>
<path d="M23.0979 21.9849H22.3179V22.7649H23.0979V21.9849Z" fill="#2D1212"/>
<path d="M23.0979 21.2123H22.3179V21.9848H23.0979V21.2123Z" fill="#2D1212"/>
<path d="M23.0979 20.4311H22.3179V21.2111H23.0979V20.4311Z" fill="black"/>
<path d="M22.3179 27.4249H21.5454V28.2049H22.3179V27.4249Z" fill="black"/>
<path d="M22.3179 26.6523H21.5454V27.4248H22.3179V26.6523Z" fill="black"/>
<path d="M22.3179 25.8711H21.5454V26.6511H22.3179V25.8711Z" fill="black"/>
<path d="M22.3179 25.0986H21.5454V25.8711H22.3179V25.0986Z" fill="#2D1212"/>
<path d="M22.3179 24.3186H21.5454V25.0986H22.3179V24.3186Z" fill="#2D1212"/>
<path d="M22.3179 23.5461H21.5454V24.3186H22.3179V23.5461Z" fill="#2D1212"/>
<path d="M22.3179 22.7649H21.5454V23.5449H22.3179V22.7649Z" fill="#301918"/>
<path d="M22.3179 21.9849H21.5454V22.7649H22.3179V21.9849Z" fill="black"/>
<path d="M22.3179 21.2123H21.5454V21.9848H22.3179V21.2123Z" fill="black"/>
<path d="M21.5451 25.8711H20.7651V26.6511H21.5451V25.8711Z" fill="black"/>
<path d="M21.5451 25.0986H20.7651V25.8711H21.5451V25.0986Z" fill="black"/>
<path d="M21.5451 24.3186H20.7651V25.0986H21.5451V24.3186Z" fill="#2D1212"/>
<path d="M21.5451 23.5461H20.7651V24.3186H21.5451V23.5461Z" fill="#301918"/>
<path d="M21.5451 22.7649H20.7651V23.5449H21.5451V22.7649Z" fill="#301918"/>
<path d="M21.5451 21.9849H20.7651V22.7649H21.5451V21.9849Z" fill="black"/>
<path d="M20.7652 25.0986H19.9927V25.8711H20.7652V25.0986Z" fill="black"/>
<path d="M20.7652 24.3186H19.9927V25.0986H20.7652V24.3186Z" fill="#301918"/>
<path d="M20.7652 23.5461H19.9927V24.3186H20.7652V23.5461Z" fill="#301918"/>
<path d="M20.7652 22.7649H19.9927V23.5449H20.7652V22.7649Z" fill="#301918"/>
<path d="M20.7652 21.9849H19.9927V22.7649H20.7652V21.9849Z" fill="black"/>
<path d="M19.9914 27.4249H19.2114V28.2049H19.9914V27.4249Z" fill="black"/>
<path d="M19.9914 26.6523H19.2114V27.4248H19.9914V26.6523Z" fill="black"/>
<path d="M19.9914 25.8711H19.2114V26.6511H19.9914V25.8711Z" fill="black"/>
<path d="M19.9914 25.0986H19.2114V25.8711H19.9914V25.0986Z" fill="#301918"/>
<path d="M19.9914 24.3186H19.2114V25.0986H19.9914V24.3186Z" fill="#301918"/>
<path d="M19.9914 23.5461H19.2114V24.3186H19.9914V23.5461Z" fill="#301918"/>
<path d="M19.9914 22.7649H19.2114V23.5449H19.9914V22.7649Z" fill="black"/>
<path d="M19.2116 25.0986H18.4316V25.8711H19.2116V25.0986Z" fill="black"/>
<path d="M19.2116 24.3186H18.4316V25.0986H19.2116V24.3186Z" fill="#301918"/>
<path d="M19.2116 23.5461H18.4316V24.3186H19.2116V23.5461Z" fill="#301918"/>
<path d="M19.2116 22.7649H18.4316V23.5449H19.2116V22.7649Z" fill="#301918"/>
<path d="M19.2116 21.9849H18.4316V22.7649H19.2116V21.9849Z" fill="black"/>
<path d="M18.4317 24.3186H17.6592V25.0986H18.4317V24.3186Z" fill="black"/>
<path d="M18.4317 23.5461H17.6592V24.3186H18.4317V23.5461Z" fill="#301918"/>
<path d="M18.4317 22.7649H17.6592V23.5449H18.4317V22.7649Z" fill="#301918"/>
<path d="M18.4317 21.9849H17.6592V22.7649H18.4317V21.9849Z" fill="black"/>
<path d="M18.4317 21.2123H17.6592V21.9848H18.4317V21.2123Z" fill="black"/>
<path d="M18.4317 14.9911H17.6592V15.7711H18.4317V14.9911Z" fill="#939393"/>
<path d="M18.4317 14.2186H17.6592V14.9911H18.4317V14.2186Z" fill="#939393"/>
<path d="M18.4317 13.4374H17.6592V14.2174H18.4317V13.4374Z" fill="#939393"/>
<path d="M17.6579 24.3186H16.8779V25.0986H17.6579V24.3186Z" fill="black"/>
<path d="M17.6579 23.5461H16.8779V24.3186H17.6579V23.5461Z" fill="black"/>
<path d="M17.6579 22.7649H16.8779V23.5449H17.6579V22.7649Z" fill="black"/>
<path d="M17.6579 21.9849H16.8779V22.7649H17.6579V21.9849Z" fill="black"/>
<path d="M17.6579 15.7711H16.8779V16.5436H17.6579V15.7711Z" fill="#939393"/>
<path d="M17.6579 14.9911H16.8779V15.7711H17.6579V14.9911Z" fill="#A7A7A8"/>
<path d="M17.6579 14.2186H16.8779V14.9911H17.6579V14.2186Z" fill="#FF0000"/>
<path d="M17.6579 13.4374H16.8779V14.2174H17.6579V13.4374Z" fill="black"/>
<path d="M17.6579 12.6649H16.8779V13.4374H17.6579V12.6649Z" fill="#939393"/>
<path d="M16.878 35.9799H16.1055V36.7524H16.878V35.9799Z" fill="#E50000"/>
<path d="M16.878 35.1986H16.1055V35.9786H16.878V35.1986Z" fill="#E50000"/>
<path d="M16.878 34.4186H16.1055V35.1986H16.878V34.4186Z" fill="#E50000"/>
<path d="M16.878 33.6448H16.1055V34.4186H16.878V33.6448Z" fill="#E50000"/>
<path d="M16.878 32.8661H16.1055V33.6461H16.878V32.8661Z" fill="#E50000"/>
<path d="M16.878 32.0923H16.1055V32.8648H16.878V32.0923Z" fill="#7A370A"/>
<path d="M16.878 31.3124H16.1055V32.0924H16.878V31.3124Z" fill="#7A370A"/>
<path d="M16.878 30.5386H16.1055V31.3111H16.878V30.5386Z" fill="#7A370A"/>
<path d="M16.878 29.7586H16.1055V30.5386H16.878V29.7586Z" fill="#7A370A"/>
<path d="M16.878 28.9786H16.1055V29.7586H16.878V28.9786Z" fill="#E50000"/>
<path d="M16.878 28.2049H16.1055V28.9774H16.878V28.2049Z" fill="#E50000"/>
<path d="M16.878 27.4249H16.1055V28.2049H16.878V27.4249Z" fill="#7A370A"/>
<path d="M16.878 26.6523H16.1055V27.4248H16.878V26.6523Z" fill="#7A370A"/>
<path d="M16.878 25.8711H16.1055V26.6511H16.878V25.8711Z" fill="#7A370A"/>
<path d="M16.878 25.0986H16.1055V25.8711H16.878V25.0986Z" fill="#7A370A"/>
<path d="M16.878 24.3186H16.1055V25.0986H16.878V24.3186Z" fill="#293D4C"/>
<path d="M16.878 23.5461H16.1055V24.3186H16.878V23.5461Z" fill="#293D4C"/>
<path d="M16.878 22.7649H16.1055V23.5449H16.878V22.7649Z" fill="#7A370A"/>
<path d="M16.878 21.9849H16.1055V22.7649H16.878V21.9849Z" fill="#293D4C"/>
<path d="M16.878 21.2123H16.1055V21.9848H16.878V21.2123Z" fill="#E50000"/>
<path d="M16.878 20.4311H16.1055V21.2111H16.878V20.4311Z" fill="#7A370A"/>
<path d="M16.878 19.6586H16.1055V20.4311H16.878V19.6586Z" fill="#7A370A"/>
<path d="M16.878 18.8774H16.1055V19.6574H16.878V18.8774Z" fill="#7A370A"/>
<path d="M16.878 18.1049H16.1055V18.8774H16.878V18.1049Z" fill="#7A370A"/>
<path d="M16.878 17.3249H16.1055V18.1049H16.878V17.3249Z" fill="#7A370A"/>
<path d="M16.878 16.5436H16.1055V17.3236H16.878V16.5436Z" fill="#E50000"/>
<path d="M16.878 15.7711H16.1055V16.5436H16.878V15.7711Z" fill="#E50000"/>
<path d="M16.878 14.9911H16.1055V15.7711H16.878V14.9911Z" fill="black"/>
<path d="M16.878 14.2186H16.1055V14.9911H16.878V14.2186Z" fill="#A7A7A8"/>
<path d="M16.878 13.4374H16.1055V14.2174H16.878V13.4374Z" fill="#A7A7A8"/>
<path d="M16.878 12.6649H16.1055V13.4374H16.878V12.6649Z" fill="#A7A7A8"/>
<path d="M16.878 11.8849H16.1055V12.6649H16.878V11.8849Z" fill="#FF0000"/>
<path d="M16.1052 38.3061H15.3252V39.0861H16.1052V38.3061Z" fill="#E50000"/>
<path d="M16.1052 36.7524H15.3252V37.5324H16.1052V36.7524Z" fill="#E50000"/>
<path d="M16.1052 35.9799H15.3252V36.7524H16.1052V35.9799Z" fill="#E50000"/>
<path d="M16.1052 35.1986H15.3252V35.9786H16.1052V35.1986Z" fill="#E50000"/>
<path d="M16.1052 34.4186H15.3252V35.1986H16.1052V34.4186Z" fill="#E50000"/>
<path d="M16.1052 33.6448H15.3252V34.4186H16.1052V33.6448Z" fill="#7A370A"/>
<path d="M16.1052 32.8661H15.3252V33.6461H16.1052V32.8661Z" fill="#7A370A"/>
<path d="M16.1052 32.0923H15.3252V32.8648H16.1052V32.0923Z" fill="#7A370A"/>
<path d="M16.1052 31.3124H15.3252V32.0924H16.1052V31.3124Z" fill="#7A370A"/>
<path d="M16.1052 30.5386H15.3252V31.3111H16.1052V30.5386Z" fill="#7A370A"/>
<path d="M16.1052 29.7586H15.3252V30.5386H16.1052V29.7586Z" fill="#E50000"/>
<path d="M16.1052 28.9786H15.3252V29.7586H16.1052V28.9786Z" fill="#E50000"/>
<path d="M16.1052 28.2049H15.3252V28.9774H16.1052V28.2049Z" fill="#7A370A"/>
<path d="M16.1052 27.4249H15.3252V28.2049H16.1052V27.4249Z" fill="#7A370A"/>
<path d="M16.1052 26.6523H15.3252V27.4248H16.1052V26.6523Z" fill="#7A370A"/>
<path d="M16.1052 25.8711H15.3252V26.6511H16.1052V25.8711Z" fill="#7A370A"/>
<path d="M16.1052 25.0986H15.3252V25.8711H16.1052V25.0986Z" fill="black"/>
<path d="M16.1052 24.3186H15.3252V25.0986H16.1052V24.3186Z" fill="#293D4C"/>
<path d="M16.1052 23.5461H15.3252V24.3186H16.1052V23.5461Z" fill="#293D4C"/>
<path d="M16.1052 22.7649H15.3252V23.5449H16.1052V22.7649Z" fill="#293D4C"/>
<path d="M16.1052 21.9849H15.3252V22.7649H16.1052V21.9849Z" fill="#293D4C"/>
<path d="M16.1052 21.2123H15.3252V21.9848H16.1052V21.2123Z" fill="black"/>
<path d="M16.1052 20.4311H15.3252V21.2111H16.1052V20.4311Z" fill="#E50000"/>
<path d="M16.1052 19.6586H15.3252V20.4311H16.1052V19.6586Z" fill="#7A370A"/>
<path d="M16.1052 18.8774H15.3252V19.6574H16.1052V18.8774Z" fill="#7A370A"/>
<path d="M16.1052 18.1049H15.3252V18.8774H16.1052V18.1049Z" fill="#7A370A"/>
<path d="M16.1052 17.3249H15.3252V18.1049H16.1052V17.3249Z" fill="#7A370A"/>
<path d="M16.1052 16.5436H15.3252V17.3236H16.1052V16.5436Z" fill="#939393"/>
<path d="M16.1052 15.7711H15.3252V16.5436H16.1052V15.7711Z" fill="#A7A7A8"/>
<path d="M16.1052 14.9911H15.3252V15.7711H16.1052V14.9911Z" fill="black"/>
<path d="M16.1052 14.2186H15.3252V14.9911H16.1052V14.2186Z" fill="#A7A7A8"/>
<path d="M16.1052 13.4374H15.3252V14.2174H16.1052V13.4374Z" fill="#A7A7A8"/>
<path d="M16.1052 12.6649H15.3252V13.4374H16.1052V12.6649Z" fill="#A7A7A8"/>
<path d="M16.1052 11.8849H15.3252V12.6649H16.1052V11.8849Z" fill="#FF0000"/>
<path d="M15.3238 24.3186H14.5513V25.0986H15.3238V24.3186Z" fill="#455360"/>
<path d="M15.3238 23.5461H14.5513V24.3186H15.3238V23.5461Z" fill="#455360"/>
<path d="M15.3238 22.7649H14.5513V23.5449H15.3238V22.7649Z" fill="#455360"/>
<path d="M15.3238 21.9849H14.5513V22.7649H15.3238V21.9849Z" fill="#455360"/>
<path d="M15.3238 15.7711H14.5513V16.5436H15.3238V15.7711Z" fill="#939393"/>
<path d="M15.3238 14.9911H14.5513V15.7711H15.3238V14.9911Z" fill="#A7A7A8"/>
<path d="M15.3238 14.2186H14.5513V14.9911H15.3238V14.2186Z" fill="#A7A7A8"/>
<path d="M15.3238 13.4374H14.5513V14.2174H15.3238V13.4374Z" fill="black"/>
<path d="M15.3238 12.6649H14.5513V13.4374H15.3238V12.6649Z" fill="#939393"/>
<path d="M14.5515 14.9911H13.7715V15.7711H14.5515V14.9911Z" fill="#939393"/>
<path d="M14.5515 14.2186H13.7715V14.9911H14.5515V14.2186Z" fill="#939393"/>
<path d="M14.5515 13.4374H13.7715V14.2174H14.5515V13.4374Z" fill="#939393"/>
</g>
<defs>
<clipPath id="clip0_69_12155">
<rect width="50" height="50" fill="white" transform="translate(0 0.942383)"/>
</clipPath>
</defs>
</svg>
