<svg width="50" height="51" viewBox="0 0 50 51" fill="none" xmlns="http://www.w3.org/2000/svg">
<g clip-path="url(#clip0_69_12156)">
<path d="M48.2223 25.9424C48.2223 38.7674 37.8248 49.1649 24.9998 49.1649C12.1748 49.1649 1.77734 38.7674 1.77734 25.9424C1.77734 13.1174 12.1736 2.71991 24.9998 2.71991C37.8261 2.71991 48.2223 13.1174 48.2223 25.9424Z" fill="black"/>
<path d="M24.9998 50.0399C11.7123 50.0399 0.902344 39.2299 0.902344 25.9424C0.902344 12.6549 11.7123 1.84491 24.9998 1.84491C38.2873 1.84491 49.0973 12.6549 49.0973 25.9424C49.0973 39.2299 38.2873 50.0399 24.9998 50.0399ZM24.9998 3.59491C12.6773 3.59491 2.65234 13.6199 2.65234 25.9424C2.65234 38.2649 12.6773 48.2899 24.9998 48.2899C37.3223 48.2899 47.3473 38.2649 47.3473 25.9424C47.3473 13.6199 37.3223 3.59491 24.9998 3.59491Z" fill="#B5A518"/>
<path d="M38.0574 19.1649H37.1699V20.0524H38.0574V19.1649Z" fill="black"/>
<path d="M38.0574 18.2686H37.1699V19.1649H38.0574V18.2686Z" fill="black"/>
<path d="M38.0574 17.3724H37.1699V18.2686H38.0574V17.3724Z" fill="black"/>
<path d="M38.0574 16.4849H37.1699V17.3724H38.0574V16.4849Z" fill="black"/>
<path d="M38.0574 15.5911H37.1699V16.4874H38.0574V15.5911Z" fill="black"/>
<path d="M38.0574 14.7036H37.1699V15.5911H38.0574V14.7036Z" fill="black"/>
<path d="M38.0574 12.0236H37.1699V12.9199H38.0574V12.0236Z" fill="black"/>
<path d="M37.1702 22.7311H36.2739V23.6186H37.1702V22.7311Z" fill="black"/>
<path d="M37.1702 21.8349H36.2739V22.7311H37.1702V21.8349Z" fill="black"/>
<path d="M37.1702 20.9474H36.2739V21.8349H37.1702V20.9474Z" fill="black"/>
<path d="M37.1702 20.0511H36.2739V20.9474H37.1702V20.0511Z" fill="black"/>
<path d="M37.1702 19.1649H36.2739V20.0524H37.1702V19.1649Z" fill="#3D3D3B"/>
<path d="M37.1702 18.2686H36.2739V19.1649H37.1702V18.2686Z" fill="#3D3D3B"/>
<path d="M37.1702 17.3724H36.2739V18.2686H37.1702V17.3724Z" fill="#3D3D3B"/>
<path d="M37.1702 16.4849H36.2739V17.3724H37.1702V16.4849Z" fill="#3D3D3B"/>
<path d="M37.1702 15.5911H36.2739V16.4874H37.1702V15.5911Z" fill="#3D3D3B"/>
<path d="M37.1702 14.7036H36.2739V15.5911H37.1702V14.7036Z" fill="#3D3D3B"/>
<path d="M37.1702 13.8074H36.2739V14.7036H37.1702V13.8074Z" fill="black"/>
<path d="M37.1702 12.9199H36.2739V13.8074H37.1702V12.9199Z" fill="black"/>
<path d="M37.1702 12.0236H36.2739V12.9199H37.1702V12.0236Z" fill="#3D3D3B"/>
<path d="M37.1702 11.1374H36.2739V12.0249H37.1702V11.1374Z" fill="black"/>
<path d="M36.2762 24.5124H35.3887V25.4086H36.2762V24.5124Z" fill="black"/>
<path d="M36.2762 23.6161H35.3887V24.5124H36.2762V23.6161Z" fill="black"/>
<path d="M36.2762 22.7311H35.3887V23.6186H36.2762V22.7311Z" fill="#3D3D3B"/>
<path d="M36.2762 21.8349H35.3887V22.7311H36.2762V21.8349Z" fill="#3D3D3B"/>
<path d="M36.2762 20.9474H35.3887V21.8349H36.2762V20.9474Z" fill="#3D3D3B"/>
<path d="M36.2762 20.0511H35.3887V20.9474H36.2762V20.0511Z" fill="#3D3D3B"/>
<path d="M36.2762 19.1649H35.3887V20.0524H36.2762V19.1649Z" fill="#2B2B2A"/>
<path d="M36.2762 18.2686H35.3887V19.1649H36.2762V18.2686Z" fill="#2B2B2A"/>
<path d="M36.2762 17.3724H35.3887V18.2686H36.2762V17.3724Z" fill="#2B2B2A"/>
<path d="M36.2762 16.4849H35.3887V17.3724H36.2762V16.4849Z" fill="#2B2B2A"/>
<path d="M36.2762 15.5911H35.3887V16.4874H36.2762V15.5911Z" fill="#2B2B2A"/>
<path d="M36.2762 14.7036H35.3887V15.5911H36.2762V14.7036Z" fill="#2B2B2A"/>
<path d="M36.2762 13.8074H35.3887V14.7036H36.2762V13.8074Z" fill="#3D3D3B"/>
<path d="M36.2762 12.9199H35.3887V13.8074H36.2762V12.9199Z" fill="#3D3D3B"/>
<path d="M36.2762 12.0236H35.3887V12.9199H36.2762V12.0236Z" fill="#2B2B2A"/>
<path d="M36.2762 11.1374H35.3887V12.0249H36.2762V11.1374Z" fill="black"/>
<path d="M35.3889 26.2961H34.4927V27.1924H35.3889V26.2961Z" fill="black"/>
<path d="M35.3889 25.4086H34.4927V26.2961H35.3889V25.4086Z" fill="black"/>
<path d="M35.3889 24.5124H34.4927V25.4086H35.3889V24.5124Z" fill="#3D3D3B"/>
<path d="M35.3889 23.6161H34.4927V24.5124H35.3889V23.6161Z" fill="#2B2B2A"/>
<path d="M35.3889 22.7311H34.4927V23.6186H35.3889V22.7311Z" fill="#2B2B2A"/>
<path d="M35.3889 21.8349H34.4927V22.7311H35.3889V21.8349Z" fill="#2B2B2A"/>
<path d="M35.3889 20.9474H34.4927V21.8349H35.3889V20.9474Z" fill="#2B2B2A"/>
<path d="M35.3889 20.0511H34.4927V20.9474H35.3889V20.0511Z" fill="#2B2B2A"/>
<path d="M35.3889 13.8074H34.4927V14.7036H35.3889V13.8074Z" fill="#2B2B2A"/>
<path d="M35.3889 12.9199H34.4927V13.8074H35.3889V12.9199Z" fill="#2B2B2A"/>
<path d="M35.3889 12.0236H34.4927V12.9199H35.3889V12.0236Z" fill="#8A8D8E"/>
<path d="M34.4924 28.0786H33.5962V28.9749H34.4924V28.0786Z" fill="black"/>
<path d="M34.4924 27.1924H33.5962V28.0799H34.4924V27.1924Z" fill="black"/>
<path d="M34.4924 26.2961H33.5962V27.1924H34.4924V26.2961Z" fill="#3D3D3B"/>
<path d="M34.4924 25.4086H33.5962V26.2961H34.4924V25.4086Z" fill="#2B2B2A"/>
<path d="M34.4924 24.5124H33.5962V25.4086H34.4924V24.5124Z" fill="#2B2B2A"/>
<path d="M34.4924 12.9199H33.5962V13.8074H34.4924V12.9199Z" fill="#8A8D8E"/>
<path d="M33.5965 28.9749H32.709V29.8624H33.5965V28.9749Z" fill="black"/>
<path d="M33.5965 28.0786H32.709V28.9749H33.5965V28.0786Z" fill="#DD8976"/>
<path d="M33.5965 27.1924H32.709V28.0799H33.5965V27.1924Z" fill="#DD8976"/>
<path d="M33.5965 26.2961H32.709V27.1924H33.5965V26.2961Z" fill="#2B2B2A"/>
<path d="M33.5965 13.8074H32.709V14.7036H33.5965V13.8074Z" fill="#8A8D8E"/>
<path d="M32.7088 29.8624H31.8125V30.7586H32.7088V29.8624Z" fill="black"/>
<path d="M32.7088 28.9749H31.8125V29.8624H32.7088V28.9749Z" fill="#DD8976"/>
<path d="M32.7088 28.0786H31.8125V28.9749H32.7088V28.0786Z" fill="#DD8976"/>
<path d="M32.7088 27.1924H31.8125V28.0799H32.7088V27.1924Z" fill="#F7AB94"/>
<path d="M32.7088 26.2961H31.8125V27.1924H32.7088V26.2961Z" fill="black"/>
<path d="M32.7088 25.4086H31.8125V26.2961H32.7088V25.4086Z" fill="black"/>
<path d="M32.7088 24.5124H31.8125V25.4086H32.7088V24.5124Z" fill="black"/>
<path d="M32.7088 14.7036H31.8125V15.5911H32.7088V14.7036Z" fill="#8A8D8E"/>
<path d="M31.8138 41.4636H30.9263V42.3511H31.8138V41.4636Z" fill="black"/>
<path d="M31.8138 40.5674H30.9263V41.4636H31.8138V40.5674Z" fill="black"/>
<path d="M31.8138 29.8624H30.9263V30.7586H31.8138V29.8624Z" fill="black"/>
<path d="M31.8138 28.9749H30.9263V29.8624H31.8138V28.9749Z" fill="#F7AB94"/>
<path d="M31.8138 28.0786H30.9263V28.9749H31.8138V28.0786Z" fill="#F7AB94"/>
<path d="M31.8138 27.1924H30.9263V28.0799H31.8138V27.1924Z" fill="#373801"/>
<path d="M31.8138 26.2961H30.9263V27.1924H31.8138V26.2961Z" fill="#373801"/>
<path d="M31.8138 25.4086H30.9263V26.2961H31.8138V25.4086Z" fill="#373801"/>
<path d="M31.8138 24.5124H30.9263V25.4086H31.8138V24.5124Z" fill="#373801"/>
<path d="M31.8138 23.6161H30.9263V24.5124H31.8138V23.6161Z" fill="black"/>
<path d="M31.8138 22.7311H30.9263V23.6186H31.8138V22.7311Z" fill="black"/>
<path d="M31.8138 21.8349H30.9263V22.7311H31.8138V21.8349Z" fill="black"/>
<path d="M31.8138 20.9474H30.9263V21.8349H31.8138V20.9474Z" fill="black"/>
<path d="M31.8138 20.0511H30.9263V20.9474H31.8138V20.0511Z" fill="black"/>
<path d="M31.8138 15.5911H30.9263V16.4874H31.8138V15.5911Z" fill="#8A8D8E"/>
<path d="M30.926 41.4636H30.0298V42.3511H30.926V41.4636Z" fill="black"/>
<path d="M30.926 40.5674H30.0298V41.4636H30.926V40.5674Z" fill="#660801"/>
<path d="M30.926 39.6812H30.0298V40.5687H30.926V39.6812Z" fill="black"/>
<path d="M30.926 34.3236H30.0298V35.2199H30.926V34.3236Z" fill="black"/>
<path d="M30.926 33.4362H30.0298V34.3237H30.926V33.4362Z" fill="black"/>
<path d="M30.926 32.5399H30.0298V33.4361H30.926V32.5399Z" fill="black"/>
<path d="M30.926 30.7574H30.0298V31.6449H30.926V30.7574Z" fill="black"/>
<path d="M30.926 29.8624H30.0298V30.7586H30.926V29.8624Z" fill="#3D3D3B"/>
<path d="M30.926 28.9749H30.0298V29.8624H30.926V28.9749Z" fill="black"/>
<path d="M30.926 28.0786H30.0298V28.9749H30.926V28.0786Z" fill="#373801"/>
<path d="M30.926 27.1924H30.0298V28.0799H30.926V27.1924Z" fill="#373801"/>
<path d="M30.926 26.2961H30.0298V27.1924H30.926V26.2961Z" fill="#373801"/>
<path d="M30.926 25.4086H30.0298V26.2961H30.926V25.4086Z" fill="#5C6302"/>
<path d="M30.926 24.5124H30.0298V25.4086H30.926V24.5124Z" fill="#5C6302"/>
<path d="M30.926 23.6161H30.0298V24.5124H30.926V23.6161Z" fill="#5C6302"/>
<path d="M30.926 22.7311H30.0298V23.6186H30.926V22.7311Z" fill="#5C6302"/>
<path d="M30.926 21.8349H30.0298V22.7311H30.926V21.8349Z" fill="black"/>
<path d="M30.926 20.9474H30.0298V21.8349H30.926V20.9474Z" fill="#2B2B2A"/>
<path d="M30.926 20.0511H30.0298V20.9474H30.926V20.0511Z" fill="#2B2B2A"/>
<path d="M30.926 19.1649H30.0298V20.0524H30.926V19.1649Z" fill="black"/>
<path d="M30.926 18.2686H30.0298V19.1649H30.926V18.2686Z" fill="black"/>
<path d="M30.926 16.4849H30.0298V17.3724H30.926V16.4849Z" fill="#8A8D8E"/>
<path d="M30.0301 41.4636H29.1426V42.3511H30.0301V41.4636Z" fill="black"/>
<path d="M30.0301 40.5674H29.1426V41.4636H30.0301V40.5674Z" fill="#660801"/>
<path d="M30.0301 39.6812H29.1426V40.5687H30.0301V39.6812Z" fill="#3F1401"/>
<path d="M30.0301 38.7849H29.1426V39.6812H30.0301V38.7849Z" fill="black"/>
<path d="M30.0301 37.8886H29.1426V38.7849H30.0301V37.8886Z" fill="black"/>
<path d="M30.0301 37.0024H29.1426V37.8899H30.0301V37.0024Z" fill="black"/>
<path d="M30.0301 36.1061H29.1426V37.0024H30.0301V36.1061Z" fill="black"/>
<path d="M30.0301 35.2199H29.1426V36.1074H30.0301V35.2199Z" fill="black"/>
<path d="M30.0301 34.3236H29.1426V35.2199H30.0301V34.3236Z" fill="#2B2B2A"/>
<path d="M30.0301 33.4362H29.1426V34.3237H30.0301V33.4362Z" fill="#2B2B2A"/>
<path d="M30.0301 32.5399H29.1426V33.4361H30.0301V32.5399Z" fill="#2B2B2A"/>
<path d="M30.0301 31.6436H29.1426V32.5399H30.0301V31.6436Z" fill="black"/>
<path d="M30.0301 30.7574H29.1426V31.6449H30.0301V30.7574Z" fill="black"/>
<path d="M30.0301 29.8624H29.1426V30.7586H30.0301V29.8624Z" fill="#3D3D3B"/>
<path d="M30.0301 28.9749H29.1426V29.8624H30.0301V28.9749Z" fill="#2B2B2A"/>
<path d="M30.0301 28.0786H29.1426V28.9749H30.0301V28.0786Z" fill="black"/>
<path d="M30.0301 27.1924H29.1426V28.0799H30.0301V27.1924Z" fill="#373801"/>
<path d="M30.0301 26.2961H29.1426V27.1924H30.0301V26.2961Z" fill="#5C6302"/>
<path d="M30.0301 25.4086H29.1426V26.2961H30.0301V25.4086Z" fill="#5C6302"/>
<path d="M30.0301 24.5124H29.1426V25.4086H30.0301V24.5124Z" fill="#5C6302"/>
<path d="M30.0301 23.6161H29.1426V24.5124H30.0301V23.6161Z" fill="#5C6302"/>
<path d="M30.0301 22.7311H29.1426V23.6186H30.0301V22.7311Z" fill="black"/>
<path d="M30.0301 21.8349H29.1426V22.7311H30.0301V21.8349Z" fill="#3D3D3B"/>
<path d="M30.0301 20.9474H29.1426V21.8349H30.0301V20.9474Z" fill="#2B2B2A"/>
<path d="M30.0301 20.0511H29.1426V20.9474H30.0301V20.0511Z" fill="#2B2B2A"/>
<path d="M30.0301 19.1649H29.1426V20.0524H30.0301V19.1649Z" fill="#3D3D3B"/>
<path d="M30.0301 18.2686H29.1426V19.1649H30.0301V18.2686Z" fill="black"/>
<path d="M30.0301 17.3724H29.1426V18.2686H30.0301V17.3724Z" fill="#8A8D8E"/>
<path d="M30.0301 16.4849H29.1426V17.3724H30.0301V16.4849Z" fill="black"/>
<path d="M30.0301 15.5911H29.1426V16.4874H30.0301V15.5911Z" fill="black"/>
<path d="M30.0301 12.9199H29.1426V13.8074H30.0301V12.9199Z" fill="black"/>
<path d="M30.0301 12.0236H29.1426V12.9199H30.0301V12.0236Z" fill="black"/>
<path d="M30.0301 11.1374H29.1426V12.0249H30.0301V11.1374Z" fill="black"/>
<path d="M29.1438 41.4636H28.2476V42.3511H29.1438V41.4636Z" fill="black"/>
<path d="M29.1438 40.5674H28.2476V41.4636H29.1438V40.5674Z" fill="#5B1E00"/>
<path d="M29.1438 39.6812H28.2476V40.5687H29.1438V39.6812Z" fill="#3F1401"/>
<path d="M29.1438 38.7849H28.2476V39.6812H29.1438V38.7849Z" fill="#3F1401"/>
<path d="M29.1438 37.8886H28.2476V38.7849H29.1438V37.8886Z" fill="#3F1401"/>
<path d="M29.1438 37.0024H28.2476V37.8899H29.1438V37.0024Z" fill="#3F1401"/>
<path d="M29.1438 36.1061H28.2476V37.0024H29.1438V36.1061Z" fill="#3F1401"/>
<path d="M29.1438 35.2199H28.2476V36.1074H29.1438V35.2199Z" fill="black"/>
<path d="M29.1438 34.3236H28.2476V35.2199H29.1438V34.3236Z" fill="#B5A518"/>
<path d="M29.1438 33.4362H28.2476V34.3237H29.1438V33.4362Z" fill="#2B2B2A"/>
<path d="M29.1438 32.5399H28.2476V33.4361H29.1438V32.5399Z" fill="#2B2B2A"/>
<path d="M29.1438 31.6436H28.2476V32.5399H29.1438V31.6436Z" fill="#2B2B2A"/>
<path d="M29.1438 30.7574H28.2476V31.6449H29.1438V30.7574Z" fill="black"/>
<path d="M29.1438 29.8624H28.2476V30.7586H29.1438V29.8624Z" fill="black"/>
<path d="M29.1438 28.9749H28.2476V29.8624H29.1438V28.9749Z" fill="black"/>
<path d="M29.1438 28.0786H28.2476V28.9749H29.1438V28.0786Z" fill="black"/>
<path d="M29.1438 27.1924H28.2476V28.0799H29.1438V27.1924Z" fill="black"/>
<path d="M29.1438 26.2961H28.2476V27.1924H29.1438V26.2961Z" fill="black"/>
<path d="M29.1438 25.4086H28.2476V26.2961H29.1438V25.4086Z" fill="black"/>
<path d="M29.1438 24.5124H28.2476V25.4086H29.1438V24.5124Z" fill="black"/>
<path d="M29.1438 23.6161H28.2476V24.5124H29.1438V23.6161Z" fill="black"/>
<path d="M29.1438 22.7311H28.2476V23.6186H29.1438V22.7311Z" fill="#373801"/>
<path d="M29.1438 21.8349H28.2476V22.7311H29.1438V21.8349Z" fill="black"/>
<path d="M29.1438 20.9474H28.2476V21.8349H29.1438V20.9474Z" fill="black"/>
<path d="M29.1438 20.0511H28.2476V20.9474H29.1438V20.0511Z" fill="#2B2B2A"/>
<path d="M29.1438 19.1649H28.2476V20.0524H29.1438V19.1649Z" fill="#2B2B2A"/>
<path d="M29.1438 18.2686H28.2476V19.1649H29.1438V18.2686Z" fill="#3D3D3B"/>
<path d="M29.1438 17.3724H28.2476V18.2686H29.1438V17.3724Z" fill="black"/>
<path d="M29.1438 16.4849H28.2476V17.3724H29.1438V16.4849Z" fill="black"/>
<path d="M29.1438 15.5911H28.2476V16.4874H29.1438V15.5911Z" fill="#2B2B2A"/>
<path d="M29.1438 14.7036H28.2476V15.5911H29.1438V14.7036Z" fill="black"/>
<path d="M29.1438 13.8074H28.2476V14.7036H29.1438V13.8074Z" fill="black"/>
<path d="M29.1438 12.9199H28.2476V13.8074H29.1438V12.9199Z" fill="#2B2B2A"/>
<path d="M29.1438 12.0236H28.2476V12.9199H29.1438V12.0236Z" fill="#2B2B2A"/>
<path d="M29.1438 11.1374H28.2476V12.0249H29.1438V11.1374Z" fill="black"/>
<path d="M28.2473 41.4636H27.3511V42.3511H28.2473V41.4636Z" fill="black"/>
<path d="M28.2473 40.5674H27.3511V41.4636H28.2473V40.5674Z" fill="#5B1E00"/>
<path d="M28.2473 39.6812H27.3511V40.5687H28.2473V39.6812Z" fill="#660801"/>
<path d="M28.2473 38.7849H27.3511V39.6812H28.2473V38.7849Z" fill="#660801"/>
<path d="M28.2473 37.8886H27.3511V38.7849H28.2473V37.8886Z" fill="#660801"/>
<path d="M28.2473 37.0024H27.3511V37.8899H28.2473V37.0024Z" fill="#3F1401"/>
<path d="M28.2473 36.1061H27.3511V37.0024H28.2473V36.1061Z" fill="#5B1E00"/>
<path d="M28.2473 35.2199H27.3511V36.1074H28.2473V35.2199Z" fill="black"/>
<path d="M28.2473 34.3236H27.3511V35.2199H28.2473V34.3236Z" fill="#B5A518"/>
<path d="M28.2473 33.4362H27.3511V34.3237H28.2473V33.4362Z" fill="#B5A518"/>
<path d="M28.2473 32.5399H27.3511V33.4361H28.2473V32.5399Z" fill="#2B2B2A"/>
<path d="M28.2473 31.6436H27.3511V32.5399H28.2473V31.6436Z" fill="#3D3D3B"/>
<path d="M28.2473 30.7574H27.3511V31.6449H28.2473V30.7574Z" fill="#2B2B2A"/>
<path d="M28.2473 29.8624H27.3511V30.7586H28.2473V29.8624Z" fill="black"/>
<path d="M28.2473 28.9749H27.3511V29.8624H28.2473V28.9749Z" fill="#373801"/>
<path d="M28.2473 28.0786H27.3511V28.9749H28.2473V28.0786Z" fill="#373801"/>
<path d="M28.2473 27.1924H27.3511V28.0799H28.2473V27.1924Z" fill="#5C6302"/>
<path d="M28.2473 26.2961H27.3511V27.1924H28.2473V26.2961Z" fill="#5C6302"/>
<path d="M28.2473 25.4086H27.3511V26.2961H28.2473V25.4086Z" fill="#5C6302"/>
<path d="M28.2473 24.5124H27.3511V25.4086H28.2473V24.5124Z" fill="#373801"/>
<path d="M28.2473 23.6161H27.3511V24.5124H28.2473V23.6161Z" fill="#373801"/>
<path d="M28.2473 22.7311H27.3511V23.6186H28.2473V22.7311Z" fill="#373801"/>
<path d="M28.2473 21.8349H27.3511V22.7311H28.2473V21.8349Z" fill="#2B2B2A"/>
<path d="M28.2473 20.9474H27.3511V21.8349H28.2473V20.9474Z" fill="#3D3D3B"/>
<path d="M28.2473 20.0511H27.3511V20.9474H28.2473V20.0511Z" fill="black"/>
<path d="M28.2473 19.1649H27.3511V20.0524H28.2473V19.1649Z" fill="#2B2B2A"/>
<path d="M28.2473 18.2686H27.3511V19.1649H28.2473V18.2686Z" fill="black"/>
<path d="M28.2473 17.3724H27.3511V18.2686H28.2473V17.3724Z" fill="#2B2B2A"/>
<path d="M28.2473 16.4849H27.3511V17.3724H28.2473V16.4849Z" fill="#2B2B2A"/>
<path d="M28.2473 15.5911H27.3511V16.4874H28.2473V15.5911Z" fill="#2B2B2A"/>
<path d="M28.2473 14.7036H27.3511V15.5911H28.2473V14.7036Z" fill="#2B2B2A"/>
<path d="M28.2473 13.8074H27.3511V14.7036H28.2473V13.8074Z" fill="#2B2B2A"/>
<path d="M28.2473 12.9199H27.3511V13.8074H28.2473V12.9199Z" fill="#2B2B2A"/>
<path d="M28.2473 12.0236H27.3511V12.9199H28.2473V12.0236Z" fill="#2B2B2A"/>
<path d="M28.2473 11.1374H27.3511V12.0249H28.2473V11.1374Z" fill="black"/>
<path d="M27.3523 41.4636H26.4648V42.3511H27.3523V41.4636Z" fill="black"/>
<path d="M27.3523 40.5674H26.4648V41.4636H27.3523V40.5674Z" fill="#5B1E00"/>
<path d="M27.3523 39.6812H26.4648V40.5687H27.3523V39.6812Z" fill="#5B1E00"/>
<path d="M27.3523 38.7849H26.4648V39.6812H27.3523V38.7849Z" fill="#660801"/>
<path d="M27.3523 37.8886H26.4648V38.7849H27.3523V37.8886Z" fill="#5B1E00"/>
<path d="M27.3523 37.0024H26.4648V37.8899H27.3523V37.0024Z" fill="#5B1E00"/>
<path d="M27.3523 36.1061H26.4648V37.0024H27.3523V36.1061Z" fill="#5B1E00"/>
<path d="M27.3523 35.2199H26.4648V36.1074H27.3523V35.2199Z" fill="black"/>
<path d="M27.3523 34.3236H26.4648V35.2199H27.3523V34.3236Z" fill="#B5A518"/>
<path d="M27.3523 33.4362H26.4648V34.3237H27.3523V33.4362Z" fill="#B5A518"/>
<path d="M27.3523 32.5399H26.4648V33.4361H27.3523V32.5399Z" fill="#B5A518"/>
<path d="M27.3523 31.6436H26.4648V32.5399H27.3523V31.6436Z" fill="#3D3D3B"/>
<path d="M27.3523 30.7574H26.4648V31.6449H27.3523V30.7574Z" fill="#3D3D3B"/>
<path d="M27.3523 29.8624H26.4648V30.7586H27.3523V29.8624Z" fill="#373801"/>
<path d="M27.3523 28.9749H26.4648V29.8624H27.3523V28.9749Z" fill="#373801"/>
<path d="M27.3523 28.0786H26.4648V28.9749H27.3523V28.0786Z" fill="#373801"/>
<path d="M27.3523 27.1924H26.4648V28.0799H27.3523V27.1924Z" fill="#5C6302"/>
<path d="M27.3523 26.2961H26.4648V27.1924H27.3523V26.2961Z" fill="#5C6302"/>
<path d="M27.3523 25.4086H26.4648V26.2961H27.3523V25.4086Z" fill="#5C6302"/>
<path d="M27.3523 24.5124H26.4648V25.4086H27.3523V24.5124Z" fill="#5C6302"/>
<path d="M27.3523 23.6161H26.4648V24.5124H27.3523V23.6161Z" fill="#373801"/>
<path d="M27.3523 22.7311H26.4648V23.6186H27.3523V22.7311Z" fill="#373801"/>
<path d="M27.3523 21.8349H26.4648V22.7311H27.3523V21.8349Z" fill="#2B2B2A"/>
<path d="M27.3523 20.9474H26.4648V21.8349H27.3523V20.9474Z" fill="#2B2B2A"/>
<path d="M27.3523 20.0511H26.4648V20.9474H27.3523V20.0511Z" fill="#2B2B2A"/>
<path d="M27.3523 19.1649H26.4648V20.0524H27.3523V19.1649Z" fill="#2B2B2A"/>
<path d="M27.3523 18.2686H26.4648V19.1649H27.3523V18.2686Z" fill="black"/>
<path d="M27.3523 17.3724H26.4648V18.2686H27.3523V17.3724Z" fill="#2B2B2A"/>
<path d="M27.3523 16.4849H26.4648V17.3724H27.3523V16.4849Z" fill="#2B2B2A"/>
<path d="M27.3523 15.5911H26.4648V16.4874H27.3523V15.5911Z" fill="#2B2B2A"/>
<path d="M27.3523 14.7036H26.4648V15.5911H27.3523V14.7036Z" fill="#2B2B2A"/>
<path d="M27.3523 13.8074H26.4648V14.7036H27.3523V13.8074Z" fill="#2B2B2A"/>
<path d="M27.3523 12.9199H26.4648V13.8074H27.3523V12.9199Z" fill="#2B2B2A"/>
<path d="M27.3523 12.0236H26.4648V12.9199H27.3523V12.0236Z" fill="#2B2B2A"/>
<path d="M27.3523 11.1374H26.4648V12.0249H27.3523V11.1374Z" fill="black"/>
<path d="M26.4651 40.5674H25.5688V41.4636H26.4651V40.5674Z" fill="black"/>
<path d="M26.4651 39.6812H25.5688V40.5687H26.4651V39.6812Z" fill="black"/>
<path d="M26.4651 38.7849H25.5688V39.6812H26.4651V38.7849Z" fill="black"/>
<path d="M26.4651 37.8886H25.5688V38.7849H26.4651V37.8886Z" fill="black"/>
<path d="M26.4651 37.0024H25.5688V37.8899H26.4651V37.0024Z" fill="black"/>
<path d="M26.4651 36.1061H25.5688V37.0024H26.4651V36.1061Z" fill="black"/>
<path d="M26.4651 35.2199H25.5688V36.1074H26.4651V35.2199Z" fill="black"/>
<path d="M26.4651 34.3236H25.5688V35.2199H26.4651V34.3236Z" fill="black"/>
<path d="M26.4651 33.4362H25.5688V34.3237H26.4651V33.4362Z" fill="black"/>
<path d="M26.4651 32.5399H25.5688V33.4361H26.4651V32.5399Z" fill="#B5A518"/>
<path d="M26.4651 31.6436H25.5688V32.5399H26.4651V31.6436Z" fill="#B5A518"/>
<path d="M26.4651 30.7574H25.5688V31.6449H26.4651V30.7574Z" fill="#B5A518"/>
<path d="M26.4651 29.8624H25.5688V30.7586H26.4651V29.8624Z" fill="#373801"/>
<path d="M26.4651 28.9749H25.5688V29.8624H26.4651V28.9749Z" fill="#B5A518"/>
<path d="M26.4651 28.0786H25.5688V28.9749H26.4651V28.0786Z" fill="#5C6302"/>
<path d="M26.4651 27.1924H25.5688V28.0799H26.4651V27.1924Z" fill="#5C6302"/>
<path d="M26.4651 26.2961H25.5688V27.1924H26.4651V26.2961Z" fill="#5C6302"/>
<path d="M26.4651 25.4086H25.5688V26.2961H26.4651V25.4086Z" fill="#5C6302"/>
<path d="M26.4651 24.5124H25.5688V25.4086H26.4651V24.5124Z" fill="#5C6302"/>
<path d="M26.4651 23.6161H25.5688V24.5124H26.4651V23.6161Z" fill="#B5A518"/>
<path d="M26.4651 22.7311H25.5688V23.6186H26.4651V22.7311Z" fill="#B5A518"/>
<path d="M26.4651 21.8349H25.5688V22.7311H26.4651V21.8349Z" fill="#3D3D3B"/>
<path d="M26.4651 20.9474H25.5688V21.8349H26.4651V20.9474Z" fill="#2B2B2A"/>
<path d="M26.4651 20.0511H25.5688V20.9474H26.4651V20.0511Z" fill="#3D3D3B"/>
<path d="M26.4651 19.1649H25.5688V20.0524H26.4651V19.1649Z" fill="black"/>
<path d="M26.4651 18.2686H25.5688V19.1649H26.4651V18.2686Z" fill="#F7AB94"/>
<path d="M26.4651 17.3724H25.5688V18.2686H26.4651V17.3724Z" fill="#F7AB94"/>
<path d="M26.4651 16.4849H25.5688V17.3724H26.4651V16.4849Z" fill="#F7AB94"/>
<path d="M26.4651 15.5911H25.5688V16.4874H26.4651V15.5911Z" fill="#F7AB94"/>
<path d="M26.4651 14.7036H25.5688V15.5911H26.4651V14.7036Z" fill="#2B2B2A"/>
<path d="M26.4651 13.8074H25.5688V14.7036H26.4651V13.8074Z" fill="#2B2B2A"/>
<path d="M26.4651 12.9199H25.5688V13.8074H26.4651V12.9199Z" fill="#2B2B2A"/>
<path d="M26.4651 12.0236H25.5688V12.9199H26.4651V12.0236Z" fill="#3D3D3B"/>
<path d="M26.4651 11.1374H25.5688V12.0249H26.4651V11.1374Z" fill="black"/>
<path d="M25.5687 34.3236H24.6812V35.2199H25.5687V34.3236Z" fill="black"/>
<path d="M25.5687 33.4362H24.6812V34.3237H25.5687V33.4362Z" fill="black"/>
<path d="M25.5687 32.5399H24.6812V33.4361H25.5687V32.5399Z" fill="black"/>
<path d="M25.5687 31.6436H24.6812V32.5399H25.5687V31.6436Z" fill="black"/>
<path d="M25.5687 30.7574H24.6812V31.6449H25.5687V30.7574Z" fill="black"/>
<path d="M25.5687 29.8624H24.6812V30.7586H25.5687V29.8624Z" fill="#373801"/>
<path d="M25.5687 28.9749H24.6812V29.8624H25.5687V28.9749Z" fill="#B5A518"/>
<path d="M25.5687 28.0786H24.6812V28.9749H25.5687V28.0786Z" fill="#B5A518"/>
<path d="M25.5687 27.1924H24.6812V28.0799H25.5687V27.1924Z" fill="#5C6302"/>
<path d="M25.5687 26.2961H24.6812V27.1924H25.5687V26.2961Z" fill="#5C6302"/>
<path d="M25.5687 25.4086H24.6812V26.2961H25.5687V25.4086Z" fill="#B5A518"/>
<path d="M25.5687 24.5124H24.6812V25.4086H25.5687V24.5124Z" fill="#B5A518"/>
<path d="M25.5687 23.6161H24.6812V24.5124H25.5687V23.6161Z" fill="#5C6302"/>
<path d="M25.5687 22.7311H24.6812V23.6186H25.5687V22.7311Z" fill="#2B2B2A"/>
<path d="M25.5687 21.8349H24.6812V22.7311H25.5687V21.8349Z" fill="#3D3D3B"/>
<path d="M25.5687 20.9474H24.6812V21.8349H25.5687V20.9474Z" fill="#3D3D3B"/>
<path d="M25.5687 20.0511H24.6812V20.9474H25.5687V20.0511Z" fill="#3D3D3B"/>
<path d="M25.5687 19.1649H24.6812V20.0524H25.5687V19.1649Z" fill="black"/>
<path d="M25.5687 18.2686H24.6812V19.1649H25.5687V18.2686Z" fill="#F7AB94"/>
<path d="M25.5687 17.3724H24.6812V18.2686H25.5687V17.3724Z" fill="#F7AB94"/>
<path d="M25.5687 16.4849H24.6812V17.3724H25.5687V16.4849Z" fill="#F7AB94"/>
<path d="M25.5687 15.5911H24.6812V16.4874H25.5687V15.5911Z" fill="#F7AB94"/>
<path d="M25.5687 14.7036H24.6812V15.5911H25.5687V14.7036Z" fill="#F7AB94"/>
<path d="M25.5687 13.8074H24.6812V14.7036H25.5687V13.8074Z" fill="#2B2B2A"/>
<path d="M25.5687 12.9199H24.6812V13.8074H25.5687V12.9199Z" fill="#3D3D3B"/>
<path d="M25.5687 12.0236H24.6812V12.9199H25.5687V12.0236Z" fill="#3D3D3B"/>
<path d="M25.5687 11.1374H24.6812V12.0249H25.5687V11.1374Z" fill="black"/>
<path d="M24.6814 37.0024H23.7852V37.8899H24.6814V37.0024Z" fill="black"/>
<path d="M24.6814 36.1061H23.7852V37.0024H24.6814V36.1061Z" fill="black"/>
<path d="M24.6814 35.2199H23.7852V36.1074H24.6814V35.2199Z" fill="black"/>
<path d="M24.6814 34.3236H23.7852V35.2199H24.6814V34.3236Z" fill="#B5A518"/>
<path d="M24.6814 33.4362H23.7852V34.3237H24.6814V33.4362Z" fill="#B5A518"/>
<path d="M24.6814 32.5399H23.7852V33.4361H24.6814V32.5399Z" fill="#2B2B2A"/>
<path d="M24.6814 31.6436H23.7852V32.5399H24.6814V31.6436Z" fill="#2B2B2A"/>
<path d="M24.6814 30.7574H23.7852V31.6449H24.6814V30.7574Z" fill="#2B2B2A"/>
<path d="M24.6814 29.8624H23.7852V30.7586H24.6814V29.8624Z" fill="black"/>
<path d="M24.6814 28.9749H23.7852V29.8624H24.6814V28.9749Z" fill="#373801"/>
<path d="M24.6814 28.0786H23.7852V28.9749H24.6814V28.0786Z" fill="#B5A518"/>
<path d="M24.6814 27.1924H23.7852V28.0799H24.6814V27.1924Z" fill="#B5A518"/>
<path d="M24.6814 26.2961H23.7852V27.1924H24.6814V26.2961Z" fill="#5C6302"/>
<path d="M24.6814 25.4086H23.7852V26.2961H24.6814V25.4086Z" fill="#B5A518"/>
<path d="M24.6814 24.5124H23.7852V25.4086H24.6814V24.5124Z" fill="#B5A518"/>
<path d="M24.6814 23.6161H23.7852V24.5124H24.6814V23.6161Z" fill="#5C6302"/>
<path d="M24.6814 22.7311H23.7852V23.6186H24.6814V22.7311Z" fill="#2B2B2A"/>
<path d="M24.6814 21.8349H23.7852V22.7311H24.6814V21.8349Z" fill="#3D3D3B"/>
<path d="M24.6814 20.9474H23.7852V21.8349H24.6814V20.9474Z" fill="#3D3D3B"/>
<path d="M24.6814 20.0511H23.7852V20.9474H24.6814V20.0511Z" fill="#3D3D3B"/>
<path d="M24.6814 19.1649H23.7852V20.0524H24.6814V19.1649Z" fill="black"/>
<path d="M24.6814 18.2686H23.7852V19.1649H24.6814V18.2686Z" fill="#F7AB94"/>
<path d="M24.6814 17.3724H23.7852V18.2686H24.6814V17.3724Z" fill="#F7AB94"/>
<path d="M24.6814 16.4849H23.7852V17.3724H24.6814V16.4849Z" fill="#F7AB94"/>
<path d="M24.6814 15.5911H23.7852V16.4874H24.6814V15.5911Z" fill="#F7AB94"/>
<path d="M24.6814 14.7036H23.7852V15.5911H24.6814V14.7036Z" fill="#F7AB94"/>
<path d="M24.6814 13.8074H23.7852V14.7036H24.6814V13.8074Z" fill="#3D3D3B"/>
<path d="M24.6814 12.9199H23.7852V13.8074H24.6814V12.9199Z" fill="#3D3D3B"/>
<path d="M24.6814 12.0236H23.7852V12.9199H24.6814V12.0236Z" fill="#3D3D3B"/>
<path d="M24.6814 11.1374H23.7852V12.0249H24.6814V11.1374Z" fill="black"/>
<path d="M23.7864 39.6812H22.8989V40.5687H23.7864V39.6812Z" fill="black"/>
<path d="M23.7864 38.7849H22.8989V39.6812H23.7864V38.7849Z" fill="black"/>
<path d="M23.7864 37.8886H22.8989V38.7849H23.7864V37.8886Z" fill="black"/>
<path d="M23.7864 37.0024H22.8989V37.8899H23.7864V37.0024Z" fill="#3F1401"/>
<path d="M23.7864 36.1061H22.8989V37.0024H23.7864V36.1061Z" fill="#3F1401"/>
<path d="M23.7864 35.2199H22.8989V36.1074H23.7864V35.2199Z" fill="black"/>
<path d="M23.7864 34.3236H22.8989V35.2199H23.7864V34.3236Z" fill="#B5A518"/>
<path d="M23.7864 33.4362H22.8989V34.3237H23.7864V33.4362Z" fill="#2B2B2A"/>
<path d="M23.7864 32.5399H22.8989V33.4361H23.7864V32.5399Z" fill="#2B2B2A"/>
<path d="M23.7864 31.6436H22.8989V32.5399H23.7864V31.6436Z" fill="#3D3D3B"/>
<path d="M23.7864 30.7574H22.8989V31.6449H23.7864V30.7574Z" fill="#2B2B2A"/>
<path d="M23.7864 29.8624H22.8989V30.7586H23.7864V29.8624Z" fill="black"/>
<path d="M23.7864 28.9749H22.8989V29.8624H23.7864V28.9749Z" fill="#373801"/>
<path d="M23.7864 28.0786H22.8989V28.9749H23.7864V28.0786Z" fill="#373801"/>
<path d="M23.7864 27.1924H22.8989V28.0799H23.7864V27.1924Z" fill="#5C6302"/>
<path d="M23.7864 26.2961H22.8989V27.1924H23.7864V26.2961Z" fill="#5C6302"/>
<path d="M23.7864 25.4086H22.8989V26.2961H23.7864V25.4086Z" fill="#B5A518"/>
<path d="M23.7864 24.5124H22.8989V25.4086H23.7864V24.5124Z" fill="#B5A518"/>
<path d="M23.7864 23.6161H22.8989V24.5124H23.7864V23.6161Z" fill="#373801"/>
<path d="M23.7864 22.7311H22.8989V23.6186H23.7864V22.7311Z" fill="#2B2B2A"/>
<path d="M23.7864 21.8349H22.8989V22.7311H23.7864V21.8349Z" fill="#3D3D3B"/>
<path d="M23.7864 20.9474H22.8989V21.8349H23.7864V20.9474Z" fill="#3D3D3B"/>
<path d="M23.7864 20.0511H22.8989V20.9474H23.7864V20.0511Z" fill="#3D3D3B"/>
<path d="M23.7864 19.1649H22.8989V20.0524H23.7864V19.1649Z" fill="black"/>
<path d="M23.7864 18.2686H22.8989V19.1649H23.7864V18.2686Z" fill="#F7AB94"/>
<path d="M23.7864 17.3724H22.8989V18.2686H23.7864V17.3724Z" fill="#F7AB94"/>
<path d="M23.7864 16.4849H22.8989V17.3724H23.7864V16.4849Z" fill="#F7AB94"/>
<path d="M23.7864 15.5911H22.8989V16.4874H23.7864V15.5911Z" fill="#F7AB94"/>
<path d="M23.7864 14.7036H22.8989V15.5911H23.7864V14.7036Z" fill="#3D3D3B"/>
<path d="M23.7864 13.8074H22.8989V14.7036H23.7864V13.8074Z" fill="#3D3D3B"/>
<path d="M23.7864 12.9199H22.8989V13.8074H23.7864V12.9199Z" fill="#3D3D3B"/>
<path d="M23.7864 12.0236H22.8989V12.9199H23.7864V12.0236Z" fill="#3D3D3B"/>
<path d="M23.7864 11.1374H22.8989V12.0249H23.7864V11.1374Z" fill="black"/>
<path d="M22.8987 42.3511H22.0024V43.2474H22.8987V42.3511Z" fill="black"/>
<path d="M22.8987 41.4636H22.0024V42.3511H22.8987V41.4636Z" fill="black"/>
<path d="M22.8987 40.5674H22.0024V41.4636H22.8987V40.5674Z" fill="black"/>
<path d="M22.8987 39.6812H22.0024V40.5687H22.8987V39.6812Z" fill="#3F1401"/>
<path d="M22.8987 38.7849H22.0024V39.6812H22.8987V38.7849Z" fill="#3F1401"/>
<path d="M22.8987 37.8886H22.0024V38.7849H22.8987V37.8886Z" fill="#3F1401"/>
<path d="M22.8987 37.0024H22.0024V37.8899H22.8987V37.0024Z" fill="#3F1401"/>
<path d="M22.8987 36.1061H22.0024V37.0024H22.8987V36.1061Z" fill="#3F1401"/>
<path d="M22.8987 35.2199H22.0024V36.1074H22.8987V35.2199Z" fill="#3F1401"/>
<path d="M22.8987 34.3236H22.0024V35.2199H22.8987V34.3236Z" fill="black"/>
<path d="M22.8987 33.4362H22.0024V34.3237H22.8987V33.4362Z" fill="#2B2B2A"/>
<path d="M22.8987 32.5399H22.0024V33.4361H22.8987V32.5399Z" fill="#3D3D3B"/>
<path d="M22.8987 31.6436H22.0024V32.5399H22.8987V31.6436Z" fill="#3D3D3B"/>
<path d="M22.8987 30.7574H22.0024V31.6449H22.8987V30.7574Z" fill="#3D3D3B"/>
<path d="M22.8987 29.8624H22.0024V30.7586H22.8987V29.8624Z" fill="#3D3D3B"/>
<path d="M22.8987 28.9749H22.0024V29.8624H22.8987V28.9749Z" fill="black"/>
<path d="M22.8987 28.0786H22.0024V28.9749H22.8987V28.0786Z" fill="#373801"/>
<path d="M22.8987 27.1924H22.0024V28.0799H22.8987V27.1924Z" fill="#5C6302"/>
<path d="M22.8987 26.2961H22.0024V27.1924H22.8987V26.2961Z" fill="#5C6302"/>
<path d="M22.8987 25.4086H22.0024V26.2961H22.8987V25.4086Z" fill="#5C6302"/>
<path d="M22.8987 24.5124H22.0024V25.4086H22.8987V24.5124Z" fill="#373801"/>
<path d="M22.8987 23.6161H22.0024V24.5124H22.8987V23.6161Z" fill="#B5A518"/>
<path d="M22.8987 22.7311H22.0024V23.6186H22.8987V22.7311Z" fill="#B5A518"/>
<path d="M22.8987 21.8349H22.0024V22.7311H22.8987V21.8349Z" fill="#3D3D3B"/>
<path d="M22.8987 20.9474H22.0024V21.8349H22.8987V20.9474Z" fill="#3D3D3B"/>
<path d="M22.8987 20.0511H22.0024V20.9474H22.8987V20.0511Z" fill="#3D3D3B"/>
<path d="M22.8987 19.1649H22.0024V20.0524H22.8987V19.1649Z" fill="#2B2B2A"/>
<path d="M22.8987 18.2686H22.0024V19.1649H22.8987V18.2686Z" fill="black"/>
<path d="M22.8987 17.3724H22.0024V18.2686H22.8987V17.3724Z" fill="#F7AB94"/>
<path d="M22.8987 16.4849H22.0024V17.3724H22.8987V16.4849Z" fill="#F7AB94"/>
<path d="M22.8987 15.5911H22.0024V16.4874H22.8987V15.5911Z" fill="#F7AB94"/>
<path d="M22.8987 14.7036H22.0024V15.5911H22.8987V14.7036Z" fill="#3D3D3B"/>
<path d="M22.8987 13.8074H22.0024V14.7036H22.8987V13.8074Z" fill="#3D3D3B"/>
<path d="M22.8987 12.9199H22.0024V13.8074H22.8987V12.9199Z" fill="#3D3D3B"/>
<path d="M22.8987 12.0236H22.0024V12.9199H22.8987V12.0236Z" fill="black"/>
<path d="M22.0037 42.3511H21.1162V43.2474H22.0037V42.3511Z" fill="black"/>
<path d="M22.0037 41.4636H21.1162V42.3511H22.0037V41.4636Z" fill="#3F1401"/>
<path d="M22.0037 40.5674H21.1162V41.4636H22.0037V40.5674Z" fill="#3F1401"/>
<path d="M22.0037 39.6812H21.1162V40.5687H22.0037V39.6812Z" fill="#5B1E00"/>
<path d="M22.0037 38.7849H21.1162V39.6812H22.0037V38.7849Z" fill="#660801"/>
<path d="M22.0037 37.8886H21.1162V38.7849H22.0037V37.8886Z" fill="#660801"/>
<path d="M22.0037 37.0024H21.1162V37.8899H22.0037V37.0024Z" fill="#5B1E00"/>
<path d="M22.0037 36.1061H21.1162V37.0024H22.0037V36.1061Z" fill="#3F1401"/>
<path d="M22.0037 35.2199H21.1162V36.1074H22.0037V35.2199Z" fill="#5B1E00"/>
<path d="M22.0037 34.3236H21.1162V35.2199H22.0037V34.3236Z" fill="black"/>
<path d="M22.0037 33.4362H21.1162V34.3237H22.0037V33.4362Z" fill="#3D3D3B"/>
<path d="M22.0037 32.5399H21.1162V33.4361H22.0037V32.5399Z" fill="#3D3D3B"/>
<path d="M22.0037 31.6436H21.1162V32.5399H22.0037V31.6436Z" fill="#3D3D3B"/>
<path d="M22.0037 30.7574H21.1162V31.6449H22.0037V30.7574Z" fill="#2B2B2A"/>
<path d="M22.0037 29.8624H21.1162V30.7586H22.0037V29.8624Z" fill="#2B2B2A"/>
<path d="M22.0037 28.9749H21.1162V29.8624H22.0037V28.9749Z" fill="black"/>
<path d="M22.0037 28.0786H21.1162V28.9749H22.0037V28.0786Z" fill="#373801"/>
<path d="M22.0037 27.1924H21.1162V28.0799H22.0037V27.1924Z" fill="#5C6302"/>
<path d="M22.0037 26.2961H21.1162V27.1924H22.0037V26.2961Z" fill="#5C6302"/>
<path d="M22.0037 25.4086H21.1162V26.2961H22.0037V25.4086Z" fill="#373801"/>
<path d="M22.0037 24.5124H21.1162V25.4086H22.0037V24.5124Z" fill="#373801"/>
<path d="M22.0037 23.6161H21.1162V24.5124H22.0037V23.6161Z" fill="#373801"/>
<path d="M22.0037 22.7311H21.1162V23.6186H22.0037V22.7311Z" fill="#373801"/>
<path d="M22.0037 21.8349H21.1162V22.7311H22.0037V21.8349Z" fill="#373801"/>
<path d="M22.0037 20.9474H21.1162V21.8349H22.0037V20.9474Z" fill="#3D3D3B"/>
<path d="M22.0037 20.0511H21.1162V20.9474H22.0037V20.0511Z" fill="#2B2B2A"/>
<path d="M22.0037 19.1649H21.1162V20.0524H22.0037V19.1649Z" fill="#2B2B2A"/>
<path d="M22.0037 18.2686H21.1162V19.1649H22.0037V18.2686Z" fill="black"/>
<path d="M22.0037 17.3724H21.1162V18.2686H22.0037V17.3724Z" fill="#F7AB94"/>
<path d="M22.0037 16.4849H21.1162V17.3724H22.0037V16.4849Z" fill="#F7AB94"/>
<path d="M22.0037 15.5911H21.1162V16.4874H22.0037V15.5911Z" fill="#2B2B2A"/>
<path d="M22.0037 14.7036H21.1162V15.5911H22.0037V14.7036Z" fill="#3D3D3B"/>
<path d="M22.0037 13.8074H21.1162V14.7036H22.0037V13.8074Z" fill="#3D3D3B"/>
<path d="M22.0037 12.9199H21.1162V13.8074H22.0037V12.9199Z" fill="#3D3D3B"/>
<path d="M22.0037 12.0236H21.1162V12.9199H22.0037V12.0236Z" fill="black"/>
<path d="M21.1165 42.3511H20.2202V43.2474H21.1165V42.3511Z" fill="black"/>
<path d="M21.1165 41.4636H20.2202V42.3511H21.1165V41.4636Z" fill="#660801"/>
<path d="M21.1165 40.5674H20.2202V41.4636H21.1165V40.5674Z" fill="#3F1401"/>
<path d="M21.1165 39.6812H20.2202V40.5687H21.1165V39.6812Z" fill="#5B1E00"/>
<path d="M21.1165 38.7849H20.2202V39.6812H21.1165V38.7849Z" fill="#660801"/>
<path d="M21.1165 37.8886H20.2202V38.7849H21.1165V37.8886Z" fill="#5B1E00"/>
<path d="M21.1165 37.0024H20.2202V37.8899H21.1165V37.0024Z" fill="#5B1E00"/>
<path d="M21.1165 36.1061H20.2202V37.0024H21.1165V36.1061Z" fill="#3F1401"/>
<path d="M21.1165 35.2199H20.2202V36.1074H21.1165V35.2199Z" fill="#5B1E00"/>
<path d="M21.1165 34.3236H20.2202V35.2199H21.1165V34.3236Z" fill="black"/>
<path d="M21.1165 33.4362H20.2202V34.3237H21.1165V33.4362Z" fill="#B5A518"/>
<path d="M21.1165 32.5399H20.2202V33.4361H21.1165V32.5399Z" fill="#B5A518"/>
<path d="M21.1165 31.6436H20.2202V32.5399H21.1165V31.6436Z" fill="black"/>
<path d="M21.1165 30.7574H20.2202V31.6449H21.1165V30.7574Z" fill="black"/>
<path d="M21.1165 29.8624H20.2202V30.7586H21.1165V29.8624Z" fill="black"/>
<path d="M21.1165 28.9749H20.2202V29.8624H21.1165V28.9749Z" fill="#3F1401"/>
<path d="M21.1165 28.0786H20.2202V28.9749H21.1165V28.0786Z" fill="black"/>
<path d="M21.1165 27.1924H20.2202V28.0799H21.1165V27.1924Z" fill="black"/>
<path d="M21.1165 26.2961H20.2202V27.1924H21.1165V26.2961Z" fill="black"/>
<path d="M21.1165 25.4086H20.2202V26.2961H21.1165V25.4086Z" fill="black"/>
<path d="M21.1165 24.5124H20.2202V25.4086H21.1165V24.5124Z" fill="black"/>
<path d="M21.1165 23.6161H20.2202V24.5124H21.1165V23.6161Z" fill="#373801"/>
<path d="M21.1165 22.7311H20.2202V23.6186H21.1165V22.7311Z" fill="black"/>
<path d="M21.1165 21.8349H20.2202V22.7311H21.1165V21.8349Z" fill="black"/>
<path d="M21.1165 20.9474H20.2202V21.8349H21.1165V20.9474Z" fill="black"/>
<path d="M21.1165 20.0511H20.2202V20.9474H21.1165V20.0511Z" fill="#2B2B2A"/>
<path d="M21.1165 19.1649H20.2202V20.0524H21.1165V19.1649Z" fill="#2B2B2A"/>
<path d="M21.1165 18.2686H20.2202V19.1649H21.1165V18.2686Z" fill="#2B2B2A"/>
<path d="M21.1165 17.3724H20.2202V18.2686H21.1165V17.3724Z" fill="black"/>
<path d="M21.1165 16.4849H20.2202V17.3724H21.1165V16.4849Z" fill="black"/>
<path d="M21.1165 15.5911H20.2202V16.4874H21.1165V15.5911Z" fill="#2B2B2A"/>
<path d="M21.1165 14.7036H20.2202V15.5911H21.1165V14.7036Z" fill="#3D3D3B"/>
<path d="M21.1165 13.8074H20.2202V14.7036H21.1165V13.8074Z" fill="black"/>
<path d="M21.1165 12.9199H20.2202V13.8074H21.1165V12.9199Z" fill="black"/>
<path d="M20.22 42.3511H19.3237V43.2474H20.22V42.3511Z" fill="black"/>
<path d="M20.22 41.4636H19.3237V42.3511H20.22V41.4636Z" fill="#660801"/>
<path d="M20.22 40.5674H19.3237V41.4636H20.22V40.5674Z" fill="#660801"/>
<path d="M20.22 39.6812H19.3237V40.5687H20.22V39.6812Z" fill="#5B1E00"/>
<path d="M20.22 38.7849H19.3237V39.6812H20.22V38.7849Z" fill="black"/>
<path d="M20.22 37.8886H19.3237V38.7849H20.22V37.8886Z" fill="black"/>
<path d="M20.22 37.0024H19.3237V37.8899H20.22V37.0024Z" fill="black"/>
<path d="M20.22 36.1061H19.3237V37.0024H20.22V36.1061Z" fill="black"/>
<path d="M20.22 35.2199H19.3237V36.1074H20.22V35.2199Z" fill="black"/>
<path d="M20.22 33.4362H19.3237V34.3237H20.22V33.4362Z" fill="black"/>
<path d="M20.22 32.5399H19.3237V33.4361H20.22V32.5399Z" fill="black"/>
<path d="M20.22 31.6436H19.3237V32.5399H20.22V31.6436Z" fill="#3F1401"/>
<path d="M20.22 30.7574H19.3237V31.6449H20.22V30.7574Z" fill="#3F1401"/>
<path d="M20.22 29.8624H19.3237V30.7586H20.22V29.8624Z" fill="#3F1401"/>
<path d="M20.22 28.9749H19.3237V29.8624H20.22V28.9749Z" fill="black"/>
<path d="M20.22 28.0786H19.3237V28.9749H20.22V28.0786Z" fill="black"/>
<path d="M20.22 27.1924H19.3237V28.0799H20.22V27.1924Z" fill="#B5A518"/>
<path d="M20.22 26.2961H19.3237V27.1924H20.22V26.2961Z" fill="#B5A518"/>
<path d="M20.22 25.4086H19.3237V26.2961H20.22V25.4086Z" fill="#B5A518"/>
<path d="M20.22 24.5124H19.3237V25.4086H20.22V24.5124Z" fill="black"/>
<path d="M20.22 23.6161H19.3237V24.5124H20.22V23.6161Z" fill="black"/>
<path d="M20.22 22.7311H19.3237V23.6186H20.22V22.7311Z" fill="black"/>
<path d="M20.22 21.8349H19.3237V22.7311H20.22V21.8349Z" fill="#2B2B2A"/>
<path d="M20.22 20.9474H19.3237V21.8349H20.22V20.9474Z" fill="#2B2B2A"/>
<path d="M20.22 20.0511H19.3237V20.9474H20.22V20.0511Z" fill="#3D3D3B"/>
<path d="M20.22 19.1649H19.3237V20.0524H20.22V19.1649Z" fill="#2B2B2A"/>
<path d="M20.22 18.2686H19.3237V19.1649H20.22V18.2686Z" fill="black"/>
<path d="M20.22 17.3724H19.3237V18.2686H20.22V17.3724Z" fill="black"/>
<path d="M20.22 15.5911H19.3237V16.4874H20.22V15.5911Z" fill="black"/>
<path d="M20.22 14.7036H19.3237V15.5911H20.22V14.7036Z" fill="black"/>
<path d="M19.325 42.3511H18.4375V43.2474H19.325V42.3511Z" fill="black"/>
<path d="M19.325 41.4636H18.4375V42.3511H19.325V41.4636Z" fill="#660801"/>
<path d="M19.325 40.5674H18.4375V41.4636H19.325V40.5674Z" fill="#660801"/>
<path d="M19.325 39.6812H18.4375V40.5687H19.325V39.6812Z" fill="black"/>
<path d="M19.325 33.4362H18.4375V34.3237H19.325V33.4362Z" fill="black"/>
<path d="M19.325 32.5399H18.4375V33.4361H19.325V32.5399Z" fill="#3D3D3B"/>
<path d="M19.325 31.6436H18.4375V32.5399H19.325V31.6436Z" fill="#3D3D3B"/>
<path d="M19.325 30.7574H18.4375V31.6449H19.325V30.7574Z" fill="#3F1401"/>
<path d="M19.325 29.8624H18.4375V30.7586H19.325V29.8624Z" fill="black"/>
<path d="M19.325 28.9749H18.4375V29.8624H19.325V28.9749Z" fill="#DD8976"/>
<path d="M19.325 28.0786H18.4375V28.9749H19.325V28.0786Z" fill="#373801"/>
<path d="M19.325 27.1924H18.4375V28.0799H19.325V27.1924Z" fill="#5C6302"/>
<path d="M19.325 26.2961H18.4375V27.1924H19.325V26.2961Z" fill="#5C6302"/>
<path d="M19.325 25.4086H18.4375V26.2961H19.325V25.4086Z" fill="#373801"/>
<path d="M19.325 24.5124H18.4375V25.4086H19.325V24.5124Z" fill="#373801"/>
<path d="M19.325 23.6161H18.4375V24.5124H19.325V23.6161Z" fill="#373801"/>
<path d="M19.325 22.7311H18.4375V23.6186H19.325V22.7311Z" fill="black"/>
<path d="M19.325 21.8349H18.4375V22.7311H19.325V21.8349Z" fill="#2B2B2A"/>
<path d="M19.325 20.9474H18.4375V21.8349H19.325V20.9474Z" fill="#3D3D3B"/>
<path d="M19.325 20.0511H18.4375V20.9474H19.325V20.0511Z" fill="#3D3D3B"/>
<path d="M19.325 19.1649H18.4375V20.0524H19.325V19.1649Z" fill="#3D3D3B"/>
<path d="M19.325 18.2686H18.4375V19.1649H19.325V18.2686Z" fill="black"/>
<path d="M18.4373 42.3511H17.541V43.2474H18.4373V42.3511Z" fill="black"/>
<path d="M18.4373 41.4636H17.541V42.3511H18.4373V41.4636Z" fill="black"/>
<path d="M18.4373 40.5674H17.541V41.4636H18.4373V40.5674Z" fill="black"/>
<path d="M18.4373 32.5399H17.541V33.4361H18.4373V32.5399Z" fill="black"/>
<path d="M18.4373 31.6436H17.541V32.5399H18.4373V31.6436Z" fill="#3D3D3B"/>
<path d="M18.4373 30.7574H17.541V31.6449H18.4373V30.7574Z" fill="black"/>
<path d="M18.4373 29.8624H17.541V30.7586H18.4373V29.8624Z" fill="#DD8976"/>
<path d="M18.4373 28.9749H17.541V29.8624H18.4373V28.9749Z" fill="#DD8976"/>
<path d="M18.4373 28.0786H17.541V28.9749H18.4373V28.0786Z" fill="#5C6302"/>
<path d="M18.4373 27.1924H17.541V28.0799H18.4373V27.1924Z" fill="#5C6302"/>
<path d="M18.4373 26.2961H17.541V27.1924H18.4373V26.2961Z" fill="#373801"/>
<path d="M18.4373 25.4086H17.541V26.2961H18.4373V25.4086Z" fill="#373801"/>
<path d="M18.4373 24.5124H17.541V25.4086H18.4373V24.5124Z" fill="#5C6302"/>
<path d="M18.4373 23.6161H17.541V24.5124H18.4373V23.6161Z" fill="#5C6302"/>
<path d="M18.4373 22.7311H17.541V23.6186H18.4373V22.7311Z" fill="black"/>
<path d="M18.4373 21.8349H17.541V22.7311H18.4373V21.8349Z" fill="#3D3D3B"/>
<path d="M18.4373 20.9474H17.541V21.8349H18.4373V20.9474Z" fill="#3D3D3B"/>
<path d="M18.4373 20.0511H17.541V20.9474H18.4373V20.0511Z" fill="#3D3D3B"/>
<path d="M18.4373 19.1649H17.541V20.0524H18.4373V19.1649Z" fill="#2B2B2A"/>
<path d="M18.4373 18.2686H17.541V19.1649H18.4373V18.2686Z" fill="black"/>
<path d="M17.5413 32.5399H16.6538V33.4361H17.5413V32.5399Z" fill="black"/>
<path d="M17.5413 31.6436H16.6538V32.5399H17.5413V31.6436Z" fill="#5C6302"/>
<path d="M17.5413 30.7574H16.6538V31.6449H17.5413V30.7574Z" fill="black"/>
<path d="M17.5413 29.8624H16.6538V30.7586H17.5413V29.8624Z" fill="#DD8976"/>
<path d="M17.5413 28.9749H16.6538V29.8624H17.5413V28.9749Z" fill="#F7AB94"/>
<path d="M17.5413 28.0786H16.6538V28.9749H17.5413V28.0786Z" fill="#F7AB94"/>
<path d="M17.5413 27.1924H16.6538V28.0799H17.5413V27.1924Z" fill="#373801"/>
<path d="M17.5413 26.2961H16.6538V27.1924H17.5413V26.2961Z" fill="#373801"/>
<path d="M17.5413 25.4086H16.6538V26.2961H17.5413V25.4086Z" fill="#5C6302"/>
<path d="M17.5413 24.5124H16.6538V25.4086H17.5413V24.5124Z" fill="#5C6302"/>
<path d="M17.5413 23.6161H16.6538V24.5124H17.5413V23.6161Z" fill="#5C6302"/>
<path d="M17.5413 22.7311H16.6538V23.6186H17.5413V22.7311Z" fill="#5C6302"/>
<path d="M17.5413 21.8349H16.6538V22.7311H17.5413V21.8349Z" fill="black"/>
<path d="M17.5413 20.9474H16.6538V21.8349H17.5413V20.9474Z" fill="#2B2B2A"/>
<path d="M17.5413 20.0511H16.6538V20.9474H17.5413V20.0511Z" fill="#2B2B2A"/>
<path d="M17.5413 19.1649H16.6538V20.0524H17.5413V19.1649Z" fill="black"/>
<path d="M16.6536 33.4362H15.7573V34.3237H16.6536V33.4362Z" fill="black"/>
<path d="M16.6536 32.5399H15.7573V33.4361H16.6536V32.5399Z" fill="#5C6302"/>
<path d="M16.6536 31.6436H15.7573V32.5399H16.6536V31.6436Z" fill="#5C6302"/>
<path d="M16.6536 30.7574H15.7573V31.6449H16.6536V30.7574Z" fill="#8A8D8E"/>
<path d="M16.6536 29.8624H15.7573V30.7586H16.6536V29.8624Z" fill="black"/>
<path d="M16.6536 28.9749H15.7573V29.8624H16.6536V28.9749Z" fill="#F7AB94"/>
<path d="M16.6536 28.0786H15.7573V28.9749H16.6536V28.0786Z" fill="black"/>
<path d="M16.6536 27.1924H15.7573V28.0799H16.6536V27.1924Z" fill="black"/>
<path d="M16.6536 26.2961H15.7573V27.1924H16.6536V26.2961Z" fill="black"/>
<path d="M16.6536 25.4086H15.7573V26.2961H16.6536V25.4086Z" fill="black"/>
<path d="M16.6536 24.5124H15.7573V25.4086H16.6536V24.5124Z" fill="black"/>
<path d="M16.6536 23.6161H15.7573V24.5124H16.6536V23.6161Z" fill="black"/>
<path d="M16.6536 22.7311H15.7573V23.6186H16.6536V22.7311Z" fill="black"/>
<path d="M16.6536 20.9474H15.7573V21.8349H16.6536V20.9474Z" fill="black"/>
<path d="M16.6536 20.0511H15.7573V20.9474H16.6536V20.0511Z" fill="black"/>
<path d="M15.7586 32.5399H14.8711V33.4361H15.7586V32.5399Z" fill="black"/>
<path d="M15.7586 31.6436H14.8711V32.5399H15.7586V31.6436Z" fill="black"/>
<path d="M15.7586 30.7574H14.8711V31.6449H15.7586V30.7574Z" fill="#8A8D8E"/>
<path d="M15.7586 29.8624H14.8711V30.7586H15.7586V29.8624Z" fill="#8A8D8E"/>
<path d="M15.7586 28.9749H14.8711V29.8624H15.7586V28.9749Z" fill="black"/>
<path d="M15.7586 28.0786H14.8711V28.9749H15.7586V28.0786Z" fill="#8A8D8E"/>
<path d="M14.8723 30.7574H13.9761V31.6449H14.8723V30.7574Z" fill="black"/>
<path d="M14.8723 29.8624H13.9761V30.7586H14.8723V29.8624Z" fill="#8A8D8E"/>
<path d="M14.8723 28.9749H13.9761V29.8624H14.8723V28.9749Z" fill="black"/>
<path d="M14.8723 28.0786H13.9761V28.9749H14.8723V28.0786Z" fill="#8A8D8E"/>
<path d="M14.8723 27.1924H13.9761V28.0799H14.8723V27.1924Z" fill="#8A8D8E"/>
<path d="M13.9763 30.7574H13.0801V31.6449H13.9763V30.7574Z" fill="black"/>
<path d="M13.9763 29.8624H13.0801V30.7586H13.9763V29.8624Z" fill="#8A8D8E"/>
<path d="M13.9763 28.9749H13.0801V29.8624H13.9763V28.9749Z" fill="#8A8D8E"/>
<path d="M13.9763 28.0786H13.0801V28.9749H13.9763V28.0786Z" fill="black"/>
<path d="M13.9763 27.1924H13.0801V28.0799H13.9763V27.1924Z" fill="#8A8D8E"/>
<path d="M13.0799 29.8624H12.1924V30.7586H13.0799V29.8624Z" fill="black"/>
<path d="M13.0799 28.9749H12.1924V29.8624H13.0799V28.9749Z" fill="#8A8D8E"/>
<path d="M28.0737 26.0411H27.6162V26.4986H28.0737V26.0411Z" fill="#373801"/>
<path d="M28.0737 25.5924H27.6162V26.0399H28.0737V25.5924Z" fill="#373801"/>
<path d="M28.0737 25.1449H27.6162V25.5924H28.0737V25.1449Z" fill="#373801"/>
<path d="M27.6164 25.5924H27.1689V26.0399H27.6164V25.5924Z" fill="#373801"/>
<path d="M27.6164 25.1449H27.1689V25.5924H27.6164V25.1449Z" fill="#373801"/>
<path d="M27.6164 24.6874H27.1689V25.1449H27.6164V24.6874Z" fill="#373801"/>
<path d="M27.6164 24.2399H27.1689V24.6874H27.6164V24.2399Z" fill="#373801"/>
<path d="M27.1677 25.1449H26.7202V25.5924H27.1677V25.1449Z" fill="#373801"/>
<path d="M27.1677 24.6874H26.7202V25.1449H27.1677V24.6874Z" fill="#373801"/>
<path d="M27.1677 24.2399H26.7202V24.6874H27.1677V24.2399Z" fill="#373801"/>
<path d="M26.7212 24.6874H26.2637V25.1449H26.7212V24.6874Z" fill="#373801"/>
<path d="M26.7212 24.2399H26.2637V24.6874H26.7212V24.2399Z" fill="#373801"/>
<path d="M26.7212 23.7811H26.2637V24.2386H26.7212V23.7811Z" fill="#373801"/>
<path d="M26.7212 23.3349H26.2637V23.7824H26.7212V23.3349Z" fill="#373801"/>
<path d="M26.7212 22.8861H26.2637V23.3336H26.7212V22.8861Z" fill="#373801"/>
<path d="M26.7212 22.4274H26.2637V22.8849H26.7212V22.4274Z" fill="#111110"/>
<path d="M26.2624 24.2399H25.8149V24.6874H26.2624V24.2399Z" fill="#373801"/>
<path d="M26.2624 23.7811H25.8149V24.2386H26.2624V23.7811Z" fill="#373801"/>
<path d="M26.2624 23.3349H25.8149V23.7824H26.2624V23.3349Z" fill="#373801"/>
<path d="M26.2624 22.8861H25.8149V23.3336H26.2624V22.8861Z" fill="#373801"/>
<path d="M26.2624 22.4274H25.8149V22.8849H26.2624V22.4274Z" fill="#111110"/>
<path d="M25.8164 26.0411H25.3589V26.4986H25.8164V26.0411Z" fill="#5C6302"/>
<path d="M25.8164 22.4274H25.3589V22.8849H25.8164V22.4274Z" fill="#111110"/>
<path d="M25.3577 16.5587H24.9102V17.0162H25.3577V16.5587Z" fill="#282728"/>
<path d="M25.3577 15.6624H24.9102V16.1099H25.3577V15.6624Z" fill="#F7AB94"/>
<path d="M25.3577 15.2061H24.9102V15.6636H25.3577V15.2061Z" fill="#F7AB94"/>
<path d="M24.9099 25.1449H24.4624V25.5924H24.9099V25.1449Z" fill="#128986"/>
<path d="M24.9099 17.9211H24.4624V18.3686H24.9099V17.9211Z" fill="#DD0590"/>
<path d="M24.9099 16.5587H24.4624V17.0162H24.9099V16.5587Z" fill="#282728"/>
<path d="M24.9099 15.6624H24.4624V16.1099H24.9099V15.6624Z" fill="#F7AB94"/>
<path d="M24.4624 25.5924H24.0049V26.0399H24.4624V25.5924Z" fill="#128986"/>
<path d="M24.4624 25.1449H24.0049V25.5924H24.4624V25.1449Z" fill="#B5A518"/>
<path d="M24.4624 24.6874H24.0049V25.1449H24.4624V24.6874Z" fill="#128986"/>
<path d="M24.4624 17.9211H24.0049V18.3686H24.4624V17.9211Z" fill="#DD0590"/>
<path d="M24.0051 25.1449H23.5576V25.5924H24.0051V25.1449Z" fill="#128986"/>
<path d="M24.0051 17.9211H23.5576V18.3686H24.0051V17.9211Z" fill="#DD0590"/>
<path d="M23.5564 17.9211H23.1089V18.3686H23.5564V17.9211Z" fill="#DD0590"/>
<path d="M23.1098 26.0411H22.6523V26.4986H23.1098V26.0411Z" fill="#5C6302"/>
<path d="M23.1098 22.4274H22.6523V22.8849H23.1098V22.4274Z" fill="#111110"/>
<path d="M23.1098 16.5587H22.6523V17.0162H23.1098V16.5587Z" fill="#282728"/>
<path d="M22.6511 24.2399H22.2036V24.6874H22.6511V24.2399Z" fill="#373801"/>
<path d="M22.6511 23.7811H22.2036V24.2386H22.6511V23.7811Z" fill="#373801"/>
<path d="M22.6511 23.3349H22.2036V23.7824H22.6511V23.3349Z" fill="#373801"/>
<path d="M22.6511 22.8861H22.2036V23.3336H22.6511V22.8861Z" fill="#373801"/>
<path d="M22.6511 22.4274H22.2036V22.8849H22.6511V22.4274Z" fill="#111110"/>
<path d="M22.6511 16.5587H22.2036V17.0162H22.6511V16.5587Z" fill="#282728"/>
<path d="M22.6511 15.6624H22.2036V16.1099H22.6511V15.6624Z" fill="#F7AB94"/>
<path d="M22.2051 24.2399H21.7476V24.6874H22.2051V24.2399Z" fill="#373801"/>
<path d="M22.2051 23.7811H21.7476V24.2386H22.2051V23.7811Z" fill="#373801"/>
<path d="M22.2051 23.3349H21.7476V23.7824H22.2051V23.3349Z" fill="#373801"/>
<path d="M22.2051 22.8861H21.7476V23.3336H22.2051V22.8861Z" fill="#373801"/>
<path d="M22.2051 22.4274H21.7476V22.8849H22.2051V22.4274Z" fill="#111110"/>
<path d="M22.2051 21.9811H21.7476V22.4286H22.2051V21.9811Z" fill="#111110"/>
<path d="M22.2051 21.5336H21.7476V21.9811H22.2051V21.5336Z" fill="#111110"/>
<path d="M21.7463 21.5336H21.2988V21.9811H21.7463V21.5336Z" fill="#111110"/>
<path d="M21.2986 21.5336H20.8511V21.9811H21.2986V21.5336Z" fill="#111110"/>
<path d="M20.3938 17.0161H19.9463V17.4636H20.3938V17.0161Z" fill="#705E03"/>
<path d="M20.3938 16.5587H19.9463V17.0162H20.3938V16.5587Z" fill="black"/>
<path d="M20.3938 16.1111H19.9463V16.5586H20.3938V16.1111Z" fill="black"/>
<path d="M19.9448 17.0161H19.4873V17.4636H19.9448V17.0161Z" fill="#705E03"/>
<path d="M19.9448 16.5587H19.4873V17.0162H19.9448V16.5587Z" fill="#705E03"/>
<path d="M19.9448 16.1111H19.4873V16.5586H19.9448V16.1111Z" fill="black"/>
<path d="M19.4885 17.9211H19.041V18.3686H19.4885V17.9211Z" fill="#705E03"/>
<path d="M19.4885 17.4636H19.041V17.9211H19.4885V17.4636Z" fill="#705E03"/>
<path d="M19.4885 17.0161H19.041V17.4636H19.4885V17.0161Z" fill="#705E03"/>
<path d="M19.4885 16.5587H19.041V17.0162H19.4885V16.5587Z" fill="#705E03"/>
<path d="M19.4885 16.1111H19.041V16.5586H19.4885V16.1111Z" fill="#705E03"/>
<path d="M19.4885 15.6624H19.041V16.1099H19.4885V15.6624Z" fill="black"/>
<path d="M19.0413 17.9211H18.5938V18.3686H19.0413V17.9211Z" fill="#705E03"/>
<path d="M19.0413 17.4636H18.5938V17.9211H19.0413V17.4636Z" fill="#705E03"/>
<path d="M19.0413 17.0161H18.5938V17.4636H19.0413V17.0161Z" fill="#705E03"/>
<path d="M19.0413 16.5587H18.5938V17.0162H19.0413V16.5587Z" fill="#705E03"/>
<path d="M19.0413 16.1111H18.5938V16.5586H19.0413V16.1111Z" fill="#998304"/>
<path d="M19.0413 15.6624H18.5938V16.1099H19.0413V15.6624Z" fill="#998304"/>
<path d="M19.0413 15.2061H18.5938V15.6636H19.0413V15.2061Z" fill="black"/>
<path d="M18.5923 17.9211H18.1348V18.3686H18.5923V17.9211Z" fill="#705E03"/>
<path d="M18.5923 17.4636H18.1348V17.9211H18.5923V17.4636Z" fill="#705E03"/>
<path d="M18.5923 17.0161H18.1348V17.4636H18.5923V17.0161Z" fill="#998304"/>
<path d="M18.5923 16.5587H18.1348V17.0162H18.5923V16.5587Z" fill="#998304"/>
<path d="M18.5923 16.1111H18.1348V16.5586H18.5923V16.1111Z" fill="#998304"/>
<path d="M18.5923 15.6624H18.1348V16.1099H18.5923V15.6624Z" fill="#BFA908"/>
<path d="M18.5923 15.2061H18.1348V15.6636H18.5923V15.2061Z" fill="#BFA908"/>
<path d="M18.5923 14.7574H18.1348V15.2049H18.5923V14.7574Z" fill="black"/>
<path d="M18.5923 14.3011H18.1348V14.7586H18.5923V14.3011Z" fill="black"/>
<path d="M18.1335 17.9211H17.686V18.3686H18.1335V17.9211Z" fill="#705E03"/>
<path d="M18.1335 17.4636H17.686V17.9211H18.1335V17.4636Z" fill="#998304"/>
<path d="M18.1335 17.0161H17.686V17.4636H18.1335V17.0161Z" fill="#998304"/>
<path d="M18.1335 16.5587H17.686V17.0162H18.1335V16.5587Z" fill="#BFA908"/>
<path d="M18.1335 16.1111H17.686V16.5586H18.1335V16.1111Z" fill="#BFA908"/>
<path d="M18.1335 15.6624H17.686V16.1099H18.1335V15.6624Z" fill="#BFA908"/>
<path d="M18.1335 15.2061H17.686V15.6636H18.1335V15.2061Z" fill="black"/>
<path d="M18.1335 14.7574H17.686V15.2049H18.1335V14.7574Z" fill="black"/>
<path d="M17.6877 18.8174H17.2402V19.2749H17.6877V18.8174Z" fill="#705E03"/>
<path d="M17.6877 18.3687H17.2402V18.8162H17.6877V18.3687Z" fill="#705E03"/>
<path d="M17.6877 17.9211H17.2402V18.3686H17.6877V17.9211Z" fill="#998304"/>
<path d="M17.6877 17.4636H17.2402V17.9211H17.6877V17.4636Z" fill="#998304"/>
<path d="M17.6877 17.0161H17.2402V17.4636H17.6877V17.0161Z" fill="#BFA908"/>
<path d="M17.6877 16.5587H17.2402V17.0162H17.6877V16.5587Z" fill="#BFA908"/>
<path d="M17.6877 16.1111H17.2402V16.5586H17.6877V16.1111Z" fill="#BFA908"/>
<path d="M17.6877 15.6624H17.2402V16.1099H17.6877V15.6624Z" fill="black"/>
<path d="M17.6877 15.2061H17.2402V15.6636H17.6877V15.2061Z" fill="black"/>
<path d="M17.2388 18.8174H16.7812V19.2749H17.2388V18.8174Z" fill="#705E03"/>
<path d="M17.2388 18.3687H16.7812V18.8162H17.2388V18.3687Z" fill="#998304"/>
<path d="M17.2388 17.9211H16.7812V18.3686H17.2388V17.9211Z" fill="#998304"/>
<path d="M17.2388 17.4636H16.7812V17.9211H17.2388V17.4636Z" fill="#BFA908"/>
<path d="M17.2388 17.0161H16.7812V17.4636H17.2388V17.0161Z" fill="#BFA908"/>
<path d="M17.2388 16.5587H16.7812V17.0162H17.2388V16.5587Z" fill="#BFA908"/>
<path d="M17.2388 16.1111H16.7812V16.5586H17.2388V16.1111Z" fill="black"/>
<path d="M17.2388 15.6624H16.7812V16.1099H17.2388V15.6624Z" fill="black"/>
<path d="M17.2388 14.7574H16.7812V15.2049H17.2388V14.7574Z" fill="black"/>
<path d="M16.7815 18.8174H16.334V19.2749H16.7815V18.8174Z" fill="black"/>
<path d="M16.7815 18.3687H16.334V18.8162H16.7815V18.3687Z" fill="#998304"/>
<path d="M16.7815 17.9211H16.334V18.3686H16.7815V17.9211Z" fill="#998304"/>
<path d="M16.7815 17.4636H16.334V17.9211H16.7815V17.4636Z" fill="#BFA908"/>
<path d="M16.7815 17.0161H16.334V17.4636H16.7815V17.0161Z" fill="#BFA908"/>
<path d="M16.7815 16.5587H16.334V17.0162H16.7815V16.5587Z" fill="black"/>
<path d="M16.7815 16.1111H16.334V16.5586H16.7815V16.1111Z" fill="black"/>
<path d="M16.7815 14.3011H16.334V14.7586H16.7815V14.3011Z" fill="black"/>
<path d="M16.334 18.3687H15.8765V18.8162H16.334V18.3687Z" fill="black"/>
<path d="M16.334 17.9211H15.8765V18.3686H16.334V17.9211Z" fill="#BFA908"/>
<path d="M16.334 17.4636H15.8765V17.9211H16.334V17.4636Z" fill="#BFA908"/>
<path d="M16.334 17.0161H15.8765V17.4636H16.334V17.0161Z" fill="black"/>
<path d="M16.334 16.5587H15.8765V17.0162H16.334V16.5587Z" fill="black"/>
<path d="M16.334 13.8524H15.8765V14.2999H16.334V13.8524Z" fill="black"/>
<path d="M16.334 13.4049H15.8765V13.8524H16.334V13.4049Z" fill="#545454"/>
<path d="M15.8762 17.9211H15.4287V18.3686H15.8762V17.9211Z" fill="black"/>
<path d="M15.8762 17.4636H15.4287V17.9211H15.8762V17.4636Z" fill="black"/>
<path d="M15.8762 17.0161H15.4287V17.4636H15.8762V17.0161Z" fill="black"/>
<path d="M15.8762 16.1111H15.4287V16.5586H15.8762V16.1111Z" fill="black"/>
<path d="M15.8762 13.8524H15.4287V14.2999H15.8762V13.8524Z" fill="#545454"/>
<path d="M15.8762 13.4049H15.4287V13.8524H15.8762V13.4049Z" fill="black"/>
<path d="M15.8762 12.9474H15.4287V13.4049H15.8762V12.9474Z" fill="#545454"/>
<path d="M15.4275 17.9211H14.98V18.3686H15.4275V17.9211Z" fill="black"/>
<path d="M15.4275 17.4636H14.98V17.9211H15.4275V17.4636Z" fill="black"/>
<path d="M15.4275 15.6624H14.98V16.1099H15.4275V15.6624Z" fill="black"/>
<path d="M15.4275 13.4049H14.98V13.8524H15.4275V13.4049Z" fill="#545454"/>
<path d="M15.4275 12.9474H14.98V13.4049H15.4275V12.9474Z" fill="black"/>
<path d="M15.4275 12.4999H14.98V12.9474H15.4275V12.4999Z" fill="#545454"/>
<path d="M14.9814 15.2061H14.5239V15.6636H14.9814V15.2061Z" fill="black"/>
<path d="M14.9814 14.7574H14.5239V15.2049H14.9814V14.7574Z" fill="#545454"/>
<path d="M14.9814 12.9474H14.5239V13.4049H14.9814V12.9474Z" fill="#545454"/>
<path d="M14.9814 12.4999H14.5239V12.9474H14.9814V12.4999Z" fill="black"/>
<path d="M14.9814 12.0511H14.5239V12.4986H14.9814V12.0511Z" fill="#545454"/>
<path d="M14.5227 15.2061H14.0752V15.6636H14.5227V15.2061Z" fill="#545454"/>
<path d="M14.5227 14.7574H14.0752V15.2049H14.5227V14.7574Z" fill="black"/>
<path d="M14.5227 14.3011H14.0752V14.7586H14.5227V14.3011Z" fill="#545454"/>
<path d="M14.5227 12.4999H14.0752V12.9474H14.5227V12.4999Z" fill="#545454"/>
<path d="M14.0749 14.7574H13.6274V15.2049H14.0749V14.7574Z" fill="#545454"/>
<path d="M14.0749 14.3011H13.6274V14.7586H14.0749V14.3011Z" fill="black"/>
<path d="M14.0749 13.8524H13.6274V14.2999H14.0749V13.8524Z" fill="#545454"/>
<path d="M13.6274 14.3011H13.1699V14.7586H13.6274V14.3011Z" fill="#545454"/>
<path d="M13.6274 13.8524H13.1699V14.2999H13.6274V13.8524Z" fill="black"/>
<path d="M13.6274 13.4049H13.1699V13.8524H13.6274V13.4049Z" fill="#545454"/>
<path d="M13.1702 13.8524H12.7227V14.2999H13.1702V13.8524Z" fill="#545454"/>
</g>
<defs>
<clipPath id="clip0_69_12156">
<rect width="50" height="50" fill="white" transform="translate(0 0.942383)"/>
</clipPath>
</defs>
</svg>
