<svg width="50" height="51" viewBox="0 0 50 51" fill="none" xmlns="http://www.w3.org/2000/svg">
<g clip-path="url(#clip0_69_12160)">
<path d="M48.2223 25.9424C48.2223 38.7674 37.8248 49.1649 24.9998 49.1649C12.1748 49.1649 1.77734 38.7674 1.77734 25.9424C1.77734 13.1174 12.1736 2.71991 24.9998 2.71991C37.8261 2.71991 48.2223 13.1174 48.2223 25.9424Z" fill="black"/>
<path d="M24.9998 50.0399C11.7123 50.0399 0.902344 39.2299 0.902344 25.9424C0.902344 12.6549 11.7123 1.84491 24.9998 1.84491C38.2873 1.84491 49.0973 12.6549 49.0973 25.9424C49.0973 39.2299 38.2873 50.0399 24.9998 50.0399ZM24.9998 3.59491C12.6773 3.59491 2.65234 13.6199 2.65234 25.9424C2.65234 38.2649 12.6773 48.2899 24.9998 48.2899C37.3223 48.2899 47.3473 38.2649 47.3473 25.9424C47.3473 13.6199 37.3223 3.59491 24.9998 3.59491Z" fill="#79B6EE"/>
<path d="M41.0137 20.8236H40.1787V21.6661H41.0137V20.8236Z" fill="black"/>
<path d="M41.0137 19.9899H40.1787V20.8249H41.0137V19.9899Z" fill="black"/>
<path d="M41.0137 19.1461H40.1787V19.9886H41.0137V19.1461Z" fill="black"/>
<path d="M40.1775 21.6674H39.335V22.5024H40.1775V21.6674Z" fill="black"/>
<path d="M40.1775 20.8236H39.335V21.6661H40.1775V20.8236Z" fill="#5B271D"/>
<path d="M40.1775 19.9899H39.335V20.8249H40.1775V19.9899Z" fill="#5B271D"/>
<path d="M40.1775 19.1461H39.335V19.9886H40.1775V19.1461Z" fill="#5B271D"/>
<path d="M40.1775 18.3137H39.335V19.1487H40.1775V18.3137Z" fill="black"/>
<path d="M39.3374 21.6674H38.5024V22.5024H39.3374V21.6674Z" fill="black"/>
<path d="M39.3374 20.8236H38.5024V21.6661H39.3374V20.8236Z" fill="#5B271D"/>
<path d="M39.3374 19.9899H38.5024V20.8249H39.3374V19.9899Z" fill="#5B271D"/>
<path d="M39.3374 19.1461H38.5024V19.9886H39.3374V19.1461Z" fill="black"/>
<path d="M38.5012 31.7374H37.6587V32.5724H38.5012V31.7374Z" fill="#B50012"/>
<path d="M38.5012 22.4999H37.6587V23.3424H38.5012V22.4999Z" fill="black"/>
<path d="M38.5012 21.6674H37.6587V22.5024H38.5012V21.6674Z" fill="black"/>
<path d="M38.5012 20.8236H37.6587V21.6661H38.5012V20.8236Z" fill="#5B271D"/>
<path d="M38.5012 19.9899H37.6587V20.8249H38.5012V19.9899Z" fill="black"/>
<path d="M37.66 32.5711H36.825V33.4136H37.66V32.5711Z" fill="#B50012"/>
<path d="M37.66 31.7374H36.825V32.5724H37.66V31.7374Z" fill="#B50012"/>
<path d="M37.66 22.4999H36.825V23.3424H37.66V22.4999Z" fill="black"/>
<path d="M37.66 21.6674H36.825V22.5024H37.66V21.6674Z" fill="#5B271D"/>
<path d="M37.66 20.8236H36.825V21.6661H37.66V20.8236Z" fill="#5B271D"/>
<path d="M37.66 19.9899H36.825V20.8249H37.66V19.9899Z" fill="black"/>
<path d="M37.66 16.6274H36.825V17.4699H37.66V16.6274Z" fill="black"/>
<path d="M37.66 15.7924H36.825V16.6274H37.66V15.7924Z" fill="black"/>
<path d="M37.66 14.9511H36.825V15.7936H37.66V14.9511Z" fill="black"/>
<path d="M36.8237 39.2874H35.9812V40.1224H36.8237V39.2874Z" fill="#B50012"/>
<path d="M36.8237 35.9249H35.9812V36.7674H36.8237V35.9249Z" fill="#B50012"/>
<path d="M36.8237 33.4149H35.9812V34.2499H36.8237V33.4149Z" fill="#B50012"/>
<path d="M36.8237 32.5711H35.9812V33.4136H36.8237V32.5711Z" fill="#727B9B"/>
<path d="M36.8237 31.7374H35.9812V32.5724H36.8237V31.7374Z" fill="#B50012"/>
<path d="M36.8237 23.3436H35.9812V24.1861H36.8237V23.3436Z" fill="black"/>
<path d="M36.8237 22.4999H35.9812V23.3424H36.8237V22.4999Z" fill="black"/>
<path d="M36.8237 21.6674H35.9812V22.5024H36.8237V21.6674Z" fill="#5B271D"/>
<path d="M36.8237 20.8236H35.9812V21.6661H36.8237V20.8236Z" fill="black"/>
<path d="M36.8237 18.3137H35.9812V19.1487H36.8237V18.3137Z" fill="black"/>
<path d="M36.8237 17.4699H35.9812V18.3124H36.8237V17.4699Z" fill="black"/>
<path d="M36.8237 16.6274H35.9812V17.4699H36.8237V16.6274Z" fill="black"/>
<path d="M36.8237 15.7924H35.9812V16.6274H36.8237V15.7924Z" fill="#5B271D"/>
<path d="M36.8237 14.9511H35.9812V15.7936H36.8237V14.9511Z" fill="black"/>
<path d="M35.9837 39.2874H35.1487V40.1224H35.9837V39.2874Z" fill="#B50012"/>
<path d="M35.9837 37.6111H35.1487V38.4461H35.9837V37.6111Z" fill="#B50012"/>
<path d="M35.9837 35.0911H35.1487V35.9261H35.9837V35.0911Z" fill="#B50012"/>
<path d="M35.9837 34.2474H35.1487V35.0899H35.9837V34.2474Z" fill="#B50012"/>
<path d="M35.9837 33.4149H35.1487V34.2499H35.9837V33.4149Z" fill="#727B9B"/>
<path d="M35.9837 32.5711H35.1487V33.4136H35.9837V32.5711Z" fill="#727B9B"/>
<path d="M35.9837 31.7374H35.1487V32.5724H35.9837V31.7374Z" fill="#B50012"/>
<path d="M35.9837 23.3436H35.1487V24.1861H35.9837V23.3436Z" fill="black"/>
<path d="M35.9837 22.4999H35.1487V23.3424H35.9837V22.4999Z" fill="#5B271D"/>
<path d="M35.9837 21.6674H35.1487V22.5024H35.9837V21.6674Z" fill="#5B271D"/>
<path d="M35.9837 20.8236H35.1487V21.6661H35.9837V20.8236Z" fill="black"/>
<path d="M35.9837 19.9899H35.1487V20.8249H35.9837V19.9899Z" fill="black"/>
<path d="M35.9837 19.1461H35.1487V19.9886H35.9837V19.1461Z" fill="black"/>
<path d="M35.9837 18.3137H35.1487V19.1487H35.9837V18.3137Z" fill="#5B271D"/>
<path d="M35.9837 17.4699H35.1487V18.3124H35.9837V17.4699Z" fill="#5B271D"/>
<path d="M35.9837 16.6274H35.1487V17.4699H35.9837V16.6274Z" fill="#5B271D"/>
<path d="M35.9837 15.7924H35.1487V16.6274H35.9837V15.7924Z" fill="black"/>
<path d="M35.9837 14.9511H35.1487V15.7936H35.9837V14.9511Z" fill="black"/>
<path d="M35.1474 39.2874H34.3049V40.1224H35.1474V39.2874Z" fill="#B50012"/>
<path d="M35.1474 38.4449H34.3049V39.2874H35.1474V38.4449Z" fill="#B50012"/>
<path d="M35.1474 34.2474H34.3049V35.0899H35.1474V34.2474Z" fill="#B50012"/>
<path d="M35.1474 33.4149H34.3049V34.2499H35.1474V33.4149Z" fill="#727B9B"/>
<path d="M35.1474 32.5711H34.3049V33.4136H35.1474V32.5711Z" fill="#727B9B"/>
<path d="M35.1474 31.7374H34.3049V32.5724H35.1474V31.7374Z" fill="#B50012"/>
<path d="M35.1474 23.3436H34.3049V24.1861H35.1474V23.3436Z" fill="black"/>
<path d="M35.1474 22.4999H34.3049V23.3424H35.1474V22.4999Z" fill="#5B271D"/>
<path d="M35.1474 21.6674H34.3049V22.5024H35.1474V21.6674Z" fill="black"/>
<path d="M35.1474 19.9899H34.3049V20.8249H35.1474V19.9899Z" fill="black"/>
<path d="M35.1474 19.1461H34.3049V19.9886H35.1474V19.1461Z" fill="#5B271D"/>
<path d="M35.1474 18.3137H34.3049V19.1487H35.1474V18.3137Z" fill="#5B271D"/>
<path d="M35.1474 17.4699H34.3049V18.3124H35.1474V17.4699Z" fill="#5B271D"/>
<path d="M35.1474 16.6274H34.3049V17.4699H35.1474V16.6274Z" fill="black"/>
<path d="M35.1474 15.7924H34.3049V16.6274H35.1474V15.7924Z" fill="black"/>
<path d="M34.3049 39.2874H33.4624V40.1224H34.3049V39.2874Z" fill="#B50012"/>
<path d="M34.3049 34.2474H33.4624V35.0899H34.3049V34.2474Z" fill="#B50012"/>
<path d="M34.3049 33.4149H33.4624V34.2499H34.3049V33.4149Z" fill="#727B9B"/>
<path d="M34.3049 32.5711H33.4624V33.4136H34.3049V32.5711Z" fill="#727B9B"/>
<path d="M34.3049 31.7374H33.4624V32.5724H34.3049V31.7374Z" fill="#B50012"/>
<path d="M34.3049 24.1862H33.4624V25.0212H34.3049V24.1862Z" fill="black"/>
<path d="M34.3049 23.3436H33.4624V24.1861H34.3049V23.3436Z" fill="#5B271D"/>
<path d="M34.3049 22.4999H33.4624V23.3424H34.3049V22.4999Z" fill="#5B271D"/>
<path d="M34.3049 21.6674H33.4624V22.5024H34.3049V21.6674Z" fill="black"/>
<path d="M34.3049 20.8236H33.4624V21.6661H34.3049V20.8236Z" fill="black"/>
<path d="M34.3049 19.9899H33.4624V20.8249H34.3049V19.9899Z" fill="black"/>
<path d="M34.3049 19.1461H33.4624V19.9886H34.3049V19.1461Z" fill="#5B271D"/>
<path d="M34.3049 18.3137H33.4624V19.1487H34.3049V18.3137Z" fill="#5B271D"/>
<path d="M34.3049 17.4699H33.4624V18.3124H34.3049V17.4699Z" fill="#5B271D"/>
<path d="M34.3049 16.6274H33.4624V17.4699H34.3049V16.6274Z" fill="black"/>
<path d="M33.4624 34.2474H32.6274V35.0899H33.4624V34.2474Z" fill="#B50012"/>
<path d="M33.4624 33.4149H32.6274V34.2499H33.4624V33.4149Z" fill="#B50012"/>
<path d="M33.4624 32.5711H32.6274V33.4136H33.4624V32.5711Z" fill="#727B9B"/>
<path d="M33.4624 31.7374H32.6274V32.5724H33.4624V31.7374Z" fill="#B50012"/>
<path d="M33.4624 24.1862H32.6274V25.0212H33.4624V24.1862Z" fill="black"/>
<path d="M33.4624 23.3436H32.6274V24.1861H33.4624V23.3436Z" fill="#5B271D"/>
<path d="M33.4624 22.4999H32.6274V23.3424H33.4624V22.4999Z" fill="black"/>
<path d="M33.4624 21.6674H32.6274V22.5024H33.4624V21.6674Z" fill="black"/>
<path d="M33.4624 20.8236H32.6274V21.6661H33.4624V20.8236Z" fill="black"/>
<path d="M33.4624 19.9899H32.6274V20.8249H33.4624V19.9899Z" fill="#5B271D"/>
<path d="M33.4624 19.1461H32.6274V19.9886H33.4624V19.1461Z" fill="#5B271D"/>
<path d="M33.4624 18.3137H32.6274V19.1487H33.4624V18.3137Z" fill="black"/>
<path d="M33.4624 17.4699H32.6274V18.3124H33.4624V17.4699Z" fill="black"/>
<path d="M33.4624 16.6274H32.6274V17.4699H33.4624V16.6274Z" fill="black"/>
<path d="M32.6274 33.4149H31.7849V34.2499H32.6274V33.4149Z" fill="#B50012"/>
<path d="M32.6274 32.5711H31.7849V33.4136H32.6274V32.5711Z" fill="#727B9B"/>
<path d="M32.6274 31.7374H31.7849V32.5724H32.6274V31.7374Z" fill="#727B9B"/>
<path d="M32.6274 30.8936H31.7849V31.7361H32.6274V30.8936Z" fill="#B50012"/>
<path d="M32.6274 25.0211H31.7849V25.8636H32.6274V25.0211Z" fill="black"/>
<path d="M32.6274 24.1862H31.7849V25.0212H32.6274V24.1862Z" fill="#5B271D"/>
<path d="M32.6274 23.3436H31.7849V24.1861H32.6274V23.3436Z" fill="#5B271D"/>
<path d="M32.6274 22.4999H31.7849V23.3424H32.6274V22.4999Z" fill="black"/>
<path d="M32.6274 21.6674H31.7849V22.5024H32.6274V21.6674Z" fill="#5B271D"/>
<path d="M32.6274 20.8236H31.7849V21.6661H32.6274V20.8236Z" fill="#5B271D"/>
<path d="M32.6274 19.9899H31.7849V20.8249H32.6274V19.9899Z" fill="#5B271D"/>
<path d="M32.6274 19.1461H31.7849V19.9886H32.6274V19.1461Z" fill="#5B271D"/>
<path d="M32.6274 18.3137H31.7849V19.1487H32.6274V18.3137Z" fill="black"/>
<path d="M31.7862 32.5711H30.9512V33.4136H31.7862V32.5711Z" fill="#B50012"/>
<path d="M31.7862 31.7374H30.9512V32.5724H31.7862V31.7374Z" fill="#727B9B"/>
<path d="M31.7862 30.8936H30.9512V31.7361H31.7862V30.8936Z" fill="#727B9B"/>
<path d="M31.7862 30.0511H30.9512V30.8936H31.7862V30.0511Z" fill="black"/>
<path d="M31.7862 29.2174H30.9512V30.0524H31.7862V29.2174Z" fill="black"/>
<path d="M31.7862 28.3749H30.9512V29.2174H31.7862V28.3749Z" fill="black"/>
<path d="M31.7862 27.5399H30.9512V28.3749H31.7862V27.5399Z" fill="black"/>
<path d="M31.7862 26.6974H30.9512V27.5399H31.7862V26.6974Z" fill="black"/>
<path d="M31.7862 25.0211H30.9512V25.8636H31.7862V25.0211Z" fill="black"/>
<path d="M31.7862 24.1862H30.9512V25.0212H31.7862V24.1862Z" fill="#5B271D"/>
<path d="M31.7862 23.3436H30.9512V24.1861H31.7862V23.3436Z" fill="#5B271D"/>
<path d="M31.7862 22.4999H30.9512V23.3424H31.7862V22.4999Z" fill="black"/>
<path d="M31.7862 21.6674H30.9512V22.5024H31.7862V21.6674Z" fill="#5B271D"/>
<path d="M31.7862 20.8236H30.9512V21.6661H31.7862V20.8236Z" fill="black"/>
<path d="M31.7862 19.9899H30.9512V20.8249H31.7862V19.9899Z" fill="black"/>
<path d="M31.7862 19.1461H30.9512V19.9886H31.7862V19.1461Z" fill="black"/>
<path d="M31.7862 18.3137H30.9512V19.1487H31.7862V18.3137Z" fill="black"/>
<path d="M30.9511 31.7374H30.1086V32.5724H30.9511V31.7374Z" fill="#B50012"/>
<path d="M30.9511 30.8936H30.1086V31.7361H30.9511V30.8936Z" fill="#727B9B"/>
<path d="M30.9511 30.0511H30.1086V30.8936H30.9511V30.0511Z" fill="black"/>
<path d="M30.9511 29.2174H30.1086V30.0524H30.9511V29.2174Z" fill="black"/>
<path d="M30.9511 28.3749H30.1086V29.2174H30.9511V28.3749Z" fill="#507993"/>
<path d="M30.9511 27.5399H30.1086V28.3749H30.9511V27.5399Z" fill="#507993"/>
<path d="M30.9511 26.6974H30.1086V27.5399H30.9511V26.6974Z" fill="black"/>
<path d="M30.9511 25.8636H30.1086V26.6986H30.9511V25.8636Z" fill="black"/>
<path d="M30.9511 24.1862H30.1086V25.0212H30.9511V24.1862Z" fill="black"/>
<path d="M30.9511 23.3436H30.1086V24.1861H30.9511V23.3436Z" fill="#5B271D"/>
<path d="M30.9511 22.4999H30.1086V23.3424H30.9511V22.4999Z" fill="black"/>
<path d="M30.9511 21.6674H30.1086V22.5024H30.9511V21.6674Z" fill="#5B271D"/>
<path d="M30.9511 20.8236H30.1086V21.6661H30.9511V20.8236Z" fill="black"/>
<path d="M30.1087 30.8936H29.2737V31.7361H30.1087V30.8936Z" fill="black"/>
<path d="M30.1087 30.0511H29.2737V30.8936H30.1087V30.0511Z" fill="black"/>
<path d="M30.1087 29.2174H29.2737V30.0524H30.1087V29.2174Z" fill="#E0AD86"/>
<path d="M30.1087 28.3749H29.2737V29.2174H30.1087V28.3749Z" fill="#79B6EE"/>
<path d="M30.1087 27.5399H29.2737V28.3749H30.1087V27.5399Z" fill="#507993"/>
<path d="M30.1087 26.6974H29.2737V27.5399H30.1087V26.6974Z" fill="#507993"/>
<path d="M30.1087 25.8636H29.2737V26.6986H30.1087V25.8636Z" fill="black"/>
<path d="M30.1087 25.0211H29.2737V25.8636H30.1087V25.0211Z" fill="black"/>
<path d="M30.1087 23.3436H29.2737V24.1861H30.1087V23.3436Z" fill="black"/>
<path d="M30.1087 22.4999H29.2737V23.3424H30.1087V22.4999Z" fill="black"/>
<path d="M30.1087 21.6674H29.2737V22.5024H30.1087V21.6674Z" fill="black"/>
<path d="M30.1087 20.8236H29.2737V21.6661H30.1087V20.8236Z" fill="black"/>
<path d="M30.1087 19.9899H29.2737V20.8249H30.1087V19.9899Z" fill="black"/>
<path d="M30.1087 19.1461H29.2737V19.9886H30.1087V19.1461Z" fill="black"/>
<path d="M30.1087 18.3137H29.2737V19.1487H30.1087V18.3137Z" fill="black"/>
<path d="M30.1087 17.4699H29.2737V18.3124H30.1087V17.4699Z" fill="black"/>
<path d="M30.1087 16.6274H29.2737V17.4699H30.1087V16.6274Z" fill="black"/>
<path d="M30.1087 15.7924H29.2737V16.6274H30.1087V15.7924Z" fill="black"/>
<path d="M30.1087 14.9511H29.2737V15.7936H30.1087V14.9511Z" fill="black"/>
<path d="M29.2737 30.8936H28.4312V31.7361H29.2737V30.8936Z" fill="black"/>
<path d="M29.2737 30.0511H28.4312V30.8936H29.2737V30.0511Z" fill="#E0AD86"/>
<path d="M29.2737 29.2174H28.4312V30.0524H29.2737V29.2174Z" fill="#E0AD86"/>
<path d="M29.2737 28.3749H28.4312V29.2174H29.2737V28.3749Z" fill="#E0AD86"/>
<path d="M29.2737 27.5399H28.4312V28.3749H29.2737V27.5399Z" fill="#679EC6"/>
<path d="M29.2737 26.6974H28.4312V27.5399H29.2737V26.6974Z" fill="#507993"/>
<path d="M29.2737 25.8636H28.4312V26.6986H29.2737V25.8636Z" fill="#507993"/>
<path d="M29.2737 25.0211H28.4312V25.8636H29.2737V25.0211Z" fill="black"/>
<path d="M29.2737 24.1862H28.4312V25.0212H29.2737V24.1862Z" fill="black"/>
<path d="M29.2737 23.3436H28.4312V24.1861H29.2737V23.3436Z" fill="black"/>
<path d="M29.2737 22.4999H28.4312V23.3424H29.2737V22.4999Z" fill="#60342E"/>
<path d="M29.2737 21.6674H28.4312V22.5024H29.2737V21.6674Z" fill="black"/>
<path d="M29.2737 20.8236H28.4312V21.6661H29.2737V20.8236Z" fill="black"/>
<path d="M29.2737 19.9899H28.4312V20.8249H29.2737V19.9899Z" fill="black"/>
<path d="M29.2737 19.1461H28.4312V19.9886H29.2737V19.1461Z" fill="black"/>
<path d="M29.2737 18.3137H28.4312V19.1487H29.2737V18.3137Z" fill="#507993"/>
<path d="M29.2737 17.4699H28.4312V18.3124H29.2737V17.4699Z" fill="#507993"/>
<path d="M29.2737 16.6274H28.4312V17.4699H29.2737V16.6274Z" fill="#507993"/>
<path d="M29.2737 15.7924H28.4312V16.6274H29.2737V15.7924Z" fill="black"/>
<path d="M29.2737 14.9511H28.4312V15.7936H29.2737V14.9511Z" fill="black"/>
<path d="M29.2737 14.1161H28.4312V14.9511H29.2737V14.1161Z" fill="black"/>
<path d="M28.4299 39.2874H27.5874V40.1224H28.4299V39.2874Z" fill="black"/>
<path d="M28.4299 38.4449H27.5874V39.2874H28.4299V38.4449Z" fill="black"/>
<path d="M28.4299 37.6111H27.5874V38.4461H28.4299V37.6111Z" fill="black"/>
<path d="M28.4299 36.7686H27.5874V37.6111H28.4299V36.7686Z" fill="black"/>
<path d="M28.4299 35.9249H27.5874V36.7674H28.4299V35.9249Z" fill="black"/>
<path d="M28.4299 35.0911H27.5874V35.9261H28.4299V35.0911Z" fill="black"/>
<path d="M28.4299 34.2474H27.5874V35.0899H28.4299V34.2474Z" fill="black"/>
<path d="M28.4299 30.8936H27.5874V31.7361H28.4299V30.8936Z" fill="black"/>
<path d="M28.4299 30.0511H27.5874V30.8936H28.4299V30.0511Z" fill="#E0AD86"/>
<path d="M28.4299 29.2174H27.5874V30.0524H28.4299V29.2174Z" fill="#E0AD86"/>
<path d="M28.4299 28.3749H27.5874V29.2174H28.4299V28.3749Z" fill="#E0AD86"/>
<path d="M28.4299 27.5399H27.5874V28.3749H28.4299V27.5399Z" fill="#679EC6"/>
<path d="M28.4299 26.6974H27.5874V27.5399H28.4299V26.6974Z" fill="#679EC6"/>
<path d="M28.4299 25.8636H27.5874V26.6986H28.4299V25.8636Z" fill="#507993"/>
<path d="M28.4299 25.0211H27.5874V25.8636H28.4299V25.0211Z" fill="#507993"/>
<path d="M28.4299 24.1862H27.5874V25.0212H28.4299V24.1862Z" fill="black"/>
<path d="M28.4299 23.3436H27.5874V24.1861H28.4299V23.3436Z" fill="#60342E"/>
<path d="M28.4299 22.4999H27.5874V23.3424H28.4299V22.4999Z" fill="#60342E"/>
<path d="M28.4299 21.6674H27.5874V22.5024H28.4299V21.6674Z" fill="#60342E"/>
<path d="M28.4299 20.8236H27.5874V21.6661H28.4299V20.8236Z" fill="black"/>
<path d="M28.4299 19.9899H27.5874V20.8249H28.4299V19.9899Z" fill="black"/>
<path d="M28.4299 19.1461H27.5874V19.9886H28.4299V19.1461Z" fill="#507993"/>
<path d="M28.4299 18.3137H27.5874V19.1487H28.4299V18.3137Z" fill="#679EC6"/>
<path d="M28.4299 17.4699H27.5874V18.3124H28.4299V17.4699Z" fill="#679EC6"/>
<path d="M28.4299 16.6274H27.5874V17.4699H28.4299V16.6274Z" fill="#679EC6"/>
<path d="M28.4299 15.7924H27.5874V16.6274H28.4299V15.7924Z" fill="#507993"/>
<path d="M28.4299 14.9511H27.5874V15.7936H28.4299V14.9511Z" fill="#507993"/>
<path d="M28.4299 14.1161H27.5874V14.9511H28.4299V14.1161Z" fill="black"/>
<path d="M28.4299 13.2736H27.5874V14.1161H28.4299V13.2736Z" fill="black"/>
<path d="M27.5899 39.2874H26.7549V40.1224H27.5899V39.2874Z" fill="black"/>
<path d="M27.5899 38.4449H26.7549V39.2874H27.5899V38.4449Z" fill="#60401E"/>
<path d="M27.5899 37.6111H26.7549V38.4461H27.5899V37.6111Z" fill="#60401E"/>
<path d="M27.5899 36.7686H26.7549V37.6111H27.5899V36.7686Z" fill="#60401E"/>
<path d="M27.5899 35.9249H26.7549V36.7674H27.5899V35.9249Z" fill="#1C323A"/>
<path d="M27.5899 35.0911H26.7549V35.9261H27.5899V35.0911Z" fill="#1C323A"/>
<path d="M27.5899 34.2474H26.7549V35.0899H27.5899V34.2474Z" fill="black"/>
<path d="M27.5899 33.4149H26.7549V34.2499H27.5899V33.4149Z" fill="black"/>
<path d="M27.5899 32.5711H26.7549V33.4136H27.5899V32.5711Z" fill="black"/>
<path d="M27.5899 31.7374H26.7549V32.5724H27.5899V31.7374Z" fill="black"/>
<path d="M27.5899 30.8936H26.7549V31.7361H27.5899V30.8936Z" fill="black"/>
<path d="M27.5899 30.0511H26.7549V30.8936H27.5899V30.0511Z" fill="black"/>
<path d="M27.5899 29.2174H26.7549V30.0524H27.5899V29.2174Z" fill="black"/>
<path d="M27.5899 28.3749H26.7549V29.2174H27.5899V28.3749Z" fill="black"/>
<path d="M27.5899 27.5399H26.7549V28.3749H27.5899V27.5399Z" fill="#679EC6"/>
<path d="M27.5899 26.6974H26.7549V27.5399H27.5899V26.6974Z" fill="#679EC6"/>
<path d="M27.5899 25.8636H26.7549V26.6986H27.5899V25.8636Z" fill="#679EC6"/>
<path d="M27.5899 25.0211H26.7549V25.8636H27.5899V25.0211Z" fill="#507993"/>
<path d="M27.5899 24.1862H26.7549V25.0212H27.5899V24.1862Z" fill="#507993"/>
<path d="M27.5899 23.3436H26.7549V24.1861H27.5899V23.3436Z" fill="black"/>
<path d="M27.5899 22.4999H26.7549V23.3424H27.5899V22.4999Z" fill="#60342E"/>
<path d="M27.5899 21.6674H26.7549V22.5024H27.5899V21.6674Z" fill="black"/>
<path d="M27.5899 20.8236H26.7549V21.6661H27.5899V20.8236Z" fill="#6D4541"/>
<path d="M27.5899 19.9899H26.7549V20.8249H27.5899V19.9899Z" fill="#6D4541"/>
<path d="M27.5899 19.1461H26.7549V19.9886H27.5899V19.1461Z" fill="#679EC6"/>
<path d="M27.5899 18.3137H26.7549V19.1487H27.5899V18.3137Z" fill="#679EC6"/>
<path d="M27.5899 17.4699H26.7549V18.3124H27.5899V17.4699Z" fill="#679EC6"/>
<path d="M27.5899 16.6274H26.7549V17.4699H27.5899V16.6274Z" fill="#679EC6"/>
<path d="M27.5899 15.7924H26.7549V16.6274H27.5899V15.7924Z" fill="#679EC6"/>
<path d="M27.5899 14.9511H26.7549V15.7936H27.5899V14.9511Z" fill="#507993"/>
<path d="M27.5899 14.1161H26.7549V14.9511H27.5899V14.1161Z" fill="#507993"/>
<path d="M27.5899 13.2736H26.7549V14.1161H27.5899V13.2736Z" fill="black"/>
<path d="M27.5899 12.4387H26.7549V13.2737H27.5899V12.4387Z" fill="black"/>
<path d="M26.7551 39.2874H25.9126V40.1224H26.7551V39.2874Z" fill="black"/>
<path d="M26.7551 38.4449H25.9126V39.2874H26.7551V38.4449Z" fill="#60401E"/>
<path d="M26.7551 37.6111H25.9126V38.4461H26.7551V37.6111Z" fill="#60401E"/>
<path d="M26.7551 36.7686H25.9126V37.6111H26.7551V36.7686Z" fill="#354D59"/>
<path d="M26.7551 35.9249H25.9126V36.7674H26.7551V35.9249Z" fill="#354D59"/>
<path d="M26.7551 35.0911H25.9126V35.9261H26.7551V35.0911Z" fill="#1C323A"/>
<path d="M26.7551 34.2474H25.9126V35.0899H26.7551V34.2474Z" fill="#1C323A"/>
<path d="M26.7551 33.4149H25.9126V34.2499H26.7551V33.4149Z" fill="#1C323A"/>
<path d="M26.7551 32.5711H25.9126V33.4136H26.7551V32.5711Z" fill="#1C323A"/>
<path d="M26.7551 31.7374H25.9126V32.5724H26.7551V31.7374Z" fill="#1C323A"/>
<path d="M26.7551 30.8936H25.9126V31.7361H26.7551V30.8936Z" fill="#1C323A"/>
<path d="M26.7551 30.0511H25.9126V30.8936H26.7551V30.0511Z" fill="#1C323A"/>
<path d="M26.7551 29.2174H25.9126V30.0524H26.7551V29.2174Z" fill="#507993"/>
<path d="M26.7551 28.3749H25.9126V29.2174H26.7551V28.3749Z" fill="black"/>
<path d="M26.7551 27.5399H25.9126V28.3749H26.7551V27.5399Z" fill="black"/>
<path d="M26.7551 26.6974H25.9126V27.5399H26.7551V26.6974Z" fill="#679EC6"/>
<path d="M26.7551 25.8636H25.9126V26.6986H26.7551V25.8636Z" fill="#679EC6"/>
<path d="M26.7551 25.0211H25.9126V25.8636H26.7551V25.0211Z" fill="#679EC6"/>
<path d="M26.7551 24.1862H25.9126V25.0212H26.7551V24.1862Z" fill="#507993"/>
<path d="M26.7551 23.3436H25.9126V24.1861H26.7551V23.3436Z" fill="#507993"/>
<path d="M26.7551 22.4999H25.9126V23.3424H26.7551V22.4999Z" fill="black"/>
<path d="M26.7551 21.6674H25.9126V22.5024H26.7551V21.6674Z" fill="#6D4541"/>
<path d="M26.7551 20.8236H25.9126V21.6661H26.7551V20.8236Z" fill="#6D4541"/>
<path d="M26.7551 19.9899H25.9126V20.8249H26.7551V19.9899Z" fill="#79B6EE"/>
<path d="M26.7551 19.1461H25.9126V19.9886H26.7551V19.1461Z" fill="#BA7D54"/>
<path d="M26.7551 18.3137H25.9126V19.1487H26.7551V18.3137Z" fill="#BA7D54"/>
<path d="M26.7551 17.4699H25.9126V18.3124H26.7551V17.4699Z" fill="#BA7D54"/>
<path d="M26.7551 16.6274H25.9126V17.4699H26.7551V16.6274Z" fill="#679EC6"/>
<path d="M26.7551 15.7924H25.9126V16.6274H26.7551V15.7924Z" fill="#679EC6"/>
<path d="M26.7551 14.9511H25.9126V15.7936H26.7551V14.9511Z" fill="#679EC6"/>
<path d="M26.7551 14.1161H25.9126V14.9511H26.7551V14.1161Z" fill="#507993"/>
<path d="M26.7551 13.2736H25.9126V14.1161H26.7551V13.2736Z" fill="#507993"/>
<path d="M26.7551 12.4387H25.9126V13.2737H26.7551V12.4387Z" fill="black"/>
<path d="M25.9124 39.2874H25.0774V40.1224H25.9124V39.2874Z" fill="black"/>
<path d="M25.9124 38.4449H25.0774V39.2874H25.9124V38.4449Z" fill="black"/>
<path d="M25.9124 37.6111H25.0774V38.4461H25.9124V37.6111Z" fill="black"/>
<path d="M25.9124 36.7686H25.0774V37.6111H25.9124V36.7686Z" fill="black"/>
<path d="M25.9124 35.9249H25.0774V36.7674H25.9124V35.9249Z" fill="#354D59"/>
<path d="M25.9124 35.0911H25.0774V35.9261H25.9124V35.0911Z" fill="#354D59"/>
<path d="M25.9124 34.2474H25.0774V35.0899H25.9124V34.2474Z" fill="#354D59"/>
<path d="M25.9124 33.4149H25.0774V34.2499H25.9124V33.4149Z" fill="#354D59"/>
<path d="M25.9124 32.5711H25.0774V33.4136H25.9124V32.5711Z" fill="#354D59"/>
<path d="M25.9124 31.7374H25.0774V32.5724H25.9124V31.7374Z" fill="#1C323A"/>
<path d="M25.9124 30.8936H25.0774V31.7361H25.9124V30.8936Z" fill="#1C323A"/>
<path d="M25.9124 30.0511H25.0774V30.8936H25.9124V30.0511Z" fill="#507993"/>
<path d="M25.9124 29.2174H25.0774V30.0524H25.9124V29.2174Z" fill="#507993"/>
<path d="M25.9124 28.3749H25.0774V29.2174H25.9124V28.3749Z" fill="#507993"/>
<path d="M25.9124 27.5399H25.0774V28.3749H25.9124V27.5399Z" fill="#79B6EE"/>
<path d="M25.9124 26.6974H25.0774V27.5399H25.9124V26.6974Z" fill="#679EC6"/>
<path d="M25.9124 25.8636H25.0774V26.6986H25.9124V25.8636Z" fill="#679EC6"/>
<path d="M25.9124 25.0211H25.0774V25.8636H25.9124V25.0211Z" fill="#679EC6"/>
<path d="M25.9124 24.1862H25.0774V25.0212H25.9124V24.1862Z" fill="#79B6EE"/>
<path d="M25.9124 23.3436H25.0774V24.1861H25.9124V23.3436Z" fill="#507993"/>
<path d="M25.9124 22.4999H25.0774V23.3424H25.9124V22.4999Z" fill="#6D4541"/>
<path d="M25.9124 21.6674H25.0774V22.5024H25.9124V21.6674Z" fill="#6D4541"/>
<path d="M25.9124 20.8236H25.0774V21.6661H25.9124V20.8236Z" fill="#BA7D54"/>
<path d="M25.9124 19.9899H25.0774V20.8249H25.9124V19.9899Z" fill="#BA7D54"/>
<path d="M25.9124 19.1461H25.0774V19.9886H25.9124V19.1461Z" fill="#BA7D54"/>
<path d="M25.9124 18.3137H25.0774V19.1487H25.9124V18.3137Z" fill="#BA7D54"/>
<path d="M25.9124 17.4699H25.0774V18.3124H25.9124V17.4699Z" fill="#1C1C1C"/>
<path d="M25.9124 16.6274H25.0774V17.4699H25.9124V16.6274Z" fill="#1C1C1C"/>
<path d="M25.9124 15.7924H25.0774V16.6274H25.9124V15.7924Z" fill="#507993"/>
<path d="M25.9124 14.9511H25.0774V15.7936H25.9124V14.9511Z" fill="#679EC6"/>
<path d="M25.9124 14.1161H25.0774V14.9511H25.9124V14.1161Z" fill="#679EC6"/>
<path d="M25.9124 13.2736H25.0774V14.1161H25.9124V13.2736Z" fill="#507993"/>
<path d="M25.9124 12.4387H25.0774V13.2737H25.9124V12.4387Z" fill="#507993"/>
<path d="M25.9124 11.5961H25.0774V12.4386H25.9124V11.5961Z" fill="black"/>
<path d="M25.0761 39.2874H24.2336V40.1224H25.0761V39.2874Z" fill="black"/>
<path d="M25.0761 35.9249H24.2336V36.7674H25.0761V35.9249Z" fill="black"/>
<path d="M25.0761 35.0911H24.2336V35.9261H25.0761V35.0911Z" fill="black"/>
<path d="M25.0761 34.2474H24.2336V35.0899H25.0761V34.2474Z" fill="#354D59"/>
<path d="M25.0761 33.4149H24.2336V34.2499H25.0761V33.4149Z" fill="#354D59"/>
<path d="M25.0761 32.5711H24.2336V33.4136H25.0761V32.5711Z" fill="#354D59"/>
<path d="M25.0761 31.7374H24.2336V32.5724H25.0761V31.7374Z" fill="#354D59"/>
<path d="M25.0761 30.8936H24.2336V31.7361H25.0761V30.8936Z" fill="#1C323A"/>
<path d="M25.0761 30.0511H24.2336V30.8936H25.0761V30.0511Z" fill="#507993"/>
<path d="M25.0761 29.2174H24.2336V30.0524H25.0761V29.2174Z" fill="#507993"/>
<path d="M25.0761 28.3749H24.2336V29.2174H25.0761V28.3749Z" fill="#679EC6"/>
<path d="M25.0761 27.5399H24.2336V28.3749H25.0761V27.5399Z" fill="#679EC6"/>
<path d="M25.0761 26.6974H24.2336V27.5399H25.0761V26.6974Z" fill="#679EC6"/>
<path d="M25.0761 25.8636H24.2336V26.6986H25.0761V25.8636Z" fill="#679EC6"/>
<path d="M25.0761 25.0211H24.2336V25.8636H25.0761V25.0211Z" fill="#679EC6"/>
<path d="M25.0761 24.1862H24.2336V25.0212H25.0761V24.1862Z" fill="#679EC6"/>
<path d="M25.0761 23.3436H24.2336V24.1861H25.0761V23.3436Z" fill="#679EC6"/>
<path d="M25.0761 22.4999H24.2336V23.3424H25.0761V22.4999Z" fill="#6D4541"/>
<path d="M25.0761 21.6674H24.2336V22.5024H25.0761V21.6674Z" fill="#6D4541"/>
<path d="M25.0761 20.8236H24.2336V21.6661H25.0761V20.8236Z" fill="#E0AD86"/>
<path d="M25.0761 19.9899H24.2336V20.8249H25.0761V19.9899Z" fill="#E0AD86"/>
<path d="M25.0761 19.1461H24.2336V19.9886H25.0761V19.1461Z" fill="#E0AD86"/>
<path d="M25.0761 18.3137H24.2336V19.1487H25.0761V18.3137Z" fill="#BA7D54"/>
<path d="M25.0761 17.4699H24.2336V18.3124H25.0761V17.4699Z" fill="#1C1C1C"/>
<path d="M25.0761 16.6274H24.2336V17.4699H25.0761V16.6274Z" fill="#545453"/>
<path d="M25.0761 15.7924H24.2336V16.6274H25.0761V15.7924Z" fill="#507993"/>
<path d="M25.0761 14.9511H24.2336V15.7936H25.0761V14.9511Z" fill="#679EC6"/>
<path d="M25.0761 14.1161H24.2336V14.9511H25.0761V14.1161Z" fill="#679EC6"/>
<path d="M25.0761 13.2736H24.2336V14.1161H25.0761V13.2736Z" fill="#679EC6"/>
<path d="M25.0761 12.4387H24.2336V13.2737H25.0761V12.4387Z" fill="#507993"/>
<path d="M25.0761 11.5961H24.2336V12.4386H25.0761V11.5961Z" fill="black"/>
<path d="M25.0761 10.7624H24.2336V11.5974H25.0761V10.7624Z" fill="black"/>
<path d="M24.2364 35.0911H23.4014V35.9261H24.2364V35.0911Z" fill="black"/>
<path d="M24.2364 34.2474H23.4014V35.0899H24.2364V34.2474Z" fill="#1C323A"/>
<path d="M24.2364 33.4149H23.4014V34.2499H24.2364V33.4149Z" fill="#354D59"/>
<path d="M24.2364 32.5711H23.4014V33.4136H24.2364V32.5711Z" fill="#354D59"/>
<path d="M24.2364 31.7374H23.4014V32.5724H24.2364V31.7374Z" fill="#354D59"/>
<path d="M24.2364 30.8936H23.4014V31.7361H24.2364V30.8936Z" fill="#1C323A"/>
<path d="M24.2364 30.0511H23.4014V30.8936H24.2364V30.0511Z" fill="#507993"/>
<path d="M24.2364 29.2174H23.4014V30.0524H24.2364V29.2174Z" fill="#79B6EE"/>
<path d="M24.2364 28.3749H23.4014V29.2174H24.2364V28.3749Z" fill="#679EC6"/>
<path d="M24.2364 27.5399H23.4014V28.3749H24.2364V27.5399Z" fill="#679EC6"/>
<path d="M24.2364 26.6974H23.4014V27.5399H24.2364V26.6974Z" fill="#679EC6"/>
<path d="M24.2364 25.8636H23.4014V26.6986H24.2364V25.8636Z" fill="#679EC6"/>
<path d="M24.2364 25.0211H23.4014V25.8636H24.2364V25.0211Z" fill="#679EC6"/>
<path d="M24.2364 24.1862H23.4014V25.0212H24.2364V24.1862Z" fill="#679EC6"/>
<path d="M24.2364 23.3436H23.4014V24.1861H24.2364V23.3436Z" fill="#679EC6"/>
<path d="M24.2364 22.4999H23.4014V23.3424H24.2364V22.4999Z" fill="#6D4541"/>
<path d="M24.2364 21.6674H23.4014V22.5024H24.2364V21.6674Z" fill="#6D4541"/>
<path d="M24.2364 20.8236H23.4014V21.6661H24.2364V20.8236Z" fill="#E0AD86"/>
<path d="M24.2364 19.9899H23.4014V20.8249H24.2364V19.9899Z" fill="#E0AD86"/>
<path d="M24.2364 19.1461H23.4014V19.9886H24.2364V19.1461Z" fill="#E0AD86"/>
<path d="M24.2364 18.3137H23.4014V19.1487H24.2364V18.3137Z" fill="#BA7D54"/>
<path d="M24.2364 17.4699H23.4014V18.3124H24.2364V17.4699Z" fill="#BA7D54"/>
<path d="M24.2364 16.6274H23.4014V17.4699H24.2364V16.6274Z" fill="#507993"/>
<path d="M24.2364 15.7924H23.4014V16.6274H24.2364V15.7924Z" fill="#679EC6"/>
<path d="M24.2364 14.9511H23.4014V15.7936H24.2364V14.9511Z" fill="#679EC6"/>
<path d="M24.2364 14.1161H23.4014V14.9511H24.2364V14.1161Z" fill="#679EC6"/>
<path d="M24.2364 13.2736H23.4014V14.1161H24.2364V13.2736Z" fill="#679EC6"/>
<path d="M24.2364 12.4387H23.4014V13.2737H24.2364V12.4387Z" fill="#679EC6"/>
<path d="M24.2364 11.5961H23.4014V12.4386H24.2364V11.5961Z" fill="#507993"/>
<path d="M24.2364 10.7624H23.4014V11.5974H24.2364V10.7624Z" fill="black"/>
<path d="M23.4001 39.2874H22.5576V40.1224H23.4001V39.2874Z" fill="black"/>
<path d="M23.4001 38.4449H22.5576V39.2874H23.4001V38.4449Z" fill="black"/>
<path d="M23.4001 37.6111H22.5576V38.4461H23.4001V37.6111Z" fill="black"/>
<path d="M23.4001 36.7686H22.5576V37.6111H23.4001V36.7686Z" fill="black"/>
<path d="M23.4001 35.9249H22.5576V36.7674H23.4001V35.9249Z" fill="black"/>
<path d="M23.4001 35.0911H22.5576V35.9261H23.4001V35.0911Z" fill="black"/>
<path d="M23.4001 34.2474H22.5576V35.0899H23.4001V34.2474Z" fill="#1C323A"/>
<path d="M23.4001 33.4149H22.5576V34.2499H23.4001V33.4149Z" fill="#1C323A"/>
<path d="M23.4001 32.5711H22.5576V33.4136H23.4001V32.5711Z" fill="#1C323A"/>
<path d="M23.4001 31.7374H22.5576V32.5724H23.4001V31.7374Z" fill="#354D59"/>
<path d="M23.4001 30.8936H22.5576V31.7361H23.4001V30.8936Z" fill="#354D59"/>
<path d="M23.4001 30.0511H22.5576V30.8936H23.4001V30.0511Z" fill="#507993"/>
<path d="M23.4001 29.2174H22.5576V30.0524H23.4001V29.2174Z" fill="#679EC6"/>
<path d="M23.4001 28.3749H22.5576V29.2174H23.4001V28.3749Z" fill="#79B6EE"/>
<path d="M23.4001 27.5399H22.5576V28.3749H23.4001V27.5399Z" fill="#79B6EE"/>
<path d="M23.4001 26.6974H22.5576V27.5399H23.4001V26.6974Z" fill="#679EC6"/>
<path d="M23.4001 25.8636H22.5576V26.6986H23.4001V25.8636Z" fill="#679EC6"/>
<path d="M23.4001 25.0211H22.5576V25.8636H23.4001V25.0211Z" fill="#679EC6"/>
<path d="M23.4001 24.1862H22.5576V25.0212H23.4001V24.1862Z" fill="#679EC6"/>
<path d="M23.4001 23.3436H22.5576V24.1861H23.4001V23.3436Z" fill="#679EC6"/>
<path d="M23.4001 22.4999H22.5576V23.3424H23.4001V22.4999Z" fill="#6D4541"/>
<path d="M23.4001 21.6674H22.5576V22.5024H23.4001V21.6674Z" fill="#6D4541"/>
<path d="M23.4001 20.8236H22.5576V21.6661H23.4001V20.8236Z" fill="#E0AD86"/>
<path d="M23.4001 19.9899H22.5576V20.8249H23.4001V19.9899Z" fill="#E0AD86"/>
<path d="M23.4001 19.1461H22.5576V19.9886H23.4001V19.1461Z" fill="#E0AD86"/>
<path d="M23.4001 18.3137H22.5576V19.1487H23.4001V18.3137Z" fill="#BA7D54"/>
<path d="M23.4001 17.4699H22.5576V18.3124H23.4001V17.4699Z" fill="#507993"/>
<path d="M23.4001 16.6274H22.5576V17.4699H23.4001V16.6274Z" fill="#679EC6"/>
<path d="M23.4001 15.7924H22.5576V16.6274H23.4001V15.7924Z" fill="#679EC6"/>
<path d="M23.4001 14.9511H22.5576V15.7936H23.4001V14.9511Z" fill="#679EC6"/>
<path d="M23.4001 14.1161H22.5576V14.9511H23.4001V14.1161Z" fill="#679EC6"/>
<path d="M23.4001 13.2736H22.5576V14.1161H23.4001V13.2736Z" fill="#79B6EE"/>
<path d="M23.4001 12.4387H22.5576V13.2737H23.4001V12.4387Z" fill="#79B6EE"/>
<path d="M23.4001 11.5961H22.5576V12.4386H23.4001V11.5961Z" fill="black"/>
<path d="M23.4001 10.7624H22.5576V11.5974H23.4001V10.7624Z" fill="black"/>
<path d="M22.5586 39.2874H21.7236V40.1224H22.5586V39.2874Z" fill="black"/>
<path d="M22.5586 38.4449H21.7236V39.2874H22.5586V38.4449Z" fill="#60401E"/>
<path d="M22.5586 37.6111H21.7236V38.4461H22.5586V37.6111Z" fill="#60401E"/>
<path d="M22.5586 36.7686H21.7236V37.6111H22.5586V36.7686Z" fill="#60401E"/>
<path d="M22.5586 35.9249H21.7236V36.7674H22.5586V35.9249Z" fill="#60401E"/>
<path d="M22.5586 35.0911H21.7236V35.9261H22.5586V35.0911Z" fill="#354D59"/>
<path d="M22.5586 34.2474H21.7236V35.0899H22.5586V34.2474Z" fill="#354D59"/>
<path d="M22.5586 33.4149H21.7236V34.2499H22.5586V33.4149Z" fill="#354D59"/>
<path d="M22.5586 32.5711H21.7236V33.4136H22.5586V32.5711Z" fill="#354D59"/>
<path d="M22.5586 31.7374H21.7236V32.5724H22.5586V31.7374Z" fill="#354D59"/>
<path d="M22.5586 30.8936H21.7236V31.7361H22.5586V30.8936Z" fill="#354D59"/>
<path d="M22.5586 30.0511H21.7236V30.8936H22.5586V30.0511Z" fill="#507993"/>
<path d="M22.5586 29.2174H21.7236V30.0524H22.5586V29.2174Z" fill="#507993"/>
<path d="M22.5586 28.3749H21.7236V29.2174H22.5586V28.3749Z" fill="#679EC6"/>
<path d="M22.5586 27.5399H21.7236V28.3749H22.5586V27.5399Z" fill="#79B6EE"/>
<path d="M22.5586 26.6974H21.7236V27.5399H22.5586V26.6974Z" fill="#79B6EE"/>
<path d="M22.5586 25.8636H21.7236V26.6986H22.5586V25.8636Z" fill="#679EC6"/>
<path d="M22.5586 25.0211H21.7236V25.8636H22.5586V25.0211Z" fill="#79B6EE"/>
<path d="M22.5586 24.1862H21.7236V25.0212H22.5586V24.1862Z" fill="#79B6EE"/>
<path d="M22.5586 23.3436H21.7236V24.1861H22.5586V23.3436Z" fill="#79B6EE"/>
<path d="M22.5586 22.4999H21.7236V23.3424H22.5586V22.4999Z" fill="#6D4541"/>
<path d="M22.5586 21.6674H21.7236V22.5024H22.5586V21.6674Z" fill="#6D4541"/>
<path d="M22.5586 20.8236H21.7236V21.6661H22.5586V20.8236Z" fill="#E0AD86"/>
<path d="M22.5586 19.9899H21.7236V20.8249H22.5586V19.9899Z" fill="#E0AD86"/>
<path d="M22.5586 19.1461H21.7236V19.9886H22.5586V19.1461Z" fill="#E0AD86"/>
<path d="M22.5586 18.3137H21.7236V19.1487H22.5586V18.3137Z" fill="#BA7D54"/>
<path d="M22.5586 17.4699H21.7236V18.3124H22.5586V17.4699Z" fill="#79B6EE"/>
<path d="M22.5586 16.6274H21.7236V17.4699H22.5586V16.6274Z" fill="#679EC6"/>
<path d="M22.5586 15.7924H21.7236V16.6274H22.5586V15.7924Z" fill="#679EC6"/>
<path d="M22.5586 14.9511H21.7236V15.7936H22.5586V14.9511Z" fill="#79B6EE"/>
<path d="M22.5586 14.1161H21.7236V14.9511H22.5586V14.1161Z" fill="#79B6EE"/>
<path d="M22.5586 13.2736H21.7236V14.1161H22.5586V13.2736Z" fill="#79B6EE"/>
<path d="M22.5586 12.4387H21.7236V13.2737H22.5586V12.4387Z" fill="black"/>
<path d="M22.5586 11.5961H21.7236V12.4386H22.5586V11.5961Z" fill="black"/>
<path d="M21.7224 39.2874H20.8799V40.1224H21.7224V39.2874Z" fill="black"/>
<path d="M21.7224 38.4449H20.8799V39.2874H21.7224V38.4449Z" fill="#60401E"/>
<path d="M21.7224 37.6111H20.8799V38.4461H21.7224V37.6111Z" fill="#60401E"/>
<path d="M21.7224 36.7686H20.8799V37.6111H21.7224V36.7686Z" fill="#60401E"/>
<path d="M21.7224 35.9249H20.8799V36.7674H21.7224V35.9249Z" fill="#354D59"/>
<path d="M21.7224 35.0911H20.8799V35.9261H21.7224V35.0911Z" fill="#354D59"/>
<path d="M21.7224 34.2474H20.8799V35.0899H21.7224V34.2474Z" fill="#354D59"/>
<path d="M21.7224 33.4149H20.8799V34.2499H21.7224V33.4149Z" fill="#354D59"/>
<path d="M21.7224 32.5711H20.8799V33.4136H21.7224V32.5711Z" fill="#354D59"/>
<path d="M21.7224 31.7374H20.8799V32.5724H21.7224V31.7374Z" fill="#354D59"/>
<path d="M21.7224 30.8936H20.8799V31.7361H21.7224V30.8936Z" fill="#354D59"/>
<path d="M21.7224 30.0511H20.8799V30.8936H21.7224V30.0511Z" fill="#507993"/>
<path d="M21.7224 29.2174H20.8799V30.0524H21.7224V29.2174Z" fill="#507993"/>
<path d="M21.7224 28.3749H20.8799V29.2174H21.7224V28.3749Z" fill="#507993"/>
<path d="M21.7224 27.5399H20.8799V28.3749H21.7224V27.5399Z" fill="#79B6EE"/>
<path d="M21.7224 26.6974H20.8799V27.5399H21.7224V26.6974Z" fill="#679EC6"/>
<path d="M21.7224 25.8636H20.8799V26.6986H21.7224V25.8636Z" fill="#79B6EE"/>
<path d="M21.7224 25.0211H20.8799V25.8636H21.7224V25.0211Z" fill="#79B6EE"/>
<path d="M21.7224 24.1862H20.8799V25.0212H21.7224V24.1862Z" fill="#79B6EE"/>
<path d="M21.7224 23.3436H20.8799V24.1861H21.7224V23.3436Z" fill="#79B6EE"/>
<path d="M21.7224 22.4999H20.8799V23.3424H21.7224V22.4999Z" fill="black"/>
<path d="M21.7224 21.6674H20.8799V22.5024H21.7224V21.6674Z" fill="#6D4541"/>
<path d="M21.7224 20.8236H20.8799V21.6661H21.7224V20.8236Z" fill="#E0AD86"/>
<path d="M21.7224 19.9899H20.8799V20.8249H21.7224V19.9899Z" fill="#E0AD86"/>
<path d="M21.7224 19.1461H20.8799V19.9886H21.7224V19.1461Z" fill="#E0AD86"/>
<path d="M21.7224 18.3137H20.8799V19.1487H21.7224V18.3137Z" fill="#BA7D54"/>
<path d="M21.7224 17.4699H20.8799V18.3124H21.7224V17.4699Z" fill="#0C0A08"/>
<path d="M21.7224 16.6274H20.8799V17.4699H21.7224V16.6274Z" fill="#507993"/>
<path d="M21.7224 15.7924H20.8799V16.6274H21.7224V15.7924Z" fill="#79B6EE"/>
<path d="M21.7224 14.9511H20.8799V15.7936H21.7224V14.9511Z" fill="#79B6EE"/>
<path d="M21.7224 14.1161H20.8799V14.9511H21.7224V14.1161Z" fill="#79B6EE"/>
<path d="M21.7224 13.2736H20.8799V14.1161H21.7224V13.2736Z" fill="black"/>
<path d="M21.7224 12.4387H20.8799V13.2737H21.7224V12.4387Z" fill="black"/>
<path d="M20.8801 39.2874H20.0376V40.1224H20.8801V39.2874Z" fill="black"/>
<path d="M20.8801 38.4449H20.0376V39.2874H20.8801V38.4449Z" fill="#60401E"/>
<path d="M20.8801 37.6111H20.0376V38.4461H20.8801V37.6111Z" fill="black"/>
<path d="M20.8801 36.7686H20.0376V37.6111H20.8801V36.7686Z" fill="black"/>
<path d="M20.8801 35.9249H20.0376V36.7674H20.8801V35.9249Z" fill="black"/>
<path d="M20.8801 35.0911H20.0376V35.9261H20.8801V35.0911Z" fill="#354D59"/>
<path d="M20.8801 34.2474H20.0376V35.0899H20.8801V34.2474Z" fill="#354D59"/>
<path d="M20.8801 33.4149H20.0376V34.2499H20.8801V33.4149Z" fill="#354D59"/>
<path d="M20.8801 32.5711H20.0376V33.4136H20.8801V32.5711Z" fill="#354D59"/>
<path d="M20.8801 31.7374H20.0376V32.5724H20.8801V31.7374Z" fill="#354D59"/>
<path d="M20.8801 30.8936H20.0376V31.7361H20.8801V30.8936Z" fill="#354D59"/>
<path d="M20.8801 30.0511H20.0376V30.8936H20.8801V30.0511Z" fill="#507993"/>
<path d="M20.8801 29.2174H20.0376V30.0524H20.8801V29.2174Z" fill="black"/>
<path d="M20.8801 28.3749H20.0376V29.2174H20.8801V28.3749Z" fill="#679EC6"/>
<path d="M20.8801 27.5399H20.0376V28.3749H20.8801V27.5399Z" fill="#679EC6"/>
<path d="M20.8801 26.6974H20.0376V27.5399H20.8801V26.6974Z" fill="#79B6EE"/>
<path d="M20.8801 25.8636H20.0376V26.6986H20.8801V25.8636Z" fill="#79B6EE"/>
<path d="M20.8801 25.0211H20.0376V25.8636H20.8801V25.0211Z" fill="#79B6EE"/>
<path d="M20.8801 24.1862H20.0376V25.0212H20.8801V24.1862Z" fill="#679EC6"/>
<path d="M20.8801 23.3436H20.0376V24.1861H20.8801V23.3436Z" fill="black"/>
<path d="M20.8801 22.4999H20.0376V23.3424H20.8801V22.4999Z" fill="black"/>
<path d="M20.8801 21.6674H20.0376V22.5024H20.8801V21.6674Z" fill="black"/>
<path d="M20.8801 20.8236H20.0376V21.6661H20.8801V20.8236Z" fill="black"/>
<path d="M20.8801 19.9899H20.0376V20.8249H20.8801V19.9899Z" fill="#79B6EE"/>
<path d="M20.8801 19.1461H20.0376V19.9886H20.8801V19.1461Z" fill="#79B6EE"/>
<path d="M20.8801 18.3137H20.0376V19.1487H20.8801V18.3137Z" fill="#BA7D54"/>
<path d="M20.8801 17.4699H20.0376V18.3124H20.8801V17.4699Z" fill="#BA7D54"/>
<path d="M20.8801 16.6274H20.0376V17.4699H20.8801V16.6274Z" fill="#BA7D54"/>
<path d="M20.8801 15.7924H20.0376V16.6274H20.8801V15.7924Z" fill="#79B6EE"/>
<path d="M20.8801 14.9511H20.0376V15.7936H20.8801V14.9511Z" fill="#79B6EE"/>
<path d="M20.8801 14.1161H20.0376V14.9511H20.8801V14.1161Z" fill="black"/>
<path d="M20.8801 13.2736H20.0376V14.1161H20.8801V13.2736Z" fill="black"/>
<path d="M20.0389 39.2874H19.2039V40.1224H20.0389V39.2874Z" fill="black"/>
<path d="M20.0389 38.4449H19.2039V39.2874H20.0389V38.4449Z" fill="black"/>
<path d="M20.0389 37.6111H19.2039V38.4461H20.0389V37.6111Z" fill="black"/>
<path d="M20.0389 35.9249H19.2039V36.7674H20.0389V35.9249Z" fill="black"/>
<path d="M20.0389 35.0911H19.2039V35.9261H20.0389V35.0911Z" fill="black"/>
<path d="M20.0389 34.2474H19.2039V35.0899H20.0389V34.2474Z" fill="black"/>
<path d="M20.0389 33.4149H19.2039V34.2499H20.0389V33.4149Z" fill="#354D59"/>
<path d="M20.0389 32.5711H19.2039V33.4136H20.0389V32.5711Z" fill="#354D59"/>
<path d="M20.0389 31.7374H19.2039V32.5724H20.0389V31.7374Z" fill="#507993"/>
<path d="M20.0389 30.8936H19.2039V31.7361H20.0389V30.8936Z" fill="#507993"/>
<path d="M20.0389 30.0511H19.2039V30.8936H20.0389V30.0511Z" fill="black"/>
<path d="M20.0389 29.2174H19.2039V30.0524H20.0389V29.2174Z" fill="black"/>
<path d="M20.0389 28.3749H19.2039V29.2174H20.0389V28.3749Z" fill="#79B6EE"/>
<path d="M20.0389 27.5399H19.2039V28.3749H20.0389V27.5399Z" fill="#79B6EE"/>
<path d="M20.0389 26.6974H19.2039V27.5399H20.0389V26.6974Z" fill="#79B6EE"/>
<path d="M20.0389 25.8636H19.2039V26.6986H20.0389V25.8636Z" fill="#79B6EE"/>
<path d="M20.0389 25.0211H19.2039V25.8636H20.0389V25.0211Z" fill="#679EC6"/>
<path d="M20.0389 24.1862H19.2039V25.0212H20.0389V24.1862Z" fill="black"/>
<path d="M20.0389 20.8236H19.2039V21.6661H20.0389V20.8236Z" fill="black"/>
<path d="M20.0389 19.9899H19.2039V20.8249H20.0389V19.9899Z" fill="black"/>
<path d="M20.0389 19.1461H19.2039V19.9886H20.0389V19.1461Z" fill="black"/>
<path d="M20.0389 18.3137H19.2039V19.1487H20.0389V18.3137Z" fill="#79B6EE"/>
<path d="M20.0389 17.4699H19.2039V18.3124H20.0389V17.4699Z" fill="#79B6EE"/>
<path d="M20.0389 16.6274H19.2039V17.4699H20.0389V16.6274Z" fill="#79B6EE"/>
<path d="M20.0389 15.7924H19.2039V16.6274H20.0389V15.7924Z" fill="black"/>
<path d="M20.0389 14.9511H19.2039V15.7936H20.0389V14.9511Z" fill="black"/>
<path d="M20.0389 14.1161H19.2039V14.9511H20.0389V14.1161Z" fill="black"/>
<path d="M19.2038 39.2874H18.3613V40.1224H19.2038V39.2874Z" fill="black"/>
<path d="M19.2038 38.4449H18.3613V39.2874H19.2038V38.4449Z" fill="black"/>
<path d="M19.2038 34.2474H18.3613V35.0899H19.2038V34.2474Z" fill="black"/>
<path d="M19.2038 33.4149H18.3613V34.2499H19.2038V33.4149Z" fill="black"/>
<path d="M19.2038 32.5711H18.3613V33.4136H19.2038V32.5711Z" fill="black"/>
<path d="M19.2038 31.7374H18.3613V32.5724H19.2038V31.7374Z" fill="black"/>
<path d="M19.2038 30.8936H18.3613V31.7361H19.2038V30.8936Z" fill="black"/>
<path d="M19.2038 30.0511H18.3613V30.8936H19.2038V30.0511Z" fill="black"/>
<path d="M19.2038 29.2174H18.3613V30.0524H19.2038V29.2174Z" fill="#E0AD86"/>
<path d="M19.2038 28.3749H18.3613V29.2174H19.2038V28.3749Z" fill="#E0AD86"/>
<path d="M19.2038 27.5399H18.3613V28.3749H19.2038V27.5399Z" fill="#79B6EE"/>
<path d="M19.2038 26.6974H18.3613V27.5399H19.2038V26.6974Z" fill="#79B6EE"/>
<path d="M19.2038 25.8636H18.3613V26.6986H19.2038V25.8636Z" fill="#679EC6"/>
<path d="M19.2038 25.0211H18.3613V25.8636H19.2038V25.0211Z" fill="black"/>
<path d="M19.2038 19.1461H18.3613V19.9886H19.2038V19.1461Z" fill="black"/>
<path d="M19.2038 18.3137H18.3613V19.1487H19.2038V18.3137Z" fill="black"/>
<path d="M19.2038 17.4699H18.3613V18.3124H19.2038V17.4699Z" fill="black"/>
<path d="M19.2038 16.6274H18.3613V17.4699H19.2038V16.6274Z" fill="black"/>
<path d="M19.2038 15.7924H18.3613V16.6274H19.2038V15.7924Z" fill="black"/>
<path d="M18.3614 30.8936H17.5264V31.7361H18.3614V30.8936Z" fill="black"/>
<path d="M18.3614 30.0511H17.5264V30.8936H18.3614V30.0511Z" fill="#E0AD86"/>
<path d="M18.3614 29.2174H17.5264V30.0524H18.3614V29.2174Z" fill="#E0AD86"/>
<path d="M18.3614 28.3749H17.5264V29.2174H18.3614V28.3749Z" fill="#E0AD86"/>
<path d="M18.3614 27.5399H17.5264V28.3749H18.3614V27.5399Z" fill="#E0AD86"/>
<path d="M18.3614 26.6974H17.5264V27.5399H18.3614V26.6974Z" fill="black"/>
<path d="M18.3614 25.8636H17.5264V26.6986H18.3614V25.8636Z" fill="black"/>
<path d="M17.5263 30.0511H16.6838V30.8936H17.5263V30.0511Z" fill="black"/>
<path d="M17.5263 29.2174H16.6838V30.0524H17.5263V29.2174Z" fill="black"/>
<path d="M17.5263 28.3749H16.6838V29.2174H17.5263V28.3749Z" fill="#E0AD86"/>
<path d="M17.5263 27.5399H16.6838V28.3749H17.5263V27.5399Z" fill="black"/>
<path d="M16.6851 39.2874H15.8501V40.1224H16.6851V39.2874Z" fill="#B50012"/>
<path d="M16.6851 37.6111H15.8501V38.4461H16.6851V37.6111Z" fill="#B50012"/>
<path d="M16.6851 29.2174H15.8501V30.0524H16.6851V29.2174Z" fill="#B50012"/>
<path d="M16.6851 28.3749H15.8501V29.2174H16.6851V28.3749Z" fill="#4A4A68"/>
<path d="M16.6851 27.5399H15.8501V28.3749H16.6851V27.5399Z" fill="#B50012"/>
<path d="M16.6851 26.6974H15.8501V27.5399H16.6851V26.6974Z" fill="#B50012"/>
<path d="M15.8501 39.2874H15.0076V40.1224H15.8501V39.2874Z" fill="#B50012"/>
<path d="M15.8501 35.9249H15.0076V36.7674H15.8501V35.9249Z" fill="#B50012"/>
<path d="M15.8501 35.0911H15.0076V35.9261H15.8501V35.0911Z" fill="#B50012"/>
<path d="M15.8501 28.3749H15.0076V29.2174H15.8501V28.3749Z" fill="#B50012"/>
<path d="M15.8501 27.5399H15.0076V28.3749H15.8501V27.5399Z" fill="#727B9B"/>
<path d="M15.8501 26.6974H15.0076V27.5399H15.8501V26.6974Z" fill="#727B9B"/>
<path d="M15.8501 25.8636H15.0076V26.6986H15.8501V25.8636Z" fill="#B50012"/>
<path d="M15.8501 25.0211H15.0076V25.8636H15.8501V25.0211Z" fill="#B50012"/>
<path d="M15.0075 39.2874H14.165V40.1224H15.0075V39.2874Z" fill="#B50012"/>
<path d="M15.0075 38.4449H14.165V39.2874H15.0075V38.4449Z" fill="#B50012"/>
<path d="M15.0075 29.2174H14.165V30.0524H15.0075V29.2174Z" fill="#B50012"/>
<path d="M15.0075 28.3749H14.165V29.2174H15.0075V28.3749Z" fill="#B50012"/>
<path d="M15.0075 27.5399H14.165V28.3749H15.0075V27.5399Z" fill="#B50012"/>
<path d="M15.0075 26.6974H14.165V27.5399H15.0075V26.6974Z" fill="#727B9B"/>
<path d="M15.0075 25.8636H14.165V26.6986H15.0075V25.8636Z" fill="#727B9B"/>
<path d="M15.0075 25.0211H14.165V25.8636H15.0075V25.0211Z" fill="#727B9B"/>
<path d="M15.0075 24.1862H14.165V25.0212H15.0075V24.1862Z" fill="#B50012"/>
<path d="M15.0075 23.3436H14.165V24.1861H15.0075V23.3436Z" fill="#B50012"/>
<path d="M14.1651 39.2874H13.3301V40.1224H14.1651V39.2874Z" fill="#B50012"/>
<path d="M14.1651 36.7686H13.3301V37.6111H14.1651V36.7686Z" fill="#B50012"/>
<path d="M14.1651 31.7374H13.3301V32.5724H14.1651V31.7374Z" fill="#B50012"/>
<path d="M14.1651 30.8936H13.3301V31.7361H14.1651V30.8936Z" fill="#B50012"/>
<path d="M14.1651 27.5399H13.3301V28.3749H14.1651V27.5399Z" fill="#B50012"/>
<path d="M14.1651 26.6974H13.3301V27.5399H14.1651V26.6974Z" fill="#B50012"/>
<path d="M14.1651 25.8636H13.3301V26.6986H14.1651V25.8636Z" fill="#B50012"/>
<path d="M14.1651 25.0211H13.3301V25.8636H14.1651V25.0211Z" fill="#727B9B"/>
<path d="M14.1651 24.1862H13.3301V25.0212H14.1651V24.1862Z" fill="#727B9B"/>
<path d="M14.1651 23.3436H13.3301V24.1861H14.1651V23.3436Z" fill="#727B9B"/>
<path d="M14.1651 22.4999H13.3301V23.3424H14.1651V22.4999Z" fill="#B50012"/>
<path d="M13.3288 25.8636H12.4863V26.6986H13.3288V25.8636Z" fill="#B50012"/>
<path d="M13.3288 25.0211H12.4863V25.8636H13.3288V25.0211Z" fill="#B50012"/>
<path d="M13.3288 24.1862H12.4863V25.0212H13.3288V24.1862Z" fill="#B50012"/>
<path d="M13.3288 23.3436H12.4863V24.1861H13.3288V23.3436Z" fill="#B50012"/>
</g>
<defs>
<clipPath id="clip0_69_12160">
<rect width="50" height="50" fill="white" transform="translate(0 0.942383)"/>
</clipPath>
</defs>
</svg>
