<svg width="50" height="51" viewBox="0 0 50 51" fill="none" xmlns="http://www.w3.org/2000/svg">
<g clip-path="url(#clip0_69_12164)">
<path d="M25.0001 49.1649C37.8255 49.1649 48.2226 38.7678 48.2226 25.9424C48.2226 13.117 37.8255 2.71991 25.0001 2.71991C12.1747 2.71991 1.77759 13.117 1.77759 25.9424C1.77759 38.7678 12.1747 49.1649 25.0001 49.1649Z" fill="black"/>
<path d="M25.0001 50.0399C11.7126 50.0399 0.902588 39.2299 0.902588 25.9424C0.902588 12.6549 11.7126 1.84491 25.0001 1.84491C38.2876 1.84491 49.0976 12.6549 49.0976 25.9424C49.0976 39.2299 38.2876 50.0399 25.0001 50.0399ZM25.0001 3.59491C12.6776 3.59491 2.65259 13.6199 2.65259 25.9424C2.65259 38.2649 12.6776 48.2899 25.0001 48.2899C37.3226 48.2899 47.3476 38.2649 47.3476 25.9424C47.3476 13.6199 37.3226 3.59491 25.0001 3.59491Z" fill="#668466"/>
<path d="M36.5112 33.3124H35.6387V34.1949H36.5112V33.3124Z" fill="black"/>
<path d="M36.5112 32.4399H35.6387V33.3124H36.5112V32.4399Z" fill="black"/>
<path d="M36.5112 31.5574H35.6387V32.4399H36.5112V31.5574Z" fill="black"/>
<path d="M36.5112 30.6761H35.6387V31.5574H36.5112V30.6761Z" fill="black"/>
<path d="M36.5112 29.8024H35.6387V30.6749H36.5112V29.8024Z" fill="black"/>
<path d="M36.5112 28.9211H35.6387V29.8036H36.5112V28.9211Z" fill="black"/>
<path d="M36.5112 28.0486H35.6387V28.9211H36.5112V28.0486Z" fill="black"/>
<path d="M36.5112 27.1661H35.6387V28.0486H36.5112V27.1661Z" fill="black"/>
<path d="M36.5112 26.2936H35.6387V27.1661H36.5112V26.2936Z" fill="black"/>
<path d="M36.5112 25.4111H35.6387V26.2936H36.5112V25.4111Z" fill="black"/>
<path d="M36.5112 24.5386H35.6387V25.4111H36.5112V24.5386Z" fill="black"/>
<path d="M36.5112 23.6561H35.6387V24.5386H36.5112V23.6561Z" fill="black"/>
<path d="M36.5112 22.7749H35.6387V23.6574H36.5112V22.7749Z" fill="black"/>
<path d="M36.5112 19.2649H35.6387V20.1474H36.5112V19.2649Z" fill="black"/>
<path d="M36.5112 18.3924H35.6387V19.2649H36.5112V18.3924Z" fill="black"/>
<path d="M36.5112 17.5099H35.6387V18.3924H36.5112V17.5099Z" fill="black"/>
<path d="M36.5112 16.6287H35.6387V17.5112H36.5112V16.6287Z" fill="black"/>
<path d="M35.6401 34.1949H34.7576V35.0674H35.6401V34.1949Z" fill="black"/>
<path d="M35.6401 33.3124H34.7576V34.1949H35.6401V33.3124Z" fill="#577C57"/>
<path d="M35.6401 32.4399H34.7576V33.3124H35.6401V32.4399Z" fill="#577C57"/>
<path d="M35.6401 31.5574H34.7576V32.4399H35.6401V31.5574Z" fill="#577C57"/>
<path d="M35.6401 30.6761H34.7576V31.5574H35.6401V30.6761Z" fill="#577C57"/>
<path d="M35.6401 29.8024H34.7576V30.6749H35.6401V29.8024Z" fill="#577C57"/>
<path d="M35.6401 28.9211H34.7576V29.8036H35.6401V28.9211Z" fill="#668466"/>
<path d="M35.6401 28.0486H34.7576V28.9211H35.6401V28.0486Z" fill="#668466"/>
<path d="M35.6401 27.1661H34.7576V28.0486H35.6401V27.1661Z" fill="#668466"/>
<path d="M35.6401 26.2936H34.7576V27.1661H35.6401V26.2936Z" fill="#577C57"/>
<path d="M35.6401 25.4111H34.7576V26.2936H35.6401V25.4111Z" fill="#577C57"/>
<path d="M35.6401 24.5386H34.7576V25.4111H35.6401V24.5386Z" fill="#577C57"/>
<path d="M35.6401 23.6561H34.7576V24.5386H35.6401V23.6561Z" fill="#577C57"/>
<path d="M35.6401 22.7749H34.7576V23.6574H35.6401V22.7749Z" fill="#577C57"/>
<path d="M35.6401 21.9024H34.7576V22.7749H35.6401V21.9024Z" fill="black"/>
<path d="M35.6401 21.0199H34.7576V21.9024H35.6401V21.0199Z" fill="black"/>
<path d="M35.6401 20.1474H34.7576V21.0199H35.6401V20.1474Z" fill="black"/>
<path d="M35.6401 19.2649H34.7576V20.1474H35.6401V19.2649Z" fill="#668466"/>
<path d="M35.6401 18.3924H34.7576V19.2649H35.6401V18.3924Z" fill="#446644"/>
<path d="M35.6401 17.5099H34.7576V18.3924H35.6401V17.5099Z" fill="#446644"/>
<path d="M35.6401 16.6287H34.7576V17.5112H35.6401V16.6287Z" fill="#668466"/>
<path d="M35.6401 15.7562H34.7576V16.6287H35.6401V15.7562Z" fill="black"/>
<path d="M35.6401 14.8737H34.7576V15.7562H35.6401V14.8737Z" fill="black"/>
<path d="M34.7575 34.1949H33.8762V35.0674H34.7575V34.1949Z" fill="black"/>
<path d="M34.7575 33.3124H33.8762V34.1949H34.7575V33.3124Z" fill="#446644"/>
<path d="M34.7575 32.4399H33.8762V33.3124H34.7575V32.4399Z" fill="#668466"/>
<path d="M34.7575 31.5574H33.8762V32.4399H34.7575V31.5574Z" fill="#668466"/>
<path d="M34.7575 30.6761H33.8762V31.5574H34.7575V30.6761Z" fill="#668466"/>
<path d="M34.7575 29.8024H33.8762V30.6749H34.7575V29.8024Z" fill="#668466"/>
<path d="M34.7575 28.9211H33.8762V29.8036H34.7575V28.9211Z" fill="#668466"/>
<path d="M34.7562 28.0674H33.875V28.9399H34.7562V28.0674Z" fill="#668466"/>
<path d="M34.7575 27.1661H33.8762V28.0486H34.7575V27.1661Z" fill="#668466"/>
<path d="M34.7575 26.2936H33.8762V27.1661H34.7575V26.2936Z" fill="#668466"/>
<path d="M34.7575 25.4111H33.8762V26.2936H34.7575V25.4111Z" fill="#668466"/>
<path d="M34.7575 24.5386H33.8762V25.4111H34.7575V24.5386Z" fill="#668466"/>
<path d="M34.7575 23.6561H33.8762V24.5386H34.7575V23.6561Z" fill="#668466"/>
<path d="M34.7575 22.7749H33.8762V23.6574H34.7575V22.7749Z" fill="#577C57"/>
<path d="M34.7575 21.9024H33.8762V22.7749H34.7575V21.9024Z" fill="#446644"/>
<path d="M34.7575 21.0199H33.8762V21.9024H34.7575V21.0199Z" fill="#668466"/>
<path d="M34.7575 20.1474H33.8762V21.0199H34.7575V20.1474Z" fill="#668466"/>
<path d="M34.7575 19.2649H33.8762V20.1474H34.7575V19.2649Z" fill="#446644"/>
<path d="M34.7575 18.3924H33.8762V19.2649H34.7575V18.3924Z" fill="#668466"/>
<path d="M34.7575 17.5099H33.8762V18.3924H34.7575V17.5099Z" fill="#668466"/>
<path d="M34.7575 16.6287H33.8762V17.5112H34.7575V16.6287Z" fill="#446644"/>
<path d="M34.7575 15.7562H33.8762V16.6287H34.7575V15.7562Z" fill="#668466"/>
<path d="M34.7575 14.8737H33.8762V15.7562H34.7575V14.8737Z" fill="black"/>
<path d="M33.875 34.1949H33.0012V35.0674H33.875V34.1949Z" fill="black"/>
<path d="M33.875 33.3124H33.0012V34.1949H33.875V33.3124Z" fill="#446644"/>
<path d="M33.875 32.4399H33.0012V33.3124H33.875V32.4399Z" fill="#446644"/>
<path d="M33.875 31.5574H33.0012V32.4399H33.875V31.5574Z" fill="#446644"/>
<path d="M33.875 30.6761H33.0012V31.5574H33.875V30.6761Z" fill="#668466"/>
<path d="M33.875 29.8024H33.0012V30.6749H33.875V29.8024Z" fill="#668466"/>
<path d="M33.875 28.9211H33.0012V29.8036H33.875V28.9211Z" fill="#668466"/>
<path d="M33.875 28.0486H33.0012V28.9211H33.875V28.0486Z" fill="#668466"/>
<path d="M33.875 27.1661H33.0012V28.0486H33.875V27.1661Z" fill="#668466"/>
<path d="M33.875 26.2936H33.0012V27.1661H33.875V26.2936Z" fill="#668466"/>
<path d="M33.875 25.4111H33.0012V26.2936H33.875V25.4111Z" fill="#668466"/>
<path d="M33.875 24.5386H33.0012V25.4111H33.875V24.5386Z" fill="#668466"/>
<path d="M33.875 23.6561H33.0012V24.5386H33.875V23.6561Z" fill="#668466"/>
<path d="M33.875 22.7749H33.0012V23.6574H33.875V22.7749Z" fill="#668466"/>
<path d="M33.875 21.9024H33.0012V22.7749H33.875V21.9024Z" fill="#446644"/>
<path d="M33.875 21.0199H33.0012V21.9024H33.875V21.0199Z" fill="#668466"/>
<path d="M33.875 20.1474H33.0012V21.0199H33.875V20.1474Z" fill="#668466"/>
<path d="M33.875 19.2649H33.0012V20.1474H33.875V19.2649Z" fill="#668466"/>
<path d="M33.875 18.3924H33.0012V19.2649H33.875V18.3924Z" fill="#446644"/>
<path d="M33.875 17.5099H33.0012V18.3924H33.875V17.5099Z" fill="#668466"/>
<path d="M33.875 16.6287H33.0012V17.5112H33.875V16.6287Z" fill="#446644"/>
<path d="M33.875 15.7562H33.0012V16.6287H33.875V15.7562Z" fill="#668466"/>
<path d="M33.875 14.8737H33.0012V15.7562H33.875V14.8737Z" fill="black"/>
<path d="M33.0023 34.1949H32.1211V35.0674H33.0023V34.1949Z" fill="black"/>
<path d="M33.0023 33.3124H32.1211V34.1949H33.0023V33.3124Z" fill="#446644"/>
<path d="M33.0023 32.4399H32.1211V33.3124H33.0023V32.4399Z" fill="#446644"/>
<path d="M33.0023 31.5574H32.1211V32.4399H33.0023V31.5574Z" fill="#446644"/>
<path d="M33.0023 30.6761H32.1211V31.5574H33.0023V30.6761Z" fill="#446644"/>
<path d="M33.0023 29.8024H32.1211V30.6749H33.0023V29.8024Z" fill="#668466"/>
<path d="M33.0023 28.9211H32.1211V29.8036H33.0023V28.9211Z" fill="#668466"/>
<path d="M33.0023 28.0486H32.1211V28.9211H33.0023V28.0486Z" fill="#668466"/>
<path d="M33.0023 27.1661H32.1211V28.0486H33.0023V27.1661Z" fill="black"/>
<path d="M33.0023 26.2936H32.1211V27.1661H33.0023V26.2936Z" fill="black"/>
<path d="M33.0023 25.4111H32.1211V26.2936H33.0023V25.4111Z" fill="black"/>
<path d="M33.0023 24.5386H32.1211V25.4111H33.0023V24.5386Z" fill="black"/>
<path d="M33.0023 23.6561H32.1211V24.5386H33.0023V23.6561Z" fill="black"/>
<path d="M33.0023 22.7749H32.1211V23.6574H33.0023V22.7749Z" fill="#668466"/>
<path d="M33.0023 21.9024H32.1211V22.7749H33.0023V21.9024Z" fill="#446644"/>
<path d="M33.0023 21.0199H32.1211V21.9024H33.0023V21.0199Z" fill="black"/>
<path d="M33.0023 20.1474H32.1211V21.0199H33.0023V20.1474Z" fill="black"/>
<path d="M33.0023 19.2649H32.1211V20.1474H33.0023V19.2649Z" fill="black"/>
<path d="M33.0023 18.3924H32.1211V19.2649H33.0023V18.3924Z" fill="black"/>
<path d="M33.0023 17.5099H32.1211V18.3924H33.0023V17.5099Z" fill="#668466"/>
<path d="M33.0023 16.6287H32.1211V17.5112H33.0023V16.6287Z" fill="#668466"/>
<path d="M33.0023 15.7562H32.1211V16.6287H33.0023V15.7562Z" fill="#668466"/>
<path d="M33.0023 14.8737H32.1211V15.7562H33.0023V14.8737Z" fill="black"/>
<path d="M32.1201 40.3412H31.2476V41.2137H32.1201V40.3412Z" fill="black"/>
<path d="M32.1201 39.4587H31.2476V40.3412H32.1201V39.4587Z" fill="black"/>
<path d="M32.1201 34.1949H31.2476V35.0674H32.1201V34.1949Z" fill="black"/>
<path d="M32.1201 33.3124H31.2476V34.1949H32.1201V33.3124Z" fill="#446644"/>
<path d="M32.1201 32.4399H31.2476V33.3124H32.1201V32.4399Z" fill="#446644"/>
<path d="M32.1201 31.5574H31.2476V32.4399H32.1201V31.5574Z" fill="#446644"/>
<path d="M32.1201 30.6761H31.2476V31.5574H32.1201V30.6761Z" fill="#446644"/>
<path d="M32.1201 29.8024H31.2476V30.6749H32.1201V29.8024Z" fill="#446644"/>
<path d="M32.1201 28.9211H31.2476V29.8036H32.1201V28.9211Z" fill="#446644"/>
<path d="M32.1201 28.0486H31.2476V28.9211H32.1201V28.0486Z" fill="black"/>
<path d="M32.1201 27.1661H31.2476V28.0486H32.1201V27.1661Z" fill="#8ABC8A"/>
<path d="M32.1201 26.2936H31.2476V27.1661H32.1201V26.2936Z" fill="#8ABC8A"/>
<path d="M32.1201 25.4111H31.2476V26.2936H32.1201V25.4111Z" fill="#8ABC8A"/>
<path d="M32.1201 24.5386H31.2476V25.4111H32.1201V24.5386Z" fill="#8ABC8A"/>
<path d="M32.1201 23.6561H31.2476V24.5386H32.1201V23.6561Z" fill="#8ABC8A"/>
<path d="M32.1201 22.7749H31.2476V23.6574H32.1201V22.7749Z" fill="black"/>
<path d="M32.1201 21.9024H31.2476V22.7749H32.1201V21.9024Z" fill="#446644"/>
<path d="M32.1201 21.0199H31.2476V21.9024H32.1201V21.0199Z" fill="black"/>
<path d="M32.1201 20.1474H31.2476V21.0199H32.1201V20.1474Z" fill="#969696"/>
<path d="M32.1201 19.2649H31.2476V20.1474H32.1201V19.2649Z" fill="#969696"/>
<path d="M32.1201 18.3924H31.2476V19.2649H32.1201V18.3924Z" fill="black"/>
<path d="M32.1201 17.5099H31.2476V18.3924H32.1201V17.5099Z" fill="#668466"/>
<path d="M32.1201 16.6287H31.2476V17.5112H32.1201V16.6287Z" fill="#668466"/>
<path d="M32.1201 15.7562H31.2476V16.6287H32.1201V15.7562Z" fill="black"/>
<path d="M31.2475 40.3412H30.365V41.2137H31.2475V40.3412Z" fill="black"/>
<path d="M31.2475 39.4587H30.365V40.3412H31.2475V39.4587Z" fill="#724107"/>
<path d="M31.2475 38.5862H30.365V39.4587H31.2475V38.5862Z" fill="black"/>
<path d="M31.2475 37.7037H30.365V38.5862H31.2475V37.7037Z" fill="black"/>
<path d="M31.2475 33.3124H30.365V34.1949H31.2475V33.3124Z" fill="black"/>
<path d="M31.2475 32.4399H30.365V33.3124H31.2475V32.4399Z" fill="#446644"/>
<path d="M31.2475 31.5574H30.365V32.4399H31.2475V31.5574Z" fill="#446644"/>
<path d="M31.2475 30.6761H30.365V31.5574H31.2475V30.6761Z" fill="#446644"/>
<path d="M31.2475 29.8024H30.365V30.6749H31.2475V29.8024Z" fill="#446644"/>
<path d="M31.2475 28.9211H30.365V29.8036H31.2475V28.9211Z" fill="black"/>
<path d="M31.2475 28.0486H30.365V28.9211H31.2475V28.0486Z" fill="#9DCF9D"/>
<path d="M31.2475 27.1661H30.365V28.0486H31.2475V27.1661Z" fill="#9DCF9D"/>
<path d="M31.2475 26.2936H30.365V27.1661H31.2475V26.2936Z" fill="#9DCF9D"/>
<path d="M31.2475 25.4111H30.365V26.2936H31.2475V25.4111Z" fill="#9DCF9D"/>
<path d="M31.2475 24.5386H30.365V25.4111H31.2475V24.5386Z" fill="#9DCF9D"/>
<path d="M31.2475 23.6561H30.365V24.5386H31.2475V23.6561Z" fill="#8ABC8A"/>
<path d="M31.2475 22.7749H30.365V23.6574H31.2475V22.7749Z" fill="#73C6C6"/>
<path d="M31.2475 21.9024H30.365V22.7749H31.2475V21.9024Z" fill="black"/>
<path d="M31.2475 21.0199H30.365V21.9024H31.2475V21.0199Z" fill="black"/>
<path d="M31.2475 20.1474H30.365V21.0199H31.2475V20.1474Z" fill="#969696"/>
<path d="M31.2475 19.2649H30.365V20.1474H31.2475V19.2649Z" fill="#969696"/>
<path d="M31.2475 18.3924H30.365V19.2649H31.2475V18.3924Z" fill="#969696"/>
<path d="M31.2475 17.5099H30.365V18.3924H31.2475V17.5099Z" fill="black"/>
<path d="M31.2475 16.6287H30.365V17.5112H31.2475V16.6287Z" fill="black"/>
<path d="M30.3649 40.3412H29.4924V41.2137H30.3649V40.3412Z" fill="black"/>
<path d="M30.3649 39.4587H29.4924V40.3412H30.3649V39.4587Z" fill="#724107"/>
<path d="M30.3649 38.5862H29.4924V39.4587H30.3649V38.5862Z" fill="#4C3A1F"/>
<path d="M30.3649 37.7037H29.4924V38.5862H30.3649V37.7037Z" fill="#4C3A1F"/>
<path d="M30.3649 36.8224H29.4924V37.7036H30.3649V36.8224Z" fill="black"/>
<path d="M30.3649 35.9487H29.4924V36.8224H30.3649V35.9487Z" fill="black"/>
<path d="M30.3649 35.0687H29.4924V35.9499H30.3649V35.0687Z" fill="black"/>
<path d="M30.3649 34.1949H29.4924V35.0674H30.3649V34.1949Z" fill="black"/>
<path d="M30.3649 33.3124H29.4924V34.1949H30.3649V33.3124Z" fill="black"/>
<path d="M30.3649 32.4399H29.4924V33.3124H30.3649V32.4399Z" fill="black"/>
<path d="M30.3649 31.5574H29.4924V32.4399H30.3649V31.5574Z" fill="black"/>
<path d="M30.3649 30.6761H29.4924V31.5574H30.3649V30.6761Z" fill="#446644"/>
<path d="M30.3649 29.8024H29.4924V30.6749H30.3649V29.8024Z" fill="black"/>
<path d="M30.3649 28.9211H29.4924V29.8036H30.3649V28.9211Z" fill="#668466"/>
<path d="M30.3649 28.0486H29.4924V28.9211H30.3649V28.0486Z" fill="#668466"/>
<path d="M30.3649 27.1661H29.4924V28.0486H30.3649V27.1661Z" fill="#668466"/>
<path d="M30.3649 26.2936H29.4924V27.1661H30.3649V26.2936Z" fill="#668466"/>
<path d="M30.3649 25.4111H29.4924V26.2936H30.3649V25.4111Z" fill="#9DCF9D"/>
<path d="M30.3649 24.5386H29.4924V25.4111H30.3649V24.5386Z" fill="#9DCF9D"/>
<path d="M30.3649 23.6561H29.4924V24.5386H30.3649V23.6561Z" fill="#8ABC8A"/>
<path d="M30.3649 22.7749H29.4924V23.6574H30.3649V22.7749Z" fill="#9FF5F7"/>
<path d="M30.3649 21.9024H29.4924V22.7749H30.3649V21.9024Z" fill="#73C6C6"/>
<path d="M30.3649 21.0199H29.4924V21.9024H30.3649V21.0199Z" fill="#969696"/>
<path d="M30.3649 20.1474H29.4924V21.0199H30.3649V20.1474Z" fill="#969696"/>
<path d="M30.3649 19.2649H29.4924V20.1474H30.3649V19.2649Z" fill="#969696"/>
<path d="M30.3649 18.3924H29.4924V19.2649H30.3649V18.3924Z" fill="#FFD8AE"/>
<path d="M30.3649 17.5099H29.4924V18.3924H30.3649V17.5099Z" fill="#969696"/>
<path d="M30.3649 16.6287H29.4924V17.5112H30.3649V16.6287Z" fill="black"/>
<path d="M30.3649 15.7562H29.4924V16.6287H30.3649V15.7562Z" fill="black"/>
<path d="M30.3649 14.8737H29.4924V15.7562H30.3649V14.8737Z" fill="black"/>
<path d="M29.4938 40.3412H28.6113V41.2137H29.4938V40.3412Z" fill="black"/>
<path d="M29.4938 39.4587H28.6113V40.3412H29.4938V39.4587Z" fill="#724107"/>
<path d="M29.4938 38.5862H28.6113V39.4587H29.4938V38.5862Z" fill="#4C3A1F"/>
<path d="M29.4938 37.7037H28.6113V38.5862H29.4938V37.7037Z" fill="#4C3A1F"/>
<path d="M29.4938 36.8224H28.6113V37.7036H29.4938V36.8224Z" fill="#4C3A1F"/>
<path d="M29.4938 35.9487H28.6113V36.8224H29.4938V35.9487Z" fill="#4C3A1F"/>
<path d="M29.4938 35.0687H28.6113V35.9499H29.4938V35.0687Z" fill="#4C3A1F"/>
<path d="M29.4938 34.1949H28.6113V35.0674H29.4938V34.1949Z" fill="#634D27"/>
<path d="M29.4938 33.3124H28.6113V34.1949H29.4938V33.3124Z" fill="#634D27"/>
<path d="M29.4938 32.4399H28.6113V33.3124H29.4938V32.4399Z" fill="#634D27"/>
<path d="M29.4938 31.5574H28.6113V32.4399H29.4938V31.5574Z" fill="#634D27"/>
<path d="M29.4938 30.6761H28.6113V31.5574H29.4938V30.6761Z" fill="black"/>
<path d="M29.4938 29.8024H28.6113V30.6749H29.4938V29.8024Z" fill="black"/>
<path d="M29.4938 28.9211H28.6113V29.8036H29.4938V28.9211Z" fill="#FFD8AE"/>
<path d="M29.4938 28.0486H28.6113V28.9211H29.4938V28.0486Z" fill="#FFD8AE"/>
<path d="M29.4938 27.1661H28.6113V28.0486H29.4938V27.1661Z" fill="#FFD8AE"/>
<path d="M29.4938 26.2936H28.6113V27.1661H29.4938V26.2936Z" fill="#668466"/>
<path d="M29.4938 25.4111H28.6113V26.2936H29.4938V25.4111Z" fill="#9DCF9D"/>
<path d="M29.4938 24.5386H28.6113V25.4111H29.4938V24.5386Z" fill="#8ABC8A"/>
<path d="M29.4938 23.6561H28.6113V24.5386H29.4938V23.6561Z" fill="#9FF5F7"/>
<path d="M29.4938 22.7749H28.6113V23.6574H29.4938V22.7749Z" fill="#9FF5F7"/>
<path d="M29.4938 21.9024H28.6113V22.7749H29.4938V21.9024Z" fill="#9FF5F7"/>
<path d="M29.4938 21.0199H28.6113V21.9024H29.4938V21.0199Z" fill="#73C6C6"/>
<path d="M29.4938 20.1474H28.6113V21.0199H29.4938V20.1474Z" fill="#73C6C6"/>
<path d="M29.4938 19.2649H28.6113V20.1474H29.4938V19.2649Z" fill="#DBAB7B"/>
<path d="M29.4938 18.3924H28.6113V19.2649H29.4938V18.3924Z" fill="#DBAB7B"/>
<path d="M29.4938 17.5099H28.6113V18.3924H29.4938V17.5099Z" fill="#969696"/>
<path d="M29.4938 16.6287H28.6113V17.5112H29.4938V16.6287Z" fill="#969696"/>
<path d="M29.4938 15.7562H28.6113V16.6287H29.4938V15.7562Z" fill="#969696"/>
<path d="M29.4938 14.8737H28.6113V15.7562H29.4938V14.8737Z" fill="black"/>
<path d="M29.4938 14.0012H28.6113V14.8737H29.4938V14.0012Z" fill="black"/>
<path d="M28.6112 40.3412H27.73V41.2137H28.6112V40.3412Z" fill="black"/>
<path d="M28.6112 39.4587H27.73V40.3412H28.6112V39.4587Z" fill="black"/>
<path d="M28.6112 38.5862H27.73V39.4587H28.6112V38.5862Z" fill="black"/>
<path d="M28.6112 37.7037H27.73V38.5862H28.6112V37.7037Z" fill="#4C3A1F"/>
<path d="M28.6112 36.8224H27.73V37.7036H28.6112V36.8224Z" fill="#4C3A1F"/>
<path d="M28.6112 35.9487H27.73V36.8224H28.6112V35.9487Z" fill="#634D27"/>
<path d="M28.6112 35.0687H27.73V35.9499H28.6112V35.0687Z" fill="#634D27"/>
<path d="M28.6112 34.1949H27.73V35.0674H28.6112V34.1949Z" fill="#634D27"/>
<path d="M28.6112 33.3124H27.73V34.1949H28.6112V33.3124Z" fill="#634D27"/>
<path d="M28.6112 32.4399H27.73V33.3124H28.6112V32.4399Z" fill="#634D27"/>
<path d="M28.6112 31.5574H27.73V32.4399H28.6112V31.5574Z" fill="#634D27"/>
<path d="M28.6112 30.6761H27.73V31.5574H28.6112V30.6761Z" fill="#4C3A1F"/>
<path d="M28.6112 29.8024H27.73V30.6749H28.6112V29.8024Z" fill="#8ABC8A"/>
<path d="M28.6112 28.9211H27.73V29.8036H28.6112V28.9211Z" fill="#FFD8AE"/>
<path d="M28.6112 28.0486H27.73V28.9211H28.6112V28.0486Z" fill="#FFD8AE"/>
<path d="M28.6112 27.1661H27.73V28.0486H28.6112V27.1661Z" fill="#FFD8AE"/>
<path d="M28.6112 26.2936H27.73V27.1661H28.6112V26.2936Z" fill="#9DCF9D"/>
<path d="M28.6112 25.4111H27.73V26.2936H28.6112V25.4111Z" fill="#9DCF9D"/>
<path d="M28.6112 24.5386H27.73V25.4111H28.6112V24.5386Z" fill="#9FF5F7"/>
<path d="M28.6112 23.6561H27.73V24.5386H28.6112V23.6561Z" fill="#9FF5F7"/>
<path d="M28.6112 22.7749H27.73V23.6574H28.6112V22.7749Z" fill="#73C6C6"/>
<path d="M28.6112 21.9024H27.73V22.7749H28.6112V21.9024Z" fill="#9FF5F7"/>
<path d="M28.6112 21.0199H27.73V21.9024H28.6112V21.0199Z" fill="#9FF5F7"/>
<path d="M28.6112 20.1474H27.73V21.0199H28.6112V20.1474Z" fill="#73C6C6"/>
<path d="M28.6112 19.2649H27.73V20.1474H28.6112V19.2649Z" fill="#FFD8AE"/>
<path d="M28.6112 18.3924H27.73V19.2649H28.6112V18.3924Z" fill="#FFD8AE"/>
<path d="M28.6112 17.5099H27.73V18.3924H28.6112V17.5099Z" fill="#FFD8AE"/>
<path d="M28.6112 16.6287H27.73V17.5112H28.6112V16.6287Z" fill="#AFAFAF"/>
<path d="M28.6112 15.7562H27.73V16.6287H28.6112V15.7562Z" fill="#AFAFAF"/>
<path d="M28.6112 14.8737H27.73V15.7562H28.6112V14.8737Z" fill="#969696"/>
<path d="M28.6112 14.0012H27.73V14.8737H28.6112V14.0012Z" fill="#969696"/>
<path d="M28.6112 13.1187H27.73V14.0012H28.6112V13.1187Z" fill="black"/>
<path d="M27.7287 37.7037H26.8562V38.5862H27.7287V37.7037Z" fill="black"/>
<path d="M27.7287 36.8224H26.8562V37.7036H27.7287V36.8224Z" fill="black"/>
<path d="M27.7287 35.9487H26.8562V36.8224H27.7287V35.9487Z" fill="#634D27"/>
<path d="M27.7287 35.0687H26.8562V35.9499H27.7287V35.0687Z" fill="#634D27"/>
<path d="M27.7287 34.1949H26.8562V35.0674H27.7287V34.1949Z" fill="#634D27"/>
<path d="M27.7287 33.3124H26.8562V34.1949H27.7287V33.3124Z" fill="#634D27"/>
<path d="M27.7287 32.4399H26.8562V33.3124H27.7287V32.4399Z" fill="#634D27"/>
<path d="M27.7287 31.5574H26.8562V32.4399H27.7287V31.5574Z" fill="#634D27"/>
<path d="M27.7287 30.6761H26.8562V31.5574H27.7287V30.6761Z" fill="#4C3A1F"/>
<path d="M27.7287 29.8024H26.8562V30.6749H27.7287V29.8024Z" fill="#8ABC8A"/>
<path d="M27.7287 28.9211H26.8562V29.8036H27.7287V28.9211Z" fill="#9DCF9D"/>
<path d="M27.7287 28.0486H26.8562V28.9211H27.7287V28.0486Z" fill="#9DCF9D"/>
<path d="M27.7287 27.1661H26.8562V28.0486H27.7287V27.1661Z" fill="#FFD8AE"/>
<path d="M27.7287 26.2936H26.8562V27.1661H27.7287V26.2936Z" fill="#9DCF9D"/>
<path d="M27.7287 25.4111H26.8562V26.2936H27.7287V25.4111Z" fill="#73C6C6"/>
<path d="M27.7287 24.5386H26.8562V25.4111H27.7287V24.5386Z" fill="#9FF5F7"/>
<path d="M27.7287 23.6561H26.8562V24.5386H27.7287V23.6561Z" fill="#9FF5F7"/>
<path d="M27.7287 22.7749H26.8562V23.6574H27.7287V22.7749Z" fill="#9FF5F7"/>
<path d="M27.7287 21.9024H26.8562V22.7749H27.7287V21.9024Z" fill="#73C6C6"/>
<path d="M27.7287 21.0199H26.8562V21.9024H27.7287V21.0199Z" fill="#73C6C6"/>
<path d="M27.7287 20.1474H26.8562V21.0199H27.7287V20.1474Z" fill="#FFD8AE"/>
<path d="M27.7287 19.2649H26.8562V20.1474H27.7287V19.2649Z" fill="#FFD8AE"/>
<path d="M27.7287 18.3924H26.8562V19.2649H27.7287V18.3924Z" fill="black"/>
<path d="M27.7287 17.5099H26.8562V18.3924H27.7287V17.5099Z" fill="#FFD8AE"/>
<path d="M27.7287 16.6287H26.8562V17.5112H27.7287V16.6287Z" fill="#AFAFAF"/>
<path d="M27.7287 15.7562H26.8562V16.6287H27.7287V15.7562Z" fill="#AFAFAF"/>
<path d="M27.7287 14.8737H26.8562V15.7562H27.7287V14.8737Z" fill="#AFAFAF"/>
<path d="M27.7287 14.0012H26.8562V14.8737H27.7287V14.0012Z" fill="#969696"/>
<path d="M27.7287 13.1187H26.8562V14.0012H27.7287V13.1187Z" fill="black"/>
<path d="M26.8561 36.8224H25.9736V37.7036H26.8561V36.8224Z" fill="black"/>
<path d="M26.8561 35.9487H25.9736V36.8224H26.8561V35.9487Z" fill="black"/>
<path d="M26.8561 35.0687H25.9736V35.9499H26.8561V35.0687Z" fill="black"/>
<path d="M26.8561 34.1949H25.9736V35.0674H26.8561V34.1949Z" fill="#634D27"/>
<path d="M26.8561 33.3124H25.9736V34.1949H26.8561V33.3124Z" fill="#634D27"/>
<path d="M26.8561 32.4399H25.9736V33.3124H26.8561V32.4399Z" fill="#634D27"/>
<path d="M26.8561 31.5574H25.9736V32.4399H26.8561V31.5574Z" fill="#634D27"/>
<path d="M26.8561 30.6761H25.9736V31.5574H26.8561V30.6761Z" fill="#4C3A1F"/>
<path d="M26.8561 29.8024H25.9736V30.6749H26.8561V29.8024Z" fill="#8ABC8A"/>
<path d="M26.8561 28.9211H25.9736V29.8036H26.8561V28.9211Z" fill="#9DCF9D"/>
<path d="M26.8561 28.0486H25.9736V28.9211H26.8561V28.0486Z" fill="#9DCF9D"/>
<path d="M26.8561 27.1661H25.9736V28.0486H26.8561V27.1661Z" fill="#9DCF9D"/>
<path d="M26.8561 26.2936H25.9736V27.1661H26.8561V26.2936Z" fill="#9DCF9D"/>
<path d="M26.8561 25.4111H25.9736V26.2936H26.8561V25.4111Z" fill="#8ABC8A"/>
<path d="M26.8561 24.5386H25.9736V25.4111H26.8561V24.5386Z" fill="#73C6C6"/>
<path d="M26.8561 23.6561H25.9736V24.5386H26.8561V23.6561Z" fill="#9FF5F7"/>
<path d="M26.8561 22.7749H25.9736V23.6574H26.8561V22.7749Z" fill="#9FF5F7"/>
<path d="M26.8561 21.9024H25.9736V22.7749H26.8561V21.9024Z" fill="#9FF5F7"/>
<path d="M26.8561 21.0199H25.9736V21.9024H26.8561V21.0199Z" fill="#73C6C6"/>
<path d="M26.8561 20.1474H25.9736V21.0199H26.8561V20.1474Z" fill="#FFD8AE"/>
<path d="M26.8561 19.2649H25.9736V20.1474H26.8561V19.2649Z" fill="#FFD8AE"/>
<path d="M26.8561 18.3924H25.9736V19.2649H26.8561V18.3924Z" fill="#FFD8AE"/>
<path d="M26.8561 17.5099H25.9736V18.3924H26.8561V17.5099Z" fill="#FFD8AE"/>
<path d="M26.8561 16.6287H25.9736V17.5112H26.8561V16.6287Z" fill="#AFAFAF"/>
<path d="M26.8561 15.7562H25.9736V16.6287H26.8561V15.7562Z" fill="#AFAFAF"/>
<path d="M26.8561 14.8737H25.9736V15.7562H26.8561V14.8737Z" fill="#AFAFAF"/>
<path d="M26.8561 14.0012H25.9736V14.8737H26.8561V14.0012Z" fill="#969696"/>
<path d="M26.8561 13.1187H25.9736V14.0012H26.8561V13.1187Z" fill="black"/>
<path d="M25.9738 40.3412H25.1013V41.2137H25.9738V40.3412Z" fill="black"/>
<path d="M25.9738 39.4587H25.1013V40.3412H25.9738V39.4587Z" fill="black"/>
<path d="M25.9738 38.5862H25.1013V39.4587H25.9738V38.5862Z" fill="black"/>
<path d="M25.9738 37.7037H25.1013V38.5862H25.9738V37.7037Z" fill="black"/>
<path d="M25.9738 36.8224H25.1013V37.7036H25.9738V36.8224Z" fill="#4C3A1F"/>
<path d="M25.9738 35.9487H25.1013V36.8224H25.9738V35.9487Z" fill="#634D27"/>
<path d="M25.9738 35.0687H25.1013V35.9499H25.9738V35.0687Z" fill="#634D27"/>
<path d="M25.9738 34.1949H25.1013V35.0674H25.9738V34.1949Z" fill="#634D27"/>
<path d="M25.9738 33.3124H25.1013V34.1949H25.9738V33.3124Z" fill="#634D27"/>
<path d="M25.9738 32.4399H25.1013V33.3124H25.9738V32.4399Z" fill="#634D27"/>
<path d="M25.9738 31.5574H25.1013V32.4399H25.9738V31.5574Z" fill="#4C3A1F"/>
<path d="M25.9738 30.6761H25.1013V31.5574H25.9738V30.6761Z" fill="#8ABC8A"/>
<path d="M25.9738 29.8024H25.1013V30.6749H25.9738V29.8024Z" fill="#8ABC8A"/>
<path d="M25.9738 28.9211H25.1013V29.8036H25.9738V28.9211Z" fill="#9DCF9D"/>
<path d="M25.9738 28.0486H25.1013V28.9211H25.9738V28.0486Z" fill="#9DCF9D"/>
<path d="M25.9738 27.1661H25.1013V28.0486H25.9738V27.1661Z" fill="#9DCF9D"/>
<path d="M25.9738 26.2936H25.1013V27.1661H25.9738V26.2936Z" fill="#9DCF9D"/>
<path d="M25.9738 25.4111H25.1013V26.2936H25.9738V25.4111Z" fill="#8ABC8A"/>
<path d="M25.9738 24.5386H25.1013V25.4111H25.9738V24.5386Z" fill="#8ABC8A"/>
<path d="M25.9738 23.6561H25.1013V24.5386H25.9738V23.6561Z" fill="#73C6C6"/>
<path d="M25.9738 22.7749H25.1013V23.6574H25.9738V22.7749Z" fill="#9FF5F7"/>
<path d="M25.9738 21.9024H25.1013V22.7749H25.9738V21.9024Z" fill="#9FF5F7"/>
<path d="M25.9738 21.0199H25.1013V21.9024H25.9738V21.0199Z" fill="#73C6C6"/>
<path d="M25.9738 20.1474H25.1013V21.0199H25.9738V20.1474Z" fill="#FFD8AE"/>
<path d="M25.9738 19.2649H25.1013V20.1474H25.9738V19.2649Z" fill="#FFD8AE"/>
<path d="M25.9738 18.3924H25.1013V19.2649H25.9738V18.3924Z" fill="#FFD8AE"/>
<path d="M25.9738 17.5099H25.1013V18.3924H25.9738V17.5099Z" fill="#FFD8AE"/>
<path d="M25.9738 16.6287H25.1013V17.5112H25.9738V16.6287Z" fill="#AFAFAF"/>
<path d="M25.9738 15.7562H25.1013V16.6287H25.9738V15.7562Z" fill="#AFAFAF"/>
<path d="M25.9738 14.8737H25.1013V15.7562H25.9738V14.8737Z" fill="#AFAFAF"/>
<path d="M25.9738 14.0012H25.1013V14.8737H25.9738V14.0012Z" fill="#AFAFAF"/>
<path d="M25.9738 13.1187H25.1013V14.0012H25.9738V13.1187Z" fill="#969696"/>
<path d="M25.9738 12.2462H25.1013V13.1187H25.9738V12.2462Z" fill="black"/>
<path d="M25.1012 40.3412H24.2188V41.2137H25.1012V40.3412Z" fill="black"/>
<path d="M25.1012 39.4587H24.2188V40.3412H25.1012V39.4587Z" fill="#724107"/>
<path d="M25.1012 38.5862H24.2188V39.4587H25.1012V38.5862Z" fill="#4C3A1F"/>
<path d="M25.1012 37.7037H24.2188V38.5862H25.1012V37.7037Z" fill="#4C3A1F"/>
<path d="M25.1012 36.8224H24.2188V37.7036H25.1012V36.8224Z" fill="#4C3A1F"/>
<path d="M25.1012 35.9487H24.2188V36.8224H25.1012V35.9487Z" fill="#4C3A1F"/>
<path d="M25.1012 35.0687H24.2188V35.9499H25.1012V35.0687Z" fill="#634D27"/>
<path d="M25.1012 34.1949H24.2188V35.0674H25.1012V34.1949Z" fill="#634D27"/>
<path d="M25.1012 33.3124H24.2188V34.1949H25.1012V33.3124Z" fill="#634D27"/>
<path d="M25.1012 32.4399H24.2188V33.3124H25.1012V32.4399Z" fill="#634D27"/>
<path d="M25.1012 31.5574H24.2188V32.4399H25.1012V31.5574Z" fill="#4C3A1F"/>
<path d="M25.1012 30.6761H24.2188V31.5574H25.1012V30.6761Z" fill="#8ABC8A"/>
<path d="M25.1012 29.8024H24.2188V30.6749H25.1012V29.8024Z" fill="#9DCF9D"/>
<path d="M25.1012 28.9211H24.2188V29.8036H25.1012V28.9211Z" fill="#9FF5F7"/>
<path d="M25.1012 28.0486H24.2188V28.9211H25.1012V28.0486Z" fill="#9DCF9D"/>
<path d="M25.1012 27.1661H24.2188V28.0486H25.1012V27.1661Z" fill="#9DCF9D"/>
<path d="M25.1012 26.2936H24.2188V27.1661H25.1012V26.2936Z" fill="#9FF5F7"/>
<path d="M25.1012 25.4111H24.2188V26.2936H25.1012V25.4111Z" fill="#9DCF9D"/>
<path d="M25.1012 24.5386H24.2188V25.4111H25.1012V24.5386Z" fill="#9DCF9D"/>
<path d="M25.1012 23.6561H24.2188V24.5386H25.1012V23.6561Z" fill="#73C6C6"/>
<path d="M25.1012 22.7749H24.2188V23.6574H25.1012V22.7749Z" fill="#9FF5F7"/>
<path d="M25.1012 21.9024H24.2188V22.7749H25.1012V21.9024Z" fill="#9FF5F7"/>
<path d="M25.1012 21.0199H24.2188V21.9024H25.1012V21.0199Z" fill="#73C6C6"/>
<path d="M25.1012 20.1474H24.2188V21.0199H25.1012V20.1474Z" fill="#FFD8AE"/>
<path d="M25.1012 19.2649H24.2188V20.1474H25.1012V19.2649Z" fill="#FFD8AE"/>
<path d="M25.1012 18.3924H24.2188V19.2649H25.1012V18.3924Z" fill="black"/>
<path d="M25.1012 17.5099H24.2188V18.3924H25.1012V17.5099Z" fill="#FFD8AE"/>
<path d="M25.1012 16.6287H24.2188V17.5112H25.1012V16.6287Z" fill="#AFAFAF"/>
<path d="M25.1012 15.7562H24.2188V16.6287H25.1012V15.7562Z" fill="#AFAFAF"/>
<path d="M25.1012 14.8737H24.2188V15.7562H25.1012V14.8737Z" fill="#AFAFAF"/>
<path d="M25.1012 14.0012H24.2188V14.8737H25.1012V14.0012Z" fill="#AFAFAF"/>
<path d="M25.1012 13.1187H24.2188V14.0012H25.1012V13.1187Z" fill="#969696"/>
<path d="M25.1012 12.2462H24.2188V13.1187H25.1012V12.2462Z" fill="black"/>
<path d="M24.2187 40.3412H23.3462V41.2137H24.2187V40.3412Z" fill="black"/>
<path d="M24.2187 39.4587H23.3462V40.3412H24.2187V39.4587Z" fill="#724107"/>
<path d="M24.2187 38.5862H23.3462V39.4587H24.2187V38.5862Z" fill="#4C3A1F"/>
<path d="M24.2187 37.7037H23.3462V38.5862H24.2187V37.7037Z" fill="#4C3A1F"/>
<path d="M24.2187 36.8224H23.3462V37.7036H24.2187V36.8224Z" fill="#4C3A1F"/>
<path d="M24.2187 35.9487H23.3462V36.8224H24.2187V35.9487Z" fill="#4C3A1F"/>
<path d="M24.2187 35.0687H23.3462V35.9499H24.2187V35.0687Z" fill="#4C3A1F"/>
<path d="M24.2187 34.1949H23.3462V35.0674H24.2187V34.1949Z" fill="#634D27"/>
<path d="M24.2187 33.3124H23.3462V34.1949H24.2187V33.3124Z" fill="#634D27"/>
<path d="M24.2187 32.4399H23.3462V33.3124H24.2187V32.4399Z" fill="#634D27"/>
<path d="M24.2187 31.5574H23.3462V32.4399H24.2187V31.5574Z" fill="#4C3A1F"/>
<path d="M24.2187 30.6761H23.3462V31.5574H24.2187V30.6761Z" fill="#668466"/>
<path d="M24.2187 29.8024H23.3462V30.6749H24.2187V29.8024Z" fill="#668466"/>
<path d="M24.2187 28.9211H23.3462V29.8036H24.2187V28.9211Z" fill="#668466"/>
<path d="M24.2187 28.0486H23.3462V28.9211H24.2187V28.0486Z" fill="#668466"/>
<path d="M24.2187 27.1661H23.3462V28.0486H24.2187V27.1661Z" fill="#668466"/>
<path d="M24.2187 26.2936H23.3462V27.1661H24.2187V26.2936Z" fill="#668466"/>
<path d="M24.2187 25.4111H23.3462V26.2936H24.2187V25.4111Z" fill="#668466"/>
<path d="M24.2187 24.5386H23.3462V25.4111H24.2187V24.5386Z" fill="#668466"/>
<path d="M24.2187 23.6561H23.3462V24.5386H24.2187V23.6561Z" fill="#73C6C6"/>
<path d="M24.2187 22.7749H23.3462V23.6574H24.2187V22.7749Z" fill="#9FF5F7"/>
<path d="M24.2187 21.9024H23.3462V22.7749H24.2187V21.9024Z" fill="#73C6C6"/>
<path d="M24.2187 21.0199H23.3462V21.9024H24.2187V21.0199Z" fill="#73C6C6"/>
<path d="M24.2187 20.1474H23.3462V21.0199H24.2187V20.1474Z" fill="#FFD8AE"/>
<path d="M24.2187 19.2649H23.3462V20.1474H24.2187V19.2649Z" fill="#FFD8AE"/>
<path d="M24.2187 18.3924H23.3462V19.2649H24.2187V18.3924Z" fill="#FFD8AE"/>
<path d="M24.2187 17.5099H23.3462V18.3924H24.2187V17.5099Z" fill="#AFAFAF"/>
<path d="M24.2187 16.6287H23.3462V17.5112H24.2187V16.6287Z" fill="#AFAFAF"/>
<path d="M24.2187 15.7562H23.3462V16.6287H24.2187V15.7562Z" fill="#AFAFAF"/>
<path d="M24.2187 14.8737H23.3462V15.7562H24.2187V14.8737Z" fill="#AFAFAF"/>
<path d="M24.2187 14.0012H23.3462V14.8737H24.2187V14.0012Z" fill="#AFAFAF"/>
<path d="M24.2187 13.1187H23.3462V14.0012H24.2187V13.1187Z" fill="#AFAFAF"/>
<path d="M24.2187 12.2462H23.3462V13.1187H24.2187V12.2462Z" fill="black"/>
<path d="M23.3473 40.3412H22.4648V41.2137H23.3473V40.3412Z" fill="black"/>
<path d="M23.3473 39.4587H22.4648V40.3412H23.3473V39.4587Z" fill="#724107"/>
<path d="M23.3473 38.5862H22.4648V39.4587H23.3473V38.5862Z" fill="#724107"/>
<path d="M23.3473 37.7037H22.4648V38.5862H23.3473V37.7037Z" fill="black"/>
<path d="M23.3473 36.8224H22.4648V37.7036H23.3473V36.8224Z" fill="black"/>
<path d="M23.3473 35.9487H22.4648V36.8224H23.3473V35.9487Z" fill="black"/>
<path d="M23.3473 35.0687H22.4648V35.9499H23.3473V35.0687Z" fill="#4C3A1F"/>
<path d="M23.3473 34.1949H22.4648V35.0674H23.3473V34.1949Z" fill="#4C3A1F"/>
<path d="M23.3473 33.3124H22.4648V34.1949H23.3473V33.3124Z" fill="#4C3A1F"/>
<path d="M23.3473 32.4399H22.4648V33.3124H23.3473V32.4399Z" fill="#4C3A1F"/>
<path d="M23.3473 31.5574H22.4648V32.4399H23.3473V31.5574Z" fill="#4C3A1F"/>
<path d="M23.3473 30.6761H22.4648V31.5574H23.3473V30.6761Z" fill="#8ABC8A"/>
<path d="M23.3473 29.8024H22.4648V30.6749H23.3473V29.8024Z" fill="#9DCF9D"/>
<path d="M23.3473 28.9211H22.4648V29.8036H23.3473V28.9211Z" fill="#9DCF9D"/>
<path d="M23.3473 28.0486H22.4648V28.9211H23.3473V28.0486Z" fill="#9DCF9D"/>
<path d="M23.3473 27.1661H22.4648V28.0486H23.3473V27.1661Z" fill="#9DCF9D"/>
<path d="M23.3473 26.2936H22.4648V27.1661H23.3473V26.2936Z" fill="#9DCF9D"/>
<path d="M23.3473 25.4111H22.4648V26.2936H23.3473V25.4111Z" fill="#9DCF9D"/>
<path d="M23.3473 24.5386H22.4648V25.4111H23.3473V24.5386Z" fill="#73C6C6"/>
<path d="M23.3473 23.6561H22.4648V24.5386H23.3473V23.6561Z" fill="#9FF5F7"/>
<path d="M23.3473 22.7749H22.4648V23.6574H23.3473V22.7749Z" fill="#9FF5F7"/>
<path d="M23.3473 21.9024H22.4648V22.7749H23.3473V21.9024Z" fill="#73C6C6"/>
<path d="M23.3473 21.0199H22.4648V21.9024H23.3473V21.0199Z" fill="#73C6C6"/>
<path d="M23.3473 20.1474H22.4648V21.0199H23.3473V20.1474Z" fill="#969696"/>
<path d="M23.3473 19.2649H22.4648V20.1474H23.3473V19.2649Z" fill="#FFD8AE"/>
<path d="M23.3473 18.3924H22.4648V19.2649H23.3473V18.3924Z" fill="#AFAFAF"/>
<path d="M23.3473 17.5099H22.4648V18.3924H23.3473V17.5099Z" fill="#AFAFAF"/>
<path d="M23.3473 16.6287H22.4648V17.5112H23.3473V16.6287Z" fill="#AFAFAF"/>
<path d="M23.3473 15.7562H22.4648V16.6287H23.3473V15.7562Z" fill="#AFAFAF"/>
<path d="M23.3473 14.8737H22.4648V15.7562H23.3473V14.8737Z" fill="#AFAFAF"/>
<path d="M23.3473 14.0012H22.4648V14.8737H23.3473V14.0012Z" fill="#AFAFAF"/>
<path d="M23.3473 13.1187H22.4648V14.0012H23.3473V13.1187Z" fill="black"/>
<path d="M22.4638 40.3412H21.5913V41.2137H22.4638V40.3412Z" fill="black"/>
<path d="M22.4638 39.4587H21.5913V40.3412H22.4638V39.4587Z" fill="#724107"/>
<path d="M22.4638 38.5862H21.5913V39.4587H22.4638V38.5862Z" fill="black"/>
<path d="M22.4638 35.0687H21.5913V35.9499H22.4638V35.0687Z" fill="black"/>
<path d="M22.4638 34.1949H21.5913V35.0674H22.4638V34.1949Z" fill="black"/>
<path d="M22.4638 33.3124H21.5913V34.1949H22.4638V33.3124Z" fill="black"/>
<path d="M22.4638 32.4399H21.5913V33.3124H22.4638V32.4399Z" fill="black"/>
<path d="M22.4638 31.5574H21.5913V32.4399H22.4638V31.5574Z" fill="black"/>
<path d="M22.4638 30.6761H21.5913V31.5574H22.4638V30.6761Z" fill="black"/>
<path d="M22.4638 29.8024H21.5913V30.6749H22.4638V29.8024Z" fill="#9DCF9D"/>
<path d="M22.4638 28.9211H21.5913V29.8036H22.4638V28.9211Z" fill="#9DCF9D"/>
<path d="M22.4638 28.0486H21.5913V28.9211H22.4638V28.0486Z" fill="#9DCF9D"/>
<path d="M22.4638 27.1661H21.5913V28.0486H22.4638V27.1661Z" fill="#9DCF9D"/>
<path d="M22.4638 26.2936H21.5913V27.1661H22.4638V26.2936Z" fill="#9DCF9D"/>
<path d="M22.4638 25.4111H21.5913V26.2936H22.4638V25.4111Z" fill="#9DCF9D"/>
<path d="M22.4638 24.5386H21.5913V25.4111H22.4638V24.5386Z" fill="#73C6C6"/>
<path d="M22.4638 23.6561H21.5913V24.5386H22.4638V23.6561Z" fill="#73C6C6"/>
<path d="M22.4638 22.7749H21.5913V23.6574H22.4638V22.7749Z" fill="#73C6C6"/>
<path d="M22.4638 21.9024H21.5913V22.7749H22.4638V21.9024Z" fill="black"/>
<path d="M22.4638 21.0199H21.5913V21.9024H22.4638V21.0199Z" fill="#969696"/>
<path d="M22.4638 20.1474H21.5913V21.0199H22.4638V20.1474Z" fill="#969696"/>
<path d="M22.4638 19.2649H21.5913V20.1474H22.4638V19.2649Z" fill="#969696"/>
<path d="M22.4638 18.3924H21.5913V19.2649H22.4638V18.3924Z" fill="#969696"/>
<path d="M22.4638 17.5099H21.5913V18.3924H22.4638V17.5099Z" fill="black"/>
<path d="M22.4638 16.6287H21.5913V17.5112H22.4638V16.6287Z" fill="#AFAFAF"/>
<path d="M22.4638 15.7562H21.5913V16.6287H22.4638V15.7562Z" fill="#AFAFAF"/>
<path d="M22.4638 14.8737H21.5913V15.7562H22.4638V14.8737Z" fill="#AFAFAF"/>
<path d="M22.4638 14.0012H21.5913V14.8737H22.4638V14.0012Z" fill="#969696"/>
<path d="M22.4638 13.1187H21.5913V14.0012H22.4638V13.1187Z" fill="black"/>
<path d="M21.5925 40.3412H20.71V41.2137H21.5925V40.3412Z" fill="black"/>
<path d="M21.5925 39.4587H20.71V40.3412H21.5925V39.4587Z" fill="black"/>
<path d="M21.5925 29.8024H20.71V30.6749H21.5925V29.8024Z" fill="black"/>
<path d="M21.5925 28.9211H20.71V29.8036H21.5925V28.9211Z" fill="#9DCF9D"/>
<path d="M21.5925 28.0486H20.71V28.9211H21.5925V28.0486Z" fill="#668466"/>
<path d="M21.5925 27.1661H20.71V28.0486H21.5925V27.1661Z" fill="#4F704F"/>
<path d="M21.5925 26.2936H20.71V27.1661H21.5925V26.2936Z" fill="#4F704F"/>
<path d="M21.5925 25.4111H20.71V26.2936H21.5925V25.4111Z" fill="black"/>
<path d="M21.5925 24.5386H20.71V25.4111H21.5925V24.5386Z" fill="black"/>
<path d="M21.5925 23.6561H20.71V24.5386H21.5925V23.6561Z" fill="black"/>
<path d="M21.5925 22.7749H20.71V23.6574H21.5925V22.7749Z" fill="black"/>
<path d="M21.5925 21.0199H20.71V21.9024H21.5925V21.0199Z" fill="black"/>
<path d="M21.5925 20.1474H20.71V21.0199H21.5925V20.1474Z" fill="#969696"/>
<path d="M21.5925 19.2649H20.71V20.1474H21.5925V19.2649Z" fill="black"/>
<path d="M21.5925 18.3924H20.71V19.2649H21.5925V18.3924Z" fill="black"/>
<path d="M21.5925 15.7562H20.71V16.6287H21.5925V15.7562Z" fill="black"/>
<path d="M21.5925 14.8737H20.71V15.7562H21.5925V14.8737Z" fill="#969696"/>
<path d="M21.5925 14.0012H20.71V14.8737H21.5925V14.0012Z" fill="black"/>
<path d="M20.7099 29.8024H19.8274V30.6749H20.7099V29.8024Z" fill="black"/>
<path d="M20.7099 28.9211H19.8274V29.8036H20.7099V28.9211Z" fill="#668466"/>
<path d="M20.7099 28.0486H19.8274V28.9211H20.7099V28.0486Z" fill="#668466"/>
<path d="M20.7099 27.1661H19.8274V28.0486H20.7099V27.1661Z" fill="#668466"/>
<path d="M20.7099 26.2936H19.8274V27.1661H20.7099V26.2936Z" fill="#4F704F"/>
<path d="M20.7099 25.4111H19.8274V26.2936H20.7099V25.4111Z" fill="black"/>
<path d="M20.7099 21.0199H19.8274V21.9024H20.7099V21.0199Z" fill="black"/>
<path d="M20.7099 20.1474H19.8274V21.0199H20.7099V20.1474Z" fill="black"/>
<path d="M20.7099 19.2649H19.8274V20.1474H20.7099V19.2649Z" fill="black"/>
<path d="M20.7099 16.6287H19.8274V17.5112H20.7099V16.6287Z" fill="black"/>
<path d="M20.7099 15.7562H19.8274V16.6287H20.7099V15.7562Z" fill="#969696"/>
<path d="M20.7099 14.8737H19.8274V15.7562H20.7099V14.8737Z" fill="black"/>
<path d="M19.8276 30.6761H18.9551V31.5574H19.8276V30.6761Z" fill="black"/>
<path d="M19.8276 29.8024H18.9551V30.6749H19.8276V29.8024Z" fill="#4F704F"/>
<path d="M19.8276 28.9211H18.9551V29.8036H19.8276V28.9211Z" fill="#668466"/>
<path d="M19.8276 28.0486H18.9551V28.9211H19.8276V28.0486Z" fill="#4F704F"/>
<path d="M19.8276 27.1661H18.9551V28.0486H19.8276V27.1661Z" fill="#668466"/>
<path d="M19.8276 26.2936H18.9551V27.1661H19.8276V26.2936Z" fill="#668466"/>
<path d="M19.8276 25.4111H18.9551V26.2936H19.8276V25.4111Z" fill="black"/>
<path d="M19.8276 24.5386H18.9551V25.4111H19.8276V24.5386Z" fill="black"/>
<path d="M19.8276 15.7562H18.9551V16.6287H19.8276V15.7562Z" fill="black"/>
<path d="M18.955 30.6761H18.0725V31.5574H18.955V30.6761Z" fill="black"/>
<path d="M18.955 29.8024H18.0725V30.6749H18.955V29.8024Z" fill="#4F704F"/>
<path d="M18.955 28.9211H18.0725V29.8036H18.955V28.9211Z" fill="#4F704F"/>
<path d="M18.955 28.0486H18.0725V28.9211H18.955V28.0486Z" fill="#668466"/>
<path d="M18.955 27.1661H18.0725V28.0486H18.955V27.1661Z" fill="#668466"/>
<path d="M18.955 26.2936H18.0725V27.1661H18.955V26.2936Z" fill="black"/>
<path d="M18.0725 30.6761H17.2V31.5574H18.0725V30.6761Z" fill="black"/>
<path d="M18.0725 29.8024H17.2V30.6749H18.0725V29.8024Z" fill="#4F704F"/>
<path d="M18.0725 28.9211H17.2V29.8036H18.0725V28.9211Z" fill="#FFD8AE"/>
<path d="M18.0725 28.0486H17.2V28.9211H18.0725V28.0486Z" fill="#FFD8AE"/>
<path d="M18.0725 27.1661H17.2V28.0486H18.0725V27.1661Z" fill="black"/>
<path d="M17.2011 30.6761H16.3186V31.5574H17.2011V30.6761Z" fill="black"/>
<path d="M17.2011 29.8024H16.3186V30.6749H17.2011V29.8024Z" fill="#4F704F"/>
<path d="M17.2011 28.9211H16.3186V29.8036H17.2011V28.9211Z" fill="#FFD8AE"/>
<path d="M17.2011 28.0486H16.3186V28.9211H17.2011V28.0486Z" fill="black"/>
<path d="M16.3176 29.8024H15.4451V30.6749H16.3176V29.8024Z" fill="black"/>
<path d="M16.3176 28.9211H15.4451V29.8036H16.3176V28.9211Z" fill="#FFD8AE"/>
<path d="M16.3176 28.0486H15.4451V28.9211H16.3176V28.0486Z" fill="black"/>
<path d="M15.4462 29.8024H14.5637V30.6749H15.4462V29.8024Z" fill="black"/>
<path d="M15.4462 28.9211H14.5637V29.8036H15.4462V28.9211Z" fill="#FFD8AE"/>
<path d="M15.4462 28.0486H14.5637V28.9211H15.4462V28.0486Z" fill="black"/>
<path d="M14.5637 28.9211H13.6812V29.8036H14.5637V28.9211Z" fill="black"/>
<path d="M14.5637 28.0486H13.6812V28.9211H14.5637V28.0486Z" fill="black"/>
<path d="M13.6811 28.0486H12.8086V28.9211H13.6811V28.0486Z" fill="black"/>
<path d="M12.8088 28.0486H11.9263V28.9211H12.8088V28.0486Z" fill="black"/>
<path d="M11.9262 28.0486H11.0537V28.9211H11.9262V28.0486Z" fill="black"/>
<path d="M31.1036 24.7186H30.6624V25.1599H31.1036V24.7186Z" fill="#594F4F"/>
<path d="M30.6624 25.1599H30.2124V25.6099H30.6624V25.1599Z" fill="#594F4F"/>
<path d="M30.6624 24.7186H30.2124V25.1599H30.6624V24.7186Z" fill="black"/>
<path d="M30.6624 24.2774H30.2124V24.7187H30.6624V24.2774Z" fill="#594F4F"/>
<path d="M30.2125 25.6099H29.7712V26.0512H30.2125V25.6099Z" fill="#594F4F"/>
<path d="M30.2125 25.1599H29.7712V25.6099H30.2125V25.1599Z" fill="black"/>
<path d="M30.2125 24.7186H29.7712V25.1599H30.2125V24.7186Z" fill="#594F4F"/>
<path d="M29.7713 26.0499H29.3313V26.4999H29.7713V26.0499Z" fill="#594F4F"/>
<path d="M29.7713 25.6099H29.3313V26.0512H29.7713V25.6099Z" fill="black"/>
<path d="M29.7713 25.1599H29.3313V25.6099H29.7713V25.1599Z" fill="#594F4F"/>
<path d="M29.3311 26.0499H28.8811V26.4999H29.3311V26.0499Z" fill="black"/>
<path d="M29.3311 25.6099H28.8811V26.0512H29.3311V25.6099Z" fill="#594F4F"/>
<path d="M28.8812 26.4999H28.4399V26.9411H28.8812V26.4999Z" fill="black"/>
<path d="M28.44 26.9412H27.99V27.3824H28.44V26.9412Z" fill="black"/>
<path d="M27.5487 28.2737H27.1074V28.7149H27.5487V28.2737Z" fill="black"/>
<path d="M27.1075 28.7137H26.6575V29.1637H27.1075V28.7137Z" fill="black"/>
<path d="M19.9901 24.2774H19.5488V24.7187H19.9901V24.2774Z" fill="black"/>
<path d="M19.5487 26.0499H19.1074V26.4999H19.5487V26.0499Z" fill="black"/>
<path d="M19.5487 24.2774H19.1074V24.7187H19.5487V24.2774Z" fill="black"/>
<path d="M19.1075 26.0499H18.6575V26.4999H19.1075V26.0499Z" fill="black"/>
<path d="M19.1075 25.6099H18.6575V26.0512H19.1075V25.6099Z" fill="#DDCA6C"/>
<path d="M19.1075 25.1599H18.6575V25.6099H19.1075V25.1599Z" fill="#DDCA6C"/>
<path d="M19.1075 24.7186H18.6575V25.1599H19.1075V24.7186Z" fill="#DDCA6C"/>
<path d="M19.1075 24.2774H18.6575V24.7187H19.1075V24.2774Z" fill="black"/>
<path d="M18.6588 26.9412H18.2175V27.3824H18.6588V26.9412Z" fill="black"/>
<path d="M18.6588 26.4999H18.2175V26.9411H18.6588V26.4999Z" fill="#DDCA6C"/>
<path d="M18.6588 26.0499H18.2175V26.4999H18.6588V26.0499Z" fill="#DDCA6C"/>
<path d="M18.6588 25.6099H18.2175V26.0512H18.6588V25.6099Z" fill="#FCE76B"/>
<path d="M18.6588 25.1599H18.2175V25.6099H18.6588V25.1599Z" fill="#FCE76B"/>
<path d="M18.6588 24.7186H18.2175V25.1599H18.6588V24.7186Z" fill="#DDCA6C"/>
<path d="M18.6588 24.2774H18.2175V24.7187H18.6588V24.2774Z" fill="black"/>
<path d="M18.2174 26.9412H17.7761V27.3824H18.2174V26.9412Z" fill="black"/>
<path d="M18.2174 26.4999H17.7761V26.9411H18.2174V26.4999Z" fill="#DDCA6C"/>
<path d="M18.2174 26.0499H17.7761V26.4999H18.2174V26.0499Z" fill="#FCE76B"/>
<path d="M18.2174 25.6099H17.7761V26.0512H18.2174V25.6099Z" fill="#FCE76B"/>
<path d="M18.2174 25.1599H17.7761V25.6099H18.2174V25.1599Z" fill="#FCE76B"/>
<path d="M18.2174 24.7186H17.7761V25.1599H18.2174V24.7186Z" fill="#DDCA6C"/>
<path d="M18.2174 24.2774H17.7761V24.7187H18.2174V24.2774Z" fill="black"/>
<path d="M17.7762 27.8324H17.3262V28.2736H17.7762V27.8324Z" fill="black"/>
<path d="M17.7762 27.3824H17.3262V27.8324H17.7762V27.3824Z" fill="#DDCA6C"/>
<path d="M17.7762 26.9412H17.3262V27.3824H17.7762V26.9412Z" fill="#DDCA6C"/>
<path d="M17.7762 26.4999H17.3262V26.9411H17.7762V26.4999Z" fill="#FCE76B"/>
<path d="M17.7762 26.0499H17.3262V26.4999H17.7762V26.0499Z" fill="#FCE76B"/>
<path d="M17.7762 25.6099H17.3262V26.0512H17.7762V25.6099Z" fill="#FCE76B"/>
<path d="M17.7762 25.1599H17.3262V25.6099H17.7762V25.1599Z" fill="#FCE76B"/>
<path d="M17.7762 24.7186H17.3262V25.1599H17.7762V24.7186Z" fill="#DDCA6C"/>
<path d="M17.7762 24.2774H17.3262V24.7187H17.7762V24.2774Z" fill="black"/>
<path d="M17.3263 27.8324H16.885V28.2736H17.3263V27.8324Z" fill="black"/>
<path d="M17.3263 27.3824H16.885V27.8324H17.3263V27.3824Z" fill="#DDCA6C"/>
<path d="M17.3263 26.9412H16.885V27.3824H17.3263V26.9412Z" fill="#FCE76B"/>
<path d="M17.3263 26.4999H16.885V26.9411H17.3263V26.4999Z" fill="#FCE76B"/>
<path d="M17.3263 26.0499H16.885V26.4999H17.3263V26.0499Z" fill="#FCE76B"/>
<path d="M17.3263 25.6099H16.885V26.0512H17.3263V25.6099Z" fill="#FCE76B"/>
<path d="M17.3263 25.1599H16.885V25.6099H17.3263V25.1599Z" fill="#FCE76B"/>
<path d="M17.3263 24.7186H16.885V25.1599H17.3263V24.7186Z" fill="#DDCA6C"/>
<path d="M17.3263 24.2774H16.885V24.7187H17.3263V24.2774Z" fill="black"/>
<path d="M16.8851 27.8324H16.4351V28.2736H16.8851V27.8324Z" fill="#DDCA6C"/>
<path d="M16.8851 27.3824H16.4351V27.8324H16.8851V27.3824Z" fill="#FCE76B"/>
<path d="M16.8851 26.9412H16.4351V27.3824H16.8851V26.9412Z" fill="#FCE76B"/>
<path d="M16.8851 26.4999H16.4351V26.9411H16.8851V26.4999Z" fill="#E80F42"/>
<path d="M16.8851 26.0499H16.4351V26.4999H16.8851V26.0499Z" fill="#FCE76B"/>
<path d="M16.8851 25.6099H16.4351V26.0512H16.8851V25.6099Z" fill="#FCE76B"/>
<path d="M16.8851 25.1599H16.4351V25.6099H16.8851V25.1599Z" fill="#FCE76B"/>
<path d="M16.8851 24.7186H16.4351V25.1599H16.8851V24.7186Z" fill="#DDCA6C"/>
<path d="M16.8851 24.2774H16.4351V24.7187H16.8851V24.2774Z" fill="black"/>
<path d="M16.4349 27.8324H15.9937V28.2736H16.4349V27.8324Z" fill="#DDCA6C"/>
<path d="M16.4349 27.3824H15.9937V27.8324H16.4349V27.3824Z" fill="#FCE76B"/>
<path d="M16.4349 26.9412H15.9937V27.3824H16.4349V26.9412Z" fill="#E80F42"/>
<path d="M16.4349 26.4999H15.9937V26.9411H16.4349V26.4999Z" fill="#E80F42"/>
<path d="M16.4349 26.0499H15.9937V26.4999H16.4349V26.0499Z" fill="#E80F42"/>
<path d="M16.4349 25.6099H15.9937V26.0512H16.4349V25.6099Z" fill="#FCE76B"/>
<path d="M16.4349 25.1599H15.9937V25.6099H16.4349V25.1599Z" fill="#FCE76B"/>
<path d="M16.4349 24.7186H15.9937V25.1599H16.4349V24.7186Z" fill="#DDCA6C"/>
<path d="M16.4349 24.2774H15.9937V24.7187H16.4349V24.2774Z" fill="black"/>
<path d="M15.995 27.8324H15.5537V28.2736H15.995V27.8324Z" fill="#DDCA6C"/>
<path d="M15.995 27.3824H15.5537V27.8324H15.995V27.3824Z" fill="#FCE76B"/>
<path d="M15.995 26.9412H15.5537V27.3824H15.995V26.9412Z" fill="#E80F42"/>
<path d="M15.995 26.4999H15.5537V26.9411H15.995V26.4999Z" fill="#E80F42"/>
<path d="M15.995 26.0499H15.5537V26.4999H15.995V26.0499Z" fill="#E80F42"/>
<path d="M15.995 25.6099H15.5537V26.0512H15.995V25.6099Z" fill="#FCE76B"/>
<path d="M15.995 25.1599H15.5537V25.6099H15.995V25.1599Z" fill="#FCE76B"/>
<path d="M15.995 24.7186H15.5537V25.1599H15.995V24.7186Z" fill="#DDCA6C"/>
<path d="M15.995 24.2774H15.5537V24.7187H15.995V24.2774Z" fill="black"/>
<path d="M15.5538 27.8324H15.1038V28.2736H15.5538V27.8324Z" fill="#DDCA6C"/>
<path d="M15.5538 27.3824H15.1038V27.8324H15.5538V27.3824Z" fill="#FCE76B"/>
<path d="M15.5538 26.9412H15.1038V27.3824H15.5538V26.9412Z" fill="#E80F42"/>
<path d="M15.5538 26.4999H15.1038V26.9411H15.5538V26.4999Z" fill="#FCE76B"/>
<path d="M15.5538 26.0499H15.1038V26.4999H15.5538V26.0499Z" fill="#E80F42"/>
<path d="M15.5538 25.6099H15.1038V26.0512H15.5538V25.6099Z" fill="#FCE76B"/>
<path d="M15.5538 25.1599H15.1038V25.6099H15.5538V25.1599Z" fill="#FCE76B"/>
<path d="M15.5538 24.7186H15.1038V25.1599H15.5538V24.7186Z" fill="#DDCA6C"/>
<path d="M15.5538 24.2774H15.1038V24.7187H15.5538V24.2774Z" fill="black"/>
<path d="M15.1036 27.8324H14.6624V28.2736H15.1036V27.8324Z" fill="#DDCA6C"/>
<path d="M15.1036 27.3824H14.6624V27.8324H15.1036V27.3824Z" fill="#E80F42"/>
<path d="M15.1036 26.9412H14.6624V27.3824H15.1036V26.9412Z" fill="#FCE76B"/>
<path d="M15.1036 26.4999H14.6624V26.9411H15.1036V26.4999Z" fill="#FCE76B"/>
<path d="M15.1036 26.0499H14.6624V26.4999H15.1036V26.0499Z" fill="#FCE76B"/>
<path d="M15.1036 25.6099H14.6624V26.0512H15.1036V25.6099Z" fill="#E80F42"/>
<path d="M15.1036 25.1599H14.6624V25.6099H15.1036V25.1599Z" fill="#FCE76B"/>
<path d="M15.1036 24.7186H14.6624V25.1599H15.1036V24.7186Z" fill="#DDCA6C"/>
<path d="M15.1036 24.2774H14.6624V24.7187H15.1036V24.2774Z" fill="black"/>
<path d="M14.6624 27.8324H14.2212V28.2736H14.6624V27.8324Z" fill="#DDCA6C"/>
<path d="M14.6624 27.3824H14.2212V27.8324H14.6624V27.3824Z" fill="#E80F42"/>
<path d="M14.6624 26.9412H14.2212V27.3824H14.6624V26.9412Z" fill="#FCE76B"/>
<path d="M14.6624 26.4999H14.2212V26.9411H14.6624V26.4999Z" fill="#FCE76B"/>
<path d="M14.6624 26.0499H14.2212V26.4999H14.6624V26.0499Z" fill="#FCE76B"/>
<path d="M14.6624 25.6099H14.2212V26.0512H14.6624V25.6099Z" fill="#E80F42"/>
<path d="M14.6624 25.1599H14.2212V25.6099H14.6624V25.1599Z" fill="#FCE76B"/>
<path d="M14.6624 24.7186H14.2212V25.1599H14.6624V24.7186Z" fill="#DDCA6C"/>
<path d="M14.6624 24.2774H14.2212V24.7187H14.6624V24.2774Z" fill="black"/>
<path d="M14.2212 27.8324H13.7712V28.2736H14.2212V27.8324Z" fill="#DDCA6C"/>
<path d="M14.2212 27.3824H13.7712V27.8324H14.2212V27.3824Z" fill="#FCE76B"/>
<path d="M14.2212 26.9412H13.7712V27.3824H14.2212V26.9412Z" fill="#FCE76B"/>
<path d="M14.2212 26.4999H13.7712V26.9411H14.2212V26.4999Z" fill="#FCE76B"/>
<path d="M14.2212 26.0499H13.7712V26.4999H14.2212V26.0499Z" fill="#FCE76B"/>
<path d="M14.2212 25.6099H13.7712V26.0512H14.2212V25.6099Z" fill="#FCE76B"/>
<path d="M14.2212 25.1599H13.7712V25.6099H14.2212V25.1599Z" fill="#DDCA6C"/>
<path d="M14.2212 24.7186H13.7712V25.1599H14.2212V24.7186Z" fill="#DDCA6C"/>
<path d="M14.2212 24.2774H13.7712V24.7187H14.2212V24.2774Z" fill="black"/>
<path d="M13.7725 27.8324H13.3313V28.2736H13.7725V27.8324Z" fill="#DDCA6C"/>
<path d="M13.7725 27.3824H13.3313V27.8324H13.7725V27.3824Z" fill="#FCE76B"/>
<path d="M13.7725 26.9412H13.3313V27.3824H13.7725V26.9412Z" fill="#FCE76B"/>
<path d="M13.7725 26.4999H13.3313V26.9411H13.7725V26.4999Z" fill="#FCE76B"/>
<path d="M13.7725 26.0499H13.3313V26.4999H13.7725V26.0499Z" fill="#FCE76B"/>
<path d="M13.7725 25.6099H13.3313V26.0512H13.7725V25.6099Z" fill="#DDCA6C"/>
<path d="M13.7725 25.1599H13.3313V25.6099H13.7725V25.1599Z" fill="black"/>
<path d="M13.7725 24.7186H13.3313V25.1599H13.7725V24.7186Z" fill="black"/>
<path d="M13.3311 27.8324H12.8811V28.2736H13.3311V27.8324Z" fill="#DDCA6C"/>
<path d="M13.3311 27.3824H12.8811V27.8324H13.3311V27.3824Z" fill="#FCE76B"/>
<path d="M13.3311 26.9412H12.8811V27.3824H13.3311V26.9412Z" fill="#FCE76B"/>
<path d="M13.3311 26.4999H12.8811V26.9411H13.3311V26.4999Z" fill="#DDCA6C"/>
<path d="M13.3311 26.0499H12.8811V26.4999H13.3311V26.0499Z" fill="#DDCA6C"/>
<path d="M13.3311 25.6099H12.8811V26.0512H13.3311V25.6099Z" fill="black"/>
<path d="M13.3311 25.1599H12.8811V25.6099H13.3311V25.1599Z" fill="black"/>
<path d="M12.8812 27.8324H12.4399V28.2736H12.8812V27.8324Z" fill="#DDCA6C"/>
<path d="M12.8812 27.3824H12.4399V27.8324H12.8812V27.3824Z" fill="#FCE76B"/>
<path d="M12.8812 26.9412H12.4399V27.3824H12.8812V26.9412Z" fill="#DDCA6C"/>
<path d="M12.8812 26.4999H12.4399V26.9411H12.8812V26.4999Z" fill="black"/>
<path d="M12.8812 26.0499H12.4399V26.4999H12.8812V26.0499Z" fill="black"/>
<path d="M12.8812 25.6099H12.4399V26.0512H12.8812V25.6099Z" fill="#DDCA6C"/>
<path d="M12.8812 25.1599H12.4399V25.6099H12.8812V25.1599Z" fill="#DDCA6C"/>
<path d="M12.8812 24.7186H12.4399V25.1599H12.8812V24.7186Z" fill="black"/>
<path d="M12.44 27.8324H11.9988V28.2736H12.44V27.8324Z" fill="#DDCA6C"/>
<path d="M12.44 27.3824H11.9988V27.8324H12.44V27.3824Z" fill="#DDCA6C"/>
<path d="M12.44 26.9412H11.9988V27.3824H12.44V26.9412Z" fill="black"/>
<path d="M12.44 26.4999H11.9988V26.9411H12.44V26.4999Z" fill="#DDCA6C"/>
<path d="M12.44 26.0499H11.9988V26.4999H12.44V26.0499Z" fill="#DDCA6C"/>
<path d="M12.44 25.6099H11.9988V26.0512H12.44V25.6099Z" fill="#DDCA6C"/>
<path d="M12.44 25.1599H11.9988V25.6099H12.44V25.1599Z" fill="#DDCA6C"/>
<path d="M12.44 24.7186H11.9988V25.1599H12.44V24.7186Z" fill="black"/>
<path d="M11.9988 27.8324H11.5488V28.2736H11.9988V27.8324Z" fill="#DDCA6C"/>
<path d="M11.9988 27.3824H11.5488V27.8324H11.9988V27.3824Z" fill="black"/>
<path d="M11.9988 26.9412H11.5488V27.3824H11.9988V26.9412Z" fill="#DDCA6C"/>
<path d="M11.9988 26.4999H11.5488V26.9411H11.9988V26.4999Z" fill="#DDCA6C"/>
<path d="M11.9988 26.0499H11.5488V26.4999H11.9988V26.0499Z" fill="#DDCA6C"/>
<path d="M11.9988 25.6099H11.5488V26.0512H11.9988V25.6099Z" fill="#DDCA6C"/>
<path d="M11.9988 25.1599H11.5488V25.6099H11.9988V25.1599Z" fill="#DDCA6C"/>
<path d="M11.9988 24.7186H11.5488V25.1599H11.9988V24.7186Z" fill="#DDCA6C"/>
<path d="M11.9988 24.2774H11.5488V24.7187H11.9988V24.2774Z" fill="black"/>
<path d="M11.5487 27.8324H11.1074V28.2736H11.5487V27.8324Z" fill="black"/>
<path d="M11.5487 27.3824H11.1074V27.8324H11.5487V27.3824Z" fill="#DDCA6C"/>
<path d="M11.5487 26.9412H11.1074V27.3824H11.5487V26.9412Z" fill="#DDCA6C"/>
<path d="M11.5487 26.4999H11.1074V26.9411H11.5487V26.4999Z" fill="#DDCA6C"/>
<path d="M11.5487 26.0499H11.1074V26.4999H11.5487V26.0499Z" fill="#DDCA6C"/>
<path d="M11.5487 25.6099H11.1074V26.0512H11.5487V25.6099Z" fill="#DDCA6C"/>
<path d="M11.5487 25.1599H11.1074V25.6099H11.5487V25.1599Z" fill="#DDCA6C"/>
<path d="M11.5487 24.7186H11.1074V25.1599H11.5487V24.7186Z" fill="#DDCA6C"/>
<path d="M11.5487 24.2774H11.1074V24.7187H11.5487V24.2774Z" fill="black"/>
<path d="M11.1075 28.2737H10.6575V28.7149H11.1075V28.2737Z" fill="black"/>
<path d="M11.1075 27.8324H10.6575V28.2736H11.1075V27.8324Z" fill="black"/>
<path d="M11.1075 27.3824H10.6575V27.8324H11.1075V27.3824Z" fill="black"/>
<path d="M11.1075 26.9412H10.6575V27.3824H11.1075V26.9412Z" fill="black"/>
<path d="M11.1075 26.4999H10.6575V26.9411H11.1075V26.4999Z" fill="black"/>
<path d="M11.1075 26.0499H10.6575V26.4999H11.1075V26.0499Z" fill="black"/>
<path d="M11.1075 25.6099H10.6575V26.0512H11.1075V25.6099Z" fill="black"/>
<path d="M11.1075 25.1599H10.6575V25.6099H11.1075V25.1599Z" fill="black"/>
<path d="M11.1075 24.7186H10.6575V25.1599H11.1075V24.7186Z" fill="black"/>
<path d="M11.1075 24.2774H10.6575V24.7187H11.1075V24.2774Z" fill="black"/>
</g>
<defs>
<clipPath id="clip0_69_12164">
<rect width="50" height="50" fill="white" transform="translate(0 0.942383)"/>
</clipPath>
</defs>
</svg>
