<svg width="50" height="51" viewBox="0 0 50 51" fill="none" xmlns="http://www.w3.org/2000/svg">
<g clip-path="url(#clip0_69_12149)">
<path d="M24.9998 49.1649C37.8253 49.1649 48.2223 38.7678 48.2223 25.9424C48.2223 13.117 37.8253 2.71991 24.9998 2.71991C12.1744 2.71991 1.77734 13.117 1.77734 25.9424C1.77734 38.7678 12.1744 49.1649 24.9998 49.1649Z" fill="black"/>
<path d="M24.9998 50.0399C11.7123 50.0399 0.902344 39.2299 0.902344 25.9424C0.902344 12.6549 11.7123 1.84491 24.9998 1.84491C38.2873 1.84491 49.0973 12.6549 49.0973 25.9424C49.0973 39.2299 38.2873 50.0399 24.9998 50.0399ZM24.9998 3.59491C12.6773 3.59491 2.65234 13.6199 2.65234 25.9424C2.65234 38.2649 12.6773 48.2899 24.9998 48.2899C37.3223 48.2899 47.3473 38.2649 47.3473 25.9424C47.3473 13.6199 37.3223 3.59491 24.9998 3.59491Z" fill="#EF0012"/>
<path d="M27.7287 30.2074H26.7925V31.1336H27.7287V30.2074Z" fill="#544B56"/>
<path d="M35.1777 41.3912H34.2515V42.3174H35.1777V41.3912Z" fill="black"/>
<path d="M22.1313 41.3912H21.2051V42.3174H22.1313V41.3912Z" fill="black"/>
<path d="M34.2512 41.3912H33.3149V42.3174H34.2512V41.3912Z" fill="black"/>
<path d="M33.3149 41.3912H32.3799V42.3174H33.3149V41.3912Z" fill="black"/>
<path d="M30.5161 41.3912H29.5898V42.3174H30.5161V41.3912Z" fill="black"/>
<path d="M31.4524 41.3912H30.5161V42.3174H31.4524V41.3912Z" fill="black"/>
<path d="M32.3789 41.3912H31.4526V42.3174H32.3789V41.3912Z" fill="black"/>
<path d="M24.9299 41.3912H23.9937V42.3174H24.9299V41.3912Z" fill="black"/>
<path d="M23.9936 41.3912H23.0674V42.3174H23.9936V41.3912Z" fill="black"/>
<path d="M23.0676 41.3912H22.1313V42.3174H23.0676V41.3912Z" fill="black"/>
<path d="M26.7925 41.3912H25.8662V42.3174H26.7925V41.3912Z" fill="black"/>
<path d="M25.8664 41.3912H24.9302V42.3174H25.8664V41.3912Z" fill="black"/>
<path d="M28.6538 21.8224H27.7275V22.7486H28.6538V21.8224Z" fill="#9087B5"/>
<path d="M27.7287 21.8224H26.7925V22.7486H27.7287V21.8224Z" fill="#9087B5"/>
<path d="M26.7925 21.8224H25.8662V22.7486H26.7925V21.8224Z" fill="#9087B5"/>
<path d="M29.5901 21.8224H28.6538V22.7486H29.5901V21.8224Z" fill="#9087B5"/>
<path d="M33.3149 40.4549H32.3799V41.3911H33.3149V40.4549Z" fill="#544B56"/>
<path d="M27.7287 14.3636H26.7925V15.2999H27.7287V14.3636Z" fill="black"/>
<path d="M26.7925 14.3636H25.8662V15.2999H26.7925V14.3636Z" fill="black"/>
<path d="M30.5161 19.0237H29.5898V19.9599H30.5161V19.0237Z" fill="#F49364"/>
<path d="M30.5161 18.0887H29.5898V19.0249H30.5161V18.0887Z" fill="#F49364"/>
<path d="M27.7287 19.9599H26.7925V20.8862H27.7287V19.9599Z" fill="#FFEFD3"/>
<path d="M27.7287 18.0887H26.7925V19.0249H27.7287V18.0887Z" fill="#FFEFD3"/>
<path d="M28.6538 19.9599H27.7275V20.8862H28.6538V19.9599Z" fill="#FFEFD3"/>
<path d="M28.6538 19.0237H27.7275V19.9599H28.6538V19.0237Z" fill="#FFEFD3"/>
<path d="M27.7287 19.0237H26.7925V19.9599H27.7287V19.0237Z" fill="#FFEFD3"/>
<path d="M28.6538 18.0887H27.7275V19.0249H28.6538V18.0887Z" fill="#FFEFD3"/>
<path d="M26.7925 19.0237H25.8662V19.9599H26.7925V19.0237Z" fill="#FFEFD3"/>
<path d="M26.7925 18.0887H25.8662V19.0249H26.7925V18.0887Z" fill="#FFEFD3"/>
<path d="M26.7925 19.9599H25.8662V20.8862H26.7925V19.9599Z" fill="#FFEFD3"/>
<path d="M29.5901 19.0237H28.6538V19.9599H29.5901V19.0237Z" fill="#FFEFD3"/>
<path d="M29.5901 18.0887H28.6538V19.0249H29.5901V18.0887Z" fill="#FFEFD3"/>
<path d="M29.5901 19.9599H28.6538V20.8862H29.5901V19.9599Z" fill="#FFEFD3"/>
<path d="M18.4074 31.1337H17.4712V32.0699H18.4074V31.1337Z" fill="#F49364"/>
<path d="M17.4712 27.4099H16.5449V28.3462H17.4712V27.4099Z" fill="#F49364"/>
<path d="M18.4074 26.4836H17.4712V27.4099H18.4074V26.4836Z" fill="#F49364"/>
<path d="M17.4712 26.4836H16.5449V27.4099H17.4712V26.4836Z" fill="#F49364"/>
<path d="M27.7287 20.8862H26.7925V21.8224H27.7287V20.8862Z" fill="#7A3124"/>
<path d="M28.6538 20.8862H27.7275V21.8224H28.6538V20.8862Z" fill="#7A3124"/>
<path d="M29.5901 20.8862H28.6538V21.8224H29.5901V20.8862Z" fill="#7A3124"/>
<path d="M30.5161 19.9599H29.5898V20.8862H30.5161V19.9599Z" fill="#7A3124"/>
<path d="M18.4074 30.2074H17.4712V31.1336H18.4074V30.2074Z" fill="#7A3124"/>
<path d="M18.4074 28.3449H17.4712V29.2712H18.4074V28.3449Z" fill="#7A3124"/>
<path d="M18.4074 27.4099H17.4712V28.3462H18.4074V27.4099Z" fill="#7A3124"/>
<path d="M17.4712 28.3449H16.5449V29.2712H17.4712V28.3449Z" fill="#7A3124"/>
<path d="M22.1313 28.3449H21.2051V29.2712H22.1313V28.3449Z" fill="#7A3124"/>
<path d="M22.1313 27.4099H21.2051V28.3462H22.1313V27.4099Z" fill="#7A3124"/>
<path d="M22.1313 26.4836H21.2051V27.4099H22.1313V26.4836Z" fill="#7A3124"/>
<path d="M23.0676 26.4836H22.1313V27.4099H23.0676V26.4836Z" fill="#7A3124"/>
<path d="M23.0676 27.4099H22.1313V28.3462H23.0676V27.4099Z" fill="#7A3124"/>
<path d="M23.0676 28.3449H22.1313V29.2712H23.0676V28.3449Z" fill="#7A3124"/>
<path d="M21.2048 27.4099H20.2686V28.3462H21.2048V27.4099Z" fill="#9087B5"/>
<path d="M21.2048 26.4836H20.2686V27.4099H21.2048V26.4836Z" fill="#9087B5"/>
<path d="M21.2048 28.3449H20.2686V29.2712H21.2048V28.3449Z" fill="#9087B5"/>
<path d="M17.4712 24.6111H16.5449V25.5474H17.4712V24.6111Z" fill="#544B56"/>
<path d="M23.9936 36.7299H23.0674V37.6562H23.9936V36.7299Z" fill="#E7DACE"/>
<path d="M32.3789 36.7299H31.4526V37.6562H32.3789V36.7299Z" fill="#E7DACE"/>
<path d="M31.4524 36.7299H30.5161V37.6562H31.4524V36.7299Z" fill="#E7DACE"/>
<path d="M33.3149 23.6849H32.3799V24.6112H33.3149V23.6849Z" fill="#E7DACE"/>
<path d="M31.4524 24.6111H30.5161V25.5474H31.4524V24.6111Z" fill="#E7DACE"/>
<path d="M31.4524 23.6849H30.5161V24.6112H31.4524V23.6849Z" fill="#E7DACE"/>
<path d="M31.4524 26.4836H30.5161V27.4099H31.4524V26.4836Z" fill="#E7DACE"/>
<path d="M31.4524 25.5474H30.5161V26.4837H31.4524V25.5474Z" fill="#E7DACE"/>
<path d="M32.3789 23.6849H31.4526V24.6112H32.3789V23.6849Z" fill="#E7DACE"/>
<path d="M31.4524 21.8224H30.5161V22.7486H31.4524V21.8224Z" fill="#E7DACE"/>
<path d="M32.3789 21.8224H31.4526V22.7486H32.3789V21.8224Z" fill="#E7DACE"/>
<path d="M28.6538 13.4374H27.7275V14.3637H28.6538V13.4374Z" fill="#E7DACE"/>
<path d="M27.7287 13.4374H26.7925V14.3637H27.7287V13.4374Z" fill="#E7DACE"/>
<path d="M29.5901 13.4374H28.6538V14.3637H29.5901V13.4374Z" fill="#E7DACE"/>
<path d="M27.7287 23.6849H26.7925V24.6112H27.7287V23.6849Z" fill="#E7DACE"/>
<path d="M28.6538 24.6111H27.7275V25.5474H28.6538V24.6111Z" fill="#E7DACE"/>
<path d="M28.6538 22.7487H27.7275V23.6849H28.6538V22.7487Z" fill="#E7DACE"/>
<path d="M27.7287 25.5474H26.7925V26.4837H27.7287V25.5474Z" fill="#E7DACE"/>
<path d="M27.7287 24.6111H26.7925V25.5474H27.7287V24.6111Z" fill="#E7DACE"/>
<path d="M28.6538 23.6849H27.7275V24.6112H28.6538V23.6849Z" fill="#E7DACE"/>
<path d="M21.2048 29.2712H20.2686V30.2074H21.2048V29.2712Z" fill="#544B56"/>
<path d="M20.2685 28.3449H19.3423V29.2712H20.2685V28.3449Z" fill="#544B56"/>
<path d="M20.2685 27.4099H19.3423V28.3462H20.2685V27.4099Z" fill="#544B56"/>
<path d="M19.3425 27.4099H18.4062V28.3462H19.3425V27.4099Z" fill="#544B56"/>
<path d="M19.3425 28.3449H18.4062V29.2712H19.3425V28.3449Z" fill="#544B56"/>
<path d="M34.2512 40.4549H33.3149V41.3911H34.2512V40.4549Z" fill="#544B56"/>
<path d="M33.3149 39.5199H32.3799V40.4549H33.3149V39.5199Z" fill="#544B56"/>
<path d="M30.5161 37.6574H29.5898V38.5924H30.5161V37.6574Z" fill="#544B56"/>
<path d="M32.3789 40.4549H31.4526V41.3911H32.3789V40.4549Z" fill="#544B56"/>
<path d="M32.3789 39.5199H31.4526V40.4549H32.3789V39.5199Z" fill="#544B56"/>
<path d="M32.3789 38.5924H31.4526V39.5199H32.3789V38.5924Z" fill="#544B56"/>
<path d="M32.3789 37.6574H31.4526V38.5924H32.3789V37.6574Z" fill="#544B56"/>
<path d="M31.4524 40.4549H30.5161V41.3911H31.4524V40.4549Z" fill="#544B56"/>
<path d="M31.4524 38.5924H30.5161V39.5199H31.4524V38.5924Z" fill="#544B56"/>
<path d="M31.4524 39.5199H30.5161V40.4549H31.4524V39.5199Z" fill="#544B56"/>
<path d="M31.4524 37.6574H30.5161V38.5924H31.4524V37.6574Z" fill="#544B56"/>
<path d="M30.5161 35.7949H29.5898V36.7312H30.5161V35.7949Z" fill="#544B56"/>
<path d="M31.4524 35.7949H30.5161V36.7312H31.4524V35.7949Z" fill="#544B56"/>
<path d="M29.5901 34.8687H28.6538V35.7949H29.5901V34.8687Z" fill="#544B56"/>
<path d="M29.5901 33.9324H28.6538V34.8687H29.5901V33.9324Z" fill="#544B56"/>
<path d="M30.5161 33.9324H29.5898V34.8687H30.5161V33.9324Z" fill="#544B56"/>
<path d="M30.5161 34.8687H29.5898V35.7949H30.5161V34.8687Z" fill="#544B56"/>
<path d="M30.5161 32.9974H29.5898V33.9324H30.5161V32.9974Z" fill="#544B56"/>
<path d="M31.4524 33.9324H30.5161V34.8687H31.4524V33.9324Z" fill="#544B56"/>
<path d="M31.4524 34.8687H30.5161V35.7949H31.4524V34.8687Z" fill="#544B56"/>
<path d="M32.3789 34.8687H31.4526V35.7949H32.3789V34.8687Z" fill="#544B56"/>
<path d="M24.9299 38.5924H23.9937V39.5199H24.9299V38.5924Z" fill="#544B56"/>
<path d="M24.9299 39.5199H23.9937V40.4549H24.9299V39.5199Z" fill="#544B56"/>
<path d="M24.9299 40.4549H23.9937V41.3911H24.9299V40.4549Z" fill="#544B56"/>
<path d="M24.9299 37.6574H23.9937V38.5924H24.9299V37.6574Z" fill="#544B56"/>
<path d="M23.9936 37.6574H23.0674V38.5924H23.9936V37.6574Z" fill="#544B56"/>
<path d="M23.9936 40.4549H23.0674V41.3911H23.9936V40.4549Z" fill="#544B56"/>
<path d="M23.0676 40.4549H22.1313V41.3911H23.0676V40.4549Z" fill="#544B56"/>
<path d="M25.8664 36.7299H24.9302V37.6562H25.8664V36.7299Z" fill="#544B56"/>
<path d="M25.8664 38.5924H24.9302V39.5199H25.8664V38.5924Z" fill="#544B56"/>
<path d="M25.8664 40.4549H24.9302V41.3911H25.8664V40.4549Z" fill="#544B56"/>
<path d="M25.8664 39.5199H24.9302V40.4549H25.8664V39.5199Z" fill="#544B56"/>
<path d="M25.8664 37.6574H24.9302V38.5924H25.8664V37.6574Z" fill="#544B56"/>
<path d="M38.9026 30.2074H37.9751V31.1336H38.9026V30.2074Z" fill="black"/>
<path d="M38.9026 29.2712H37.9751V30.2074H38.9026V29.2712Z" fill="black"/>
<path d="M38.9026 28.3449H37.9751V29.2712H38.9026V28.3449Z" fill="black"/>
<path d="M38.9026 27.4099H37.9751V28.3462H38.9026V27.4099Z" fill="black"/>
<path d="M38.9026 26.4836H37.9751V27.4099H38.9026V26.4836Z" fill="black"/>
<path d="M38.9026 25.5474H37.9751V26.4837H38.9026V25.5474Z" fill="black"/>
<path d="M38.9026 24.6111H37.9751V25.5474H38.9026V24.6111Z" fill="black"/>
<path d="M38.9026 23.6849H37.9751V24.6112H38.9026V23.6849Z" fill="black"/>
<path d="M38.9026 22.7487H37.9751V23.6849H38.9026V22.7487Z" fill="black"/>
<path d="M37.975 31.1337H37.04V32.0699H37.975V31.1337Z" fill="black"/>
<path d="M37.975 30.2074H37.04V31.1336H37.975V30.2074Z" fill="#544B56"/>
<path d="M37.975 29.2712H37.04V30.2074H37.975V29.2712Z" fill="#544B56"/>
<path d="M37.975 28.3449H37.04V29.2712H37.975V28.3449Z" fill="#544B56"/>
<path d="M37.975 27.4099H37.04V28.3462H37.975V27.4099Z" fill="#544B56"/>
<path d="M37.975 26.4836H37.04V27.4099H37.975V26.4836Z" fill="#544B56"/>
<path d="M37.975 25.5474H37.04V26.4837H37.975V25.5474Z" fill="#544B56"/>
<path d="M37.975 24.6111H37.04V25.5474H37.975V24.6111Z" fill="#544B56"/>
<path d="M37.975 23.6849H37.04V24.6112H37.975V23.6849Z" fill="#544B56"/>
<path d="M37.975 22.7487H37.04V23.6849H37.975V22.7487Z" fill="#544B56"/>
<path d="M37.975 21.8224H37.04V22.7486H37.975V21.8224Z" fill="black"/>
<path d="M37.04 32.0699H36.1138V32.9961H37.04V32.0699Z" fill="black"/>
<path d="M37.04 31.1337H36.1138V32.0699H37.04V31.1337Z" fill="#544B56"/>
<path d="M37.04 30.2074H36.1138V31.1336H37.04V30.2074Z" fill="#89031A"/>
<path d="M37.04 29.2712H36.1138V30.2074H37.04V29.2712Z" fill="#89031A"/>
<path d="M37.04 28.3449H36.1138V29.2712H37.04V28.3449Z" fill="#89031A"/>
<path d="M37.04 27.4099H36.1138V28.3462H37.04V27.4099Z" fill="#89031A"/>
<path d="M37.04 26.4836H36.1138V27.4099H37.04V26.4836Z" fill="#89031A"/>
<path d="M37.04 25.5474H36.1138V26.4837H37.04V25.5474Z" fill="#89031A"/>
<path d="M37.04 24.6111H36.1138V25.5474H37.04V24.6111Z" fill="#89031A"/>
<path d="M37.04 23.6849H36.1138V24.6112H37.04V23.6849Z" fill="#89031A"/>
<path d="M37.04 22.7487H36.1138V23.6849H37.04V22.7487Z" fill="#544B56"/>
<path d="M37.04 21.8224H36.1138V22.7486H37.04V21.8224Z" fill="black"/>
<path d="M36.114 32.9974H35.1777V33.9324H36.114V32.9974Z" fill="black"/>
<path d="M36.114 32.0699H35.1777V32.9961H36.114V32.0699Z" fill="#544B56"/>
<path d="M36.114 31.1337H35.1777V32.0699H36.114V31.1337Z" fill="#89031A"/>
<path d="M36.114 30.2074H35.1777V31.1336H36.114V30.2074Z" fill="#89031A"/>
<path d="M36.114 29.2712H35.1777V30.2074H36.114V29.2712Z" fill="#89031A"/>
<path d="M36.114 28.3449H35.1777V29.2712H36.114V28.3449Z" fill="#89031A"/>
<path d="M36.114 27.4099H35.1777V28.3462H36.114V27.4099Z" fill="#89031A"/>
<path d="M36.114 26.4836H35.1777V27.4099H36.114V26.4836Z" fill="#89031A"/>
<path d="M36.114 25.5474H35.1777V26.4837H36.114V25.5474Z" fill="#89031A"/>
<path d="M36.114 24.6111H35.1777V25.5474H36.114V24.6111Z" fill="#89031A"/>
<path d="M36.114 23.6849H35.1777V24.6112H36.114V23.6849Z" fill="#544B56"/>
<path d="M36.114 22.7487H35.1777V23.6849H36.114V22.7487Z" fill="black"/>
<path d="M35.1777 40.4549H34.2515V41.3911H35.1777V40.4549Z" fill="black"/>
<path d="M35.1777 33.9324H34.2515V34.8687H35.1777V33.9324Z" fill="black"/>
<path d="M35.1777 32.9974H34.2515V33.9324H35.1777V32.9974Z" fill="#544B56"/>
<path d="M35.1777 32.0699H34.2515V32.9961H35.1777V32.0699Z" fill="#89031A"/>
<path d="M35.1777 31.1337H34.2515V32.0699H35.1777V31.1337Z" fill="#89031A"/>
<path d="M35.1777 30.2074H34.2515V31.1336H35.1777V30.2074Z" fill="#89031A"/>
<path d="M35.1777 29.2712H34.2515V30.2074H35.1777V29.2712Z" fill="#89031A"/>
<path d="M35.1777 28.3449H34.2515V29.2712H35.1777V28.3449Z" fill="#89031A"/>
<path d="M35.1777 27.4099H34.2515V28.3462H35.1777V27.4099Z" fill="#89031A"/>
<path d="M35.1777 26.4836H34.2515V27.4099H35.1777V26.4836Z" fill="#89031A"/>
<path d="M35.1777 25.5474H34.2515V26.4837H35.1777V25.5474Z" fill="#89031A"/>
<path d="M35.1777 24.6111H34.2515V25.5474H35.1777V24.6111Z" fill="#89031A"/>
<path d="M35.1777 23.6849H34.2515V24.6112H35.1777V23.6849Z" fill="#544B56"/>
<path d="M35.1777 22.7487H34.2515V23.6849H35.1777V22.7487Z" fill="black"/>
<path d="M34.2512 39.5199H33.3149V40.4549H34.2512V39.5199Z" fill="black"/>
<path d="M34.2512 36.7299H33.3149V37.6562H34.2512V36.7299Z" fill="black"/>
<path d="M34.2512 33.9324H33.3149V34.8687H34.2512V33.9324Z" fill="black"/>
<path d="M34.2512 32.9974H33.3149V33.9324H34.2512V32.9974Z" fill="#9087B5"/>
<path d="M34.2512 32.0699H33.3149V32.9961H34.2512V32.0699Z" fill="#544B56"/>
<path d="M34.2512 31.1337H33.3149V32.0699H34.2512V31.1337Z" fill="#A30417"/>
<path d="M34.2512 30.2074H33.3149V31.1336H34.2512V30.2074Z" fill="#A30417"/>
<path d="M34.2512 29.2712H33.3149V30.2074H34.2512V29.2712Z" fill="#A30417"/>
<path d="M34.2512 28.3449H33.3149V29.2712H34.2512V28.3449Z" fill="#A30417"/>
<path d="M34.2512 27.4099H33.3149V28.3462H34.2512V27.4099Z" fill="#EF0012"/>
<path d="M34.2512 26.4836H33.3149V27.4099H34.2512V26.4836Z" fill="#EF0012"/>
<path d="M34.2512 25.5474H33.3149V26.4837H34.2512V25.5474Z" fill="#EF0012"/>
<path d="M34.2512 24.6111H33.3149V25.5474H34.2512V24.6111Z" fill="#EF0012"/>
<path d="M34.2512 23.6849H33.3149V24.6112H34.2512V23.6849Z" fill="#9087B5"/>
<path d="M34.2512 22.7487H33.3149V23.6849H34.2512V22.7487Z" fill="black"/>
<path d="M34.2512 21.8224H33.3149V22.7486H34.2512V21.8224Z" fill="black"/>
<path d="M33.3149 38.5924H32.3799V39.5199H33.3149V38.5924Z" fill="black"/>
<path d="M33.3149 37.6574H32.3799V38.5924H33.3149V37.6574Z" fill="black"/>
<path d="M33.3149 36.7299H32.3799V37.6562H33.3149V36.7299Z" fill="#9087B5"/>
<path d="M33.3149 35.7949H32.3799V36.7312H33.3149V35.7949Z" fill="black"/>
<path d="M33.3149 34.8687H32.3799V35.7949H33.3149V34.8687Z" fill="black"/>
<path d="M33.3149 33.9324H32.3799V34.8687H33.3149V33.9324Z" fill="black"/>
<path d="M33.3149 32.9974H32.3799V33.9324H33.3149V32.9974Z" fill="black"/>
<path d="M33.3149 32.0699H32.3799V32.9961H33.3149V32.0699Z" fill="#9087B5"/>
<path d="M33.3149 31.1337H32.3799V32.0699H33.3149V31.1337Z" fill="#544B56"/>
<path d="M33.3149 30.2074H32.3799V31.1336H33.3149V30.2074Z" fill="#A30417"/>
<path d="M33.3149 29.2712H32.3799V30.2074H33.3149V29.2712Z" fill="#A30417"/>
<path d="M33.3149 28.3449H32.3799V29.2712H33.3149V28.3449Z" fill="#A30417"/>
<path d="M33.3149 27.4099H32.3799V28.3462H33.3149V27.4099Z" fill="#A30417"/>
<path d="M33.3149 26.4836H32.3799V27.4099H33.3149V26.4836Z" fill="#EF0012"/>
<path d="M33.3149 25.5474H32.3799V26.4837H33.3149V25.5474Z" fill="#EF0012"/>
<path d="M33.3149 24.6111H32.3799V25.5474H33.3149V24.6111Z" fill="#EF0012"/>
<path d="M33.3149 22.7487H32.3799V23.6849H33.3149V22.7487Z" fill="black"/>
<path d="M33.3149 21.8224H32.3799V22.7486H33.3149V21.8224Z" fill="#9087B5"/>
<path d="M33.3149 20.8862H32.3799V21.8224H33.3149V20.8862Z" fill="black"/>
<path d="M33.3149 18.0887H32.3799V19.0249H33.3149V18.0887Z" fill="black"/>
<path d="M33.3149 17.1624H32.3799V18.0887H33.3149V17.1624Z" fill="black"/>
<path d="M33.3149 16.2261H32.3799V17.1624H33.3149V16.2261Z" fill="black"/>
<path d="M32.3789 35.7949H31.4526V36.7312H32.3789V35.7949Z" fill="black"/>
<path d="M32.3789 33.9324H31.4526V34.8687H32.3789V33.9324Z" fill="black"/>
<path d="M32.3789 32.9974H31.4526V33.9324H32.3789V32.9974Z" fill="black"/>
<path d="M32.3789 32.0699H31.4526V32.9961H32.3789V32.0699Z" fill="black"/>
<path d="M32.3789 31.1337H31.4526V32.0699H32.3789V31.1337Z" fill="#9087B5"/>
<path d="M32.3789 30.2074H31.4526V31.1336H32.3789V30.2074Z" fill="#A30417"/>
<path d="M32.3789 29.2712H31.4526V30.2074H32.3789V29.2712Z" fill="#A30417"/>
<path d="M32.3789 28.3449H31.4526V29.2712H32.3789V28.3449Z" fill="#A30417"/>
<path d="M32.3789 27.4099H31.4526V28.3462H32.3789V27.4099Z" fill="#A30417"/>
<path d="M32.3789 26.4836H31.4526V27.4099H32.3789V26.4836Z" fill="#A30417"/>
<path d="M32.3789 25.5474H31.4526V26.4837H32.3789V25.5474Z" fill="#EF0012"/>
<path d="M32.3789 24.6111H31.4526V25.5474H32.3789V24.6111Z" fill="#EF0012"/>
<path d="M32.3789 22.7487H31.4526V23.6849H32.3789V22.7487Z" fill="black"/>
<path d="M32.3789 20.8862H31.4526V21.8224H32.3789V20.8862Z" fill="black"/>
<path d="M32.3789 19.0237H31.4526V19.9599H32.3789V19.0237Z" fill="black"/>
<path d="M32.3789 18.0887H31.4526V19.0249H32.3789V18.0887Z" fill="#544B56"/>
<path d="M32.3789 17.1624H31.4526V18.0887H32.3789V17.1624Z" fill="black"/>
<path d="M32.3789 16.2261H31.4526V17.1624H32.3789V16.2261Z" fill="#544B56"/>
<path d="M32.3789 15.2999H31.4526V16.2262H32.3789V15.2999Z" fill="black"/>
<path d="M32.3789 14.3636H31.4526V15.2999H32.3789V14.3636Z" fill="black"/>
<path d="M31.4524 32.9974H30.5161V33.9324H31.4524V32.9974Z" fill="black"/>
<path d="M31.4524 32.0699H30.5161V32.9961H31.4524V32.0699Z" fill="black"/>
<path d="M31.4524 31.1337H30.5161V32.0699H31.4524V31.1337Z" fill="black"/>
<path d="M31.4524 30.2074H30.5161V31.1336H31.4524V30.2074Z" fill="#9087B5"/>
<path d="M31.4524 29.2712H30.5161V30.2074H31.4524V29.2712Z" fill="#9087B5"/>
<path d="M31.4524 28.3449H30.5161V29.2712H31.4524V28.3449Z" fill="#9087B5"/>
<path d="M31.4524 27.4099H30.5161V28.3462H31.4524V27.4099Z" fill="#9087B5"/>
<path d="M31.4524 22.7487H30.5161V23.6849H31.4524V22.7487Z" fill="black"/>
<path d="M31.4524 20.8862H30.5161V21.8224H31.4524V20.8862Z" fill="black"/>
<path d="M31.4524 19.9599H30.5161V20.8862H31.4524V19.9599Z" fill="black"/>
<path d="M31.4524 19.0237H30.5161V19.9599H31.4524V19.0237Z" fill="#544B56"/>
<path d="M31.4524 18.0887H30.5161V19.0249H31.4524V18.0887Z" fill="#544B56"/>
<path d="M31.4524 17.1624H30.5161V18.0887H31.4524V17.1624Z" fill="black"/>
<path d="M31.4524 16.2261H30.5161V17.1624H31.4524V16.2261Z" fill="#9087B5"/>
<path d="M31.4524 15.2999H30.5161V16.2262H31.4524V15.2999Z" fill="#544B56"/>
<path d="M31.4524 14.3636H30.5161V15.2999H31.4524V14.3636Z" fill="#9087B5"/>
<path d="M31.4524 13.4374H30.5161V14.3637H31.4524V13.4374Z" fill="black"/>
<path d="M30.5161 40.4549H29.5898V41.3911H30.5161V40.4549Z" fill="black"/>
<path d="M30.5161 39.5199H29.5898V40.4549H30.5161V39.5199Z" fill="black"/>
<path d="M30.5161 38.5924H29.5898V39.5199H30.5161V38.5924Z" fill="black"/>
<path d="M30.5161 36.7299H29.5898V37.6562H30.5161V36.7299Z" fill="#9087B5"/>
<path d="M30.5161 32.0699H29.5898V32.9961H30.5161V32.0699Z" fill="black"/>
<path d="M30.5161 31.1337H29.5898V32.0699H30.5161V31.1337Z" fill="black"/>
<path d="M30.5161 30.2074H29.5898V31.1336H30.5161V30.2074Z" fill="black"/>
<path d="M30.5161 29.2712H29.5898V30.2074H30.5161V29.2712Z" fill="black"/>
<path d="M30.5161 28.3449H29.5898V29.2712H30.5161V28.3449Z" fill="black"/>
<path d="M30.5161 27.4099H29.5898V28.3462H30.5161V27.4099Z" fill="black"/>
<path d="M30.5161 26.4836H29.5898V27.4099H30.5161V26.4836Z" fill="black"/>
<path d="M30.5161 25.5474H29.5898V26.4837H30.5161V25.5474Z" fill="black"/>
<path d="M30.5161 24.6111H29.5898V25.5474H30.5161V24.6111Z" fill="black"/>
<path d="M30.5161 23.6849H29.5898V24.6112H30.5161V23.6849Z" fill="black"/>
<path d="M30.5161 22.7487H29.5898V23.6849H30.5161V22.7487Z" fill="black"/>
<path d="M30.5161 21.8224H29.5898V22.7486H30.5161V21.8224Z" fill="#9087B5"/>
<path d="M30.5161 20.8862H29.5898V21.8224H30.5161V20.8862Z" fill="black"/>
<path d="M30.5161 17.1624H29.5898V18.0887H30.5161V17.1624Z" fill="black"/>
<path d="M30.5161 16.2261H29.5898V17.1624H30.5161V16.2261Z" fill="#9087B5"/>
<path d="M30.5161 15.2999H29.5898V16.2262H30.5161V15.2999Z" fill="#9087B5"/>
<path d="M30.5161 14.3636H29.5898V15.2999H30.5161V14.3636Z" fill="#544B56"/>
<path d="M30.5161 13.4374H29.5898V14.3637H30.5161V13.4374Z" fill="#9087B5"/>
<path d="M30.5161 12.5012H29.5898V13.4374H30.5161V12.5012Z" fill="black"/>
<path d="M29.5901 37.6574H28.6538V38.5924H29.5901V37.6574Z" fill="black"/>
<path d="M29.5901 36.7299H28.6538V37.6562H29.5901V36.7299Z" fill="black"/>
<path d="M29.5901 35.7949H28.6538V36.7312H29.5901V35.7949Z" fill="black"/>
<path d="M29.5901 32.9974H28.6538V33.9324H29.5901V32.9974Z" fill="black"/>
<path d="M29.5901 32.0699H28.6538V32.9961H29.5901V32.0699Z" fill="black"/>
<path d="M29.5901 31.1337H28.6538V32.0699H29.5901V31.1337Z" fill="black"/>
<path d="M29.5901 30.2074H28.6538V31.1336H29.5901V30.2074Z" fill="black"/>
<path d="M29.5901 29.2712H28.6538V30.2074H29.5901V29.2712Z" fill="black"/>
<path d="M29.5901 28.3449H28.6538V29.2712H29.5901V28.3449Z" fill="black"/>
<path d="M29.5901 27.4099H28.6538V28.3462H29.5901V27.4099Z" fill="#544B56"/>
<path d="M29.5901 26.4836H28.6538V27.4099H29.5901V26.4836Z" fill="#9087B5"/>
<path d="M29.5901 25.5474H28.6538V26.4837H29.5901V25.5474Z" fill="#9087B5"/>
<path d="M29.5901 24.6111H28.6538V25.5474H29.5901V24.6111Z" fill="#9087B5"/>
<path d="M29.5901 23.6849H28.6538V24.6112H29.5901V23.6849Z" fill="#9087B5"/>
<path d="M29.5901 22.7487H28.6538V23.6849H29.5901V22.7487Z" fill="#9087B5"/>
<path d="M29.5901 17.1624H28.6538V18.0887H29.5901V17.1624Z" fill="black"/>
<path d="M29.5901 16.2261H28.6538V17.1624H29.5901V16.2261Z" fill="#9087B5"/>
<path d="M29.5901 15.2999H28.6538V16.2262H29.5901V15.2999Z" fill="#9087B5"/>
<path d="M29.5901 14.3636H28.6538V15.2999H29.5901V14.3636Z" fill="#544B56"/>
<path d="M29.5901 12.5012H28.6538V13.4374H29.5901V12.5012Z" fill="black"/>
<path d="M28.6538 34.8687H27.7275V35.7949H28.6538V34.8687Z" fill="black"/>
<path d="M28.6538 33.9324H27.7275V34.8687H28.6538V33.9324Z" fill="black"/>
<path d="M28.6538 32.9974H27.7275V33.9324H28.6538V32.9974Z" fill="#544B56"/>
<path d="M28.6538 32.0699H27.7275V32.9961H28.6538V32.0699Z" fill="#9087B5"/>
<path d="M28.6538 31.1337H27.7275V32.0699H28.6538V31.1337Z" fill="#9087B5"/>
<path d="M28.6538 30.2074H27.7275V31.1336H28.6538V30.2074Z" fill="#9087B5"/>
<path d="M28.6538 29.2712H27.7275V30.2074H28.6538V29.2712Z" fill="black"/>
<path d="M28.6538 28.3449H27.7275V29.2712H28.6538V28.3449Z" fill="#544B56"/>
<path d="M28.6538 27.4099H27.7275V28.3462H28.6538V27.4099Z" fill="#9087B5"/>
<path d="M28.6538 26.4836H27.7275V27.4099H28.6538V26.4836Z" fill="#9087B5"/>
<path d="M28.6538 25.5474H27.7275V26.4837H28.6538V25.5474Z" fill="#9087B5"/>
<path d="M28.6538 17.1624H27.7275V18.0887H28.6538V17.1624Z" fill="black"/>
<path d="M28.6538 16.2261H27.7275V17.1624H28.6538V16.2261Z" fill="#9087B5"/>
<path d="M28.6538 15.2999H27.7275V16.2262H28.6538V15.2999Z" fill="#9087B5"/>
<path d="M28.6538 14.3636H27.7275V15.2999H28.6538V14.3636Z" fill="#544B56"/>
<path d="M28.6538 12.5012H27.7275V13.4374H28.6538V12.5012Z" fill="black"/>
<path d="M27.7287 34.8687H26.7925V35.7949H27.7287V34.8687Z" fill="black"/>
<path d="M27.7287 33.9324H26.7925V34.8687H27.7287V33.9324Z" fill="black"/>
<path d="M27.7287 32.9974H26.7925V33.9324H27.7287V32.9974Z" fill="#9087B5"/>
<path d="M27.7287 32.0699H26.7925V32.9961H27.7287V32.0699Z" fill="#9087B5"/>
<path d="M27.7287 31.1337H26.7925V32.0699H27.7287V31.1337Z" fill="#9087B5"/>
<path d="M27.7287 29.2712H26.7925V30.2074H27.7287V29.2712Z" fill="#544B56"/>
<path d="M27.7287 28.3449H26.7925V29.2712H27.7287V28.3449Z" fill="#9087B5"/>
<path d="M27.7287 27.4099H26.7925V28.3462H27.7287V27.4099Z" fill="#9087B5"/>
<path d="M27.7287 26.4836H26.7925V27.4099H27.7287V26.4836Z" fill="#9087B5"/>
<path d="M27.7287 22.7487H26.7925V23.6849H27.7287V22.7487Z" fill="#9087B5"/>
<path d="M27.7287 17.1624H26.7925V18.0887H27.7287V17.1624Z" fill="black"/>
<path d="M27.7287 16.2261H26.7925V17.1624H27.7287V16.2261Z" fill="#9087B5"/>
<path d="M27.7287 15.2999H26.7925V16.2262H27.7287V15.2999Z" fill="#9087B5"/>
<path d="M27.7287 12.5012H26.7925V13.4374H27.7287V12.5012Z" fill="black"/>
<path d="M26.7925 40.4549H25.8662V41.3911H26.7925V40.4549Z" fill="black"/>
<path d="M26.7925 39.5199H25.8662V40.4549H26.7925V39.5199Z" fill="black"/>
<path d="M26.7925 38.5924H25.8662V39.5199H26.7925V38.5924Z" fill="black"/>
<path d="M26.7925 37.6574H25.8662V38.5924H26.7925V37.6574Z" fill="black"/>
<path d="M26.7925 36.7299H25.8662V37.6562H26.7925V36.7299Z" fill="black"/>
<path d="M26.7925 35.7949H25.8662V36.7312H26.7925V35.7949Z" fill="black"/>
<path d="M26.7925 34.8687H25.8662V35.7949H26.7925V34.8687Z" fill="#544B56"/>
<path d="M26.7925 33.9324H25.8662V34.8687H26.7925V33.9324Z" fill="black"/>
<path d="M26.7925 32.9974H25.8662V33.9324H26.7925V32.9974Z" fill="#544B56"/>
<path d="M26.7925 32.0699H25.8662V32.9961H26.7925V32.0699Z" fill="#544B56"/>
<path d="M26.7925 31.1337H25.8662V32.0699H26.7925V31.1337Z" fill="#544B56"/>
<path d="M26.7925 30.2074H25.8662V31.1336H26.7925V30.2074Z" fill="#544B56"/>
<path d="M26.7925 29.2712H25.8662V30.2074H26.7925V29.2712Z" fill="#544B56"/>
<path d="M26.7925 28.3449H25.8662V29.2712H26.7925V28.3449Z" fill="#544B56"/>
<path d="M26.7925 27.4099H25.8662V28.3462H26.7925V27.4099Z" fill="#544B56"/>
<path d="M26.7925 26.4836H25.8662V27.4099H26.7925V26.4836Z" fill="#544B56"/>
<path d="M26.7925 25.5474H25.8662V26.4837H26.7925V25.5474Z" fill="#544B56"/>
<path d="M26.7925 24.6111H25.8662V25.5474H26.7925V24.6111Z" fill="#9087B5"/>
<path d="M26.7925 23.6849H25.8662V24.6112H26.7925V23.6849Z" fill="#9087B5"/>
<path d="M26.7925 22.7487H25.8662V23.6849H26.7925V22.7487Z" fill="#9087B5"/>
<path d="M26.7925 20.8862H25.8662V21.8224H26.7925V20.8862Z" fill="black"/>
<path d="M26.7925 17.1624H25.8662V18.0887H26.7925V17.1624Z" fill="black"/>
<path d="M26.7925 16.2261H25.8662V17.1624H26.7925V16.2261Z" fill="#544B56"/>
<path d="M26.7925 15.2999H25.8662V16.2262H26.7925V15.2999Z" fill="#544B56"/>
<path d="M26.7925 13.4374H25.8662V14.3637H26.7925V13.4374Z" fill="#9087B5"/>
<path d="M26.7925 12.5012H25.8662V13.4374H26.7925V12.5012Z" fill="black"/>
<path d="M25.8664 35.7949H24.9302V36.7312H25.8664V35.7949Z" fill="black"/>
<path d="M25.8664 34.8687H24.9302V35.7949H25.8664V34.8687Z" fill="#544B56"/>
<path d="M25.8664 33.9324H24.9302V34.8687H25.8664V33.9324Z" fill="#544B56"/>
<path d="M25.8664 32.9974H24.9302V33.9324H25.8664V32.9974Z" fill="black"/>
<path d="M25.8664 32.0699H24.9302V32.9961H25.8664V32.0699Z" fill="black"/>
<path d="M25.8664 31.1337H24.9302V32.0699H25.8664V31.1337Z" fill="black"/>
<path d="M25.8664 30.2074H24.9302V31.1336H25.8664V30.2074Z" fill="black"/>
<path d="M25.8664 29.2712H24.9302V30.2074H25.8664V29.2712Z" fill="black"/>
<path d="M25.8664 28.3449H24.9302V29.2712H25.8664V28.3449Z" fill="black"/>
<path d="M25.8664 27.4099H24.9302V28.3462H25.8664V27.4099Z" fill="#544B56"/>
<path d="M25.8664 26.4836H24.9302V27.4099H25.8664V26.4836Z" fill="#544B56"/>
<path d="M25.8664 25.5474H24.9302V26.4837H25.8664V25.5474Z" fill="#544B56"/>
<path d="M25.8664 24.6111H24.9302V25.5474H25.8664V24.6111Z" fill="#9087B5"/>
<path d="M25.8664 23.6849H24.9302V24.6112H25.8664V23.6849Z" fill="#9087B5"/>
<path d="M25.8664 22.7487H24.9302V23.6849H25.8664V22.7487Z" fill="#544B56"/>
<path d="M25.8664 21.8224H24.9302V22.7486H25.8664V21.8224Z" fill="#544B56"/>
<path d="M25.8664 20.8862H24.9302V21.8224H25.8664V20.8862Z" fill="black"/>
<path d="M25.8664 19.9599H24.9302V20.8862H25.8664V19.9599Z" fill="black"/>
<path d="M25.8664 19.0237H24.9302V19.9599H25.8664V19.0237Z" fill="#544B56"/>
<path d="M25.8664 18.0887H24.9302V19.0249H25.8664V18.0887Z" fill="#544B56"/>
<path d="M25.8664 17.1624H24.9302V18.0887H25.8664V17.1624Z" fill="black"/>
<path d="M25.8664 16.2261H24.9302V17.1624H25.8664V16.2261Z" fill="#544B56"/>
<path d="M25.8664 15.2999H24.9302V16.2262H25.8664V15.2999Z" fill="#544B56"/>
<path d="M25.8664 14.3636H24.9302V15.2999H25.8664V14.3636Z" fill="black"/>
<path d="M25.8664 13.4374H24.9302V14.3637H25.8664V13.4374Z" fill="black"/>
<path d="M24.9299 36.7299H23.9937V37.6562H24.9299V36.7299Z" fill="#9087B5"/>
<path d="M24.9299 35.7949H23.9937V36.7312H24.9299V35.7949Z" fill="#544B56"/>
<path d="M24.9299 34.8687H23.9937V35.7949H24.9299V34.8687Z" fill="#544B56"/>
<path d="M24.9299 33.9324H23.9937V34.8687H24.9299V33.9324Z" fill="#544B56"/>
<path d="M24.9299 32.9974H23.9937V33.9324H24.9299V32.9974Z" fill="#544B56"/>
<path d="M24.9299 32.0699H23.9937V32.9961H24.9299V32.0699Z" fill="black"/>
<path d="M24.9299 31.1337H23.9937V32.0699H24.9299V31.1337Z" fill="#9087B5"/>
<path d="M24.9299 30.2074H23.9937V31.1336H24.9299V30.2074Z" fill="#9087B5"/>
<path d="M24.9299 29.2712H23.9937V30.2074H24.9299V29.2712Z" fill="black"/>
<path d="M24.9299 28.3449H23.9937V29.2712H24.9299V28.3449Z" fill="black"/>
<path d="M24.9299 27.4099H23.9937V28.3462H24.9299V27.4099Z" fill="black"/>
<path d="M24.9299 26.4836H23.9937V27.4099H24.9299V26.4836Z" fill="#544B56"/>
<path d="M24.9299 25.5474H23.9937V26.4837H24.9299V25.5474Z" fill="#544B56"/>
<path d="M24.9299 24.6111H23.9937V25.5474H24.9299V24.6111Z" fill="black"/>
<path d="M24.9299 23.6849H23.9937V24.6112H24.9299V23.6849Z" fill="black"/>
<path d="M24.9299 22.7487H23.9937V23.6849H24.9299V22.7487Z" fill="#544B56"/>
<path d="M24.9299 21.8224H23.9937V22.7486H24.9299V21.8224Z" fill="#9087B5"/>
<path d="M24.9299 20.8862H23.9937V21.8224H24.9299V20.8862Z" fill="black"/>
<path d="M24.9299 19.0237H23.9937V19.9599H24.9299V19.0237Z" fill="black"/>
<path d="M24.9299 18.0887H23.9937V19.0249H24.9299V18.0887Z" fill="black"/>
<path d="M24.9299 17.1624H23.9937V18.0887H24.9299V17.1624Z" fill="black"/>
<path d="M24.9299 16.2261H23.9937V17.1624H24.9299V16.2261Z" fill="#9087B5"/>
<path d="M24.9299 15.2999H23.9937V16.2262H24.9299V15.2999Z" fill="#9087B5"/>
<path d="M24.9299 14.3636H23.9937V15.2999H24.9299V14.3636Z" fill="black"/>
<path d="M23.9936 39.5199H23.0674V40.4549H23.9936V39.5199Z" fill="black"/>
<path d="M23.9936 38.5924H23.0674V39.5199H23.9936V38.5924Z" fill="black"/>
<path d="M23.9936 35.7949H23.0674V36.7312H23.9936V35.7949Z" fill="#544B56"/>
<path d="M23.9936 34.8687H23.0674V35.7949H23.9936V34.8687Z" fill="#544B56"/>
<path d="M23.9936 33.9324H23.0674V34.8687H23.9936V33.9324Z" fill="#544B56"/>
<path d="M23.9936 32.9974H23.0674V33.9324H23.9936V32.9974Z" fill="black"/>
<path d="M23.9936 32.0699H23.0674V32.9961H23.9936V32.0699Z" fill="#9087B5"/>
<path d="M23.9936 31.1337H23.0674V32.0699H23.9936V31.1337Z" fill="#9087B5"/>
<path d="M23.9936 30.2074H23.0674V31.1336H23.9936V30.2074Z" fill="#544B56"/>
<path d="M23.9936 29.2712H23.0674V30.2074H23.9936V29.2712Z" fill="black"/>
<path d="M23.9936 28.3449H23.0674V29.2712H23.9936V28.3449Z" fill="black"/>
<path d="M23.9936 27.4099H23.0674V28.3462H23.9936V27.4099Z" fill="black"/>
<path d="M23.9936 26.4836H23.0674V27.4099H23.9936V26.4836Z" fill="black"/>
<path d="M23.9936 25.5474H23.0674V26.4837H23.9936V25.5474Z" fill="black"/>
<path d="M23.9936 24.6111H23.0674V25.5474H23.9936V24.6111Z" fill="#544B56"/>
<path d="M23.9936 23.6849H23.0674V24.6112H23.9936V23.6849Z" fill="#544B56"/>
<path d="M23.9936 22.7487H23.0674V23.6849H23.9936V22.7487Z" fill="#9087B5"/>
<path d="M23.9936 21.8224H23.0674V22.7486H23.9936V21.8224Z" fill="#9087B5"/>
<path d="M23.9936 20.8862H23.0674V21.8224H23.9936V20.8862Z" fill="black"/>
<path d="M23.9936 17.1624H23.0674V18.0887H23.9936V17.1624Z" fill="black"/>
<path d="M23.9936 16.2261H23.0674V17.1624H23.9936V16.2261Z" fill="black"/>
<path d="M23.9936 15.2999H23.0674V16.2262H23.9936V15.2999Z" fill="black"/>
<path d="M23.0676 39.5199H22.1313V40.4549H23.0676V39.5199Z" fill="black"/>
<path d="M23.0676 37.6574H22.1313V38.5924H23.0676V37.6574Z" fill="black"/>
<path d="M23.0676 36.7299H22.1313V37.6562H23.0676V36.7299Z" fill="#9087B5"/>
<path d="M23.0676 35.7949H22.1313V36.7312H23.0676V35.7949Z" fill="black"/>
<path d="M23.0676 34.8687H22.1313V35.7949H23.0676V34.8687Z" fill="black"/>
<path d="M23.0676 33.9324H22.1313V34.8687H23.0676V33.9324Z" fill="black"/>
<path d="M23.0676 32.9974H22.1313V33.9324H23.0676V32.9974Z" fill="black"/>
<path d="M23.0676 32.0699H22.1313V32.9961H23.0676V32.0699Z" fill="black"/>
<path d="M23.0676 31.1337H22.1313V32.0699H23.0676V31.1337Z" fill="black"/>
<path d="M23.0676 30.2074H22.1313V31.1336H23.0676V30.2074Z" fill="black"/>
<path d="M23.0676 29.2712H22.1313V30.2074H23.0676V29.2712Z" fill="black"/>
<path d="M23.0676 25.5474H22.1313V26.4837H23.0676V25.5474Z" fill="black"/>
<path d="M23.0676 24.6111H22.1313V25.5474H23.0676V24.6111Z" fill="#544B56"/>
<path d="M23.0676 23.6849H22.1313V24.6112H23.0676V23.6849Z" fill="#9087B5"/>
<path d="M23.0676 22.7487H22.1313V23.6849H23.0676V22.7487Z" fill="#9087B5"/>
<path d="M23.0676 21.8224H22.1313V22.7486H23.0676V21.8224Z" fill="black"/>
<path d="M22.1313 40.4549H21.2051V41.3911H22.1313V40.4549Z" fill="black"/>
<path d="M22.1313 36.7299H21.2051V37.6562H22.1313V36.7299Z" fill="black"/>
<path d="M22.1313 29.2712H21.2051V30.2074H22.1313V29.2712Z" fill="black"/>
<path d="M22.1313 25.5474H21.2051V26.4837H22.1313V25.5474Z" fill="black"/>
<path d="M22.1313 24.6111H21.2051V25.5474H22.1313V24.6111Z" fill="black"/>
<path d="M22.1313 23.6849H21.2051V24.6112H22.1313V23.6849Z" fill="black"/>
<path d="M22.1313 22.7487H21.2051V23.6849H22.1313V22.7487Z" fill="black"/>
<path d="M21.2048 30.2074H20.2686V31.1336H21.2048V30.2074Z" fill="black"/>
<path d="M21.2048 25.5474H20.2686V26.4837H21.2048V25.5474Z" fill="black"/>
<path d="M20.2685 29.2712H19.3423V30.2074H20.2685V29.2712Z" fill="black"/>
<path d="M20.2685 26.4836H19.3423V27.4099H20.2685V26.4836Z" fill="black"/>
<path d="M19.3425 32.0699H18.4062V32.9961H19.3425V32.0699Z" fill="black"/>
<path d="M19.3425 31.1337H18.4062V32.0699H19.3425V31.1337Z" fill="black"/>
<path d="M19.3425 30.2074H18.4062V31.1336H19.3425V30.2074Z" fill="black"/>
<path d="M19.3425 29.2712H18.4062V30.2074H19.3425V29.2712Z" fill="black"/>
<path d="M19.3425 26.4836H18.4062V27.4099H19.3425V26.4836Z" fill="black"/>
<path d="M19.3425 25.5474H18.4062V26.4837H19.3425V25.5474Z" fill="black"/>
<path d="M19.3425 24.6111H18.4062V25.5474H19.3425V24.6111Z" fill="black"/>
<path d="M18.4074 32.0699H17.4712V32.9961H18.4074V32.0699Z" fill="black"/>
<path d="M18.4074 29.2712H17.4712V30.2074H18.4074V29.2712Z" fill="black"/>
<path d="M18.4074 25.5474H17.4712V26.4837H18.4074V25.5474Z" fill="#9087B5"/>
<path d="M18.4074 24.6111H17.4712V25.5474H18.4074V24.6111Z" fill="#E7DACE"/>
<path d="M18.4074 23.6849H17.4712V24.6112H18.4074V23.6849Z" fill="black"/>
<path d="M17.4712 32.0699H16.5449V32.9961H17.4712V32.0699Z" fill="black"/>
<path d="M17.4712 31.1337H16.5449V32.0699H17.4712V31.1337Z" fill="black"/>
<path d="M17.4712 30.2074H16.5449V31.1336H17.4712V30.2074Z" fill="black"/>
<path d="M17.4712 29.2712H16.5449V30.2074H17.4712V29.2712Z" fill="black"/>
<path d="M17.4712 25.5474H16.5449V26.4837H17.4712V25.5474Z" fill="#9087B5"/>
<path d="M17.4712 23.6849H16.5449V24.6112H17.4712V23.6849Z" fill="black"/>
<path d="M17.4712 22.7487H16.5449V23.6849H17.4712V22.7487Z" fill="black"/>
<path d="M17.4712 21.8224H16.5449V22.7486H17.4712V21.8224Z" fill="black"/>
<path d="M16.5451 29.2712H15.6089V30.2074H16.5451V29.2712Z" fill="black"/>
<path d="M16.5451 28.3449H15.6089V29.2712H16.5451V28.3449Z" fill="black"/>
<path d="M16.5451 27.4099H15.6089V28.3462H16.5451V27.4099Z" fill="black"/>
<path d="M16.5451 26.4836H15.6089V27.4099H16.5451V26.4836Z" fill="#9087B5"/>
<path d="M16.5451 25.5474H15.6089V26.4837H16.5451V25.5474Z" fill="#544B56"/>
<path d="M16.5451 24.6111H15.6089V25.5474H16.5451V24.6111Z" fill="#E7DACE"/>
<path d="M16.5451 23.6849H15.6089V24.6112H16.5451V23.6849Z" fill="#E7DACE"/>
<path d="M16.5451 22.7487H15.6089V23.6849H16.5451V22.7487Z" fill="#E7DACE"/>
<path d="M16.5451 21.8224H15.6089V22.7486H16.5451V21.8224Z" fill="#E7DACE"/>
<path d="M16.5451 20.8862H15.6089V21.8224H16.5451V20.8862Z" fill="black"/>
<path d="M16.5451 19.9599H15.6089V20.8862H16.5451V19.9599Z" fill="black"/>
<path d="M16.5451 19.0237H15.6089V19.9599H16.5451V19.0237Z" fill="black"/>
<path d="M15.6089 27.4099H14.6826V28.3462H15.6089V27.4099Z" fill="black"/>
<path d="M15.6089 26.4836H14.6826V27.4099H15.6089V26.4836Z" fill="#9087B5"/>
<path d="M15.6089 25.5474H14.6826V26.4837H15.6089V25.5474Z" fill="#544B56"/>
<path d="M15.6089 24.6111H14.6826V25.5474H15.6089V24.6111Z" fill="#E7DACE"/>
<path d="M15.6089 23.6849H14.6826V24.6112H15.6089V23.6849Z" fill="#E7DACE"/>
<path d="M15.6089 22.7487H14.6826V23.6849H15.6089V22.7487Z" fill="#E7DACE"/>
<path d="M15.6089 21.8224H14.6826V22.7486H15.6089V21.8224Z" fill="#E7DACE"/>
<path d="M15.6089 20.8862H14.6826V21.8224H15.6089V20.8862Z" fill="#E7DACE"/>
<path d="M15.6089 19.9599H14.6826V20.8862H15.6089V19.9599Z" fill="#E7DACE"/>
<path d="M15.6089 19.0237H14.6826V19.9599H15.6089V19.0237Z" fill="#E7DACE"/>
<path d="M15.6089 18.0887H14.6826V19.0249H15.6089V18.0887Z" fill="black"/>
<path d="M15.6089 17.1624H14.6826V18.0887H15.6089V17.1624Z" fill="black"/>
<path d="M15.6089 16.2261H14.6826V17.1624H15.6089V16.2261Z" fill="black"/>
<path d="M14.6823 27.4099H13.7461V28.3462H14.6823V27.4099Z" fill="black"/>
<path d="M14.6823 26.4836H13.7461V27.4099H14.6823V26.4836Z" fill="#E7DACE"/>
<path d="M14.6823 25.5474H13.7461V26.4837H14.6823V25.5474Z" fill="black"/>
<path d="M14.6823 24.6111H13.7461V25.5474H14.6823V24.6111Z" fill="black"/>
<path d="M14.6823 23.6849H13.7461V24.6112H14.6823V23.6849Z" fill="black"/>
<path d="M14.6823 22.7487H13.7461V23.6849H14.6823V22.7487Z" fill="black"/>
<path d="M14.6823 21.8224H13.7461V22.7486H14.6823V21.8224Z" fill="#E7DACE"/>
<path d="M14.6823 20.8862H13.7461V21.8224H14.6823V20.8862Z" fill="#E7DACE"/>
<path d="M14.6823 19.9599H13.7461V20.8862H14.6823V19.9599Z" fill="#E7DACE"/>
<path d="M14.6823 19.0237H13.7461V19.9599H14.6823V19.0237Z" fill="#E7DACE"/>
<path d="M14.6823 18.0887H13.7461V19.0249H14.6823V18.0887Z" fill="#E7DACE"/>
<path d="M14.6823 17.1624H13.7461V18.0887H14.6823V17.1624Z" fill="#E7DACE"/>
<path d="M14.6823 16.2261H13.7461V17.1624H14.6823V16.2261Z" fill="#E7DACE"/>
<path d="M14.6823 15.2999H13.7461V16.2262H14.6823V15.2999Z" fill="black"/>
<path d="M14.6823 14.3636H13.7461V15.2999H14.6823V14.3636Z" fill="black"/>
<path d="M13.7461 26.4836H12.8198V27.4099H13.7461V26.4836Z" fill="black"/>
<path d="M13.7461 21.8224H12.8198V22.7486H13.7461V21.8224Z" fill="black"/>
<path d="M13.7461 20.8862H12.8198V21.8224H13.7461V20.8862Z" fill="black"/>
<path d="M13.7461 19.9599H12.8198V20.8862H13.7461V19.9599Z" fill="black"/>
<path d="M13.7461 19.0237H12.8198V19.9599H13.7461V19.0237Z" fill="#E7DACE"/>
<path d="M13.7461 18.0887H12.8198V19.0249H13.7461V18.0887Z" fill="#E7DACE"/>
<path d="M13.7461 17.1624H12.8198V18.0887H13.7461V17.1624Z" fill="#E7DACE"/>
<path d="M13.7461 16.2261H12.8198V17.1624H13.7461V16.2261Z" fill="#E7DACE"/>
<path d="M13.7461 15.2999H12.8198V16.2262H13.7461V15.2999Z" fill="#E7DACE"/>
<path d="M13.7461 14.3636H12.8198V15.2999H13.7461V14.3636Z" fill="#E7DACE"/>
<path d="M13.7461 13.4374H12.8198V14.3637H13.7461V13.4374Z" fill="black"/>
<path d="M12.82 19.0237H11.8838V19.9599H12.82V19.0237Z" fill="black"/>
<path d="M12.82 18.0887H11.8838V19.0249H12.82V18.0887Z" fill="black"/>
<path d="M12.82 17.1624H11.8838V18.0887H12.82V17.1624Z" fill="black"/>
<path d="M12.82 16.2261H11.8838V17.1624H12.82V16.2261Z" fill="#E7DACE"/>
<path d="M12.82 15.2999H11.8838V16.2262H12.82V15.2999Z" fill="#E7DACE"/>
<path d="M12.82 14.3636H11.8838V15.2999H12.82V14.3636Z" fill="#E7DACE"/>
<path d="M12.82 13.4374H11.8838V14.3637H12.82V13.4374Z" fill="black"/>
<path d="M11.8838 16.2261H10.9575V17.1624H11.8838V16.2261Z" fill="black"/>
<path d="M11.8838 15.2999H10.9575V16.2262H11.8838V15.2999Z" fill="black"/>
<path d="M11.8838 14.3636H10.9575V15.2999H11.8838V14.3636Z" fill="black"/>
</g>
<defs>
<clipPath id="clip0_69_12149">
<rect width="50" height="50" fill="white" transform="translate(0 0.942383)"/>
</clipPath>
</defs>
</svg>
