<svg width="50" height="50" viewBox="0 0 50 50" fill="none" xmlns="http://www.w3.org/2000/svg">
<g clip-path="url(#clip0_69_12151)">
<path d="M24.9998 48.2225C37.8253 48.2225 48.2223 37.8254 48.2223 25C48.2223 12.1746 37.8253 1.7775 24.9998 1.7775C12.1744 1.7775 1.77734 12.1746 1.77734 25C1.77734 37.8254 12.1744 48.2225 24.9998 48.2225Z" fill="black"/>
<path d="M24.9998 49.0975C11.7123 49.0975 0.902344 38.2875 0.902344 25C0.902344 11.7125 11.7123 0.902496 24.9998 0.902496C38.2873 0.902496 49.0973 11.7125 49.0973 25C49.0973 38.2875 38.2873 49.0975 24.9998 49.0975ZM24.9998 2.6525C12.6773 2.6525 2.65234 12.6775 2.65234 25C2.65234 37.3225 12.6773 47.3475 24.9998 47.3475C37.3223 47.3475 47.3473 37.3225 47.3473 25C47.3473 12.6775 37.3223 2.6525 24.9998 2.6525Z" fill="#AD17AD"/>
<path d="M32.9537 39.495H32.0737V40.3675H32.9537V39.495Z" fill="black"/>
<path d="M32.9537 38.6138H32.0737V39.495H32.9537V38.6138Z" fill="black"/>
<path d="M32.9537 37.7413H32.0737V38.6138H32.9537V37.7413Z" fill="black"/>
<path d="M32.9537 36.86H32.0737V37.7413H32.9537V36.86Z" fill="black"/>
<path d="M32.9537 35.9788H32.0737V36.8588H32.9537V35.9788Z" fill="black"/>
<path d="M32.9537 35.105H32.0737V35.9788H32.9537V35.105Z" fill="black"/>
<path d="M32.9537 34.225H32.0737V35.105H32.9537V34.225Z" fill="black"/>
<path d="M32.9537 29.8363H32.0737V30.7163H32.9537V29.8363Z" fill="black"/>
<path d="M32.9537 28.9625H32.0737V29.835H32.9537V28.9625Z" fill="black"/>
<path d="M32.9537 28.0813H32.0737V28.9625H32.9537V28.0813Z" fill="black"/>
<path d="M32.9537 27.2088H32.0737V28.0813H32.9537V27.2088Z" fill="black"/>
<path d="M32.9537 26.3275H32.0737V27.2088H32.9537V26.3275Z" fill="black"/>
<path d="M32.9537 25.455H32.0737V26.3275H32.9537V25.455Z" fill="black"/>
<path d="M32.9537 24.5738H32.0737V25.455H32.9537V24.5738Z" fill="black"/>
<path d="M32.9537 23.7013H32.0737V24.5738H32.9537V23.7013Z" fill="black"/>
<path d="M32.9537 22.82H32.0737V23.7013H32.9537V22.82Z" fill="black"/>
<path d="M32.9537 12.2875H32.0737V13.1688H32.9537V12.2875Z" fill="#F20000"/>
<path d="M32.9537 11.4163H32.0737V12.2888H32.9537V11.4163Z" fill="#F20000"/>
<path d="M32.0737 39.495H31.2012V40.3675H32.0737V39.495Z" fill="black"/>
<path d="M32.0737 38.6138H31.2012V39.495H32.0737V38.6138Z" fill="#3C4360"/>
<path d="M32.0737 37.7413H31.2012V38.6138H32.0737V37.7413Z" fill="#3C4360"/>
<path d="M32.0737 36.86H31.2012V37.7413H32.0737V36.86Z" fill="#3C4360"/>
<path d="M32.0737 35.9788H31.2012V36.8588H32.0737V35.9788Z" fill="black"/>
<path d="M32.0737 35.105H31.2012V35.9788H32.0737V35.105Z" fill="#3C4360"/>
<path d="M32.0737 34.225H31.2012V35.105H32.0737V34.225Z" fill="black"/>
<path d="M32.0737 33.3525H31.2012V34.225H32.0737V33.3525Z" fill="black"/>
<path d="M32.0737 32.47H31.2012V33.3512H32.0737V32.47Z" fill="black"/>
<path d="M32.0737 31.5988H31.2012V32.4713H32.0737V31.5988Z" fill="black"/>
<path d="M32.0737 30.7162H31.2012V31.5975H32.0737V30.7162Z" fill="black"/>
<path d="M32.0737 29.8363H31.2012V30.7163H32.0737V29.8363Z" fill="#F49364"/>
<path d="M32.0737 28.9625H31.2012V29.835H32.0737V28.9625Z" fill="#AD17AD"/>
<path d="M32.0737 28.0813H31.2012V28.9625H32.0737V28.0813Z" fill="#AD17AD"/>
<path d="M32.0737 27.2088H31.2012V28.0813H32.0737V27.2088Z" fill="#AD17AD"/>
<path d="M32.0737 26.3275H31.2012V27.2088H32.0737V26.3275Z" fill="#AD17AD"/>
<path d="M32.0737 25.455H31.2012V26.3275H32.0737V25.455Z" fill="#AD17AD"/>
<path d="M32.0737 24.5738H31.2012V25.455H32.0737V24.5738Z" fill="#AD17AD"/>
<path d="M32.0737 23.7013H31.2012V24.5738H32.0737V23.7013Z" fill="#AD17AD"/>
<path d="M32.0737 22.82H31.2012V23.7013H32.0737V22.82Z" fill="#8A0391"/>
<path d="M32.0737 21.9388H31.2012V22.82H32.0737V21.9388Z" fill="black"/>
<path d="M32.0737 14.9238H31.2012V15.7963H32.0737V14.9238Z" fill="black"/>
<path d="M32.0737 14.0425H31.2012V14.9238H32.0737V14.0425Z" fill="black"/>
<path d="M32.0737 13.17H31.2012V14.0425H32.0737V13.17Z" fill="#F20000"/>
<path d="M32.0737 12.2875H31.2012V13.1688H32.0737V12.2875Z" fill="#F20000"/>
<path d="M32.0737 11.4163H31.2012V12.2888H32.0737V11.4163Z" fill="#F20000"/>
<path d="M31.2001 39.495H30.3188V40.3675H31.2001V39.495Z" fill="black"/>
<path d="M31.2001 38.6138H30.3188V39.495H31.2001V38.6138Z" fill="#3C4360"/>
<path d="M31.2001 37.7413H30.3188V38.6138H31.2001V37.7413Z" fill="#3C4360"/>
<path d="M31.2001 36.86H30.3188V37.7413H31.2001V36.86Z" fill="#3C4360"/>
<path d="M31.2001 35.9788H30.3188V36.8588H31.2001V35.9788Z" fill="black"/>
<path d="M31.2001 35.105H30.3188V35.9788H31.2001V35.105Z" fill="#3C4360"/>
<path d="M31.2001 34.225H30.3188V35.105H31.2001V34.225Z" fill="#8A0391"/>
<path d="M31.2001 33.3525H30.3188V34.225H31.2001V33.3525Z" fill="#8A0391"/>
<path d="M31.2001 32.47H30.3188V33.3512H31.2001V32.47Z" fill="#8A0391"/>
<path d="M31.2001 31.5988H30.3188V32.4713H31.2001V31.5988Z" fill="#8A0391"/>
<path d="M31.2001 30.7162H30.3188V31.5975H31.2001V30.7162Z" fill="black"/>
<path d="M31.2001 29.8363H30.3188V30.7163H31.2001V29.8363Z" fill="#F49364"/>
<path d="M31.2001 28.9625H30.3188V29.835H31.2001V28.9625Z" fill="#AD17AD"/>
<path d="M31.2001 28.0813H30.3188V28.9625H31.2001V28.0813Z" fill="#AD17AD"/>
<path d="M31.2001 27.2088H30.3188V28.0813H31.2001V27.2088Z" fill="#AD17AD"/>
<path d="M31.2001 26.3275H30.3188V27.2088H31.2001V26.3275Z" fill="#AD17AD"/>
<path d="M31.2001 25.455H30.3188V26.3275H31.2001V25.455Z" fill="#AD17AD"/>
<path d="M31.2001 24.5738H30.3188V25.455H31.2001V24.5738Z" fill="#AD17AD"/>
<path d="M31.2001 23.7013H30.3188V24.5738H31.2001V23.7013Z" fill="#AD17AD"/>
<path d="M31.2001 22.82H30.3188V23.7013H31.2001V22.82Z" fill="#AD17AD"/>
<path d="M31.2001 21.9388H30.3188V22.82H31.2001V21.9388Z" fill="#500256"/>
<path d="M31.2001 21.0663H30.3188V21.9388H31.2001V21.0663Z" fill="black"/>
<path d="M31.2001 19.3125H30.3188V20.185H31.2001V19.3125Z" fill="black"/>
<path d="M31.2001 18.4313H30.3188V19.3125H31.2001V18.4313Z" fill="black"/>
<path d="M31.2001 17.5587H30.3188V18.4312H31.2001V17.5587Z" fill="black"/>
<path d="M31.2001 16.6775H30.3188V17.5588H31.2001V16.6775Z" fill="black"/>
<path d="M31.2001 15.7963H30.3188V16.6775H31.2001V15.7963Z" fill="black"/>
<path d="M31.2001 14.9238H30.3188V15.7963H31.2001V14.9238Z" fill="#8A0391"/>
<path d="M31.2001 14.0425H30.3188V14.9238H31.2001V14.0425Z" fill="#F20000"/>
<path d="M31.2001 13.17H30.3188V14.0425H31.2001V13.17Z" fill="#F20000"/>
<path d="M31.2001 12.2875H30.3188V13.1688H31.2001V12.2875Z" fill="#F20000"/>
<path d="M30.3188 39.495H29.4463V40.3675H30.3188V39.495Z" fill="black"/>
<path d="M30.3188 38.6138H29.4463V39.495H30.3188V38.6138Z" fill="#3C4360"/>
<path d="M30.3188 37.7413H29.4463V38.6138H30.3188V37.7413Z" fill="black"/>
<path d="M30.3188 36.86H29.4463V37.7413H30.3188V36.86Z" fill="black"/>
<path d="M30.3188 35.9788H29.4463V36.8588H30.3188V35.9788Z" fill="black"/>
<path d="M30.3188 35.105H29.4463V35.9788H30.3188V35.105Z" fill="#3C4360"/>
<path d="M30.3188 34.225H29.4463V35.105H30.3188V34.225Z" fill="#8A0391"/>
<path d="M30.3188 33.3525H29.4463V34.225H30.3188V33.3525Z" fill="#8A0391"/>
<path d="M30.3188 32.47H29.4463V33.3512H30.3188V32.47Z" fill="#AD17AD"/>
<path d="M30.3188 31.5988H29.4463V32.4713H30.3188V31.5988Z" fill="#AD17AD"/>
<path d="M30.3188 30.7162H29.4463V31.5975H30.3188V30.7162Z" fill="#AD17AD"/>
<path d="M30.3188 29.8363H29.4463V30.7163H30.3188V29.8363Z" fill="#B8602D"/>
<path d="M30.3188 28.9625H29.4463V29.835H30.3188V28.9625Z" fill="#AD17AD"/>
<path d="M30.3188 28.0813H29.4463V28.9625H30.3188V28.0813Z" fill="#AD17AD"/>
<path d="M30.3188 27.2088H29.4463V28.0813H30.3188V27.2088Z" fill="#AD17AD"/>
<path d="M30.3188 26.3275H29.4463V27.2088H30.3188V26.3275Z" fill="#AD17AD"/>
<path d="M30.3188 25.455H29.4463V26.3275H30.3188V25.455Z" fill="#AD17AD"/>
<path d="M30.3188 24.5738H29.4463V25.455H30.3188V24.5738Z" fill="#AD17AD"/>
<path d="M30.3188 23.7013H29.4463V24.5738H30.3188V23.7013Z" fill="#AD17AD"/>
<path d="M30.3188 22.82H29.4463V23.7013H30.3188V22.82Z" fill="#500256"/>
<path d="M30.3188 21.9388H29.4463V22.82H30.3188V21.9388Z" fill="#63036D"/>
<path d="M30.3188 21.0663H29.4463V21.9388H30.3188V21.0663Z" fill="black"/>
<path d="M30.3188 20.185H29.4463V21.0662H30.3188V20.185Z" fill="black"/>
<path d="M30.3188 19.3125H29.4463V20.185H30.3188V19.3125Z" fill="#873810"/>
<path d="M30.3188 18.4313H29.4463V19.3125H30.3188V18.4313Z" fill="#873810"/>
<path d="M30.3188 17.5587H29.4463V18.4312H30.3188V17.5587Z" fill="#873810"/>
<path d="M30.3188 16.6775H29.4463V17.5588H30.3188V16.6775Z" fill="black"/>
<path d="M30.3188 15.7963H29.4463V16.6775H30.3188V15.7963Z" fill="#AD17AD"/>
<path d="M30.3188 14.9238H29.4463V15.7963H30.3188V14.9238Z" fill="#AD17AD"/>
<path d="M30.3188 14.0425H29.4463V14.9238H30.3188V14.0425Z" fill="#F20000"/>
<path d="M30.3188 13.17H29.4463V14.0425H30.3188V13.17Z" fill="#F20000"/>
<path d="M30.3188 12.2875H29.4463V13.1688H30.3188V12.2875Z" fill="black"/>
<path d="M29.4462 39.495H28.5649V40.3675H29.4462V39.495Z" fill="black"/>
<path d="M29.4462 38.6138H28.5649V39.495H29.4462V38.6138Z" fill="black"/>
<path d="M29.4462 35.105H28.5649V35.9788H29.4462V35.105Z" fill="black"/>
<path d="M29.4462 34.225H28.5649V35.105H29.4462V34.225Z" fill="#8A0391"/>
<path d="M29.4462 33.3525H28.5649V34.225H29.4462V33.3525Z" fill="#8A0391"/>
<path d="M29.4462 32.47H28.5649V33.3512H29.4462V32.47Z" fill="#AD17AD"/>
<path d="M29.4462 31.5988H28.5649V32.4713H29.4462V31.5988Z" fill="#AD17AD"/>
<path d="M29.4462 30.7162H28.5649V31.5975H29.4462V30.7162Z" fill="#AD17AD"/>
<path d="M29.4462 29.8363H28.5649V30.7163H29.4462V29.8363Z" fill="#AD17AD"/>
<path d="M29.4462 28.9625H28.5649V29.835H29.4462V28.9625Z" fill="#AD17AD"/>
<path d="M29.4462 28.0813H28.5649V28.9625H29.4462V28.0813Z" fill="#500256"/>
<path d="M29.4462 27.2088H28.5649V28.0813H29.4462V27.2088Z" fill="#500256"/>
<path d="M29.4462 26.3275H28.5649V27.2088H29.4462V26.3275Z" fill="#500256"/>
<path d="M29.4462 25.455H28.5649V26.3275H29.4462V25.455Z" fill="#500256"/>
<path d="M29.4462 24.5738H28.5649V25.455H29.4462V24.5738Z" fill="#500256"/>
<path d="M29.4462 23.7013H28.5649V24.5738H29.4462V23.7013Z" fill="#500256"/>
<path d="M29.4462 22.82H28.5649V23.7013H29.4462V22.82Z" fill="#63036D"/>
<path d="M29.4462 21.9388H28.5649V22.82H29.4462V21.9388Z" fill="#63036D"/>
<path d="M29.4462 21.0663H28.5649V21.9388H29.4462V21.0663Z" fill="black"/>
<path d="M29.4462 20.185H28.5649V21.0662H29.4462V20.185Z" fill="#873810"/>
<path d="M29.4462 19.3125H28.5649V20.185H29.4462V19.3125Z" fill="#F49364"/>
<path d="M29.4462 18.4313H28.5649V19.3125H29.4462V18.4313Z" fill="#F49364"/>
<path d="M29.4462 17.5587H28.5649V18.4312H29.4462V17.5587Z" fill="#873810"/>
<path d="M29.4462 16.6775H28.5649V17.5588H29.4462V16.6775Z" fill="black"/>
<path d="M29.4462 15.7963H28.5649V16.6775H29.4462V15.7963Z" fill="#AD17AD"/>
<path d="M29.4462 14.9238H28.5649V15.7963H29.4462V14.9238Z" fill="#AD17AD"/>
<path d="M29.4462 14.0425H28.5649V14.9238H29.4462V14.0425Z" fill="#8A0391"/>
<path d="M29.4462 13.17H28.5649V14.0425H29.4462V13.17Z" fill="#AD17AD"/>
<path d="M29.4462 12.2875H28.5649V13.1688H29.4462V12.2875Z" fill="#AD17AD"/>
<path d="M29.4462 11.4163H28.5649V12.2888H29.4462V11.4163Z" fill="black"/>
<path d="M28.5649 34.225H27.6924V35.105H28.5649V34.225Z" fill="#570459"/>
<path d="M28.5649 33.3525H27.6924V34.225H28.5649V33.3525Z" fill="#8A0391"/>
<path d="M28.5649 32.47H27.6924V33.3512H28.5649V32.47Z" fill="#AD17AD"/>
<path d="M28.5649 31.5988H27.6924V32.4713H28.5649V31.5988Z" fill="#AD17AD"/>
<path d="M28.5649 30.7162H27.6924V31.5975H28.5649V30.7162Z" fill="#AD17AD"/>
<path d="M28.5649 29.8363H27.6924V30.7163H28.5649V29.8363Z" fill="#AD17AD"/>
<path d="M28.5649 28.9625H27.6924V29.835H28.5649V28.9625Z" fill="#AD17AD"/>
<path d="M28.5649 28.0813H27.6924V28.9625H28.5649V28.0813Z" fill="#500256"/>
<path d="M28.5649 27.2088H27.6924V28.0813H28.5649V27.2088Z" fill="#63036D"/>
<path d="M28.5649 26.3275H27.6924V27.2088H28.5649V26.3275Z" fill="#500256"/>
<path d="M28.5649 25.455H27.6924V26.3275H28.5649V25.455Z" fill="#63036D"/>
<path d="M28.5649 24.5738H27.6924V25.455H28.5649V24.5738Z" fill="#63036D"/>
<path d="M28.5649 23.7013H27.6924V24.5738H28.5649V23.7013Z" fill="#63036D"/>
<path d="M28.5649 22.82H27.6924V23.7013H28.5649V22.82Z" fill="#63036D"/>
<path d="M28.5649 21.9388H27.6924V22.82H28.5649V21.9388Z" fill="black"/>
<path d="M28.5649 21.0663H27.6924V21.9388H28.5649V21.0663Z" fill="#873810"/>
<path d="M28.5649 20.185H27.6924V21.0662H28.5649V20.185Z" fill="#F49364"/>
<path d="M28.5649 19.3125H27.6924V20.185H28.5649V19.3125Z" fill="#FFEFD3"/>
<path d="M28.5649 18.4313H27.6924V19.3125H28.5649V18.4313Z" fill="#FFEFD3"/>
<path d="M28.5649 17.5587H27.6924V18.4312H28.5649V17.5587Z" fill="#F49364"/>
<path d="M28.5649 16.6775H27.6924V17.5588H28.5649V16.6775Z" fill="black"/>
<path d="M28.5649 15.7963H27.6924V16.6775H28.5649V15.7963Z" fill="#AD17AD"/>
<path d="M28.5649 14.9238H27.6924V15.7963H28.5649V14.9238Z" fill="#AD17AD"/>
<path d="M28.5649 14.0425H27.6924V14.9238H28.5649V14.0425Z" fill="#AD17AD"/>
<path d="M28.5649 13.17H27.6924V14.0425H28.5649V13.17Z" fill="#AD17AD"/>
<path d="M28.5649 12.2875H27.6924V13.1688H28.5649V12.2875Z" fill="#AD17AD"/>
<path d="M28.5649 11.4163H27.6924V12.2888H28.5649V11.4163Z" fill="black"/>
<path d="M27.6928 39.495H26.8115V40.3675H27.6928V39.495Z" fill="black"/>
<path d="M27.6928 38.6138H26.8115V39.495H27.6928V38.6138Z" fill="black"/>
<path d="M27.6928 37.7413H26.8115V38.6138H27.6928V37.7413Z" fill="black"/>
<path d="M27.6928 36.86H26.8115V37.7413H27.6928V36.86Z" fill="black"/>
<path d="M27.6928 35.9788H26.8115V36.8588H27.6928V35.9788Z" fill="black"/>
<path d="M27.6928 35.105H26.8115V35.9788H27.6928V35.105Z" fill="black"/>
<path d="M27.6928 34.225H26.8115V35.105H27.6928V34.225Z" fill="black"/>
<path d="M27.6928 33.3525H26.8115V34.225H27.6928V33.3525Z" fill="#570459"/>
<path d="M27.6928 32.47H26.8115V33.3512H27.6928V32.47Z" fill="#8A0391"/>
<path d="M27.6928 31.5988H26.8115V32.4713H27.6928V31.5988Z" fill="#AD17AD"/>
<path d="M27.6928 30.7162H26.8115V31.5975H27.6928V30.7162Z" fill="#AD17AD"/>
<path d="M27.6928 29.8363H26.8115V30.7163H27.6928V29.8363Z" fill="#AD17AD"/>
<path d="M27.6928 28.9625H26.8115V29.835H27.6928V28.9625Z" fill="#AD17AD"/>
<path d="M27.6928 28.0813H26.8115V28.9625H27.6928V28.0813Z" fill="#500256"/>
<path d="M27.6928 27.2088H26.8115V28.0813H27.6928V27.2088Z" fill="#63036D"/>
<path d="M27.6928 26.3275H26.8115V27.2088H27.6928V26.3275Z" fill="#500256"/>
<path d="M27.6928 25.455H26.8115V26.3275H27.6928V25.455Z" fill="#63036D"/>
<path d="M27.6928 24.5738H26.8115V25.455H27.6928V24.5738Z" fill="#63036D"/>
<path d="M27.6928 23.7013H26.8115V24.5738H27.6928V23.7013Z" fill="#63036D"/>
<path d="M27.6928 22.82H26.8115V23.7013H27.6928V22.82Z" fill="black"/>
<path d="M27.6928 21.9388H26.8115V22.82H27.6928V21.9388Z" fill="#F49364"/>
<path d="M27.6928 21.0663H26.8115V21.9388H27.6928V21.0663Z" fill="#873810"/>
<path d="M27.6928 20.185H26.8115V21.0662H27.6928V20.185Z" fill="#FFEFD3"/>
<path d="M27.6928 19.3125H26.8115V20.185H27.6928V19.3125Z" fill="#FFEFD3"/>
<path d="M27.6928 18.4313H26.8115V19.3125H27.6928V18.4313Z" fill="#FFEFD3"/>
<path d="M27.6928 17.5587H26.8115V18.4312H27.6928V17.5587Z" fill="black"/>
<path d="M27.6928 16.6775H26.8115V17.5588H27.6928V16.6775Z" fill="#AD17AD"/>
<path d="M27.6928 15.7963H26.8115V16.6775H27.6928V15.7963Z" fill="#AD17AD"/>
<path d="M27.6928 14.9238H26.8115V15.7963H27.6928V14.9238Z" fill="#AD17AD"/>
<path d="M27.6928 14.0425H26.8115V14.9238H27.6928V14.0425Z" fill="#AD17AD"/>
<path d="M27.6928 13.17H26.8115V14.0425H27.6928V13.17Z" fill="#AD17AD"/>
<path d="M27.6928 12.2875H26.8115V13.1688H27.6928V12.2875Z" fill="#AD17AD"/>
<path d="M27.6928 11.4163H26.8115V12.2888H27.6928V11.4163Z" fill="black"/>
<path d="M26.8115 39.495H25.939V40.3675H26.8115V39.495Z" fill="black"/>
<path d="M26.8115 38.6138H25.939V39.495H26.8115V38.6138Z" fill="#3C4360"/>
<path d="M26.8115 37.7413H25.939V38.6138H26.8115V37.7413Z" fill="#3C4360"/>
<path d="M26.8115 36.86H25.939V37.7413H26.8115V36.86Z" fill="#3C4360"/>
<path d="M26.8115 35.9788H25.939V36.8588H26.8115V35.9788Z" fill="black"/>
<path d="M26.8115 35.105H25.939V35.9788H26.8115V35.105Z" fill="#3C4360"/>
<path d="M26.8115 34.225H25.939V35.105H26.8115V34.225Z" fill="#570459"/>
<path d="M26.8115 33.3525H25.939V34.225H26.8115V33.3525Z" fill="#8A0391"/>
<path d="M26.8115 32.47H25.939V33.3512H26.8115V32.47Z" fill="#570459"/>
<path d="M26.8115 31.5988H25.939V32.4713H26.8115V31.5988Z" fill="#8A0391"/>
<path d="M26.8115 30.7162H25.939V31.5975H26.8115V30.7162Z" fill="#AD17AD"/>
<path d="M26.8115 29.8363H25.939V30.7163H26.8115V29.8363Z" fill="#AD17AD"/>
<path d="M26.8115 28.9625H25.939V29.835H26.8115V28.9625Z" fill="#AD17AD"/>
<path d="M26.8115 28.0813H25.939V28.9625H26.8115V28.0813Z" fill="#500256"/>
<path d="M26.8115 27.2088H25.939V28.0813H26.8115V27.2088Z" fill="#500256"/>
<path d="M26.8115 26.3275H25.939V27.2088H26.8115V26.3275Z" fill="#500256"/>
<path d="M26.8115 25.455H25.939V26.3275H26.8115V25.455Z" fill="#500256"/>
<path d="M26.8115 24.5738H25.939V25.455H26.8115V24.5738Z" fill="#500256"/>
<path d="M26.8115 23.7013H25.939V24.5738H26.8115V23.7013Z" fill="#500256"/>
<path d="M26.8115 22.82H25.939V23.7013H26.8115V22.82Z" fill="black"/>
<path d="M26.8115 21.9388H25.939V22.82H26.8115V21.9388Z" fill="#F49364"/>
<path d="M26.8115 21.0663H25.939V21.9388H26.8115V21.0663Z" fill="#873810"/>
<path d="M26.8115 20.185H25.939V21.0662H26.8115V20.185Z" fill="#FFEFD3"/>
<path d="M26.8115 19.3125H25.939V20.185H26.8115V19.3125Z" fill="#FFEFD3"/>
<path d="M26.8115 18.4313H25.939V19.3125H26.8115V18.4313Z" fill="#FFEFD3"/>
<path d="M26.8115 17.5587H25.939V18.4312H26.8115V17.5587Z" fill="black"/>
<path d="M26.8115 16.6775H25.939V17.5588H26.8115V16.6775Z" fill="#AD17AD"/>
<path d="M26.8115 15.7963H25.939V16.6775H26.8115V15.7963Z" fill="#AD17AD"/>
<path d="M26.8115 14.9238H25.939V15.7963H26.8115V14.9238Z" fill="#8A0391"/>
<path d="M26.8115 14.0425H25.939V14.9238H26.8115V14.0425Z" fill="#AD17AD"/>
<path d="M26.8115 13.17H25.939V14.0425H26.8115V13.17Z" fill="#AD17AD"/>
<path d="M26.8115 12.2875H25.939V13.1688H26.8115V12.2875Z" fill="#AD17AD"/>
<path d="M26.8115 11.4163H25.939V12.2888H26.8115V11.4163Z" fill="black"/>
<path d="M25.9389 39.495H25.0576V40.3675H25.9389V39.495Z" fill="black"/>
<path d="M25.9389 38.6138H25.0576V39.495H25.9389V38.6138Z" fill="#3C4360"/>
<path d="M25.9389 37.7413H25.0576V38.6138H25.9389V37.7413Z" fill="#3C4360"/>
<path d="M25.9389 36.86H25.0576V37.7413H25.9389V36.86Z" fill="#3C4360"/>
<path d="M25.9389 35.9788H25.0576V36.8588H25.9389V35.9788Z" fill="black"/>
<path d="M25.9389 35.105H25.0576V35.9788H25.9389V35.105Z" fill="#3C4360"/>
<path d="M25.9389 34.225H25.0576V35.105H25.9389V34.225Z" fill="#570459"/>
<path d="M25.9389 33.3525H25.0576V34.225H25.9389V33.3525Z" fill="#8A0391"/>
<path d="M25.9389 32.47H25.0576V33.3512H25.9389V32.47Z" fill="#AD17AD"/>
<path d="M25.9389 31.5988H25.0576V32.4713H25.9389V31.5988Z" fill="#570459"/>
<path d="M25.9389 30.7162H25.0576V31.5975H25.9389V30.7162Z" fill="#570459"/>
<path d="M25.9389 29.8363H25.0576V30.7163H25.9389V29.8363Z" fill="#AD17AD"/>
<path d="M25.9389 28.9625H25.0576V29.835H25.9389V28.9625Z" fill="#AD17AD"/>
<path d="M25.9389 28.0813H25.0576V28.9625H25.9389V28.0813Z" fill="#500256"/>
<path d="M25.9389 27.2088H25.0576V28.0813H25.9389V27.2088Z" fill="#500256"/>
<path d="M25.9389 26.3275H25.0576V27.2088H25.9389V26.3275Z" fill="#500256"/>
<path d="M25.9389 25.455H25.0576V26.3275H25.9389V25.455Z" fill="#500256"/>
<path d="M25.9389 24.5738H25.0576V25.455H25.9389V24.5738Z" fill="#500256"/>
<path d="M25.9389 23.7013H25.0576V24.5738H25.9389V23.7013Z" fill="#500256"/>
<path d="M25.9389 22.82H25.0576V23.7013H25.9389V22.82Z" fill="black"/>
<path d="M25.9389 21.9388H25.0576V22.82H25.9389V21.9388Z" fill="#500256"/>
<path d="M25.9389 21.0663H25.0576V21.9388H25.9389V21.0663Z" fill="black"/>
<path d="M25.9389 20.185H25.0576V21.0662H25.9389V20.185Z" fill="#FFEFD3"/>
<path d="M25.9389 19.3125H25.0576V20.185H25.9389V19.3125Z" fill="#FFEFD3"/>
<path d="M25.9389 18.4313H25.0576V19.3125H25.9389V18.4313Z" fill="#FFEFD3"/>
<path d="M25.9389 17.5587H25.0576V18.4312H25.9389V17.5587Z" fill="black"/>
<path d="M25.9389 16.6775H25.0576V17.5588H25.9389V16.6775Z" fill="#AD17AD"/>
<path d="M25.9389 15.7963H25.0576V16.6775H25.9389V15.7963Z" fill="#AD17AD"/>
<path d="M25.9389 14.9238H25.0576V15.7963H25.9389V14.9238Z" fill="#8A0391"/>
<path d="M25.9389 14.0425H25.0576V14.9238H25.9389V14.0425Z" fill="#AD17AD"/>
<path d="M25.9389 13.17H25.0576V14.0425H25.9389V13.17Z" fill="#AD17AD"/>
<path d="M25.9389 12.2875H25.0576V13.1688H25.9389V12.2875Z" fill="black"/>
<path d="M25.0575 39.495H24.1763V40.3675H25.0575V39.495Z" fill="black"/>
<path d="M25.0575 38.6138H24.1763V39.495H25.0575V38.6138Z" fill="#3C4360"/>
<path d="M25.0575 37.7413H24.1763V38.6138H25.0575V37.7413Z" fill="black"/>
<path d="M25.0575 36.86H24.1763V37.7413H25.0575V36.86Z" fill="black"/>
<path d="M25.0575 35.9788H24.1763V36.8588H25.0575V35.9788Z" fill="black"/>
<path d="M25.0575 35.105H24.1763V35.9788H25.0575V35.105Z" fill="#3C4360"/>
<path d="M25.0575 34.225H24.1763V35.105H25.0575V34.225Z" fill="#570459"/>
<path d="M25.0575 33.3525H24.1763V34.225H25.0575V33.3525Z" fill="#8A0391"/>
<path d="M25.0575 32.47H24.1763V33.3512H25.0575V32.47Z" fill="#AD17AD"/>
<path d="M25.0575 31.5988H24.1763V32.4713H25.0575V31.5988Z" fill="#AD17AD"/>
<path d="M25.0575 30.7162H24.1763V31.5975H25.0575V30.7162Z" fill="#AD17AD"/>
<path d="M25.0575 29.8363H24.1763V30.7163H25.0575V29.8363Z" fill="#AD17AD"/>
<path d="M25.0575 28.9625H24.1763V29.835H25.0575V28.9625Z" fill="#AD17AD"/>
<path d="M25.0575 28.0813H24.1763V28.9625H25.0575V28.0813Z" fill="#500256"/>
<path d="M25.0575 27.2088H24.1763V28.0813H25.0575V27.2088Z" fill="#500256"/>
<path d="M25.0575 26.3275H24.1763V27.2088H25.0575V26.3275Z" fill="#500256"/>
<path d="M25.0575 25.455H24.1763V26.3275H25.0575V25.455Z" fill="#500256"/>
<path d="M25.0575 24.5738H24.1763V25.455H25.0575V24.5738Z" fill="#500256"/>
<path d="M25.0575 23.7013H24.1763V24.5738H25.0575V23.7013Z" fill="#500256"/>
<path d="M25.0575 22.82H24.1763V23.7013H25.0575V22.82Z" fill="#500256"/>
<path d="M25.0575 21.9388H24.1763V22.82H25.0575V21.9388Z" fill="black"/>
<path d="M25.0575 21.0663H24.1763V21.9388H25.0575V21.0663Z" fill="black"/>
<path d="M25.0575 20.185H24.1763V21.0662H25.0575V20.185Z" fill="black"/>
<path d="M25.0575 19.3125H24.1763V20.185H25.0575V19.3125Z" fill="black"/>
<path d="M25.0575 18.4313H24.1763V19.3125H25.0575V18.4313Z" fill="black"/>
<path d="M25.0575 17.5587H24.1763V18.4312H25.0575V17.5587Z" fill="black"/>
<path d="M25.0575 16.6775H24.1763V17.5588H25.0575V16.6775Z" fill="#AD17AD"/>
<path d="M25.0575 15.7963H24.1763V16.6775H25.0575V15.7963Z" fill="#AD17AD"/>
<path d="M25.0575 14.9238H24.1763V15.7963H25.0575V14.9238Z" fill="#8A0391"/>
<path d="M25.0575 14.0425H24.1763V14.9238H25.0575V14.0425Z" fill="#AD17AD"/>
<path d="M25.0575 13.17H24.1763V14.0425H25.0575V13.17Z" fill="black"/>
<path d="M24.1762 39.495H23.3037V40.3675H24.1762V39.495Z" fill="black"/>
<path d="M24.1762 38.6138H23.3037V39.495H24.1762V38.6138Z" fill="black"/>
<path d="M24.1762 35.105H23.3037V35.9788H24.1762V35.105Z" fill="black"/>
<path d="M24.1762 34.225H23.3037V35.105H24.1762V34.225Z" fill="black"/>
<path d="M24.1762 33.3525H23.3037V34.225H24.1762V33.3525Z" fill="#8A0391"/>
<path d="M24.1762 32.47H23.3037V33.3512H24.1762V32.47Z" fill="#AD17AD"/>
<path d="M24.1762 31.5988H23.3037V32.4713H24.1762V31.5988Z" fill="#AD17AD"/>
<path d="M24.1762 30.7162H23.3037V31.5975H24.1762V30.7162Z" fill="#AD17AD"/>
<path d="M24.1762 29.8363H23.3037V30.7163H24.1762V29.8363Z" fill="#AD17AD"/>
<path d="M24.1762 28.9625H23.3037V29.835H24.1762V28.9625Z" fill="#AD17AD"/>
<path d="M24.1762 28.0813H23.3037V28.9625H24.1762V28.0813Z" fill="black"/>
<path d="M24.1762 27.2088H23.3037V28.0813H24.1762V27.2088Z" fill="black"/>
<path d="M24.1762 26.3275H23.3037V27.2088H24.1762V26.3275Z" fill="black"/>
<path d="M24.1762 25.455H23.3037V26.3275H24.1762V25.455Z" fill="black"/>
<path d="M24.1762 24.5738H23.3037V25.455H24.1762V24.5738Z" fill="black"/>
<path d="M24.1762 23.7013H23.3037V24.5738H24.1762V23.7013Z" fill="black"/>
<path d="M24.1762 22.82H23.3037V23.7013H24.1762V22.82Z" fill="black"/>
<path d="M24.1762 21.9388H23.3037V22.82H24.1762V21.9388Z" fill="black"/>
<path d="M24.1762 17.5587H23.3037V18.4312H24.1762V17.5587Z" fill="black"/>
<path d="M24.1762 16.6775H23.3037V17.5588H24.1762V16.6775Z" fill="#AD17AD"/>
<path d="M24.1762 15.7963H23.3037V16.6775H24.1762V15.7963Z" fill="#AD17AD"/>
<path d="M24.1762 14.9238H23.3037V15.7963H24.1762V14.9238Z" fill="#8A0391"/>
<path d="M24.1762 14.0425H23.3037V14.9238H24.1762V14.0425Z" fill="black"/>
<path d="M23.3036 33.3525H22.4224V34.225H23.3036V33.3525Z" fill="black"/>
<path d="M23.3036 32.47H22.4224V33.3512H23.3036V32.47Z" fill="black"/>
<path d="M23.3036 31.5988H22.4224V32.4713H23.3036V31.5988Z" fill="black"/>
<path d="M23.3036 30.7162H22.4224V31.5975H23.3036V30.7162Z" fill="black"/>
<path d="M23.3036 29.8363H22.4224V30.7163H23.3036V29.8363Z" fill="black"/>
<path d="M23.3036 28.9625H22.4224V29.835H23.3036V28.9625Z" fill="black"/>
<path d="M23.3036 26.3275H22.4224V27.2088H23.3036V26.3275Z" fill="black"/>
<path d="M23.3036 25.455H22.4224V26.3275H23.3036V25.455Z" fill="#8A0391"/>
<path d="M23.3036 24.5738H22.4224V25.455H23.3036V24.5738Z" fill="#8A0391"/>
<path d="M23.3036 23.7013H22.4224V24.5738H23.3036V23.7013Z" fill="#8A0391"/>
<path d="M23.3036 22.82H22.4224V23.7013H23.3036V22.82Z" fill="black"/>
<path d="M23.3036 17.5587H22.4224V18.4312H23.3036V17.5587Z" fill="black"/>
<path d="M23.3036 16.6775H22.4224V17.5588H23.3036V16.6775Z" fill="#AD17AD"/>
<path d="M23.3036 15.7963H22.4224V16.6775H23.3036V15.7963Z" fill="#AD17AD"/>
<path d="M23.3036 14.9238H22.4224V15.7963H23.3036V14.9238Z" fill="black"/>
<path d="M22.4228 27.2088H21.5503V28.0813H22.4228V27.2088Z" fill="black"/>
<path d="M22.4228 26.3275H21.5503V27.2088H22.4228V26.3275Z" fill="#8A0391"/>
<path d="M22.4228 25.455H21.5503V26.3275H22.4228V25.455Z" fill="#8A0391"/>
<path d="M22.4228 24.5738H21.5503V25.455H22.4228V24.5738Z" fill="#8A0391"/>
<path d="M22.4228 23.7013H21.5503V24.5738H22.4228V23.7013Z" fill="black"/>
<path d="M22.4228 16.6775H21.5503V17.5588H22.4228V16.6775Z" fill="black"/>
<path d="M22.4228 15.7963H21.5503V16.6775H22.4228V15.7963Z" fill="black"/>
<path d="M21.5502 35.9788H20.6689V36.8588H21.5502V35.9788Z" fill="black"/>
<path d="M21.5502 35.105H20.6689V35.9788H21.5502V35.105Z" fill="black"/>
<path d="M21.5502 27.2088H20.6689V28.0813H21.5502V27.2088Z" fill="black"/>
<path d="M21.5502 26.3275H20.6689V27.2088H21.5502V26.3275Z" fill="#8A0391"/>
<path d="M21.5502 25.455H20.6689V26.3275H21.5502V25.455Z" fill="#8A0391"/>
<path d="M21.5502 24.5738H20.6689V25.455H21.5502V24.5738Z" fill="black"/>
<path d="M21.5502 14.0425H20.6689V14.9238H21.5502V14.0425Z" fill="black"/>
<path d="M21.5502 13.17H20.6689V14.0425H21.5502V13.17Z" fill="black"/>
<path d="M20.6689 36.86H19.7964V37.7413H20.6689V36.86Z" fill="black"/>
<path d="M20.6689 35.9788H19.7964V36.8588H20.6689V35.9788Z" fill="#B8602D"/>
<path d="M20.6689 35.105H19.7964V35.9788H20.6689V35.105Z" fill="#FFEFD3"/>
<path d="M20.6689 34.225H19.7964V35.105H20.6689V34.225Z" fill="#FFEFD3"/>
<path d="M20.6689 33.3525H19.7964V34.225H20.6689V33.3525Z" fill="#FFEFD3"/>
<path d="M20.6689 32.47H19.7964V33.3512H20.6689V32.47Z" fill="#FFEFD3"/>
<path d="M20.6689 31.5988H19.7964V32.4713H20.6689V31.5988Z" fill="#FFEFD3"/>
<path d="M20.6689 30.7162H19.7964V31.5975H20.6689V30.7162Z" fill="#FFEFD3"/>
<path d="M20.6689 29.8363H19.7964V30.7163H20.6689V29.8363Z" fill="#FFEFD3"/>
<path d="M20.6689 28.9625H19.7964V29.835H20.6689V28.9625Z" fill="#FFEFD3"/>
<path d="M20.6689 28.0813H19.7964V28.9625H20.6689V28.0813Z" fill="#FFEFD3"/>
<path d="M20.6689 27.2088H19.7964V28.0813H20.6689V27.2088Z" fill="#FFEFD3"/>
<path d="M20.6689 26.3275H19.7964V27.2088H20.6689V26.3275Z" fill="#FFEFD3"/>
<path d="M20.6689 25.455H19.7964V26.3275H20.6689V25.455Z" fill="#FFEFD3"/>
<path d="M20.6689 24.5738H19.7964V25.455H20.6689V24.5738Z" fill="#FFEFD3"/>
<path d="M20.6689 23.7013H19.7964V24.5738H20.6689V23.7013Z" fill="#FFEFD3"/>
<path d="M20.6689 22.82H19.7964V23.7013H20.6689V22.82Z" fill="#FFEFD3"/>
<path d="M20.6689 21.9388H19.7964V22.82H20.6689V21.9388Z" fill="#FFEFD3"/>
<path d="M20.6689 21.0663H19.7964V21.9388H20.6689V21.0663Z" fill="#FFEFD3"/>
<path d="M20.6689 20.185H19.7964V21.0662H20.6689V20.185Z" fill="#FFEFD3"/>
<path d="M20.6689 19.3125H19.7964V20.185H20.6689V19.3125Z" fill="#FFEFD3"/>
<path d="M20.6689 18.4313H19.7964V19.3125H20.6689V18.4313Z" fill="#FFEFD3"/>
<path d="M20.6689 17.5587H19.7964V18.4312H20.6689V17.5587Z" fill="#FFEFD3"/>
<path d="M20.6689 16.6775H19.7964V17.5588H20.6689V16.6775Z" fill="#FFEFD3"/>
<path d="M20.6689 15.7963H19.7964V16.6775H20.6689V15.7963Z" fill="#FFEFD3"/>
<path d="M20.6689 14.9238H19.7964V15.7963H20.6689V14.9238Z" fill="#FFEFD3"/>
<path d="M20.6689 14.0425H19.7964V14.9238H20.6689V14.0425Z" fill="#FFEFD3"/>
<path d="M20.6689 13.17H19.7964V14.0425H20.6689V13.17Z" fill="#B8602D"/>
<path d="M20.6689 12.2875H19.7964V13.1688H20.6689V12.2875Z" fill="black"/>
<path d="M19.7963 35.9788H18.915V36.8588H19.7963V35.9788Z" fill="black"/>
<path d="M19.7963 35.105H18.915V35.9788H19.7963V35.105Z" fill="black"/>
<path d="M19.7963 34.225H18.915V35.105H19.7963V34.225Z" fill="#B8602D"/>
<path d="M19.7963 33.3525H18.915V34.225H19.7963V33.3525Z" fill="#B8602D"/>
<path d="M19.7963 32.47H18.915V33.3512H19.7963V32.47Z" fill="black"/>
<path d="M19.7963 27.2088H18.915V28.0813H19.7963V27.2088Z" fill="black"/>
<path d="M19.7963 26.3275H18.915V27.2088H19.7963V26.3275Z" fill="#8A0391"/>
<path d="M19.7963 25.455H18.915V26.3275H19.7963V25.455Z" fill="#8A0391"/>
<path d="M19.7963 24.5738H18.915V25.455H19.7963V24.5738Z" fill="black"/>
<path d="M19.7963 16.6775H18.915V17.5588H19.7963V16.6775Z" fill="black"/>
<path d="M19.7963 15.7963H18.915V16.6775H19.7963V15.7963Z" fill="#B8602D"/>
<path d="M19.7963 14.9238H18.915V15.7963H19.7963V14.9238Z" fill="#B8602D"/>
<path d="M19.7963 14.0425H18.915V14.9238H19.7963V14.0425Z" fill="black"/>
<path d="M19.7963 13.17H18.915V14.0425H19.7963V13.17Z" fill="black"/>
<path d="M18.9149 34.225H18.0337V35.105H18.9149V34.225Z" fill="black"/>
<path d="M18.9149 33.3525H18.0337V34.225H18.9149V33.3525Z" fill="#B8602D"/>
<path d="M18.9149 32.47H18.0337V33.3512H18.9149V32.47Z" fill="#B8602D"/>
<path d="M18.9149 31.5988H18.0337V32.4713H18.9149V31.5988Z" fill="black"/>
<path d="M18.9149 27.2088H18.0337V28.0813H18.9149V27.2088Z" fill="black"/>
<path d="M18.9149 26.3275H18.0337V27.2088H18.9149V26.3275Z" fill="#873810"/>
<path d="M18.9149 25.455H18.0337V26.3275H18.9149V25.455Z" fill="black"/>
<path d="M18.9149 24.5738H18.0337V25.455H18.9149V24.5738Z" fill="#873810"/>
<path d="M18.9149 17.5587H18.0337V18.4312H18.9149V17.5587Z" fill="black"/>
<path d="M18.9149 16.6775H18.0337V17.5588H18.9149V16.6775Z" fill="#B8602D"/>
<path d="M18.9149 15.7963H18.0337V16.6775H18.9149V15.7963Z" fill="#B8602D"/>
<path d="M18.9149 14.9238H18.0337V15.7963H18.9149V14.9238Z" fill="black"/>
<path d="M18.0336 33.3525H17.1611V34.225H18.0336V33.3525Z" fill="black"/>
<path d="M18.0336 32.47H17.1611V33.3512H18.0336V32.47Z" fill="#B8602D"/>
<path d="M18.0336 31.5988H17.1611V32.4713H18.0336V31.5988Z" fill="#B8602D"/>
<path d="M18.0336 30.7162H17.1611V31.5975H18.0336V30.7162Z" fill="black"/>
<path d="M18.0336 29.8363H17.1611V30.7163H18.0336V29.8363Z" fill="black"/>
<path d="M18.0336 27.2088H17.1611V28.0813H18.0336V27.2088Z" fill="black"/>
<path d="M18.0336 26.3275H17.1611V27.2088H18.0336V26.3275Z" fill="#873810"/>
<path d="M18.0336 25.455H17.1611V26.3275H18.0336V25.455Z" fill="#F49364"/>
<path d="M18.0336 24.5738H17.1611V25.455H18.0336V24.5738Z" fill="black"/>
<path d="M18.0336 19.3125H17.1611V20.185H18.0336V19.3125Z" fill="black"/>
<path d="M18.0336 18.4313H17.1611V19.3125H18.0336V18.4313Z" fill="black"/>
<path d="M18.0336 17.5587H17.1611V18.4312H18.0336V17.5587Z" fill="#B8602D"/>
<path d="M18.0336 16.6775H17.1611V17.5588H18.0336V16.6775Z" fill="#B8602D"/>
<path d="M18.0336 15.7963H17.1611V16.6775H18.0336V15.7963Z" fill="black"/>
<path d="M17.1615 32.47H16.2803V33.3512H17.1615V32.47Z" fill="black"/>
<path d="M17.1615 31.5988H16.2803V32.4713H17.1615V31.5988Z" fill="#B8602D"/>
<path d="M17.1615 30.7162H16.2803V31.5975H17.1615V30.7162Z" fill="#B8602D"/>
<path d="M17.1615 29.8363H16.2803V30.7163H17.1615V29.8363Z" fill="#B8602D"/>
<path d="M17.1615 28.9625H16.2803V29.835H17.1615V28.9625Z" fill="black"/>
<path d="M17.1615 28.0813H16.2803V28.9625H17.1615V28.0813Z" fill="black"/>
<path d="M17.1615 27.2088H16.2803V28.0813H17.1615V27.2088Z" fill="black"/>
<path d="M17.1615 26.3275H16.2803V27.2088H17.1615V26.3275Z" fill="black"/>
<path d="M17.1615 25.455H16.2803V26.3275H17.1615V25.455Z" fill="#873810"/>
<path d="M17.1615 24.5738H16.2803V25.455H17.1615V24.5738Z" fill="#F49364"/>
<path d="M17.1615 23.7013H16.2803V24.5738H17.1615V23.7013Z" fill="black"/>
<path d="M17.1615 22.82H16.2803V23.7013H17.1615V22.82Z" fill="black"/>
<path d="M17.1615 21.9388H16.2803V22.82H17.1615V21.9388Z" fill="black"/>
<path d="M17.1615 21.0663H16.2803V21.9388H17.1615V21.0663Z" fill="black"/>
<path d="M17.1615 20.185H16.2803V21.0662H17.1615V20.185Z" fill="black"/>
<path d="M17.1615 19.3125H16.2803V20.185H17.1615V19.3125Z" fill="#B8602D"/>
<path d="M17.1615 18.4313H16.2803V19.3125H17.1615V18.4313Z" fill="#B8602D"/>
<path d="M17.1615 17.5587H16.2803V18.4312H17.1615V17.5587Z" fill="#B8602D"/>
<path d="M17.1615 16.6775H16.2803V17.5588H17.1615V16.6775Z" fill="black"/>
<path d="M16.2802 31.5988H15.4077V32.4713H16.2802V31.5988Z" fill="black"/>
<path d="M16.2802 30.7162H15.4077V31.5975H16.2802V30.7162Z" fill="black"/>
<path d="M16.2802 29.8363H15.4077V30.7163H16.2802V29.8363Z" fill="#B8602D"/>
<path d="M16.2802 28.9625H15.4077V29.835H16.2802V28.9625Z" fill="#B8602D"/>
<path d="M16.2802 28.0813H15.4077V28.9625H16.2802V28.0813Z" fill="#B8602D"/>
<path d="M16.2802 27.2088H15.4077V28.0813H16.2802V27.2088Z" fill="#B8602D"/>
<path d="M16.2802 26.3275H15.4077V27.2088H16.2802V26.3275Z" fill="#B8602D"/>
<path d="M16.2802 25.455H15.4077V26.3275H16.2802V25.455Z" fill="#873810"/>
<path d="M16.2802 24.5738H15.4077V25.455H16.2802V24.5738Z" fill="#873810"/>
<path d="M16.2802 23.7013H15.4077V24.5738H16.2802V23.7013Z" fill="#B8602D"/>
<path d="M16.2802 22.82H15.4077V23.7013H16.2802V22.82Z" fill="#B8602D"/>
<path d="M16.2802 21.9388H15.4077V22.82H16.2802V21.9388Z" fill="#B8602D"/>
<path d="M16.2802 21.0663H15.4077V21.9388H16.2802V21.0663Z" fill="#B8602D"/>
<path d="M16.2802 20.185H15.4077V21.0662H16.2802V20.185Z" fill="#B8602D"/>
<path d="M16.2802 19.3125H15.4077V20.185H16.2802V19.3125Z" fill="#B8602D"/>
<path d="M16.2802 18.4313H15.4077V19.3125H16.2802V18.4313Z" fill="black"/>
<path d="M16.2802 17.5587H15.4077V18.4312H16.2802V17.5587Z" fill="black"/>
<path d="M15.4076 29.8363H14.5264V30.7163H15.4076V29.8363Z" fill="black"/>
<path d="M15.4076 28.9625H14.5264V29.835H15.4076V28.9625Z" fill="black"/>
<path d="M15.4076 28.0813H14.5264V28.9625H15.4076V28.0813Z" fill="black"/>
<path d="M15.4076 27.2088H14.5264V28.0813H15.4076V27.2088Z" fill="black"/>
<path d="M15.4076 26.3275H14.5264V27.2088H15.4076V26.3275Z" fill="#F49364"/>
<path d="M15.4076 25.455H14.5264V26.3275H15.4076V25.455Z" fill="#F49364"/>
<path d="M15.4076 24.5738H14.5264V25.455H15.4076V24.5738Z" fill="#F49364"/>
<path d="M15.4076 23.7013H14.5264V24.5738H15.4076V23.7013Z" fill="black"/>
<path d="M15.4076 22.82H14.5264V23.7013H15.4076V22.82Z" fill="black"/>
<path d="M15.4076 21.9388H14.5264V22.82H15.4076V21.9388Z" fill="black"/>
<path d="M15.4076 21.0663H14.5264V21.9388H15.4076V21.0663Z" fill="black"/>
<path d="M15.4076 20.185H14.5264V21.0662H15.4076V20.185Z" fill="black"/>
<path d="M15.4076 19.3125H14.5264V20.185H15.4076V19.3125Z" fill="black"/>
<path d="M14.5263 26.3275H13.6538V27.2088H14.5263V26.3275Z" fill="black"/>
<path d="M14.5263 25.455H13.6538V26.3275H14.5263V25.455Z" fill="black"/>
<path d="M14.5263 24.5738H13.6538V25.455H14.5263V24.5738Z" fill="black"/>
</g>
<defs>
<clipPath id="clip0_69_12151">
<rect width="50" height="50" fill="white"/>
</clipPath>
</defs>
</svg>
