<svg width="50" height="50" viewBox="0 0 50 50" fill="none" xmlns="http://www.w3.org/2000/svg">
<g clip-path="url(#clip0_69_12152)">
<path d="M48.2223 25C48.2223 37.825 37.8248 48.2225 24.9998 48.2225C12.1748 48.2225 1.77734 37.825 1.77734 25C1.77734 12.175 12.1736 1.7775 24.9998 1.7775C37.8261 1.7775 48.2223 12.175 48.2223 25Z" fill="black"/>
<path d="M24.9998 48.2225C37.8253 48.2225 48.2223 37.8254 48.2223 25C48.2223 12.1746 37.8253 1.7775 24.9998 1.7775C12.1744 1.7775 1.77734 12.1746 1.77734 25C1.77734 37.8254 12.1744 48.2225 24.9998 48.2225Z" stroke="#626CA0" stroke-width="2" stroke-miterlimit="10"/>
<path d="M43.6338 30.2712H42.77V31.1275H43.6338V30.2712Z" fill="black"/>
<path d="M42.7713 31.1263H41.915V31.99H42.7713V31.1263Z" fill="black"/>
<path d="M42.7713 30.2712H41.915V31.1275H42.7713V30.2712Z" fill="#1E2A3F"/>
<path d="M42.7713 29.4062H41.915V30.27H42.7713V29.4062Z" fill="black"/>
<path d="M41.9136 31.9912H41.0498V32.8475H41.9136V31.9912Z" fill="black"/>
<path d="M41.9136 31.1263H41.0498V31.99H41.9136V31.1263Z" fill="#2F384C"/>
<path d="M41.9136 30.2712H41.0498V31.1275H41.9136V30.2712Z" fill="#1E2A3F"/>
<path d="M41.9136 29.4062H41.0498V30.27H41.9136V29.4062Z" fill="#1E2A3F"/>
<path d="M41.9136 28.5438H41.0498V29.4075H41.9136V28.5438Z" fill="black"/>
<path d="M41.0511 31.1263H40.1948V31.99H41.0511V31.1263Z" fill="black"/>
<path d="M41.0511 30.2712H40.1948V31.1275H41.0511V30.2712Z" fill="#2F384C"/>
<path d="M41.0511 29.4062H40.1948V30.27H41.0511V29.4062Z" fill="black"/>
<path d="M40.1938 32.8463H39.3301V33.71H40.1938V32.8463Z" fill="black"/>
<path d="M40.1938 31.9912H39.3301V32.8475H40.1938V31.9912Z" fill="black"/>
<path d="M40.1938 31.1263H39.3301V31.99H40.1938V31.1263Z" fill="#2F384C"/>
<path d="M40.1938 30.2712H39.3301V31.1275H40.1938V30.2712Z" fill="#2F384C"/>
<path d="M40.1938 29.4062H39.3301V30.27H40.1938V29.4062Z" fill="#1E2A3F"/>
<path d="M40.1938 28.5438H39.3301V29.4075H40.1938V28.5438Z" fill="black"/>
<path d="M40.1938 27.6888H39.3301V28.545H40.1938V27.6888Z" fill="black"/>
<path d="M39.3323 33.7112H38.4761V34.5675H39.3323V33.7112Z" fill="black"/>
<path d="M39.3323 32.8463H38.4761V33.71H39.3323V32.8463Z" fill="#2F384C"/>
<path d="M39.3323 31.9912H38.4761V32.8475H39.3323V31.9912Z" fill="#2F384C"/>
<path d="M39.3323 31.1263H38.4761V31.99H39.3323V31.1263Z" fill="#2F384C"/>
<path d="M39.3323 30.2712H38.4761V31.1275H39.3323V30.2712Z" fill="#2F384C"/>
<path d="M39.3323 29.4062H38.4761V30.27H39.3323V29.4062Z" fill="#2F384C"/>
<path d="M39.3323 28.5438H38.4761V29.4075H39.3323V28.5438Z" fill="#1E2A3F"/>
<path d="M39.3323 27.6888H38.4761V28.545H39.3323V27.6888Z" fill="#1E2A3F"/>
<path d="M39.3323 26.8238H38.4761V27.6875H39.3323V26.8238Z" fill="black"/>
<path d="M38.4761 32.8463H37.6123V33.71H38.4761V32.8463Z" fill="black"/>
<path d="M38.4761 31.9912H37.6123V32.8475H38.4761V31.9912Z" fill="black"/>
<path d="M38.4761 31.1263H37.6123V31.99H38.4761V31.1263Z" fill="black"/>
<path d="M38.4761 30.2712H37.6123V31.1275H38.4761V30.2712Z" fill="#2F384C"/>
<path d="M38.4761 29.4062H37.6123V30.27H38.4761V29.4062Z" fill="black"/>
<path d="M38.4761 28.5438H37.6123V29.4075H38.4761V28.5438Z" fill="black"/>
<path d="M38.4761 27.6888H37.6123V28.545H38.4761V27.6888Z" fill="black"/>
<path d="M37.6126 31.1263H36.7563V31.99H37.6126V31.1263Z" fill="black"/>
<path d="M37.6126 30.2712H36.7563V31.1275H37.6126V30.2712Z" fill="#2F384C"/>
<path d="M37.6126 29.4062H36.7563V30.27H37.6126V29.4062Z" fill="black"/>
<path d="M36.7563 31.1263H35.8926V31.99H36.7563V31.1263Z" fill="black"/>
<path d="M36.7563 30.2712H35.8926V31.1275H36.7563V30.2712Z" fill="#2F384C"/>
<path d="M36.7563 29.4062H35.8926V30.27H36.7563V29.4062Z" fill="black"/>
<path d="M36.7563 22.53H35.8926V23.3862H36.7563V22.53Z" fill="black"/>
<path d="M35.8911 31.1263H35.0273V31.99H35.8911V31.1263Z" fill="black"/>
<path d="M35.8911 30.2712H35.0273V31.1275H35.8911V30.2712Z" fill="#2F384C"/>
<path d="M35.8911 29.4062H35.0273V30.27H35.8911V29.4062Z" fill="black"/>
<path d="M35.8911 23.3863H35.0273V24.25H35.8911V23.3863Z" fill="black"/>
<path d="M35.8911 22.53H35.0273V23.3862H35.8911V22.53Z" fill="#B25212"/>
<path d="M35.8911 21.6663H35.0273V22.53H35.8911V21.6663Z" fill="black"/>
<path d="M35.8911 20.8012H35.0273V21.665H35.8911V20.8012Z" fill="black"/>
<path d="M35.8911 19.9463H35.0273V20.8025H35.8911V19.9463Z" fill="black"/>
<path d="M35.0301 31.1263H34.1738V31.99H35.0301V31.1263Z" fill="black"/>
<path d="M35.0301 30.2712H34.1738V31.1275H35.0301V30.2712Z" fill="#2F384C"/>
<path d="M35.0301 29.4062H34.1738V30.27H35.0301V29.4062Z" fill="black"/>
<path d="M35.0301 27.6888H34.1738V28.545H35.0301V27.6888Z" fill="black"/>
<path d="M35.0301 26.8238H34.1738V27.6875H35.0301V26.8238Z" fill="black"/>
<path d="M35.0301 25.9688H34.1738V26.825H35.0301V25.9688Z" fill="black"/>
<path d="M35.0301 25.1038H34.1738V25.9675H35.0301V25.1038Z" fill="black"/>
<path d="M35.0301 23.3863H34.1738V24.25H35.0301V23.3863Z" fill="black"/>
<path d="M35.0301 22.53H34.1738V23.3862H35.0301V22.53Z" fill="#B25212"/>
<path d="M35.0301 21.6663H34.1738V22.53H35.0301V21.6663Z" fill="black"/>
<path d="M35.0301 20.8012H34.1738V21.665H35.0301V20.8012Z" fill="#404E89"/>
<path d="M35.0301 19.9463H34.1738V20.8025H35.0301V19.9463Z" fill="#404E89"/>
<path d="M35.0301 19.0837H34.1738V19.9475H35.0301V19.0837Z" fill="black"/>
<path d="M35.0301 18.2275H34.1738V19.0838H35.0301V18.2275Z" fill="black"/>
<path d="M34.1738 31.1263H33.3101V31.99H34.1738V31.1263Z" fill="black"/>
<path d="M34.1738 30.2712H33.3101V31.1275H34.1738V30.2712Z" fill="black"/>
<path d="M34.1738 29.4062H33.3101V30.27H34.1738V29.4062Z" fill="black"/>
<path d="M34.1738 28.5438H33.3101V29.4075H34.1738V28.5438Z" fill="black"/>
<path d="M34.1738 27.6888H33.3101V28.545H34.1738V27.6888Z" fill="#B25212"/>
<path d="M34.1738 26.8238H33.3101V27.6875H34.1738V26.8238Z" fill="#C1811B"/>
<path d="M34.1738 25.9688H33.3101V26.825H34.1738V25.9688Z" fill="black"/>
<path d="M34.1738 25.1038H33.3101V25.9675H34.1738V25.1038Z" fill="#626CA0"/>
<path d="M34.1738 24.25H33.3101V25.1063H34.1738V24.25Z" fill="black"/>
<path d="M34.1738 23.3863H33.3101V24.25H34.1738V23.3863Z" fill="#B25212"/>
<path d="M34.1738 22.53H33.3101V23.3862H34.1738V22.53Z" fill="#C1811B"/>
<path d="M34.1738 21.6663H33.3101V22.53H34.1738V21.6663Z" fill="black"/>
<path d="M34.1738 20.8012H33.3101V21.665H34.1738V20.8012Z" fill="#404E89"/>
<path d="M34.1738 19.9463H33.3101V20.8025H34.1738V19.9463Z" fill="#626CA0"/>
<path d="M34.1738 19.0837H33.3101V19.9475H34.1738V19.0837Z" fill="#626CA0"/>
<path d="M34.1738 18.2275H33.3101V19.0838H34.1738V18.2275Z" fill="#5364AD"/>
<path d="M34.1738 17.3637H33.3101V18.2275H34.1738V17.3637Z" fill="black"/>
<path d="M34.1738 16.5075H33.3101V17.3638H34.1738V16.5075Z" fill="black"/>
<path d="M34.1738 15.6437H33.3101V16.5075H34.1738V15.6437Z" fill="black"/>
<path d="M34.1738 14.78H33.3101V15.6437H34.1738V14.78Z" fill="black"/>
<path d="M33.3099 31.1263H32.4536V31.99H33.3099V31.1263Z" fill="black"/>
<path d="M33.3099 30.2712H32.4536V31.1275H33.3099V30.2712Z" fill="#B25212"/>
<path d="M33.3099 29.4062H32.4536V30.27H33.3099V29.4062Z" fill="black"/>
<path d="M33.3099 28.5438H32.4536V29.4075H33.3099V28.5438Z" fill="#C1811B"/>
<path d="M33.3099 27.6888H32.4536V28.545H33.3099V27.6888Z" fill="#B25212"/>
<path d="M33.3099 26.8238H32.4536V27.6875H33.3099V26.8238Z" fill="#C1811B"/>
<path d="M33.3099 25.9688H32.4536V26.825H33.3099V25.9688Z" fill="black"/>
<path d="M33.3099 25.1038H32.4536V25.9675H33.3099V25.1038Z" fill="#626CA0"/>
<path d="M33.3099 24.25H32.4536V25.1063H33.3099V24.25Z" fill="black"/>
<path d="M33.3099 23.3863H32.4536V24.25H33.3099V23.3863Z" fill="#B25212"/>
<path d="M33.3099 22.53H32.4536V23.3862H33.3099V22.53Z" fill="#DBAB65"/>
<path d="M33.3099 21.6663H32.4536V22.53H33.3099V21.6663Z" fill="#626CA0"/>
<path d="M33.3099 20.8012H32.4536V21.665H33.3099V20.8012Z" fill="#626CA0"/>
<path d="M33.3099 19.9463H32.4536V20.8025H33.3099V19.9463Z" fill="#626CA0"/>
<path d="M33.3099 19.0837H32.4536V19.9475H33.3099V19.0837Z" fill="#626CA0"/>
<path d="M33.3099 18.2275H32.4536V19.0838H33.3099V18.2275Z" fill="#5364AD"/>
<path d="M33.3099 17.3637H32.4536V18.2275H33.3099V17.3637Z" fill="#5364AD"/>
<path d="M33.3099 16.5075H32.4536V17.3638H33.3099V16.5075Z" fill="#5364AD"/>
<path d="M33.3099 15.6437H32.4536V16.5075H33.3099V15.6437Z" fill="#5364AD"/>
<path d="M33.3099 14.78H32.4536V15.6437H33.3099V14.78Z" fill="#626CA0"/>
<path d="M33.3099 13.925H32.4536V14.7812H33.3099V13.925Z" fill="black"/>
<path d="M32.4536 31.9912H31.5898V32.8475H32.4536V31.9912Z" fill="black"/>
<path d="M32.4536 31.1263H31.5898V31.99H32.4536V31.1263Z" fill="#B25212"/>
<path d="M32.4536 30.2712H31.5898V31.1275H32.4536V30.2712Z" fill="#C1811B"/>
<path d="M32.4536 29.4062H31.5898V30.27H32.4536V29.4062Z" fill="black"/>
<path d="M32.4536 28.5438H31.5898V29.4075H32.4536V28.5438Z" fill="#C1811B"/>
<path d="M32.4536 27.6888H31.5898V28.545H32.4536V27.6888Z" fill="#C1811B"/>
<path d="M32.4536 26.8238H31.5898V27.6875H32.4536V26.8238Z" fill="#B25212"/>
<path d="M32.4536 25.9688H31.5898V26.825H32.4536V25.9688Z" fill="black"/>
<path d="M32.4536 25.1038H31.5898V25.9675H32.4536V25.1038Z" fill="#626CA0"/>
<path d="M32.4536 24.25H31.5898V25.1063H32.4536V24.25Z" fill="black"/>
<path d="M32.4536 23.3863H31.5898V24.25H32.4536V23.3863Z" fill="#B25212"/>
<path d="M32.4536 22.53H31.5898V23.3862H32.4536V22.53Z" fill="#DBAB65"/>
<path d="M32.4536 21.6663H31.5898V22.53H32.4536V21.6663Z" fill="black"/>
<path d="M32.4536 20.8012H31.5898V21.665H32.4536V20.8012Z" fill="#404E89"/>
<path d="M32.4536 19.9463H31.5898V20.8025H32.4536V19.9463Z" fill="#626CA0"/>
<path d="M32.4536 19.0837H31.5898V19.9475H32.4536V19.0837Z" fill="#626CA0"/>
<path d="M32.4536 18.2275H31.5898V19.0838H32.4536V18.2275Z" fill="#626CA0"/>
<path d="M32.4536 17.3637H31.5898V18.2275H32.4536V17.3637Z" fill="#626CA0"/>
<path d="M32.4536 16.5075H31.5898V17.3638H32.4536V16.5075Z" fill="#5364AD"/>
<path d="M32.4536 15.6437H31.5898V16.5075H32.4536V15.6437Z" fill="#626CA0"/>
<path d="M32.4536 14.78H31.5898V15.6437H32.4536V14.78Z" fill="#5364AD"/>
<path d="M32.4536 13.925H31.5898V14.7812H32.4536V13.925Z" fill="black"/>
<path d="M31.5901 31.9912H30.7339V32.8475H31.5901V31.9912Z" fill="black"/>
<path d="M31.5901 31.1263H30.7339V31.99H31.5901V31.1263Z" fill="#C1811B"/>
<path d="M31.5901 30.2712H30.7339V31.1275H31.5901V30.2712Z" fill="#DBAB65"/>
<path d="M31.5901 29.4062H30.7339V30.27H31.5901V29.4062Z" fill="#DBAB65"/>
<path d="M31.5901 28.5438H30.7339V29.4075H31.5901V28.5438Z" fill="black"/>
<path d="M31.5901 27.6888H30.7339V28.545H31.5901V27.6888Z" fill="#C1811B"/>
<path d="M31.5901 26.8238H30.7339V27.6875H31.5901V26.8238Z" fill="black"/>
<path d="M31.5901 25.9688H30.7339V26.825H31.5901V25.9688Z" fill="#626CA0"/>
<path d="M31.5901 25.1038H30.7339V25.9675H31.5901V25.1038Z" fill="#626CA0"/>
<path d="M31.5901 24.25H30.7339V25.1063H31.5901V24.25Z" fill="#5364AD"/>
<path d="M31.5901 23.3863H30.7339V24.25H31.5901V23.3863Z" fill="black"/>
<path d="M31.5901 22.53H30.7339V23.3862H31.5901V22.53Z" fill="#C1811B"/>
<path d="M31.5901 21.6663H30.7339V22.53H31.5901V21.6663Z" fill="black"/>
<path d="M31.5901 20.8012H30.7339V21.665H31.5901V20.8012Z" fill="#404E89"/>
<path d="M31.5901 19.9463H30.7339V20.8025H31.5901V19.9463Z" fill="#404E89"/>
<path d="M31.5901 19.0837H30.7339V19.9475H31.5901V19.0837Z" fill="#626CA0"/>
<path d="M31.5901 18.2275H30.7339V19.0838H31.5901V18.2275Z" fill="#626CA0"/>
<path d="M31.5901 17.3637H30.7339V18.2275H31.5901V17.3637Z" fill="#626CA0"/>
<path d="M31.5901 16.5075H30.7339V17.3638H31.5901V16.5075Z" fill="#626CA0"/>
<path d="M31.5901 15.6437H30.7339V16.5075H31.5901V15.6437Z" fill="#626CA0"/>
<path d="M31.5901 14.78H30.7339V15.6437H31.5901V14.78Z" fill="#626CA0"/>
<path d="M31.5901 13.925H30.7339V14.7812H31.5901V13.925Z" fill="black"/>
<path d="M30.7339 31.9912H29.8701V32.8475H30.7339V31.9912Z" fill="black"/>
<path d="M30.7339 31.1263H29.8701V31.99H30.7339V31.1263Z" fill="#DBAB65"/>
<path d="M30.7339 30.2712H29.8701V31.1275H30.7339V30.2712Z" fill="#DBAB65"/>
<path d="M30.7339 29.4062H29.8701V30.27H30.7339V29.4062Z" fill="#DBAB65"/>
<path d="M30.7339 28.5438H29.8701V29.4075H30.7339V28.5438Z" fill="black"/>
<path d="M30.7339 27.6888H29.8701V28.545H30.7339V27.6888Z" fill="#C1811B"/>
<path d="M30.7339 26.8238H29.8701V27.6875H30.7339V26.8238Z" fill="black"/>
<path d="M30.7339 25.9688H29.8701V26.825H30.7339V25.9688Z" fill="#5364AD"/>
<path d="M30.7339 25.1038H29.8701V25.9675H30.7339V25.1038Z" fill="#5364AD"/>
<path d="M30.7339 24.25H29.8701V25.1063H30.7339V24.25Z" fill="#5364AD"/>
<path d="M30.7339 23.3863H29.8701V24.25H30.7339V23.3863Z" fill="black"/>
<path d="M30.7339 22.53H29.8701V23.3862H30.7339V22.53Z" fill="#B25212"/>
<path d="M30.7339 21.6663H29.8701V22.53H30.7339V21.6663Z" fill="#C1811B"/>
<path d="M30.7339 20.8012H29.8701V21.665H30.7339V20.8012Z" fill="black"/>
<path d="M30.7339 19.9463H29.8701V20.8025H30.7339V19.9463Z" fill="#404E89"/>
<path d="M30.7339 19.0837H29.8701V19.9475H30.7339V19.0837Z" fill="#626CA0"/>
<path d="M30.7339 18.2275H29.8701V19.0838H30.7339V18.2275Z" fill="#626CA0"/>
<path d="M30.7339 17.3637H29.8701V18.2275H30.7339V17.3637Z" fill="#626CA0"/>
<path d="M30.7339 16.5075H29.8701V17.3638H30.7339V16.5075Z" fill="#626CA0"/>
<path d="M30.7339 15.6437H29.8701V16.5075H30.7339V15.6437Z" fill="black"/>
<path d="M30.7339 14.78H29.8701V15.6437H30.7339V14.78Z" fill="black"/>
<path d="M30.7339 13.925H29.8701V14.7812H30.7339V13.925Z" fill="black"/>
<path d="M29.8711 37.1487H29.0073V38.0125H29.8711V37.1487Z" fill="black"/>
<path d="M29.8711 36.2938H29.0073V37.15H29.8711V36.2938Z" fill="black"/>
<path d="M29.8711 35.4287H29.0073V36.2925H29.8711V35.4287Z" fill="black"/>
<path d="M29.8711 34.565H29.0073V35.4288H29.8711V34.565Z" fill="black"/>
<path d="M29.8711 33.7112H29.0073V34.5675H29.8711V33.7112Z" fill="black"/>
<path d="M29.8711 31.9912H29.0073V32.8475H29.8711V31.9912Z" fill="black"/>
<path d="M29.8711 31.1263H29.0073V31.99H29.8711V31.1263Z" fill="#B25212"/>
<path d="M29.8711 30.2712H29.0073V31.1275H29.8711V30.2712Z" fill="#DBAB65"/>
<path d="M29.8711 29.4062H29.0073V30.27H29.8711V29.4062Z" fill="#DBAB65"/>
<path d="M29.8711 28.5438H29.0073V29.4075H29.8711V28.5438Z" fill="#C1811B"/>
<path d="M29.8711 27.6888H29.0073V28.545H29.8711V27.6888Z" fill="black"/>
<path d="M29.8711 26.8238H29.0073V27.6875H29.8711V26.8238Z" fill="black"/>
<path d="M29.8711 25.9688H29.0073V26.825H29.8711V25.9688Z" fill="black"/>
<path d="M29.8711 25.1038H29.0073V25.9675H29.8711V25.1038Z" fill="black"/>
<path d="M29.8711 24.25H29.0073V25.1063H29.8711V24.25Z" fill="#5364AD"/>
<path d="M29.8711 23.3863H29.0073V24.25H29.8711V23.3863Z" fill="#5364AD"/>
<path d="M29.8711 22.53H29.0073V23.3862H29.8711V22.53Z" fill="black"/>
<path d="M29.8711 21.6663H29.0073V22.53H29.8711V21.6663Z" fill="#B25212"/>
<path d="M29.8711 20.8012H29.0073V21.665H29.8711V20.8012Z" fill="#C1811B"/>
<path d="M29.8711 19.9463H29.0073V20.8025H29.8711V19.9463Z" fill="black"/>
<path d="M29.8711 19.0837H29.0073V19.9475H29.8711V19.0837Z" fill="black"/>
<path d="M29.8711 18.2275H29.0073V19.0838H29.8711V18.2275Z" fill="#5364AD"/>
<path d="M29.8711 17.3637H29.0073V18.2275H29.8711V17.3637Z" fill="#5364AD"/>
<path d="M29.8711 16.5075H29.0073V17.3638H29.8711V16.5075Z" fill="black"/>
<path d="M29.8711 15.6437H29.0073V16.5075H29.8711V15.6437Z" fill="black"/>
<path d="M29.0076 37.1487H28.1514V38.0125H29.0076V37.1487Z" fill="black"/>
<path d="M29.0076 36.2938H28.1514V37.15H29.0076V36.2938Z" fill="#404E89"/>
<path d="M29.0076 35.4287H28.1514V36.2925H29.0076V35.4287Z" fill="#404E89"/>
<path d="M29.0076 34.565H28.1514V35.4288H29.0076V34.565Z" fill="#404E89"/>
<path d="M29.0076 33.7112H28.1514V34.5675H29.0076V33.7112Z" fill="black"/>
<path d="M29.0076 32.8463H28.1514V33.71H29.0076V32.8463Z" fill="black"/>
<path d="M29.0076 31.9912H28.1514V32.8475H29.0076V31.9912Z" fill="black"/>
<path d="M29.0076 31.1263H28.1514V31.99H29.0076V31.1263Z" fill="black"/>
<path d="M29.0076 30.2712H28.1514V31.1275H29.0076V30.2712Z" fill="#C1811B"/>
<path d="M29.0076 29.4062H28.1514V30.27H29.0076V29.4062Z" fill="#C1811B"/>
<path d="M29.0076 28.5438H28.1514V29.4075H29.0076V28.5438Z" fill="#C1811B"/>
<path d="M29.0076 27.6888H28.1514V28.545H29.0076V27.6888Z" fill="black"/>
<path d="M29.0076 26.8238H28.1514V27.6875H29.0076V26.8238Z" fill="#344A91"/>
<path d="M29.0076 25.9688H28.1514V26.825H29.0076V25.9688Z" fill="#344A91"/>
<path d="M29.0076 25.1038H28.1514V25.9675H29.0076V25.1038Z" fill="#C1811B"/>
<path d="M29.0076 24.25H28.1514V25.1063H29.0076V24.25Z" fill="black"/>
<path d="M29.0076 23.3863H28.1514V24.25H29.0076V23.3863Z" fill="black"/>
<path d="M29.0076 22.53H28.1514V23.3862H29.0076V22.53Z" fill="#626CA0"/>
<path d="M29.0076 21.6663H28.1514V22.53H29.0076V21.6663Z" fill="black"/>
<path d="M29.0076 20.8012H28.1514V21.665H29.0076V20.8012Z" fill="#B25212"/>
<path d="M29.0076 19.9463H28.1514V20.8025H29.0076V19.9463Z" fill="#C1811B"/>
<path d="M29.0076 19.0837H28.1514V19.9475H29.0076V19.0837Z" fill="#DBAB65"/>
<path d="M29.0076 18.2275H28.1514V19.0838H29.0076V18.2275Z" fill="black"/>
<path d="M29.0076 17.3637H28.1514V18.2275H29.0076V17.3637Z" fill="#5364AD"/>
<path d="M29.0076 16.5075H28.1514V17.3638H29.0076V16.5075Z" fill="black"/>
<path d="M29.0076 15.6437H28.1514V16.5075H29.0076V15.6437Z" fill="black"/>
<path d="M29.0076 14.78H28.1514V15.6437H29.0076V14.78Z" fill="black"/>
<path d="M29.0076 13.925H28.1514V14.7812H29.0076V13.925Z" fill="black"/>
<path d="M29.0076 13.0612H28.1514V13.925H29.0076V13.0612Z" fill="black"/>
<path d="M29.0076 12.205H28.1514V13.0612H29.0076V12.205Z" fill="black"/>
<path d="M29.0076 11.3412H28.1514V12.205H29.0076V11.3412Z" fill="black"/>
<path d="M28.1513 37.1487H27.2876V38.0125H28.1513V37.1487Z" fill="black"/>
<path d="M28.1513 36.2938H27.2876V37.15H28.1513V36.2938Z" fill="#404E89"/>
<path d="M28.1513 35.4287H27.2876V36.2925H28.1513V35.4287Z" fill="#626CA0"/>
<path d="M28.1513 34.565H27.2876V35.4288H28.1513V34.565Z" fill="#626CA0"/>
<path d="M28.1513 33.7112H27.2876V34.5675H28.1513V33.7112Z" fill="#404E89"/>
<path d="M28.1513 32.8463H27.2876V33.71H28.1513V32.8463Z" fill="#404E89"/>
<path d="M28.1513 31.9912H27.2876V32.8475H28.1513V31.9912Z" fill="#404E89"/>
<path d="M28.1513 31.1263H27.2876V31.99H28.1513V31.1263Z" fill="black"/>
<path d="M28.1513 30.2712H27.2876V31.1275H28.1513V30.2712Z" fill="black"/>
<path d="M28.1513 29.4062H27.2876V30.27H28.1513V29.4062Z" fill="black"/>
<path d="M28.1513 28.5438H27.2876V29.4075H28.1513V28.5438Z" fill="black"/>
<path d="M28.1513 27.6888H27.2876V28.545H28.1513V27.6888Z" fill="black"/>
<path d="M28.1513 26.8238H27.2876V27.6875H28.1513V26.8238Z" fill="black"/>
<path d="M28.1513 25.9688H27.2876V26.825H28.1513V25.9688Z" fill="#42578E"/>
<path d="M28.1513 25.1038H27.2876V25.9675H28.1513V25.1038Z" fill="black"/>
<path d="M28.1513 24.25H27.2876V25.1063H28.1513V24.25Z" fill="#C1811B"/>
<path d="M28.1513 23.3863H27.2876V24.25H28.1513V23.3863Z" fill="black"/>
<path d="M28.1513 22.53H27.2876V23.3862H28.1513V22.53Z" fill="#626CA0"/>
<path d="M28.1513 21.6663H27.2876V22.53H28.1513V21.6663Z" fill="#626CA0"/>
<path d="M28.1513 20.8012H27.2876V21.665H28.1513V20.8012Z" fill="black"/>
<path d="M28.1513 19.9463H27.2876V20.8025H28.1513V19.9463Z" fill="#B25212"/>
<path d="M28.1513 19.0837H27.2876V19.9475H28.1513V19.0837Z" fill="#C1811B"/>
<path d="M28.1513 18.2275H27.2876V19.0838H28.1513V18.2275Z" fill="#B25212"/>
<path d="M28.1513 17.3637H27.2876V18.2275H28.1513V17.3637Z" fill="black"/>
<path d="M28.1513 16.5075H27.2876V17.3638H28.1513V16.5075Z" fill="#404E89"/>
<path d="M28.1513 15.6437H27.2876V16.5075H28.1513V15.6437Z" fill="#404E89"/>
<path d="M28.1513 14.78H27.2876V15.6437H28.1513V14.78Z" fill="#626CA0"/>
<path d="M28.1513 13.925H27.2876V14.7812H28.1513V13.925Z" fill="#626CA0"/>
<path d="M28.1513 13.0612H27.2876V13.925H28.1513V13.0612Z" fill="#404E89"/>
<path d="M28.1513 12.205H27.2876V13.0612H28.1513V12.205Z" fill="#404E89"/>
<path d="M28.1513 11.3412H27.2876V12.205H28.1513V11.3412Z" fill="#404E89"/>
<path d="M28.1513 10.4862H27.2876V11.3425H28.1513V10.4862Z" fill="black"/>
<path d="M27.2874 37.1487H26.4312V38.0125H27.2874V37.1487Z" fill="black"/>
<path d="M27.2874 36.2938H26.4312V37.15H27.2874V36.2938Z" fill="#404E89"/>
<path d="M27.2874 35.4287H26.4312V36.2925H27.2874V35.4287Z" fill="#C1811B"/>
<path d="M27.2874 34.565H26.4312V35.4288H27.2874V34.565Z" fill="#B25212"/>
<path d="M27.2874 33.7112H26.4312V34.5675H27.2874V33.7112Z" fill="#626CA0"/>
<path d="M27.2874 32.8463H26.4312V33.71H27.2874V32.8463Z" fill="black"/>
<path d="M27.2874 31.9912H26.4312V32.8475H27.2874V31.9912Z" fill="black"/>
<path d="M27.2874 31.1263H26.4312V31.99H27.2874V31.1263Z" fill="black"/>
<path d="M27.2874 30.2712H26.4312V31.1275H27.2874V30.2712Z" fill="#2F384C"/>
<path d="M27.2874 29.4062H26.4312V30.27H27.2874V29.4062Z" fill="black"/>
<path d="M27.2874 28.5438H26.4312V29.4075H27.2874V28.5438Z" fill="#344A91"/>
<path d="M27.2874 27.6888H26.4312V28.545H27.2874V27.6888Z" fill="#42578E"/>
<path d="M27.2874 26.8238H26.4312V27.6875H27.2874V26.8238Z" fill="black"/>
<path d="M27.2874 25.9688H26.4312V26.825H27.2874V25.9688Z" fill="#42578E"/>
<path d="M27.2874 25.1038H26.4312V25.9675H27.2874V25.1038Z" fill="black"/>
<path d="M27.2874 24.25H26.4312V25.1063H27.2874V24.25Z" fill="#B25212"/>
<path d="M27.2874 23.3863H26.4312V24.25H27.2874V23.3863Z" fill="black"/>
<path d="M27.2874 22.53H26.4312V23.3862H27.2874V22.53Z" fill="#404E89"/>
<path d="M27.2874 21.6663H26.4312V22.53H27.2874V21.6663Z" fill="black"/>
<path d="M27.2874 20.8012H26.4312V21.665H27.2874V20.8012Z" fill="#C1811B"/>
<path d="M27.2874 19.9463H26.4312V20.8025H27.2874V19.9463Z" fill="black"/>
<path d="M27.2874 19.0837H26.4312V19.9475H27.2874V19.0837Z" fill="black"/>
<path d="M27.2874 18.2275H26.4312V19.0838H27.2874V18.2275Z" fill="black"/>
<path d="M27.2874 17.3637H26.4312V18.2275H27.2874V17.3637Z" fill="#404E89"/>
<path d="M27.2874 16.5075H26.4312V17.3638H27.2874V16.5075Z" fill="#404E89"/>
<path d="M27.2874 15.6437H26.4312V16.5075H27.2874V15.6437Z" fill="#626CA0"/>
<path d="M27.2874 14.78H26.4312V15.6437H27.2874V14.78Z" fill="#626CA0"/>
<path d="M27.2874 13.925H26.4312V14.7812H27.2874V13.925Z" fill="#626CA0"/>
<path d="M27.2874 13.0612H26.4312V13.925H27.2874V13.0612Z" fill="#626CA0"/>
<path d="M27.2874 12.205H26.4312V13.0612H27.2874V12.205Z" fill="#626CA0"/>
<path d="M27.2874 11.3412H26.4312V12.205H27.2874V11.3412Z" fill="#404E89"/>
<path d="M27.2874 10.4862H26.4312V11.3425H27.2874V10.4862Z" fill="black"/>
<path d="M26.4311 37.1487H25.5674V38.0125H26.4311V37.1487Z" fill="black"/>
<path d="M26.4311 36.2938H25.5674V37.15H26.4311V36.2938Z" fill="#404E89"/>
<path d="M26.4311 35.4287H25.5674V36.2925H26.4311V35.4287Z" fill="black"/>
<path d="M26.4311 34.565H25.5674V35.4288H26.4311V34.565Z" fill="black"/>
<path d="M26.4311 33.7112H25.5674V34.5675H26.4311V33.7112Z" fill="#B25212"/>
<path d="M26.4311 32.8463H25.5674V33.71H26.4311V32.8463Z" fill="#B25212"/>
<path d="M26.4311 31.9912H25.5674V32.8475H26.4311V31.9912Z" fill="black"/>
<path d="M26.4311 31.1263H25.5674V31.99H26.4311V31.1263Z" fill="black"/>
<path d="M26.4311 30.2712H25.5674V31.1275H26.4311V30.2712Z" fill="#2F384C"/>
<path d="M26.4311 29.4062H25.5674V30.27H26.4311V29.4062Z" fill="black"/>
<path d="M26.4311 28.5438H25.5674V29.4075H26.4311V28.5438Z" fill="#344A91"/>
<path d="M26.4311 27.6888H25.5674V28.545H26.4311V27.6888Z" fill="#344A91"/>
<path d="M26.4311 26.8238H25.5674V27.6875H26.4311V26.8238Z" fill="#42578E"/>
<path d="M26.4311 25.9688H25.5674V26.825H26.4311V25.9688Z" fill="black"/>
<path d="M26.4311 25.1038H25.5674V25.9675H26.4311V25.1038Z" fill="#B25212"/>
<path d="M26.4311 24.25H25.5674V25.1063H26.4311V24.25Z" fill="#B25212"/>
<path d="M26.4311 23.3863H25.5674V24.25H26.4311V23.3863Z" fill="black"/>
<path d="M26.4311 22.53H25.5674V23.3862H26.4311V22.53Z" fill="#404E89"/>
<path d="M26.4311 21.6663H25.5674V22.53H26.4311V21.6663Z" fill="black"/>
<path d="M26.4311 20.8012H25.5674V21.665H26.4311V20.8012Z" fill="#C1811B"/>
<path d="M26.4311 19.9463H25.5674V20.8025H26.4311V19.9463Z" fill="#404E89"/>
<path d="M26.4311 19.0837H25.5674V19.9475H26.4311V19.0837Z" fill="#404E89"/>
<path d="M26.4311 18.2275H25.5674V19.0838H26.4311V18.2275Z" fill="black"/>
<path d="M26.4311 17.3637H25.5674V18.2275H26.4311V17.3637Z" fill="#404E89"/>
<path d="M26.4311 16.5075H25.5674V17.3638H26.4311V16.5075Z" fill="#626CA0"/>
<path d="M26.4311 15.6437H25.5674V16.5075H26.4311V15.6437Z" fill="#626CA0"/>
<path d="M26.4311 14.78H25.5674V15.6437H26.4311V14.78Z" fill="#626CA0"/>
<path d="M26.4311 13.925H25.5674V14.7812H26.4311V13.925Z" fill="#626CA0"/>
<path d="M26.4311 13.0612H25.5674V13.925H26.4311V13.0612Z" fill="#626CA0"/>
<path d="M26.4311 12.205H25.5674V13.0612H26.4311V12.205Z" fill="#626CA0"/>
<path d="M26.4311 11.3412H25.5674V12.205H26.4311V11.3412Z" fill="#626CA0"/>
<path d="M26.4311 10.4862H25.5674V11.3425H26.4311V10.4862Z" fill="black"/>
<path d="M25.5687 37.1487H24.7124V38.0125H25.5687V37.1487Z" fill="black"/>
<path d="M25.5687 36.2938H24.7124V37.15H25.5687V36.2938Z" fill="#C1811B"/>
<path d="M25.5687 35.4287H24.7124V36.2925H25.5687V35.4287Z" fill="#DBAB65"/>
<path d="M25.5687 34.565H24.7124V35.4288H25.5687V34.565Z" fill="#C1811B"/>
<path d="M25.5687 33.7112H24.7124V34.5675H25.5687V33.7112Z" fill="black"/>
<path d="M25.5687 32.8463H24.7124V33.71H25.5687V32.8463Z" fill="#C1811B"/>
<path d="M25.5687 31.9912H24.7124V32.8475H25.5687V31.9912Z" fill="#626CA0"/>
<path d="M25.5687 31.1263H24.7124V31.99H25.5687V31.1263Z" fill="black"/>
<path d="M25.5687 30.2712H24.7124V31.1275H25.5687V30.2712Z" fill="#2F384C"/>
<path d="M25.5687 29.4062H24.7124V30.27H25.5687V29.4062Z" fill="black"/>
<path d="M25.5687 28.5438H24.7124V29.4075H25.5687V28.5438Z" fill="#344A91"/>
<path d="M25.5687 27.6888H24.7124V28.545H25.5687V27.6888Z" fill="#42578E"/>
<path d="M25.5687 26.8238H24.7124V27.6875H25.5687V26.8238Z" fill="#42578E"/>
<path d="M25.5687 25.9688H24.7124V26.825H25.5687V25.9688Z" fill="black"/>
<path d="M25.5687 25.1038H24.7124V25.9675H25.5687V25.1038Z" fill="#B25212"/>
<path d="M25.5687 24.25H24.7124V25.1063H25.5687V24.25Z" fill="black"/>
<path d="M25.5687 23.3863H24.7124V24.25H25.5687V23.3863Z" fill="#404E89"/>
<path d="M25.5687 22.53H24.7124V23.3862H25.5687V22.53Z" fill="black"/>
<path d="M25.5687 21.6663H24.7124V22.53H25.5687V21.6663Z" fill="#C1811B"/>
<path d="M25.5687 20.8012H24.7124V21.665H25.5687V20.8012Z" fill="#404E89"/>
<path d="M25.5687 19.9463H24.7124V20.8025H25.5687V19.9463Z" fill="#404E89"/>
<path d="M25.5687 19.0837H24.7124V19.9475H25.5687V19.0837Z" fill="#404E89"/>
<path d="M25.5687 18.2275H24.7124V19.0838H25.5687V18.2275Z" fill="black"/>
<path d="M25.5687 17.3637H24.7124V18.2275H25.5687V17.3637Z" fill="#404E89"/>
<path d="M25.5687 16.5075H24.7124V17.3638H25.5687V16.5075Z" fill="#626CA0"/>
<path d="M25.5687 15.6437H24.7124V16.5075H25.5687V15.6437Z" fill="#626CA0"/>
<path d="M25.5687 14.78H24.7124V15.6437H25.5687V14.78Z" fill="#5364AD"/>
<path d="M25.5687 13.925H24.7124V14.7812H25.5687V13.925Z" fill="#5364AD"/>
<path d="M25.5687 13.0612H24.7124V13.925H25.5687V13.0612Z" fill="#626CA0"/>
<path d="M25.5687 12.205H24.7124V13.0612H25.5687V12.205Z" fill="#626CA0"/>
<path d="M25.5687 11.3412H24.7124V12.205H25.5687V11.3412Z" fill="#626CA0"/>
<path d="M25.5687 10.4862H24.7124V11.3425H25.5687V10.4862Z" fill="black"/>
<path d="M24.7124 37.1487H23.8486V38.0125H24.7124V37.1487Z" fill="black"/>
<path d="M24.7124 36.2938H23.8486V37.15H24.7124V36.2938Z" fill="#DBAB65"/>
<path d="M24.7124 35.4287H23.8486V36.2925H24.7124V35.4287Z" fill="black"/>
<path d="M24.7124 34.565H23.8486V35.4288H24.7124V34.565Z" fill="black"/>
<path d="M24.7124 33.7112H23.8486V34.5675H24.7124V33.7112Z" fill="black"/>
<path d="M24.7124 32.8463H23.8486V33.71H24.7124V32.8463Z" fill="black"/>
<path d="M24.7124 31.9912H23.8486V32.8475H24.7124V31.9912Z" fill="#626CA0"/>
<path d="M24.7124 31.1263H23.8486V31.99H24.7124V31.1263Z" fill="black"/>
<path d="M24.7124 30.2712H23.8486V31.1275H24.7124V30.2712Z" fill="#2F384C"/>
<path d="M24.7124 29.4062H23.8486V30.27H24.7124V29.4062Z" fill="black"/>
<path d="M24.7124 28.5438H23.8486V29.4075H24.7124V28.5438Z" fill="#42578E"/>
<path d="M24.7124 27.6888H23.8486V28.545H24.7124V27.6888Z" fill="#42578E"/>
<path d="M24.7124 26.8238H23.8486V27.6875H24.7124V26.8238Z" fill="#42578E"/>
<path d="M24.7124 25.9688H23.8486V26.825H24.7124V25.9688Z" fill="black"/>
<path d="M24.7124 25.1038H23.8486V25.9675H24.7124V25.1038Z" fill="#C1811B"/>
<path d="M24.7124 24.25H23.8486V25.1063H24.7124V24.25Z" fill="black"/>
<path d="M24.7124 23.3863H23.8486V24.25H24.7124V23.3863Z" fill="#404E89"/>
<path d="M24.7124 22.53H23.8486V23.3862H24.7124V22.53Z" fill="black"/>
<path d="M24.7124 21.6663H23.8486V22.53H24.7124V21.6663Z" fill="#404E89"/>
<path d="M24.7124 20.8012H23.8486V21.665H24.7124V20.8012Z" fill="#404E89"/>
<path d="M24.7124 19.9463H23.8486V20.8025H24.7124V19.9463Z" fill="#626CA0"/>
<path d="M24.7124 19.0837H23.8486V19.9475H24.7124V19.0837Z" fill="black"/>
<path d="M24.7124 18.2275H23.8486V19.0838H24.7124V18.2275Z" fill="#404E89"/>
<path d="M24.7124 17.3637H23.8486V18.2275H24.7124V17.3637Z" fill="#404E89"/>
<path d="M24.7124 16.5075H23.8486V17.3638H24.7124V16.5075Z" fill="#626CA0"/>
<path d="M24.7124 15.6437H23.8486V16.5075H24.7124V15.6437Z" fill="#5364AD"/>
<path d="M24.7124 14.78H23.8486V15.6437H24.7124V14.78Z" fill="#5364AD"/>
<path d="M24.7124 13.925H23.8486V14.7812H24.7124V13.925Z" fill="black"/>
<path d="M24.7124 13.0612H23.8486V13.925H24.7124V13.0612Z" fill="#626CA0"/>
<path d="M24.7124 12.205H23.8486V13.0612H24.7124V12.205Z" fill="#626CA0"/>
<path d="M24.7124 11.3412H23.8486V12.205H24.7124V11.3412Z" fill="#626CA0"/>
<path d="M24.7124 10.4862H23.8486V11.3425H24.7124V10.4862Z" fill="black"/>
<path d="M23.8489 37.1487H22.9927V38.0125H23.8489V37.1487Z" fill="black"/>
<path d="M23.8489 36.2938H22.9927V37.15H23.8489V36.2938Z" fill="#C1811B"/>
<path d="M23.8489 35.4287H22.9927V36.2925H23.8489V35.4287Z" fill="black"/>
<path d="M23.8489 34.565H22.9927V35.4288H23.8489V34.565Z" fill="#C1811B"/>
<path d="M23.8489 33.7112H22.9927V34.5675H23.8489V33.7112Z" fill="black"/>
<path d="M23.8489 32.8463H22.9927V33.71H23.8489V32.8463Z" fill="#C1811B"/>
<path d="M23.8489 31.9912H22.9927V32.8475H23.8489V31.9912Z" fill="black"/>
<path d="M23.8489 31.1263H22.9927V31.99H23.8489V31.1263Z" fill="black"/>
<path d="M23.8489 30.2712H22.9927V31.1275H23.8489V30.2712Z" fill="#2F384C"/>
<path d="M23.8489 29.4062H22.9927V30.27H23.8489V29.4062Z" fill="black"/>
<path d="M23.8489 28.5438H22.9927V29.4075H23.8489V28.5438Z" fill="#42578E"/>
<path d="M23.8489 27.6888H22.9927V28.545H23.8489V27.6888Z" fill="#344A91"/>
<path d="M23.8489 26.8238H22.9927V27.6875H23.8489V26.8238Z" fill="black"/>
<path d="M23.8489 25.9688H22.9927V26.825H23.8489V25.9688Z" fill="black"/>
<path d="M23.8489 25.1038H22.9927V25.9675H23.8489V25.1038Z" fill="#C1811B"/>
<path d="M23.8489 24.25H22.9927V25.1063H23.8489V24.25Z" fill="black"/>
<path d="M23.8489 23.3863H22.9927V24.25H23.8489V23.3863Z" fill="#404E89"/>
<path d="M23.8489 22.53H22.9927V23.3862H23.8489V22.53Z" fill="black"/>
<path d="M23.8489 21.6663H22.9927V22.53H23.8489V21.6663Z" fill="#626CA0"/>
<path d="M23.8489 20.8012H22.9927V21.665H23.8489V20.8012Z" fill="#404E89"/>
<path d="M23.8489 19.9463H22.9927V20.8025H23.8489V19.9463Z" fill="#626CA0"/>
<path d="M23.8489 19.0837H22.9927V19.9475H23.8489V19.0837Z" fill="black"/>
<path d="M23.8489 18.2275H22.9927V19.0838H23.8489V18.2275Z" fill="#404E89"/>
<path d="M23.8489 17.3637H22.9927V18.2275H23.8489V17.3637Z" fill="#404E89"/>
<path d="M23.8489 16.5075H22.9927V17.3638H23.8489V16.5075Z" fill="#5364AD"/>
<path d="M23.8489 15.6437H22.9927V16.5075H23.8489V15.6437Z" fill="#5364AD"/>
<path d="M23.8489 14.78H22.9927V15.6437H23.8489V14.78Z" fill="black"/>
<path d="M23.8489 13.925H22.9927V14.7812H23.8489V13.925Z" fill="black"/>
<path d="M23.8489 13.0612H22.9927V13.925H23.8489V13.0612Z" fill="#626CA0"/>
<path d="M23.8489 12.205H22.9927V13.0612H23.8489V12.205Z" fill="#626CA0"/>
<path d="M23.8489 11.3412H22.9927V12.205H23.8489V11.3412Z" fill="#5364AD"/>
<path d="M23.8489 10.4862H22.9927V11.3425H23.8489V10.4862Z" fill="black"/>
<path d="M22.9927 37.1487H22.1289V38.0125H22.9927V37.1487Z" fill="black"/>
<path d="M22.9927 36.2938H22.1289V37.15H22.9927V36.2938Z" fill="black"/>
<path d="M22.9927 35.4287H22.1289V36.2925H22.9927V35.4287Z" fill="#C1811B"/>
<path d="M22.9927 34.565H22.1289V35.4288H22.9927V34.565Z" fill="#DBAB65"/>
<path d="M22.9927 33.7112H22.1289V34.5675H22.9927V33.7112Z" fill="#C1811B"/>
<path d="M22.9927 32.8463H22.1289V33.71H22.9927V32.8463Z" fill="black"/>
<path d="M22.9927 31.9912H22.1289V32.8475H22.9927V31.9912Z" fill="#5364AD"/>
<path d="M22.9927 31.1263H22.1289V31.99H22.9927V31.1263Z" fill="black"/>
<path d="M22.9927 30.2712H22.1289V31.1275H22.9927V30.2712Z" fill="#2F384C"/>
<path d="M22.9927 29.4062H22.1289V30.27H22.9927V29.4062Z" fill="black"/>
<path d="M22.9927 28.5438H22.1289V29.4075H22.9927V28.5438Z" fill="#344A91"/>
<path d="M22.9927 27.6888H22.1289V28.545H22.9927V27.6888Z" fill="black"/>
<path d="M22.9927 26.8238H22.1289V27.6875H22.9927V26.8238Z" fill="#42578E"/>
<path d="M22.9927 25.9688H22.1289V26.825H22.9927V25.9688Z" fill="#344A91"/>
<path d="M22.9927 25.1038H22.1289V25.9675H22.9927V25.1038Z" fill="black"/>
<path d="M22.9927 24.25H22.1289V25.1063H22.9927V24.25Z" fill="#C1811B"/>
<path d="M22.9927 23.3863H22.1289V24.25H22.9927V23.3863Z" fill="black"/>
<path d="M22.9927 22.53H22.1289V23.3862H22.9927V22.53Z" fill="black"/>
<path d="M22.9927 21.6663H22.1289V22.53H22.9927V21.6663Z" fill="#626CA0"/>
<path d="M22.9927 20.8012H22.1289V21.665H22.9927V20.8012Z" fill="#404E89"/>
<path d="M22.9927 19.9463H22.1289V20.8025H22.9927V19.9463Z" fill="#626CA0"/>
<path d="M22.9927 19.0837H22.1289V19.9475H22.9927V19.0837Z" fill="black"/>
<path d="M22.9927 18.2275H22.1289V19.0838H22.9927V18.2275Z" fill="#404E89"/>
<path d="M22.9927 17.3637H22.1289V18.2275H22.9927V17.3637Z" fill="#5364AD"/>
<path d="M22.9927 16.5075H22.1289V17.3638H22.9927V16.5075Z" fill="black"/>
<path d="M22.9927 15.6437H22.1289V16.5075H22.9927V15.6437Z" fill="black"/>
<path d="M22.9927 14.78H22.1289V15.6437H22.9927V14.78Z" fill="black"/>
<path d="M22.9927 13.925H22.1289V14.7812H22.9927V13.925Z" fill="black"/>
<path d="M22.9927 13.0612H22.1289V13.925H22.9927V13.0612Z" fill="#5364AD"/>
<path d="M22.9927 12.205H22.1289V13.0612H22.9927V12.205Z" fill="#5364AD"/>
<path d="M22.9927 11.3412H22.1289V12.205H22.9927V11.3412Z" fill="#5364AD"/>
<path d="M22.9927 10.4862H22.1289V11.3425H22.9927V10.4862Z" fill="black"/>
<path d="M22.1289 37.1487H21.2651V38.0125H22.1289V37.1487Z" fill="black"/>
<path d="M22.1289 36.2938H21.2651V37.15H22.1289V36.2938Z" fill="#DBAB65"/>
<path d="M22.1289 35.4287H21.2651V36.2925H22.1289V35.4287Z" fill="#C1811B"/>
<path d="M22.1289 34.565H21.2651V35.4288H22.1289V34.565Z" fill="black"/>
<path d="M22.1289 33.7112H21.2651V34.5675H22.1289V33.7112Z" fill="black"/>
<path d="M22.1289 32.8463H21.2651V33.71H22.1289V32.8463Z" fill="black"/>
<path d="M22.1289 31.9912H21.2651V32.8475H22.1289V31.9912Z" fill="black"/>
<path d="M22.1289 31.1263H21.2651V31.99H22.1289V31.1263Z" fill="black"/>
<path d="M22.1289 30.2712H21.2651V31.1275H22.1289V30.2712Z" fill="#2F384C"/>
<path d="M22.1289 29.4062H21.2651V30.27H22.1289V29.4062Z" fill="black"/>
<path d="M22.1289 28.5438H21.2651V29.4075H22.1289V28.5438Z" fill="black"/>
<path d="M22.1289 27.6888H21.2651V28.545H22.1289V27.6888Z" fill="black"/>
<path d="M22.1289 26.8238H21.2651V27.6875H22.1289V26.8238Z" fill="black"/>
<path d="M22.1289 25.9688H21.2651V26.825H22.1289V25.9688Z" fill="black"/>
<path d="M22.1289 25.1038H21.2651V25.9675H22.1289V25.1038Z" fill="black"/>
<path d="M22.1289 24.25H21.2651V25.1063H22.1289V24.25Z" fill="black"/>
<path d="M22.1289 23.3863H21.2651V24.25H22.1289V23.3863Z" fill="black"/>
<path d="M22.1289 22.53H21.2651V23.3862H22.1289V22.53Z" fill="#404E89"/>
<path d="M22.1289 21.6663H21.2651V22.53H22.1289V21.6663Z" fill="black"/>
<path d="M22.1289 20.8012H21.2651V21.665H22.1289V20.8012Z" fill="#626CA0"/>
<path d="M22.1289 19.9463H21.2651V20.8025H22.1289V19.9463Z" fill="#626CA0"/>
<path d="M22.1289 19.0837H21.2651V19.9475H22.1289V19.0837Z" fill="black"/>
<path d="M22.1289 18.2275H21.2651V19.0838H22.1289V18.2275Z" fill="black"/>
<path d="M22.1289 17.3637H21.2651V18.2275H22.1289V17.3637Z" fill="black"/>
<path d="M22.1289 16.5075H21.2651V17.3638H22.1289V16.5075Z" fill="black"/>
<path d="M22.1289 15.6437H21.2651V16.5075H22.1289V15.6437Z" fill="black"/>
<path d="M22.1289 14.78H21.2651V15.6437H22.1289V14.78Z" fill="black"/>
<path d="M22.1289 13.925H21.2651V14.7812H22.1289V13.925Z" fill="black"/>
<path d="M22.1289 13.0612H21.2651V13.925H22.1289V13.0612Z" fill="black"/>
<path d="M22.1289 12.205H21.2651V13.0612H22.1289V12.205Z" fill="black"/>
<path d="M22.1289 11.3412H21.2651V12.205H22.1289V11.3412Z" fill="black"/>
<path d="M21.2649 37.1487H20.4087V38.0125H21.2649V37.1487Z" fill="black"/>
<path d="M21.2649 36.2938H20.4087V37.15H21.2649V36.2938Z" fill="#DBAB65"/>
<path d="M21.2649 35.4287H20.4087V36.2925H21.2649V35.4287Z" fill="black"/>
<path d="M21.2649 31.1263H20.4087V31.99H21.2649V31.1263Z" fill="black"/>
<path d="M21.2649 30.2712H20.4087V31.1275H21.2649V30.2712Z" fill="#2F384C"/>
<path d="M21.2649 29.4062H20.4087V30.27H21.2649V29.4062Z" fill="black"/>
<path d="M21.2649 28.5438H20.4087V29.4075H21.2649V28.5438Z" fill="#DBAB65"/>
<path d="M21.2649 27.6888H20.4087V28.545H21.2649V27.6888Z" fill="black"/>
<path d="M21.2649 26.8238H20.4087V27.6875H21.2649V26.8238Z" fill="#DBAB65"/>
<path d="M21.2649 25.9688H20.4087V26.825H21.2649V25.9688Z" fill="#B25212"/>
<path d="M21.2649 25.1038H20.4087V25.9675H21.2649V25.1038Z" fill="#C1811B"/>
<path d="M21.2649 24.25H20.4087V25.1063H21.2649V24.25Z" fill="black"/>
<path d="M21.2649 23.3863H20.4087V24.25H21.2649V23.3863Z" fill="black"/>
<path d="M21.2649 22.53H20.4087V23.3862H21.2649V22.53Z" fill="black"/>
<path d="M21.2649 21.6663H20.4087V22.53H21.2649V21.6663Z" fill="black"/>
<path d="M21.2649 20.8012H20.4087V21.665H21.2649V20.8012Z" fill="black"/>
<path d="M21.2649 19.9463H20.4087V20.8025H21.2649V19.9463Z" fill="black"/>
<path d="M21.2649 19.0837H20.4087V19.9475H21.2649V19.0837Z" fill="#404E89"/>
<path d="M21.2649 18.2275H20.4087V19.0838H21.2649V18.2275Z" fill="#404E89"/>
<path d="M21.2649 17.3637H20.4087V18.2275H21.2649V17.3637Z" fill="#626CA0"/>
<path d="M21.2649 16.5075H20.4087V17.3638H21.2649V16.5075Z" fill="#626CA0"/>
<path d="M21.2649 15.6437H20.4087V16.5075H21.2649V15.6437Z" fill="#626CA0"/>
<path d="M21.2649 14.78H20.4087V15.6437H21.2649V14.78Z" fill="black"/>
<path d="M20.4101 37.1487H19.5464V38.0125H20.4101V37.1487Z" fill="black"/>
<path d="M20.4101 36.2938H19.5464V37.15H20.4101V36.2938Z" fill="#C1811B"/>
<path d="M20.4101 35.4287H19.5464V36.2925H20.4101V35.4287Z" fill="black"/>
<path d="M20.4101 31.1263H19.5464V31.99H20.4101V31.1263Z" fill="black"/>
<path d="M20.4101 30.2712H19.5464V31.1275H20.4101V30.2712Z" fill="#2F384C"/>
<path d="M20.4101 29.4062H19.5464V30.27H20.4101V29.4062Z" fill="black"/>
<path d="M20.4101 28.5438H19.5464V29.4075H20.4101V28.5438Z" fill="#DBAB65"/>
<path d="M20.4101 27.6888H19.5464V28.545H20.4101V27.6888Z" fill="#C1811B"/>
<path d="M20.4101 26.8238H19.5464V27.6875H20.4101V26.8238Z" fill="black"/>
<path d="M20.4101 25.9688H19.5464V26.825H20.4101V25.9688Z" fill="black"/>
<path d="M20.4101 25.1038H19.5464V25.9675H20.4101V25.1038Z" fill="black"/>
<path d="M20.4101 24.25H19.5464V25.1063H20.4101V24.25Z" fill="black"/>
<path d="M20.4101 23.3863H19.5464V24.25H20.4101V23.3863Z" fill="black"/>
<path d="M20.4101 22.53H19.5464V23.3862H20.4101V22.53Z" fill="black"/>
<path d="M20.4101 21.6663H19.5464V22.53H20.4101V21.6663Z" fill="#C1811B"/>
<path d="M20.4101 20.8012H19.5464V21.665H20.4101V20.8012Z" fill="black"/>
<path d="M20.4101 19.9463H19.5464V20.8025H20.4101V19.9463Z" fill="#404E89"/>
<path d="M20.4101 19.0837H19.5464V19.9475H20.4101V19.0837Z" fill="#404E89"/>
<path d="M20.4101 18.2275H19.5464V19.0838H20.4101V18.2275Z" fill="#626CA0"/>
<path d="M20.4101 17.3637H19.5464V18.2275H20.4101V17.3637Z" fill="#5364AD"/>
<path d="M20.4101 16.5075H19.5464V17.3638H20.4101V16.5075Z" fill="#5364AD"/>
<path d="M20.4101 15.6437H19.5464V16.5075H20.4101V15.6437Z" fill="#626CA0"/>
<path d="M20.4101 14.78H19.5464V15.6437H20.4101V14.78Z" fill="black"/>
<path d="M19.5462 37.1487H18.6899V38.0125H19.5462V37.1487Z" fill="black"/>
<path d="M19.5462 36.2938H18.6899V37.15H19.5462V36.2938Z" fill="black"/>
<path d="M19.5462 31.1263H18.6899V31.99H19.5462V31.1263Z" fill="black"/>
<path d="M19.5462 30.2712H18.6899V31.1275H19.5462V30.2712Z" fill="#2F384C"/>
<path d="M19.5462 29.4062H18.6899V30.27H19.5462V29.4062Z" fill="black"/>
<path d="M19.5462 28.5438H18.6899V29.4075H19.5462V28.5438Z" fill="#C1811B"/>
<path d="M19.5462 27.6888H18.6899V28.545H19.5462V27.6888Z" fill="#C1811B"/>
<path d="M19.5462 26.8238H18.6899V27.6875H19.5462V26.8238Z" fill="black"/>
<path d="M19.5462 21.6663H18.6899V22.53H19.5462V21.6663Z" fill="black"/>
<path d="M19.5462 20.8012H18.6899V21.665H19.5462V20.8012Z" fill="#C1811B"/>
<path d="M19.5462 19.9463H18.6899V20.8025H19.5462V19.9463Z" fill="black"/>
<path d="M19.5462 19.0837H18.6899V19.9475H19.5462V19.0837Z" fill="#404E89"/>
<path d="M19.5462 18.2275H18.6899V19.0838H19.5462V18.2275Z" fill="#5364AD"/>
<path d="M19.5462 17.3637H18.6899V18.2275H19.5462V17.3637Z" fill="black"/>
<path d="M19.5462 16.5075H18.6899V17.3638H19.5462V16.5075Z" fill="black"/>
<path d="M19.5462 15.6437H18.6899V16.5075H19.5462V15.6437Z" fill="black"/>
<path d="M18.6899 31.1263H17.8262V31.99H18.6899V31.1263Z" fill="black"/>
<path d="M18.6899 30.2712H17.8262V31.1275H18.6899V30.2712Z" fill="#2F384C"/>
<path d="M18.6899 29.4062H17.8262V30.27H18.6899V29.4062Z" fill="black"/>
<path d="M18.6899 28.5438H17.8262V29.4075H18.6899V28.5438Z" fill="black"/>
<path d="M18.6899 27.6888H17.8262V28.545H18.6899V27.6888Z" fill="black"/>
<path d="M18.6899 20.8012H17.8262V21.665H18.6899V20.8012Z" fill="black"/>
<path d="M18.6899 19.9463H17.8262V20.8025H18.6899V19.9463Z" fill="black"/>
<path d="M18.6899 19.0837H17.8262V19.9475H18.6899V19.0837Z" fill="black"/>
<path d="M18.6899 18.2275H17.8262V19.0838H18.6899V18.2275Z" fill="black"/>
<path d="M17.8274 31.1263H16.9712V31.99H17.8274V31.1263Z" fill="black"/>
<path d="M17.8274 30.2712H16.9712V31.1275H17.8274V30.2712Z" fill="#2F384C"/>
<path d="M17.8274 29.4062H16.9712V30.27H17.8274V29.4062Z" fill="black"/>
<path d="M16.9702 31.1263H16.1064V31.99H16.9702V31.1263Z" fill="black"/>
<path d="M16.9702 30.2712H16.1064V31.1275H16.9702V30.2712Z" fill="#2F384C"/>
<path d="M16.9702 29.4062H16.1064V30.27H16.9702V29.4062Z" fill="black"/>
<path d="M16.1064 34.565H15.2427V35.4288H16.1064V34.565Z" fill="black"/>
<path d="M16.1064 33.7112H15.2427V34.5675H16.1064V33.7112Z" fill="black"/>
<path d="M16.1064 31.1263H15.2427V31.99H16.1064V31.1263Z" fill="black"/>
<path d="M16.1064 30.2712H15.2427V31.1275H16.1064V30.2712Z" fill="#2D3D54"/>
<path d="M16.1064 29.4062H15.2427V30.27H16.1064V29.4062Z" fill="black"/>
<path d="M16.1064 26.8238H15.2427V27.6875H16.1064V26.8238Z" fill="black"/>
<path d="M16.1064 25.9688H15.2427V26.825H16.1064V25.9688Z" fill="black"/>
<path d="M15.2439 35.4287H14.3877V36.2925H15.2439V35.4287Z" fill="black"/>
<path d="M15.2439 34.565H14.3877V35.4288H15.2439V34.565Z" fill="#4A5A7F"/>
<path d="M15.2439 33.7112H14.3877V34.5675H15.2439V33.7112Z" fill="#4A5A7F"/>
<path d="M15.2439 32.8463H14.3877V33.71H15.2439V32.8463Z" fill="black"/>
<path d="M15.2439 31.9912H14.3877V32.8475H15.2439V31.9912Z" fill="black"/>
<path d="M15.2439 31.1263H14.3877V31.99H15.2439V31.1263Z" fill="#1C2C3F"/>
<path d="M15.2439 30.2712H14.3877V31.1275H15.2439V30.2712Z" fill="#1C2C3F"/>
<path d="M15.2439 29.4062H14.3877V30.27H15.2439V29.4062Z" fill="#1C2C3F"/>
<path d="M15.2439 28.5438H14.3877V29.4075H15.2439V28.5438Z" fill="black"/>
<path d="M15.2439 27.6888H14.3877V28.545H15.2439V27.6888Z" fill="black"/>
<path d="M15.2439 26.8238H14.3877V27.6875H15.2439V26.8238Z" fill="#54679B"/>
<path d="M15.2439 25.9688H14.3877V26.825H15.2439V25.9688Z" fill="#4A5A7F"/>
<path d="M15.2439 25.1038H14.3877V25.9675H15.2439V25.1038Z" fill="black"/>
<path d="M14.3877 36.2938H13.5239V37.15H14.3877V36.2938Z" fill="black"/>
<path d="M14.3877 35.4287H13.5239V36.2925H14.3877V35.4287Z" fill="#54679B"/>
<path d="M14.3877 34.565H13.5239V35.4288H14.3877V34.565Z" fill="#54679B"/>
<path d="M14.3877 33.7112H13.5239V34.5675H14.3877V33.7112Z" fill="#4A5A7F"/>
<path d="M14.3877 32.8463H13.5239V33.71H14.3877V32.8463Z" fill="#4A5A7F"/>
<path d="M14.3877 31.9912H13.5239V32.8475H14.3877V31.9912Z" fill="black"/>
<path d="M14.3877 31.1263H13.5239V31.99H14.3877V31.1263Z" fill="#2D3D54"/>
<path d="M14.3877 30.2712H13.5239V31.1275H14.3877V30.2712Z" fill="#1C2C3F"/>
<path d="M14.3877 29.4062H13.5239V30.27H14.3877V29.4062Z" fill="#1C2C3F"/>
<path d="M14.3877 28.5438H13.5239V29.4075H14.3877V28.5438Z" fill="black"/>
<path d="M14.3877 27.6888H13.5239V28.545H14.3877V27.6888Z" fill="#54679B"/>
<path d="M14.3877 26.8238H13.5239V27.6875H14.3877V26.8238Z" fill="#54679B"/>
<path d="M14.3877 25.9688H13.5239V26.825H14.3877V25.9688Z" fill="#4A5A7F"/>
<path d="M14.3877 25.1038H13.5239V25.9675H14.3877V25.1038Z" fill="#4A5A7F"/>
<path d="M14.3877 24.25H13.5239V25.1063H14.3877V24.25Z" fill="black"/>
<path d="M13.5252 36.2938H12.6689V37.15H13.5252V36.2938Z" fill="black"/>
<path d="M13.5252 35.4287H12.6689V36.2925H13.5252V35.4287Z" fill="#54679B"/>
<path d="M13.5252 34.565H12.6689V35.4288H13.5252V34.565Z" fill="#54679B"/>
<path d="M13.5252 33.7112H12.6689V34.5675H13.5252V33.7112Z" fill="#54679B"/>
<path d="M13.5252 32.8463H12.6689V33.71H13.5252V32.8463Z" fill="#4A5A7F"/>
<path d="M13.5252 31.9912H12.6689V32.8475H13.5252V31.9912Z" fill="black"/>
<path d="M13.5252 31.1263H12.6689V31.99H13.5252V31.1263Z" fill="#2D3D54"/>
<path d="M13.5252 30.2712H12.6689V31.1275H13.5252V30.2712Z" fill="#2D3D54"/>
<path d="M13.5252 29.4062H12.6689V30.27H13.5252V29.4062Z" fill="#1C2C3F"/>
<path d="M13.5252 28.5438H12.6689V29.4075H13.5252V28.5438Z" fill="black"/>
<path d="M13.5252 27.6888H12.6689V28.545H13.5252V27.6888Z" fill="#54679B"/>
<path d="M13.5252 26.8238H12.6689V27.6875H13.5252V26.8238Z" fill="#54679B"/>
<path d="M13.5252 25.9688H12.6689V26.825H13.5252V25.9688Z" fill="#54679B"/>
<path d="M13.5252 25.1038H12.6689V25.9675H13.5252V25.1038Z" fill="#4A5A7F"/>
<path d="M13.5252 24.25H12.6689V25.1063H13.5252V24.25Z" fill="black"/>
<path d="M12.6675 36.2938H11.8037V37.15H12.6675V36.2938Z" fill="black"/>
<path d="M12.6675 35.4287H11.8037V36.2925H12.6675V35.4287Z" fill="#4A5A7F"/>
<path d="M12.6675 34.565H11.8037V35.4288H12.6675V34.565Z" fill="#54679B"/>
<path d="M12.6675 33.7112H11.8037V34.5675H12.6675V33.7112Z" fill="black"/>
<path d="M12.6675 32.8463H11.8037V33.71H12.6675V32.8463Z" fill="black"/>
<path d="M12.6675 31.9912H11.8037V32.8475H12.6675V31.9912Z" fill="black"/>
<path d="M12.6675 31.1263H11.8037V31.99H12.6675V31.1263Z" fill="#2D3D54"/>
<path d="M12.6675 30.2712H11.8037V31.1275H12.6675V30.2712Z" fill="#2D3D54"/>
<path d="M12.6675 29.4062H11.8037V30.27H12.6675V29.4062Z" fill="#1C2C3F"/>
<path d="M12.6675 28.5438H11.8037V29.4075H12.6675V28.5438Z" fill="black"/>
<path d="M12.6675 27.6888H11.8037V28.545H12.6675V27.6888Z" fill="black"/>
<path d="M12.6675 26.8238H11.8037V27.6875H12.6675V26.8238Z" fill="black"/>
<path d="M12.6675 25.9688H11.8037V26.825H12.6675V25.9688Z" fill="#54679B"/>
<path d="M12.6675 25.1038H11.8037V25.9675H12.6675V25.1038Z" fill="#4A5A7F"/>
<path d="M12.6675 24.25H11.8037V25.1063H12.6675V24.25Z" fill="black"/>
<path d="M11.805 36.2938H10.9487V37.15H11.805V36.2938Z" fill="black"/>
<path d="M11.805 35.4287H10.9487V36.2925H11.805V35.4287Z" fill="#4A5A7F"/>
<path d="M11.805 34.565H10.9487V35.4288H11.805V34.565Z" fill="black"/>
<path d="M11.805 31.1263H10.9487V31.99H11.805V31.1263Z" fill="black"/>
<path d="M11.805 30.2712H10.9487V31.1275H11.805V30.2712Z" fill="#1C2C3F"/>
<path d="M11.805 29.4062H10.9487V30.27H11.805V29.4062Z" fill="black"/>
<path d="M11.805 25.9688H10.9487V26.825H11.805V25.9688Z" fill="black"/>
<path d="M11.805 25.1038H10.9487V25.9675H11.805V25.1038Z" fill="#4A5A7F"/>
<path d="M11.805 24.25H10.9487V25.1063H11.805V24.25Z" fill="black"/>
<path d="M10.9487 36.2938H10.085V37.15H10.9487V36.2938Z" fill="black"/>
<path d="M10.9487 35.4287H10.085V36.2925H10.9487V35.4287Z" fill="black"/>
<path d="M10.9487 31.9912H10.085V32.8475H10.9487V31.9912Z" fill="black"/>
<path d="M10.9487 31.1263H10.085V31.99H10.9487V31.1263Z" fill="#2D3D54"/>
<path d="M10.9487 30.2712H10.085V31.1275H10.9487V30.2712Z" fill="#2D3D54"/>
<path d="M10.9487 29.4062H10.085V30.27H10.9487V29.4062Z" fill="#1C2C3F"/>
<path d="M10.9487 28.5438H10.085V29.4075H10.9487V28.5438Z" fill="black"/>
<path d="M10.9487 25.1038H10.085V25.9675H10.9487V25.1038Z" fill="black"/>
<path d="M10.9487 24.25H10.085V25.1063H10.9487V24.25Z" fill="black"/>
<path d="M10.0862 31.1263H9.22998V31.99H10.0862V31.1263Z" fill="black"/>
<path d="M10.0862 30.2712H9.22998V31.1275H10.0862V30.2712Z" fill="#2D3D54"/>
<path d="M10.0862 29.4062H9.22998V30.27H10.0862V29.4062Z" fill="black"/>
<path d="M9.22996 30.2712H8.36621V31.1275H9.22996V30.2712Z" fill="black"/>
</g>
<defs>
<clipPath id="clip0_69_12152">
<rect width="50" height="50" fill="white"/>
</clipPath>
</defs>
</svg>
