<svg width="50" height="50" viewBox="0 0 50 50" fill="none" xmlns="http://www.w3.org/2000/svg">
<g clip-path="url(#clip0_69_12159)">
<path d="M25.0001 48.2225C37.8255 48.2225 48.2226 37.8254 48.2226 25C48.2226 12.1746 37.8255 1.7775 25.0001 1.7775C12.1747 1.7775 1.77759 12.1746 1.77759 25C1.77759 37.8254 12.1747 48.2225 25.0001 48.2225Z" fill="black"/>
<path d="M25.0001 49.0975C11.7126 49.0975 0.902588 38.2875 0.902588 25C0.902588 11.7125 11.7126 0.902496 25.0001 0.902496C38.2876 0.902496 49.0976 11.7125 49.0976 25C49.0976 38.2875 38.2876 49.0975 25.0001 49.0975ZM25.0001 2.6525C12.6776 2.6525 2.65259 12.6775 2.65259 25C2.65259 37.3225 12.6776 47.3475 25.0001 47.3475C37.3226 47.3475 47.3476 37.3225 47.3476 25C47.3476 12.6775 37.3226 2.6525 25.0001 2.6525Z" fill="#CFAA18"/>
<path d="M38.5962 24.845H37.7949V25.6463H38.5962V24.845Z" fill="black"/>
<path d="M38.5962 24.0525H37.7949V24.8463H38.5962V24.0525Z" fill="black"/>
<path d="M37.7937 26.44H36.9924V27.2413H37.7937V26.44Z" fill="black"/>
<path d="M37.7937 25.6475H36.9924V26.4413H37.7937V25.6475Z" fill="black"/>
<path d="M37.7937 23.25H36.9924V24.0513H37.7937V23.25Z" fill="black"/>
<path d="M36.9935 30.4325H36.1997V31.2338H36.9935V30.4325Z" fill="black"/>
<path d="M36.9935 27.2425H36.1997V28.0363H36.9935V27.2425Z" fill="black"/>
<path d="M36.9935 26.44H36.1997V27.2413H36.9935V26.44Z" fill="black"/>
<path d="M36.9935 22.4488H36.1997V23.25H36.9935V22.4488Z" fill="black"/>
<path d="M36.9935 20.8538H36.1997V21.655H36.9935V20.8538Z" fill="black"/>
<path d="M36.1985 38.415H35.3972V39.2088H36.1985V38.415Z" fill="black"/>
<path d="M36.1985 37.6138H35.3972V38.415H36.1985V37.6138Z" fill="black"/>
<path d="M36.1985 31.2338H35.3972V32.0275H36.1985V31.2338Z" fill="black"/>
<path d="M36.1985 29.6313H35.3972V30.4325H36.1985V29.6313Z" fill="black"/>
<path d="M36.1985 28.8375H35.3972V29.6313H36.1985V28.8375Z" fill="black"/>
<path d="M36.1985 28.035H35.3972V28.8363H36.1985V28.035Z" fill="black"/>
<path d="M36.1985 27.2425H35.3972V28.0363H36.1985V27.2425Z" fill="black"/>
<path d="M36.1985 21.655H35.3972V22.4488H36.1985V21.655Z" fill="black"/>
<path d="M36.1985 20.06H35.3972V20.8538H36.1985V20.06Z" fill="black"/>
<path d="M35.3973 39.21H34.6035V40.0113H35.3973V39.21Z" fill="black"/>
<path d="M35.3973 36.82H34.6035V37.6138H35.3973V36.82Z" fill="black"/>
<path d="M35.3973 35.2175H34.6035V36.0188H35.3973V35.2175Z" fill="black"/>
<path d="M35.3973 34.4225H34.6035V35.2163H35.3973V34.4225Z" fill="black"/>
<path d="M35.3973 33.6225H34.6035V34.4238H35.3973V33.6225Z" fill="black"/>
<path d="M35.3973 31.2338H34.6035V32.0275H35.3973V31.2338Z" fill="black"/>
<path d="M35.3973 28.8375H34.6035V29.6313H35.3973V28.8375Z" fill="black"/>
<path d="M35.3973 22.4488H34.6035V23.25H35.3973V22.4488Z" fill="black"/>
<path d="M35.3973 19.2588H34.6035V20.06H35.3973V19.2588Z" fill="black"/>
<path d="M34.6035 39.21H33.8022V40.0113H34.6035V39.21Z" fill="black"/>
<path d="M34.6035 36.0188H33.8022V36.82H34.6035V36.0188Z" fill="black"/>
<path d="M34.6035 35.2175H33.8022V36.0188H34.6035V35.2175Z" fill="black"/>
<path d="M34.6035 33.6225H33.8022V34.4238H34.6035V33.6225Z" fill="black"/>
<path d="M34.6035 32.8288H33.8022V33.6225H34.6035V32.8288Z" fill="black"/>
<path d="M34.6035 32.0275H33.8022V32.8288H34.6035V32.0275Z" fill="black"/>
<path d="M34.6035 31.2338H33.8022V32.0275H34.6035V31.2338Z" fill="black"/>
<path d="M34.6035 28.035H33.8022V28.8363H34.6035V28.035Z" fill="black"/>
<path d="M34.6035 25.6475H33.8022V26.4413H34.6035V25.6475Z" fill="black"/>
<path d="M34.6035 24.845H33.8022V25.6463H34.6035V24.845Z" fill="black"/>
<path d="M34.6035 24.0525H33.8022V24.8463H34.6035V24.0525Z" fill="black"/>
<path d="M34.6035 23.25H33.8022V24.0513H34.6035V23.25Z" fill="black"/>
<path d="M34.6035 19.2588H33.8022V20.06H34.6035V19.2588Z" fill="black"/>
<path d="M34.6035 18.465H33.8022V19.2588H34.6035V18.465Z" fill="black"/>
<path d="M33.8023 39.21H33.0085V40.0113H33.8023V39.21Z" fill="black"/>
<path d="M33.8023 35.2175H33.0085V36.0188H33.8023V35.2175Z" fill="black"/>
<path d="M33.8023 33.6225H33.0085V34.4238H33.8023V33.6225Z" fill="black"/>
<path d="M33.8023 30.4325H33.0085V31.2338H33.8023V30.4325Z" fill="black"/>
<path d="M33.8023 28.035H33.0085V28.8363H33.8023V28.035Z" fill="black"/>
<path d="M33.8023 27.2425H33.0085V28.0363H33.8023V27.2425Z" fill="black"/>
<path d="M33.8023 26.44H33.0085V27.2413H33.8023V26.44Z" fill="black"/>
<path d="M33.8023 17.6638H33.0085V18.465H33.8023V17.6638Z" fill="black"/>
<path d="M33.0097 39.21H32.2085V40.0113H33.0097V39.21Z" fill="black"/>
<path d="M33.0097 35.2175H32.2085V36.0188H33.0097V35.2175Z" fill="black"/>
<path d="M33.0097 33.6225H32.2085V34.4238H33.0097V33.6225Z" fill="black"/>
<path d="M33.0097 29.6313H32.2085V30.4325H33.0097V29.6313Z" fill="black"/>
<path d="M33.0097 28.8375H32.2085V29.6313H33.0097V28.8375Z" fill="black"/>
<path d="M33.0097 18.465H32.2085V19.2588H33.0097V18.465Z" fill="black"/>
<path d="M32.2073 39.21H31.406V40.0113H32.2073V39.21Z" fill="black"/>
<path d="M32.2073 35.2175H31.406V36.0188H32.2073V35.2175Z" fill="black"/>
<path d="M32.2073 33.6225H31.406V34.4238H32.2073V33.6225Z" fill="black"/>
<path d="M32.2073 29.6313H31.406V30.4325H32.2073V29.6313Z" fill="black"/>
<path d="M32.2073 17.6638H31.406V18.465H32.2073V17.6638Z" fill="black"/>
<path d="M31.4061 39.21H30.6123V40.0113H31.4061V39.21Z" fill="black"/>
<path d="M31.4061 36.0188H30.6123V36.82H31.4061V36.0188Z" fill="black"/>
<path d="M31.4061 35.2175H30.6123V36.0188H31.4061V35.2175Z" fill="black"/>
<path d="M31.4061 33.6225H30.6123V34.4238H31.4061V33.6225Z" fill="black"/>
<path d="M31.4061 30.4325H30.6123V31.2338H31.4061V30.4325Z" fill="black"/>
<path d="M31.4061 16.8625H30.6123V17.6638H31.4061V16.8625Z" fill="black"/>
<path d="M31.4061 16.0688H30.6123V16.8625H31.4061V16.0688Z" fill="black"/>
<path d="M31.4061 15.2675H30.6123V16.0688H31.4061V15.2675Z" fill="black"/>
<path d="M30.6123 38.415H29.811V39.2088H30.6123V38.415Z" fill="black"/>
<path d="M30.6123 37.6138H29.811V38.415H30.6123V37.6138Z" fill="black"/>
<path d="M30.6123 36.82H29.811V37.6138H30.6123V36.82Z" fill="black"/>
<path d="M30.6123 35.2175H29.811V36.0188H30.6123V35.2175Z" fill="black"/>
<path d="M30.6123 34.4225H29.811V35.2163H30.6123V34.4225Z" fill="black"/>
<path d="M30.6123 33.6225H29.811V34.4238H30.6123V33.6225Z" fill="black"/>
<path d="M30.6123 32.8288H29.811V33.6225H30.6123V32.8288Z" fill="black"/>
<path d="M30.6123 32.0275H29.811V32.8288H30.6123V32.0275Z" fill="black"/>
<path d="M30.6123 31.2338H29.811V32.0275H30.6123V31.2338Z" fill="black"/>
<path d="M30.6123 16.8625H29.811V17.6638H30.6123V16.8625Z" fill="black"/>
<path d="M30.6123 14.4738H29.811V15.2675H30.6123V14.4738Z" fill="black"/>
<path d="M29.8111 32.0275H29.0173V32.8288H29.8111V32.0275Z" fill="black"/>
<path d="M29.8111 17.6638H29.0173V18.465H29.8111V17.6638Z" fill="black"/>
<path d="M29.8111 13.6725H29.0173V14.4738H29.8111V13.6725Z" fill="black"/>
<path d="M29.0173 38.415H28.2161V39.2088H29.0173V38.415Z" fill="black"/>
<path d="M29.0173 37.6138H28.2161V38.415H29.0173V37.6138Z" fill="black"/>
<path d="M29.0173 36.82H28.2161V37.6138H29.0173V36.82Z" fill="black"/>
<path d="M29.0173 36.0188H28.2161V36.82H29.0173V36.0188Z" fill="black"/>
<path d="M29.0173 35.2175H28.2161V36.0188H29.0173V35.2175Z" fill="black"/>
<path d="M29.0173 34.4225H28.2161V35.2163H29.0173V34.4225Z" fill="black"/>
<path d="M29.0173 33.6225H28.2161V34.4238H29.0173V33.6225Z" fill="black"/>
<path d="M29.0173 32.8288H28.2161V33.6225H29.0173V32.8288Z" fill="black"/>
<path d="M29.0173 17.6638H28.2161V18.465H29.0173V17.6638Z" fill="black"/>
<path d="M29.0173 13.6725H28.2161V14.4738H29.0173V13.6725Z" fill="black"/>
<path d="M28.2149 39.21H27.4211V40.0113H28.2149V39.21Z" fill="black"/>
<path d="M28.2149 35.2175H27.4211V36.0188H28.2149V35.2175Z" fill="black"/>
<path d="M28.2149 33.6225H27.4211V34.4238H28.2149V33.6225Z" fill="black"/>
<path d="M28.2149 32.0275H27.4211V32.8288H28.2149V32.0275Z" fill="black"/>
<path d="M28.2149 31.2338H27.4211V32.0275H28.2149V31.2338Z" fill="black"/>
<path d="M28.2149 30.4325H27.4211V31.2338H28.2149V30.4325Z" fill="black"/>
<path d="M28.2149 17.6638H27.4211V18.465H28.2149V17.6638Z" fill="black"/>
<path d="M28.2149 13.6725H27.4211V14.4738H28.2149V13.6725Z" fill="black"/>
<path d="M27.4236 39.21H26.6223V40.0113H27.4236V39.21Z" fill="black"/>
<path d="M27.4236 35.2175H26.6223V36.0188H27.4236V35.2175Z" fill="black"/>
<path d="M27.4236 33.6225H26.6223V34.4238H27.4236V33.6225Z" fill="black"/>
<path d="M27.4236 29.6313H26.6223V30.4325H27.4236V29.6313Z" fill="black"/>
<path d="M27.4236 17.6638H26.6223V18.465H27.4236V17.6638Z" fill="black"/>
<path d="M27.4236 13.6725H26.6223V14.4738H27.4236V13.6725Z" fill="black"/>
<path d="M26.6199 39.21H25.8262V40.0113H26.6199V39.21Z" fill="black"/>
<path d="M26.6199 35.2175H25.8262V36.0188H26.6199V35.2175Z" fill="black"/>
<path d="M26.6199 33.6225H25.8262V34.4238H26.6199V33.6225Z" fill="black"/>
<path d="M26.6199 28.8375H25.8262V29.6313H26.6199V28.8375Z" fill="black"/>
<path d="M26.6199 17.6638H25.8262V18.465H26.6199V17.6638Z" fill="black"/>
<path d="M26.6199 13.6725H25.8262V14.4738H26.6199V13.6725Z" fill="black"/>
<path d="M25.8274 39.21H25.0261V40.0113H25.8274V39.21Z" fill="black"/>
<path d="M25.8274 35.2175H25.0261V36.0188H25.8274V35.2175Z" fill="black"/>
<path d="M25.8274 33.6225H25.0261V34.4238H25.8274V33.6225Z" fill="black"/>
<path d="M25.8274 28.8375H25.0261V29.6313H25.8274V28.8375Z" fill="black"/>
<path d="M25.8274 17.6638H25.0261V18.465H25.8274V17.6638Z" fill="black"/>
<path d="M25.8274 14.4738H25.0261V15.2675H25.8274V14.4738Z" fill="black"/>
<path d="M25.0261 39.21H24.2249V40.0113H25.0261V39.21Z" fill="black"/>
<path d="M25.0261 36.82H24.2249V37.6138H25.0261V36.82Z" fill="black"/>
<path d="M25.0261 36.0188H24.2249V36.82H25.0261V36.0188Z" fill="black"/>
<path d="M25.0261 35.2175H24.2249V36.0188H25.0261V35.2175Z" fill="black"/>
<path d="M25.0261 33.6225H24.2249V34.4238H25.0261V33.6225Z" fill="black"/>
<path d="M25.0261 32.8288H24.2249V33.6225H25.0261V32.8288Z" fill="black"/>
<path d="M25.0261 32.0275H24.2249V32.8288H25.0261V32.0275Z" fill="black"/>
<path d="M25.0261 31.2338H24.2249V32.0275H25.0261V31.2338Z" fill="black"/>
<path d="M25.0261 30.4325H24.2249V31.2338H25.0261V30.4325Z" fill="black"/>
<path d="M25.0261 29.6313H24.2249V30.4325H25.0261V29.6313Z" fill="black"/>
<path d="M25.0261 18.465H24.2249V19.2588H25.0261V18.465Z" fill="black"/>
<path d="M25.0261 15.2675H24.2249V16.0688H25.0261V15.2675Z" fill="black"/>
<path d="M24.2249 39.21H23.4312V40.0113H24.2249V39.21Z" fill="black"/>
<path d="M24.2249 36.82H23.4312V37.6138H24.2249V36.82Z" fill="black"/>
<path d="M24.2249 35.2175H23.4312V36.0188H24.2249V35.2175Z" fill="black"/>
<path d="M24.2249 34.4225H23.4312V35.2163H24.2249V34.4225Z" fill="black"/>
<path d="M24.2249 33.6225H23.4312V34.4238H24.2249V33.6225Z" fill="black"/>
<path d="M24.2249 30.4325H23.4312V31.2338H24.2249V30.4325Z" fill="black"/>
<path d="M24.2249 28.035H23.4312V28.8363H24.2249V28.035Z" fill="black"/>
<path d="M24.2249 27.2425H23.4312V28.0363H24.2249V27.2425Z" fill="black"/>
<path d="M24.2249 20.8538H23.4312V21.655H24.2249V20.8538Z" fill="black"/>
<path d="M24.2249 20.06H23.4312V20.8538H24.2249V20.06Z" fill="black"/>
<path d="M24.2249 19.2588H23.4312V20.06H24.2249V19.2588Z" fill="black"/>
<path d="M24.2249 18.465H23.4312V19.2588H24.2249V18.465Z" fill="black"/>
<path d="M24.2249 17.6638H23.4312V18.465H24.2249V17.6638Z" fill="black"/>
<path d="M24.2249 16.8625H23.4312V17.6638H24.2249V16.8625Z" fill="black"/>
<path d="M24.2249 16.0688H23.4312V16.8625H24.2249V16.0688Z" fill="black"/>
<path d="M23.4311 39.21H22.6299V40.0113H23.4311V39.21Z" fill="black"/>
<path d="M23.4311 36.82H22.6299V37.6138H23.4311V36.82Z" fill="black"/>
<path d="M23.4311 29.6313H22.6299V30.4325H23.4311V29.6313Z" fill="black"/>
<path d="M23.4311 28.8375H22.6299V29.6313H23.4311V28.8375Z" fill="black"/>
<path d="M23.4311 26.44H22.6299V27.2413H23.4311V26.44Z" fill="black"/>
<path d="M23.4311 25.6475H22.6299V26.4413H23.4311V25.6475Z" fill="black"/>
<path d="M23.4311 24.845H22.6299V25.6463H23.4311V24.845Z" fill="black"/>
<path d="M23.4311 24.0525H22.6299V24.8463H23.4311V24.0525Z" fill="black"/>
<path d="M23.4311 23.25H22.6299V24.0513H23.4311V23.25Z" fill="black"/>
<path d="M23.4311 22.4488H22.6299V23.25H23.4311V22.4488Z" fill="black"/>
<path d="M23.4311 21.655H22.6299V22.4488H23.4311V21.655Z" fill="black"/>
<path d="M23.4311 19.2588H22.6299V20.06H23.4311V19.2588Z" fill="black"/>
<path d="M22.6299 38.415H21.8362V39.2088H22.6299V38.415Z" fill="black"/>
<path d="M22.6299 37.6138H21.8362V38.415H22.6299V37.6138Z" fill="black"/>
<path d="M22.6299 24.845H21.8362V25.6463H22.6299V24.845Z" fill="black"/>
<path d="M22.6299 20.06H21.8362V20.8538H22.6299V20.06Z" fill="black"/>
<path d="M21.8349 25.6475H21.0337V26.4413H21.8349V25.6475Z" fill="black"/>
<path d="M21.8349 20.8538H21.0337V21.655H21.8349V20.8538Z" fill="black"/>
<path d="M21.0335 25.6475H20.2397V26.4413H21.0335V25.6475Z" fill="black"/>
<path d="M21.0335 23.25H20.2397V24.0513H21.0335V23.25Z" fill="black"/>
<path d="M21.0335 22.4488H20.2397V23.25H21.0335V22.4488Z" fill="black"/>
<path d="M21.0335 21.655H20.2397V22.4488H21.0335V21.655Z" fill="black"/>
<path d="M21.0335 20.06H20.2397V20.8538H21.0335V20.06Z" fill="black"/>
<path d="M21.0335 19.2588H20.2397V20.06H21.0335V19.2588Z" fill="black"/>
<path d="M21.0335 18.465H20.2397V19.2588H21.0335V18.465Z" fill="black"/>
<path d="M21.0335 17.6638H20.2397V18.465H21.0335V17.6638Z" fill="black"/>
<path d="M21.0335 16.8625H20.2397V17.6638H21.0335V16.8625Z" fill="black"/>
<path d="M21.0335 16.0688H20.2397V16.8625H21.0335V16.0688Z" fill="black"/>
<path d="M20.2412 26.44H19.4399V27.2413H20.2412V26.44Z" fill="black"/>
<path d="M20.2412 23.25H19.4399V24.0513H20.2412V23.25Z" fill="black"/>
<path d="M20.2412 20.8538H19.4399V21.655H20.2412V20.8538Z" fill="black"/>
<path d="M20.2412 15.2675H19.4399V16.0688H20.2412V15.2675Z" fill="black"/>
<path d="M19.4385 26.44H18.6372V27.2413H19.4385V26.44Z" fill="black"/>
<path d="M19.4385 24.0525H18.6372V24.8463H19.4385V24.0525Z" fill="black"/>
<path d="M19.4385 20.06H18.6372V20.8538H19.4385V20.06Z" fill="black"/>
<path d="M19.4385 16.0688H18.6372V16.8625H19.4385V16.0688Z" fill="black"/>
<path d="M18.6385 33.6225H17.8447V34.4238H18.6385V33.6225Z" fill="black"/>
<path d="M18.6385 32.8288H17.8447V33.6225H18.6385V32.8288Z" fill="black"/>
<path d="M18.6385 27.2425H17.8447V28.0363H18.6385V27.2425Z" fill="black"/>
<path d="M18.6385 24.845H17.8447V25.6463H18.6385V24.845Z" fill="black"/>
<path d="M18.6385 19.2588H17.8447V20.06H18.6385V19.2588Z" fill="black"/>
<path d="M18.6385 16.8625H17.8447V17.6638H18.6385V16.8625Z" fill="black"/>
<path d="M18.6385 14.4738H17.8447V15.2675H18.6385V14.4738Z" fill="black"/>
<path d="M17.8435 34.4225H17.0422V35.2163H17.8435V34.4225Z" fill="black"/>
<path d="M17.8435 32.0275H17.0422V32.8288H17.8435V32.0275Z" fill="black"/>
<path d="M17.8435 31.2338H17.0422V32.0275H17.8435V31.2338Z" fill="black"/>
<path d="M17.8435 30.4325H17.0422V31.2338H17.8435V30.4325Z" fill="black"/>
<path d="M17.8435 29.6313H17.0422V30.4325H17.8435V29.6313Z" fill="black"/>
<path d="M17.8435 28.8375H17.0422V29.6313H17.8435V28.8375Z" fill="black"/>
<path d="M17.8435 28.035H17.0422V28.8363H17.8435V28.035Z" fill="black"/>
<path d="M17.8435 24.0525H17.0422V24.8463H17.8435V24.0525Z" fill="black"/>
<path d="M17.8435 23.25H17.0422V24.0513H17.8435V23.25Z" fill="black"/>
<path d="M17.8435 22.4488H17.0422V23.25H17.8435V22.4488Z" fill="black"/>
<path d="M17.8435 21.655H17.0422V22.4488H17.8435V21.655Z" fill="black"/>
<path d="M17.8435 20.8538H17.0422V21.655H17.8435V20.8538Z" fill="black"/>
<path d="M17.8435 20.06H17.0422V20.8538H17.8435V20.06Z" fill="black"/>
<path d="M17.8435 19.2588H17.0422V20.06H17.8435V19.2588Z" fill="black"/>
<path d="M17.8435 18.465H17.0422V19.2588H17.8435V18.465Z" fill="black"/>
<path d="M17.8435 17.6638H17.0422V18.465H17.8435V17.6638Z" fill="black"/>
<path d="M17.8435 16.8625H17.0422V17.6638H17.8435V16.8625Z" fill="black"/>
<path d="M17.8435 16.0688H17.0422V16.8625H17.8435V16.0688Z" fill="black"/>
<path d="M17.8435 15.2675H17.0422V16.0688H17.8435V15.2675Z" fill="black"/>
<path d="M17.8435 13.6725H17.0422V14.4738H17.8435V13.6725Z" fill="black"/>
<path d="M17.0423 35.2175H16.2485V36.0188H17.0423V35.2175Z" fill="black"/>
<path d="M17.0423 28.035H16.2485V28.8363H17.0423V28.035Z" fill="black"/>
<path d="M17.0423 23.25H16.2485V24.0513H17.0423V23.25Z" fill="black"/>
<path d="M17.0423 13.6725H16.2485V14.4738H17.0423V13.6725Z" fill="black"/>
<path d="M16.2485 34.4225H15.4473V35.2163H16.2485V34.4225Z" fill="black"/>
<path d="M16.2485 32.0275H15.4473V32.8288H16.2485V32.0275Z" fill="black"/>
<path d="M16.2485 31.2338H15.4473V32.0275H16.2485V31.2338Z" fill="black"/>
<path d="M16.2485 30.4325H15.4473V31.2338H16.2485V30.4325Z" fill="black"/>
<path d="M16.2485 29.6313H15.4473V30.4325H16.2485V29.6313Z" fill="black"/>
<path d="M16.2485 28.8375H15.4473V29.6313H16.2485V28.8375Z" fill="black"/>
<path d="M16.2485 28.035H15.4473V28.8363H16.2485V28.035Z" fill="black"/>
<path d="M16.2485 23.25H15.4473V24.0513H16.2485V23.25Z" fill="black"/>
<path d="M16.2485 22.4488H15.4473V23.25H16.2485V22.4488Z" fill="black"/>
<path d="M16.2485 21.655H15.4473V22.4488H16.2485V21.655Z" fill="black"/>
<path d="M16.2485 20.8538H15.4473V21.655H16.2485V20.8538Z" fill="black"/>
<path d="M16.2485 20.06H15.4473V20.8538H16.2485V20.06Z" fill="black"/>
<path d="M16.2485 19.2588H15.4473V20.06H16.2485V19.2588Z" fill="black"/>
<path d="M16.2485 18.465H15.4473V19.2588H16.2485V18.465Z" fill="black"/>
<path d="M16.2485 17.6638H15.4473V18.465H16.2485V17.6638Z" fill="black"/>
<path d="M16.2485 16.8625H15.4473V17.6638H16.2485V16.8625Z" fill="black"/>
<path d="M16.2485 16.0688H15.4473V16.8625H16.2485V16.0688Z" fill="black"/>
<path d="M16.2485 15.2675H15.4473V16.0688H16.2485V15.2675Z" fill="black"/>
<path d="M16.2485 13.6725H15.4473V14.4738H16.2485V13.6725Z" fill="black"/>
<path d="M15.4473 33.6225H14.6536V34.4238H15.4473V33.6225Z" fill="black"/>
<path d="M15.4473 32.8288H14.6536V33.6225H15.4473V32.8288Z" fill="black"/>
<path d="M15.4473 27.2425H14.6536V28.0363H15.4473V27.2425Z" fill="black"/>
<path d="M15.4473 26.44H14.6536V27.2413H15.4473V26.44Z" fill="black"/>
<path d="M15.4473 25.6475H14.6536V26.4413H15.4473V25.6475Z" fill="black"/>
<path d="M15.4473 24.845H14.6536V25.6463H15.4473V24.845Z" fill="black"/>
<path d="M15.4473 24.0525H14.6536V24.8463H15.4473V24.0525Z" fill="black"/>
<path d="M15.4473 19.2588H14.6536V20.06H15.4473V19.2588Z" fill="black"/>
<path d="M15.4473 16.8625H14.6536V17.6638H15.4473V16.8625Z" fill="black"/>
<path d="M15.4473 14.4738H14.6536V15.2675H15.4473V14.4738Z" fill="black"/>
<path d="M14.6535 19.2588H13.8523V20.06H14.6535V19.2588Z" fill="black"/>
<path d="M14.6535 16.8625H13.8523V17.6638H14.6535V16.8625Z" fill="black"/>
<path d="M13.8523 20.06H13.0586V20.8538H13.8523V20.06Z" fill="black"/>
<path d="M13.8523 16.0688H13.0586V16.8625H13.8523V16.0688Z" fill="black"/>
<path d="M13.0586 21.655H12.2573V22.4488H13.0586V21.655Z" fill="black"/>
<path d="M13.0586 20.8538H12.2573V21.655H13.0586V20.8538Z" fill="black"/>
<path d="M13.0586 15.2675H12.2573V16.0688H13.0586V15.2675Z" fill="black"/>
<path d="M13.0586 14.4738H12.2573V15.2675H13.0586V14.4738Z" fill="black"/>
<path d="M37.7913 24.845H36.9976V25.6463H37.7913V24.845Z" fill="#373370"/>
<path d="M37.7913 24.0525H36.9976V24.8462H37.7913V24.0525Z" fill="#373370"/>
<path d="M36.9988 25.6475H36.1975V26.4412H36.9988V25.6475Z" fill="#373370"/>
<path d="M36.9988 24.845H36.1975V25.6463H36.9988V24.845Z" fill="#373370"/>
<path d="M36.9988 24.0525H36.1975V24.8462H36.9988V24.0525Z" fill="#373370"/>
<path d="M36.9988 23.25H36.1975V24.0513H36.9988V23.25Z" fill="#373370"/>
<path d="M36.1961 30.4325H35.4023V31.2337H36.1961V30.4325Z" fill="#E2A066"/>
<path d="M36.1961 26.44H35.4023V27.2413H36.1961V26.44Z" fill="#373370"/>
<path d="M36.1961 25.6475H35.4023V26.4412H36.1961V25.6475Z" fill="#373370"/>
<path d="M36.1961 24.845H35.4023V25.6463H36.1961V24.845Z" fill="#453D7C"/>
<path d="M36.1961 24.0525H35.4023V24.8462H36.1961V24.0525Z" fill="#453D7C"/>
<path d="M36.1961 23.25H35.4023V24.0513H36.1961V23.25Z" fill="#373370"/>
<path d="M36.1961 22.4488H35.4023V23.25H36.1961V22.4488Z" fill="#373370"/>
<path d="M36.1961 20.8538H35.4023V21.655H36.1961V20.8538Z" fill="#CFAA18"/>
<path d="M35.4023 38.415H34.6011V39.2088H35.4023V38.415Z" fill="#7C6916"/>
<path d="M35.4023 37.6138H34.6011V38.415H35.4023V37.6138Z" fill="#7C6916"/>
<path d="M35.4023 30.4325H34.6011V31.2337H35.4023V30.4325Z" fill="#E2A066"/>
<path d="M35.4023 29.6313H34.6011V30.4325H35.4023V29.6313Z" fill="#E2A066"/>
<path d="M35.4023 28.035H34.6011V28.8363H35.4023V28.035Z" fill="#453D7C"/>
<path d="M35.4023 27.2425H34.6011V28.0362H35.4023V27.2425Z" fill="#453D7C"/>
<path d="M35.4023 26.44H34.6011V27.2413H35.4023V26.44Z" fill="#453D7C"/>
<path d="M35.4023 25.6475H34.6011V26.4412H35.4023V25.6475Z" fill="#453D7C"/>
<path d="M35.4023 24.845H34.6011V25.6463H35.4023V24.845Z" fill="#453D7C"/>
<path d="M35.4023 24.0525H34.6011V24.8462H35.4023V24.0525Z" fill="#453D7C"/>
<path d="M35.4023 23.25H34.6011V24.0513H35.4023V23.25Z" fill="#453D7C"/>
<path d="M35.4023 21.655H34.6011V22.4487H35.4023V21.655Z" fill="#CFAA18"/>
<path d="M35.4023 20.8538H34.6011V21.655H35.4023V20.8538Z" fill="#CFAA18"/>
<path d="M35.4023 20.06H34.6011V20.8537H35.4023V20.06Z" fill="#CFAA18"/>
<path d="M34.6011 38.415H33.8074V39.2088H34.6011V38.415Z" fill="#7C6916"/>
<path d="M34.6011 37.6138H33.8074V38.415H34.6011V37.6138Z" fill="#7C6916"/>
<path d="M34.6011 36.82H33.8074V37.6138H34.6011V36.82Z" fill="#7C6916"/>
<path d="M34.6011 34.4225H33.8074V35.2163H34.6011V34.4225Z" fill="#7C6916"/>
<path d="M34.6011 30.4325H33.8074V31.2337H34.6011V30.4325Z" fill="#E2A066"/>
<path d="M34.6011 29.6313H33.8074V30.4325H34.6011V29.6313Z" fill="#E2A066"/>
<path d="M34.6011 28.8375H33.8074V29.6312H34.6011V28.8375Z" fill="#E2A066"/>
<path d="M34.6011 27.2425H33.8074V28.0362H34.6011V27.2425Z" fill="#453D7C"/>
<path d="M34.6011 26.44H33.8074V27.2413H34.6011V26.44Z" fill="#453D7C"/>
<path d="M34.6011 22.4488H33.8074V23.25H34.6011V22.4488Z" fill="#CFAA18"/>
<path d="M34.6011 21.655H33.8074V22.4487H34.6011V21.655Z" fill="#B28A0D"/>
<path d="M34.6011 20.8538H33.8074V21.655H34.6011V20.8538Z" fill="#B28A0D"/>
<path d="M34.6011 20.06H33.8074V20.8537H34.6011V20.06Z" fill="#CFAA18"/>
<path d="M33.8074 38.415H33.0061V39.2088H33.8074V38.415Z" fill="#A18824"/>
<path d="M33.8074 37.6138H33.0061V38.415H33.8074V37.6138Z" fill="#7C6916"/>
<path d="M33.8074 36.82H33.0061V37.6138H33.8074V36.82Z" fill="#7C6916"/>
<path d="M33.8074 36.0187H33.0061V36.82H33.8074V36.0187Z" fill="#7C6916"/>
<path d="M33.8074 34.4225H33.0061V35.2163H33.8074V34.4225Z" fill="#7C6916"/>
<path d="M33.8074 32.8288H33.0061V33.6225H33.8074V32.8288Z" fill="#373370"/>
<path d="M33.8074 32.0275H33.0061V32.8287H33.8074V32.0275Z" fill="#373370"/>
<path d="M33.8074 31.2338H33.0061V32.0275H33.8074V31.2338Z" fill="#373370"/>
<path d="M33.8074 29.6313H33.0061V30.4325H33.8074V29.6313Z" fill="#E2A066"/>
<path d="M33.8074 28.8375H33.0061V29.6312H33.8074V28.8375Z" fill="#E2A066"/>
<path d="M33.8074 25.6475H33.0061V26.4412H33.8074V25.6475Z" fill="#CFAA18"/>
<path d="M33.8074 24.845H33.0061V25.6463H33.8074V24.845Z" fill="#CFAA18"/>
<path d="M33.8074 24.0525H33.0061V24.8462H33.8074V24.0525Z" fill="#CFAA18"/>
<path d="M33.8074 23.25H33.0061V24.0513H33.8074V23.25Z" fill="#CFAA18"/>
<path d="M33.8074 22.4488H33.0061V23.25H33.8074V22.4488Z" fill="#CFAA18"/>
<path d="M33.8074 21.655H33.0061V22.4487H33.8074V21.655Z" fill="#CFAA18"/>
<path d="M33.8074 20.8538H33.0061V21.655H33.8074V20.8538Z" fill="#B28A0D"/>
<path d="M33.8074 20.06H33.0061V20.8537H33.8074V20.06Z" fill="#B28A0D"/>
<path d="M33.8074 19.2588H33.0061V20.06H33.8074V19.2588Z" fill="#CFAA18"/>
<path d="M33.8074 18.465H33.0061V19.2587H33.8074V18.465Z" fill="#CFAA18"/>
<path d="M33.0061 38.415H32.2048V39.2088H33.0061V38.415Z" fill="#A18824"/>
<path d="M33.0061 37.6138H32.2048V38.415H33.0061V37.6138Z" fill="#A18824"/>
<path d="M33.0061 36.82H32.2048V37.6138H33.0061V36.82Z" fill="#A18824"/>
<path d="M33.0061 36.0187H32.2048V36.82H33.0061V36.0187Z" fill="#A18824"/>
<path d="M33.0061 34.4225H32.2048V35.2163H33.0061V34.4225Z" fill="#7C6916"/>
<path d="M33.0061 32.8288H32.2048V33.6225H33.0061V32.8288Z" fill="#373370"/>
<path d="M33.0061 32.0275H32.2048V32.8287H33.0061V32.0275Z" fill="#373370"/>
<path d="M33.0061 31.2338H32.2048V32.0275H33.0061V31.2338Z" fill="#373370"/>
<path d="M33.0061 30.4325H32.2048V31.2337H33.0061V30.4325Z" fill="#373370"/>
<path d="M33.0061 28.035H32.2048V28.8363H33.0061V28.035Z" fill="#CFAA18"/>
<path d="M33.0061 27.2425H32.2048V28.0362H33.0061V27.2425Z" fill="#CFAA18"/>
<path d="M33.0061 26.44H32.2048V27.2413H33.0061V26.44Z" fill="#CFAA18"/>
<path d="M33.0061 25.6475H32.2048V26.4412H33.0061V25.6475Z" fill="#CFAA18"/>
<path d="M33.0061 24.845H32.2048V25.6463H33.0061V24.845Z" fill="#CFAA18"/>
<path d="M33.0061 24.0525H32.2048V24.8462H33.0061V24.0525Z" fill="#B28A0D"/>
<path d="M33.0061 23.25H32.2048V24.0513H33.0061V23.25Z" fill="#B28A0D"/>
<path d="M33.0061 22.4488H32.2048V23.25H33.0061V22.4488Z" fill="#CFAA18"/>
<path d="M33.0061 21.655H32.2048V22.4487H33.0061V21.655Z" fill="#CFAA18"/>
<path d="M33.0061 20.8538H32.2048V21.655H33.0061V20.8538Z" fill="#CFAA18"/>
<path d="M33.0061 20.06H32.2048V20.8537H33.0061V20.06Z" fill="#CFAA18"/>
<path d="M33.0061 19.2588H32.2048V20.06H33.0061V19.2588Z" fill="#CFAA18"/>
<path d="M33.0061 13.6725H32.2048V14.4738H33.0061V13.6725Z" fill="black"/>
<path d="M33.0061 12.8788H32.2048V13.6725H33.0061V12.8788Z" fill="black"/>
<path d="M33.0061 12.0775H32.2048V12.8788H33.0061V12.0775Z" fill="black"/>
<path d="M33.0061 11.2838H32.2048V12.0775H33.0061V11.2838Z" fill="black"/>
<path d="M32.2037 38.415H31.4099V39.2088H32.2037V38.415Z" fill="#A18824"/>
<path d="M32.2037 37.6138H31.4099V38.415H32.2037V37.6138Z" fill="#A18824"/>
<path d="M32.2037 36.82H31.4099V37.6138H32.2037V36.82Z" fill="#A18824"/>
<path d="M32.2037 36.0187H31.4099V36.82H32.2037V36.0187Z" fill="#A18824"/>
<path d="M32.2037 34.4225H31.4099V35.2163H32.2037V34.4225Z" fill="#A18824"/>
<path d="M32.2037 32.8288H31.4099V33.6225H32.2037V32.8288Z" fill="#453D7C"/>
<path d="M32.2037 32.0275H31.4099V32.8287H32.2037V32.0275Z" fill="#453D7C"/>
<path d="M32.2037 31.2338H31.4099V32.0275H32.2037V31.2338Z" fill="#453D7C"/>
<path d="M32.2037 30.4325H31.4099V31.2337H32.2037V30.4325Z" fill="#373370"/>
<path d="M32.2037 28.8375H31.4099V29.6312H32.2037V28.8375Z" fill="#CFAA18"/>
<path d="M32.2037 28.035H31.4099V28.8363H32.2037V28.035Z" fill="#CFAA18"/>
<path d="M32.2037 27.2425H31.4099V28.0362H32.2037V27.2425Z" fill="#CFAA18"/>
<path d="M32.2037 26.44H31.4099V27.2413H32.2037V26.44Z" fill="#CFAA18"/>
<path d="M32.2037 25.6475H31.4099V26.4412H32.2037V25.6475Z" fill="#B28A0D"/>
<path d="M32.2037 24.845H31.4099V25.6463H32.2037V24.845Z" fill="#B28A0D"/>
<path d="M32.2037 24.0525H31.4099V24.8462H32.2037V24.0525Z" fill="#CFAA18"/>
<path d="M32.2037 23.25H31.4099V24.0513H32.2037V23.25Z" fill="#CFAA18"/>
<path d="M32.2037 22.4488H31.4099V23.25H32.2037V22.4488Z" fill="#CFAA18"/>
<path d="M32.2037 21.655H31.4099V22.4487H32.2037V21.655Z" fill="#CFAA18"/>
<path d="M32.2037 20.8538H31.4099V21.655H32.2037V20.8538Z" fill="#CFAA18"/>
<path d="M32.2037 20.06H31.4099V20.8537H32.2037V20.06Z" fill="#CFAA18"/>
<path d="M32.2037 19.2588H31.4099V20.06H32.2037V19.2588Z" fill="#CFAA18"/>
<path d="M32.2037 18.465H31.4099V19.2587H32.2037V18.465Z" fill="#CFAA18"/>
<path d="M32.2037 14.4738H31.4099V15.2675H32.2037V14.4738Z" fill="black"/>
<path d="M32.2037 13.6725H31.4099V14.4738H32.2037V13.6725Z" fill="#CFAA18"/>
<path d="M32.2037 12.8788H31.4099V13.6725H32.2037V12.8788Z" fill="#CFAA18"/>
<path d="M32.2037 12.0775H31.4099V12.8788H32.2037V12.0775Z" fill="black"/>
<path d="M31.4111 38.415H30.6099V39.2088H31.4111V38.415Z" fill="#A18824"/>
<path d="M31.4111 37.6138H30.6099V38.415H31.4111V37.6138Z" fill="#A18824"/>
<path d="M31.4111 36.82H30.6099V37.6138H31.4111V36.82Z" fill="#A18824"/>
<path d="M31.4111 34.4225H30.6099V35.2163H31.4111V34.4225Z" fill="#A18824"/>
<path d="M31.4111 32.8288H30.6099V33.6225H31.4111V32.8288Z" fill="#453D7C"/>
<path d="M31.4111 32.0275H30.6099V32.8287H31.4111V32.0275Z" fill="#453D7C"/>
<path d="M31.4111 31.2338H30.6099V32.0275H31.4111V31.2338Z" fill="#453D7C"/>
<path d="M31.4111 29.6313H30.6099V30.4325H31.4111V29.6313Z" fill="#CFAA18"/>
<path d="M31.4111 28.8375H30.6099V29.6312H31.4111V28.8375Z" fill="#CFAA18"/>
<path d="M31.4111 28.035H30.6099V28.8363H31.4111V28.035Z" fill="#CFAA18"/>
<path d="M31.4111 27.2425H30.6099V28.0362H31.4111V27.2425Z" fill="#B28A0D"/>
<path d="M31.4111 26.44H30.6099V27.2413H31.4111V26.44Z" fill="#CFAA18"/>
<path d="M31.4111 25.6475H30.6099V26.4412H31.4111V25.6475Z" fill="#CFAA18"/>
<path d="M31.4111 24.845H30.6099V25.6463H31.4111V24.845Z" fill="#B28A0D"/>
<path d="M31.4111 24.0525H30.6099V24.8462H31.4111V24.0525Z" fill="#B28A0D"/>
<path d="M31.4111 23.25H30.6099V24.0513H31.4111V23.25Z" fill="#CFAA18"/>
<path d="M31.4111 22.4488H30.6099V23.25H31.4111V22.4488Z" fill="#CFAA18"/>
<path d="M31.4111 21.655H30.6099V22.4487H31.4111V21.655Z" fill="#B28A0D"/>
<path d="M31.4111 20.8538H30.6099V21.655H31.4111V20.8538Z" fill="#B28A0D"/>
<path d="M31.4111 20.06H30.6099V20.8537H31.4111V20.06Z" fill="#CFAA18"/>
<path d="M31.4111 19.2588H30.6099V20.06H31.4111V19.2588Z" fill="#B28A0D"/>
<path d="M31.4111 18.465H30.6099V19.2587H31.4111V18.465Z" fill="#CFAA18"/>
<path d="M31.4111 17.6638H30.6099V18.465H31.4111V17.6638Z" fill="#CFAA18"/>
<path d="M31.4111 14.4738H30.6099V15.2675H31.4111V14.4738Z" fill="#CFAA18"/>
<path d="M31.4111 13.6725H30.6099V14.4738H31.4111V13.6725Z" fill="#CFAA18"/>
<path d="M31.4111 12.8788H30.6099V13.6725H31.4111V12.8788Z" fill="black"/>
<path d="M30.6099 30.4325H29.8162V31.2337H30.6099V30.4325Z" fill="#CFAA18"/>
<path d="M30.6099 29.6313H29.8162V30.4325H30.6099V29.6313Z" fill="#CFAA18"/>
<path d="M30.6099 28.8375H29.8162V29.6312H30.6099V28.8375Z" fill="#CFAA18"/>
<path d="M30.6099 28.035H29.8162V28.8363H30.6099V28.035Z" fill="#CFAA18"/>
<path d="M30.6099 27.2425H29.8162V28.0362H30.6099V27.2425Z" fill="#CFAA18"/>
<path d="M30.6099 26.44H29.8162V27.2413H30.6099V26.44Z" fill="#B28A0D"/>
<path d="M30.6099 25.6475H29.8162V26.4412H30.6099V25.6475Z" fill="#CFAA18"/>
<path d="M30.6099 24.845H29.8162V25.6463H30.6099V24.845Z" fill="#CFAA18"/>
<path d="M30.6099 24.0525H29.8162V24.8462H30.6099V24.0525Z" fill="#CFAA18"/>
<path d="M30.6099 23.25H29.8162V24.0513H30.6099V23.25Z" fill="#CFAA18"/>
<path d="M30.6099 22.4488H29.8162V23.25H30.6099V22.4488Z" fill="#CFAA18"/>
<path d="M30.6099 21.655H29.8162V22.4487H30.6099V21.655Z" fill="#CFAA18"/>
<path d="M30.6099 20.8538H29.8162V21.655H30.6099V20.8538Z" fill="#CFAA18"/>
<path d="M30.6099 20.06H29.8162V20.8537H30.6099V20.06Z" fill="#B28A0D"/>
<path d="M30.6099 19.2588H29.8162V20.06H30.6099V19.2588Z" fill="#B28A0D"/>
<path d="M30.6099 18.465H29.8162V19.2587H30.6099V18.465Z" fill="#CE8A57"/>
<path d="M30.6099 17.6638H29.8162V18.465H30.6099V17.6638Z" fill="#CE8A57"/>
<path d="M30.6099 16.0688H29.8162V16.8625H30.6099V16.0688Z" fill="#2C2E3A"/>
<path d="M30.6099 15.2675H29.8162V16.0688H30.6099V15.2675Z" fill="#091442"/>
<path d="M30.6099 13.6725H29.8162V14.4738H30.6099V13.6725Z" fill="black"/>
<path d="M29.8161 31.2338H29.0149V32.0275H29.8161V31.2338Z" fill="#CFAA18"/>
<path d="M29.8161 30.4325H29.0149V31.2337H29.8161V30.4325Z" fill="#B28A0D"/>
<path d="M29.8161 29.6313H29.0149V30.4325H29.8161V29.6313Z" fill="#B28A0D"/>
<path d="M29.8161 28.8375H29.0149V29.6312H29.8161V28.8375Z" fill="#CFAA18"/>
<path d="M29.8161 28.035H29.0149V28.8363H29.8161V28.035Z" fill="#CFAA18"/>
<path d="M29.8161 27.2425H29.0149V28.0362H29.8161V27.2425Z" fill="#CFAA18"/>
<path d="M29.8161 26.44H29.0149V27.2413H29.8161V26.44Z" fill="#CFAA18"/>
<path d="M29.8161 25.6475H29.0149V26.4412H29.8161V25.6475Z" fill="#B28A0D"/>
<path d="M29.8161 24.845H29.0149V25.6463H29.8161V24.845Z" fill="#B28A0D"/>
<path d="M29.8161 24.0525H29.0149V24.8462H29.8161V24.0525Z" fill="#CFAA18"/>
<path d="M29.8161 23.25H29.0149V24.0513H29.8161V23.25Z" fill="#CFAA18"/>
<path d="M29.8161 22.4488H29.0149V23.25H29.8161V22.4488Z" fill="#B28A0D"/>
<path d="M29.8161 21.655H29.0149V22.4487H29.8161V21.655Z" fill="#CFAA18"/>
<path d="M29.8161 20.8538H29.0149V21.655H29.8161V20.8538Z" fill="#CFAA18"/>
<path d="M29.8161 20.06H29.0149V20.8537H29.8161V20.06Z" fill="#CFAA18"/>
<path d="M29.8161 19.2588H29.0149V20.06H29.8161V19.2588Z" fill="#CE8A57"/>
<path d="M29.8161 18.465H29.0149V19.2587H29.8161V18.465Z" fill="#E2A066"/>
<path d="M29.8161 16.8625H29.0149V17.6637H29.8161V16.8625Z" fill="#091442"/>
<path d="M29.8161 16.0688H29.0149V16.8625H29.8161V16.0688Z" fill="#091442"/>
<path d="M29.8161 15.2675H29.0149V16.0688H29.8161V15.2675Z" fill="#091442"/>
<path d="M29.8161 14.4738H29.0149V15.2675H29.8161V14.4738Z" fill="#091442"/>
<path d="M29.0149 32.0275H28.2212V32.8287H29.0149V32.0275Z" fill="#CFAA18"/>
<path d="M29.0149 31.2338H28.2212V32.0275H29.0149V31.2338Z" fill="#CFAA18"/>
<path d="M29.0149 30.4325H28.2212V31.2337H29.0149V30.4325Z" fill="#CFAA18"/>
<path d="M29.0149 29.6313H28.2212V30.4325H29.0149V29.6313Z" fill="#CFAA18"/>
<path d="M29.0149 28.8375H28.2212V29.6312H29.0149V28.8375Z" fill="#CFAA18"/>
<path d="M29.0149 28.035H28.2212V28.8363H29.0149V28.035Z" fill="#B28A0D"/>
<path d="M29.0149 27.2425H28.2212V28.0362H29.0149V27.2425Z" fill="#CFAA18"/>
<path d="M29.0149 26.44H28.2212V27.2413H29.0149V26.44Z" fill="#CFAA18"/>
<path d="M29.0149 25.6475H28.2212V26.4412H29.0149V25.6475Z" fill="#CFAA18"/>
<path d="M29.0149 24.845H28.2212V25.6463H29.0149V24.845Z" fill="#B28A0D"/>
<path d="M29.0149 24.0525H28.2212V24.8462H29.0149V24.0525Z" fill="#CFAA18"/>
<path d="M29.0149 23.25H28.2212V24.0513H29.0149V23.25Z" fill="#CFAA18"/>
<path d="M29.0149 22.4488H28.2212V23.25H29.0149V22.4488Z" fill="#B28A0D"/>
<path d="M29.0149 21.655H28.2212V22.4487H29.0149V21.655Z" fill="#CFAA18"/>
<path d="M29.0149 20.8538H28.2212V21.655H29.0149V20.8538Z" fill="#CFAA18"/>
<path d="M29.0149 20.06H28.2212V20.8537H29.0149V20.06Z" fill="#FFC78F"/>
<path d="M29.0149 19.2588H28.2212V20.06H29.0149V19.2588Z" fill="#FFC78F"/>
<path d="M29.0149 18.465H28.2212V19.2587H29.0149V18.465Z" fill="#E2A066"/>
<path d="M29.0149 16.8625H28.2212V17.6637H29.0149V16.8625Z" fill="#2C2E3A"/>
<path d="M29.0149 16.0688H28.2212V16.8625H29.0149V16.0688Z" fill="#101A54"/>
<path d="M29.0149 15.2675H28.2212V16.0688H29.0149V15.2675Z" fill="#101A54"/>
<path d="M29.0149 14.4738H28.2212V15.2675H29.0149V14.4738Z" fill="#091442"/>
<path d="M28.2212 38.415H27.4199V39.2088H28.2212V38.415Z" fill="#7C6916"/>
<path d="M28.2212 37.6138H27.4199V38.415H28.2212V37.6138Z" fill="#7C6916"/>
<path d="M28.2212 36.82H27.4199V37.6138H28.2212V36.82Z" fill="#7C6916"/>
<path d="M28.2212 36.0187H27.4199V36.82H28.2212V36.0187Z" fill="#7C6916"/>
<path d="M28.2212 34.4225H27.4199V35.2163H28.2212V34.4225Z" fill="#7C6916"/>
<path d="M28.2212 32.8288H27.4199V33.6225H28.2212V32.8288Z" fill="#373370"/>
<path d="M28.2212 29.6313H27.4199V30.4325H28.2212V29.6313Z" fill="#CFAA18"/>
<path d="M28.2212 28.8375H27.4199V29.6312H28.2212V28.8375Z" fill="#CFAA18"/>
<path d="M28.2212 28.035H27.4199V28.8363H28.2212V28.035Z" fill="#B28A0D"/>
<path d="M28.2212 27.2425H27.4199V28.0362H28.2212V27.2425Z" fill="#B28A0D"/>
<path d="M28.2212 26.44H27.4199V27.2413H28.2212V26.44Z" fill="#B28A0D"/>
<path d="M28.2212 25.6475H27.4199V26.4412H28.2212V25.6475Z" fill="#CFAA18"/>
<path d="M28.2212 24.845H27.4199V25.6463H28.2212V24.845Z" fill="#CFAA18"/>
<path d="M28.2212 24.0525H27.4199V24.8462H28.2212V24.0525Z" fill="#B28A0D"/>
<path d="M28.2212 23.25H27.4199V24.0513H28.2212V23.25Z" fill="#CFAA18"/>
<path d="M28.2212 22.4488H27.4199V23.25H28.2212V22.4488Z" fill="#CFAA18"/>
<path d="M28.2212 21.655H27.4199V22.4487H28.2212V21.655Z" fill="#B28A0D"/>
<path d="M28.2212 20.8538H27.4199V21.655H28.2212V20.8538Z" fill="#CFAA18"/>
<path d="M28.2212 20.06H27.4199V20.8537H28.2212V20.06Z" fill="#FFC78F"/>
<path d="M28.2212 19.2588H27.4199V20.06H28.2212V19.2588Z" fill="#FFC78F"/>
<path d="M28.2212 18.465H27.4199V19.2587H28.2212V18.465Z" fill="#E2A066"/>
<path d="M28.2212 16.8625H27.4199V17.6637H28.2212V16.8625Z" fill="#101A54"/>
<path d="M28.2212 16.0688H27.4199V16.8625H28.2212V16.0688Z" fill="#101A54"/>
<path d="M28.2212 15.2675H27.4199V16.0688H28.2212V15.2675Z" fill="#101A54"/>
<path d="M28.2212 14.4738H27.4199V15.2675H28.2212V14.4738Z" fill="#101A54"/>
<path d="M27.4199 38.415H26.6187V39.2088H27.4199V38.415Z" fill="#A18824"/>
<path d="M27.4199 37.6138H26.6187V38.415H27.4199V37.6138Z" fill="#7C6916"/>
<path d="M27.4199 36.82H26.6187V37.6138H27.4199V36.82Z" fill="#7C6916"/>
<path d="M27.4199 36.0187H26.6187V36.82H27.4199V36.0187Z" fill="#7C6916"/>
<path d="M27.4199 34.4225H26.6187V35.2163H27.4199V34.4225Z" fill="#7C6916"/>
<path d="M27.4199 32.8288H26.6187V33.6225H27.4199V32.8288Z" fill="#373370"/>
<path d="M27.4199 32.0275H26.6187V32.8287H27.4199V32.0275Z" fill="#373370"/>
<path d="M27.4199 31.2338H26.6187V32.0275H27.4199V31.2338Z" fill="#373370"/>
<path d="M27.4199 30.4325H26.6187V31.2337H27.4199V30.4325Z" fill="#373370"/>
<path d="M27.4199 28.8375H26.6187V29.6312H27.4199V28.8375Z" fill="#CFAA18"/>
<path d="M27.4199 28.035H26.6187V28.8363H27.4199V28.035Z" fill="#CFAA18"/>
<path d="M27.4199 27.2425H26.6187V28.0362H27.4199V27.2425Z" fill="#CFAA18"/>
<path d="M27.4199 26.44H26.6187V27.2413H27.4199V26.44Z" fill="#B28A0D"/>
<path d="M27.4199 25.6475H26.6187V26.4412H27.4199V25.6475Z" fill="#CFAA18"/>
<path d="M27.4199 24.845H26.6187V25.6463H27.4199V24.845Z" fill="#CFAA18"/>
<path d="M27.4199 24.0525H26.6187V24.8462H27.4199V24.0525Z" fill="#CFAA18"/>
<path d="M27.4199 23.25H26.6187V24.0513H27.4199V23.25Z" fill="#CFAA18"/>
<path d="M27.4199 22.4488H26.6187V23.25H27.4199V22.4488Z" fill="#B28A0D"/>
<path d="M27.4199 21.655H26.6187V22.4487H27.4199V21.655Z" fill="#CFAA18"/>
<path d="M27.4199 20.8538H26.6187V21.655H27.4199V20.8538Z" fill="#CFAA18"/>
<path d="M27.4199 20.06H26.6187V20.8537H27.4199V20.06Z" fill="#FFC78F"/>
<path d="M27.4199 19.2588H26.6187V20.06H27.4199V19.2588Z" fill="#FFC78F"/>
<path d="M27.4199 18.465H26.6187V19.2587H27.4199V18.465Z" fill="#E2A066"/>
<path d="M27.4199 16.8625H26.6187V17.6637H27.4199V16.8625Z" fill="#2C2E3A"/>
<path d="M27.4199 16.0688H26.6187V16.8625H27.4199V16.0688Z" fill="#101A54"/>
<path d="M27.4199 15.2675H26.6187V16.0688H27.4199V15.2675Z" fill="#101A54"/>
<path d="M27.4199 14.4738H26.6187V15.2675H27.4199V14.4738Z" fill="#101A54"/>
<path d="M26.6187 38.415H25.825V39.2088H26.6187V38.415Z" fill="#A18824"/>
<path d="M26.6187 37.6138H25.825V38.415H26.6187V37.6138Z" fill="#A18824"/>
<path d="M26.6187 36.82H25.825V37.6138H26.6187V36.82Z" fill="#7C6916"/>
<path d="M26.6187 36.0187H25.825V36.82H26.6187V36.0187Z" fill="#7C6916"/>
<path d="M26.6187 34.4225H25.825V35.2163H26.6187V34.4225Z" fill="#7C6916"/>
<path d="M26.6187 32.8288H25.825V33.6225H26.6187V32.8288Z" fill="#453D7C"/>
<path d="M26.6187 32.0275H25.825V32.8287H26.6187V32.0275Z" fill="#453D7C"/>
<path d="M26.6187 31.2338H25.825V32.0275H26.6187V31.2338Z" fill="#453D7C"/>
<path d="M26.6187 30.4325H25.825V31.2337H26.6187V30.4325Z" fill="#373370"/>
<path d="M26.6187 29.6313H25.825V30.4325H26.6187V29.6313Z" fill="#373370"/>
<path d="M26.6187 28.035H25.825V28.8363H26.6187V28.035Z" fill="#CFAA18"/>
<path d="M26.6187 27.2425H25.825V28.0362H26.6187V27.2425Z" fill="#CFAA18"/>
<path d="M26.6187 26.44H25.825V27.2413H26.6187V26.44Z" fill="#CFAA18"/>
<path d="M26.6187 25.6475H25.825V26.4412H26.6187V25.6475Z" fill="#CFAA18"/>
<path d="M26.6187 24.845H25.825V25.6463H26.6187V24.845Z" fill="#CFAA18"/>
<path d="M26.6187 24.0525H25.825V24.8462H26.6187V24.0525Z" fill="#CFAA18"/>
<path d="M26.6187 23.25H25.825V24.0513H26.6187V23.25Z" fill="#CFAA18"/>
<path d="M26.6187 22.4488H25.825V23.25H26.6187V22.4488Z" fill="#B28A0D"/>
<path d="M26.6187 21.655H25.825V22.4487H26.6187V21.655Z" fill="#CFAA18"/>
<path d="M26.6187 20.8538H25.825V21.655H26.6187V20.8538Z" fill="#CFAA18"/>
<path d="M26.6187 20.06H25.825V20.8537H26.6187V20.06Z" fill="#FFC78F"/>
<path d="M26.6187 19.2588H25.825V20.06H26.6187V19.2588Z" fill="#FFC78F"/>
<path d="M26.6187 18.465H25.825V19.2587H26.6187V18.465Z" fill="#E2A066"/>
<path d="M26.6187 16.8625H25.825V17.6637H26.6187V16.8625Z" fill="#101A54"/>
<path d="M26.6187 16.0688H25.825V16.8625H26.6187V16.0688Z" fill="#101A54"/>
<path d="M26.6187 15.2675H25.825V16.0688H26.6187V15.2675Z" fill="#101A54"/>
<path d="M26.6187 14.4738H25.825V15.2675H26.6187V14.4738Z" fill="#101A54"/>
<path d="M25.8237 38.415H25.0225V39.2088H25.8237V38.415Z" fill="#A18824"/>
<path d="M25.8237 37.6138H25.0225V38.415H25.8237V37.6138Z" fill="#A18824"/>
<path d="M25.8237 36.82H25.0225V37.6138H25.8237V36.82Z" fill="#A18824"/>
<path d="M25.8237 36.0187H25.0225V36.82H25.8237V36.0187Z" fill="#A18824"/>
<path d="M25.8237 34.4225H25.0225V35.2163H25.8237V34.4225Z" fill="#7C6916"/>
<path d="M25.8237 32.8288H25.0225V33.6225H25.8237V32.8288Z" fill="#453D7C"/>
<path d="M25.8237 32.0275H25.0225V32.8287H25.8237V32.0275Z" fill="#453D7C"/>
<path d="M25.8237 31.2338H25.0225V32.0275H25.8237V31.2338Z" fill="#453D7C"/>
<path d="M25.8237 30.4325H25.0225V31.2337H25.8237V30.4325Z" fill="#453D7C"/>
<path d="M25.8237 29.6313H25.0225V30.4325H25.8237V29.6313Z" fill="#373370"/>
<path d="M25.8237 28.035H25.0225V28.8363H25.8237V28.035Z" fill="#CFAA18"/>
<path d="M25.8237 27.2425H25.0225V28.0362H25.8237V27.2425Z" fill="#CFAA18"/>
<path d="M25.8237 26.44H25.0225V27.2413H25.8237V26.44Z" fill="#CFAA18"/>
<path d="M25.8237 25.6475H25.0225V26.4412H25.8237V25.6475Z" fill="#B28A0D"/>
<path d="M25.8237 24.845H25.0225V25.6463H25.8237V24.845Z" fill="#B28A0D"/>
<path d="M25.8237 24.0525H25.0225V24.8462H25.8237V24.0525Z" fill="#B28A0D"/>
<path d="M25.8237 23.25H25.0225V24.0513H25.8237V23.25Z" fill="#B28A0D"/>
<path d="M25.8237 22.4488H25.0225V23.25H25.8237V22.4488Z" fill="#CFAA18"/>
<path d="M25.8237 21.655H25.0225V22.4487H25.8237V21.655Z" fill="#B28A0D"/>
<path d="M25.8237 20.8538H25.0225V21.655H25.8237V20.8538Z" fill="#B28A0D"/>
<path d="M25.8237 20.06H25.0225V20.8537H25.8237V20.06Z" fill="#CFAA18"/>
<path d="M25.8237 19.2588H25.0225V20.06H25.8237V19.2588Z" fill="#FFC78F"/>
<path d="M25.8237 18.465H25.0225V19.2587H25.8237V18.465Z" fill="#E2A066"/>
<path d="M25.8237 16.8625H25.0225V17.6637H25.8237V16.8625Z" fill="#2C2E3A"/>
<path d="M25.8237 16.0688H25.0225V16.8625H25.8237V16.0688Z" fill="#101A54"/>
<path d="M25.8237 15.2675H25.0225V16.0688H25.8237V15.2675Z" fill="#101A54"/>
<path d="M25.8237 13.6725H25.0225V14.4738H25.8237V13.6725Z" fill="black"/>
<path d="M25.0225 38.415H24.2288V39.2088H25.0225V38.415Z" fill="#A18824"/>
<path d="M25.0225 37.6138H24.2288V38.415H25.0225V37.6138Z" fill="#A18824"/>
<path d="M25.0225 34.4225H24.2288V35.2163H25.0225V34.4225Z" fill="#A18824"/>
<path d="M25.0225 28.8375H24.2288V29.6312H25.0225V28.8375Z" fill="#CFAA18"/>
<path d="M25.0225 28.035H24.2288V28.8363H25.0225V28.035Z" fill="#CFAA18"/>
<path d="M25.0225 27.2425H24.2288V28.0362H25.0225V27.2425Z" fill="#CFAA18"/>
<path d="M25.0225 26.44H24.2288V27.2413H25.0225V26.44Z" fill="#B28A0D"/>
<path d="M25.0225 25.6475H24.2288V26.4412H25.0225V25.6475Z" fill="#B28A0D"/>
<path d="M25.0225 24.845H24.2288V25.6463H25.0225V24.845Z" fill="#CFAA18"/>
<path d="M25.0225 24.0525H24.2288V24.8462H25.0225V24.0525Z" fill="#CFAA18"/>
<path d="M25.0225 23.25H24.2288V24.0513H25.0225V23.25Z" fill="#B28A0D"/>
<path d="M25.0225 22.4488H24.2288V23.25H25.0225V22.4488Z" fill="#B28A0D"/>
<path d="M25.0225 21.655H24.2288V22.4487H25.0225V21.655Z" fill="#CFAA18"/>
<path d="M25.0225 20.8538H24.2288V21.655H25.0225V20.8538Z" fill="#CFAA18"/>
<path d="M25.0225 20.06H24.2288V20.8537H25.0225V20.06Z" fill="#CFAA18"/>
<path d="M25.0225 19.2588H24.2288V20.06H25.0225V19.2588Z" fill="#CFAA18"/>
<path d="M25.0225 17.6638H24.2288V18.465H25.0225V17.6638Z" fill="#2C2E3A"/>
<path d="M25.0225 16.8625H24.2288V17.6637H25.0225V16.8625Z" fill="#101A54"/>
<path d="M25.0225 16.0688H24.2288V16.8625H25.0225V16.0688Z" fill="#101A54"/>
<path d="M25.0225 14.4738H24.2288V15.2675H25.0225V14.4738Z" fill="#CFAA18"/>
<path d="M25.0225 13.6725H24.2288V14.4738H25.0225V13.6725Z" fill="#CFAA18"/>
<path d="M25.0225 12.8788H24.2288V13.6725H25.0225V12.8788Z" fill="black"/>
<path d="M24.2287 38.415H23.4275V39.2088H24.2287V38.415Z" fill="#A18824"/>
<path d="M24.2287 37.6138H23.4275V38.415H24.2287V37.6138Z" fill="#A18824"/>
<path d="M24.2287 29.6313H23.4275V30.4325H24.2287V29.6313Z" fill="#CFAA18"/>
<path d="M24.2287 28.8375H23.4275V29.6312H24.2287V28.8375Z" fill="#CFAA18"/>
<path d="M24.2287 26.44H23.4275V27.2413H24.2287V26.44Z" fill="#CFAA18"/>
<path d="M24.2287 25.6475H23.4275V26.4412H24.2287V25.6475Z" fill="#CFAA18"/>
<path d="M24.2287 24.845H23.4275V25.6463H24.2287V24.845Z" fill="#CFAA18"/>
<path d="M24.2287 24.0525H23.4275V24.8462H24.2287V24.0525Z" fill="#CFAA18"/>
<path d="M24.2287 23.25H23.4275V24.0513H24.2287V23.25Z" fill="#CFAA18"/>
<path d="M24.2287 22.4488H23.4275V23.25H24.2287V22.4488Z" fill="#A18824"/>
<path d="M24.2287 21.655H23.4275V22.4487H24.2287V21.655Z" fill="#CFAA18"/>
<path d="M24.2287 15.2675H23.4275V16.0688H24.2287V15.2675Z" fill="black"/>
<path d="M24.2287 14.4738H23.4275V15.2675H24.2287V14.4738Z" fill="black"/>
<path d="M24.2287 13.6725H23.4275V14.4738H24.2287V13.6725Z" fill="#CFAA18"/>
<path d="M24.2287 12.8788H23.4275V13.6725H24.2287V12.8788Z" fill="#CFAA18"/>
<path d="M24.2287 12.0775H23.4275V12.8788H24.2287V12.0775Z" fill="black"/>
<path d="M23.4275 38.415H22.6338V39.2088H23.4275V38.415Z" fill="#A18824"/>
<path d="M23.4275 37.6138H22.6338V38.415H23.4275V37.6138Z" fill="#A18824"/>
<path d="M23.4275 20.8538H22.6338V21.655H23.4275V20.8538Z" fill="#373370"/>
<path d="M23.4275 20.06H22.6338V20.8537H23.4275V20.06Z" fill="#373370"/>
<path d="M23.4275 14.4738H22.6338V15.2675H23.4275V14.4738Z" fill="black"/>
<path d="M23.4275 13.6725H22.6338V14.4738H23.4275V13.6725Z" fill="black"/>
<path d="M23.4275 12.8788H22.6338V13.6725H23.4275V12.8788Z" fill="black"/>
<path d="M23.4275 12.0775H22.6338V12.8788H23.4275V12.0775Z" fill="black"/>
<path d="M23.4275 11.2838H22.6338V12.0775H23.4275V11.2838Z" fill="black"/>
<path d="M22.6338 24.0525H21.8325V24.8462H22.6338V24.0525Z" fill="#373370"/>
<path d="M22.6338 23.25H21.8325V24.0513H22.6338V23.25Z" fill="#373370"/>
<path d="M22.6338 22.4488H21.8325V23.25H22.6338V22.4488Z" fill="#373370"/>
<path d="M22.6338 21.655H21.8325V22.4487H22.6338V21.655Z" fill="#373370"/>
<path d="M22.6338 20.8538H21.8325V21.655H22.6338V20.8538Z" fill="#373370"/>
<path d="M21.8323 24.845H21.0386V25.6463H21.8323V24.845Z" fill="#373370"/>
<path d="M21.8323 24.0525H21.0386V24.8462H21.8323V24.0525Z" fill="#373370"/>
<path d="M21.8323 23.25H21.0386V24.0513H21.8323V23.25Z" fill="#373370"/>
<path d="M21.8323 22.4488H21.0386V23.25H21.8323V22.4488Z" fill="#373370"/>
<path d="M21.8323 21.655H21.0386V22.4487H21.8323V21.655Z" fill="#373370"/>
<path d="M21.0388 24.845H20.2375V25.6463H21.0388V24.845Z" fill="#373370"/>
<path d="M21.0388 24.0525H20.2375V24.8462H21.0388V24.0525Z" fill="#373370"/>
<path d="M20.2375 25.6475H19.4363V26.4412H20.2375V25.6475Z" fill="#373370"/>
<path d="M20.2375 24.845H19.4363V25.6463H20.2375V24.845Z" fill="#373370"/>
<path d="M20.2375 24.0525H19.4363V24.8462H20.2375V24.0525Z" fill="#373370"/>
<path d="M20.2375 20.06H19.4363V20.8537H20.2375V20.06Z" fill="#5C5C7A"/>
<path d="M20.2375 19.2588H19.4363V20.06H20.2375V19.2588Z" fill="#5C5C7A"/>
<path d="M20.2375 18.465H19.4363V19.2587H20.2375V18.465Z" fill="#5C5C7A"/>
<path d="M20.2375 17.6638H19.4363V18.465H20.2375V17.6638Z" fill="#5C5C7A"/>
<path d="M20.2375 16.8625H19.4363V17.6637H20.2375V16.8625Z" fill="#5C5C7A"/>
<path d="M20.2375 16.0688H19.4363V16.8625H20.2375V16.0688Z" fill="#5C5C7A"/>
<path d="M19.4361 25.6475H18.6423V26.4412H19.4361V25.6475Z" fill="#373370"/>
<path d="M19.4361 24.845H18.6423V25.6463H19.4361V24.845Z" fill="#373370"/>
<path d="M19.4361 19.2588H18.6423V20.06H19.4361V19.2588Z" fill="#727296"/>
<path d="M19.4361 18.465H18.6423V19.2587H19.4361V18.465Z" fill="#727296"/>
<path d="M19.4361 17.6638H18.6423V18.465H19.4361V17.6638Z" fill="#727296"/>
<path d="M19.4361 16.8625H18.6423V17.6637H19.4361V16.8625Z" fill="#727296"/>
<path d="M18.6426 26.44H17.8413V27.2413H18.6426V26.44Z" fill="#242D63"/>
<path d="M18.6426 25.6475H17.8413V26.4412H18.6426V25.6475Z" fill="#242D63"/>
<path d="M18.6426 18.465H17.8413V19.2587H18.6426V18.465Z" fill="#727296"/>
<path d="M18.6426 17.6638H17.8413V18.465H18.6426V17.6638Z" fill="#727296"/>
<path d="M17.8411 33.6225H17.0474V34.4237H17.8411V33.6225Z" fill="#5C5C7A"/>
<path d="M17.8411 32.8288H17.0474V33.6225H17.8411V32.8288Z" fill="#5C5C7A"/>
<path d="M17.8411 27.2425H17.0474V28.0362H17.8411V27.2425Z" fill="#E2A066"/>
<path d="M17.8411 26.44H17.0474V27.2413H17.8411V26.44Z" fill="#E2A066"/>
<path d="M17.8411 25.6475H17.0474V26.4412H17.8411V25.6475Z" fill="#E2A066"/>
<path d="M17.8411 24.845H17.0474V25.6463H17.8411V24.845Z" fill="#E2A066"/>
<path d="M17.8411 14.4738H17.0474V15.2675H17.8411V14.4738Z" fill="#5C5C7A"/>
<path d="M17.0473 34.4225H16.2461V35.2163H17.0473V34.4225Z" fill="#727296"/>
<path d="M17.0473 33.6225H16.2461V34.4237H17.0473V33.6225Z" fill="#727296"/>
<path d="M17.0473 32.8288H16.2461V33.6225H17.0473V32.8288Z" fill="#5C5C7A"/>
<path d="M17.0473 32.0275H16.2461V32.8287H17.0473V32.0275Z" fill="#773725"/>
<path d="M17.0473 31.2338H16.2461V32.0275H17.0473V31.2338Z" fill="#773725"/>
<path d="M17.0473 30.4325H16.2461V31.2337H17.0473V30.4325Z" fill="#773725"/>
<path d="M17.0473 29.6313H16.2461V30.4325H17.0473V29.6313Z" fill="#773725"/>
<path d="M17.0473 28.8375H16.2461V29.6312H17.0473V28.8375Z" fill="#773725"/>
<path d="M17.0473 27.2425H16.2461V28.0362H17.0473V27.2425Z" fill="#E2A066"/>
<path d="M17.0473 26.44H16.2461V27.2413H17.0473V26.44Z" fill="#E2A066"/>
<path d="M17.0473 25.6475H16.2461V26.4412H17.0473V25.6475Z" fill="#E2A066"/>
<path d="M17.0473 24.845H16.2461V25.6463H17.0473V24.845Z" fill="#E2A066"/>
<path d="M17.0473 24.0525H16.2461V24.8462H17.0473V24.0525Z" fill="#E2A066"/>
<path d="M17.0473 22.4488H16.2461V23.25H17.0473V22.4488Z" fill="#773725"/>
<path d="M17.0473 21.655H16.2461V22.4487H17.0473V21.655Z" fill="#773725"/>
<path d="M17.0473 20.8538H16.2461V21.655H17.0473V20.8538Z" fill="#773725"/>
<path d="M17.0473 20.06H16.2461V20.8537H17.0473V20.06Z" fill="#773725"/>
<path d="M17.0473 19.2588H16.2461V20.06H17.0473V19.2588Z" fill="#773725"/>
<path d="M17.0473 18.465H16.2461V19.2587H17.0473V18.465Z" fill="#773725"/>
<path d="M17.0473 17.6638H16.2461V18.465H17.0473V17.6638Z" fill="#773725"/>
<path d="M17.0473 16.8625H16.2461V17.6637H17.0473V16.8625Z" fill="#773725"/>
<path d="M17.0473 16.0688H16.2461V16.8625H17.0473V16.0688Z" fill="#773725"/>
<path d="M17.0473 15.2675H16.2461V16.0688H17.0473V15.2675Z" fill="#773725"/>
<path d="M17.0473 14.4738H16.2461V15.2675H17.0473V14.4738Z" fill="#5C5C7A"/>
<path d="M16.2461 33.6225H15.4524V34.4237H16.2461V33.6225Z" fill="#727296"/>
<path d="M16.2461 32.8288H15.4524V33.6225H16.2461V32.8288Z" fill="#727296"/>
<path d="M16.2461 27.2425H15.4524V28.0362H16.2461V27.2425Z" fill="#E2A066"/>
<path d="M16.2461 26.44H15.4524V27.2413H16.2461V26.44Z" fill="#E2A066"/>
<path d="M16.2461 25.6475H15.4524V26.4412H16.2461V25.6475Z" fill="#E2A066"/>
<path d="M16.2461 24.845H15.4524V25.6463H16.2461V24.845Z" fill="#E2A066"/>
<path d="M16.2461 24.0525H15.4524V24.8462H16.2461V24.0525Z" fill="#E2A066"/>
<path d="M16.2461 14.4738H15.4524V15.2675H16.2461V14.4738Z" fill="#727296"/>
<path d="M15.4524 18.465H14.6511V19.2587H15.4524V18.465Z" fill="#5C5C7A"/>
<path d="M15.4524 17.6638H14.6511V18.465H15.4524V17.6638Z" fill="#5C5C7A"/>
<path d="M14.6511 18.465H13.8499V19.2587H14.6511V18.465Z" fill="#5C5C7A"/>
<path d="M14.6511 17.6638H13.8499V18.465H14.6511V17.6638Z" fill="#5C5C7A"/>
<path d="M13.8499 19.2588H13.0562V20.06H13.8499V19.2588Z" fill="#5C5C7A"/>
<path d="M13.8499 18.465H13.0562V19.2587H13.8499V18.465Z" fill="#5C5C7A"/>
<path d="M13.8499 17.6638H13.0562V18.465H13.8499V17.6638Z" fill="#5C5C7A"/>
<path d="M13.8499 16.8625H13.0562V17.6637H13.8499V16.8625Z" fill="#5C5C7A"/>
<path d="M13.0561 20.06H12.2549V20.8537H13.0561V20.06Z" fill="#5C5C7A"/>
<path d="M13.0561 19.2588H12.2549V20.06H13.0561V19.2588Z" fill="#5C5C7A"/>
<path d="M13.0561 18.465H12.2549V19.2587H13.0561V18.465Z" fill="#5C5C7A"/>
<path d="M13.0561 17.6638H12.2549V18.465H13.0561V17.6638Z" fill="#5C5C7A"/>
<path d="M13.0561 16.8625H12.2549V17.6637H13.0561V16.8625Z" fill="#5C5C7A"/>
<path d="M13.0561 16.0688H12.2549V16.8625H13.0561V16.0688Z" fill="#5C5C7A"/>
<path d="M12.2549 22.4488H11.4612V23.25H12.2549V22.4488Z" fill="black"/>
<path d="M12.2549 21.655H11.4612V22.4487H12.2549V21.655Z" fill="#727296"/>
<path d="M12.2549 20.8538H11.4612V21.655H12.2549V20.8538Z" fill="#727296"/>
<path d="M12.2549 20.06H11.4612V20.8537H12.2549V20.06Z" fill="#727296"/>
<path d="M12.2549 19.2588H11.4612V20.06H12.2549V19.2588Z" fill="#5C5C7A"/>
<path d="M12.2549 18.465H11.4612V19.2587H12.2549V18.465Z" fill="#5C5C7A"/>
<path d="M12.2549 17.6638H11.4612V18.465H12.2549V17.6638Z" fill="#5C5C7A"/>
<path d="M12.2549 16.8625H11.4612V17.6637H12.2549V16.8625Z" fill="#5C5C7A"/>
<path d="M12.2549 16.0688H11.4612V16.8625H12.2549V16.0688Z" fill="#727296"/>
<path d="M12.2549 15.2675H11.4612V16.0688H12.2549V15.2675Z" fill="#727296"/>
<path d="M12.2549 14.4738H11.4612V15.2675H12.2549V14.4738Z" fill="#727296"/>
<path d="M12.2549 13.6725H11.4612V14.4738H12.2549V13.6725Z" fill="black"/>
<path d="M11.4612 21.655H10.6599V22.4487H11.4612V21.655Z" fill="black"/>
<path d="M11.4612 20.8538H10.6599V21.655H11.4612V20.8538Z" fill="#727296"/>
<path d="M11.4612 20.06H10.6599V20.8537H11.4612V20.06Z" fill="#727296"/>
<path d="M11.4612 19.2588H10.6599V20.06H11.4612V19.2588Z" fill="#727296"/>
<path d="M11.4612 18.465H10.6599V19.2587H11.4612V18.465Z" fill="#727296"/>
<path d="M11.4612 17.6638H10.6599V18.465H11.4612V17.6638Z" fill="#727296"/>
<path d="M11.4612 16.8625H10.6599V17.6637H11.4612V16.8625Z" fill="#727296"/>
<path d="M11.4612 16.0688H10.6599V16.8625H11.4612V16.0688Z" fill="#727296"/>
<path d="M11.4612 15.2675H10.6599V16.0688H11.4612V15.2675Z" fill="#727296"/>
<path d="M11.4612 14.4738H10.6599V15.2675H11.4612V14.4738Z" fill="black"/>
<path d="M10.66 20.8538H9.86621V21.655H10.66V20.8538Z" fill="black"/>
<path d="M10.66 20.06H9.86621V20.8537H10.66V20.06Z" fill="#727296"/>
<path d="M10.66 19.2588H9.86621V20.06H10.66V19.2588Z" fill="#727296"/>
<path d="M10.66 18.465H9.86621V19.2587H10.66V18.465Z" fill="#727296"/>
<path d="M10.66 17.6638H9.86621V18.465H10.66V17.6638Z" fill="#727296"/>
<path d="M10.66 16.8625H9.86621V17.6637H10.66V16.8625Z" fill="#727296"/>
<path d="M10.66 16.0688H9.86621V16.8625H10.66V16.0688Z" fill="#727296"/>
<path d="M10.66 15.2675H9.86621V16.0688H10.66V15.2675Z" fill="black"/>
<path d="M9.86619 20.06H9.06494V20.8537H9.86619V20.06Z" fill="black"/>
<path d="M9.86619 19.2588H9.06494V20.06H9.86619V19.2588Z" fill="black"/>
<path d="M9.86619 18.465H9.06494V19.2587H9.86619V18.465Z" fill="black"/>
<path d="M9.86619 17.6638H9.06494V18.465H9.86619V17.6638Z" fill="black"/>
<path d="M9.86619 16.8625H9.06494V17.6637H9.86619V16.8625Z" fill="black"/>
<path d="M9.86619 16.0688H9.06494V16.8625H9.86619V16.0688Z" fill="black"/>
</g>
<defs>
<clipPath id="clip0_69_12159">
<rect width="50" height="50" fill="white"/>
</clipPath>
</defs>
</svg>
