<svg width="50" height="50" viewBox="0 0 50 50" fill="none" xmlns="http://www.w3.org/2000/svg">
<g clip-path="url(#clip0_69_12154)">
<path d="M48.2223 25C48.2223 37.825 37.8248 48.2225 24.9998 48.2225C12.1748 48.2225 1.77734 37.825 1.77734 25C1.77734 12.175 12.1736 1.7775 24.9998 1.7775C37.8261 1.7775 48.2223 12.175 48.2223 25Z" fill="black"/>
<path d="M24.9998 49.0975C11.7123 49.0975 0.902344 38.2875 0.902344 25C0.902344 11.7125 11.7123 0.902496 24.9998 0.902496C38.2873 0.902496 49.0973 11.7125 49.0973 25C49.0973 38.2875 38.2873 49.0975 24.9998 49.0975ZM24.9998 2.6525C12.6773 2.6525 2.65234 12.6775 2.65234 25C2.65234 37.3225 12.6773 47.3475 24.9998 47.3475C37.3223 47.3475 47.3473 37.3225 47.3473 25C47.3473 12.6775 37.3223 2.6525 24.9998 2.6525Z" fill="#751545"/>
<path d="M37.0762 33.7762H36.1899V34.6625H37.0762V33.7762Z" fill="black"/>
<path d="M37.0762 32.88H36.1899V33.775H37.0762V32.88Z" fill="black"/>
<path d="M36.1875 35.5587H35.2925V36.445H36.1875V35.5587Z" fill="black"/>
<path d="M36.1875 34.6638H35.2925V35.5588H36.1875V34.6638Z" fill="black"/>
<path d="M36.1875 33.7762H35.2925V34.6625H36.1875V33.7762Z" fill="#FF5290"/>
<path d="M36.1875 32.88H35.2925V33.775H36.1875V32.88Z" fill="#FF5290"/>
<path d="M36.1875 31.9937H35.2925V32.88H36.1875V31.9937Z" fill="black"/>
<path d="M35.2925 36.4463H34.3975V37.3413H35.2925V36.4463Z" fill="black"/>
<path d="M35.2925 35.5587H34.3975V36.445H35.2925V35.5587Z" fill="#FF5290"/>
<path d="M35.2925 34.6638H34.3975V35.5588H35.2925V34.6638Z" fill="#FF5290"/>
<path d="M35.2925 33.7762H34.3975V34.6625H35.2925V33.7762Z" fill="#FF5290"/>
<path d="M35.2925 32.88H34.3975V33.775H35.2925V32.88Z" fill="#FF5290"/>
<path d="M35.2925 31.9937H34.3975V32.88H35.2925V31.9937Z" fill="black"/>
<path d="M34.3975 36.4463H33.5112V37.3413H34.3975V36.4463Z" fill="black"/>
<path d="M34.3975 35.5587H33.5112V36.445H34.3975V35.5587Z" fill="#FF5290"/>
<path d="M34.3975 34.6638H33.5112V35.5588H34.3975V34.6638Z" fill="#FF5A8D"/>
<path d="M34.3975 33.7762H33.5112V34.6625H34.3975V33.7762Z" fill="#FF5A8D"/>
<path d="M34.3975 32.88H33.5112V33.775H34.3975V32.88Z" fill="#FF5290"/>
<path d="M34.3975 31.9937H33.5112V32.88H34.3975V31.9937Z" fill="black"/>
<path d="M34.3975 15.9312H33.5112V16.8262H34.3975V15.9312Z" fill="black"/>
<path d="M34.3975 14.1487H33.5112V15.0437H34.3975V14.1487Z" fill="black"/>
<path d="M33.5102 37.3412H32.6152V38.2362H33.5102V37.3412Z" fill="black"/>
<path d="M33.5102 36.4463H32.6152V37.3413H33.5102V36.4463Z" fill="#FF5290"/>
<path d="M33.5102 35.5587H32.6152V36.445H33.5102V35.5587Z" fill="#FF5A8D"/>
<path d="M33.5102 34.6638H32.6152V35.5588H33.5102V34.6638Z" fill="#FF5A8D"/>
<path d="M33.5102 33.7762H32.6152V34.6625H33.5102V33.7762Z" fill="#FF5A8D"/>
<path d="M33.5102 32.88H32.6152V33.775H33.5102V32.88Z" fill="#FF5290"/>
<path d="M33.5102 31.9937H32.6152V32.88H33.5102V31.9937Z" fill="black"/>
<path d="M33.5102 21.2888H32.6152V22.175H33.5102V21.2888Z" fill="black"/>
<path d="M33.5102 20.3925H32.6152V21.2875H33.5102V20.3925Z" fill="black"/>
<path d="M33.5102 16.8275H32.6152V17.7225H33.5102V16.8275Z" fill="black"/>
<path d="M33.5102 15.9312H32.6152V16.8262H33.5102V15.9312Z" fill="#CCBE58"/>
<path d="M33.5102 15.045H32.6152V15.9313H33.5102V15.045Z" fill="black"/>
<path d="M33.5102 14.1487H32.6152V15.0437H33.5102V14.1487Z" fill="#CCBE58"/>
<path d="M33.5102 13.2625H32.6152V14.1488H33.5102V13.2625Z" fill="black"/>
<path d="M32.6138 39.125H31.7275V40.02H32.6138V39.125Z" fill="black"/>
<path d="M32.6138 38.2375H31.7275V39.1237H32.6138V38.2375Z" fill="black"/>
<path d="M32.6138 37.3412H31.7275V38.2362H32.6138V37.3412Z" fill="#FF5A8D"/>
<path d="M32.6138 36.4463H31.7275V37.3413H32.6138V36.4463Z" fill="#FF5A8D"/>
<path d="M32.6138 35.5587H31.7275V36.445H32.6138V35.5587Z" fill="#FF5A8D"/>
<path d="M32.6138 34.6638H31.7275V35.5588H32.6138V34.6638Z" fill="#FF5A8D"/>
<path d="M32.6138 33.7762H31.7275V34.6625H32.6138V33.7762Z" fill="#FF5A8D"/>
<path d="M32.6138 32.88H31.7275V33.775H32.6138V32.88Z" fill="#FF5A8D"/>
<path d="M32.6138 31.9937H31.7275V32.88H32.6138V31.9937Z" fill="black"/>
<path d="M32.6138 22.1762H31.7275V23.0712H32.6138V22.1762Z" fill="black"/>
<path d="M32.6138 21.2888H31.7275V22.175H32.6138V21.2888Z" fill="#FF5290"/>
<path d="M32.6138 20.3925H31.7275V21.2875H32.6138V20.3925Z" fill="#FF5290"/>
<path d="M32.6138 19.5063H31.7275V20.3925H32.6138V19.5063Z" fill="black"/>
<path d="M32.6138 16.8275H31.7275V17.7225H32.6138V16.8275Z" fill="black"/>
<path d="M32.6138 15.9312H31.7275V16.8262H32.6138V15.9312Z" fill="#CCBE58"/>
<path d="M32.6138 15.045H31.7275V15.9313H32.6138V15.045Z" fill="#CCBB69"/>
<path d="M32.6138 14.1487H31.7275V15.0437H32.6138V14.1487Z" fill="#CCBE58"/>
<path d="M32.6138 13.2625H31.7275V14.1488H32.6138V13.2625Z" fill="#CCBE58"/>
<path d="M32.6138 12.3662H31.7275V13.2612H32.6138V12.3662Z" fill="black"/>
<path d="M31.7275 40.02H30.8325V40.9062H31.7275V40.02Z" fill="black"/>
<path d="M31.7275 39.125H30.8325V40.02H31.7275V39.125Z" fill="#FF5290"/>
<path d="M31.7275 38.2375H30.8325V39.1237H31.7275V38.2375Z" fill="#FF5290"/>
<path d="M31.7275 37.3412H30.8325V38.2362H31.7275V37.3412Z" fill="#FF5A8D"/>
<path d="M31.7275 36.4463H30.8325V37.3413H31.7275V36.4463Z" fill="#FF5A8D"/>
<path d="M31.7275 35.5587H30.8325V36.445H31.7275V35.5587Z" fill="#FF5A8D"/>
<path d="M31.7275 34.6638H30.8325V35.5588H31.7275V34.6638Z" fill="#FF5A8D"/>
<path d="M31.7275 33.7762H30.8325V34.6625H31.7275V33.7762Z" fill="#FF5A8D"/>
<path d="M31.7275 32.88H30.8325V33.775H31.7275V32.88Z" fill="#FF5A8D"/>
<path d="M31.7275 31.9937H30.8325V32.88H31.7275V31.9937Z" fill="black"/>
<path d="M31.7275 23.0713H30.8325V23.9663H31.7275V23.0713Z" fill="black"/>
<path d="M31.7275 22.1762H30.8325V23.0712H31.7275V22.1762Z" fill="#FF5A8D"/>
<path d="M31.7275 21.2888H30.8325V22.175H31.7275V21.2888Z" fill="#FF5A8D"/>
<path d="M31.7275 20.3925H30.8325V21.2875H31.7275V20.3925Z" fill="#FF5290"/>
<path d="M31.7275 19.5063H30.8325V20.3925H31.7275V19.5063Z" fill="black"/>
<path d="M31.7275 17.7225H30.8325V18.6088H31.7275V17.7225Z" fill="black"/>
<path d="M31.7275 16.8275H30.8325V17.7225H31.7275V16.8275Z" fill="#CCBE58"/>
<path d="M31.7275 15.9312H30.8325V16.8262H31.7275V15.9312Z" fill="#DBD38B"/>
<path d="M31.7275 15.045H30.8325V15.9313H31.7275V15.045Z" fill="#CCBB69"/>
<path d="M31.7275 14.1487H30.8325V15.0437H31.7275V14.1487Z" fill="#CCBB69"/>
<path d="M31.7275 13.2625H30.8325V14.1488H31.7275V13.2625Z" fill="#CCBE58"/>
<path d="M31.7275 12.3662H30.8325V13.2612H31.7275V12.3662Z" fill="#CCBE58"/>
<path d="M31.7275 11.4788H30.8325V12.365H31.7275V11.4788Z" fill="black"/>
<path d="M30.8311 40.02H29.9448V40.9062H30.8311V40.02Z" fill="black"/>
<path d="M30.8311 39.125H29.9448V40.02H30.8311V39.125Z" fill="#FF5290"/>
<path d="M30.8311 38.2375H29.9448V39.1237H30.8311V38.2375Z" fill="#FF749A"/>
<path d="M30.8311 37.3412H29.9448V38.2362H30.8311V37.3412Z" fill="#FF749A"/>
<path d="M30.8311 36.4463H29.9448V37.3413H30.8311V36.4463Z" fill="#FF5A8D"/>
<path d="M30.8311 35.5587H29.9448V36.445H30.8311V35.5587Z" fill="#FF5A8D"/>
<path d="M30.8311 34.6638H29.9448V35.5588H30.8311V34.6638Z" fill="#FF5A8D"/>
<path d="M30.8311 33.7762H29.9448V34.6625H30.8311V33.7762Z" fill="#FF5A8D"/>
<path d="M30.8311 32.88H29.9448V33.775H30.8311V32.88Z" fill="#FF5A8D"/>
<path d="M30.8311 31.9937H29.9448V32.88H30.8311V31.9937Z" fill="black"/>
<path d="M30.8311 23.0713H29.9448V23.9663H30.8311V23.0713Z" fill="black"/>
<path d="M30.8311 22.1762H29.9448V23.0712H30.8311V22.1762Z" fill="#FF5A8D"/>
<path d="M30.8311 21.2888H29.9448V22.175H30.8311V21.2888Z" fill="#FF749A"/>
<path d="M30.8311 20.3925H29.9448V21.2875H30.8311V20.3925Z" fill="#FF5A8D"/>
<path d="M30.8311 19.5063H29.9448V20.3925H30.8311V19.5063Z" fill="black"/>
<path d="M30.8311 18.61H29.9448V19.505H30.8311V18.61Z" fill="black"/>
<path d="M30.8311 17.7225H29.9448V18.6088H30.8311V17.7225Z" fill="#CCBE58"/>
<path d="M30.8311 16.8275H29.9448V17.7225H30.8311V16.8275Z" fill="#DBD38B"/>
<path d="M30.8311 15.9312H29.9448V16.8262H30.8311V15.9312Z" fill="#DBD38B"/>
<path d="M30.8311 15.045H29.9448V15.9313H30.8311V15.045Z" fill="#DBD38B"/>
<path d="M30.8311 14.1487H29.9448V15.0437H30.8311V14.1487Z" fill="#CCBB69"/>
<path d="M30.8311 13.2625H29.9448V14.1488H30.8311V13.2625Z" fill="#CCBB69"/>
<path d="M30.8311 12.3662H29.9448V13.2612H30.8311V12.3662Z" fill="#CCBE58"/>
<path d="M30.8311 11.4788H29.9448V12.365H30.8311V11.4788Z" fill="black"/>
<path d="M29.9448 40.02H29.0498V40.9062H29.9448V40.02Z" fill="black"/>
<path d="M29.9448 39.125H29.0498V40.02H29.9448V39.125Z" fill="#FF5A8D"/>
<path d="M29.9448 38.2375H29.0498V39.1237H29.9448V38.2375Z" fill="#FF749A"/>
<path d="M29.9448 37.3412H29.0498V38.2362H29.9448V37.3412Z" fill="#FF749A"/>
<path d="M29.9448 36.4463H29.0498V37.3413H29.9448V36.4463Z" fill="#FF749A"/>
<path d="M29.9448 35.5587H29.0498V36.445H29.9448V35.5587Z" fill="#FF5A8D"/>
<path d="M29.9448 34.6638H29.0498V35.5588H29.9448V34.6638Z" fill="#FF5A8D"/>
<path d="M29.9448 33.7762H29.0498V34.6625H29.9448V33.7762Z" fill="#FF5A8D"/>
<path d="M29.9448 32.88H29.0498V33.775H29.9448V32.88Z" fill="black"/>
<path d="M29.9448 22.1762H29.0498V23.0712H29.9448V22.1762Z" fill="black"/>
<path d="M29.9448 21.2888H29.0498V22.175H29.9448V21.2888Z" fill="#FF749A"/>
<path d="M29.9448 20.3925H29.0498V21.2875H29.9448V20.3925Z" fill="#FF5A8D"/>
<path d="M29.9448 19.5063H29.0498V20.3925H29.9448V19.5063Z" fill="black"/>
<path d="M29.9448 18.61H29.0498V19.505H29.9448V18.61Z" fill="#FF5290"/>
<path d="M29.9448 17.7225H29.0498V18.6088H29.9448V17.7225Z" fill="#FF5290"/>
<path d="M29.9448 16.8275H29.0498V17.7225H29.9448V16.8275Z" fill="#DBD38B"/>
<path d="M29.9448 15.9312H29.0498V16.8262H29.9448V15.9312Z" fill="#DBD38B"/>
<path d="M29.9448 15.045H29.0498V15.9313H29.9448V15.045Z" fill="#DBD38B"/>
<path d="M29.9448 14.1487H29.0498V15.0437H29.9448V14.1487Z" fill="#DBD38B"/>
<path d="M29.9448 13.2625H29.0498V14.1488H29.9448V13.2625Z" fill="#CCBB69"/>
<path d="M29.9448 12.3662H29.0498V13.2612H29.9448V12.3662Z" fill="#CCBE58"/>
<path d="M29.9448 11.4788H29.0498V12.365H29.9448V11.4788Z" fill="black"/>
<path d="M29.0488 40.9075H28.1538V41.8025H29.0488V40.9075Z" fill="black"/>
<path d="M29.0488 40.02H28.1538V40.9062H29.0488V40.02Z" fill="#FF5290"/>
<path d="M29.0488 39.125H28.1538V40.02H29.0488V39.125Z" fill="#FF749A"/>
<path d="M29.0488 38.2375H28.1538V39.1237H29.0488V38.2375Z" fill="#FF749A"/>
<path d="M29.0488 37.3412H28.1538V38.2362H29.0488V37.3412Z" fill="#FF749A"/>
<path d="M29.0488 36.4463H28.1538V37.3413H29.0488V36.4463Z" fill="#FF749A"/>
<path d="M29.0488 35.5587H28.1538V36.445H29.0488V35.5587Z" fill="#FF749A"/>
<path d="M29.0488 34.6638H28.1538V35.5588H29.0488V34.6638Z" fill="#FF5A8D"/>
<path d="M29.0488 33.7762H28.1538V34.6625H29.0488V33.7762Z" fill="black"/>
<path d="M29.0488 23.0713H28.1538V23.9663H29.0488V23.0713Z" fill="black"/>
<path d="M29.0488 22.1762H28.1538V23.0712H29.0488V22.1762Z" fill="#FF749A"/>
<path d="M29.0488 21.2888H28.1538V22.175H29.0488V21.2888Z" fill="#FF749A"/>
<path d="M29.0488 20.3925H28.1538V21.2875H29.0488V20.3925Z" fill="#FF749A"/>
<path d="M29.0488 19.5063H28.1538V20.3925H29.0488V19.5063Z" fill="#FF5A8D"/>
<path d="M29.0488 18.61H28.1538V19.505H29.0488V18.61Z" fill="#FF5A8D"/>
<path d="M29.0488 17.7225H28.1538V18.6088H29.0488V17.7225Z" fill="#FF5290"/>
<path d="M29.0488 16.8275H28.1538V17.7225H29.0488V16.8275Z" fill="#DBD38B"/>
<path d="M29.0488 15.9312H28.1538V16.8262H29.0488V15.9312Z" fill="#DBD38B"/>
<path d="M29.0488 15.045H28.1538V15.9313H29.0488V15.045Z" fill="#DBD38B"/>
<path d="M29.0488 14.1487H28.1538V15.0437H29.0488V14.1487Z" fill="#DBD38B"/>
<path d="M29.0488 13.2625H28.1538V14.1488H29.0488V13.2625Z" fill="#CCBB69"/>
<path d="M29.0488 12.3662H28.1538V13.2612H29.0488V12.3662Z" fill="#CCBE58"/>
<path d="M29.0488 11.4788H28.1538V12.365H29.0488V11.4788Z" fill="black"/>
<path d="M28.1524 40.9075H27.2661V41.8025H28.1524V40.9075Z" fill="black"/>
<path d="M28.1524 40.02H27.2661V40.9062H28.1524V40.02Z" fill="#FF5290"/>
<path d="M28.1524 39.125H27.2661V40.02H28.1524V39.125Z" fill="#FF749A"/>
<path d="M28.1524 38.2375H27.2661V39.1237H28.1524V38.2375Z" fill="#FF749A"/>
<path d="M28.1524 37.3412H27.2661V38.2362H28.1524V37.3412Z" fill="#FF749A"/>
<path d="M28.1524 36.4463H27.2661V37.3413H28.1524V36.4463Z" fill="#FF749A"/>
<path d="M28.1524 35.5587H27.2661V36.445H28.1524V35.5587Z" fill="#FF749A"/>
<path d="M28.1524 34.6638H27.2661V35.5588H28.1524V34.6638Z" fill="#FF5A8D"/>
<path d="M28.1524 33.7762H27.2661V34.6625H28.1524V33.7762Z" fill="black"/>
<path d="M28.1524 28.42H27.2661V29.315H28.1524V28.42Z" fill="black"/>
<path d="M28.1524 27.5325H27.2661V28.4188H28.1524V27.5325Z" fill="black"/>
<path d="M28.1524 26.6363H27.2661V27.5313H28.1524V26.6363Z" fill="black"/>
<path d="M28.1524 25.75H27.2661V26.6362H28.1524V25.75Z" fill="black"/>
<path d="M28.1524 23.0713H27.2661V23.9663H28.1524V23.0713Z" fill="black"/>
<path d="M28.1524 22.1762H27.2661V23.0712H28.1524V22.1762Z" fill="#FF749A"/>
<path d="M28.1524 21.2888H27.2661V22.175H28.1524V21.2888Z" fill="#FF749A"/>
<path d="M28.1524 20.3925H27.2661V21.2875H28.1524V20.3925Z" fill="#FF749A"/>
<path d="M28.1524 19.5063H27.2661V20.3925H28.1524V19.5063Z" fill="#FF749A"/>
<path d="M28.1524 18.61H27.2661V19.505H28.1524V18.61Z" fill="#FF5A8D"/>
<path d="M28.1524 17.7225H27.2661V18.6088H28.1524V17.7225Z" fill="#FF5A8D"/>
<path d="M28.1524 16.8275H27.2661V17.7225H28.1524V16.8275Z" fill="#DBD38B"/>
<path d="M28.1524 15.9312H27.2661V16.8262H28.1524V15.9312Z" fill="#DBD38B"/>
<path d="M28.1524 15.045H27.2661V15.9313H28.1524V15.045Z" fill="#DBD38B"/>
<path d="M28.1524 14.1487H27.2661V15.0437H28.1524V14.1487Z" fill="#DBD38B"/>
<path d="M28.1524 13.2625H27.2661V14.1488H28.1524V13.2625Z" fill="#DBD38B"/>
<path d="M28.1524 12.3662H27.2661V13.2612H28.1524V12.3662Z" fill="#CCBB69"/>
<path d="M28.1524 11.4788H27.2661V12.365H28.1524V11.4788Z" fill="black"/>
<path d="M27.2661 40.9075H26.3711V41.8025H27.2661V40.9075Z" fill="black"/>
<path d="M27.2661 40.02H26.3711V40.9062H27.2661V40.02Z" fill="#FF5A8D"/>
<path d="M27.2661 39.125H26.3711V40.02H27.2661V39.125Z" fill="#FF749A"/>
<path d="M27.2661 38.2375H26.3711V39.1237H27.2661V38.2375Z" fill="#FF749A"/>
<path d="M27.2661 37.3412H26.3711V38.2362H27.2661V37.3412Z" fill="#FF749A"/>
<path d="M27.2661 36.4463H26.3711V37.3413H27.2661V36.4463Z" fill="#FF749A"/>
<path d="M27.2661 35.5587H26.3711V36.445H27.2661V35.5587Z" fill="#FF749A"/>
<path d="M27.2661 34.6638H26.3711V35.5588H27.2661V34.6638Z" fill="#FF5A8D"/>
<path d="M27.2661 33.7762H26.3711V34.6625H27.2661V33.7762Z" fill="black"/>
<path d="M27.2661 32.88H26.3711V33.775H27.2661V32.88Z" fill="black"/>
<path d="M27.2661 31.9937H26.3711V32.88H27.2661V31.9937Z" fill="black"/>
<path d="M27.2661 31.0988H26.3711V31.9938H27.2661V31.0988Z" fill="black"/>
<path d="M27.2661 30.2013H26.3711V31.0963H27.2661V30.2013Z" fill="black"/>
<path d="M27.2661 29.315H26.3711V30.2013H27.2661V29.315Z" fill="black"/>
<path d="M27.2661 28.42H26.3711V29.315H27.2661V28.42Z" fill="#FF5A8D"/>
<path d="M27.2661 27.5325H26.3711V28.4188H27.2661V27.5325Z" fill="#FF5A8D"/>
<path d="M27.2661 26.6363H26.3711V27.5313H27.2661V26.6363Z" fill="#FF5A8D"/>
<path d="M27.2661 25.75H26.3711V26.6362H27.2661V25.75Z" fill="#FF5290"/>
<path d="M27.2661 24.855H26.3711V25.75H27.2661V24.855Z" fill="black"/>
<path d="M27.2661 23.9662H26.3711V24.8525H27.2661V23.9662Z" fill="black"/>
<path d="M27.2661 23.0713H26.3711V23.9663H27.2661V23.0713Z" fill="black"/>
<path d="M27.2661 22.1762H26.3711V23.0712H27.2661V22.1762Z" fill="#FF749A"/>
<path d="M27.2661 21.2888H26.3711V22.175H27.2661V21.2888Z" fill="#FF749A"/>
<path d="M27.2661 20.3925H26.3711V21.2875H27.2661V20.3925Z" fill="#FF749A"/>
<path d="M27.2661 19.5063H26.3711V20.3925H27.2661V19.5063Z" fill="#FF5A8D"/>
<path d="M27.2661 18.61H26.3711V19.505H27.2661V18.61Z" fill="#FF5A8D"/>
<path d="M27.2661 17.7225H26.3711V18.6088H27.2661V17.7225Z" fill="black"/>
<path d="M27.2661 16.8275H26.3711V17.7225H27.2661V16.8275Z" fill="black"/>
<path d="M27.2661 15.9312H26.3711V16.8262H27.2661V15.9312Z" fill="#EF997B"/>
<path d="M27.2661 15.045H26.3711V15.9313H27.2661V15.045Z" fill="#DBD38B"/>
<path d="M27.2661 14.1487H26.3711V15.0437H27.2661V14.1487Z" fill="#DBD38B"/>
<path d="M27.2661 13.2625H26.3711V14.1488H27.2661V13.2625Z" fill="#DBD38B"/>
<path d="M27.2661 12.3662H26.3711V13.2612H27.2661V12.3662Z" fill="#CCBB69"/>
<path d="M27.2661 11.4788H26.3711V12.365H27.2661V11.4788Z" fill="black"/>
<path d="M26.3701 40.9075H25.4839V41.8025H26.3701V40.9075Z" fill="black"/>
<path d="M26.3701 40.02H25.4839V40.9062H26.3701V40.02Z" fill="#FF749A"/>
<path d="M26.3701 39.125H25.4839V40.02H26.3701V39.125Z" fill="#FF749A"/>
<path d="M26.3701 38.2375H25.4839V39.1237H26.3701V38.2375Z" fill="#FF749A"/>
<path d="M26.3701 37.3412H25.4839V38.2362H26.3701V37.3412Z" fill="#FF749A"/>
<path d="M26.3701 36.4463H25.4839V37.3413H26.3701V36.4463Z" fill="#FF749A"/>
<path d="M26.3701 35.5587H25.4839V36.445H26.3701V35.5587Z" fill="#FF749A"/>
<path d="M26.3701 34.6638H25.4839V35.5588H26.3701V34.6638Z" fill="#FF749A"/>
<path d="M26.3701 33.7762H25.4839V34.6625H26.3701V33.7762Z" fill="#FF5A8D"/>
<path d="M26.3701 32.88H25.4839V33.775H26.3701V32.88Z" fill="#FF5A8D"/>
<path d="M26.3701 31.9937H25.4839V32.88H26.3701V31.9937Z" fill="#FF5A8D"/>
<path d="M26.3701 31.0988H25.4839V31.9938H26.3701V31.0988Z" fill="#FF5A8D"/>
<path d="M26.3701 30.2013H25.4839V31.0963H26.3701V30.2013Z" fill="#FF5A8D"/>
<path d="M26.3701 29.315H25.4839V30.2013H26.3701V29.315Z" fill="#FF5A8D"/>
<path d="M26.3701 28.42H25.4839V29.315H26.3701V28.42Z" fill="#FF749A"/>
<path d="M26.3701 27.5325H25.4839V28.4188H26.3701V27.5325Z" fill="#FF749A"/>
<path d="M26.3701 26.6363H25.4839V27.5313H26.3701V26.6363Z" fill="#FF5A8D"/>
<path d="M26.3701 25.75H25.4839V26.6362H26.3701V25.75Z" fill="#FF5290"/>
<path d="M26.3701 24.855H25.4839V25.75H26.3701V24.855Z" fill="#FF5290"/>
<path d="M26.3701 23.9662H25.4839V24.8525H26.3701V23.9662Z" fill="#72512D"/>
<path d="M26.3701 23.0713H25.4839V23.9663H26.3701V23.0713Z" fill="#72512D"/>
<path d="M26.3701 22.1762H25.4839V23.0712H26.3701V22.1762Z" fill="#FF749A"/>
<path d="M26.3701 21.2888H25.4839V22.175H26.3701V21.2888Z" fill="#FF749A"/>
<path d="M26.3701 20.3925H25.4839V21.2875H26.3701V20.3925Z" fill="#FF5A8D"/>
<path d="M26.3701 19.5063H25.4839V20.3925H26.3701V19.5063Z" fill="#EF997B"/>
<path d="M26.3701 18.61H25.4839V19.505H26.3701V18.61Z" fill="#EF997B"/>
<path d="M26.3701 17.7225H25.4839V18.6088H26.3701V17.7225Z" fill="#EF997B"/>
<path d="M26.3701 16.8275H25.4839V17.7225H26.3701V16.8275Z" fill="#EF997B"/>
<path d="M26.3701 15.9312H25.4839V16.8262H26.3701V15.9312Z" fill="#EF997B"/>
<path d="M26.3701 15.045H25.4839V15.9313H26.3701V15.045Z" fill="#EF997B"/>
<path d="M26.3701 14.1487H25.4839V15.0437H26.3701V14.1487Z" fill="#DBD38B"/>
<path d="M26.3701 13.2625H25.4839V14.1488H26.3701V13.2625Z" fill="#DBD38B"/>
<path d="M26.3701 12.3662H25.4839V13.2612H26.3701V12.3662Z" fill="#DBD38B"/>
<path d="M26.3701 11.4788H25.4839V12.365H26.3701V11.4788Z" fill="black"/>
<path d="M25.4824 40.9075H24.5874V41.8025H25.4824V40.9075Z" fill="black"/>
<path d="M25.4824 40.02H24.5874V40.9062H25.4824V40.02Z" fill="#FF5A8D"/>
<path d="M25.4824 39.125H24.5874V40.02H25.4824V39.125Z" fill="#FF749A"/>
<path d="M25.4824 38.2375H24.5874V39.1237H25.4824V38.2375Z" fill="#FF749A"/>
<path d="M25.4824 37.3412H24.5874V38.2362H25.4824V37.3412Z" fill="#FF749A"/>
<path d="M25.4824 36.4463H24.5874V37.3413H25.4824V36.4463Z" fill="#FF749A"/>
<path d="M25.4824 35.5587H24.5874V36.445H25.4824V35.5587Z" fill="#FF749A"/>
<path d="M25.4824 34.6638H24.5874V35.5588H25.4824V34.6638Z" fill="#FF749A"/>
<path d="M25.4824 33.7762H24.5874V34.6625H25.4824V33.7762Z" fill="#FF749A"/>
<path d="M25.4824 32.88H24.5874V33.775H25.4824V32.88Z" fill="#FF749A"/>
<path d="M25.4824 31.9937H24.5874V32.88H25.4824V31.9937Z" fill="#FF749A"/>
<path d="M25.4824 31.0988H24.5874V31.9938H25.4824V31.0988Z" fill="#FF749A"/>
<path d="M25.4824 30.2013H24.5874V31.0963H25.4824V30.2013Z" fill="#FF749A"/>
<path d="M25.4824 29.315H24.5874V30.2013H25.4824V29.315Z" fill="#FF749A"/>
<path d="M25.4824 28.42H24.5874V29.315H25.4824V28.42Z" fill="#FF749A"/>
<path d="M25.4824 27.5325H24.5874V28.4188H25.4824V27.5325Z" fill="#FF749A"/>
<path d="M25.4824 26.6363H24.5874V27.5313H25.4824V26.6363Z" fill="#FF749A"/>
<path d="M25.4824 25.75H24.5874V26.6362H25.4824V25.75Z" fill="#FF5A8D"/>
<path d="M25.4824 24.855H24.5874V25.75H25.4824V24.855Z" fill="#FF5A8D"/>
<path d="M25.4824 23.9662H24.5874V24.8525H25.4824V23.9662Z" fill="#7A5A34"/>
<path d="M25.4824 23.0713H24.5874V23.9663H25.4824V23.0713Z" fill="#72512D"/>
<path d="M25.4824 22.1762H24.5874V23.0712H25.4824V22.1762Z" fill="#FF749A"/>
<path d="M25.4824 21.2888H24.5874V22.175H25.4824V21.2888Z" fill="#FF5A8D"/>
<path d="M25.4824 20.3925H24.5874V21.2875H25.4824V20.3925Z" fill="#FF5A8D"/>
<path d="M25.4824 19.5063H24.5874V20.3925H25.4824V19.5063Z" fill="#EF997B"/>
<path d="M25.4824 18.61H24.5874V19.505H25.4824V18.61Z" fill="#EF997B"/>
<path d="M25.4824 17.7225H24.5874V18.6088H25.4824V17.7225Z" fill="#EF997B"/>
<path d="M25.4824 16.8275H24.5874V17.7225H25.4824V16.8275Z" fill="#EF997B"/>
<path d="M25.4824 15.9312H24.5874V16.8262H25.4824V15.9312Z" fill="#C6C4C6"/>
<path d="M25.4824 15.045H24.5874V15.9313H25.4824V15.045Z" fill="#EF997B"/>
<path d="M25.4824 14.1487H24.5874V15.0437H25.4824V14.1487Z" fill="#DBD38B"/>
<path d="M25.4824 13.2625H24.5874V14.1488H25.4824V13.2625Z" fill="#DBD38B"/>
<path d="M25.4824 12.3662H24.5874V13.2612H25.4824V12.3662Z" fill="#DBD38B"/>
<path d="M25.4824 11.4788H24.5874V12.365H25.4824V11.4788Z" fill="black"/>
<path d="M24.5874 40.9075H23.7012V41.8025H24.5874V40.9075Z" fill="black"/>
<path d="M24.5874 40.02H23.7012V40.9062H24.5874V40.02Z" fill="#FF5A8D"/>
<path d="M24.5874 39.125H23.7012V40.02H24.5874V39.125Z" fill="#FF5A8D"/>
<path d="M24.5874 38.2375H23.7012V39.1237H24.5874V38.2375Z" fill="#FF749A"/>
<path d="M24.5874 37.3412H23.7012V38.2362H24.5874V37.3412Z" fill="#FF749A"/>
<path d="M24.5874 36.4463H23.7012V37.3413H24.5874V36.4463Z" fill="#FF749A"/>
<path d="M24.5874 35.5587H23.7012V36.445H24.5874V35.5587Z" fill="#FF749A"/>
<path d="M24.5874 34.6638H23.7012V35.5588H24.5874V34.6638Z" fill="#FF749A"/>
<path d="M24.5874 33.7762H23.7012V34.6625H24.5874V33.7762Z" fill="#FF749A"/>
<path d="M24.5874 32.88H23.7012V33.775H24.5874V32.88Z" fill="#FF749A"/>
<path d="M24.5874 31.9937H23.7012V32.88H24.5874V31.9937Z" fill="#FF749A"/>
<path d="M24.5874 31.0988H23.7012V31.9938H24.5874V31.0988Z" fill="#FF749A"/>
<path d="M24.5874 30.2013H23.7012V31.0963H24.5874V30.2013Z" fill="#FF749A"/>
<path d="M24.5874 29.315H23.7012V30.2013H24.5874V29.315Z" fill="#FF749A"/>
<path d="M24.5874 28.42H23.7012V29.315H24.5874V28.42Z" fill="#FF749A"/>
<path d="M24.5874 27.5325H23.7012V28.4188H24.5874V27.5325Z" fill="#FF749A"/>
<path d="M24.5874 26.6363H23.7012V27.5313H24.5874V26.6363Z" fill="#FF749A"/>
<path d="M24.5874 25.75H23.7012V26.6362H24.5874V25.75Z" fill="#FF749A"/>
<path d="M24.5874 24.855H23.7012V25.75H24.5874V24.855Z" fill="#FF5A8D"/>
<path d="M24.5874 23.9662H23.7012V24.8525H24.5874V23.9662Z" fill="#7A5A34"/>
<path d="M24.5874 23.0713H23.7012V23.9663H24.5874V23.0713Z" fill="#7A5A34"/>
<path d="M24.5874 22.1762H23.7012V23.0712H24.5874V22.1762Z" fill="#FF5A8D"/>
<path d="M24.5874 21.2888H23.7012V22.175H24.5874V21.2888Z" fill="#EF997B"/>
<path d="M24.5874 20.3925H23.7012V21.2875H24.5874V20.3925Z" fill="#FF749A"/>
<path d="M24.5874 19.5063H23.7012V20.3925H24.5874V19.5063Z" fill="#EF997B"/>
<path d="M24.5874 18.61H23.7012V19.505H24.5874V18.61Z" fill="black"/>
<path d="M24.5874 17.7225H23.7012V18.6088H24.5874V17.7225Z" fill="#EF997B"/>
<path d="M24.5874 16.8275H23.7012V17.7225H24.5874V16.8275Z" fill="#EF997B"/>
<path d="M24.5874 15.9312H23.7012V16.8262H24.5874V15.9312Z" fill="#EF997B"/>
<path d="M24.5874 15.045H23.7012V15.9313H24.5874V15.045Z" fill="#EF997B"/>
<path d="M24.5874 14.1487H23.7012V15.0437H24.5874V14.1487Z" fill="#DBD38B"/>
<path d="M24.5874 13.2625H23.7012V14.1488H24.5874V13.2625Z" fill="#DBD38B"/>
<path d="M24.5874 12.3662H23.7012V13.2612H24.5874V12.3662Z" fill="#DBD38B"/>
<path d="M24.5874 11.4788H23.7012V12.365H24.5874V11.4788Z" fill="black"/>
<path d="M23.7012 40.02H22.8062V40.9062H23.7012V40.02Z" fill="black"/>
<path d="M23.7012 39.125H22.8062V40.02H23.7012V39.125Z" fill="#FF5A8D"/>
<path d="M23.7012 38.2375H22.8062V39.1237H23.7012V38.2375Z" fill="#FF749A"/>
<path d="M23.7012 37.3412H22.8062V38.2362H23.7012V37.3412Z" fill="#FF749A"/>
<path d="M23.7012 36.4463H22.8062V37.3413H23.7012V36.4463Z" fill="#FF5A8D"/>
<path d="M23.7012 35.5587H22.8062V36.445H23.7012V35.5587Z" fill="black"/>
<path d="M23.7012 34.6638H22.8062V35.5588H23.7012V34.6638Z" fill="black"/>
<path d="M23.7012 33.7762H22.8062V34.6625H23.7012V33.7762Z" fill="black"/>
<path d="M23.7012 32.88H22.8062V33.775H23.7012V32.88Z" fill="black"/>
<path d="M23.7012 31.9937H22.8062V32.88H23.7012V31.9937Z" fill="black"/>
<path d="M23.7012 31.0988H22.8062V31.9938H23.7012V31.0988Z" fill="black"/>
<path d="M23.7012 30.2013H22.8062V31.0963H23.7012V30.2013Z" fill="#FF5A8D"/>
<path d="M23.7012 29.315H22.8062V30.2013H23.7012V29.315Z" fill="#FF5A8D"/>
<path d="M23.7012 28.42H22.8062V29.315H23.7012V28.42Z" fill="#FF749A"/>
<path d="M23.7012 27.5325H22.8062V28.4188H23.7012V27.5325Z" fill="#FF749A"/>
<path d="M23.7012 26.6363H22.8062V27.5313H23.7012V26.6363Z" fill="#FF749A"/>
<path d="M23.7012 25.75H22.8062V26.6362H23.7012V25.75Z" fill="#FF749A"/>
<path d="M23.7012 24.855H22.8062V25.75H23.7012V24.855Z" fill="#FF5A8D"/>
<path d="M23.7012 23.9662H22.8062V24.8525H23.7012V23.9662Z" fill="#7A5A34"/>
<path d="M23.7012 23.0713H22.8062V23.9663H23.7012V23.0713Z" fill="#7A5A34"/>
<path d="M23.7012 22.1762H22.8062V23.0712H23.7012V22.1762Z" fill="#FF749A"/>
<path d="M23.7012 21.2888H22.8062V22.175H23.7012V21.2888Z" fill="#EF997B"/>
<path d="M23.7012 20.3925H22.8062V21.2875H23.7012V20.3925Z" fill="#FF749A"/>
<path d="M23.7012 19.5063H22.8062V20.3925H23.7012V19.5063Z" fill="#FF749A"/>
<path d="M23.7012 18.61H22.8062V19.505H23.7012V18.61Z" fill="black"/>
<path d="M23.7012 17.7225H22.8062V18.6088H23.7012V17.7225Z" fill="black"/>
<path d="M23.7012 16.8275H22.8062V17.7225H23.7012V16.8275Z" fill="#EF997B"/>
<path d="M23.7012 15.9312H22.8062V16.8262H23.7012V15.9312Z" fill="#C6C4C6"/>
<path d="M23.7012 15.045H22.8062V15.9313H23.7012V15.045Z" fill="#EF997B"/>
<path d="M23.7012 14.1487H22.8062V15.0437H23.7012V14.1487Z" fill="#DBD38B"/>
<path d="M23.7012 13.2625H22.8062V14.1488H23.7012V13.2625Z" fill="#CCBB69"/>
<path d="M23.7012 12.3662H22.8062V13.2612H23.7012V12.3662Z" fill="black"/>
<path d="M22.8037 40.02H21.9175V40.9062H22.8037V40.02Z" fill="black"/>
<path d="M22.8037 39.125H21.9175V40.02H22.8037V39.125Z" fill="#FF5A8D"/>
<path d="M22.8037 38.2375H21.9175V39.1237H22.8037V38.2375Z" fill="#FF749A"/>
<path d="M22.8037 37.3412H21.9175V38.2362H22.8037V37.3412Z" fill="#FF5A8D"/>
<path d="M22.8037 36.4463H21.9175V37.3413H22.8037V36.4463Z" fill="black"/>
<path d="M22.8037 30.2013H21.9175V31.0963H22.8037V30.2013Z" fill="black"/>
<path d="M22.8037 29.315H21.9175V30.2013H22.8037V29.315Z" fill="black"/>
<path d="M22.8037 28.42H21.9175V29.315H22.8037V28.42Z" fill="black"/>
<path d="M22.8037 27.5325H21.9175V28.4188H22.8037V27.5325Z" fill="#FF749A"/>
<path d="M22.8037 26.6363H21.9175V27.5313H22.8037V26.6363Z" fill="#FF749A"/>
<path d="M22.8037 25.75H21.9175V26.6362H22.8037V25.75Z" fill="#FF749A"/>
<path d="M22.8037 24.855H21.9175V25.75H22.8037V24.855Z" fill="black"/>
<path d="M22.8037 23.9662H21.9175V24.8525H22.8037V23.9662Z" fill="black"/>
<path d="M22.8037 23.0713H21.9175V23.9663H22.8037V23.0713Z" fill="#EF997B"/>
<path d="M22.8037 22.1762H21.9175V23.0712H22.8037V22.1762Z" fill="black"/>
<path d="M22.8037 21.2888H21.9175V22.175H22.8037V21.2888Z" fill="#EF997B"/>
<path d="M22.8037 20.3925H21.9175V21.2875H22.8037V20.3925Z" fill="#FF749A"/>
<path d="M22.8037 19.5063H21.9175V20.3925H22.8037V19.5063Z" fill="black"/>
<path d="M22.8037 16.8275H21.9175V17.7225H22.8037V16.8275Z" fill="black"/>
<path d="M22.8037 15.9312H21.9175V16.8262H22.8037V15.9312Z" fill="black"/>
<path d="M22.8037 15.045H21.9175V15.9313H22.8037V15.045Z" fill="#CCBB69"/>
<path d="M22.8037 14.1487H21.9175V15.0437H22.8037V14.1487Z" fill="#CCBB69"/>
<path d="M22.8037 13.2625H21.9175V14.1488H22.8037V13.2625Z" fill="black"/>
<path d="M21.9175 40.02H21.0225V40.9062H21.9175V40.02Z" fill="black"/>
<path d="M21.9175 39.125H21.0225V40.02H21.9175V39.125Z" fill="#FF5A8D"/>
<path d="M21.9175 38.2375H21.0225V39.1237H21.9175V38.2375Z" fill="#FF749A"/>
<path d="M21.9175 37.3412H21.0225V38.2362H21.9175V37.3412Z" fill="black"/>
<path d="M21.9175 27.5325H21.0225V28.4188H21.9175V27.5325Z" fill="black"/>
<path d="M21.9175 26.6363H21.0225V27.5313H21.9175V26.6363Z" fill="black"/>
<path d="M21.9175 25.75H21.0225V26.6362H21.9175V25.75Z" fill="black"/>
<path d="M21.9175 24.855H21.0225V25.75H21.9175V24.855Z" fill="black"/>
<path d="M21.9175 23.9662H21.0225V24.8525H21.9175V23.9662Z" fill="#EF997B"/>
<path d="M21.9175 23.0713H21.0225V23.9663H21.9175V23.0713Z" fill="#EF997B"/>
<path d="M21.9175 22.1762H21.0225V23.0712H21.9175V22.1762Z" fill="black"/>
<path d="M21.9175 21.2888H21.0225V22.175H21.9175V21.2888Z" fill="#EF997B"/>
<path d="M21.9175 20.3925H21.0225V21.2875H21.9175V20.3925Z" fill="black"/>
<path d="M21.9175 15.045H21.0225V15.9313H21.9175V15.045Z" fill="black"/>
<path d="M21.9175 14.1487H21.0225V15.0437H21.9175V14.1487Z" fill="black"/>
<path d="M21.0224 40.02H20.1274V40.9062H21.0224V40.02Z" fill="black"/>
<path d="M21.0224 39.125H20.1274V40.02H21.0224V39.125Z" fill="#FF5A8D"/>
<path d="M21.0224 38.2375H20.1274V39.1237H21.0224V38.2375Z" fill="#FF5A8D"/>
<path d="M21.0224 37.3412H20.1274V38.2362H21.0224V37.3412Z" fill="black"/>
<path d="M21.0224 24.855H20.1274V25.75H21.0224V24.855Z" fill="black"/>
<path d="M21.0224 23.9662H20.1274V24.8525H21.0224V23.9662Z" fill="#EF997B"/>
<path d="M21.0224 23.0713H20.1274V23.9663H21.0224V23.0713Z" fill="black"/>
<path d="M21.0224 22.1762H20.1274V23.0712H21.0224V22.1762Z" fill="black"/>
<path d="M21.0224 21.2888H20.1274V22.175H21.0224V21.2888Z" fill="#EF997B"/>
<path d="M21.0224 20.3925H20.1274V21.2875H21.0224V20.3925Z" fill="black"/>
<path d="M20.1275 39.125H19.2412V40.02H20.1275V39.125Z" fill="black"/>
<path d="M20.1275 38.2375H19.2412V39.1237H20.1275V38.2375Z" fill="black"/>
<path d="M20.1275 25.75H19.2412V26.6362H20.1275V25.75Z" fill="black"/>
<path d="M20.1275 24.855H19.2412V25.75H20.1275V24.855Z" fill="#EF997B"/>
<path d="M20.1275 23.9662H19.2412V24.8525H20.1275V23.9662Z" fill="#EF997B"/>
<path d="M20.1275 23.0713H19.2412V23.9663H20.1275V23.0713Z" fill="black"/>
<path d="M20.1275 22.1762H19.2412V23.0712H20.1275V22.1762Z" fill="black"/>
<path d="M20.1275 21.2888H19.2412V22.175H20.1275V21.2888Z" fill="#EF997B"/>
<path d="M20.1275 20.3925H19.2412V21.2875H20.1275V20.3925Z" fill="#EF997B"/>
<path d="M20.1275 19.5063H19.2412V20.3925H20.1275V19.5063Z" fill="black"/>
<path d="M20.1275 14.1487H19.2412V15.0437H20.1275V14.1487Z" fill="#751545"/>
<path d="M20.1275 13.2625H19.2412V14.1488H20.1275V13.2625Z" fill="#751545"/>
<path d="M20.1275 12.3662H19.2412V13.2612H20.1275V12.3662Z" fill="#751545"/>
<path d="M20.1275 11.4788H19.2412V12.365H20.1275V11.4788Z" fill="#751545"/>
<path d="M19.2388 38.2375H18.3438V39.1237H19.2388V38.2375Z" fill="#751545"/>
<path d="M19.2388 37.3412H18.3438V38.2362H19.2388V37.3412Z" fill="#751545"/>
<path d="M19.2388 36.4463H18.3438V37.3413H19.2388V36.4463Z" fill="#751545"/>
<path d="M19.2388 35.5587H18.3438V36.445H19.2388V35.5587Z" fill="#751545"/>
<path d="M19.2388 34.6638H18.3438V35.5588H19.2388V34.6638Z" fill="#751545"/>
<path d="M19.2388 33.7762H18.3438V34.6625H19.2388V33.7762Z" fill="#751545"/>
<path d="M19.2388 32.88H18.3438V33.775H19.2388V32.88Z" fill="#751545"/>
<path d="M19.2388 31.9937H18.3438V32.88H19.2388V31.9937Z" fill="#751545"/>
<path d="M19.2388 31.0988H18.3438V31.9938H19.2388V31.0988Z" fill="#751545"/>
<path d="M19.2388 30.2013H18.3438V31.0963H19.2388V30.2013Z" fill="#751545"/>
<path d="M19.2388 29.315H18.3438V30.2013H19.2388V29.315Z" fill="#751545"/>
<path d="M19.2388 28.42H18.3438V29.315H19.2388V28.42Z" fill="#751545"/>
<path d="M19.2388 27.5325H18.3438V28.4188H19.2388V27.5325Z" fill="#751545"/>
<path d="M19.2388 26.6363H18.3438V27.5313H19.2388V26.6363Z" fill="#751545"/>
<path d="M19.2388 25.75H18.3438V26.6362H19.2388V25.75Z" fill="#751545"/>
<path d="M19.2388 24.855H18.3438V25.75H19.2388V24.855Z" fill="#751545"/>
<path d="M19.2388 23.9662H18.3438V24.8525H19.2388V23.9662Z" fill="#751545"/>
<path d="M19.2388 23.0713H18.3438V23.9663H19.2388V23.0713Z" fill="#751545"/>
<path d="M19.2388 22.1762H18.3438V23.0712H19.2388V22.1762Z" fill="black"/>
<path d="M19.2388 21.2888H18.3438V22.175H19.2388V21.2888Z" fill="#EF997B"/>
<path d="M19.2388 20.3925H18.3438V21.2875H19.2388V20.3925Z" fill="#EF997B"/>
<path d="M19.2388 19.5063H18.3438V20.3925H19.2388V19.5063Z" fill="#751545"/>
<path d="M19.2388 18.61H18.3438V19.505H19.2388V18.61Z" fill="#751545"/>
<path d="M19.2388 17.7225H18.3438V18.6088H19.2388V17.7225Z" fill="#751545"/>
<path d="M19.2388 16.8275H18.3438V17.7225H19.2388V16.8275Z" fill="#751545"/>
<path d="M19.2388 15.9312H18.3438V16.8262H19.2388V15.9312Z" fill="#751545"/>
<path d="M19.2388 15.045H18.3438V15.9313H19.2388V15.045Z" fill="#751545"/>
<path d="M19.2388 14.1487H18.3438V15.0437H19.2388V14.1487Z" fill="#751545"/>
<path d="M19.2388 13.2625H18.3438V14.1488H19.2388V13.2625Z" fill="#751545"/>
<path d="M19.2388 12.3662H18.3438V13.2612H19.2388V12.3662Z" fill="#751545"/>
<path d="M19.2388 11.4788H18.3438V12.365H19.2388V11.4788Z" fill="#751545"/>
<path d="M19.2388 10.5837H18.3438V11.4787H19.2388V10.5837Z" fill="#751545"/>
<path d="M18.3438 24.855H17.4575V25.75H18.3438V24.855Z" fill="black"/>
<path d="M18.3438 23.9662H17.4575V24.8525H18.3438V23.9662Z" fill="black"/>
<path d="M18.3438 21.2888H17.4575V22.175H18.3438V21.2888Z" fill="black"/>
<path d="M18.3438 20.3925H17.4575V21.2875H18.3438V20.3925Z" fill="black"/>
<path d="M18.3438 18.61H17.4575V19.505H18.3438V18.61Z" fill="#751545"/>
<path d="M18.3438 17.7225H17.4575V18.6088H18.3438V17.7225Z" fill="#751545"/>
<path d="M18.3438 16.8275H17.4575V17.7225H18.3438V16.8275Z" fill="#751545"/>
<path d="M18.3438 15.9312H17.4575V16.8262H18.3438V15.9312Z" fill="#751545"/>
<path d="M18.3438 15.045H17.4575V15.9313H18.3438V15.045Z" fill="#751545"/>
<path d="M18.3438 14.1487H17.4575V15.0437H18.3438V14.1487Z" fill="#751545"/>
<path d="M18.3438 13.2625H17.4575V14.1488H18.3438V13.2625Z" fill="#06E1F7"/>
<path d="M18.3438 12.3662H17.4575V13.2612H18.3438V12.3662Z" fill="#06E1F7"/>
<path d="M18.3438 11.4788H17.4575V12.365H18.3438V11.4788Z" fill="#751545"/>
<path d="M18.3438 10.5837H17.4575V11.4787H18.3438V10.5837Z" fill="#751545"/>
<path d="M18.3438 9.69626H17.4575V10.5825H18.3438V9.69626Z" fill="#751545"/>
<path d="M17.4575 15.9312H16.5625V16.8262H17.4575V15.9312Z" fill="#751545"/>
<path d="M17.4575 15.045H16.5625V15.9313H17.4575V15.045Z" fill="#751545"/>
<path d="M17.4575 14.1487H16.5625V15.0437H17.4575V14.1487Z" fill="#751545"/>
<path d="M17.4575 13.2625H16.5625V14.1488H17.4575V13.2625Z" fill="#06E1F7"/>
<path d="M17.4575 12.3662H16.5625V13.2612H17.4575V12.3662Z" fill="#06E1F7"/>
<path d="M17.4575 11.4788H16.5625V12.365H17.4575V11.4788Z" fill="#751545"/>
<path d="M17.4575 10.5837H16.5625V11.4787H17.4575V10.5837Z" fill="#751545"/>
<path d="M17.4575 9.69626H16.5625V10.5825H17.4575V9.69626Z" fill="#751545"/>
<path d="M16.5601 14.1487H15.6738V15.0437H16.5601V14.1487Z" fill="#751545"/>
<path d="M16.5601 13.2625H15.6738V14.1488H16.5601V13.2625Z" fill="#751545"/>
<path d="M16.5601 12.3662H15.6738V13.2612H16.5601V12.3662Z" fill="#751545"/>
<path d="M16.5601 11.4788H15.6738V12.365H16.5601V11.4788Z" fill="#751545"/>
<path d="M16.5601 10.5837H15.6738V11.4787H16.5601V10.5837Z" fill="#751545"/>
</g>
<defs>
<clipPath id="clip0_69_12154">
<rect width="50" height="50" fill="white"/>
</clipPath>
</defs>
</svg>
