<svg width="50" height="50" viewBox="0 0 50 50" fill="none" xmlns="http://www.w3.org/2000/svg">
<g clip-path="url(#clip0_69_12163)">
<path d="M25.0001 48.2225C37.8255 48.2225 48.2226 37.8254 48.2226 25C48.2226 12.1746 37.8255 1.7775 25.0001 1.7775C12.1747 1.7775 1.77759 12.1746 1.77759 25C1.77759 37.8254 12.1747 48.2225 25.0001 48.2225Z" fill="black"/>
<path d="M25.0001 49.0975C11.7126 49.0975 0.902588 38.2875 0.902588 25C0.902588 11.7125 11.7126 0.902496 25.0001 0.902496C38.2876 0.902496 49.0976 11.7125 49.0976 25C49.0976 38.2875 38.2876 49.0975 25.0001 49.0975ZM25.0001 2.6525C12.6776 2.6525 2.65259 12.6775 2.65259 25C2.65259 37.3225 12.6776 47.3475 25.0001 47.3475C37.3226 47.3475 47.3476 37.3225 47.3476 25C47.3476 12.6775 37.3226 2.6525 25.0001 2.6525Z" fill="#C64B1A"/>
<path d="M26.3612 36.7462H25.6387V37.4625H26.3612V36.7462Z" fill="#6B1F01"/>
<path d="M26.3612 37.4625H25.6387V38.185H26.3612V37.4625Z" fill="#6B1F01"/>
<path d="M26.3612 33.8712H25.6387V34.5862H26.3612V33.8712Z" fill="#6B1F01"/>
<path d="M26.3612 33.1487H25.6387V33.8712H26.3612V33.1487Z" fill="#6B1F01"/>
<path d="M26.3612 34.5862H25.6387V35.3087H26.3612V34.5862Z" fill="#6B1F01"/>
<path d="M26.3612 35.3087H25.6387V36.0237H26.3612V35.3087Z" fill="#6B1F01"/>
<path d="M25.6388 36.025H24.9238V36.7475H25.6388V36.025Z" fill="#7C2A05"/>
<path d="M24.9237 37.4625H24.2012V38.185H24.9237V37.4625Z" fill="#7C2A05"/>
<path d="M25.6388 34.5862H24.9238V35.3087H25.6388V34.5862Z" fill="#6B1F01"/>
<path d="M24.9237 36.7462H24.2012V37.4625H24.9237V36.7462Z" fill="#7C2A05"/>
<path d="M24.9237 34.5862H24.2012V35.3087H24.9237V34.5862Z" fill="#7C2A05"/>
<path d="M25.6388 33.8712H24.9238V34.5862H25.6388V33.8712Z" fill="#7C2A05"/>
<path d="M25.6388 35.3087H24.9238V36.0237H25.6388V35.3087Z" fill="#7C2A05"/>
<path d="M25.6388 33.1487H24.9238V33.8712H25.6388V33.1487Z" fill="#6B1F01"/>
<path d="M24.9237 36.025H24.2012V36.7475H24.9237V36.025Z" fill="#7C2A05"/>
<path d="M24.9237 35.3087H24.2012V36.0237H24.9237V35.3087Z" fill="#7C2A05"/>
<path d="M24.9237 33.1487H24.2012V33.8712H24.9237V33.1487Z" fill="#7C2A05"/>
<path d="M24.9237 33.8712H24.2012V34.5862H24.9237V33.8712Z" fill="#7C2A05"/>
<path d="M22.04 37.4625H21.325V38.185H22.04V37.4625Z" fill="#6B1F01"/>
<path d="M22.7625 32.4263H22.04V33.1488H22.7625V32.4263Z" fill="#7C2A05"/>
<path d="M22.7625 34.5862H22.04V35.3087H22.7625V34.5862Z" fill="#7C2A05"/>
<path d="M22.7625 33.1487H22.04V33.8712H22.7625V33.1487Z" fill="#7C2A05"/>
<path d="M22.7625 33.8712H22.04V34.5862H22.7625V33.8712Z" fill="#7C2A05"/>
<path d="M22.7625 35.3087H22.04V36.0237H22.7625V35.3087Z" fill="#6B1F01"/>
<path d="M22.04 33.1487H21.325V33.8712H22.04V33.1487Z" fill="#7C2A05"/>
<path d="M22.04 34.5862H21.325V35.3087H22.04V34.5862Z" fill="#6B1F01"/>
<path d="M22.04 35.3087H21.325V36.0237H22.04V35.3087Z" fill="#6B1F01"/>
<path d="M22.04 33.8712H21.325V34.5862H22.04V33.8712Z" fill="#7C2A05"/>
<path d="M22.04 32.4263H21.325V33.1488H22.04V32.4263Z" fill="#7C2A05"/>
<path d="M23.485 37.4625H22.7625V38.185H23.485V37.4625Z" fill="#6B1F01"/>
<path d="M22.7625 36.7462H22.04V37.4625H22.7625V36.7462Z" fill="#6B1F01"/>
<path d="M23.485 36.7462H22.7625V37.4625H23.485V36.7462Z" fill="#7C2A05"/>
<path d="M23.485 34.5862H22.7625V35.3087H23.485V34.5862Z" fill="#7C2A05"/>
<path d="M23.485 36.025H22.7625V36.7475H23.485V36.025Z" fill="#7C2A05"/>
<path d="M23.485 35.3087H22.7625V36.0237H23.485V35.3087Z" fill="#7C2A05"/>
<path d="M23.485 33.1487H22.7625V33.8712H23.485V33.1487Z" fill="#7C2A05"/>
<path d="M23.485 33.8712H22.7625V34.5862H23.485V33.8712Z" fill="#7C2A05"/>
<path d="M22.7625 36.025H22.04V36.7475H22.7625V36.025Z" fill="#6B1F01"/>
<path d="M33.5512 38.185H32.835V38.9H33.5512V38.185Z" fill="black"/>
<path d="M33.5512 37.4625H32.835V38.185H33.5512V37.4625Z" fill="black"/>
<path d="M33.5512 36.7462H32.835V37.4625H33.5512V36.7462Z" fill="black"/>
<path d="M33.5512 36.025H32.835V36.7475H33.5512V36.025Z" fill="black"/>
<path d="M33.5512 35.3087H32.835V36.0237H33.5512V35.3087Z" fill="black"/>
<path d="M33.5512 34.5862H32.835V35.3087H33.5512V34.5862Z" fill="black"/>
<path d="M33.5512 33.8712H32.835V34.5862H33.5512V33.8712Z" fill="black"/>
<path d="M33.5512 33.1487H32.835V33.8712H33.5512V33.1487Z" fill="black"/>
<path d="M33.5512 32.4263H32.835V33.1488H33.5512V32.4263Z" fill="black"/>
<path d="M33.5512 31.71H32.835V32.4263H33.5512V31.71Z" fill="black"/>
<path d="M33.5512 30.9888H32.835V31.7113H33.5512V30.9888Z" fill="black"/>
<path d="M33.5512 30.2725H32.835V30.9875H33.5512V30.2725Z" fill="black"/>
<path d="M33.5512 29.55H32.835V30.2725H33.5512V29.55Z" fill="black"/>
<path d="M33.5512 28.835H32.835V29.55H33.5512V28.835Z" fill="black"/>
<path d="M33.5512 28.1125H32.835V28.835H33.5512V28.1125Z" fill="black"/>
<path d="M33.5512 27.39H32.835V28.1125H33.5512V27.39Z" fill="black"/>
<path d="M33.5512 26.6738H32.835V27.3888H33.5512V26.6738Z" fill="black"/>
<path d="M33.5512 25.9513H32.835V26.6738H33.5512V25.9513Z" fill="black"/>
<path d="M33.5512 25.2363H32.835V25.9513H33.5512V25.2363Z" fill="black"/>
<path d="M33.5512 24.5138H32.835V25.2363H33.5512V24.5138Z" fill="black"/>
<path d="M33.5512 23.7988H32.835V24.5138H33.5512V23.7988Z" fill="black"/>
<path d="M33.5512 23.0763H32.835V23.7988H33.5512V23.0763Z" fill="black"/>
<path d="M33.5512 22.36H32.835V23.075H33.5512V22.36Z" fill="black"/>
<path d="M32.8363 38.185H32.1138V38.9H32.8363V38.185Z" fill="black"/>
<path d="M32.8363 37.4625H32.1138V38.185H32.8363V37.4625Z" fill="#DB4B03"/>
<path d="M32.8363 36.7462H32.1138V37.4625H32.8363V36.7462Z" fill="#DB4B03"/>
<path d="M32.8363 36.025H32.1138V36.7475H32.8363V36.025Z" fill="#DB4B03"/>
<path d="M32.8363 35.3087H32.1138V36.0237H32.8363V35.3087Z" fill="#DB4B03"/>
<path d="M32.8363 34.5862H32.1138V35.3087H32.8363V34.5862Z" fill="#DB4B03"/>
<path d="M32.8363 33.8712H32.1138V34.5862H32.8363V33.8712Z" fill="#DB4B03"/>
<path d="M32.8363 33.1487H32.1138V33.8712H32.8363V33.1487Z" fill="#DB4B03"/>
<path d="M32.8363 32.4263H32.1138V33.1488H32.8363V32.4263Z" fill="#DB4B03"/>
<path d="M32.8363 31.71H32.1138V32.4263H32.8363V31.71Z" fill="#DB4B03"/>
<path d="M32.8363 30.9888H32.1138V31.7113H32.8363V30.9888Z" fill="#FF5A00"/>
<path d="M32.8363 30.2725H32.1138V30.9875H32.8363V30.2725Z" fill="#FF5A00"/>
<path d="M32.8363 29.55H32.1138V30.2725H32.8363V29.55Z" fill="#FF5A00"/>
<path d="M32.8363 28.835H32.1138V29.55H32.8363V28.835Z" fill="#FF5A00"/>
<path d="M32.8363 28.1125H32.1138V28.835H32.8363V28.1125Z" fill="#FF5A00"/>
<path d="M32.8363 27.39H32.1138V28.1125H32.8363V27.39Z" fill="#FF5A00"/>
<path d="M32.8363 26.6738H32.1138V27.3888H32.8363V26.6738Z" fill="#FF5A00"/>
<path d="M32.8363 25.9513H32.1138V26.6738H32.8363V25.9513Z" fill="#FF5A00"/>
<path d="M32.8363 25.2363H32.1138V25.9513H32.8363V25.2363Z" fill="#FF5A00"/>
<path d="M32.8363 24.5138H32.1138V25.2363H32.8363V24.5138Z" fill="#FF5A00"/>
<path d="M32.8363 23.7988H32.1138V24.5138H32.8363V23.7988Z" fill="#DB4B03"/>
<path d="M32.8363 23.0763H32.1138V23.7988H32.8363V23.0763Z" fill="#DB4B03"/>
<path d="M32.8363 22.36H32.1138V23.075H32.8363V22.36Z" fill="#DB4B03"/>
<path d="M32.8363 21.6375H32.1138V22.36H32.8363V21.6375Z" fill="black"/>
<path d="M32.8363 20.915H32.1138V21.6375H32.8363V20.915Z" fill="black"/>
<path d="M32.1125 37.4625H31.3975V38.185H32.1125V37.4625Z" fill="black"/>
<path d="M32.1125 36.7462H31.3975V37.4625H32.1125V36.7462Z" fill="#DB4B03"/>
<path d="M32.1125 36.025H31.3975V36.7475H32.1125V36.025Z" fill="#DB4B03"/>
<path d="M32.1125 35.3087H31.3975V36.0237H32.1125V35.3087Z" fill="#DB4B03"/>
<path d="M32.1125 34.5862H31.3975V35.3087H32.1125V34.5862Z" fill="#DB4B03"/>
<path d="M32.1125 33.8712H31.3975V34.5862H32.1125V33.8712Z" fill="#DB4B03"/>
<path d="M32.1125 33.1487H31.3975V33.8712H32.1125V33.1487Z" fill="#FF5A00"/>
<path d="M32.1125 32.4263H31.3975V33.1488H32.1125V32.4263Z" fill="#FF5A00"/>
<path d="M32.1125 31.71H31.3975V32.4263H32.1125V31.71Z" fill="#FF5A00"/>
<path d="M32.1125 30.9888H31.3975V31.7113H32.1125V30.9888Z" fill="#FF5A00"/>
<path d="M32.1125 30.2725H31.3975V30.9875H32.1125V30.2725Z" fill="#FF5A00"/>
<path d="M32.1125 29.55H31.3975V30.2725H32.1125V29.55Z" fill="#FF5A00"/>
<path d="M32.1125 28.835H31.3975V29.55H32.1125V28.835Z" fill="#FF5A00"/>
<path d="M32.1125 28.1125H31.3975V28.835H32.1125V28.1125Z" fill="#FF5A00"/>
<path d="M32.1125 27.39H31.3975V28.1125H32.1125V27.39Z" fill="#FF5A00"/>
<path d="M32.1125 26.6738H31.3975V27.3888H32.1125V26.6738Z" fill="#FF5A00"/>
<path d="M32.1125 25.9513H31.3975V26.6738H32.1125V25.9513Z" fill="#FF5A00"/>
<path d="M32.1125 25.2363H31.3975V25.9513H32.1125V25.2363Z" fill="#FF5A00"/>
<path d="M32.1125 24.5138H31.3975V25.2363H32.1125V24.5138Z" fill="#FF5A00"/>
<path d="M32.1125 23.7988H31.3975V24.5138H32.1125V23.7988Z" fill="#FF5A00"/>
<path d="M32.1125 23.0763H31.3975V23.7988H32.1125V23.0763Z" fill="#FF5A00"/>
<path d="M32.1125 22.36H31.3975V23.075H32.1125V22.36Z" fill="#DB4B03"/>
<path d="M32.1125 21.6375H31.3975V22.36H32.1125V21.6375Z" fill="#DB4B03"/>
<path d="M32.1125 20.915H31.3975V21.6375H32.1125V20.915Z" fill="black"/>
<path d="M32.1125 20.2H31.3975V20.915H32.1125V20.2Z" fill="black"/>
<path d="M31.3975 38.185H30.675V38.9H31.3975V38.185Z" fill="black"/>
<path d="M31.3975 37.4625H30.675V38.185H31.3975V37.4625Z" fill="#DB4B03"/>
<path d="M31.3975 36.7462H30.675V37.4625H31.3975V36.7462Z" fill="#DB4B03"/>
<path d="M31.3975 36.025H30.675V36.7475H31.3975V36.025Z" fill="#DB4B03"/>
<path d="M31.3975 35.3087H30.675V36.0237H31.3975V35.3087Z" fill="#DB4B03"/>
<path d="M31.3975 34.5862H30.675V35.3087H31.3975V34.5862Z" fill="#DB4B03"/>
<path d="M31.3975 33.8712H30.675V34.5862H31.3975V33.8712Z" fill="#FF5A00"/>
<path d="M31.3975 33.1487H30.675V33.8712H31.3975V33.1487Z" fill="#FF5A00"/>
<path d="M31.3975 32.4263H30.675V33.1488H31.3975V32.4263Z" fill="#FF5A00"/>
<path d="M31.3975 31.71H30.675V32.4263H31.3975V31.71Z" fill="#FF5A00"/>
<path d="M31.3975 30.9888H30.675V31.7113H31.3975V30.9888Z" fill="#FF5A00"/>
<path d="M31.3975 30.2725H30.675V30.9875H31.3975V30.2725Z" fill="#FF5A00"/>
<path d="M31.3975 29.55H30.675V30.2725H31.3975V29.55Z" fill="#FF5A00"/>
<path d="M31.3975 28.835H30.675V29.55H31.3975V28.835Z" fill="#FF5A00"/>
<path d="M31.3975 28.1125H30.675V28.835H31.3975V28.1125Z" fill="#FF5A00"/>
<path d="M31.3975 27.39H30.675V28.1125H31.3975V27.39Z" fill="#FF5A00"/>
<path d="M31.3975 26.6738H30.675V27.3888H31.3975V26.6738Z" fill="#FF5A00"/>
<path d="M31.3975 25.9513H30.675V26.6738H31.3975V25.9513Z" fill="#FF5A00"/>
<path d="M31.3975 25.2363H30.675V25.9513H31.3975V25.2363Z" fill="#FF5A00"/>
<path d="M31.3975 24.5138H30.675V25.2363H31.3975V24.5138Z" fill="#FF5A00"/>
<path d="M31.3975 23.7988H30.675V24.5138H31.3975V23.7988Z" fill="#FF5A00"/>
<path d="M31.3975 23.0763H30.675V23.7988H31.3975V23.0763Z" fill="#FF5A00"/>
<path d="M31.3975 22.36H30.675V23.075H31.3975V22.36Z" fill="#FF5A00"/>
<path d="M31.3975 21.6375H30.675V22.36H31.3975V21.6375Z" fill="#DB4B03"/>
<path d="M31.3975 20.915H30.675V21.6375H31.3975V20.915Z" fill="#DB4B03"/>
<path d="M31.3975 20.2H30.675V20.915H31.3975V20.2Z" fill="black"/>
<path d="M31.3975 19.4775H30.675V20.2H31.3975V19.4775Z" fill="black"/>
<path d="M31.3975 18.7625H30.675V19.4775H31.3975V18.7625Z" fill="black"/>
<path d="M31.3975 18.04H30.675V18.7625H31.3975V18.04Z" fill="black"/>
<path d="M30.675 38.185H29.96V38.9H30.675V38.185Z" fill="black"/>
<path d="M30.675 37.4625H29.96V38.185H30.675V37.4625Z" fill="#DB4B03"/>
<path d="M30.675 36.7462H29.96V37.4625H30.675V36.7462Z" fill="#DB4B03"/>
<path d="M30.675 36.025H29.96V36.7475H30.675V36.025Z" fill="#DB4B03"/>
<path d="M30.675 35.3087H29.96V36.0237H30.675V35.3087Z" fill="#DB4B03"/>
<path d="M30.675 34.5862H29.96V35.3087H30.675V34.5862Z" fill="#FF5A00"/>
<path d="M30.675 33.8712H29.96V34.5862H30.675V33.8712Z" fill="#FF5A00"/>
<path d="M30.675 33.1487H29.96V33.8712H30.675V33.1487Z" fill="#FF5A00"/>
<path d="M30.675 32.4263H29.96V33.1488H30.675V32.4263Z" fill="#FF5A00"/>
<path d="M30.675 31.71H29.96V32.4263H30.675V31.71Z" fill="#FF5A00"/>
<path d="M30.675 30.9888H29.96V31.7113H30.675V30.9888Z" fill="#FF5A00"/>
<path d="M30.675 30.2725H29.96V30.9875H30.675V30.2725Z" fill="#FF5A00"/>
<path d="M30.675 29.55H29.96V30.2725H30.675V29.55Z" fill="#FF5A00"/>
<path d="M30.675 28.835H29.96V29.55H30.675V28.835Z" fill="#FF5A00"/>
<path d="M30.675 28.1125H29.96V28.835H30.675V28.1125Z" fill="#FF5A00"/>
<path d="M30.675 27.39H29.96V28.1125H30.675V27.39Z" fill="#FF5A00"/>
<path d="M30.675 26.6738H29.96V27.3888H30.675V26.6738Z" fill="#FF5A00"/>
<path d="M30.675 25.9513H29.96V26.6738H30.675V25.9513Z" fill="#FF5A00"/>
<path d="M30.675 25.2363H29.96V25.9513H30.675V25.2363Z" fill="#FF5A00"/>
<path d="M30.675 24.5138H29.96V25.2363H30.675V24.5138Z" fill="#FF5A00"/>
<path d="M30.675 23.7988H29.96V24.5138H30.675V23.7988Z" fill="#FF5A00"/>
<path d="M30.675 23.0763H29.96V23.7988H30.675V23.0763Z" fill="#FF5A00"/>
<path d="M30.675 22.36H29.96V23.075H30.675V22.36Z" fill="#FF5A00"/>
<path d="M30.675 21.6375H29.96V22.36H30.675V21.6375Z" fill="#FF5A00"/>
<path d="M30.675 20.915H29.96V21.6375H30.675V20.915Z" fill="#DB4B03"/>
<path d="M30.675 20.2H29.96V20.915H30.675V20.2Z" fill="#DB4B03"/>
<path d="M30.675 19.4775H29.96V20.2H30.675V19.4775Z" fill="black"/>
<path d="M30.675 18.7625H29.96V19.4775H30.675V18.7625Z" fill="#DB4B03"/>
<path d="M30.675 18.04H29.96V18.7625H30.675V18.04Z" fill="#DB4B03"/>
<path d="M30.675 17.3238H29.96V18.0388H30.675V17.3238Z" fill="black"/>
<path d="M29.96 38.185H29.2375V38.9H29.96V38.185Z" fill="black"/>
<path d="M29.96 37.4625H29.2375V38.185H29.96V37.4625Z" fill="#DB4B03"/>
<path d="M29.96 36.7462H29.2375V37.4625H29.96V36.7462Z" fill="#DB4B03"/>
<path d="M29.96 36.025H29.2375V36.7475H29.96V36.025Z" fill="#DB4B03"/>
<path d="M29.96 35.3087H29.2375V36.0237H29.96V35.3087Z" fill="#FF5A00"/>
<path d="M29.96 34.5862H29.2375V35.3087H29.96V34.5862Z" fill="#FF5A00"/>
<path d="M29.96 33.8712H29.2375V34.5862H29.96V33.8712Z" fill="#FF5A00"/>
<path d="M29.96 33.1487H29.2375V33.8712H29.96V33.1487Z" fill="#FF5A00"/>
<path d="M29.96 32.4263H29.2375V33.1488H29.96V32.4263Z" fill="#FF5A00"/>
<path d="M29.96 31.71H29.2375V32.4263H29.96V31.71Z" fill="#FF5A00"/>
<path d="M29.96 30.9888H29.2375V31.7113H29.96V30.9888Z" fill="#FF5A00"/>
<path d="M29.96 30.2725H29.2375V30.9875H29.96V30.2725Z" fill="#FF5A00"/>
<path d="M29.96 29.55H29.2375V30.2725H29.96V29.55Z" fill="#FF5A00"/>
<path d="M29.96 28.835H29.2375V29.55H29.96V28.835Z" fill="#FF5A00"/>
<path d="M29.96 28.1125H29.2375V28.835H29.96V28.1125Z" fill="#FF5A00"/>
<path d="M29.96 27.39H29.2375V28.1125H29.96V27.39Z" fill="#FF5A00"/>
<path d="M29.96 26.6738H29.2375V27.3888H29.96V26.6738Z" fill="#FF5A00"/>
<path d="M29.96 25.9513H29.2375V26.6738H29.96V25.9513Z" fill="#FF5A00"/>
<path d="M29.96 25.2363H29.2375V25.9513H29.96V25.2363Z" fill="#FF5A00"/>
<path d="M29.96 24.5138H29.2375V25.2363H29.96V24.5138Z" fill="#FF5A00"/>
<path d="M29.96 23.7988H29.2375V24.5138H29.96V23.7988Z" fill="#FF5A00"/>
<path d="M29.96 23.0763H29.2375V23.7988H29.96V23.0763Z" fill="#FF5A00"/>
<path d="M29.96 22.36H29.2375V23.075H29.96V22.36Z" fill="#FF5A00"/>
<path d="M29.96 21.6375H29.2375V22.36H29.96V21.6375Z" fill="#FF5A00"/>
<path d="M29.96 20.915H29.2375V21.6375H29.96V20.915Z" fill="#DB4B03"/>
<path d="M29.96 20.2H29.2375V20.915H29.96V20.2Z" fill="black"/>
<path d="M29.96 19.4775H29.2375V20.2H29.96V19.4775Z" fill="#DB4B03"/>
<path d="M29.96 18.7625H29.2375V19.4775H29.96V18.7625Z" fill="#FF5A00"/>
<path d="M29.96 18.04H29.2375V18.7625H29.96V18.04Z" fill="#DB4B03"/>
<path d="M29.96 17.3238H29.2375V18.0388H29.96V17.3238Z" fill="#DB4B03"/>
<path d="M29.96 16.6013H29.2375V17.3238H29.96V16.6013Z" fill="black"/>
<path d="M29.96 15.8788H29.2375V16.6013H29.96V15.8788Z" fill="black"/>
<path d="M29.2374 38.185H28.5149V38.9H29.2374V38.185Z" fill="black"/>
<path d="M29.2374 37.4625H28.5149V38.185H29.2374V37.4625Z" fill="#DB4B03"/>
<path d="M29.2374 36.7462H28.5149V37.4625H29.2374V36.7462Z" fill="#DB4B03"/>
<path d="M29.2374 36.025H28.5149V36.7475H29.2374V36.025Z" fill="#FF5A00"/>
<path d="M29.2374 35.3087H28.5149V36.0237H29.2374V35.3087Z" fill="#FF5A00"/>
<path d="M29.2374 34.5862H28.5149V35.3087H29.2374V34.5862Z" fill="#FF5A00"/>
<path d="M29.2374 33.8712H28.5149V34.5862H29.2374V33.8712Z" fill="#FF5A00"/>
<path d="M29.2374 33.1487H28.5149V33.8712H29.2374V33.1487Z" fill="#FF5A00"/>
<path d="M29.2374 32.4263H28.5149V33.1488H29.2374V32.4263Z" fill="#FF5A00"/>
<path d="M29.2374 31.71H28.5149V32.4263H29.2374V31.71Z" fill="#FF5A00"/>
<path d="M29.2374 30.9888H28.5149V31.7113H29.2374V30.9888Z" fill="#FF5A00"/>
<path d="M29.2374 30.2725H28.5149V30.9875H29.2374V30.2725Z" fill="#FF5A00"/>
<path d="M29.2374 29.55H28.5149V30.2725H29.2374V29.55Z" fill="#FF5A00"/>
<path d="M29.2374 28.835H28.5149V29.55H29.2374V28.835Z" fill="#FF5A00"/>
<path d="M29.2374 28.1125H28.5149V28.835H29.2374V28.1125Z" fill="#FF5A00"/>
<path d="M29.2374 27.39H28.5149V28.1125H29.2374V27.39Z" fill="#FF5A00"/>
<path d="M29.2374 26.6738H28.5149V27.3888H29.2374V26.6738Z" fill="#FF5A00"/>
<path d="M29.2374 25.9513H28.5149V26.6738H29.2374V25.9513Z" fill="#FF5A00"/>
<path d="M29.2374 25.2363H28.5149V25.9513H29.2374V25.2363Z" fill="#FF5A00"/>
<path d="M29.2374 24.5138H28.5149V25.2363H29.2374V24.5138Z" fill="#FF5A00"/>
<path d="M29.2374 23.7988H28.5149V24.5138H29.2374V23.7988Z" fill="#FF5A00"/>
<path d="M29.2374 23.0763H28.5149V23.7988H29.2374V23.0763Z" fill="#FF5A00"/>
<path d="M29.2374 22.36H28.5149V23.075H29.2374V22.36Z" fill="#DB4B03"/>
<path d="M29.2374 21.6375H28.5149V22.36H29.2374V21.6375Z" fill="#DB4B03"/>
<path d="M29.2374 20.915H28.5149V21.6375H29.2374V20.915Z" fill="black"/>
<path d="M29.2374 20.2H28.5149V20.915H29.2374V20.2Z" fill="#DB4B03"/>
<path d="M29.2374 19.4775H28.5149V20.2H29.2374V19.4775Z" fill="#FF5A00"/>
<path d="M29.2374 18.7625H28.5149V19.4775H29.2374V18.7625Z" fill="#FF5A00"/>
<path d="M29.2374 18.04H28.5149V18.7625H29.2374V18.04Z" fill="#FF5A00"/>
<path d="M29.2374 17.3238H28.5149V18.0388H29.2374V17.3238Z" fill="#DB4B03"/>
<path d="M29.2374 16.6013H28.5149V17.3238H29.2374V16.6013Z" fill="#DB4B03"/>
<path d="M29.2374 15.8788H28.5149V16.6013H29.2374V15.8788Z" fill="#DB4B03"/>
<path d="M29.2374 15.1638H28.5149V15.8788H29.2374V15.1638Z" fill="black"/>
<path d="M29.2374 14.4413H28.5149V15.1638H29.2374V14.4413Z" fill="black"/>
<path d="M28.5138 38.185H27.7988V38.9H28.5138V38.185Z" fill="black"/>
<path d="M28.5138 37.4625H27.7988V38.185H28.5138V37.4625Z" fill="#DB4B03"/>
<path d="M28.5138 36.7462H27.7988V37.4625H28.5138V36.7462Z" fill="#DB4B03"/>
<path d="M28.5138 36.025H27.7988V36.7475H28.5138V36.025Z" fill="#FF5A00"/>
<path d="M28.5138 35.3087H27.7988V36.0237H28.5138V35.3087Z" fill="#FF5A00"/>
<path d="M28.5138 34.5862H27.7988V35.3087H28.5138V34.5862Z" fill="#FF5A00"/>
<path d="M28.5138 33.8712H27.7988V34.5862H28.5138V33.8712Z" fill="#FF5A00"/>
<path d="M28.5138 33.1487H27.7988V33.8712H28.5138V33.1487Z" fill="#FF5A00"/>
<path d="M28.5138 32.4263H27.7988V33.1488H28.5138V32.4263Z" fill="#FF5A00"/>
<path d="M28.5138 31.71H27.7988V32.4263H28.5138V31.71Z" fill="#FF5A00"/>
<path d="M28.5138 30.9888H27.7988V31.7113H28.5138V30.9888Z" fill="#FF5A00"/>
<path d="M28.5138 30.2725H27.7988V30.9875H28.5138V30.2725Z" fill="#FF5A00"/>
<path d="M28.5138 29.55H27.7988V30.2725H28.5138V29.55Z" fill="#FF5A00"/>
<path d="M28.5138 28.835H27.7988V29.55H28.5138V28.835Z" fill="#FF5A00"/>
<path d="M28.5138 28.1125H27.7988V28.835H28.5138V28.1125Z" fill="#FF5A00"/>
<path d="M28.5138 27.39H27.7988V28.1125H28.5138V27.39Z" fill="#FF5A00"/>
<path d="M28.5138 26.6738H27.7988V27.3888H28.5138V26.6738Z" fill="#FF5A00"/>
<path d="M28.5138 25.9513H27.7988V26.6738H28.5138V25.9513Z" fill="#FF5A00"/>
<path d="M28.5138 25.2363H27.7988V25.9513H28.5138V25.2363Z" fill="#FF5A00"/>
<path d="M28.5138 24.5138H27.7988V25.2363H28.5138V24.5138Z" fill="#FF5A00"/>
<path d="M28.5138 23.7988H27.7988V24.5138H28.5138V23.7988Z" fill="#FF5A00"/>
<path d="M28.5138 23.0763H27.7988V23.7988H28.5138V23.0763Z" fill="#DB4B03"/>
<path d="M28.5138 22.36H27.7988V23.075H28.5138V22.36Z" fill="black"/>
<path d="M28.5138 21.6375H27.7988V22.36H28.5138V21.6375Z" fill="black"/>
<path d="M28.5138 20.915H27.7988V21.6375H28.5138V20.915Z" fill="#FF5A00"/>
<path d="M28.5138 20.2H27.7988V20.915H28.5138V20.2Z" fill="black"/>
<path d="M28.5138 19.4775H27.7988V20.2H28.5138V19.4775Z" fill="#FF5A00"/>
<path d="M28.5138 18.7625H27.7988V19.4775H28.5138V18.7625Z" fill="#FF5A00"/>
<path d="M28.5138 18.04H27.7988V18.7625H28.5138V18.04Z" fill="#FF5A00"/>
<path d="M28.5138 17.3238H27.7988V18.0388H28.5138V17.3238Z" fill="#FF5A00"/>
<path d="M28.5138 16.6013H27.7988V17.3238H28.5138V16.6013Z" fill="#DB4B03"/>
<path d="M28.5138 15.8788H27.7988V16.6013H28.5138V15.8788Z" fill="#DB4B03"/>
<path d="M28.5138 15.1638H27.7988V15.8788H28.5138V15.1638Z" fill="#DB4B03"/>
<path d="M28.5138 14.4413H27.7988V15.1638H28.5138V14.4413Z" fill="black"/>
<path d="M28.5138 13.7263H27.7988V14.4413H28.5138V13.7263Z" fill="black"/>
<path d="M28.5138 13.0038H27.7988V13.7263H28.5138V13.0038Z" fill="black"/>
<path d="M27.7987 38.185H27.0762V38.9H27.7987V38.185Z" fill="black"/>
<path d="M27.7987 37.4625H27.0762V38.185H27.7987V37.4625Z" fill="#DB4B03"/>
<path d="M27.7987 36.7462H27.0762V37.4625H27.7987V36.7462Z" fill="#FF5A00"/>
<path d="M27.7987 36.025H27.0762V36.7475H27.7987V36.025Z" fill="#FF5A00"/>
<path d="M27.7987 35.3087H27.0762V36.0237H27.7987V35.3087Z" fill="#FF5A00"/>
<path d="M27.7987 34.5862H27.0762V35.3087H27.7987V34.5862Z" fill="#FF5A00"/>
<path d="M27.7987 33.8712H27.0762V34.5862H27.7987V33.8712Z" fill="#FF5A00"/>
<path d="M27.7987 33.1487H27.0762V33.8712H27.7987V33.1487Z" fill="#FF5A00"/>
<path d="M27.7987 32.4263H27.0762V33.1488H27.7987V32.4263Z" fill="#FF5A00"/>
<path d="M27.7987 31.71H27.0762V32.4263H27.7987V31.71Z" fill="#FF5A00"/>
<path d="M27.7987 30.9888H27.0762V31.7113H27.7987V30.9888Z" fill="#FF5A00"/>
<path d="M27.7987 30.2725H27.0762V30.9875H27.7987V30.2725Z" fill="#FF5A00"/>
<path d="M27.7987 29.55H27.0762V30.2725H27.7987V29.55Z" fill="#FF5A00"/>
<path d="M27.7987 28.835H27.0762V29.55H27.7987V28.835Z" fill="#FF5A00"/>
<path d="M27.7987 28.1125H27.0762V28.835H27.7987V28.1125Z" fill="#FF5A00"/>
<path d="M27.7987 27.39H27.0762V28.1125H27.7987V27.39Z" fill="#FF5A00"/>
<path d="M27.7987 26.6738H27.0762V27.3888H27.7987V26.6738Z" fill="#FF5A00"/>
<path d="M27.7987 25.9513H27.0762V26.6738H27.7987V25.9513Z" fill="#DB4B03"/>
<path d="M27.7987 25.2363H27.0762V25.9513H27.7987V25.2363Z" fill="#DB4B03"/>
<path d="M27.7987 24.5138H27.0762V25.2363H27.7987V24.5138Z" fill="#DB4B03"/>
<path d="M27.7987 23.7988H27.0762V24.5138H27.7987V23.7988Z" fill="#DB4B03"/>
<path d="M27.7987 23.0763H27.0762V23.7988H27.7987V23.0763Z" fill="#6B1F01"/>
<path d="M27.7987 22.36H27.0762V23.075H27.7987V22.36Z" fill="#6B1F01"/>
<path d="M27.7987 21.6375H27.0762V22.36H27.7987V21.6375Z" fill="black"/>
<path d="M27.7987 20.915H27.0762V21.6375H27.7987V20.915Z" fill="#FF5A00"/>
<path d="M27.7987 20.2H27.0762V20.915H27.7987V20.2Z" fill="black"/>
<path d="M27.7987 19.4775H27.0762V20.2H27.7987V19.4775Z" fill="black"/>
<path d="M27.7987 18.7625H27.0762V19.4775H27.7987V18.7625Z" fill="#FF5A00"/>
<path d="M27.7987 18.04H27.0762V18.7625H27.7987V18.04Z" fill="#FF5A00"/>
<path d="M27.7987 17.3238H27.0762V18.0388H27.7987V17.3238Z" fill="#FF5A00"/>
<path d="M27.7987 16.6013H27.0762V17.3238H27.7987V16.6013Z" fill="#FF5A00"/>
<path d="M27.7987 15.8788H27.0762V16.6013H27.7987V15.8788Z" fill="#FF5A00"/>
<path d="M27.7987 15.1638H27.0762V15.8788H27.7987V15.1638Z" fill="#DB4B03"/>
<path d="M27.7987 14.4413H27.0762V15.1638H27.7987V14.4413Z" fill="#DB4B03"/>
<path d="M27.7987 13.7263H27.0762V14.4413H27.7987V13.7263Z" fill="#FF5A00"/>
<path d="M27.7987 13.0038H27.0762V13.7263H27.7987V13.0038Z" fill="black"/>
<path d="M27.0763 38.185H26.3613V38.9H27.0763V38.185Z" fill="black"/>
<path d="M27.0763 37.4625H26.3613V38.185H27.0763V37.4625Z" fill="black"/>
<path d="M27.0763 36.7462H26.3613V37.4625H27.0763V36.7462Z" fill="black"/>
<path d="M27.0763 36.025H26.3613V36.7475H27.0763V36.025Z" fill="black"/>
<path d="M27.0763 35.3087H26.3613V36.0237H27.0763V35.3087Z" fill="black"/>
<path d="M27.0763 34.5862H26.3613V35.3087H27.0763V34.5862Z" fill="black"/>
<path d="M27.0763 33.8712H26.3613V34.5862H27.0763V33.8712Z" fill="black"/>
<path d="M27.0763 33.1487H26.3613V33.8712H27.0763V33.1487Z" fill="black"/>
<path d="M27.0763 32.4263H26.3613V33.1488H27.0763V32.4263Z" fill="black"/>
<path d="M27.0763 31.71H26.3613V32.4263H27.0763V31.71Z" fill="black"/>
<path d="M27.0763 30.9888H26.3613V31.7113H27.0763V30.9888Z" fill="black"/>
<path d="M27.0763 30.2725H26.3613V30.9875H27.0763V30.2725Z" fill="black"/>
<path d="M27.0763 29.55H26.3613V30.2725H27.0763V29.55Z" fill="black"/>
<path d="M27.0763 28.835H26.3613V29.55H27.0763V28.835Z" fill="black"/>
<path d="M27.0763 28.1125H26.3613V28.835H27.0763V28.1125Z" fill="black"/>
<path d="M27.0763 27.39H26.3613V28.1125H27.0763V27.39Z" fill="black"/>
<path d="M27.0763 26.6738H26.3613V27.3888H27.0763V26.6738Z" fill="black"/>
<path d="M27.0763 25.9513H26.3613V26.6738H27.0763V25.9513Z" fill="black"/>
<path d="M27.0763 25.2363H26.3613V25.9513H27.0763V25.2363Z" fill="black"/>
<path d="M27.0763 24.5138H26.3613V25.2363H27.0763V24.5138Z" fill="black"/>
<path d="M27.0763 23.7988H26.3613V24.5138H27.0763V23.7988Z" fill="black"/>
<path d="M27.0763 23.0763H26.3613V23.7988H27.0763V23.0763Z" fill="#200621"/>
<path d="M27.0763 22.36H26.3613V23.075H27.0763V22.36Z" fill="#6B1F01"/>
<path d="M27.0763 21.6375H26.3613V22.36H27.0763V21.6375Z" fill="black"/>
<path d="M27.0763 20.915H26.3613V21.6375H27.0763V20.915Z" fill="black"/>
<path d="M27.0763 20.2H26.3613V20.915H27.0763V20.2Z" fill="#200621"/>
<path d="M27.0763 19.4775H26.3613V20.2H27.0763V19.4775Z" fill="#200621"/>
<path d="M27.0763 18.7625H26.3613V19.4775H27.0763V18.7625Z" fill="black"/>
<path d="M27.0763 18.04H26.3613V18.7625H27.0763V18.04Z" fill="#FF5A00"/>
<path d="M27.0763 17.3238H26.3613V18.0388H27.0763V17.3238Z" fill="#FF5A00"/>
<path d="M27.0763 16.6013H26.3613V17.3238H27.0763V16.6013Z" fill="#FF5A00"/>
<path d="M27.0763 15.8788H26.3613V16.6013H27.0763V15.8788Z" fill="#FF5A00"/>
<path d="M27.0763 15.1638H26.3613V15.8788H27.0763V15.1638Z" fill="#FF5A00"/>
<path d="M27.0763 14.4413H26.3613V15.1638H27.0763V14.4413Z" fill="#DB4B03"/>
<path d="M27.0763 13.7263H26.3613V14.4413H27.0763V13.7263Z" fill="#DB4B03"/>
<path d="M27.0763 13.0038H26.3613V13.7263H27.0763V13.0038Z" fill="#DB4B03"/>
<path d="M27.0763 12.2888H26.3613V13.0038H27.0763V12.2888Z" fill="black"/>
<path d="M26.3612 38.185H25.6387V38.9H26.3612V38.185Z" fill="black"/>
<path d="M26.3612 36.025H25.6387V36.7475H26.3612V36.025Z" fill="black"/>
<path d="M26.3612 32.4263H25.6387V33.1488H26.3612V32.4263Z" fill="#200621"/>
<path d="M26.3612 31.71H25.6387V32.4263H26.3612V31.71Z" fill="#6B1F01"/>
<path d="M26.3612 30.9888H25.6387V31.7113H26.3612V30.9888Z" fill="#6B1F01"/>
<path d="M26.3612 30.2725H25.6387V30.9875H26.3612V30.2725Z" fill="#6B1F01"/>
<path d="M26.3612 29.55H25.6387V30.2725H26.3612V29.55Z" fill="#6B1F01"/>
<path d="M26.3612 28.835H25.6387V29.55H26.3612V28.835Z" fill="#6B1F01"/>
<path d="M26.3612 28.1125H25.6387V28.835H26.3612V28.1125Z" fill="#200621"/>
<path d="M26.3612 27.39H25.6387V28.1125H26.3612V27.39Z" fill="#6B1F01"/>
<path d="M26.3612 26.6738H25.6387V27.3888H26.3612V26.6738Z" fill="#6B1F01"/>
<path d="M26.3612 25.9513H25.6387V26.6738H26.3612V25.9513Z" fill="#6B1F01"/>
<path d="M26.3612 25.2363H25.6387V25.9513H26.3612V25.2363Z" fill="#6B1F01"/>
<path d="M26.3612 24.5138H25.6387V25.2363H26.3612V24.5138Z" fill="#6B1F01"/>
<path d="M26.3612 23.7988H25.6387V24.5138H26.3612V23.7988Z" fill="#6B1F01"/>
<path d="M26.3612 23.0763H25.6387V23.7988H26.3612V23.0763Z" fill="#200621"/>
<path d="M26.3612 22.36H25.6387V23.075H26.3612V22.36Z" fill="#6B1F01"/>
<path d="M26.3612 21.6375H25.6387V22.36H26.3612V21.6375Z" fill="black"/>
<path d="M26.3612 20.915H25.6387V21.6375H26.3612V20.915Z" fill="#200621"/>
<path d="M26.3612 20.2H25.6387V20.915H26.3612V20.2Z" fill="#200621"/>
<path d="M26.3612 19.4775H25.6387V20.2H26.3612V19.4775Z" fill="#200621"/>
<path d="M26.3612 18.7625H25.6387V19.4775H26.3612V18.7625Z" fill="#200621"/>
<path d="M26.3612 18.04H25.6387V18.7625H26.3612V18.04Z" fill="black"/>
<path d="M26.3612 17.3238H25.6387V18.0388H26.3612V17.3238Z" fill="#FF5A00"/>
<path d="M26.3612 16.6013H25.6387V17.3238H26.3612V16.6013Z" fill="#FF5A00"/>
<path d="M26.3612 15.8788H25.6387V16.6013H26.3612V15.8788Z" fill="#FF5A00"/>
<path d="M26.3612 15.1638H25.6387V15.8788H26.3612V15.1638Z" fill="#FF5A00"/>
<path d="M26.3612 14.4413H25.6387V15.1638H26.3612V14.4413Z" fill="#FF5A00"/>
<path d="M26.3612 13.7263H25.6387V14.4413H26.3612V13.7263Z" fill="#FF5A00"/>
<path d="M26.3612 13.0038H25.6387V13.7263H26.3612V13.0038Z" fill="#DB4B03"/>
<path d="M26.3612 12.2888H25.6387V13.0038H26.3612V12.2888Z" fill="black"/>
<path d="M25.6388 38.185H24.9238V38.9H25.6388V38.185Z" fill="black"/>
<path d="M25.6388 37.4625H24.9238V38.185H25.6388V37.4625Z" fill="black"/>
<path d="M25.6388 36.7462H24.9238V37.4625H25.6388V36.7462Z" fill="black"/>
<path d="M25.6388 32.4263H24.9238V33.1488H25.6388V32.4263Z" fill="#200621"/>
<path d="M25.6388 31.71H24.9238V32.4263H25.6388V31.71Z" fill="#7C2A05"/>
<path d="M25.6388 30.9888H24.9238V31.7113H25.6388V30.9888Z" fill="#6B1F01"/>
<path d="M25.6388 30.2725H24.9238V30.9875H25.6388V30.2725Z" fill="#6B1F01"/>
<path d="M25.6388 29.55H24.9238V30.2725H25.6388V29.55Z" fill="#6B1F01"/>
<path d="M25.6388 28.835H24.9238V29.55H25.6388V28.835Z" fill="#6B1F01"/>
<path d="M25.6388 28.1125H24.9238V28.835H25.6388V28.1125Z" fill="#200621"/>
<path d="M25.6388 27.39H24.9238V28.1125H25.6388V27.39Z" fill="#200621"/>
<path d="M25.6388 26.6738H24.9238V27.3888H25.6388V26.6738Z" fill="#7C2A05"/>
<path d="M25.6388 25.9513H24.9238V26.6738H25.6388V25.9513Z" fill="#7C2A05"/>
<path d="M25.6388 25.2363H24.9238V25.9513H25.6388V25.2363Z" fill="#6B1F01"/>
<path d="M25.6388 24.5138H24.9238V25.2363H25.6388V24.5138Z" fill="#6B1F01"/>
<path d="M25.6388 23.7988H24.9238V24.5138H25.6388V23.7988Z" fill="#6B1F01"/>
<path d="M25.6388 23.0763H24.9238V23.7988H25.6388V23.0763Z" fill="#200621"/>
<path d="M25.6388 22.36H24.9238V23.075H25.6388V22.36Z" fill="#7C2A05"/>
<path d="M25.6388 21.6375H24.9238V22.36H25.6388V21.6375Z" fill="#6B1F01"/>
<path d="M25.6388 20.915H24.9238V21.6375H25.6388V20.915Z" fill="#200621"/>
<path d="M25.6388 20.2H24.9238V20.915H25.6388V20.2Z" fill="#200621"/>
<path d="M25.6388 19.4775H24.9238V20.2H25.6388V19.4775Z" fill="#200621"/>
<path d="M25.6388 18.7625H24.9238V19.4775H25.6388V18.7625Z" fill="#200621"/>
<path d="M25.6388 18.04H24.9238V18.7625H25.6388V18.04Z" fill="#200621"/>
<path d="M25.6388 17.3238H24.9238V18.0388H25.6388V17.3238Z" fill="black"/>
<path d="M25.6388 16.6013H24.9238V17.3238H25.6388V16.6013Z" fill="#FF5A00"/>
<path d="M25.6388 15.8788H24.9238V16.6013H25.6388V15.8788Z" fill="#FF5A00"/>
<path d="M25.6388 15.1638H24.9238V15.8788H25.6388V15.1638Z" fill="#FF5A00"/>
<path d="M25.6388 14.4413H24.9238V15.1638H25.6388V14.4413Z" fill="#FF5A00"/>
<path d="M25.6388 13.7263H24.9238V14.4413H25.6388V13.7263Z" fill="#FF5A00"/>
<path d="M25.6388 13.0038H24.9238V13.7263H25.6388V13.0038Z" fill="#FF5A00"/>
<path d="M25.6388 12.2888H24.9238V13.0038H25.6388V12.2888Z" fill="black"/>
<path d="M24.9237 38.185H24.2012V38.9H24.9237V38.185Z" fill="black"/>
<path d="M24.9237 32.4263H24.2012V33.1488H24.9237V32.4263Z" fill="#200621"/>
<path d="M24.9237 31.71H24.2012V32.4263H24.9237V31.71Z" fill="#7C2A05"/>
<path d="M24.9237 30.9888H24.2012V31.7113H24.9237V30.9888Z" fill="#7C2A05"/>
<path d="M24.9237 30.2725H24.2012V30.9875H24.9237V30.2725Z" fill="#7C2A05"/>
<path d="M24.9237 29.55H24.2012V30.2725H24.9237V29.55Z" fill="#6B1F01"/>
<path d="M24.9237 28.835H24.2012V29.55H24.9237V28.835Z" fill="#6B1F01"/>
<path d="M24.9237 28.1125H24.2012V28.835H24.9237V28.1125Z" fill="#6B1F01"/>
<path d="M24.9237 27.39H24.2012V28.1125H24.9237V27.39Z" fill="#200621"/>
<path d="M24.9237 26.6738H24.2012V27.3888H24.9237V26.6738Z" fill="#7C2A05"/>
<path d="M24.9237 25.9513H24.2012V26.6738H24.9237V25.9513Z" fill="#7C2A05"/>
<path d="M24.9237 25.2363H24.2012V25.9513H24.9237V25.2363Z" fill="#7C2A05"/>
<path d="M24.9237 24.5138H24.2012V25.2363H24.9237V24.5138Z" fill="#6B1F01"/>
<path d="M24.9237 23.7988H24.2012V24.5138H24.9237V23.7988Z" fill="#6B1F01"/>
<path d="M24.9237 23.0763H24.2012V23.7988H24.9237V23.0763Z" fill="#200621"/>
<path d="M24.9237 22.36H24.2012V23.075H24.9237V22.36Z" fill="#7C2A05"/>
<path d="M24.9237 21.6375H24.2012V22.36H24.9237V21.6375Z" fill="#200621"/>
<path d="M24.9237 20.915H24.2012V21.6375H24.9237V20.915Z" fill="#200621"/>
<path d="M24.9237 20.2H24.2012V20.915H24.9237V20.2Z" fill="#200621"/>
<path d="M24.9237 19.4775H24.2012V20.2H24.9237V19.4775Z" fill="#200621"/>
<path d="M24.9237 18.7625H24.2012V19.4775H24.9237V18.7625Z" fill="#200621"/>
<path d="M24.9237 18.04H24.2012V18.7625H24.9237V18.04Z" fill="#200621"/>
<path d="M24.9237 17.3238H24.2012V18.0388H24.9237V17.3238Z" fill="#200621"/>
<path d="M24.9237 16.6013H24.2012V17.3238H24.9237V16.6013Z" fill="black"/>
<path d="M24.9237 15.8788H24.2012V16.6013H24.9237V15.8788Z" fill="#FF5A00"/>
<path d="M24.9237 15.1638H24.2012V15.8788H24.9237V15.1638Z" fill="#FF5A00"/>
<path d="M24.9237 14.4413H24.2012V15.1638H24.9237V14.4413Z" fill="#FF5A00"/>
<path d="M24.9237 13.7263H24.2012V14.4413H24.9237V13.7263Z" fill="#FF5A00"/>
<path d="M24.9237 13.0038H24.2012V13.7263H24.9237V13.0038Z" fill="#FF5A00"/>
<path d="M24.9237 12.2888H24.2012V13.0038H24.9237V12.2888Z" fill="black"/>
<path d="M24.1999 38.185H23.4849V38.9H24.1999V38.185Z" fill="black"/>
<path d="M24.1999 37.4625H23.4849V38.185H24.1999V37.4625Z" fill="black"/>
<path d="M24.1999 36.7462H23.4849V37.4625H24.1999V36.7462Z" fill="#200621"/>
<path d="M24.1999 36.025H23.4849V36.7475H24.1999V36.025Z" fill="#200621"/>
<path d="M24.1999 35.3087H23.4849V36.0237H24.1999V35.3087Z" fill="#200621"/>
<path d="M24.1999 34.5862H23.4849V35.3087H24.1999V34.5862Z" fill="#200621"/>
<path d="M24.1999 33.8712H23.4849V34.5862H24.1999V33.8712Z" fill="#200621"/>
<path d="M24.1999 33.1487H23.4849V33.8712H24.1999V33.1487Z" fill="#200621"/>
<path d="M24.1999 32.4263H23.4849V33.1488H24.1999V32.4263Z" fill="#7C2A05"/>
<path d="M24.1999 31.71H23.4849V32.4263H24.1999V31.71Z" fill="#7C2A05"/>
<path d="M24.1999 30.9888H23.4849V31.7113H24.1999V30.9888Z" fill="#7C2A05"/>
<path d="M24.1999 30.2725H23.4849V30.9875H24.1999V30.2725Z" fill="#7C2A05"/>
<path d="M24.1999 29.55H23.4849V30.2725H24.1999V29.55Z" fill="#7C2A05"/>
<path d="M24.1999 28.835H23.4849V29.55H24.1999V28.835Z" fill="#7C2A05"/>
<path d="M24.1999 28.1125H23.4849V28.835H24.1999V28.1125Z" fill="#6B1F01"/>
<path d="M24.1999 27.39H23.4849V28.1125H24.1999V27.39Z" fill="#200621"/>
<path d="M24.1999 26.6738H23.4849V27.3888H24.1999V26.6738Z" fill="#200621"/>
<path d="M24.1999 25.9513H23.4849V26.6738H24.1999V25.9513Z" fill="#7C2A05"/>
<path d="M24.1999 25.2363H23.4849V25.9513H24.1999V25.2363Z" fill="#7C2A05"/>
<path d="M24.1999 24.5138H23.4849V25.2363H24.1999V24.5138Z" fill="#7C2A05"/>
<path d="M24.1999 23.7988H23.4849V24.5138H24.1999V23.7988Z" fill="#6B1F01"/>
<path d="M24.1999 23.0763H23.4849V23.7988H24.1999V23.0763Z" fill="#200621"/>
<path d="M24.1999 22.36H23.4849V23.075H24.1999V22.36Z" fill="#7C2A05"/>
<path d="M24.1999 21.6375H23.4849V22.36H24.1999V21.6375Z" fill="#200621"/>
<path d="M24.1999 20.915H23.4849V21.6375H24.1999V20.915Z" fill="#200621"/>
<path d="M24.1999 20.2H23.4849V20.915H24.1999V20.2Z" fill="#200621"/>
<path d="M24.1999 19.4775H23.4849V20.2H24.1999V19.4775Z" fill="#200621"/>
<path d="M24.1999 18.7625H23.4849V19.4775H24.1999V18.7625Z" fill="#200621"/>
<path d="M24.1999 18.04H23.4849V18.7625H24.1999V18.04Z" fill="#200621"/>
<path d="M24.1999 17.3238H23.4849V18.0388H24.1999V17.3238Z" fill="#200621"/>
<path d="M24.1999 16.6013H23.4849V17.3238H24.1999V16.6013Z" fill="black"/>
<path d="M24.1999 15.8788H23.4849V16.6013H24.1999V15.8788Z" fill="black"/>
<path d="M24.1999 15.1638H23.4849V15.8788H24.1999V15.1638Z" fill="#FF5A00"/>
<path d="M24.1999 14.4413H23.4849V15.1638H24.1999V14.4413Z" fill="#FF5A00"/>
<path d="M24.1999 13.7263H23.4849V14.4413H24.1999V13.7263Z" fill="#FF5A00"/>
<path d="M24.1999 13.0038H23.4849V13.7263H24.1999V13.0038Z" fill="#FF5A00"/>
<path d="M24.1999 12.2888H23.4849V13.0038H24.1999V12.2888Z" fill="black"/>
<path d="M23.485 38.185H22.7625V38.9H23.485V38.185Z" fill="black"/>
<path d="M23.485 32.4263H22.7625V33.1488H23.485V32.4263Z" fill="#200621"/>
<path d="M23.485 31.71H22.7625V32.4263H23.485V31.71Z" fill="#7C2A05"/>
<path d="M23.485 30.9888H22.7625V31.7113H23.485V30.9888Z" fill="#7C2A05"/>
<path d="M23.485 30.2725H22.7625V30.9875H23.485V30.2725Z" fill="#7C2A05"/>
<path d="M23.485 29.55H22.7625V30.2725H23.485V29.55Z" fill="#7C2A05"/>
<path d="M23.485 28.835H22.7625V29.55H23.485V28.835Z" fill="#7C2A05"/>
<path d="M23.485 28.1125H22.7625V28.835H23.485V28.1125Z" fill="#7C2A05"/>
<path d="M23.485 27.39H22.7625V28.1125H23.485V27.39Z" fill="#7C2A05"/>
<path d="M23.485 26.6738H22.7625V27.3888H23.485V26.6738Z" fill="#200621"/>
<path d="M23.485 25.9513H22.7625V26.6738H23.485V25.9513Z" fill="#6B1F01"/>
<path d="M23.485 25.2363H22.7625V25.9513H23.485V25.2363Z" fill="#7C2A05"/>
<path d="M23.485 24.5138H22.7625V25.2363H23.485V24.5138Z" fill="#7C2A05"/>
<path d="M23.485 23.7988H22.7625V24.5138H23.485V23.7988Z" fill="#7C2A05"/>
<path d="M23.485 23.0763H22.7625V23.7988H23.485V23.0763Z" fill="#200621"/>
<path d="M23.485 22.36H22.7625V23.075H23.485V22.36Z" fill="#200621"/>
<path d="M23.485 21.6375H22.7625V22.36H23.485V21.6375Z" fill="#200621"/>
<path d="M23.485 20.915H22.7625V21.6375H23.485V20.915Z" fill="#200621"/>
<path d="M23.485 20.2H22.7625V20.915H23.485V20.2Z" fill="#200621"/>
<path d="M23.485 19.4775H22.7625V20.2H23.485V19.4775Z" fill="#200621"/>
<path d="M23.485 18.7625H22.7625V19.4775H23.485V18.7625Z" fill="#200621"/>
<path d="M23.485 18.04H22.7625V18.7625H23.485V18.04Z" fill="#200621"/>
<path d="M23.485 17.3238H22.7625V18.0388H23.485V17.3238Z" fill="#200621"/>
<path d="M23.485 16.6013H22.7625V17.3238H23.485V16.6013Z" fill="#200621"/>
<path d="M23.485 15.8788H22.7625V16.6013H23.485V15.8788Z" fill="black"/>
<path d="M23.485 15.1638H22.7625V15.8788H23.485V15.1638Z" fill="#FF5A00"/>
<path d="M23.485 14.4413H22.7625V15.1638H23.485V14.4413Z" fill="#FF5A00"/>
<path d="M23.485 13.7263H22.7625V14.4413H23.485V13.7263Z" fill="#FF5A00"/>
<path d="M23.485 13.0038H22.7625V13.7263H23.485V13.0038Z" fill="black"/>
<path d="M22.7625 38.185H22.04V38.9H22.7625V38.185Z" fill="black"/>
<path d="M22.7625 37.4625H22.04V38.185H22.7625V37.4625Z" fill="black"/>
<path d="M22.7625 31.71H22.04V32.4263H22.7625V31.71Z" fill="#200621"/>
<path d="M22.7625 30.9888H22.04V31.7113H22.7625V30.9888Z" fill="#6B1F01"/>
<path d="M22.7625 30.2725H22.04V30.9875H22.7625V30.2725Z" fill="#7C2A05"/>
<path d="M22.7625 29.55H22.04V30.2725H22.7625V29.55Z" fill="#7C2A05"/>
<path d="M22.7625 28.835H22.04V29.55H22.7625V28.835Z" fill="#7C2A05"/>
<path d="M22.7625 28.1125H22.04V28.835H22.7625V28.1125Z" fill="#7C2A05"/>
<path d="M22.7625 27.39H22.04V28.1125H22.7625V27.39Z" fill="#6B1F01"/>
<path d="M22.7625 26.6738H22.04V27.3888H22.7625V26.6738Z" fill="#200621"/>
<path d="M22.7625 25.9513H22.04V26.6738H22.7625V25.9513Z" fill="#6B1F01"/>
<path d="M22.7625 25.2363H22.04V25.9513H22.7625V25.2363Z" fill="#200621"/>
<path d="M22.7625 24.5138H22.04V25.2363H22.7625V24.5138Z" fill="#200621"/>
<path d="M22.7625 23.7988H22.04V24.5138H22.7625V23.7988Z" fill="#200621"/>
<path d="M22.7625 23.0763H22.04V23.7988H22.7625V23.0763Z" fill="#6B1F01"/>
<path d="M22.7625 22.36H22.04V23.075H22.7625V22.36Z" fill="#200621"/>
<path d="M22.7625 21.6375H22.04V22.36H22.7625V21.6375Z" fill="#200621"/>
<path d="M22.7625 20.915H22.04V21.6375H22.7625V20.915Z" fill="#200621"/>
<path d="M22.7625 20.2H22.04V20.915H22.7625V20.2Z" fill="#200621"/>
<path d="M22.7625 19.4775H22.04V20.2H22.7625V19.4775Z" fill="#200621"/>
<path d="M22.7625 18.7625H22.04V19.4775H22.7625V18.7625Z" fill="#200621"/>
<path d="M22.7625 18.04H22.04V18.7625H22.7625V18.04Z" fill="#200621"/>
<path d="M22.7625 17.3238H22.04V18.0388H22.7625V17.3238Z" fill="#200621"/>
<path d="M22.7625 16.6013H22.04V17.3238H22.7625V16.6013Z" fill="#200621"/>
<path d="M22.7625 15.8788H22.04V16.6013H22.7625V15.8788Z" fill="black"/>
<path d="M22.7625 15.1638H22.04V15.8788H22.7625V15.1638Z" fill="#FF5A00"/>
<path d="M22.7625 14.4413H22.04V15.1638H22.7625V14.4413Z" fill="#FF5A00"/>
<path d="M22.7625 13.7263H22.04V14.4413H22.7625V13.7263Z" fill="#FF5A00"/>
<path d="M22.7625 13.0038H22.04V13.7263H22.7625V13.0038Z" fill="black"/>
<path d="M22.04 38.185H21.325V38.9H22.04V38.185Z" fill="black"/>
<path d="M22.04 36.7462H21.325V37.4625H22.04V36.7462Z" fill="black"/>
<path d="M22.04 36.025H21.325V36.7475H22.04V36.025Z" fill="black"/>
<path d="M22.04 31.71H21.325V32.4263H22.04V31.71Z" fill="#200621"/>
<path d="M22.04 30.9888H21.325V31.7113H22.04V30.9888Z" fill="#6B1F01"/>
<path d="M22.04 30.2725H21.325V30.9875H22.04V30.2725Z" fill="#7C2A05"/>
<path d="M22.04 29.55H21.325V30.2725H22.04V29.55Z" fill="#7C2A05"/>
<path d="M22.04 28.835H21.325V29.55H22.04V28.835Z" fill="#6B1F01"/>
<path d="M22.04 28.1125H21.325V28.835H22.04V28.1125Z" fill="#6B1F01"/>
<path d="M22.04 27.39H21.325V28.1125H22.04V27.39Z" fill="#6B1F01"/>
<path d="M22.04 26.6738H21.325V27.3888H22.04V26.6738Z" fill="#6B1F01"/>
<path d="M22.04 25.9513H21.325V26.6738H22.04V25.9513Z" fill="#200621"/>
<path d="M22.04 25.2363H21.325V25.9513H22.04V25.2363Z" fill="#7C2A05"/>
<path d="M22.04 24.5138H21.325V25.2363H22.04V24.5138Z" fill="#7C2A05"/>
<path d="M22.04 23.7988H21.325V24.5138H22.04V23.7988Z" fill="#7C2A05"/>
<path d="M22.04 23.0763H21.325V23.7988H22.04V23.0763Z" fill="black"/>
<path d="M22.04 22.36H21.325V23.075H22.04V22.36Z" fill="black"/>
<path d="M22.04 21.6375H21.325V22.36H22.04V21.6375Z" fill="black"/>
<path d="M22.04 20.915H21.325V21.6375H22.04V20.915Z" fill="black"/>
<path d="M22.04 20.2H21.325V20.915H22.04V20.2Z" fill="#200621"/>
<path d="M22.04 19.4775H21.325V20.2H22.04V19.4775Z" fill="#200621"/>
<path d="M22.04 18.7625H21.325V19.4775H22.04V18.7625Z" fill="#200621"/>
<path d="M22.04 18.04H21.325V18.7625H22.04V18.04Z" fill="#200621"/>
<path d="M22.04 17.3238H21.325V18.0388H22.04V17.3238Z" fill="#200621"/>
<path d="M22.04 16.6013H21.325V17.3238H22.04V16.6013Z" fill="#200621"/>
<path d="M22.04 15.8788H21.325V16.6013H22.04V15.8788Z" fill="black"/>
<path d="M22.04 15.1638H21.325V15.8788H22.04V15.1638Z" fill="#DB4B03"/>
<path d="M22.04 14.4413H21.325V15.1638H22.04V14.4413Z" fill="#DB4B03"/>
<path d="M22.04 13.7263H21.325V14.4413H22.04V13.7263Z" fill="black"/>
<path d="M21.325 38.185H20.6025V38.9H21.325V38.185Z" fill="black"/>
<path d="M21.325 37.4625H20.6025V38.185H21.325V37.4625Z" fill="black"/>
<path d="M21.325 36.7462H20.6025V37.4625H21.325V36.7462Z" fill="black"/>
<path d="M21.325 36.025H20.6025V36.7475H21.325V36.025Z" fill="black"/>
<path d="M21.325 35.3087H20.6025V36.0237H21.325V35.3087Z" fill="black"/>
<path d="M21.325 34.5862H20.6025V35.3087H21.325V34.5862Z" fill="black"/>
<path d="M21.325 33.8712H20.6025V34.5862H21.325V33.8712Z" fill="black"/>
<path d="M21.325 33.1487H20.6025V33.8712H21.325V33.1487Z" fill="black"/>
<path d="M21.325 32.4263H20.6025V33.1488H21.325V32.4263Z" fill="black"/>
<path d="M21.325 31.71H20.6025V32.4263H21.325V31.71Z" fill="black"/>
<path d="M21.325 30.9888H20.6025V31.7113H21.325V30.9888Z" fill="black"/>
<path d="M21.325 30.2725H20.6025V30.9875H21.325V30.2725Z" fill="black"/>
<path d="M21.325 29.55H20.6025V30.2725H21.325V29.55Z" fill="black"/>
<path d="M21.325 28.835H20.6025V29.55H21.325V28.835Z" fill="black"/>
<path d="M21.325 28.1125H20.6025V28.835H21.325V28.1125Z" fill="black"/>
<path d="M21.325 27.39H20.6025V28.1125H21.325V27.39Z" fill="black"/>
<path d="M21.325 26.6738H20.6025V27.3888H21.325V26.6738Z" fill="black"/>
<path d="M21.325 25.9513H20.6025V26.6738H21.325V25.9513Z" fill="black"/>
<path d="M21.325 25.2363H20.6025V25.9513H21.325V25.2363Z" fill="black"/>
<path d="M21.325 24.5138H20.6025V25.2363H21.325V24.5138Z" fill="#7C2A05"/>
<path d="M21.325 23.7988H20.6025V24.5138H21.325V23.7988Z" fill="black"/>
<path d="M21.325 23.0763H20.6025V23.7988H21.325V23.0763Z" fill="#DB4B03"/>
<path d="M21.325 22.36H20.6025V23.075H21.325V22.36Z" fill="#DB4B03"/>
<path d="M21.325 21.6375H20.6025V22.36H21.325V21.6375Z" fill="black"/>
<path d="M21.325 20.2H20.6025V20.915H21.325V20.2Z" fill="black"/>
<path d="M21.325 19.4775H20.6025V20.2H21.325V19.4775Z" fill="black"/>
<path d="M21.325 18.7625H20.6025V19.4775H21.325V18.7625Z" fill="#200621"/>
<path d="M21.325 18.04H20.6025V18.7625H21.325V18.04Z" fill="black"/>
<path d="M21.325 17.3238H20.6025V18.0388H21.325V17.3238Z" fill="black"/>
<path d="M21.325 16.6013H20.6025V17.3238H21.325V16.6013Z" fill="black"/>
<path d="M21.325 15.8788H20.6025V16.6013H21.325V15.8788Z" fill="#DB4B03"/>
<path d="M21.325 15.1638H20.6025V15.8788H21.325V15.1638Z" fill="#DB4B03"/>
<path d="M21.325 14.4413H20.6025V15.1638H21.325V14.4413Z" fill="black"/>
<path d="M20.6025 38.185H19.8875V38.9H20.6025V38.185Z" fill="black"/>
<path d="M20.6025 37.4625H19.8875V38.185H20.6025V37.4625Z" fill="#DB4B03"/>
<path d="M20.6025 36.7462H19.8875V37.4625H20.6025V36.7462Z" fill="#DB4B03"/>
<path d="M20.6025 36.025H19.8875V36.7475H20.6025V36.025Z" fill="#E54A05"/>
<path d="M20.6025 35.3087H19.8875V36.0237H20.6025V35.3087Z" fill="#E54A05"/>
<path d="M20.6025 34.5862H19.8875V35.3087H20.6025V34.5862Z" fill="#E54A05"/>
<path d="M20.6025 33.8712H19.8875V34.5862H20.6025V33.8712Z" fill="#E54A05"/>
<path d="M20.6025 33.1487H19.8875V33.8712H20.6025V33.1487Z" fill="#E54A05"/>
<path d="M20.6025 32.4263H19.8875V33.1488H20.6025V32.4263Z" fill="#FF5A00"/>
<path d="M20.6025 31.71H19.8875V32.4263H20.6025V31.71Z" fill="#FF5A00"/>
<path d="M20.6025 30.9888H19.8875V31.7113H20.6025V30.9888Z" fill="#FF5A00"/>
<path d="M20.6025 30.2725H19.8875V30.9875H20.6025V30.2725Z" fill="#FF5A00"/>
<path d="M20.6025 29.55H19.8875V30.2725H20.6025V29.55Z" fill="#FF5A00"/>
<path d="M20.6025 28.835H19.8875V29.55H20.6025V28.835Z" fill="#FF5A00"/>
<path d="M20.6025 28.1125H19.8875V28.835H20.6025V28.1125Z" fill="#FF5A00"/>
<path d="M20.6025 27.39H19.8875V28.1125H20.6025V27.39Z" fill="#FF5A00"/>
<path d="M20.6025 26.6738H19.8875V27.3888H20.6025V26.6738Z" fill="#FF5A00"/>
<path d="M20.6025 25.9513H19.8875V26.6738H20.6025V25.9513Z" fill="#FF5A00"/>
<path d="M20.6025 25.2363H19.8875V25.9513H20.6025V25.2363Z" fill="#FF5A00"/>
<path d="M20.6025 24.5138H19.8875V25.2363H20.6025V24.5138Z" fill="black"/>
<path d="M20.6025 23.7988H19.8875V24.5138H20.6025V23.7988Z" fill="#DB4B03"/>
<path d="M20.6025 23.0763H19.8875V23.7988H20.6025V23.0763Z" fill="#FF5A00"/>
<path d="M20.6025 22.36H19.8875V23.075H20.6025V22.36Z" fill="#DB4B03"/>
<path d="M20.6025 21.6375H19.8875V22.36H20.6025V21.6375Z" fill="black"/>
<path d="M20.6025 18.7625H19.8875V19.4775H20.6025V18.7625Z" fill="black"/>
<path d="M20.6025 18.04H19.8875V18.7625H20.6025V18.04Z" fill="black"/>
<path d="M20.6025 17.3238H19.8875V18.0388H20.6025V17.3238Z" fill="#DB4B03"/>
<path d="M20.6025 16.6013H19.8875V17.3238H20.6025V16.6013Z" fill="#DB4B03"/>
<path d="M20.6025 15.8788H19.8875V16.6013H20.6025V15.8788Z" fill="black"/>
<path d="M20.6025 15.1638H19.8875V15.8788H20.6025V15.1638Z" fill="black"/>
<path d="M19.8875 38.185H19.165V38.9H19.8875V38.185Z" fill="black"/>
<path d="M19.8875 37.4625H19.165V38.185H19.8875V37.4625Z" fill="#DB4B03"/>
<path d="M19.8875 36.7462H19.165V37.4625H19.8875V36.7462Z" fill="#DB4B03"/>
<path d="M19.8875 36.025H19.165V36.7475H19.8875V36.025Z" fill="#E54A05"/>
<path d="M19.8875 35.3087H19.165V36.0237H19.8875V35.3087Z" fill="#E54A05"/>
<path d="M19.8875 34.5862H19.165V35.3087H19.8875V34.5862Z" fill="#FF5A00"/>
<path d="M19.8875 33.8712H19.165V34.5862H19.8875V33.8712Z" fill="#FF5A00"/>
<path d="M19.8875 33.1487H19.165V33.8712H19.8875V33.1487Z" fill="#FF5A00"/>
<path d="M19.8875 32.4263H19.165V33.1488H19.8875V32.4263Z" fill="#FF5A00"/>
<path d="M19.8875 31.71H19.165V32.4263H19.8875V31.71Z" fill="#FF5A00"/>
<path d="M19.8875 30.9888H19.165V31.7113H19.8875V30.9888Z" fill="#FF5A00"/>
<path d="M19.8875 30.2725H19.165V30.9875H19.8875V30.2725Z" fill="#FF5A00"/>
<path d="M19.8875 29.55H19.165V30.2725H19.8875V29.55Z" fill="#FF5A00"/>
<path d="M19.8875 28.835H19.165V29.55H19.8875V28.835Z" fill="#FF5A00"/>
<path d="M19.8875 28.1125H19.165V28.835H19.8875V28.1125Z" fill="#FF5A00"/>
<path d="M19.8875 27.39H19.165V28.1125H19.8875V27.39Z" fill="#FF5A00"/>
<path d="M19.8875 26.6738H19.165V27.3888H19.8875V26.6738Z" fill="#FF5A00"/>
<path d="M19.8875 25.9513H19.165V26.6738H19.8875V25.9513Z" fill="#FF5A00"/>
<path d="M19.8875 25.2363H19.165V25.9513H19.8875V25.2363Z" fill="#DB4B03"/>
<path d="M19.8875 24.5138H19.165V25.2363H19.8875V24.5138Z" fill="#DB4B03"/>
<path d="M19.8875 23.7988H19.165V24.5138H19.8875V23.7988Z" fill="#DB4B03"/>
<path d="M19.8875 23.0763H19.165V23.7988H19.8875V23.0763Z" fill="#DB4B03"/>
<path d="M19.8875 22.36H19.165V23.075H19.8875V22.36Z" fill="black"/>
<path d="M19.8875 17.3238H19.165V18.0388H19.8875V17.3238Z" fill="black"/>
<path d="M19.8875 16.6013H19.165V17.3238H19.8875V16.6013Z" fill="black"/>
<path d="M19.1637 38.185H18.4487V38.9H19.1637V38.185Z" fill="black"/>
<path d="M19.1637 37.4625H18.4487V38.185H19.1637V37.4625Z" fill="black"/>
<path d="M19.1637 36.7462H18.4487V37.4625H19.1637V36.7462Z" fill="black"/>
<path d="M19.1637 36.025H18.4487V36.7475H19.1637V36.025Z" fill="black"/>
<path d="M19.1637 35.3087H18.4487V36.0237H19.1637V35.3087Z" fill="black"/>
<path d="M19.1637 34.5862H18.4487V35.3087H19.1637V34.5862Z" fill="black"/>
<path d="M19.1637 33.8712H18.4487V34.5862H19.1637V33.8712Z" fill="black"/>
<path d="M19.1637 33.1487H18.4487V33.8712H19.1637V33.1487Z" fill="black"/>
<path d="M19.1637 32.4263H18.4487V33.1488H19.1637V32.4263Z" fill="black"/>
<path d="M19.1637 31.71H18.4487V32.4263H19.1637V31.71Z" fill="black"/>
<path d="M19.1637 30.9888H18.4487V31.7113H19.1637V30.9888Z" fill="black"/>
<path d="M19.1637 30.2725H18.4487V30.9875H19.1637V30.2725Z" fill="black"/>
<path d="M19.1637 29.55H18.4487V30.2725H19.1637V29.55Z" fill="black"/>
<path d="M19.1637 28.835H18.4487V29.55H19.1637V28.835Z" fill="black"/>
<path d="M19.1637 28.1125H18.4487V28.835H19.1637V28.1125Z" fill="black"/>
<path d="M19.1637 27.39H18.4487V28.1125H19.1637V27.39Z" fill="black"/>
<path d="M19.1637 26.6738H18.4487V27.3888H19.1637V26.6738Z" fill="black"/>
<path d="M19.1637 25.9513H18.4487V26.6738H19.1637V25.9513Z" fill="black"/>
<path d="M19.1637 25.2363H18.4487V25.9513H19.1637V25.2363Z" fill="black"/>
<path d="M19.1637 24.5138H18.4487V25.2363H19.1637V24.5138Z" fill="black"/>
<path d="M19.1637 23.7988H18.4487V24.5138H19.1637V23.7988Z" fill="black"/>
<path d="M19.1637 23.0763H18.4487V23.7988H19.1637V23.0763Z" fill="black"/>
<path d="M24.3624 19.9562H23.9937V20.325H24.3624V19.9562Z" fill="#E80037"/>
<path d="M24.3624 20.325H23.9937V20.6862H24.3624V20.325Z" fill="#E80037"/>
<path d="M23.2711 21.0475H22.9023V21.4162H23.2711V21.0475Z" fill="#E80037"/>
<path d="M23.9936 20.6862H23.6323V21.0475H23.9936V20.6862Z" fill="#E80037"/>
<path d="M23.6325 21.0475H23.2712V21.4162H23.6325V21.0475Z" fill="#E80037"/>
<path d="M22.9025 20.6862H22.5413V21.0475H22.9025V20.6862Z" fill="#E80037"/>
<path d="M23.2711 20.6862H22.9023V21.0475H23.2711V20.6862Z" fill="#E80037"/>
<path d="M23.6325 20.6862H23.2712V21.0475H23.6325V20.6862Z" fill="#E80037"/>
<path d="M22.9025 20.325H22.5413V20.6862H22.9025V20.325Z" fill="#E80037"/>
<path d="M22.5411 19.9562H22.1724V20.325H22.5411V19.9562Z" fill="#E80037"/>
<path d="M22.5411 20.325H22.1724V20.6862H22.5411V20.325Z" fill="#E80037"/>
<path d="M23.2711 20.325H22.9023V20.6862H23.2711V20.325Z" fill="#E80037"/>
<path d="M23.9936 20.325H23.6323V20.6862H23.9936V20.325Z" fill="#E80037"/>
<path d="M23.6325 20.325H23.2712V20.6862H23.6325V20.325Z" fill="#E80037"/>
<path d="M21.8112 18.135H21.45V18.5038H21.8112V18.135Z" fill="#E80037"/>
<path d="M21.4501 18.5038H21.0813V18.865H21.4501V18.5038Z" fill="#E80037"/>
<path d="M21.4501 18.135H21.0813V18.5038H21.4501V18.135Z" fill="#E80037"/>
<path d="M21.8112 18.5038H21.45V18.865H21.8112V18.5038Z" fill="#E80037"/>
<path d="M22.1725 18.5038H21.8113V18.865H22.1725V18.5038Z" fill="#E80037"/>
<path d="M25.0924 17.7737H24.7236V18.135H25.0924V17.7737Z" fill="#E80037"/>
<path d="M24.7238 17.7737H24.3625V18.135H24.7238V17.7737Z" fill="#E80037"/>
<path d="M24.3624 17.7737H23.9937V18.135H24.3624V17.7737Z" fill="#E80037"/>
<path d="M24.7238 18.135H24.3625V18.5038H24.7238V18.135Z" fill="#E80037"/>
<path d="M24.3624 18.5038H23.9937V18.865H24.3624V18.5038Z" fill="#E80037"/>
<path d="M24.3624 18.135H23.9937V18.5038H24.3624V18.135Z" fill="#E80037"/>
<path d="M23.9936 18.5038H23.6323V18.865H23.9936V18.5038Z" fill="#E80037"/>
<path d="M23.9936 18.135H23.6323V18.5038H23.9936V18.135Z" fill="#E80037"/>
<path d="M23.6325 18.5038H23.2712V18.865H23.6325V18.5038Z" fill="#E80037"/>
<path d="M37.1036 14.8612H36.7437V15.2225H37.1036V14.8612Z" fill="#360066"/>
<path d="M36.7438 15.2225H36.375V15.5913H36.7438V15.2225Z" fill="#360066"/>
<path d="M36.3749 15.5912H36.0137V15.9525H36.3749V15.5912Z" fill="#360066"/>
<path d="M36.0136 15.9525H35.6523V16.3212H36.0136V15.9525Z" fill="#360066"/>
<path d="M35.6524 16.3213H35.2837V16.6825H35.6524V16.3213Z" fill="#360066"/>
<path d="M35.2836 16.6825H34.9224V17.0437H35.2836V16.6825Z" fill="#360066"/>
<path d="M35.2836 17.4125H34.9224V17.7738H35.2836V17.4125Z" fill="#270947"/>
<path d="M37.4737 15.2225H37.105V15.5913H37.4737V15.2225Z" fill="#270947"/>
<path d="M37.4737 14.5H37.105V14.8612H37.4737V14.5Z" fill="#360066"/>
<path d="M37.4737 14.8612H37.105V15.2225H37.4737V14.8612Z" fill="#360066"/>
<path d="M37.1036 15.5912H36.7437V15.9525H37.1036V15.5912Z" fill="#270947"/>
<path d="M37.1036 15.2225H36.7437V15.5913H37.1036V15.2225Z" fill="#360066"/>
<path d="M36.7438 15.9525H36.375V16.3212H36.7438V15.9525Z" fill="#270947"/>
<path d="M36.7438 15.5912H36.375V15.9525H36.7438V15.5912Z" fill="#360066"/>
<path d="M36.3749 16.3213H36.0137V16.6825H36.3749V16.3213Z" fill="#270947"/>
<path d="M36.3749 15.9525H36.0137V16.3212H36.3749V15.9525Z" fill="#360066"/>
<path d="M36.0136 16.3213H35.6523V16.6825H36.0136V16.3213Z" fill="#360066"/>
<path d="M36.0136 16.6825H35.6523V17.0437H36.0136V16.6825Z" fill="#270947"/>
<path d="M35.6524 17.0437H35.2837V17.4125H35.6524V17.0437Z" fill="#270947"/>
<path d="M35.6524 16.6825H35.2837V17.0437H35.6524V16.6825Z" fill="#360066"/>
<path d="M35.2836 17.0437H34.9224V17.4125H35.2836V17.0437Z" fill="#360066"/>
<path d="M34.9225 17.0437H34.5537V17.4125H34.9225V17.0437Z" fill="#360066"/>
<path d="M34.5524 17.4125H34.1924V17.7738H34.5524V17.4125Z" fill="#360066"/>
<path d="M34.1926 17.7737H33.8313V18.135H34.1926V17.7737Z" fill="#360066"/>
<path d="M33.8312 18.865H33.4624V19.2337H33.8312V18.865Z" fill="#270947"/>
<path d="M33.8312 18.135H33.4624V18.5038H33.8312V18.135Z" fill="#360066"/>
<path d="M33.4623 19.2337H33.1011V19.595H33.4623V19.2337Z" fill="#270947"/>
<path d="M34.9225 17.7737H34.5537V18.135H34.9225V17.7737Z" fill="#270947"/>
<path d="M34.9225 17.4125H34.5537V17.7738H34.9225V17.4125Z" fill="#360066"/>
<path d="M34.5524 18.135H34.1924V18.5038H34.5524V18.135Z" fill="#270947"/>
<path d="M34.5524 17.7737H34.1924V18.135H34.5524V17.7737Z" fill="#360066"/>
<path d="M34.1926 18.135H33.8313V18.5038H34.1926V18.135Z" fill="#360066"/>
<path d="M34.1926 18.5038H33.8313V18.865H34.1926V18.5038Z" fill="#270947"/>
<path d="M33.8312 18.5038H33.4624V18.865H33.8312V18.5038Z" fill="#360066"/>
<path d="M33.4623 18.5038H33.1011V18.865H33.4623V18.5038Z" fill="#360066"/>
<path d="M33.4623 18.865H33.1011V19.2337H33.4623V18.865Z" fill="#360066"/>
<path d="M33.1012 19.2337H32.74V19.595H33.1012V19.2337Z" fill="#360066"/>
<path d="M33.1012 18.865H32.74V19.2337H33.1012V18.865Z" fill="#360066"/>
<path d="M33.1012 19.595H32.74V19.9563H33.1012V19.595Z" fill="#270947"/>
<path d="M32.7398 19.9562H32.3711V20.325H32.7398V19.9562Z" fill="#270947"/>
<path d="M32.7398 19.595H32.3711V19.9563H32.7398V19.595Z" fill="#360066"/>
<path d="M32.7398 19.2337H32.3711V19.595H32.7398V19.2337Z" fill="#360066"/>
<path d="M32.37 19.9562H32.01V20.325H32.37V19.9562Z" fill="#360066"/>
<path d="M32.37 19.595H32.01V19.9563H32.37V19.595Z" fill="#360066"/>
<path d="M38.1962 16.6825H37.835V17.0437H38.1962V16.6825Z" fill="black"/>
<path d="M38.1962 15.9525H37.835V16.3212H38.1962V15.9525Z" fill="black"/>
<path d="M37.8349 17.0437H37.4736V17.4125H37.8349V17.0437Z" fill="black"/>
<path d="M37.8349 16.6825H37.4736V17.0437H37.8349V16.6825Z" fill="black"/>
<path d="M37.8349 16.3213H37.4736V16.6825H37.8349V16.3213Z" fill="black"/>
<path d="M37.8349 15.9525H37.4736V16.3212H37.8349V15.9525Z" fill="black"/>
<path d="M37.8349 15.5912H37.4736V15.9525H37.8349V15.5912Z" fill="black"/>
<path d="M37.8349 15.2225H37.4736V15.5913H37.8349V15.2225Z" fill="black"/>
<path d="M37.8349 14.8612H37.4736V15.2225H37.8349V14.8612Z" fill="black"/>
<path d="M37.8349 14.5H37.4736V14.8612H37.8349V14.5Z" fill="black"/>
<path d="M37.8349 14.1313H37.4736V14.5H37.8349V14.1313Z" fill="black"/>
<path d="M37.8349 13.77H37.4736V14.1312H37.8349V13.77Z" fill="black"/>
<path d="M37.4737 15.5912H37.105V15.9525H37.4737V15.5912Z" fill="black"/>
<path d="M37.4737 14.1313H37.105V14.5H37.4737V14.1313Z" fill="black"/>
<path d="M37.4737 13.77H37.105V14.1312H37.4737V13.77Z" fill="black"/>
<path d="M37.4737 13.4012H37.105V13.77H37.4737V13.4012Z" fill="black"/>
<path d="M37.1036 17.7737H36.7437V18.135H37.1036V17.7737Z" fill="black"/>
<path d="M37.1036 16.6825H36.7437V17.0437H37.1036V16.6825Z" fill="black"/>
<path d="M37.1036 15.9525H36.7437V16.3212H37.1036V15.9525Z" fill="black"/>
<path d="M37.1036 14.5H36.7437V14.8612H37.1036V14.5Z" fill="black"/>
<path d="M36.7438 17.7737H36.375V18.135H36.7438V17.7737Z" fill="black"/>
<path d="M36.7438 17.4125H36.375V17.7738H36.7438V17.4125Z" fill="black"/>
<path d="M36.7438 17.0437H36.375V17.4125H36.7438V17.0437Z" fill="black"/>
<path d="M36.7438 16.6825H36.375V17.0437H36.7438V16.6825Z" fill="black"/>
<path d="M36.7438 16.3213H36.375V16.6825H36.7438V16.3213Z" fill="black"/>
<path d="M36.7438 14.8612H36.375V15.2225H36.7438V14.8612Z" fill="black"/>
<path d="M36.3749 16.6825H36.0137V17.0437H36.3749V16.6825Z" fill="black"/>
<path d="M36.3749 15.2225H36.0137V15.5913H36.3749V15.2225Z" fill="black"/>
<path d="M36.0136 18.5038H35.6523V18.865H36.0136V18.5038Z" fill="black"/>
<path d="M36.0136 17.7737H35.6523V18.135H36.0136V17.7737Z" fill="black"/>
<path d="M36.0136 17.0437H35.6523V17.4125H36.0136V17.0437Z" fill="black"/>
<path d="M36.0136 15.5912H35.6523V15.9525H36.0136V15.5912Z" fill="black"/>
<path d="M35.6524 34.5275H35.2837V34.8887H35.6524V34.5275Z" fill="black"/>
<path d="M35.6524 34.1588H35.2837V34.5275H35.6524V34.1588Z" fill="black"/>
<path d="M35.6524 18.865H35.2837V19.2337H35.6524V18.865Z" fill="black"/>
<path d="M35.6524 18.5038H35.2837V18.865H35.6524V18.5038Z" fill="black"/>
<path d="M35.6524 18.135H35.2837V18.5038H35.6524V18.135Z" fill="black"/>
<path d="M35.6524 17.7737H35.2837V18.135H35.6524V17.7737Z" fill="black"/>
<path d="M35.6524 17.4125H35.2837V17.7738H35.6524V17.4125Z" fill="black"/>
<path d="M35.6524 15.9525H35.2837V16.3212H35.6524V15.9525Z" fill="black"/>
<path d="M35.2836 34.5275H34.9224V34.8887H35.2836V34.5275Z" fill="black"/>
<path d="M35.2836 34.1588H34.9224V34.5275H35.2836V34.1588Z" fill="#525D6D"/>
<path d="M35.2836 33.7975H34.9224V34.1587H35.2836V33.7975Z" fill="black"/>
<path d="M35.2836 21.4163H34.9224V21.7775H35.2836V21.4163Z" fill="black"/>
<path d="M35.2836 20.6862H34.9224V21.0475H35.2836V20.6862Z" fill="black"/>
<path d="M35.2836 19.9562H34.9224V20.325H35.2836V19.9562Z" fill="black"/>
<path d="M35.2836 17.7737H34.9224V18.135H35.2836V17.7737Z" fill="black"/>
<path d="M35.2836 16.3213H34.9224V16.6825H35.2836V16.3213Z" fill="black"/>
<path d="M34.9225 34.1588H34.5537V34.5275H34.9225V34.1588Z" fill="black"/>
<path d="M34.9225 33.7975H34.5537V34.1587H34.9225V33.7975Z" fill="#525D6D"/>
<path d="M34.9225 33.4287H34.5537V33.7975H34.9225V33.4287Z" fill="black"/>
<path d="M34.9225 21.7775H34.5537V22.1462H34.9225V21.7775Z" fill="black"/>
<path d="M34.9225 21.4163H34.5537V21.7775H34.9225V21.4163Z" fill="black"/>
<path d="M34.9225 21.0475H34.5537V21.4162H34.9225V21.0475Z" fill="black"/>
<path d="M34.9225 20.6862H34.5537V21.0475H34.9225V20.6862Z" fill="black"/>
<path d="M34.9225 20.325H34.5537V20.6862H34.9225V20.325Z" fill="black"/>
<path d="M34.9225 19.9562H34.5537V20.325H34.9225V19.9562Z" fill="black"/>
<path d="M34.9225 19.595H34.5537V19.9563H34.9225V19.595Z" fill="black"/>
<path d="M34.9225 19.2337H34.5537V19.595H34.9225V19.2337Z" fill="black"/>
<path d="M34.9225 18.865H34.5537V19.2337H34.9225V18.865Z" fill="black"/>
<path d="M34.9225 18.5038H34.5537V18.865H34.9225V18.5038Z" fill="black"/>
<path d="M34.9225 18.135H34.5537V18.5038H34.9225V18.135Z" fill="black"/>
<path d="M34.9225 16.6825H34.5537V17.0437H34.9225V16.6825Z" fill="black"/>
<path d="M34.5524 33.7975H34.1924V34.1587H34.5524V33.7975Z" fill="black"/>
<path d="M34.5524 33.4287H34.1924V33.7975H34.5524V33.4287Z" fill="#525D6D"/>
<path d="M34.5524 33.0675H34.1924V33.4275H34.5524V33.0675Z" fill="black"/>
<path d="M34.5524 18.5038H34.1924V18.865H34.5524V18.5038Z" fill="black"/>
<path d="M34.5524 17.0437H34.1924V17.4125H34.5524V17.0437Z" fill="black"/>
<path d="M34.1926 33.4287H33.8313V33.7975H34.1926V33.4287Z" fill="black"/>
<path d="M34.1926 33.0675H33.8313V33.4275H34.1926V33.0675Z" fill="#525D6D"/>
<path d="M34.1926 32.7062H33.8313V33.0675H34.1926V32.7062Z" fill="black"/>
<path d="M34.1926 18.865H33.8313V19.2337H34.1926V18.865Z" fill="black"/>
<path d="M34.1926 17.4125H33.8313V17.7738H34.1926V17.4125Z" fill="black"/>
<path d="M33.8312 33.0675H33.4624V33.4275H33.8312V33.0675Z" fill="black"/>
<path d="M33.8312 32.7062H33.4624V33.0675H33.8312V32.7062Z" fill="#525D6D"/>
<path d="M33.8312 32.3375H33.4624V32.7062H33.8312V32.3375Z" fill="black"/>
<path d="M33.8312 19.2337H33.4624V19.595H33.8312V19.2337Z" fill="black"/>
<path d="M33.8312 17.7737H33.4624V18.135H33.8312V17.7737Z" fill="black"/>
<path d="M33.4623 19.595H33.1011V19.9563H33.4623V19.595Z" fill="black"/>
<path d="M33.4623 18.135H33.1011V18.5038H33.4623V18.135Z" fill="black"/>
<path d="M33.1012 19.9562H32.74V20.325H33.1012V19.9562Z" fill="black"/>
<path d="M33.1012 18.5038H32.74V18.865H33.1012V18.5038Z" fill="black"/>
<path d="M32.7398 20.6862H32.3711V21.0475H32.7398V20.6862Z" fill="black"/>
<path d="M32.7398 20.325H32.3711V20.6862H32.7398V20.325Z" fill="black"/>
<path d="M32.7398 18.865H32.3711V19.2337H32.7398V18.865Z" fill="black"/>
<path d="M32.37 20.6862H32.01V21.0475H32.37V20.6862Z" fill="black"/>
<path d="M32.37 20.325H32.01V20.6862H32.37V20.325Z" fill="black"/>
<path d="M32.37 19.2337H32.01V19.595H32.37V19.2337Z" fill="black"/>
<path d="M32.0099 19.9562H31.6411V20.325H32.0099V19.9562Z" fill="black"/>
<path d="M32.0099 19.595H31.6411V19.9563H32.0099V19.595Z" fill="black"/>
<path d="M31.6413 19.9562H31.28V20.325H31.6413V19.9562Z" fill="black"/>
<path d="M20.3587 21.4163H19.99V21.7775H20.3587V21.4163Z" fill="black"/>
<path d="M19.9899 21.7775H19.6287V22.1462H19.9899V21.7775Z" fill="black"/>
<path d="M19.9899 21.4163H19.6287V21.7775H19.9899V21.4163Z" fill="#525D6D"/>
<path d="M19.9899 21.0475H19.6287V21.4162H19.9899V21.0475Z" fill="black"/>
<path d="M19.6288 21.4163H19.26V21.7775H19.6288V21.4163Z" fill="black"/>
<path d="M19.6288 21.0475H19.26V21.4162H19.6288V21.0475Z" fill="#525D6D"/>
<path d="M19.6288 20.6862H19.26V21.0475H19.6288V20.6862Z" fill="black"/>
<path d="M19.2599 21.0475H18.8987V21.4162H19.2599V21.0475Z" fill="black"/>
<path d="M19.2599 20.6862H18.8987V21.0475H19.2599V20.6862Z" fill="#525D6D"/>
<path d="M19.2599 20.325H18.8987V20.6862H19.2599V20.325Z" fill="black"/>
<path d="M18.8986 20.6862H18.5374V21.0475H18.8986V20.6862Z" fill="black"/>
<path d="M18.8986 20.325H18.5374V20.6862H18.8986V20.325Z" fill="#525D6D"/>
<path d="M18.8986 19.9562H18.5374V20.325H18.8986V19.9562Z" fill="black"/>
<path d="M18.5375 34.5275H18.1687V34.8887H18.5375V34.5275Z" fill="black"/>
<path d="M18.5375 34.1588H18.1687V34.5275H18.5375V34.1588Z" fill="#360066"/>
<path d="M18.5375 33.7975H18.1687V34.1587H18.5375V33.7975Z" fill="#360066"/>
<path d="M18.5375 33.4287H18.1687V33.7975H18.5375V33.4287Z" fill="#360066"/>
<path d="M18.5375 33.0675H18.1687V33.4275H18.5375V33.0675Z" fill="black"/>
<path d="M18.5375 20.325H18.1687V20.6862H18.5375V20.325Z" fill="black"/>
<path d="M18.5375 19.9562H18.1687V20.325H18.5375V19.9562Z" fill="#525D6D"/>
<path d="M18.5375 19.595H18.1687V19.9563H18.5375V19.595Z" fill="black"/>
<path d="M18.1686 34.5275H17.8074V34.8887H18.1686V34.5275Z" fill="black"/>
<path d="M18.1686 34.1588H17.8074V34.5275H18.1686V34.1588Z" fill="#360066"/>
<path d="M18.1686 33.7975H17.8074V34.1587H18.1686V33.7975Z" fill="#360066"/>
<path d="M18.1686 33.4287H17.8074V33.7975H18.1686V33.4287Z" fill="#360066"/>
<path d="M18.1686 33.0675H17.8074V33.4275H18.1686V33.0675Z" fill="black"/>
<path d="M18.1686 20.325H17.8074V20.6862H18.1686V20.325Z" fill="black"/>
<path d="M18.1686 19.9562H17.8074V20.325H18.1686V19.9562Z" fill="black"/>
<path d="M18.1686 19.595H17.8074V19.9563H18.1686V19.595Z" fill="#525D6D"/>
<path d="M18.1686 19.2337H17.8074V19.595H18.1686V19.2337Z" fill="black"/>
<path d="M17.8075 35.25H17.4463V35.6188H17.8075V35.25Z" fill="black"/>
<path d="M17.8075 34.8887H17.4463V35.25H17.8075V34.8887Z" fill="black"/>
<path d="M17.8075 34.5275H17.4463V34.8887H17.8075V34.5275Z" fill="black"/>
<path d="M17.8075 34.1588H17.4463V34.5275H17.8075V34.1588Z" fill="#360066"/>
<path d="M17.8075 33.7975H17.4463V34.1587H17.8075V33.7975Z" fill="#360066"/>
<path d="M17.8075 33.4287H17.4463V33.7975H17.8075V33.4287Z" fill="#360066"/>
<path d="M17.8075 33.0675H17.4463V33.4275H17.8075V33.0675Z" fill="black"/>
<path d="M17.8075 20.325H17.4463V20.6862H17.8075V20.325Z" fill="black"/>
<path d="M17.8075 19.9562H17.4463V20.325H17.8075V19.9562Z" fill="#4A535E"/>
<path d="M17.8075 19.595H17.4463V19.9563H17.8075V19.595Z" fill="black"/>
<path d="M17.8075 19.2337H17.4463V19.595H17.8075V19.2337Z" fill="#525D6D"/>
<path d="M17.8075 18.865H17.4463V19.2337H17.8075V18.865Z" fill="black"/>
<path d="M17.4461 35.25H17.0774V35.6188H17.4461V35.25Z" fill="black"/>
<path d="M17.4461 34.8887H17.0774V35.25H17.4461V34.8887Z" fill="#360066"/>
<path d="M17.4461 34.5275H17.0774V34.8887H17.4461V34.5275Z" fill="black"/>
<path d="M17.4461 34.1588H17.0774V34.5275H17.4461V34.1588Z" fill="black"/>
<path d="M17.4461 33.7975H17.0774V34.1587H17.4461V33.7975Z" fill="black"/>
<path d="M17.4461 33.4287H17.0774V33.7975H17.4461V33.4287Z" fill="black"/>
<path d="M17.4461 33.0675H17.0774V33.4275H17.4461V33.0675Z" fill="black"/>
<path d="M17.4461 30.5162H17.0774V30.885H17.4461V30.5162Z" fill="black"/>
<path d="M17.4461 20.325H17.0774V20.6862H17.4461V20.325Z" fill="black"/>
<path d="M17.4461 19.9562H17.0774V20.325H17.4461V19.9562Z" fill="#4A535E"/>
<path d="M17.4461 19.595H17.0774V19.9563H17.4461V19.595Z" fill="#5F646D"/>
<path d="M17.4461 19.2337H17.0774V19.595H17.4461V19.2337Z" fill="black"/>
<path d="M17.4461 18.865H17.0774V19.2337H17.4461V18.865Z" fill="#525D6D"/>
<path d="M17.4461 18.5038H17.0774V18.865H17.4461V18.5038Z" fill="black"/>
<path d="M17.0776 35.25H16.7163V35.6188H17.0776V35.25Z" fill="black"/>
<path d="M17.0776 34.8887H16.7163V35.25H17.0776V34.8887Z" fill="#360066"/>
<path d="M17.0776 34.5275H16.7163V34.8887H17.0776V34.5275Z" fill="#360066"/>
<path d="M17.0776 34.1588H16.7163V34.5275H17.0776V34.1588Z" fill="#360066"/>
<path d="M17.0776 33.7975H16.7163V34.1587H17.0776V33.7975Z" fill="black"/>
<path d="M17.0776 30.5162H16.7163V30.885H17.0776V30.5162Z" fill="black"/>
<path d="M17.0776 30.155H16.7163V30.5162H17.0776V30.155Z" fill="black"/>
<path d="M17.0776 20.6862H16.7163V21.0475H17.0776V20.6862Z" fill="black"/>
<path d="M17.0776 20.325H16.7163V20.6862H17.0776V20.325Z" fill="#4A535E"/>
<path d="M17.0776 19.9562H16.7163V20.325H17.0776V19.9562Z" fill="#4A535E"/>
<path d="M17.0776 19.595H16.7163V19.9563H17.0776V19.595Z" fill="#5F646D"/>
<path d="M17.0776 19.2337H16.7163V19.595H17.0776V19.2337Z" fill="#5F646D"/>
<path d="M17.0776 18.865H16.7163V19.2337H17.0776V18.865Z" fill="black"/>
<path d="M17.0776 18.5038H16.7163V18.865H17.0776V18.5038Z" fill="#525D6D"/>
<path d="M17.0776 18.135H16.7163V18.5038H17.0776V18.135Z" fill="black"/>
<path d="M16.7162 35.25H16.3474V35.6188H16.7162V35.25Z" fill="black"/>
<path d="M16.7162 34.8887H16.3474V35.25H16.7162V34.8887Z" fill="black"/>
<path d="M16.7162 34.5275H16.3474V34.8887H16.7162V34.5275Z" fill="black"/>
<path d="M16.7162 34.1588H16.3474V34.5275H16.7162V34.1588Z" fill="black"/>
<path d="M16.7162 33.7975H16.3474V34.1587H16.7162V33.7975Z" fill="black"/>
<path d="M16.7162 30.5162H16.3474V30.885H16.7162V30.5162Z" fill="black"/>
<path d="M16.7162 30.155H16.3474V30.5162H16.7162V30.155Z" fill="#4A535E"/>
<path d="M16.7162 29.7938H16.3474V30.155H16.7162V29.7938Z" fill="black"/>
<path d="M16.7162 20.6862H16.3474V21.0475H16.7162V20.6862Z" fill="black"/>
<path d="M16.7162 20.325H16.3474V20.6862H16.7162V20.325Z" fill="#4A535E"/>
<path d="M16.7162 19.9562H16.3474V20.325H16.7162V19.9562Z" fill="#5F646D"/>
<path d="M16.7162 19.595H16.3474V19.9563H16.7162V19.595Z" fill="#5F646D"/>
<path d="M16.7162 19.2337H16.3474V19.595H16.7162V19.2337Z" fill="#5F646D"/>
<path d="M16.7162 18.865H16.3474V19.2337H16.7162V18.865Z" fill="black"/>
<path d="M16.7162 18.5038H16.3474V18.865H16.7162V18.5038Z" fill="black"/>
<path d="M16.7162 18.135H16.3474V18.5038H16.7162V18.135Z" fill="#525D6D"/>
<path d="M16.7162 17.7737H16.3474V18.135H16.7162V17.7737Z" fill="black"/>
<path d="M16.3473 30.5162H15.9861V30.885H16.3473V30.5162Z" fill="black"/>
<path d="M16.3473 30.155H15.9861V30.5162H16.3473V30.155Z" fill="#4A535E"/>
<path d="M16.3473 29.7938H15.9861V30.155H16.3473V29.7938Z" fill="#4A535E"/>
<path d="M16.3473 29.425H15.9861V29.7937H16.3473V29.425Z" fill="black"/>
<path d="M16.3473 21.0475H15.9861V21.4162H16.3473V21.0475Z" fill="black"/>
<path d="M16.3473 20.6862H15.9861V21.0475H16.3473V20.6862Z" fill="#4A535E"/>
<path d="M16.3473 20.325H15.9861V20.6862H16.3473V20.325Z" fill="#4A535E"/>
<path d="M16.3473 19.9562H15.9861V20.325H16.3473V19.9562Z" fill="#5F646D"/>
<path d="M16.3473 19.595H15.9861V19.9563H16.3473V19.595Z" fill="#5F646D"/>
<path d="M16.3473 19.2337H15.9861V19.595H16.3473V19.2337Z" fill="#5F646D"/>
<path d="M16.3473 18.865H15.9861V19.2337H16.3473V18.865Z" fill="#4A535E"/>
<path d="M16.3473 18.5038H15.9861V18.865H16.3473V18.5038Z" fill="black"/>
<path d="M16.3473 18.135H15.9861V18.5038H16.3473V18.135Z" fill="#525D6D"/>
<path d="M16.3473 17.7737H15.9861V18.135H16.3473V17.7737Z" fill="black"/>
<path d="M15.9862 30.155H15.625V30.5162H15.9862V30.155Z" fill="black"/>
<path d="M15.9862 29.7938H15.625V30.155H15.9862V29.7938Z" fill="#4A535E"/>
<path d="M15.9862 29.425H15.625V29.7937H15.9862V29.425Z" fill="#4A535E"/>
<path d="M15.9862 29.0638H15.625V29.425H15.9862V29.0638Z" fill="black"/>
<path d="M15.9862 28.7025H15.625V29.0625H15.9862V28.7025Z" fill="black"/>
<path d="M15.9862 21.0475H15.625V21.4162H15.9862V21.0475Z" fill="black"/>
<path d="M15.9862 20.6862H15.625V21.0475H15.9862V20.6862Z" fill="#4A535E"/>
<path d="M15.9862 20.325H15.625V20.6862H15.9862V20.325Z" fill="#5F646D"/>
<path d="M15.9862 19.9562H15.625V20.325H15.9862V19.9562Z" fill="#5F646D"/>
<path d="M15.9862 19.595H15.625V19.9563H15.9862V19.595Z" fill="#5F646D"/>
<path d="M15.9862 19.2337H15.625V19.595H15.9862V19.2337Z" fill="#5F646D"/>
<path d="M15.9862 18.865H15.625V19.2337H15.9862V18.865Z" fill="#4A535E"/>
<path d="M15.9862 18.5038H15.625V18.865H15.9862V18.5038Z" fill="black"/>
<path d="M15.9862 18.135H15.625V18.5038H15.9862V18.135Z" fill="#525D6D"/>
<path d="M15.9862 17.7737H15.625V18.135H15.9862V17.7737Z" fill="black"/>
<path d="M15.6249 30.155H15.2561V30.5162H15.6249V30.155Z" fill="black"/>
<path d="M15.6249 29.7938H15.2561V30.155H15.6249V29.7938Z" fill="#4A535E"/>
<path d="M15.6249 29.425H15.2561V29.7937H15.6249V29.425Z" fill="#4A535E"/>
<path d="M15.6249 29.0638H15.2561V29.425H15.6249V29.0638Z" fill="#4A535E"/>
<path d="M15.6249 28.7025H15.2561V29.0625H15.6249V28.7025Z" fill="#4A535E"/>
<path d="M15.6249 28.3337H15.2561V28.7025H15.6249V28.3337Z" fill="black"/>
<path d="M15.6249 27.9725H15.2561V28.3338H15.6249V27.9725Z" fill="black"/>
<path d="M15.6249 21.4163H15.2561V21.7775H15.6249V21.4163Z" fill="black"/>
<path d="M15.6249 21.0475H15.2561V21.4162H15.6249V21.0475Z" fill="#4A535E"/>
<path d="M15.6249 20.6862H15.2561V21.0475H15.6249V20.6862Z" fill="#4A535E"/>
<path d="M15.6249 20.325H15.2561V20.6862H15.6249V20.325Z" fill="#5F646D"/>
<path d="M15.6249 19.9562H15.2561V20.325H15.6249V19.9562Z" fill="#5F646D"/>
<path d="M15.6249 19.595H15.2561V19.9563H15.6249V19.595Z" fill="#5F646D"/>
<path d="M15.6249 19.2337H15.2561V19.595H15.6249V19.2337Z" fill="#5F646D"/>
<path d="M15.6249 18.865H15.2561V19.2337H15.6249V18.865Z" fill="#4A535E"/>
<path d="M15.6249 18.5038H15.2561V18.865H15.6249V18.5038Z" fill="#4A535E"/>
<path d="M15.6249 18.135H15.2561V18.5038H15.6249V18.135Z" fill="black"/>
<path d="M15.2563 30.155H14.895V30.5162H15.2563V30.155Z" fill="black"/>
<path d="M15.2563 29.7938H14.895V30.155H15.2563V29.7938Z" fill="#4A535E"/>
<path d="M15.2563 29.425H14.895V29.7937H15.2563V29.425Z" fill="#4A535E"/>
<path d="M15.2563 29.0638H14.895V29.425H15.2563V29.0638Z" fill="#5F646D"/>
<path d="M15.2563 28.7025H14.895V29.0625H15.2563V28.7025Z" fill="#4A535E"/>
<path d="M15.2563 28.3337H14.895V28.7025H15.2563V28.3337Z" fill="#4A535E"/>
<path d="M15.2563 27.9725H14.895V28.3338H15.2563V27.9725Z" fill="#4A535E"/>
<path d="M15.2563 27.6038H14.895V27.9725H15.2563V27.6038Z" fill="black"/>
<path d="M15.2563 27.2425H14.895V27.6037H15.2563V27.2425Z" fill="black"/>
<path d="M15.2563 21.7775H14.895V22.1462H15.2563V21.7775Z" fill="black"/>
<path d="M15.2563 21.4163H14.895V21.7775H15.2563V21.4163Z" fill="#4A535E"/>
<path d="M15.2563 21.0475H14.895V21.4162H15.2563V21.0475Z" fill="#4A535E"/>
<path d="M15.2563 20.6862H14.895V21.0475H15.2563V20.6862Z" fill="#5F646D"/>
<path d="M15.2563 20.325H14.895V20.6862H15.2563V20.325Z" fill="#5F646D"/>
<path d="M15.2563 19.9562H14.895V20.325H15.2563V19.9562Z" fill="#5F646D"/>
<path d="M15.2563 19.595H14.895V19.9563H15.2563V19.595Z" fill="#5F646D"/>
<path d="M15.2563 19.2337H14.895V19.595H15.2563V19.2337Z" fill="#5F646D"/>
<path d="M15.2563 18.865H14.895V19.2337H15.2563V18.865Z" fill="#4A535E"/>
<path d="M15.2563 18.5038H14.895V18.865H15.2563V18.5038Z" fill="#4A535E"/>
<path d="M15.2563 18.135H14.895V18.5038H15.2563V18.135Z" fill="black"/>
<path d="M14.8949 29.7938H14.5261V30.155H14.8949V29.7938Z" fill="black"/>
<path d="M14.8949 29.425H14.5261V29.7937H14.8949V29.425Z" fill="#4A535E"/>
<path d="M14.8949 29.0638H14.5261V29.425H14.8949V29.0638Z" fill="#5F646D"/>
<path d="M14.8949 28.7025H14.5261V29.0625H14.8949V28.7025Z" fill="#5F646D"/>
<path d="M14.8949 28.3337H14.5261V28.7025H14.8949V28.3337Z" fill="#5F646D"/>
<path d="M14.8949 27.9725H14.5261V28.3338H14.8949V27.9725Z" fill="#4A535E"/>
<path d="M14.8949 27.6038H14.5261V27.9725H14.8949V27.6038Z" fill="#5F646D"/>
<path d="M14.8949 27.2425H14.5261V27.6037H14.8949V27.2425Z" fill="#5F646D"/>
<path d="M14.8949 26.8813H14.5261V27.2425H14.8949V26.8813Z" fill="black"/>
<path d="M14.8949 26.5125H14.5261V26.8812H14.8949V26.5125Z" fill="black"/>
<path d="M14.8949 22.1462H14.5261V22.5075H14.8949V22.1462Z" fill="black"/>
<path d="M14.8949 21.7775H14.5261V22.1462H14.8949V21.7775Z" fill="#4A535E"/>
<path d="M14.8949 21.4163H14.5261V21.7775H14.8949V21.4163Z" fill="#4A535E"/>
<path d="M14.8949 21.0475H14.5261V21.4162H14.8949V21.0475Z" fill="#5F646D"/>
<path d="M14.8949 20.6862H14.5261V21.0475H14.8949V20.6862Z" fill="#5F646D"/>
<path d="M14.8949 20.325H14.5261V20.6862H14.8949V20.325Z" fill="#5F646D"/>
<path d="M14.8949 19.9562H14.5261V20.325H14.8949V19.9562Z" fill="#5F646D"/>
<path d="M14.8949 19.595H14.5261V19.9563H14.8949V19.595Z" fill="#4A535E"/>
<path d="M14.8949 19.2337H14.5261V19.595H14.8949V19.2337Z" fill="#4A535E"/>
<path d="M14.8949 18.865H14.5261V19.2337H14.8949V18.865Z" fill="#4A535E"/>
<path d="M14.8949 18.5038H14.5261V18.865H14.8949V18.5038Z" fill="black"/>
<path d="M14.5263 29.7938H14.165V30.155H14.5263V29.7938Z" fill="black"/>
<path d="M14.5263 29.425H14.165V29.7937H14.5263V29.425Z" fill="#4A535E"/>
<path d="M14.5263 29.0638H14.165V29.425H14.5263V29.0638Z" fill="#4A535E"/>
<path d="M14.5263 28.7025H14.165V29.0625H14.5263V28.7025Z" fill="#5F646D"/>
<path d="M14.5263 28.3337H14.165V28.7025H14.5263V28.3337Z" fill="#5F646D"/>
<path d="M14.5263 27.9725H14.165V28.3338H14.5263V27.9725Z" fill="#5F646D"/>
<path d="M14.5263 27.6038H14.165V27.9725H14.5263V27.6038Z" fill="#5F646D"/>
<path d="M14.5263 27.2425H14.165V27.6037H14.5263V27.2425Z" fill="#5F646D"/>
<path d="M14.5263 26.8813H14.165V27.2425H14.5263V26.8813Z" fill="#5F646D"/>
<path d="M14.5263 26.5125H14.165V26.8812H14.5263V26.5125Z" fill="#5F646D"/>
<path d="M14.5263 26.1512H14.165V26.5112H14.5263V26.1512Z" fill="black"/>
<path d="M14.5263 25.7825H14.165V26.1513H14.5263V25.7825Z" fill="black"/>
<path d="M14.5263 25.4212H14.165V25.7825H14.5263V25.4212Z" fill="black"/>
<path d="M14.5263 22.5075H14.165V22.8688H14.5263V22.5075Z" fill="black"/>
<path d="M14.5263 22.1462H14.165V22.5075H14.5263V22.1462Z" fill="#4A535E"/>
<path d="M14.5263 21.7775H14.165V22.1462H14.5263V21.7775Z" fill="#4A535E"/>
<path d="M14.5263 21.4163H14.165V21.7775H14.5263V21.4163Z" fill="#4A535E"/>
<path d="M14.5263 21.0475H14.165V21.4162H14.5263V21.0475Z" fill="#5F646D"/>
<path d="M14.5263 20.6862H14.165V21.0475H14.5263V20.6862Z" fill="#5F646D"/>
<path d="M14.5263 20.325H14.165V20.6862H14.5263V20.325Z" fill="#5F646D"/>
<path d="M14.5263 19.9562H14.165V20.325H14.5263V19.9562Z" fill="#5F646D"/>
<path d="M14.5263 19.595H14.165V19.9563H14.5263V19.595Z" fill="#4A535E"/>
<path d="M14.5263 19.2337H14.165V19.595H14.5263V19.2337Z" fill="#4A535E"/>
<path d="M14.5263 18.865H14.165V19.2337H14.5263V18.865Z" fill="black"/>
<path d="M14.165 29.425H13.8037V29.7937H14.165V29.425Z" fill="black"/>
<path d="M14.165 29.0638H13.8037V29.425H14.165V29.0638Z" fill="black"/>
<path d="M14.165 28.7025H13.8037V29.0625H14.165V28.7025Z" fill="#4A535E"/>
<path d="M14.165 28.3337H13.8037V28.7025H14.165V28.3337Z" fill="#5F646D"/>
<path d="M14.165 27.9725H13.8037V28.3338H14.165V27.9725Z" fill="#5F646D"/>
<path d="M14.165 27.6038H13.8037V27.9725H14.165V27.6038Z" fill="#5F646D"/>
<path d="M14.165 27.2425H13.8037V27.6037H14.165V27.2425Z" fill="#5F646D"/>
<path d="M14.165 26.8813H13.8037V27.2425H14.165V26.8813Z" fill="#5F646D"/>
<path d="M14.165 26.5125H13.8037V26.8812H14.165V26.5125Z" fill="#5F646D"/>
<path d="M14.165 26.1512H13.8037V26.5112H14.165V26.1512Z" fill="#5F646D"/>
<path d="M14.165 25.7825H13.8037V26.1513H14.165V25.7825Z" fill="#4A535E"/>
<path d="M14.165 25.4212H13.8037V25.7825H14.165V25.4212Z" fill="#5F646D"/>
<path d="M14.165 25.0587H13.8037V25.42H14.165V25.0587Z" fill="black"/>
<path d="M14.165 24.6913H13.8037V25.06H14.165V24.6913Z" fill="black"/>
<path d="M14.165 23.5988H13.8037V23.9675H14.165V23.5988Z" fill="black"/>
<path d="M14.165 23.2375H13.8037V23.5987H14.165V23.2375Z" fill="black"/>
<path d="M14.165 22.8687H13.8037V23.2375H14.165V22.8687Z" fill="black"/>
<path d="M14.165 22.5075H13.8037V22.8688H14.165V22.5075Z" fill="#4A535E"/>
<path d="M14.165 22.1462H13.8037V22.5075H14.165V22.1462Z" fill="#4A535E"/>
<path d="M14.165 21.7775H13.8037V22.1462H14.165V21.7775Z" fill="#5F646D"/>
<path d="M14.165 21.4163H13.8037V21.7775H14.165V21.4163Z" fill="#5F646D"/>
<path d="M14.165 21.0475H13.8037V21.4162H14.165V21.0475Z" fill="#5F646D"/>
<path d="M14.165 20.6862H13.8037V21.0475H14.165V20.6862Z" fill="#5F646D"/>
<path d="M14.165 20.325H13.8037V20.6862H14.165V20.325Z" fill="#5F646D"/>
<path d="M14.165 19.9562H13.8037V20.325H14.165V19.9562Z" fill="#4A535E"/>
<path d="M14.165 19.595H13.8037V19.9563H14.165V19.595Z" fill="#4A535E"/>
<path d="M14.165 19.2337H13.8037V19.595H14.165V19.2337Z" fill="#4A535E"/>
<path d="M14.165 18.865H13.8037V19.2337H14.165V18.865Z" fill="black"/>
<path d="M13.8038 29.0638H13.4351V29.425H13.8038V29.0638Z" fill="black"/>
<path d="M13.8038 28.7025H13.4351V29.0625H13.8038V28.7025Z" fill="#4A535E"/>
<path d="M13.8038 28.3337H13.4351V28.7025H13.8038V28.3337Z" fill="#4A535E"/>
<path d="M13.8038 27.9725H13.4351V28.3338H13.8038V27.9725Z" fill="#5F646D"/>
<path d="M13.8038 27.6038H13.4351V27.9725H13.8038V27.6038Z" fill="#5F646D"/>
<path d="M13.8038 27.2425H13.4351V27.6037H13.8038V27.2425Z" fill="#5F646D"/>
<path d="M13.8038 26.8813H13.4351V27.2425H13.8038V26.8813Z" fill="#5F646D"/>
<path d="M13.8038 26.5125H13.4351V26.8812H13.8038V26.5125Z" fill="#5F646D"/>
<path d="M13.8038 26.1512H13.4351V26.5112H13.8038V26.1512Z" fill="#5F646D"/>
<path d="M13.8038 25.7825H13.4351V26.1513H13.8038V25.7825Z" fill="#5F646D"/>
<path d="M13.8038 25.4212H13.4351V25.7825H13.8038V25.4212Z" fill="#5F646D"/>
<path d="M13.8038 25.0587H13.4351V25.42H13.8038V25.0587Z" fill="#4A535E"/>
<path d="M13.8038 24.6913H13.4351V25.06H13.8038V24.6913Z" fill="#4A535E"/>
<path d="M13.8038 24.3287H13.4351V24.69H13.8038V24.3287Z" fill="black"/>
<path d="M13.8038 23.9675H13.4351V24.3287H13.8038V23.9675Z" fill="black"/>
<path d="M13.8038 23.5988H13.4351V23.9675H13.8038V23.5988Z" fill="#4A535E"/>
<path d="M13.8038 23.2375H13.4351V23.5987H13.8038V23.2375Z" fill="#4A535E"/>
<path d="M13.8038 22.8687H13.4351V23.2375H13.8038V22.8687Z" fill="#4A535E"/>
<path d="M13.8038 22.5075H13.4351V22.8688H13.8038V22.5075Z" fill="#4A535E"/>
<path d="M13.8038 22.1462H13.4351V22.5075H13.8038V22.1462Z" fill="#5F646D"/>
<path d="M13.8038 21.7775H13.4351V22.1462H13.8038V21.7775Z" fill="#5F646D"/>
<path d="M13.8038 21.4163H13.4351V21.7775H13.8038V21.4163Z" fill="#5F646D"/>
<path d="M13.8038 21.0475H13.4351V21.4162H13.8038V21.0475Z" fill="#5F646D"/>
<path d="M13.8038 20.6862H13.4351V21.0475H13.8038V20.6862Z" fill="#5F646D"/>
<path d="M13.8038 20.325H13.4351V20.6862H13.8038V20.325Z" fill="#4A535E"/>
<path d="M13.8038 19.9562H13.4351V20.325H13.8038V19.9562Z" fill="#4A535E"/>
<path d="M13.8038 19.595H13.4351V19.9563H13.8038V19.595Z" fill="black"/>
<path d="M13.8038 19.2337H13.4351V19.595H13.8038V19.2337Z" fill="black"/>
<path d="M13.435 28.7025H13.0737V29.0625H13.435V28.7025Z" fill="black"/>
<path d="M13.435 28.3337H13.0737V28.7025H13.435V28.3337Z" fill="black"/>
<path d="M13.435 27.9725H13.0737V28.3338H13.435V27.9725Z" fill="#5F646D"/>
<path d="M13.435 27.6038H13.0737V27.9725H13.435V27.6038Z" fill="#5F646D"/>
<path d="M13.435 27.2425H13.0737V27.6037H13.435V27.2425Z" fill="#5F646D"/>
<path d="M13.435 26.8813H13.0737V27.2425H13.435V26.8813Z" fill="#5F646D"/>
<path d="M13.435 26.5125H13.0737V26.8812H13.435V26.5125Z" fill="#5F646D"/>
<path d="M13.435 26.1512H13.0737V26.5112H13.435V26.1512Z" fill="#5F646D"/>
<path d="M13.435 25.7825H13.0737V26.1513H13.435V25.7825Z" fill="#5F646D"/>
<path d="M13.435 25.4212H13.0737V25.7825H13.435V25.4212Z" fill="#5F646D"/>
<path d="M13.435 25.0587H13.0737V25.42H13.435V25.0587Z" fill="#5F646D"/>
<path d="M13.435 24.6913H13.0737V25.06H13.435V24.6913Z" fill="#4A535E"/>
<path d="M13.435 24.3287H13.0737V24.69H13.435V24.3287Z" fill="#4A535E"/>
<path d="M13.435 23.9675H13.0737V24.3287H13.435V23.9675Z" fill="#4A535E"/>
<path d="M13.435 23.5988H13.0737V23.9675H13.435V23.5988Z" fill="#4A535E"/>
<path d="M13.435 23.2375H13.0737V23.5987H13.435V23.2375Z" fill="#4A535E"/>
<path d="M13.435 22.8687H13.0737V23.2375H13.435V22.8687Z" fill="#5F646D"/>
<path d="M13.435 22.5075H13.0737V22.8688H13.435V22.5075Z" fill="#5F646D"/>
<path d="M13.435 22.1462H13.0737V22.5075H13.435V22.1462Z" fill="#5F646D"/>
<path d="M13.435 21.7775H13.0737V22.1462H13.435V21.7775Z" fill="#5F646D"/>
<path d="M13.435 21.4163H13.0737V21.7775H13.435V21.4163Z" fill="#5F646D"/>
<path d="M13.435 21.0475H13.0737V21.4162H13.435V21.0475Z" fill="#5F646D"/>
<path d="M13.435 20.6862H13.0737V21.0475H13.435V20.6862Z" fill="#4A535E"/>
<path d="M13.435 20.325H13.0737V20.6862H13.435V20.325Z" fill="#4A535E"/>
<path d="M13.435 19.9562H13.0737V20.325H13.435V19.9562Z" fill="black"/>
<path d="M13.435 19.595H13.0737V19.9563H13.435V19.595Z" fill="black"/>
<path d="M13.0737 28.3337H12.7124V28.7025H13.0737V28.3337Z" fill="black"/>
<path d="M13.0737 27.9725H12.7124V28.3338H13.0737V27.9725Z" fill="black"/>
<path d="M13.0737 27.6038H12.7124V27.9725H13.0737V27.6038Z" fill="#5F646D"/>
<path d="M13.0737 27.2425H12.7124V27.6037H13.0737V27.2425Z" fill="#5F646D"/>
<path d="M13.0737 26.8813H12.7124V27.2425H13.0737V26.8813Z" fill="#5F646D"/>
<path d="M13.0737 26.5125H12.7124V26.8812H13.0737V26.5125Z" fill="#5F646D"/>
<path d="M13.0737 26.1512H12.7124V26.5112H13.0737V26.1512Z" fill="#5F646D"/>
<path d="M13.0737 25.7825H12.7124V26.1513H13.0737V25.7825Z" fill="#5F646D"/>
<path d="M13.0737 25.4212H12.7124V25.7825H13.0737V25.4212Z" fill="#5F646D"/>
<path d="M13.0737 25.0587H12.7124V25.42H13.0737V25.0587Z" fill="#5F646D"/>
<path d="M13.0737 24.6913H12.7124V25.06H13.0737V24.6913Z" fill="#5F646D"/>
<path d="M13.0737 24.3287H12.7124V24.69H13.0737V24.3287Z" fill="#5F646D"/>
<path d="M13.0737 23.9675H12.7124V24.3287H13.0737V23.9675Z" fill="#5F646D"/>
<path d="M13.0737 23.5988H12.7124V23.9675H13.0737V23.5988Z" fill="#5F646D"/>
<path d="M13.0737 23.2375H12.7124V23.5987H13.0737V23.2375Z" fill="#5F646D"/>
<path d="M13.0737 22.8687H12.7124V23.2375H13.0737V22.8687Z" fill="#5F646D"/>
<path d="M13.0737 22.5075H12.7124V22.8688H13.0737V22.5075Z" fill="#5F646D"/>
<path d="M13.0737 22.1462H12.7124V22.5075H13.0737V22.1462Z" fill="#5F646D"/>
<path d="M13.0737 21.7775H12.7124V22.1462H13.0737V21.7775Z" fill="#5F646D"/>
<path d="M13.0737 21.4163H12.7124V21.7775H13.0737V21.4163Z" fill="#5F646D"/>
<path d="M13.0737 21.0475H12.7124V21.4162H13.0737V21.0475Z" fill="#4A535E"/>
<path d="M13.0737 20.6862H12.7124V21.0475H13.0737V20.6862Z" fill="#4A535E"/>
<path d="M13.0737 20.325H12.7124V20.6862H13.0737V20.325Z" fill="black"/>
<path d="M13.0737 19.9562H12.7124V20.325H13.0737V19.9562Z" fill="black"/>
<path d="M12.7125 27.6038H12.3438V27.9725H12.7125V27.6038Z" fill="black"/>
<path d="M12.7125 27.2425H12.3438V27.6037H12.7125V27.2425Z" fill="#5F646D"/>
<path d="M12.7125 26.8813H12.3438V27.2425H12.7125V26.8813Z" fill="#5F646D"/>
<path d="M12.7125 26.5125H12.3438V26.8812H12.7125V26.5125Z" fill="#5F646D"/>
<path d="M12.7125 26.1512H12.3438V26.5112H12.7125V26.1512Z" fill="#5F646D"/>
<path d="M12.7125 25.7825H12.3438V26.1513H12.7125V25.7825Z" fill="#5F646D"/>
<path d="M12.7125 25.4212H12.3438V25.7825H12.7125V25.4212Z" fill="#5F646D"/>
<path d="M12.7125 25.0587H12.3438V25.42H12.7125V25.0587Z" fill="#5F646D"/>
<path d="M12.7125 24.6913H12.3438V25.06H12.7125V24.6913Z" fill="#5F646D"/>
<path d="M12.7125 24.3287H12.3438V24.69H12.7125V24.3287Z" fill="#5F646D"/>
<path d="M12.7125 23.9675H12.3438V24.3287H12.7125V23.9675Z" fill="#5F646D"/>
<path d="M12.7125 23.5988H12.3438V23.9675H12.7125V23.5988Z" fill="#5F646D"/>
<path d="M12.7125 23.2375H12.3438V23.5987H12.7125V23.2375Z" fill="#5F646D"/>
<path d="M12.7125 22.8687H12.3438V23.2375H12.7125V22.8687Z" fill="#5F646D"/>
<path d="M12.7125 22.5075H12.3438V22.8688H12.7125V22.5075Z" fill="#5F646D"/>
<path d="M12.7125 22.1462H12.3438V22.5075H12.7125V22.1462Z" fill="#5F646D"/>
<path d="M12.7125 21.7775H12.3438V22.1462H12.7125V21.7775Z" fill="#5F646D"/>
<path d="M12.7125 21.4163H12.3438V21.7775H12.7125V21.4163Z" fill="#4A535E"/>
<path d="M12.7125 21.0475H12.3438V21.4162H12.7125V21.0475Z" fill="#4A535E"/>
<path d="M12.7125 20.6862H12.3438V21.0475H12.7125V20.6862Z" fill="black"/>
<path d="M12.7125 20.325H12.3438V20.6862H12.7125V20.325Z" fill="black"/>
<path d="M12.3437 27.6038H11.9824V27.9725H12.3437V27.6038Z" fill="black"/>
<path d="M12.3437 27.2425H11.9824V27.6037H12.3437V27.2425Z" fill="black"/>
<path d="M12.3437 26.8813H11.9824V27.2425H12.3437V26.8813Z" fill="black"/>
<path d="M12.3437 26.5125H11.9824V26.8812H12.3437V26.5125Z" fill="black"/>
<path d="M12.3437 26.1512H11.9824V26.5112H12.3437V26.1512Z" fill="#4A535E"/>
<path d="M12.3437 25.7825H11.9824V26.1513H12.3437V25.7825Z" fill="#4A535E"/>
<path d="M12.3437 25.4212H11.9824V25.7825H12.3437V25.4212Z" fill="#4A535E"/>
<path d="M12.3437 25.0587H11.9824V25.42H12.3437V25.0587Z" fill="#4A535E"/>
<path d="M12.3437 24.6913H11.9824V25.06H12.3437V24.6913Z" fill="#4A535E"/>
<path d="M12.3437 24.3287H11.9824V24.69H12.3437V24.3287Z" fill="#5F646D"/>
<path d="M12.3437 23.9675H11.9824V24.3287H12.3437V23.9675Z" fill="#5F646D"/>
<path d="M12.3437 23.5988H11.9824V23.9675H12.3437V23.5988Z" fill="#5F646D"/>
<path d="M12.3437 23.2375H11.9824V23.5987H12.3437V23.2375Z" fill="#5F646D"/>
<path d="M12.3437 22.8687H11.9824V23.2375H12.3437V22.8687Z" fill="#5F646D"/>
<path d="M12.3437 22.5075H11.9824V22.8688H12.3437V22.5075Z" fill="#4A535E"/>
<path d="M12.3437 22.1462H11.9824V22.5075H12.3437V22.1462Z" fill="#4A535E"/>
<path d="M12.3437 21.7775H11.9824V22.1462H12.3437V21.7775Z" fill="#4A535E"/>
<path d="M12.3437 21.4163H11.9824V21.7775H12.3437V21.4163Z" fill="#4A535E"/>
<path d="M12.3437 21.0475H11.9824V21.4162H12.3437V21.0475Z" fill="black"/>
<path d="M12.3437 20.6862H11.9824V21.0475H12.3437V20.6862Z" fill="black"/>
<path d="M11.9825 26.5125H11.6138V26.8812H11.9825V26.5125Z" fill="black"/>
<path d="M11.9825 26.1512H11.6138V26.5112H11.9825V26.1512Z" fill="black"/>
<path d="M11.9825 25.7825H11.6138V26.1513H11.9825V25.7825Z" fill="black"/>
<path d="M11.9825 25.4212H11.6138V25.7825H11.9825V25.4212Z" fill="black"/>
<path d="M11.9825 25.0587H11.6138V25.42H11.9825V25.0587Z" fill="black"/>
<path d="M11.9825 24.6913H11.6138V25.06H11.9825V24.6913Z" fill="#4A535E"/>
<path d="M11.9825 24.3287H11.6138V24.69H11.9825V24.3287Z" fill="#4A535E"/>
<path d="M11.9825 23.9675H11.6138V24.3287H11.9825V23.9675Z" fill="#4A535E"/>
<path d="M11.9825 23.5988H11.6138V23.9675H11.9825V23.5988Z" fill="#4A535E"/>
<path d="M11.9825 23.2375H11.6138V23.5987H11.9825V23.2375Z" fill="#4A535E"/>
<path d="M11.9825 22.8687H11.6138V23.2375H11.9825V22.8687Z" fill="#4A535E"/>
<path d="M11.9825 22.5075H11.6138V22.8688H11.9825V22.5075Z" fill="black"/>
<path d="M11.9825 22.1462H11.6138V22.5075H11.9825V22.1462Z" fill="black"/>
<path d="M11.9825 21.7775H11.6138V22.1462H11.9825V21.7775Z" fill="black"/>
<path d="M11.9825 21.4163H11.6138V21.7775H11.9825V21.4163Z" fill="black"/>
<path d="M11.9825 21.0475H11.6138V21.4162H11.9825V21.0475Z" fill="black"/>
<path d="M11.6137 25.0587H11.2524V25.42H11.6137V25.0587Z" fill="black"/>
<path d="M11.6137 24.6913H11.2524V25.06H11.6137V24.6913Z" fill="black"/>
<path d="M11.6137 24.3287H11.2524V24.69H11.6137V24.3287Z" fill="black"/>
<path d="M11.6137 23.9675H11.2524V24.3287H11.6137V23.9675Z" fill="black"/>
<path d="M11.6137 23.5988H11.2524V23.9675H11.6137V23.5988Z" fill="black"/>
<path d="M11.6137 23.2375H11.2524V23.5987H11.6137V23.2375Z" fill="black"/>
<path d="M11.6137 22.8687H11.2524V23.2375H11.6137V22.8687Z" fill="black"/>
<path d="M11.6137 22.5075H11.2524V22.8688H11.6137V22.5075Z" fill="black"/>
</g>
<defs>
<clipPath id="clip0_69_12163">
<rect width="50" height="50" fill="white"/>
</clipPath>
</defs>
</svg>
