<svg width="50" height="50" viewBox="0 0 50 50" fill="none" xmlns="http://www.w3.org/2000/svg">
<g clip-path="url(#clip0_69_12158)">
<path d="M24.9998 48.2225C37.8253 48.2225 48.2223 37.8254 48.2223 25C48.2223 12.1746 37.8253 1.7775 24.9998 1.7775C12.1744 1.7775 1.77734 12.1746 1.77734 25C1.77734 37.8254 12.1744 48.2225 24.9998 48.2225Z" fill="black"/>
<path d="M24.9998 49.0975C11.7123 49.0975 0.902344 38.2875 0.902344 25C0.902344 11.7125 11.7123 0.902496 24.9998 0.902496C38.2873 0.902496 49.0973 11.7125 49.0973 25C49.0973 38.2875 38.2873 49.0975 24.9998 49.0975ZM24.9998 2.6525C12.6773 2.6525 2.65234 12.6775 2.65234 25C2.65234 37.3225 12.6773 47.3475 24.9998 47.3475C37.3223 47.3475 47.3473 37.3225 47.3473 25C47.3473 12.6775 37.3223 2.6525 24.9998 2.6525Z" fill="#4CED63"/>
<path d="M35.0663 39.8575H34.1038V40.82H35.0663V39.8575Z" fill="#28AF5F"/>
<path d="M35.0663 38.9037H34.1038V39.8575H35.0663V38.9037Z" fill="#28AF5F"/>
<path d="M35.0663 18.77H34.1038V19.7237H35.0663V18.77Z" fill="#28AF5F"/>
<path d="M35.0663 17.8062H34.1038V18.7687H35.0663V17.8062Z" fill="#28AF5F"/>
<path d="M35.0663 16.8538H34.1038V17.8075H35.0663V16.8538Z" fill="#28AF5F"/>
<path d="M34.1036 39.8575H33.1499V40.82H34.1036V39.8575Z" fill="#28AF5F"/>
<path d="M34.1036 38.9037H33.1499V39.8575H34.1036V38.9037Z" fill="#28AF5F"/>
<path d="M34.1036 37.9413H33.1499V38.9038H34.1036V37.9413Z" fill="#28AF5F"/>
<path d="M34.1036 36.9875H33.1499V37.9412H34.1036V36.9875Z" fill="#28AF5F"/>
<path d="M34.1036 36.025H33.1499V36.9875H34.1036V36.025Z" fill="#28AF5F"/>
<path d="M34.1036 19.7225H33.1499V20.685H34.1036V19.7225Z" fill="#298E52"/>
<path d="M34.1036 18.77H33.1499V19.7237H34.1036V18.77Z" fill="#EA8634"/>
<path d="M34.1036 17.8062H33.1499V18.7687H34.1036V17.8062Z" fill="#E5A870"/>
<path d="M34.1036 16.8538H33.1499V17.8075H34.1036V16.8538Z" fill="#EA8634"/>
<path d="M34.1036 15.89H33.1499V16.8525H34.1036V15.89Z" fill="#28AF5F"/>
<path d="M34.1036 12.0587H33.1499V13.0125H34.1036V12.0587Z" fill="#4C2501"/>
<path d="M34.1036 11.0963H33.1499V12.0588H34.1036V11.0963Z" fill="#4C2501"/>
<path d="M34.1036 10.1425H33.1499V11.0962H34.1036V10.1425Z" fill="#4C2501"/>
<path d="M33.15 39.8575H32.1875V40.82H33.15V39.8575Z" fill="#28AF5F"/>
<path d="M33.15 38.9037H32.1875V39.8575H33.15V38.9037Z" fill="#2ECC71"/>
<path d="M33.15 37.9413H32.1875V38.9038H33.15V37.9413Z" fill="#2ECC71"/>
<path d="M33.15 36.9875H32.1875V37.9412H33.15V36.9875Z" fill="#2ECC71"/>
<path d="M33.15 36.025H32.1875V36.9875H33.15V36.025Z" fill="#2ECC71"/>
<path d="M33.15 35.0612H32.1875V36.0238H33.15V35.0612Z" fill="#28AF5F"/>
<path d="M33.15 34.1088H32.1875V35.0625H33.15V34.1088Z" fill="#28AF5F"/>
<path d="M33.15 33.145H32.1875V34.1075H33.15V33.145Z" fill="#28AF5F"/>
<path d="M33.15 32.1913H32.1875V33.145H33.15V32.1913Z" fill="#28AF5F"/>
<path d="M33.15 19.7225H32.1875V20.685H33.15V19.7225Z" fill="#298E52"/>
<path d="M33.15 18.77H32.1875V19.7237H33.15V18.77Z" fill="#E5A870"/>
<path d="M33.15 17.8062H32.1875V18.7687H33.15V17.8062Z" fill="#E5A870"/>
<path d="M33.15 16.8538H32.1875V17.8075H33.15V16.8538Z" fill="#EA8634"/>
<path d="M33.15 15.89H32.1875V16.8525H33.15V15.89Z" fill="#EA8634"/>
<path d="M33.15 14.9388H32.1875V15.8925H33.15V14.9388Z" fill="#28AF5F"/>
<path d="M33.15 13.0125H32.1875V13.975H33.15V13.0125Z" fill="#4C2501"/>
<path d="M33.15 10.1425H32.1875V11.0962H33.15V10.1425Z" fill="#4C2501"/>
<path d="M32.1861 39.8575H31.2236V40.82H32.1861V39.8575Z" fill="#28AF5F"/>
<path d="M32.1861 38.9037H31.2236V39.8575H32.1861V38.9037Z" fill="#28AF5F"/>
<path d="M32.1861 37.9413H31.2236V38.9038H32.1861V37.9413Z" fill="#28AF5F"/>
<path d="M32.1861 36.9875H31.2236V37.9412H32.1861V36.9875Z" fill="#2ECC71"/>
<path d="M32.1861 36.025H31.2236V36.9875H32.1861V36.025Z" fill="#2ECC71"/>
<path d="M32.1861 35.0612H31.2236V36.0238H32.1861V35.0612Z" fill="#2ECC71"/>
<path d="M32.1861 34.1088H31.2236V35.0625H32.1861V34.1088Z" fill="#2ECC71"/>
<path d="M32.1861 33.145H31.2236V34.1075H32.1861V33.145Z" fill="#2ECC71"/>
<path d="M32.1861 32.1913H31.2236V33.145H32.1861V32.1913Z" fill="#2ECC71"/>
<path d="M32.1861 31.2288H31.2236V32.1913H32.1861V31.2288Z" fill="#28AF5F"/>
<path d="M32.1861 30.2775H31.2236V31.2312H32.1861V30.2775Z" fill="#28AF5F"/>
<path d="M32.1861 19.7225H31.2236V20.685H32.1861V19.7225Z" fill="#298E52"/>
<path d="M32.1861 18.77H31.2236V19.7237H32.1861V18.77Z" fill="#E5A870"/>
<path d="M32.1861 17.8062H31.2236V18.7687H32.1861V17.8062Z" fill="#E5A870"/>
<path d="M32.1861 16.8538H31.2236V17.8075H32.1861V16.8538Z" fill="#E5A870"/>
<path d="M32.1861 15.89H31.2236V16.8525H32.1861V15.89Z" fill="#E5A870"/>
<path d="M32.1861 14.9388H31.2236V15.8925H32.1861V14.9388Z" fill="#EA8634"/>
<path d="M32.1861 13.975H31.2236V14.9375H32.1861V13.975Z" fill="#EA8634"/>
<path d="M32.1861 13.0125H31.2236V13.975H32.1861V13.0125Z" fill="#EA8634"/>
<path d="M32.1861 11.0963H31.2236V12.0588H32.1861V11.0963Z" fill="#4C2501"/>
<path d="M31.2262 39.8575H30.2725V40.82H31.2262V39.8575Z" fill="#28AF5F"/>
<path d="M31.2262 38.9037H30.2725V39.8575H31.2262V38.9037Z" fill="#28AF5F"/>
<path d="M31.2262 37.9413H30.2725V38.9038H31.2262V37.9413Z" fill="#28AF5F"/>
<path d="M31.2262 36.9875H30.2725V37.9412H31.2262V36.9875Z" fill="#28AF5F"/>
<path d="M31.2262 36.025H30.2725V36.9875H31.2262V36.025Z" fill="#2ECC71"/>
<path d="M31.2262 35.0612H30.2725V36.0238H31.2262V35.0612Z" fill="#2ECC71"/>
<path d="M31.2262 34.1088H30.2725V35.0625H31.2262V34.1088Z" fill="#2ECC71"/>
<path d="M31.2262 33.145H30.2725V34.1075H31.2262V33.145Z" fill="#2ECC71"/>
<path d="M31.2262 32.1913H30.2725V33.145H31.2262V32.1913Z" fill="#2ECC71"/>
<path d="M31.2262 31.2288H30.2725V32.1913H31.2262V31.2288Z" fill="#2ECC71"/>
<path d="M31.2262 30.2775H30.2725V31.2312H31.2262V30.2775Z" fill="#2ECC71"/>
<path d="M31.2262 29.3125H30.2725V30.275H31.2262V29.3125Z" fill="#28AF5F"/>
<path d="M31.2262 28.35H30.2725V29.3125H31.2262V28.35Z" fill="#28AF5F"/>
<path d="M31.2262 20.6862H30.2725V21.6487H31.2262V20.6862Z" fill="#298E52"/>
<path d="M31.2262 19.7225H30.2725V20.685H31.2262V19.7225Z" fill="#298E52"/>
<path d="M31.2262 18.77H30.2725V19.7237H31.2262V18.77Z" fill="#298E52"/>
<path d="M31.2262 17.8062H30.2725V18.7687H31.2262V17.8062Z" fill="#298E52"/>
<path d="M31.2262 16.8538H30.2725V17.8075H31.2262V16.8538Z" fill="#E5A870"/>
<path d="M31.2262 15.89H30.2725V16.8525H31.2262V15.89Z" fill="#E5A870"/>
<path d="M31.2262 14.9388H30.2725V15.8925H31.2262V14.9388Z" fill="#E5A870"/>
<path d="M31.2262 13.975H30.2725V14.9375H31.2262V13.975Z" fill="#E5A870"/>
<path d="M31.2262 13.0125H30.2725V13.975H31.2262V13.0125Z" fill="#E5A870"/>
<path d="M31.2262 12.0587H30.2725V13.0125H31.2262V12.0587Z" fill="#4C2501"/>
<path d="M30.2726 39.8575H29.3101V40.82H30.2726V39.8575Z" fill="#28AF5F"/>
<path d="M30.2726 38.9037H29.3101V39.8575H30.2726V38.9037Z" fill="#28AF5F"/>
<path d="M30.2726 37.9413H29.3101V38.9038H30.2726V37.9413Z" fill="#2ECC71"/>
<path d="M30.2726 36.9875H29.3101V37.9412H30.2726V36.9875Z" fill="#28AF5F"/>
<path d="M30.2726 36.025H29.3101V36.9875H30.2726V36.025Z" fill="#28AF5F"/>
<path d="M30.2726 35.0612H29.3101V36.0238H30.2726V35.0612Z" fill="#2ECC71"/>
<path d="M30.2726 34.1088H29.3101V35.0625H30.2726V34.1088Z" fill="#2ECC71"/>
<path d="M30.2726 33.145H29.3101V34.1075H30.2726V33.145Z" fill="#2ECC71"/>
<path d="M30.2726 32.1913H29.3101V33.145H30.2726V32.1913Z" fill="#2ECC71"/>
<path d="M30.2726 31.2288H29.3101V32.1913H30.2726V31.2288Z" fill="#2ECC71"/>
<path d="M30.2726 30.2775H29.3101V31.2312H30.2726V30.2775Z" fill="#2ECC71"/>
<path d="M30.2726 29.3125H29.3101V30.275H30.2726V29.3125Z" fill="#2ECC71"/>
<path d="M30.2726 28.35H29.3101V29.3125H30.2726V28.35Z" fill="#2ECC71"/>
<path d="M30.2726 27.3975H29.3101V28.3512H30.2726V27.3975Z" fill="#28AF5F"/>
<path d="M30.2726 26.435H29.3101V27.3975H30.2726V26.435Z" fill="#28AF5F"/>
<path d="M30.2726 25.4813H29.3101V26.435H30.2726V25.4813Z" fill="#28AF5F"/>
<path d="M30.2726 21.6487H29.3101V22.6025H30.2726V21.6487Z" fill="#298E52"/>
<path d="M30.2726 20.6862H29.3101V21.6487H30.2726V20.6862Z" fill="#28AF5F"/>
<path d="M30.2726 19.7225H29.3101V20.685H30.2726V19.7225Z" fill="#28AF5F"/>
<path d="M30.2726 18.77H29.3101V19.7237H30.2726V18.77Z" fill="#298E52"/>
<path d="M30.2726 17.8062H29.3101V18.7687H30.2726V17.8062Z" fill="#298E52"/>
<path d="M30.2726 16.8538H29.3101V17.8075H30.2726V16.8538Z" fill="#298E52"/>
<path d="M30.2726 15.89H29.3101V16.8525H30.2726V15.89Z" fill="#4C2501"/>
<path d="M30.2726 14.9388H29.3101V15.8925H30.2726V14.9388Z" fill="#E5A870"/>
<path d="M30.2726 13.975H29.3101V14.9375H30.2726V13.975Z" fill="#E5A870"/>
<path d="M30.2726 13.0125H29.3101V13.975H30.2726V13.0125Z" fill="#E5A870"/>
<path d="M29.3099 39.8575H28.3562V40.82H29.3099V39.8575Z" fill="#28AF5F"/>
<path d="M29.3099 38.9037H28.3562V39.8575H29.3099V38.9037Z" fill="#28AF5F"/>
<path d="M29.3099 37.9413H28.3562V38.9038H29.3099V37.9413Z" fill="#2ECC71"/>
<path d="M29.3099 36.9875H28.3562V37.9412H29.3099V36.9875Z" fill="#28AF5F"/>
<path d="M29.3099 36.025H28.3562V36.9875H29.3099V36.025Z" fill="#28AF5F"/>
<path d="M29.3099 35.0612H28.3562V36.0238H29.3099V35.0612Z" fill="#2ECC71"/>
<path d="M29.3099 34.1088H28.3562V35.0625H29.3099V34.1088Z" fill="#2ECC71"/>
<path d="M29.3099 33.145H28.3562V34.1075H29.3099V33.145Z" fill="#2ECC71"/>
<path d="M29.3099 32.1913H28.3562V33.145H29.3099V32.1913Z" fill="#2ECC71"/>
<path d="M29.3099 31.2288H28.3562V32.1913H29.3099V31.2288Z" fill="#2ECC71"/>
<path d="M29.3099 30.2775H28.3562V31.2312H29.3099V30.2775Z" fill="#2ECC71"/>
<path d="M29.3099 29.3125H28.3562V30.275H29.3099V29.3125Z" fill="#2ECC71"/>
<path d="M29.3099 28.35H28.3562V29.3125H29.3099V28.35Z" fill="#2ECC71"/>
<path d="M29.3099 27.3975H28.3562V28.3512H29.3099V27.3975Z" fill="#2ECC71"/>
<path d="M29.3099 26.435H28.3562V27.3975H29.3099V26.435Z" fill="#2ECC71"/>
<path d="M29.3099 25.4813H28.3562V26.435H29.3099V25.4813Z" fill="#2ECC71"/>
<path d="M29.3099 24.5187H28.3562V25.4812H29.3099V24.5187Z" fill="#298E52"/>
<path d="M29.3099 23.565H28.3562V24.5188H29.3099V23.565Z" fill="#025624"/>
<path d="M29.3099 22.6025H28.3562V23.565H29.3099V22.6025Z" fill="#298E52"/>
<path d="M29.3099 21.6487H28.3562V22.6025H29.3099V21.6487Z" fill="#28AF5F"/>
<path d="M29.3099 20.6862H28.3562V21.6487H29.3099V20.6862Z" fill="#28AF5F"/>
<path d="M29.3099 19.7225H28.3562V20.685H29.3099V19.7225Z" fill="#28AF5F"/>
<path d="M29.3099 18.77H28.3562V19.7237H29.3099V18.77Z" fill="#28AF5F"/>
<path d="M29.3099 17.8062H28.3562V18.7687H29.3099V17.8062Z" fill="#4C2501"/>
<path d="M29.3099 16.8538H28.3562V17.8075H29.3099V16.8538Z" fill="#4C2501"/>
<path d="M29.3099 15.89H28.3562V16.8525H29.3099V15.89Z" fill="#298E52"/>
<path d="M29.3099 14.9388H28.3562V15.8925H29.3099V14.9388Z" fill="#298E52"/>
<path d="M29.3099 13.975H28.3562V14.9375H29.3099V13.975Z" fill="#298E52"/>
<path d="M28.3551 39.8575H27.3926V40.82H28.3551V39.8575Z" fill="#28AF5F"/>
<path d="M28.3551 38.9037H27.3926V39.8575H28.3551V38.9037Z" fill="#28AF5F"/>
<path d="M28.3551 37.9413H27.3926V38.9038H28.3551V37.9413Z" fill="#28AF5F"/>
<path d="M28.3551 36.9875H27.3926V37.9412H28.3551V36.9875Z" fill="#2ECC71"/>
<path d="M28.3551 36.025H27.3926V36.9875H28.3551V36.025Z" fill="#28AF5F"/>
<path d="M28.3551 35.0612H27.3926V36.0238H28.3551V35.0612Z" fill="#28AF5F"/>
<path d="M28.3551 34.1088H27.3926V35.0625H28.3551V34.1088Z" fill="#2ECC71"/>
<path d="M28.3551 33.145H27.3926V34.1075H28.3551V33.145Z" fill="#2ECC71"/>
<path d="M28.3551 32.1913H27.3926V33.145H28.3551V32.1913Z" fill="#2ECC71"/>
<path d="M28.3551 31.2288H27.3926V32.1913H28.3551V31.2288Z" fill="#2ECC71"/>
<path d="M28.3551 30.2775H27.3926V31.2312H28.3551V30.2775Z" fill="#2ECC71"/>
<path d="M28.3551 29.3125H27.3926V30.275H28.3551V29.3125Z" fill="#2ECC71"/>
<path d="M28.3551 28.35H27.3926V29.3125H28.3551V28.35Z" fill="#2ECC71"/>
<path d="M28.3551 27.3975H27.3926V28.3512H28.3551V27.3975Z" fill="#2ECC71"/>
<path d="M28.3551 26.435H27.3926V27.3975H28.3551V26.435Z" fill="#2ECC71"/>
<path d="M28.3551 25.4813H27.3926V26.435H28.3551V25.4813Z" fill="#2ECC71"/>
<path d="M28.3551 24.5187H27.3926V25.4812H28.3551V24.5187Z" fill="#298E52"/>
<path d="M28.3551 23.565H27.3926V24.5188H28.3551V23.565Z" fill="#025624"/>
<path d="M28.3551 22.6025H27.3926V23.565H28.3551V22.6025Z" fill="#28AF5F"/>
<path d="M28.3551 21.6487H27.3926V22.6025H28.3551V21.6487Z" fill="#28AF5F"/>
<path d="M28.3551 20.6862H27.3926V21.6487H28.3551V20.6862Z" fill="#2ECC71"/>
<path d="M28.3551 19.7225H27.3926V20.685H28.3551V19.7225Z" fill="#28AF5F"/>
<path d="M28.3551 18.77H27.3926V19.7237H28.3551V18.77Z" fill="#28AF5F"/>
<path d="M28.3551 17.8062H27.3926V18.7687H28.3551V17.8062Z" fill="#28AF5F"/>
<path d="M28.3551 16.8538H27.3926V17.8075H28.3551V16.8538Z" fill="#298E52"/>
<path d="M28.3551 15.89H27.3926V16.8525H28.3551V15.89Z" fill="#2ECC71"/>
<path d="M28.3551 14.9388H27.3926V15.8925H28.3551V14.9388Z" fill="#28AF5F"/>
<path d="M28.3551 13.975H27.3926V14.9375H28.3551V13.975Z" fill="#298E52"/>
<path d="M28.3551 12.0587H27.3926V13.0125H28.3551V12.0587Z" fill="#5B5957"/>
<path d="M28.3551 11.0963H27.3926V12.0588H28.3551V11.0963Z" fill="#878481"/>
<path d="M28.3551 10.1425H27.3926V11.0962H28.3551V10.1425Z" fill="#878481"/>
<path d="M27.3937 39.8575H26.4399V40.82H27.3937V39.8575Z" fill="#28AF5F"/>
<path d="M27.3937 38.9037H26.4399V39.8575H27.3937V38.9037Z" fill="#28AF5F"/>
<path d="M27.3937 37.9413H26.4399V38.9038H27.3937V37.9413Z" fill="#28AF5F"/>
<path d="M27.3937 36.9875H26.4399V37.9412H27.3937V36.9875Z" fill="#2ECC71"/>
<path d="M27.3937 36.025H26.4399V36.9875H27.3937V36.025Z" fill="#28AF5F"/>
<path d="M27.3937 35.0612H26.4399V36.0238H27.3937V35.0612Z" fill="#28AF5F"/>
<path d="M27.3937 34.1088H26.4399V35.0625H27.3937V34.1088Z" fill="#2ECC71"/>
<path d="M27.3937 33.145H26.4399V34.1075H27.3937V33.145Z" fill="#2ECC71"/>
<path d="M27.3937 32.1913H26.4399V33.145H27.3937V32.1913Z" fill="#2ECC71"/>
<path d="M27.3937 31.2288H26.4399V32.1913H27.3937V31.2288Z" fill="#2ECC71"/>
<path d="M27.3937 30.2775H26.4399V31.2312H27.3937V30.2775Z" fill="#2ECC71"/>
<path d="M27.3937 29.3125H26.4399V30.275H27.3937V29.3125Z" fill="#2ECC71"/>
<path d="M27.3937 28.35H26.4399V29.3125H27.3937V28.35Z" fill="#2ECC71"/>
<path d="M27.3937 27.3975H26.4399V28.3512H27.3937V27.3975Z" fill="#2ECC71"/>
<path d="M27.3937 26.435H26.4399V27.3975H27.3937V26.435Z" fill="#2ECC71"/>
<path d="M27.3937 25.4813H26.4399V26.435H27.3937V25.4813Z" fill="#28AF5F"/>
<path d="M27.3937 24.5187H26.4399V25.4812H27.3937V24.5187Z" fill="#025624"/>
<path d="M27.3937 23.565H26.4399V24.5188H27.3937V23.565Z" fill="#298E52"/>
<path d="M27.3937 22.6025H26.4399V23.565H27.3937V22.6025Z" fill="#28AF5F"/>
<path d="M27.3937 21.6487H26.4399V22.6025H27.3937V21.6487Z" fill="#2ECC71"/>
<path d="M27.3937 20.6862H26.4399V21.6487H27.3937V20.6862Z" fill="#2ECC71"/>
<path d="M27.3937 19.7225H26.4399V20.685H27.3937V19.7225Z" fill="#2ECC71"/>
<path d="M27.3937 18.77H26.4399V19.7237H27.3937V18.77Z" fill="#28AF5F"/>
<path d="M27.3937 17.8062H26.4399V18.7687H27.3937V17.8062Z" fill="#28AF5F"/>
<path d="M27.3937 16.8538H26.4399V17.8075H27.3937V16.8538Z" fill="#28AF5F"/>
<path d="M27.3937 15.89H26.4399V16.8525H27.3937V15.89Z" fill="#2ECC71"/>
<path d="M27.3937 14.9388H26.4399V15.8925H27.3937V14.9388Z" fill="#2ECC71"/>
<path d="M27.3937 13.975H26.4399V14.9375H27.3937V13.975Z" fill="#28AF5F"/>
<path d="M27.3937 13.0125H26.4399V13.975H27.3937V13.0125Z" fill="#EFAD65"/>
<path d="M27.3937 12.0587H26.4399V13.0125H27.3937V12.0587Z" fill="#5B5957"/>
<path d="M27.3937 11.0963H26.4399V12.0588H27.3937V11.0963Z" fill="#878481"/>
<path d="M27.3937 10.1425H26.4399V11.0962H27.3937V10.1425Z" fill="#878481"/>
<path d="M27.3937 9.17999H26.4399V10.1425H27.3937V9.17999Z" fill="#EFAD65"/>
<path d="M26.4388 39.8575H25.4763V40.82H26.4388V39.8575Z" fill="#28AF5F"/>
<path d="M26.4388 38.9037H25.4763V39.8575H26.4388V38.9037Z" fill="#28AF5F"/>
<path d="M26.4388 37.9413H25.4763V38.9038H26.4388V37.9413Z" fill="#28AF5F"/>
<path d="M26.4388 36.9875H25.4763V37.9412H26.4388V36.9875Z" fill="#28AF5F"/>
<path d="M26.4388 36.025H25.4763V36.9875H26.4388V36.025Z" fill="#2ECC71"/>
<path d="M26.4388 35.0612H25.4763V36.0238H26.4388V35.0612Z" fill="#28AF5F"/>
<path d="M26.4388 34.1088H25.4763V35.0625H26.4388V34.1088Z" fill="#28AF5F"/>
<path d="M26.4388 33.145H25.4763V34.1075H26.4388V33.145Z" fill="#2ECC71"/>
<path d="M26.4388 32.1913H25.4763V33.145H26.4388V32.1913Z" fill="#025624"/>
<path d="M26.4388 31.2288H25.4763V32.1913H26.4388V31.2288Z" fill="#025624"/>
<path d="M26.4388 30.2775H25.4763V31.2312H26.4388V30.2775Z" fill="#025624"/>
<path d="M26.4388 29.3125H25.4763V30.275H26.4388V29.3125Z" fill="#2ECC71"/>
<path d="M26.4388 28.35H25.4763V29.3125H26.4388V28.35Z" fill="#2ECC71"/>
<path d="M26.4388 27.3975H25.4763V28.3512H26.4388V27.3975Z" fill="#2ECC71"/>
<path d="M26.4388 26.435H25.4763V27.3975H26.4388V26.435Z" fill="#2ECC71"/>
<path d="M26.4388 25.4813H25.4763V26.435H26.4388V25.4813Z" fill="#28AF5F"/>
<path d="M26.4388 24.5187H25.4763V25.4812H26.4388V24.5187Z" fill="#025624"/>
<path d="M26.4388 23.565H25.4763V24.5188H26.4388V23.565Z" fill="#28AF5F"/>
<path d="M26.4388 22.6025H25.4763V23.565H26.4388V22.6025Z" fill="#28AF5F"/>
<path d="M26.4388 21.6487H25.4763V22.6025H26.4388V21.6487Z" fill="#28AF5F"/>
<path d="M26.4388 20.6862H25.4763V21.6487H26.4388V20.6862Z" fill="#28AF5F"/>
<path d="M26.4388 19.7225H25.4763V20.685H26.4388V19.7225Z" fill="#2ECC71"/>
<path d="M26.4388 18.77H25.4763V19.7237H26.4388V18.77Z" fill="#2ECC71"/>
<path d="M26.4388 17.8062H25.4763V18.7687H26.4388V17.8062Z" fill="#2ECC71"/>
<path d="M26.4388 16.8538H25.4763V17.8075H26.4388V16.8538Z" fill="#2ECC71"/>
<path d="M26.4388 15.89H25.4763V16.8525H26.4388V15.89Z" fill="#2ECC71"/>
<path d="M26.4388 14.9388H25.4763V15.8925H26.4388V14.9388Z" fill="#28AF5F"/>
<path d="M26.4388 13.975H25.4763V14.9375H26.4388V13.975Z" fill="#EFAD65"/>
<path d="M26.4388 13.0125H25.4763V13.975H26.4388V13.0125Z" fill="#EFAD65"/>
<path d="M26.4388 12.0587H25.4763V13.0125H26.4388V12.0587Z" fill="#EFAD65"/>
<path d="M26.4388 11.0963H25.4763V12.0588H26.4388V11.0963Z" fill="#5B5957"/>
<path d="M26.4388 10.1425H25.4763V11.0962H26.4388V10.1425Z" fill="#878481"/>
<path d="M26.4388 9.17999H25.4763V10.1425H26.4388V9.17999Z" fill="#EFAD65"/>
<path d="M25.4774 39.8575H24.5237V40.82H25.4774V39.8575Z" fill="#28AF5F"/>
<path d="M25.4774 38.9037H24.5237V39.8575H25.4774V38.9037Z" fill="#28AF5F"/>
<path d="M25.4774 37.9413H24.5237V38.9038H25.4774V37.9413Z" fill="#28AF5F"/>
<path d="M25.4774 36.9875H24.5237V37.9412H25.4774V36.9875Z" fill="#28AF5F"/>
<path d="M25.4774 36.025H24.5237V36.9875H25.4774V36.025Z" fill="#2ECC71"/>
<path d="M25.4774 35.0612H24.5237V36.0238H25.4774V35.0612Z" fill="#28AF5F"/>
<path d="M25.4774 34.1088H24.5237V35.0625H25.4774V34.1088Z" fill="#28AF5F"/>
<path d="M25.4774 33.145H24.5237V34.1075H25.4774V33.145Z" fill="#2ECC71"/>
<path d="M25.4774 32.1913H24.5237V33.145H25.4774V32.1913Z" fill="#2ECC71"/>
<path d="M25.4774 31.2288H24.5237V32.1913H25.4774V31.2288Z" fill="#2ECC71"/>
<path d="M25.4774 30.2775H24.5237V31.2312H25.4774V30.2775Z" fill="#2ECC71"/>
<path d="M25.4774 29.3125H24.5237V30.275H25.4774V29.3125Z" fill="#025624"/>
<path d="M25.4774 28.35H24.5237V29.3125H25.4774V28.35Z" fill="#025624"/>
<path d="M25.4774 27.3975H24.5237V28.3512H25.4774V27.3975Z" fill="#025624"/>
<path d="M25.4774 26.435H24.5237V27.3975H25.4774V26.435Z" fill="#025624"/>
<path d="M25.4774 25.4813H24.5237V26.435H25.4774V25.4813Z" fill="#28AF5F"/>
<path d="M25.4774 24.5187H24.5237V25.4812H25.4774V24.5187Z" fill="#025624"/>
<path d="M25.4774 23.565H24.5237V24.5188H25.4774V23.565Z" fill="#28AF5F"/>
<path d="M25.4774 22.6025H24.5237V23.565H25.4774V22.6025Z" fill="#28AF5F"/>
<path d="M25.4774 21.6487H24.5237V22.6025H25.4774V21.6487Z" fill="#28AF5F"/>
<path d="M25.4774 20.6862H24.5237V21.6487H25.4774V20.6862Z" fill="#28AF5F"/>
<path d="M25.4774 19.7225H24.5237V20.685H25.4774V19.7225Z" fill="#28AF5F"/>
<path d="M25.4774 18.77H24.5237V19.7237H25.4774V18.77Z" fill="#2ECC71"/>
<path d="M25.4774 17.8062H24.5237V18.7687H25.4774V17.8062Z" fill="#2ECC71"/>
<path d="M25.4774 16.8538H24.5237V17.8075H25.4774V16.8538Z" fill="#2ECC71"/>
<path d="M25.4774 15.89H24.5237V16.8525H25.4774V15.89Z" fill="#2ECC71"/>
<path d="M25.4774 14.9388H24.5237V15.8925H25.4774V14.9388Z" fill="#28AF5F"/>
<path d="M25.4774 13.975H24.5237V14.9375H25.4774V13.975Z" fill="#EFAD65"/>
<path d="M25.4774 13.0125H24.5237V13.975H25.4774V13.0125Z" fill="#EFAD65"/>
<path d="M25.4774 12.0587H24.5237V13.0125H25.4774V12.0587Z" fill="#EFAD65"/>
<path d="M25.4774 11.0963H24.5237V12.0588H25.4774V11.0963Z" fill="#EFAD65"/>
<path d="M25.4774 10.1425H24.5237V11.0962H25.4774V10.1425Z" fill="#EFAD65"/>
<path d="M25.4774 9.17999H24.5237V10.1425H25.4774V9.17999Z" fill="#EFAD65"/>
<path d="M24.5226 39.8575H23.5601V40.82H24.5226V39.8575Z" fill="#28AF5F"/>
<path d="M24.5226 38.9037H23.5601V39.8575H24.5226V38.9037Z" fill="#28AF5F"/>
<path d="M24.5226 37.9413H23.5601V38.9038H24.5226V37.9413Z" fill="#28AF5F"/>
<path d="M24.5226 36.9875H23.5601V37.9412H24.5226V36.9875Z" fill="#28AF5F"/>
<path d="M24.5226 36.025H23.5601V36.9875H24.5226V36.025Z" fill="#28AF5F"/>
<path d="M24.5226 35.0612H23.5601V36.0238H24.5226V35.0612Z" fill="#2ECC71"/>
<path d="M24.5226 34.1088H23.5601V35.0625H24.5226V34.1088Z" fill="#28AF5F"/>
<path d="M24.5226 33.145H23.5601V34.1075H24.5226V33.145Z" fill="#2ECC71"/>
<path d="M24.5226 32.1913H23.5601V33.145H24.5226V32.1913Z" fill="#2ECC71"/>
<path d="M24.5226 31.2288H23.5601V32.1913H24.5226V31.2288Z" fill="#2ECC71"/>
<path d="M24.5226 30.2775H23.5601V31.2312H24.5226V30.2775Z" fill="#2ECC71"/>
<path d="M24.5226 29.3125H23.5601V30.275H24.5226V29.3125Z" fill="#2ECC71"/>
<path d="M24.5226 28.35H23.5601V29.3125H24.5226V28.35Z" fill="#2ECC71"/>
<path d="M24.5226 27.3975H23.5601V28.3512H24.5226V27.3975Z" fill="#2ECC71"/>
<path d="M24.5226 26.435H23.5601V27.3975H24.5226V26.435Z" fill="#28AF5F"/>
<path d="M24.5226 25.4813H23.5601V26.435H24.5226V25.4813Z" fill="#025624"/>
<path d="M24.5226 24.5187H23.5601V25.4812H24.5226V24.5187Z" fill="#025624"/>
<path d="M24.5226 23.565H23.5601V24.5188H24.5226V23.565Z" fill="#28AF5F"/>
<path d="M24.5226 22.6025H23.5601V23.565H24.5226V22.6025Z" fill="#28AF5F"/>
<path d="M24.5226 21.6487H23.5601V22.6025H24.5226V21.6487Z" fill="#28AF5F"/>
<path d="M24.5226 20.6862H23.5601V21.6487H24.5226V20.6862Z" fill="#28AF5F"/>
<path d="M24.5226 19.7225H23.5601V20.685H24.5226V19.7225Z" fill="#28AF5F"/>
<path d="M24.5226 18.77H23.5601V19.7237H24.5226V18.77Z" fill="#28AF5F"/>
<path d="M24.5226 17.8062H23.5601V18.7687H24.5226V17.8062Z" fill="#2ECC71"/>
<path d="M24.5226 16.8538H23.5601V17.8075H24.5226V16.8538Z" fill="#2ECC71"/>
<path d="M24.5226 15.89H23.5601V16.8525H24.5226V15.89Z" fill="#2ECC71"/>
<path d="M24.5226 14.9388H23.5601V15.8925H24.5226V14.9388Z" fill="#28AF5F"/>
<path d="M24.5226 13.975H23.5601V14.9375H24.5226V13.975Z" fill="#EFAD65"/>
<path d="M24.5226 13.0125H23.5601V13.975H24.5226V13.0125Z" fill="#EFAD65"/>
<path d="M24.5226 12.0587H23.5601V13.0125H24.5226V12.0587Z" fill="#EFAD65"/>
<path d="M24.5226 11.0963H23.5601V12.0588H24.5226V11.0963Z" fill="#EFAD65"/>
<path d="M24.5226 10.1425H23.5601V11.0962H24.5226V10.1425Z" fill="#EFAD65"/>
<path d="M24.5226 9.17999H23.5601V10.1425H24.5226V9.17999Z" fill="#EFAD65"/>
<path d="M23.5599 39.8575H22.5974V40.82H23.5599V39.8575Z" fill="#28AF5F"/>
<path d="M23.5599 38.9037H22.5974V39.8575H23.5599V38.9037Z" fill="#28AF5F"/>
<path d="M23.5599 37.9413H22.5974V38.9038H23.5599V37.9413Z" fill="#28AF5F"/>
<path d="M23.5599 36.9875H22.5974V37.9412H23.5599V36.9875Z" fill="#28AF5F"/>
<path d="M23.5599 36.025H22.5974V36.9875H23.5599V36.025Z" fill="#28AF5F"/>
<path d="M23.5599 35.0612H22.5974V36.0238H23.5599V35.0612Z" fill="#2ECC71"/>
<path d="M23.5599 34.1088H22.5974V35.0625H23.5599V34.1088Z" fill="#28AF5F"/>
<path d="M23.5599 33.145H22.5974V34.1075H23.5599V33.145Z" fill="#2ECC71"/>
<path d="M23.5599 32.1913H22.5974V33.145H23.5599V32.1913Z" fill="#025624"/>
<path d="M23.5599 31.2288H22.5974V32.1913H23.5599V31.2288Z" fill="#025624"/>
<path d="M23.5599 30.2775H22.5974V31.2312H23.5599V30.2775Z" fill="#025624"/>
<path d="M23.5599 29.3125H22.5974V30.275H23.5599V29.3125Z" fill="#025624"/>
<path d="M23.5599 28.35H22.5974V29.3125H23.5599V28.35Z" fill="#025624"/>
<path d="M23.5599 27.3975H22.5974V28.3512H23.5599V27.3975Z" fill="#025624"/>
<path d="M23.5599 26.435H22.5974V27.3975H23.5599V26.435Z" fill="#025624"/>
<path d="M23.5599 25.4813H22.5974V26.435H23.5599V25.4813Z" fill="#28AF5F"/>
<path d="M23.5599 24.5187H22.5974V25.4812H23.5599V24.5187Z" fill="#28AF5F"/>
<path d="M23.5599 23.565H22.5974V24.5188H23.5599V23.565Z" fill="#025624"/>
<path d="M23.5599 22.6025H22.5974V23.565H23.5599V22.6025Z" fill="#2ECC71"/>
<path d="M23.5599 21.6487H22.5974V22.6025H23.5599V21.6487Z" fill="#2ECC71"/>
<path d="M23.5599 20.6862H22.5974V21.6487H23.5599V20.6862Z" fill="#2ECC71"/>
<path d="M23.5599 19.7225H22.5974V20.685H23.5599V19.7225Z" fill="#2ECC71"/>
<path d="M23.5599 18.77H22.5974V19.7237H23.5599V18.77Z" fill="#2ECC71"/>
<path d="M23.5599 17.8062H22.5974V18.7687H23.5599V17.8062Z" fill="#2ECC71"/>
<path d="M23.5599 16.8538H22.5974V17.8075H23.5599V16.8538Z" fill="#2ECC71"/>
<path d="M23.5599 15.89H22.5974V16.8525H23.5599V15.89Z" fill="#28AF5F"/>
<path d="M23.5599 14.9388H22.5974V15.8925H23.5599V14.9388Z" fill="#28AF5F"/>
<path d="M23.5599 13.975H22.5974V14.9375H23.5599V13.975Z" fill="#EFAD65"/>
<path d="M23.5599 13.0125H22.5974V13.975H23.5599V13.0125Z" fill="#EA8634"/>
<path d="M23.5599 12.0587H22.5974V13.0125H23.5599V12.0587Z" fill="#EA8634"/>
<path d="M23.5599 11.0963H22.5974V12.0588H23.5599V11.0963Z" fill="#EFAD65"/>
<path d="M23.5599 10.1425H22.5974V11.0962H23.5599V10.1425Z" fill="#EFAD65"/>
<path d="M22.5975 39.8575H21.6438V40.82H22.5975V39.8575Z" fill="#28AF5F"/>
<path d="M22.5975 38.9037H21.6438V39.8575H22.5975V38.9037Z" fill="#28AF5F"/>
<path d="M22.5975 37.9413H21.6438V38.9038H22.5975V37.9413Z" fill="#28AF5F"/>
<path d="M22.5975 36.9875H21.6438V37.9412H22.5975V36.9875Z" fill="#28AF5F"/>
<path d="M22.5975 36.025H21.6438V36.9875H22.5975V36.025Z" fill="#28AF5F"/>
<path d="M22.5975 35.0612H21.6438V36.0238H22.5975V35.0612Z" fill="#28AF5F"/>
<path d="M22.5975 34.1088H21.6438V35.0625H22.5975V34.1088Z" fill="#28AF5F"/>
<path d="M22.5975 33.145H21.6438V34.1075H22.5975V33.145Z" fill="#28AF5F"/>
<path d="M22.5975 32.1913H21.6438V33.145H22.5975V32.1913Z" fill="#28AF5F"/>
<path d="M22.5975 31.2288H21.6438V32.1913H22.5975V31.2288Z" fill="#2ECC71"/>
<path d="M22.5975 30.2775H21.6438V31.2312H22.5975V30.2775Z" fill="#2ECC71"/>
<path d="M22.5975 29.3125H21.6438V30.275H22.5975V29.3125Z" fill="#2ECC71"/>
<path d="M22.5975 28.35H21.6438V29.3125H22.5975V28.35Z" fill="#2ECC71"/>
<path d="M22.5975 27.3975H21.6438V28.3512H22.5975V27.3975Z" fill="#28AF5F"/>
<path d="M22.5975 22.6025H21.6438V23.565H22.5975V22.6025Z" fill="#28AF5F"/>
<path d="M22.5975 21.6487H21.6438V22.6025H22.5975V21.6487Z" fill="#2ECC71"/>
<path d="M22.5975 20.6862H21.6438V21.6487H22.5975V20.6862Z" fill="#2ECC71"/>
<path d="M22.5975 19.7225H21.6438V20.685H22.5975V19.7225Z" fill="#2ECC71"/>
<path d="M22.5975 18.77H21.6438V19.7237H22.5975V18.77Z" fill="#28AF5F"/>
<path d="M22.5975 17.8062H21.6438V18.7687H22.5975V17.8062Z" fill="#28AF5F"/>
<path d="M22.5975 16.8538H21.6438V17.8075H22.5975V16.8538Z" fill="#28AF5F"/>
<path d="M21.6437 39.8575H20.6812V40.82H21.6437V39.8575Z" fill="#28AF5F"/>
<path d="M21.6437 38.9037H20.6812V39.8575H21.6437V38.9037Z" fill="#28AF5F"/>
<path d="M21.6437 37.9413H20.6812V38.9038H21.6437V37.9413Z" fill="#28AF5F"/>
<path d="M21.6437 36.9875H20.6812V37.9412H21.6437V36.9875Z" fill="#28AF5F"/>
<path d="M21.6437 36.025H20.6812V36.9875H21.6437V36.025Z" fill="#28AF5F"/>
<path d="M21.6437 35.0612H20.6812V36.0238H21.6437V35.0612Z" fill="#28AF5F"/>
<path d="M21.6437 34.1088H20.6812V35.0625H21.6437V34.1088Z" fill="#2ECC71"/>
<path d="M21.6437 33.145H20.6812V34.1075H21.6437V33.145Z" fill="#2ECC71"/>
<path d="M21.6437 32.1913H20.6812V33.145H21.6437V32.1913Z" fill="#2ECC71"/>
<path d="M21.6437 31.2288H20.6812V32.1913H21.6437V31.2288Z" fill="#2ECC71"/>
<path d="M21.6437 30.2775H20.6812V31.2312H21.6437V30.2775Z" fill="#2ECC71"/>
<path d="M21.6437 29.3125H20.6812V30.275H21.6437V29.3125Z" fill="#28AF5F"/>
<path d="M21.6437 28.35H20.6812V29.3125H21.6437V28.35Z" fill="#28AF5F"/>
<path d="M21.6437 22.6025H20.6812V23.565H21.6437V22.6025Z" fill="#28AF5F"/>
<path d="M21.6437 21.6487H20.6812V22.6025H21.6437V21.6487Z" fill="#28AF5F"/>
<path d="M21.6437 20.6862H20.6812V21.6487H21.6437V20.6862Z" fill="#28AF5F"/>
<path d="M21.6437 19.7225H20.6812V20.685H21.6437V19.7225Z" fill="#28AF5F"/>
<path d="M21.6437 18.77H20.6812V19.7237H21.6437V18.77Z" fill="#28AF5F"/>
<path d="M20.6813 39.8575H19.7275V40.82H20.6813V39.8575Z" fill="#28AF5F"/>
<path d="M20.6813 38.9037H19.7275V39.8575H20.6813V38.9037Z" fill="#2ECC71"/>
<path d="M20.6813 37.9413H19.7275V38.9038H20.6813V37.9413Z" fill="#2ECC71"/>
<path d="M20.6813 36.9875H19.7275V37.9412H20.6813V36.9875Z" fill="#2ECC71"/>
<path d="M20.6813 36.025H19.7275V36.9875H20.6813V36.025Z" fill="#2ECC71"/>
<path d="M20.6813 35.0612H19.7275V36.0238H20.6813V35.0612Z" fill="#2ECC71"/>
<path d="M20.6813 34.1088H19.7275V35.0625H20.6813V34.1088Z" fill="#2ECC71"/>
<path d="M20.6813 33.145H19.7275V34.1075H20.6813V33.145Z" fill="#2ECC71"/>
<path d="M20.6813 32.1913H19.7275V33.145H20.6813V32.1913Z" fill="#28AF5F"/>
<path d="M20.6813 31.2288H19.7275V32.1913H20.6813V31.2288Z" fill="#28AF5F"/>
<path d="M20.6813 30.2775H19.7275V31.2312H20.6813V30.2775Z" fill="#28AF5F"/>
<path d="M20.6813 23.565H19.7275V24.5188H20.6813V23.565Z" fill="#28AF5F"/>
<path d="M20.6813 22.6025H19.7275V23.565H20.6813V22.6025Z" fill="#28AF5F"/>
<path d="M20.6813 21.6487H19.7275V22.6025H20.6813V21.6487Z" fill="#28AF5F"/>
<path d="M20.6813 20.6862H19.7275V21.6487H20.6813V20.6862Z" fill="#28AF5F"/>
<path d="M19.7274 39.8575H18.7649V40.82H19.7274V39.8575Z" fill="#28AF5F"/>
<path d="M19.7274 38.9037H18.7649V39.8575H19.7274V38.9037Z" fill="#28AF5F"/>
<path d="M19.7274 37.9413H18.7649V38.9038H19.7274V37.9413Z" fill="#28AF5F"/>
<path d="M19.7274 36.9875H18.7649V37.9412H19.7274V36.9875Z" fill="#28AF5F"/>
<path d="M19.7274 36.025H18.7649V36.9875H19.7274V36.025Z" fill="#28AF5F"/>
<path d="M19.7274 35.0612H18.7649V36.0238H19.7274V35.0612Z" fill="#28AF5F"/>
<path d="M19.7274 34.1088H18.7649V35.0625H19.7274V34.1088Z" fill="#28AF5F"/>
<path d="M19.7274 33.145H18.7649V34.1075H19.7274V33.145Z" fill="#28AF5F"/>
<path d="M19.7274 32.1913H18.7649V33.145H19.7274V32.1913Z" fill="#28AF5F"/>
<path d="M19.7274 23.565H18.7649V24.5188H19.7274V23.565Z" fill="#EFAD65"/>
<path d="M19.7274 22.6025H18.7649V23.565H19.7274V22.6025Z" fill="#EFAD65"/>
<path d="M19.7274 21.6487H18.7649V22.6025H19.7274V21.6487Z" fill="#EFAD65"/>
<path d="M19.7274 20.6862H18.7649V21.6487H19.7274V20.6862Z" fill="#28AF5F"/>
<path d="M18.7663 23.565H17.8125V24.5188H18.7663V23.565Z" fill="#EFAD65"/>
<path d="M18.7663 22.6025H17.8125V23.565H18.7663V22.6025Z" fill="#EFAD65"/>
<path d="M18.7663 21.6487H17.8125V22.6025H18.7663V21.6487Z" fill="#EFAD65"/>
<path d="M17.8126 22.6025H16.8501V23.565H17.8126V22.6025Z" fill="#EFAD65"/>
<path d="M17.8126 21.6487H16.8501V22.6025H17.8126V21.6487Z" fill="#EFAD65"/>
<path d="M17.8126 20.6862H16.8501V21.6487H17.8126V20.6862Z" fill="#EFAD65"/>
<path d="M17.8126 13.0125H16.8501V13.975H17.8126V13.0125Z" fill="#5E320A"/>
<path d="M17.8126 12.0587H16.8501V13.0125H17.8126V12.0587Z" fill="#5E320A"/>
<path d="M17.8126 11.0963H16.8501V12.0588H17.8126V11.0963Z" fill="#5E320A"/>
<path d="M17.8126 10.1425H16.8501V11.0962H17.8126V10.1425Z" fill="#5E320A"/>
<path d="M16.85 36.9875H15.8875V37.9412H16.85V36.9875Z" fill="#492807"/>
<path d="M16.85 36.025H15.8875V36.9875H16.85V36.025Z" fill="#492807"/>
<path d="M16.85 35.0612H15.8875V36.0238H16.85V35.0612Z" fill="#492807"/>
<path d="M16.85 34.1088H15.8875V35.0625H16.85V34.1088Z" fill="#492807"/>
<path d="M16.85 33.145H15.8875V34.1075H16.85V33.145Z" fill="#492807"/>
<path d="M16.85 32.1913H15.8875V33.145H16.85V32.1913Z" fill="#492807"/>
<path d="M16.85 31.2288H15.8875V32.1913H16.85V31.2288Z" fill="#492807"/>
<path d="M16.85 30.2775H15.8875V31.2312H16.85V30.2775Z" fill="#492807"/>
<path d="M16.85 29.3125H15.8875V30.275H16.85V29.3125Z" fill="#492807"/>
<path d="M16.85 28.35H15.8875V29.3125H16.85V28.35Z" fill="#492807"/>
<path d="M16.85 27.3975H15.8875V28.3512H16.85V27.3975Z" fill="#492807"/>
<path d="M16.85 26.435H15.8875V27.3975H16.85V26.435Z" fill="#492807"/>
<path d="M16.85 25.4813H15.8875V26.435H16.85V25.4813Z" fill="#492807"/>
<path d="M16.85 24.5187H15.8875V25.4812H16.85V24.5187Z" fill="#492807"/>
<path d="M16.85 23.565H15.8875V24.5188H16.85V23.565Z" fill="#492807"/>
<path d="M16.85 22.6025H15.8875V23.565H16.85V22.6025Z" fill="#EFAD65"/>
<path d="M16.85 21.6487H15.8875V22.6025H16.85V21.6487Z" fill="#EFAD65"/>
<path d="M16.85 20.6862H15.8875V21.6487H16.85V20.6862Z" fill="#EFAD65"/>
<path d="M16.85 19.7225H15.8875V20.685H16.85V19.7225Z" fill="#492807"/>
<path d="M16.85 18.77H15.8875V19.7237H16.85V18.77Z" fill="#492807"/>
<path d="M16.85 17.8062H15.8875V18.7687H16.85V17.8062Z" fill="#492807"/>
<path d="M16.85 16.8538H15.8875V17.8075H16.85V16.8538Z" fill="#492807"/>
<path d="M16.85 15.89H15.8875V16.8525H16.85V15.89Z" fill="#492807"/>
<path d="M16.85 14.9388H15.8875V15.8925H16.85V14.9388Z" fill="#492807"/>
<path d="M16.85 13.975H15.8875V14.9375H16.85V13.975Z" fill="#492807"/>
<path d="M16.85 13.0125H15.8875V13.975H16.85V13.0125Z" fill="#5E320A"/>
<path d="M16.85 12.0587H15.8875V13.0125H16.85V12.0587Z" fill="#723B0E"/>
<path d="M16.85 11.0963H15.8875V12.0588H16.85V11.0963Z" fill="#723B0E"/>
<path d="M15.8876 21.6487H14.9338V22.6025H15.8876V21.6487Z" fill="#EFAD65"/>
<path d="M15.8876 20.6862H14.9338V21.6487H15.8876V20.6862Z" fill="#EFAD65"/>
<path d="M15.8876 13.975H14.9338V14.9375H15.8876V13.975Z" fill="#5E320A"/>
<path d="M15.8876 13.0125H14.9338V13.975H15.8876V13.0125Z" fill="#723B0E"/>
<path d="M15.8876 12.0587H14.9338V13.0125H15.8876V12.0587Z" fill="#84400D"/>
</g>
<defs>
<clipPath id="clip0_69_12158">
<rect width="50" height="50" fill="white"/>
</clipPath>
</defs>
</svg>
