<svg width="50" height="50" viewBox="0 0 50 50" fill="none" xmlns="http://www.w3.org/2000/svg">
<g clip-path="url(#clip0_69_12155)">
<path d="M24.9998 48.2225C37.8253 48.2225 48.2223 37.8254 48.2223 25C48.2223 12.1746 37.8253 1.7775 24.9998 1.7775C12.1744 1.7775 1.77734 12.1746 1.77734 25C1.77734 37.8254 12.1744 48.2225 24.9998 48.2225Z" fill="black"/>
<path d="M24.9998 49.0975C11.7123 49.0975 0.902344 38.2875 0.902344 25C0.902344 11.7125 11.7123 0.902496 24.9998 0.902496C38.2873 0.902496 49.0973 11.7125 49.0973 25C49.0973 38.2875 38.2873 49.0975 24.9998 49.0975ZM24.9998 2.6525C12.6773 2.6525 2.65234 12.6775 2.65234 25C2.65234 37.3225 12.6773 47.3475 24.9998 47.3475C37.3223 47.3475 47.3473 37.3225 47.3473 25C47.3473 12.6775 37.3223 2.6525 24.9998 2.6525Z" fill="#455360"/>
<path d="M39.4192 29.5963H38.6392V30.3688H39.4192V29.5963Z" fill="#455360"/>
<path d="M39.4192 28.8163H38.6392V29.5963H39.4192V28.8163Z" fill="#455360"/>
<path d="M39.4192 28.0363H38.6392V28.8163H39.4192V28.0363Z" fill="#455360"/>
<path d="M39.4192 27.2625H38.6392V28.035H39.4192V27.2625Z" fill="#455360"/>
<path d="M38.6392 30.37H37.8667V31.15H38.6392V30.37Z" fill="#455379"/>
<path d="M38.6392 26.4825H37.8667V27.2625H38.6392V26.4825Z" fill="black"/>
<path d="M37.8664 29.5963H37.0864V30.3688H37.8664V29.5963Z" fill="#455360"/>
<path d="M37.8664 28.8163H37.0864V29.5963H37.8664V28.8163Z" fill="#455360"/>
<path d="M37.8664 28.0363H37.0864V28.8163H37.8664V28.0363Z" fill="#455360"/>
<path d="M37.8664 27.2625H37.0864V28.035H37.8664V27.2625Z" fill="black"/>
<path d="M37.8664 26.4825H37.0864V27.2625H37.8664V26.4825Z" fill="black"/>
<path d="M37.8664 25.71H37.0864V26.4825H37.8664V25.71Z" fill="black"/>
<path d="M37.0866 30.37H36.3066V31.15H37.0866V30.37Z" fill="#455379"/>
<path d="M37.0866 27.2625H36.3066V28.035H37.0866V27.2625Z" fill="black"/>
<path d="M37.0866 26.4825H36.3066V27.2625H37.0866V26.4825Z" fill="black"/>
<path d="M37.0866 25.71H36.3066V26.4825H37.0866V25.71Z" fill="black"/>
<path d="M36.305 26.4825H35.5312V27.2625H36.305V26.4825Z" fill="black"/>
<path d="M36.305 25.71H35.5312V26.4825H36.305V25.71Z" fill="black"/>
<path d="M35.5329 28.8163H34.7529V29.5963H35.5329V28.8163Z" fill="#455360"/>
<path d="M35.5329 28.0363H34.7529V28.8163H35.5329V28.0363Z" fill="#455360"/>
<path d="M35.5329 27.2625H34.7529V28.035H35.5329V27.2625Z" fill="#455360"/>
<path d="M35.5329 26.4825H34.7529V27.2625H35.5329V26.4825Z" fill="black"/>
<path d="M35.5329 25.71H34.7529V26.4825H35.5329V25.71Z" fill="black"/>
<path d="M35.5329 24.9288H34.7529V25.7088H35.5329V24.9288Z" fill="black"/>
<path d="M35.5329 24.1562H34.7529V24.9287H35.5329V24.1562Z" fill="black"/>
<path d="M35.5329 23.3763H34.7529V24.1563H35.5329V23.3763Z" fill="black"/>
<path d="M34.7515 29.5963H33.979V30.3688H34.7515V29.5963Z" fill="#455379"/>
<path d="M34.7515 25.71H33.979V26.4825H34.7515V25.71Z" fill="black"/>
<path d="M34.7515 24.9288H33.979V25.7088H34.7515V24.9288Z" fill="#2D1212"/>
<path d="M34.7515 24.1562H33.979V24.9287H34.7515V24.1562Z" fill="#2D1212"/>
<path d="M34.7515 23.3763H33.979V24.1563H34.7515V23.3763Z" fill="#2D1212"/>
<path d="M34.7515 22.6038H33.979V23.3763H34.7515V22.6038Z" fill="black"/>
<path d="M34.7515 21.8225H33.979V22.6025H34.7515V21.8225Z" fill="black"/>
<path d="M34.7515 21.0425H33.979V21.8225H34.7515V21.0425Z" fill="black"/>
<path d="M33.9792 24.9288H33.1992V25.7088H33.9792V24.9288Z" fill="black"/>
<path d="M33.9792 24.1562H33.1992V24.9287H33.9792V24.1562Z" fill="#2D1212"/>
<path d="M33.9792 23.3763H33.1992V24.1563H33.9792V23.3763Z" fill="#2D1212"/>
<path d="M33.9792 22.6038H33.1992V23.3763H33.9792V22.6038Z" fill="#2D1212"/>
<path d="M33.9792 21.8225H33.1992V22.6025H33.9792V21.8225Z" fill="#2D1212"/>
<path d="M33.9792 21.0425H33.1992V21.8225H33.9792V21.0425Z" fill="#2D1212"/>
<path d="M33.9792 20.27H33.1992V21.0425H33.9792V20.27Z" fill="black"/>
<path d="M33.1988 24.1562H32.4263V24.9287H33.1988V24.1562Z" fill="black"/>
<path d="M33.1988 23.3763H32.4263V24.1563H33.1988V23.3763Z" fill="#2D1212"/>
<path d="M33.1988 22.6038H32.4263V23.3763H33.1988V22.6038Z" fill="#2D1212"/>
<path d="M33.1988 21.8225H32.4263V22.6025H33.1988V21.8225Z" fill="#2D1212"/>
<path d="M33.1988 21.0425H32.4263V21.8225H33.1988V21.0425Z" fill="#2D1212"/>
<path d="M33.1988 20.27H32.4263V21.0425H33.1988V20.27Z" fill="#2D1212"/>
<path d="M33.1988 19.4888H32.4263V20.2688H33.1988V19.4888Z" fill="black"/>
<path d="M32.425 39.6963H31.645V40.4688H32.425V39.6963Z" fill="#CE0505"/>
<path d="M32.425 38.9175H31.645V39.6975H32.425V38.9175Z" fill="#CE0505"/>
<path d="M32.425 38.1425H31.645V38.9163H32.425V38.1425Z" fill="#CE0505"/>
<path d="M32.425 37.3638H31.645V38.1438H32.425V37.3638Z" fill="#E80C0C"/>
<path d="M32.425 36.59H31.645V37.3625H32.425V36.59Z" fill="#E80C0C"/>
<path d="M32.425 35.81H31.645V36.59H32.425V35.81Z" fill="#E80C0C"/>
<path d="M32.425 35.0375H31.645V35.81H32.425V35.0375Z" fill="black"/>
<path d="M32.425 33.4763H31.645V34.2563H32.425V33.4763Z" fill="black"/>
<path d="M32.425 32.7025H31.645V33.4763H32.425V32.7025Z" fill="black"/>
<path d="M32.425 26.4825H31.645V27.2625H32.425V26.4825Z" fill="black"/>
<path d="M32.425 25.71H31.645V26.4825H32.425V25.71Z" fill="black"/>
<path d="M32.425 24.9288H31.645V25.7088H32.425V24.9288Z" fill="black"/>
<path d="M32.425 24.1562H31.645V24.9287H32.425V24.1562Z" fill="black"/>
<path d="M32.425 23.3763H31.645V24.1563H32.425V23.3763Z" fill="black"/>
<path d="M32.425 22.6038H31.645V23.3763H32.425V22.6038Z" fill="#2D1212"/>
<path d="M32.425 21.8225H31.645V22.6025H32.425V21.8225Z" fill="#2D1212"/>
<path d="M32.425 21.0425H31.645V21.8225H32.425V21.0425Z" fill="#2D1212"/>
<path d="M32.425 20.27H31.645V21.0425H32.425V20.27Z" fill="#2D1212"/>
<path d="M32.425 19.4888H31.645V20.2688H32.425V19.4888Z" fill="black"/>
<path d="M32.425 17.935H31.645V18.715H32.425V17.935Z" fill="black"/>
<path d="M32.425 17.1625H31.645V17.935H32.425V17.1625Z" fill="black"/>
<path d="M32.425 16.3825H31.645V17.1625H32.425V16.3825Z" fill="black"/>
<path d="M32.425 15.6013H31.645V16.3813H32.425V15.6013Z" fill="black"/>
<path d="M32.425 14.8288H31.645V15.6013H32.425V14.8288Z" fill="black"/>
<path d="M31.6452 36.59H30.8652V37.3625H31.6452V36.59Z" fill="#E80C0C"/>
<path d="M31.6452 35.81H30.8652V36.59H31.6452V35.81Z" fill="#E80C0C"/>
<path d="M31.6452 35.0375H30.8652V35.81H31.6452V35.0375Z" fill="#FF0000"/>
<path d="M31.6452 34.2563H30.8652V35.0363H31.6452V34.2563Z" fill="black"/>
<path d="M31.6452 33.4763H30.8652V34.2563H31.6452V33.4763Z" fill="#2D1212"/>
<path d="M31.6452 32.7025H30.8652V33.4763H31.6452V32.7025Z" fill="black"/>
<path d="M31.6452 31.9238H30.8652V32.7038H31.6452V31.9238Z" fill="black"/>
<path d="M31.6452 31.15H30.8652V31.9225H31.6452V31.15Z" fill="black"/>
<path d="M31.6452 30.37H30.8652V31.15H31.6452V30.37Z" fill="black"/>
<path d="M31.6452 29.5963H30.8652V30.3688H31.6452V29.5963Z" fill="black"/>
<path d="M31.6452 22.6038H30.8652V23.3763H31.6452V22.6038Z" fill="black"/>
<path d="M31.6452 21.8225H30.8652V22.6025H31.6452V21.8225Z" fill="#2D1212"/>
<path d="M31.6452 21.0425H30.8652V21.8225H31.6452V21.0425Z" fill="#2D1212"/>
<path d="M31.6452 20.27H30.8652V21.0425H31.6452V20.27Z" fill="#2D1212"/>
<path d="M31.6452 19.4888H30.8652V20.2688H31.6452V19.4888Z" fill="#2D1212"/>
<path d="M31.6452 18.7162H30.8652V19.4887H31.6452V18.7162Z" fill="black"/>
<path d="M31.6452 17.1625H30.8652V17.935H31.6452V17.1625Z" fill="black"/>
<path d="M31.6452 16.3825H30.8652V17.1625H31.6452V16.3825Z" fill="#2D1212"/>
<path d="M31.6452 15.6013H30.8652V16.3813H31.6452V15.6013Z" fill="#2D1212"/>
<path d="M31.6452 14.8288H30.8652V15.6013H31.6452V14.8288Z" fill="#2D1212"/>
<path d="M31.6452 14.0488H30.8652V14.8288H31.6452V14.0488Z" fill="black"/>
<path d="M31.6452 13.2763H30.8652V14.0488H31.6452V13.2763Z" fill="black"/>
<path d="M30.8653 38.1425H30.0928V38.9163H30.8653V38.1425Z" fill="#C40505"/>
<path d="M30.8653 37.3638H30.0928V38.1438H30.8653V37.3638Z" fill="#CE0505"/>
<path d="M30.8653 36.59H30.0928V37.3625H30.8653V36.59Z" fill="#CE0505"/>
<path d="M30.8653 35.81H30.0928V36.59H30.8653V35.81Z" fill="#2D1212"/>
<path d="M30.8653 35.0375H30.0928V35.81H30.8653V35.0375Z" fill="#2D1212"/>
<path d="M30.8653 34.2563H30.0928V35.0363H30.8653V34.2563Z" fill="#FF0000"/>
<path d="M30.8653 33.4763H30.0928V34.2563H30.8653V33.4763Z" fill="#2D1212"/>
<path d="M30.8653 32.7025H30.0928V33.4763H30.8653V32.7025Z" fill="#2D1212"/>
<path d="M30.8653 31.9238H30.0928V32.7038H30.8653V31.9238Z" fill="#2D1212"/>
<path d="M30.8653 31.15H30.0928V31.9225H30.8653V31.15Z" fill="#2D1212"/>
<path d="M30.8653 30.37H30.0928V31.15H30.8653V30.37Z" fill="#2D1212"/>
<path d="M30.8653 29.5963H30.0928V30.3688H30.8653V29.5963Z" fill="#2D1212"/>
<path d="M30.8653 28.8163H30.0928V29.5963H30.8653V28.8163Z" fill="black"/>
<path d="M30.8653 28.0363H30.0928V28.8163H30.8653V28.0363Z" fill="black"/>
<path d="M30.8653 27.2625H30.0928V28.035H30.8653V27.2625Z" fill="black"/>
<path d="M30.8653 26.4825H30.0928V27.2625H30.8653V26.4825Z" fill="black"/>
<path d="M30.8653 25.71H30.0928V26.4825H30.8653V25.71Z" fill="black"/>
<path d="M30.8653 24.9288H30.0928V25.7088H30.8653V24.9288Z" fill="black"/>
<path d="M30.8653 24.1562H30.0928V24.9287H30.8653V24.1562Z" fill="black"/>
<path d="M30.8653 23.3763H30.0928V24.1563H30.8653V23.3763Z" fill="black"/>
<path d="M30.8653 22.6038H30.0928V23.3763H30.8653V22.6038Z" fill="#2D1212"/>
<path d="M30.8653 21.8225H30.0928V22.6025H30.8653V21.8225Z" fill="#2D1212"/>
<path d="M30.8653 21.0425H30.0928V21.8225H30.8653V21.0425Z" fill="#2D1212"/>
<path d="M30.8653 20.27H30.0928V21.0425H30.8653V20.27Z" fill="#2D1212"/>
<path d="M30.8653 19.4888H30.0928V20.2688H30.8653V19.4888Z" fill="#2D1212"/>
<path d="M30.8653 18.7162H30.0928V19.4887H30.8653V18.7162Z" fill="#2D1212"/>
<path d="M30.8653 17.935H30.0928V18.715H30.8653V17.935Z" fill="black"/>
<path d="M30.8653 16.3825H30.0928V17.1625H30.8653V16.3825Z" fill="black"/>
<path d="M30.8653 15.6013H30.0928V16.3813H30.8653V15.6013Z" fill="#321E1E"/>
<path d="M30.8653 14.8288H30.0928V15.6013H30.8653V14.8288Z" fill="#321E1E"/>
<path d="M30.8653 14.0488H30.0928V14.8288H30.8653V14.0488Z" fill="#321E1E"/>
<path d="M30.8653 13.2763H30.0928V14.0488H30.8653V13.2763Z" fill="#321E1E"/>
<path d="M30.8653 12.495H30.0928V13.275H30.8653V12.495Z" fill="black"/>
<path d="M30.0915 36.59H29.3115V37.3625H30.0915V36.59Z" fill="#C40505"/>
<path d="M30.0915 35.81H29.3115V36.59H30.0915V35.81Z" fill="#321E1E"/>
<path d="M30.0915 35.0375H29.3115V35.81H30.0915V35.0375Z" fill="#321E1E"/>
<path d="M30.0915 34.2563H29.3115V35.0363H30.0915V34.2563Z" fill="#2D1212"/>
<path d="M30.0915 33.4763H29.3115V34.2563H30.0915V33.4763Z" fill="#321E1E"/>
<path d="M30.0915 32.7025H29.3115V33.4763H30.0915V32.7025Z" fill="#321E1E"/>
<path d="M30.0915 31.9238H29.3115V32.7038H30.0915V31.9238Z" fill="#321E1E"/>
<path d="M30.0915 31.15H29.3115V31.9225H30.0915V31.15Z" fill="#321E1E"/>
<path d="M30.0915 30.37H29.3115V31.15H30.0915V30.37Z" fill="#321E1E"/>
<path d="M30.0915 29.5963H29.3115V30.3688H30.0915V29.5963Z" fill="#2D1212"/>
<path d="M30.0915 28.8163H29.3115V29.5963H30.0915V28.8163Z" fill="#2D1212"/>
<path d="M30.0915 28.0363H29.3115V28.8163H30.0915V28.0363Z" fill="#2D1212"/>
<path d="M30.0915 27.2625H29.3115V28.035H30.0915V27.2625Z" fill="#2D1212"/>
<path d="M30.0915 26.4825H29.3115V27.2625H30.0915V26.4825Z" fill="#2D1212"/>
<path d="M30.0915 25.71H29.3115V26.4825H30.0915V25.71Z" fill="#2D1212"/>
<path d="M30.0915 24.9288H29.3115V25.7088H30.0915V24.9288Z" fill="#2D1212"/>
<path d="M30.0915 24.1562H29.3115V24.9287H30.0915V24.1562Z" fill="#2D1212"/>
<path d="M30.0915 23.3763H29.3115V24.1563H30.0915V23.3763Z" fill="#2D1212"/>
<path d="M30.0915 22.6038H29.3115V23.3763H30.0915V22.6038Z" fill="#2D1212"/>
<path d="M30.0915 21.8225H29.3115V22.6025H30.0915V21.8225Z" fill="#321E1E"/>
<path d="M30.0915 21.0425H29.3115V21.8225H30.0915V21.0425Z" fill="#2D1212"/>
<path d="M30.0915 20.27H29.3115V21.0425H30.0915V20.27Z" fill="#321E1E"/>
<path d="M30.0915 19.4888H29.3115V20.2688H30.0915V19.4888Z" fill="#2D1212"/>
<path d="M30.0915 18.7162H29.3115V19.4887H30.0915V18.7162Z" fill="#2D1212"/>
<path d="M30.0915 17.935H29.3115V18.715H30.0915V17.935Z" fill="#2D1212"/>
<path d="M30.0915 17.1625H29.3115V17.935H30.0915V17.1625Z" fill="black"/>
<path d="M30.0915 16.3825H29.3115V17.1625H30.0915V16.3825Z" fill="#321E1E"/>
<path d="M30.0915 15.6013H29.3115V16.3813H30.0915V15.6013Z" fill="#321E1E"/>
<path d="M30.0915 14.8288H29.3115V15.6013H30.0915V14.8288Z" fill="#321E1E"/>
<path d="M30.0915 14.0488H29.3115V14.8288H30.0915V14.0488Z" fill="#321E1E"/>
<path d="M30.0915 13.2763H29.3115V14.0488H30.0915V13.2763Z" fill="#321E1E"/>
<path d="M30.0915 12.495H29.3115V13.275H30.0915V12.495Z" fill="#321E1E"/>
<path d="M30.0915 11.7225H29.3115V12.495H30.0915V11.7225Z" fill="black"/>
<path d="M29.3116 37.3638H28.5391V38.1438H29.3116V37.3638Z" fill="#C60606"/>
<path d="M29.3116 36.59H28.5391V37.3625H29.3116V36.59Z" fill="#CE0505"/>
<path d="M29.3116 35.81H28.5391V36.59H29.3116V35.81Z" fill="#321E1E"/>
<path d="M29.3116 35.0375H28.5391V35.81H29.3116V35.0375Z" fill="#CE0505"/>
<path d="M29.3116 34.2563H28.5391V35.0363H29.3116V34.2563Z" fill="#E80C0C"/>
<path d="M29.3116 33.4763H28.5391V34.2563H29.3116V33.4763Z" fill="#321E1E"/>
<path d="M29.3116 32.7025H28.5391V33.4763H29.3116V32.7025Z" fill="#321E1E"/>
<path d="M29.3116 31.9238H28.5391V32.7038H29.3116V31.9238Z" fill="#321E1E"/>
<path d="M29.3116 31.15H28.5391V31.9225H29.3116V31.15Z" fill="#321E1E"/>
<path d="M29.3116 30.37H28.5391V31.15H29.3116V30.37Z" fill="#321E1E"/>
<path d="M29.3116 29.5963H28.5391V30.3688H29.3116V29.5963Z" fill="#321E1E"/>
<path d="M29.3116 28.8163H28.5391V29.5963H29.3116V28.8163Z" fill="#321E1E"/>
<path d="M29.3116 28.0363H28.5391V28.8163H29.3116V28.0363Z" fill="#321E1E"/>
<path d="M29.3116 27.2625H28.5391V28.035H29.3116V27.2625Z" fill="#321E1E"/>
<path d="M29.3116 26.4825H28.5391V27.2625H29.3116V26.4825Z" fill="#321E1E"/>
<path d="M29.3116 25.71H28.5391V26.4825H29.3116V25.71Z" fill="#321E1E"/>
<path d="M29.3116 24.9288H28.5391V25.7088H29.3116V24.9288Z" fill="#321E1E"/>
<path d="M29.3116 24.1562H28.5391V24.9287H29.3116V24.1562Z" fill="#321E1E"/>
<path d="M29.3116 23.3763H28.5391V24.1563H29.3116V23.3763Z" fill="#321E1E"/>
<path d="M29.3116 22.6038H28.5391V23.3763H29.3116V22.6038Z" fill="#321E1E"/>
<path d="M29.3116 21.8225H28.5391V22.6025H29.3116V21.8225Z" fill="#321E1E"/>
<path d="M29.3116 21.0425H28.5391V21.8225H29.3116V21.0425Z" fill="#321E1E"/>
<path d="M29.3116 20.27H28.5391V21.0425H29.3116V20.27Z" fill="#321E1E"/>
<path d="M29.3116 19.4888H28.5391V20.2688H29.3116V19.4888Z" fill="#321E1E"/>
<path d="M29.3116 18.7162H28.5391V19.4887H29.3116V18.7162Z" fill="#2D1212"/>
<path d="M29.3116 17.935H28.5391V18.715H29.3116V17.935Z" fill="#2D1212"/>
<path d="M29.3116 17.1625H28.5391V17.935H29.3116V17.1625Z" fill="#321E1E"/>
<path d="M29.3116 16.3825H28.5391V17.1625H29.3116V16.3825Z" fill="#321E1E"/>
<path d="M29.3116 15.6013H28.5391V16.3813H29.3116V15.6013Z" fill="#0C0C0C"/>
<path d="M29.3116 14.8288H28.5391V15.6013H29.3116V14.8288Z" fill="#0C0C0C"/>
<path d="M29.3116 14.0488H28.5391V14.8288H29.3116V14.0488Z" fill="#FF0000"/>
<path d="M29.3116 13.2763H28.5391V14.0488H29.3116V13.2763Z" fill="#0C0C0C"/>
<path d="M29.3116 12.495H28.5391V13.275H29.3116V12.495Z" fill="#321E1E"/>
<path d="M29.3116 11.7225H28.5391V12.495H29.3116V11.7225Z" fill="#321E1E"/>
<path d="M29.3116 10.9425H28.5391V11.7225H29.3116V10.9425Z" fill="black"/>
<path d="M28.5388 38.9175H27.7588V39.6975H28.5388V38.9175Z" fill="#C40505"/>
<path d="M28.5388 38.1425H27.7588V38.9163H28.5388V38.1425Z" fill="#C60606"/>
<path d="M28.5388 37.3638H27.7588V38.1438H28.5388V37.3638Z" fill="#C60606"/>
<path d="M28.5388 36.59H27.7588V37.3625H28.5388V36.59Z" fill="#E50000"/>
<path d="M28.5388 35.81H27.7588V36.59H28.5388V35.81Z" fill="#E80C0C"/>
<path d="M28.5388 35.0375H27.7588V35.81H28.5388V35.0375Z" fill="#E80C0C"/>
<path d="M28.5388 34.2563H27.7588V35.0363H28.5388V34.2563Z" fill="#321E1E"/>
<path d="M28.5388 33.4763H27.7588V34.2563H28.5388V33.4763Z" fill="#321E1E"/>
<path d="M28.5388 32.7025H27.7588V33.4763H28.5388V32.7025Z" fill="#321E1E"/>
<path d="M28.5388 31.9238H27.7588V32.7038H28.5388V31.9238Z" fill="#321E1E"/>
<path d="M28.5388 31.15H27.7588V31.9225H28.5388V31.15Z" fill="#321E1E"/>
<path d="M28.5388 30.37H27.7588V31.15H28.5388V30.37Z" fill="#321E1E"/>
<path d="M28.5388 29.5963H27.7588V30.3688H28.5388V29.5963Z" fill="#321E1E"/>
<path d="M28.5388 28.8163H27.7588V29.5963H28.5388V28.8163Z" fill="#321E1E"/>
<path d="M28.5388 28.0363H27.7588V28.8163H28.5388V28.0363Z" fill="#321E1E"/>
<path d="M28.5388 27.2625H27.7588V28.035H28.5388V27.2625Z" fill="#321E1E"/>
<path d="M28.5388 26.4825H27.7588V27.2625H28.5388V26.4825Z" fill="#321E1E"/>
<path d="M28.5388 25.71H27.7588V26.4825H28.5388V25.71Z" fill="#321E1E"/>
<path d="M28.5388 24.9288H27.7588V25.7088H28.5388V24.9288Z" fill="#321E1E"/>
<path d="M28.5388 24.1562H27.7588V24.9287H28.5388V24.1562Z" fill="#321E1E"/>
<path d="M28.5388 23.3763H27.7588V24.1563H28.5388V23.3763Z" fill="#321E1E"/>
<path d="M28.5388 22.6038H27.7588V23.3763H28.5388V22.6038Z" fill="#321E1E"/>
<path d="M28.5388 21.8225H27.7588V22.6025H28.5388V21.8225Z" fill="#321E1E"/>
<path d="M28.5388 21.0425H27.7588V21.8225H28.5388V21.0425Z" fill="#321E1E"/>
<path d="M28.5388 20.27H27.7588V21.0425H28.5388V20.27Z" fill="#321E1E"/>
<path d="M28.5388 19.4888H27.7588V20.2688H28.5388V19.4888Z" fill="#321E1E"/>
<path d="M28.5388 18.7162H27.7588V19.4887H28.5388V18.7162Z" fill="#321E1E"/>
<path d="M28.5388 17.935H27.7588V18.715H28.5388V17.935Z" fill="#2D1212"/>
<path d="M28.5388 17.1625H27.7588V17.935H28.5388V17.1625Z" fill="#321E1E"/>
<path d="M28.5388 16.3825H27.7588V17.1625H28.5388V16.3825Z" fill="#0C0C0C"/>
<path d="M28.5388 15.6013H27.7588V16.3813H28.5388V15.6013Z" fill="#0C0C0C"/>
<path d="M28.5388 14.8288H27.7588V15.6013H28.5388V14.8288Z" fill="#0C0C0C"/>
<path d="M28.5388 14.0488H27.7588V14.8288H28.5388V14.0488Z" fill="#FF0000"/>
<path d="M28.5388 13.2763H27.7588V14.0488H28.5388V13.2763Z" fill="#0C0C0C"/>
<path d="M28.5388 12.495H27.7588V13.275H28.5388V12.495Z" fill="#0C0C0C"/>
<path d="M28.5388 11.7225H27.7588V12.495H28.5388V11.7225Z" fill="#321E1E"/>
<path d="M28.5388 10.9425H27.7588V11.7225H28.5388V10.9425Z" fill="black"/>
<path d="M28.5388 10.17H27.7588V10.9425H28.5388V10.17Z" fill="black"/>
<path d="M27.7588 38.9175H26.9863V39.6975H27.7588V38.9175Z" fill="#C40505"/>
<path d="M27.7588 38.1425H26.9863V38.9163H27.7588V38.1425Z" fill="#E50000"/>
<path d="M27.7588 37.3638H26.9863V38.1438H27.7588V37.3638Z" fill="#E50000"/>
<path d="M27.7588 36.59H26.9863V37.3625H27.7588V36.59Z" fill="#E50000"/>
<path d="M27.7588 35.81H26.9863V36.59H27.7588V35.81Z" fill="black"/>
<path d="M27.7588 35.0375H26.9863V35.81H27.7588V35.0375Z" fill="#E80C0C"/>
<path d="M27.7588 34.2563H26.9863V35.0363H27.7588V34.2563Z" fill="#E80C0C"/>
<path d="M27.7588 33.4763H26.9863V34.2563H27.7588V33.4763Z" fill="#321E1E"/>
<path d="M27.7588 32.7025H26.9863V33.4763H27.7588V32.7025Z" fill="#321E1E"/>
<path d="M27.7588 31.9238H26.9863V32.7038H27.7588V31.9238Z" fill="#321E1E"/>
<path d="M27.7588 31.15H26.9863V31.9225H27.7588V31.15Z" fill="#321E1E"/>
<path d="M27.7588 30.37H26.9863V31.15H27.7588V30.37Z" fill="#321E1E"/>
<path d="M27.7588 29.5963H26.9863V30.3688H27.7588V29.5963Z" fill="#321E1E"/>
<path d="M27.7588 28.8163H26.9863V29.5963H27.7588V28.8163Z" fill="#321E1E"/>
<path d="M27.7588 28.0363H26.9863V28.8163H27.7588V28.0363Z" fill="#321E1E"/>
<path d="M27.7588 27.2625H26.9863V28.035H27.7588V27.2625Z" fill="#321E1E"/>
<path d="M27.7588 26.4825H26.9863V27.2625H27.7588V26.4825Z" fill="#321E1E"/>
<path d="M27.7588 25.71H26.9863V26.4825H27.7588V25.71Z" fill="#321E1E"/>
<path d="M27.7588 24.9288H26.9863V25.7088H27.7588V24.9288Z" fill="#321E1E"/>
<path d="M27.7588 24.1562H26.9863V24.9287H27.7588V24.1562Z" fill="#321E1E"/>
<path d="M27.7588 23.3763H26.9863V24.1563H27.7588V23.3763Z" fill="#321E1E"/>
<path d="M27.7588 22.6038H26.9863V23.3763H27.7588V22.6038Z" fill="#321E1E"/>
<path d="M27.7588 21.8225H26.9863V22.6025H27.7588V21.8225Z" fill="#321E1E"/>
<path d="M27.7588 21.0425H26.9863V21.8225H27.7588V21.0425Z" fill="#321E1E"/>
<path d="M27.7588 20.27H26.9863V21.0425H27.7588V20.27Z" fill="#321E1E"/>
<path d="M27.7588 19.4888H26.9863V20.2688H27.7588V19.4888Z" fill="#321E1E"/>
<path d="M27.7588 18.7162H26.9863V19.4887H27.7588V18.7162Z" fill="#321E1E"/>
<path d="M27.7588 17.935H26.9863V18.715H27.7588V17.935Z" fill="#2D1212"/>
<path d="M27.7588 17.1625H26.9863V17.935H27.7588V17.1625Z" fill="#321E1E"/>
<path d="M27.7588 16.3825H26.9863V17.1625H27.7588V16.3825Z" fill="#0C0C0C"/>
<path d="M27.7588 15.6013H26.9863V16.3813H27.7588V15.6013Z" fill="#0C0C0C"/>
<path d="M27.7588 14.8288H26.9863V15.6013H27.7588V14.8288Z" fill="#0C0C0C"/>
<path d="M27.7588 14.0488H26.9863V14.8288H27.7588V14.0488Z" fill="#0C0C0C"/>
<path d="M27.7588 13.2763H26.9863V14.0488H27.7588V13.2763Z" fill="#0C0C0C"/>
<path d="M27.7588 12.495H26.9863V13.275H27.7588V12.495Z" fill="#0C0C0C"/>
<path d="M27.7588 11.7225H26.9863V12.495H27.7588V11.7225Z" fill="black"/>
<path d="M27.7588 10.9425H26.9863V11.7225H27.7588V10.9425Z" fill="#321E1E"/>
<path d="M27.7588 10.17H26.9863V10.9425H27.7588V10.17Z" fill="black"/>
<path d="M26.9851 40.47H26.2051V41.25H26.9851V40.47Z" fill="#C40505"/>
<path d="M26.9851 39.6963H26.2051V40.4688H26.9851V39.6963Z" fill="#C40505"/>
<path d="M26.9851 38.9175H26.2051V39.6975H26.9851V38.9175Z" fill="#E50000"/>
<path d="M26.9851 38.1425H26.2051V38.9163H26.9851V38.1425Z" fill="#E50000"/>
<path d="M26.9851 37.3638H26.2051V38.1438H26.9851V37.3638Z" fill="black"/>
<path d="M26.9851 36.59H26.2051V37.3625H26.9851V36.59Z" fill="black"/>
<path d="M26.9851 34.2563H26.2051V35.0363H26.9851V34.2563Z" fill="#2D1212"/>
<path d="M26.9851 33.4763H26.2051V34.2563H26.9851V33.4763Z" fill="#2D1212"/>
<path d="M26.9851 32.7025H26.2051V33.4763H26.9851V32.7025Z" fill="#321E1E"/>
<path d="M26.9851 31.9238H26.2051V32.7038H26.9851V31.9238Z" fill="#321E1E"/>
<path d="M26.9851 31.15H26.2051V31.9225H26.9851V31.15Z" fill="#321E1E"/>
<path d="M26.9851 30.37H26.2051V31.15H26.9851V30.37Z" fill="#321E1E"/>
<path d="M26.9851 29.5963H26.2051V30.3688H26.9851V29.5963Z" fill="#321E1E"/>
<path d="M26.9851 28.8163H26.2051V29.5963H26.9851V28.8163Z" fill="#321E1E"/>
<path d="M26.9851 28.0363H26.2051V28.8163H26.9851V28.0363Z" fill="#321E1E"/>
<path d="M26.9851 27.2625H26.2051V28.035H26.9851V27.2625Z" fill="#321E1E"/>
<path d="M26.9851 26.4825H26.2051V27.2625H26.9851V26.4825Z" fill="#321E1E"/>
<path d="M26.9851 25.71H26.2051V26.4825H26.9851V25.71Z" fill="#321E1E"/>
<path d="M26.9851 24.9288H26.2051V25.7088H26.9851V24.9288Z" fill="#321E1E"/>
<path d="M26.9851 24.1562H26.2051V24.9287H26.9851V24.1562Z" fill="#321E1E"/>
<path d="M26.9851 23.3763H26.2051V24.1563H26.9851V23.3763Z" fill="#321E1E"/>
<path d="M26.9851 22.6038H26.2051V23.3763H26.9851V22.6038Z" fill="#321E1E"/>
<path d="M26.9851 21.8225H26.2051V22.6025H26.9851V21.8225Z" fill="#321E1E"/>
<path d="M26.9851 21.0425H26.2051V21.8225H26.9851V21.0425Z" fill="#321E1E"/>
<path d="M26.9851 20.27H26.2051V21.0425H26.9851V20.27Z" fill="#321E1E"/>
<path d="M26.9851 19.4888H26.2051V20.2688H26.9851V19.4888Z" fill="#321E1E"/>
<path d="M26.9851 18.7162H26.2051V19.4887H26.9851V18.7162Z" fill="#321E1E"/>
<path d="M26.9851 17.935H26.2051V18.715H26.9851V17.935Z" fill="#2D1212"/>
<path d="M26.9851 17.1625H26.2051V17.935H26.9851V17.1625Z" fill="#321E1E"/>
<path d="M26.9851 16.3825H26.2051V17.1625H26.9851V16.3825Z" fill="#0C0C0C"/>
<path d="M26.9851 15.6013H26.2051V16.3813H26.9851V15.6013Z" fill="#0C0C0C"/>
<path d="M26.9851 14.8288H26.2051V15.6013H26.9851V14.8288Z" fill="#0C0C0C"/>
<path d="M26.9851 14.0488H26.2051V14.8288H26.9851V14.0488Z" fill="black"/>
<path d="M26.9851 13.2763H26.2051V14.0488H26.9851V13.2763Z" fill="#0C0C0C"/>
<path d="M26.9851 12.495H26.2051V13.275H26.9851V12.495Z" fill="#0C0C0C"/>
<path d="M26.9851 11.7225H26.2051V12.495H26.9851V11.7225Z" fill="black"/>
<path d="M26.9851 10.9425H26.2051V11.7225H26.9851V10.9425Z" fill="#321E1E"/>
<path d="M26.9851 10.17H26.2051V10.9425H26.9851V10.17Z" fill="black"/>
<path d="M26.2051 35.0375H25.4326V35.81H26.2051V35.0375Z" fill="black"/>
<path d="M26.2051 34.2563H25.4326V35.0363H26.2051V34.2563Z" fill="#2D1212"/>
<path d="M26.2051 33.4763H25.4326V34.2563H26.2051V33.4763Z" fill="#321E1E"/>
<path d="M26.2051 32.7025H25.4326V33.4763H26.2051V32.7025Z" fill="#321E1E"/>
<path d="M26.2051 31.9238H25.4326V32.7038H26.2051V31.9238Z" fill="#321E1E"/>
<path d="M26.2051 31.15H25.4326V31.9225H26.2051V31.15Z" fill="#321E1E"/>
<path d="M26.2051 30.37H25.4326V31.15H26.2051V30.37Z" fill="#321E1E"/>
<path d="M26.2051 29.5963H25.4326V30.3688H26.2051V29.5963Z" fill="#321E1E"/>
<path d="M26.2051 28.8163H25.4326V29.5963H26.2051V28.8163Z" fill="#321E1E"/>
<path d="M26.2051 28.0363H25.4326V28.8163H26.2051V28.0363Z" fill="#321E1E"/>
<path d="M26.2051 27.2625H25.4326V28.035H26.2051V27.2625Z" fill="#321E1E"/>
<path d="M26.2051 26.4825H25.4326V27.2625H26.2051V26.4825Z" fill="#321E1E"/>
<path d="M26.2051 25.71H25.4326V26.4825H26.2051V25.71Z" fill="#321E1E"/>
<path d="M26.2051 24.9288H25.4326V25.7088H26.2051V24.9288Z" fill="#321E1E"/>
<path d="M26.2051 24.1562H25.4326V24.9287H26.2051V24.1562Z" fill="#321E1E"/>
<path d="M26.2051 23.3763H25.4326V24.1563H26.2051V23.3763Z" fill="#321E1E"/>
<path d="M26.2051 22.6038H25.4326V23.3763H26.2051V22.6038Z" fill="#321E1E"/>
<path d="M26.2051 21.8225H25.4326V22.6025H26.2051V21.8225Z" fill="#321E1E"/>
<path d="M26.2051 21.0425H25.4326V21.8225H26.2051V21.0425Z" fill="#321E1E"/>
<path d="M26.2051 20.27H25.4326V21.0425H26.2051V20.27Z" fill="#321E1E"/>
<path d="M26.2051 19.4888H25.4326V20.2688H26.2051V19.4888Z" fill="#321E1E"/>
<path d="M26.2051 18.7162H25.4326V19.4887H26.2051V18.7162Z" fill="#321E1E"/>
<path d="M26.2051 17.935H25.4326V18.715H26.2051V17.935Z" fill="#2D1212"/>
<path d="M26.2051 17.1625H25.4326V17.935H26.2051V17.1625Z" fill="black"/>
<path d="M26.2051 16.3825H25.4326V17.1625H26.2051V16.3825Z" fill="#321E1E"/>
<path d="M26.2051 15.6013H25.4326V16.3813H26.2051V15.6013Z" fill="#0C0C0C"/>
<path d="M26.2051 14.8288H25.4326V15.6013H26.2051V14.8288Z" fill="#0C0C0C"/>
<path d="M26.2051 14.0488H25.4326V14.8288H26.2051V14.0488Z" fill="#FF0000"/>
<path d="M26.2051 13.2763H25.4326V14.0488H26.2051V13.2763Z" fill="#0C0C0C"/>
<path d="M26.2051 12.495H25.4326V13.275H26.2051V12.495Z" fill="black"/>
<path d="M26.2051 11.7225H25.4326V12.495H26.2051V11.7225Z" fill="#321E1E"/>
<path d="M26.2051 10.9425H25.4326V11.7225H26.2051V10.9425Z" fill="black"/>
<path d="M25.4314 38.9175H24.6514V39.6975H25.4314V38.9175Z" fill="#CE0505"/>
<path d="M25.4314 38.1425H24.6514V38.9163H25.4314V38.1425Z" fill="#CE0505"/>
<path d="M25.4314 37.3638H24.6514V38.1438H25.4314V37.3638Z" fill="#CE0505"/>
<path d="M25.4314 36.59H24.6514V37.3625H25.4314V36.59Z" fill="black"/>
<path d="M25.4314 35.81H24.6514V36.59H25.4314V35.81Z" fill="black"/>
<path d="M25.4314 35.0375H24.6514V35.81H25.4314V35.0375Z" fill="#2D1212"/>
<path d="M25.4314 34.2563H24.6514V35.0363H25.4314V34.2563Z" fill="#E80C0C"/>
<path d="M25.4314 33.4763H24.6514V34.2563H25.4314V33.4763Z" fill="#E80C0C"/>
<path d="M25.4314 32.7025H24.6514V33.4763H25.4314V32.7025Z" fill="#321E1E"/>
<path d="M25.4314 31.9238H24.6514V32.7038H25.4314V31.9238Z" fill="#321E1E"/>
<path d="M25.4314 31.15H24.6514V31.9225H25.4314V31.15Z" fill="#321E1E"/>
<path d="M25.4314 30.37H24.6514V31.15H25.4314V30.37Z" fill="#321E1E"/>
<path d="M25.4314 29.5963H24.6514V30.3688H25.4314V29.5963Z" fill="#321E1E"/>
<path d="M25.4314 28.8163H24.6514V29.5963H25.4314V28.8163Z" fill="#321E1E"/>
<path d="M25.4314 28.0363H24.6514V28.8163H25.4314V28.0363Z" fill="#321E1E"/>
<path d="M25.4314 27.2625H24.6514V28.035H25.4314V27.2625Z" fill="#321E1E"/>
<path d="M25.4314 26.4825H24.6514V27.2625H25.4314V26.4825Z" fill="#321E1E"/>
<path d="M25.4314 25.71H24.6514V26.4825H25.4314V25.71Z" fill="#321E1E"/>
<path d="M25.4314 24.9288H24.6514V25.7088H25.4314V24.9288Z" fill="#321E1E"/>
<path d="M25.4314 24.1562H24.6514V24.9287H25.4314V24.1562Z" fill="#321E1E"/>
<path d="M25.4314 23.3763H24.6514V24.1563H25.4314V23.3763Z" fill="#321E1E"/>
<path d="M25.4314 22.6038H24.6514V23.3763H25.4314V22.6038Z" fill="#321E1E"/>
<path d="M25.4314 21.8225H24.6514V22.6025H25.4314V21.8225Z" fill="#321E1E"/>
<path d="M25.4314 21.0425H24.6514V21.8225H25.4314V21.0425Z" fill="#321E1E"/>
<path d="M25.4314 20.27H24.6514V21.0425H25.4314V20.27Z" fill="#2D1212"/>
<path d="M25.4314 19.4888H24.6514V20.2688H25.4314V19.4888Z" fill="#2D1212"/>
<path d="M25.4314 18.7162H24.6514V19.4887H25.4314V18.7162Z" fill="#2D1212"/>
<path d="M25.4314 17.935H24.6514V18.715H25.4314V17.935Z" fill="black"/>
<path d="M25.4314 16.3825H24.6514V17.1625H25.4314V16.3825Z" fill="black"/>
<path d="M25.4314 15.6013H24.6514V16.3813H25.4314V15.6013Z" fill="#321E1E"/>
<path d="M25.4314 14.8288H24.6514V15.6013H25.4314V14.8288Z" fill="#321E1E"/>
<path d="M25.4314 14.0488H24.6514V14.8288H25.4314V14.0488Z" fill="#321E1E"/>
<path d="M25.4314 13.2763H24.6514V14.0488H25.4314V13.2763Z" fill="#321E1E"/>
<path d="M25.4314 12.495H24.6514V13.275H25.4314V12.495Z" fill="#321E1E"/>
<path d="M25.4314 11.7225H24.6514V12.495H25.4314V11.7225Z" fill="black"/>
<path d="M25.4314 10.9425H24.6514V11.7225H25.4314V10.9425Z" fill="black"/>
<path d="M24.6516 37.3638H23.8716V38.1438H24.6516V37.3638Z" fill="#CE0505"/>
<path d="M24.6516 36.59H23.8716V37.3625H24.6516V36.59Z" fill="#2D1212"/>
<path d="M24.6516 35.81H23.8716V36.59H24.6516V35.81Z" fill="#2D1212"/>
<path d="M24.6516 35.0375H23.8716V35.81H24.6516V35.0375Z" fill="#E80C0C"/>
<path d="M24.6516 34.2563H23.8716V35.0363H24.6516V34.2563Z" fill="#E80C0C"/>
<path d="M24.6516 33.4763H23.8716V34.2563H24.6516V33.4763Z" fill="#321E1E"/>
<path d="M24.6516 32.7025H23.8716V33.4763H24.6516V32.7025Z" fill="#321E1E"/>
<path d="M24.6516 31.9238H23.8716V32.7038H24.6516V31.9238Z" fill="#321E1E"/>
<path d="M24.6516 31.15H23.8716V31.9225H24.6516V31.15Z" fill="black"/>
<path d="M24.6516 30.37H23.8716V31.15H24.6516V30.37Z" fill="black"/>
<path d="M24.6516 29.5963H23.8716V30.3688H24.6516V29.5963Z" fill="black"/>
<path d="M24.6516 28.8163H23.8716V29.5963H24.6516V28.8163Z" fill="#2D1212"/>
<path d="M24.6516 28.0363H23.8716V28.8163H24.6516V28.0363Z" fill="#2D1212"/>
<path d="M24.6516 27.2625H23.8716V28.035H24.6516V27.2625Z" fill="#2D1212"/>
<path d="M24.6516 26.4825H23.8716V27.2625H24.6516V26.4825Z" fill="#2D1212"/>
<path d="M24.6516 25.71H23.8716V26.4825H24.6516V25.71Z" fill="#2D1212"/>
<path d="M24.6516 24.9288H23.8716V25.7088H24.6516V24.9288Z" fill="#2D1212"/>
<path d="M24.6516 24.1562H23.8716V24.9287H24.6516V24.1562Z" fill="#2D1212"/>
<path d="M24.6516 23.3763H23.8716V24.1563H24.6516V23.3763Z" fill="#2D1212"/>
<path d="M24.6516 22.6038H23.8716V23.3763H24.6516V22.6038Z" fill="#2D1212"/>
<path d="M24.6516 21.8225H23.8716V22.6025H24.6516V21.8225Z" fill="#2D1212"/>
<path d="M24.6516 21.0425H23.8716V21.8225H24.6516V21.0425Z" fill="#2D1212"/>
<path d="M24.6516 20.27H23.8716V21.0425H24.6516V20.27Z" fill="#2D1212"/>
<path d="M24.6516 19.4888H23.8716V20.2688H24.6516V19.4888Z" fill="#2D1212"/>
<path d="M24.6516 18.7162H23.8716V19.4887H24.6516V18.7162Z" fill="black"/>
<path d="M24.6516 15.6013H23.8716V16.3813H24.6516V15.6013Z" fill="black"/>
<path d="M24.6516 14.8288H23.8716V15.6013H24.6516V14.8288Z" fill="black"/>
<path d="M24.6516 14.0488H23.8716V14.8288H24.6516V14.0488Z" fill="black"/>
<path d="M24.6516 13.2763H23.8716V14.0488H24.6516V13.2763Z" fill="black"/>
<path d="M24.6516 12.495H23.8716V13.275H24.6516V12.495Z" fill="black"/>
<path d="M23.8716 38.1425H23.0991V38.9163H23.8716V38.1425Z" fill="#CE0505"/>
<path d="M23.8716 37.3638H23.0991V38.1438H23.8716V37.3638Z" fill="#C60606"/>
<path d="M23.8716 36.59H23.0991V37.3625H23.8716V36.59Z" fill="#C60606"/>
<path d="M23.8716 35.81H23.0991V36.59H23.8716V35.81Z" fill="#E80C0C"/>
<path d="M23.8716 35.0375H23.0991V35.81H23.8716V35.0375Z" fill="#E80C0C"/>
<path d="M23.8716 34.2563H23.0991V35.0363H23.8716V34.2563Z" fill="#E80C0C"/>
<path d="M23.8716 33.4763H23.0991V34.2563H23.8716V33.4763Z" fill="#E80C0C"/>
<path d="M23.8716 32.7025H23.0991V33.4763H23.8716V32.7025Z" fill="black"/>
<path d="M23.8716 31.9238H23.0991V32.7038H23.8716V31.9238Z" fill="black"/>
<path d="M23.8716 31.15H23.0991V31.9225H23.8716V31.15Z" fill="black"/>
<path d="M23.8716 29.5963H23.0991V30.3688H23.8716V29.5963Z" fill="black"/>
<path d="M23.8716 28.8163H23.0991V29.5963H23.8716V28.8163Z" fill="black"/>
<path d="M23.8716 28.0363H23.0991V28.8163H23.8716V28.0363Z" fill="black"/>
<path d="M23.8716 27.2625H23.0991V28.035H23.8716V27.2625Z" fill="black"/>
<path d="M23.8716 26.4825H23.0991V27.2625H23.8716V26.4825Z" fill="black"/>
<path d="M23.8716 25.71H23.0991V26.4825H23.8716V25.71Z" fill="black"/>
<path d="M23.8716 24.9288H23.0991V25.7088H23.8716V24.9288Z" fill="black"/>
<path d="M23.8716 24.1562H23.0991V24.9287H23.8716V24.1562Z" fill="#2D1212"/>
<path d="M23.8716 23.3763H23.0991V24.1563H23.8716V23.3763Z" fill="#2D1212"/>
<path d="M23.8716 22.6038H23.0991V23.3763H23.8716V22.6038Z" fill="#2D1212"/>
<path d="M23.8716 21.8225H23.0991V22.6025H23.8716V21.8225Z" fill="#2D1212"/>
<path d="M23.8716 21.0425H23.0991V21.8225H23.8716V21.0425Z" fill="#2D1212"/>
<path d="M23.8716 20.27H23.0991V21.0425H23.8716V20.27Z" fill="#2D1212"/>
<path d="M23.8716 19.4888H23.0991V20.2688H23.8716V19.4888Z" fill="black"/>
<path d="M23.0979 38.9175H22.3179V39.6975H23.0979V38.9175Z" fill="#C60606"/>
<path d="M23.0979 38.1425H22.3179V38.9163H23.0979V38.1425Z" fill="#C60606"/>
<path d="M23.0979 37.3638H22.3179V38.1438H23.0979V37.3638Z" fill="#C60606"/>
<path d="M23.0979 36.59H22.3179V37.3625H23.0979V36.59Z" fill="#C60606"/>
<path d="M23.0979 35.81H22.3179V36.59H23.0979V35.81Z" fill="#C60606"/>
<path d="M23.0979 35.0375H22.3179V35.81H23.0979V35.0375Z" fill="#C60606"/>
<path d="M23.0979 24.1562H22.3179V24.9287H23.0979V24.1562Z" fill="black"/>
<path d="M23.0979 23.3763H22.3179V24.1563H23.0979V23.3763Z" fill="#2D1212"/>
<path d="M23.0979 22.6038H22.3179V23.3763H23.0979V22.6038Z" fill="#2D1212"/>
<path d="M23.0979 21.8225H22.3179V22.6025H23.0979V21.8225Z" fill="#2D1212"/>
<path d="M23.0979 21.0425H22.3179V21.8225H23.0979V21.0425Z" fill="#2D1212"/>
<path d="M23.0979 20.27H22.3179V21.0425H23.0979V20.27Z" fill="#2D1212"/>
<path d="M23.0979 19.4888H22.3179V20.2688H23.0979V19.4888Z" fill="black"/>
<path d="M22.3179 26.4825H21.5454V27.2625H22.3179V26.4825Z" fill="black"/>
<path d="M22.3179 25.71H21.5454V26.4825H22.3179V25.71Z" fill="black"/>
<path d="M22.3179 24.9288H21.5454V25.7088H22.3179V24.9288Z" fill="black"/>
<path d="M22.3179 24.1562H21.5454V24.9287H22.3179V24.1562Z" fill="#2D1212"/>
<path d="M22.3179 23.3763H21.5454V24.1563H22.3179V23.3763Z" fill="#2D1212"/>
<path d="M22.3179 22.6038H21.5454V23.3763H22.3179V22.6038Z" fill="#2D1212"/>
<path d="M22.3179 21.8225H21.5454V22.6025H22.3179V21.8225Z" fill="#301918"/>
<path d="M22.3179 21.0425H21.5454V21.8225H22.3179V21.0425Z" fill="black"/>
<path d="M22.3179 20.27H21.5454V21.0425H22.3179V20.27Z" fill="black"/>
<path d="M21.5451 24.9288H20.7651V25.7088H21.5451V24.9288Z" fill="black"/>
<path d="M21.5451 24.1562H20.7651V24.9287H21.5451V24.1562Z" fill="black"/>
<path d="M21.5451 23.3763H20.7651V24.1563H21.5451V23.3763Z" fill="#2D1212"/>
<path d="M21.5451 22.6038H20.7651V23.3763H21.5451V22.6038Z" fill="#301918"/>
<path d="M21.5451 21.8225H20.7651V22.6025H21.5451V21.8225Z" fill="#301918"/>
<path d="M21.5451 21.0425H20.7651V21.8225H21.5451V21.0425Z" fill="black"/>
<path d="M20.7652 24.1562H19.9927V24.9287H20.7652V24.1562Z" fill="black"/>
<path d="M20.7652 23.3763H19.9927V24.1563H20.7652V23.3763Z" fill="#301918"/>
<path d="M20.7652 22.6038H19.9927V23.3763H20.7652V22.6038Z" fill="#301918"/>
<path d="M20.7652 21.8225H19.9927V22.6025H20.7652V21.8225Z" fill="#301918"/>
<path d="M20.7652 21.0425H19.9927V21.8225H20.7652V21.0425Z" fill="black"/>
<path d="M19.9914 26.4825H19.2114V27.2625H19.9914V26.4825Z" fill="black"/>
<path d="M19.9914 25.71H19.2114V26.4825H19.9914V25.71Z" fill="black"/>
<path d="M19.9914 24.9288H19.2114V25.7088H19.9914V24.9288Z" fill="black"/>
<path d="M19.9914 24.1562H19.2114V24.9287H19.9914V24.1562Z" fill="#301918"/>
<path d="M19.9914 23.3763H19.2114V24.1563H19.9914V23.3763Z" fill="#301918"/>
<path d="M19.9914 22.6038H19.2114V23.3763H19.9914V22.6038Z" fill="#301918"/>
<path d="M19.9914 21.8225H19.2114V22.6025H19.9914V21.8225Z" fill="black"/>
<path d="M19.2116 24.1562H18.4316V24.9287H19.2116V24.1562Z" fill="black"/>
<path d="M19.2116 23.3763H18.4316V24.1563H19.2116V23.3763Z" fill="#301918"/>
<path d="M19.2116 22.6038H18.4316V23.3763H19.2116V22.6038Z" fill="#301918"/>
<path d="M19.2116 21.8225H18.4316V22.6025H19.2116V21.8225Z" fill="#301918"/>
<path d="M19.2116 21.0425H18.4316V21.8225H19.2116V21.0425Z" fill="black"/>
<path d="M18.4317 23.3763H17.6592V24.1563H18.4317V23.3763Z" fill="black"/>
<path d="M18.4317 22.6038H17.6592V23.3763H18.4317V22.6038Z" fill="#301918"/>
<path d="M18.4317 21.8225H17.6592V22.6025H18.4317V21.8225Z" fill="#301918"/>
<path d="M18.4317 21.0425H17.6592V21.8225H18.4317V21.0425Z" fill="black"/>
<path d="M18.4317 20.27H17.6592V21.0425H18.4317V20.27Z" fill="black"/>
<path d="M18.4317 14.0488H17.6592V14.8288H18.4317V14.0488Z" fill="#939393"/>
<path d="M18.4317 13.2763H17.6592V14.0488H18.4317V13.2763Z" fill="#939393"/>
<path d="M18.4317 12.495H17.6592V13.275H18.4317V12.495Z" fill="#939393"/>
<path d="M17.6579 23.3763H16.8779V24.1563H17.6579V23.3763Z" fill="black"/>
<path d="M17.6579 22.6038H16.8779V23.3763H17.6579V22.6038Z" fill="black"/>
<path d="M17.6579 21.8225H16.8779V22.6025H17.6579V21.8225Z" fill="black"/>
<path d="M17.6579 21.0425H16.8779V21.8225H17.6579V21.0425Z" fill="black"/>
<path d="M17.6579 14.8288H16.8779V15.6013H17.6579V14.8288Z" fill="#939393"/>
<path d="M17.6579 14.0488H16.8779V14.8288H17.6579V14.0488Z" fill="#A7A7A8"/>
<path d="M17.6579 13.2763H16.8779V14.0488H17.6579V13.2763Z" fill="#FF0000"/>
<path d="M17.6579 12.495H16.8779V13.275H17.6579V12.495Z" fill="black"/>
<path d="M17.6579 11.7225H16.8779V12.495H17.6579V11.7225Z" fill="#939393"/>
<path d="M16.878 35.0375H16.1055V35.81H16.878V35.0375Z" fill="#E50000"/>
<path d="M16.878 34.2563H16.1055V35.0363H16.878V34.2563Z" fill="#E50000"/>
<path d="M16.878 33.4763H16.1055V34.2563H16.878V33.4763Z" fill="#E50000"/>
<path d="M16.878 32.7025H16.1055V33.4763H16.878V32.7025Z" fill="#E50000"/>
<path d="M16.878 31.9238H16.1055V32.7038H16.878V31.9238Z" fill="#E50000"/>
<path d="M16.878 31.15H16.1055V31.9225H16.878V31.15Z" fill="#7A370A"/>
<path d="M16.878 30.37H16.1055V31.15H16.878V30.37Z" fill="#7A370A"/>
<path d="M16.878 29.5963H16.1055V30.3688H16.878V29.5963Z" fill="#7A370A"/>
<path d="M16.878 28.8163H16.1055V29.5963H16.878V28.8163Z" fill="#7A370A"/>
<path d="M16.878 28.0363H16.1055V28.8163H16.878V28.0363Z" fill="#E50000"/>
<path d="M16.878 27.2625H16.1055V28.035H16.878V27.2625Z" fill="#E50000"/>
<path d="M16.878 26.4825H16.1055V27.2625H16.878V26.4825Z" fill="#7A370A"/>
<path d="M16.878 25.71H16.1055V26.4825H16.878V25.71Z" fill="#7A370A"/>
<path d="M16.878 24.9288H16.1055V25.7088H16.878V24.9288Z" fill="#7A370A"/>
<path d="M16.878 24.1562H16.1055V24.9287H16.878V24.1562Z" fill="#7A370A"/>
<path d="M16.878 23.3763H16.1055V24.1563H16.878V23.3763Z" fill="#293D4C"/>
<path d="M16.878 22.6038H16.1055V23.3763H16.878V22.6038Z" fill="#293D4C"/>
<path d="M16.878 21.8225H16.1055V22.6025H16.878V21.8225Z" fill="#7A370A"/>
<path d="M16.878 21.0425H16.1055V21.8225H16.878V21.0425Z" fill="#293D4C"/>
<path d="M16.878 20.27H16.1055V21.0425H16.878V20.27Z" fill="#E50000"/>
<path d="M16.878 19.4888H16.1055V20.2688H16.878V19.4888Z" fill="#7A370A"/>
<path d="M16.878 18.7162H16.1055V19.4887H16.878V18.7162Z" fill="#7A370A"/>
<path d="M16.878 17.935H16.1055V18.715H16.878V17.935Z" fill="#7A370A"/>
<path d="M16.878 17.1625H16.1055V17.935H16.878V17.1625Z" fill="#7A370A"/>
<path d="M16.878 16.3825H16.1055V17.1625H16.878V16.3825Z" fill="#7A370A"/>
<path d="M16.878 15.6013H16.1055V16.3813H16.878V15.6013Z" fill="#E50000"/>
<path d="M16.878 14.8288H16.1055V15.6013H16.878V14.8288Z" fill="#E50000"/>
<path d="M16.878 14.0488H16.1055V14.8288H16.878V14.0488Z" fill="black"/>
<path d="M16.878 13.2763H16.1055V14.0488H16.878V13.2763Z" fill="#A7A7A8"/>
<path d="M16.878 12.495H16.1055V13.275H16.878V12.495Z" fill="#A7A7A8"/>
<path d="M16.878 11.7225H16.1055V12.495H16.878V11.7225Z" fill="#A7A7A8"/>
<path d="M16.878 10.9425H16.1055V11.7225H16.878V10.9425Z" fill="#FF0000"/>
<path d="M16.1052 37.3638H15.3252V38.1438H16.1052V37.3638Z" fill="#E50000"/>
<path d="M16.1052 35.81H15.3252V36.59H16.1052V35.81Z" fill="#E50000"/>
<path d="M16.1052 35.0375H15.3252V35.81H16.1052V35.0375Z" fill="#E50000"/>
<path d="M16.1052 34.2563H15.3252V35.0363H16.1052V34.2563Z" fill="#E50000"/>
<path d="M16.1052 33.4763H15.3252V34.2563H16.1052V33.4763Z" fill="#E50000"/>
<path d="M16.1052 32.7025H15.3252V33.4763H16.1052V32.7025Z" fill="#7A370A"/>
<path d="M16.1052 31.9238H15.3252V32.7038H16.1052V31.9238Z" fill="#7A370A"/>
<path d="M16.1052 31.15H15.3252V31.9225H16.1052V31.15Z" fill="#7A370A"/>
<path d="M16.1052 30.37H15.3252V31.15H16.1052V30.37Z" fill="#7A370A"/>
<path d="M16.1052 29.5963H15.3252V30.3688H16.1052V29.5963Z" fill="#7A370A"/>
<path d="M16.1052 28.8163H15.3252V29.5963H16.1052V28.8163Z" fill="#E50000"/>
<path d="M16.1052 28.0363H15.3252V28.8163H16.1052V28.0363Z" fill="#E50000"/>
<path d="M16.1052 27.2625H15.3252V28.035H16.1052V27.2625Z" fill="#7A370A"/>
<path d="M16.1052 26.4825H15.3252V27.2625H16.1052V26.4825Z" fill="#7A370A"/>
<path d="M16.1052 25.71H15.3252V26.4825H16.1052V25.71Z" fill="#7A370A"/>
<path d="M16.1052 24.9288H15.3252V25.7088H16.1052V24.9288Z" fill="#7A370A"/>
<path d="M16.1052 24.1562H15.3252V24.9287H16.1052V24.1562Z" fill="black"/>
<path d="M16.1052 23.3763H15.3252V24.1563H16.1052V23.3763Z" fill="#293D4C"/>
<path d="M16.1052 22.6038H15.3252V23.3763H16.1052V22.6038Z" fill="#293D4C"/>
<path d="M16.1052 21.8225H15.3252V22.6025H16.1052V21.8225Z" fill="#293D4C"/>
<path d="M16.1052 21.0425H15.3252V21.8225H16.1052V21.0425Z" fill="#293D4C"/>
<path d="M16.1052 20.27H15.3252V21.0425H16.1052V20.27Z" fill="black"/>
<path d="M16.1052 19.4888H15.3252V20.2688H16.1052V19.4888Z" fill="#E50000"/>
<path d="M16.1052 18.7162H15.3252V19.4887H16.1052V18.7162Z" fill="#7A370A"/>
<path d="M16.1052 17.935H15.3252V18.715H16.1052V17.935Z" fill="#7A370A"/>
<path d="M16.1052 17.1625H15.3252V17.935H16.1052V17.1625Z" fill="#7A370A"/>
<path d="M16.1052 16.3825H15.3252V17.1625H16.1052V16.3825Z" fill="#7A370A"/>
<path d="M16.1052 15.6013H15.3252V16.3813H16.1052V15.6013Z" fill="#939393"/>
<path d="M16.1052 14.8288H15.3252V15.6013H16.1052V14.8288Z" fill="#A7A7A8"/>
<path d="M16.1052 14.0488H15.3252V14.8288H16.1052V14.0488Z" fill="black"/>
<path d="M16.1052 13.2763H15.3252V14.0488H16.1052V13.2763Z" fill="#A7A7A8"/>
<path d="M16.1052 12.495H15.3252V13.275H16.1052V12.495Z" fill="#A7A7A8"/>
<path d="M16.1052 11.7225H15.3252V12.495H16.1052V11.7225Z" fill="#A7A7A8"/>
<path d="M16.1052 10.9425H15.3252V11.7225H16.1052V10.9425Z" fill="#FF0000"/>
<path d="M15.3238 23.3763H14.5513V24.1563H15.3238V23.3763Z" fill="#455360"/>
<path d="M15.3238 22.6038H14.5513V23.3763H15.3238V22.6038Z" fill="#455360"/>
<path d="M15.3238 21.8225H14.5513V22.6025H15.3238V21.8225Z" fill="#455360"/>
<path d="M15.3238 21.0425H14.5513V21.8225H15.3238V21.0425Z" fill="#455360"/>
<path d="M15.3238 14.8288H14.5513V15.6013H15.3238V14.8288Z" fill="#939393"/>
<path d="M15.3238 14.0488H14.5513V14.8288H15.3238V14.0488Z" fill="#A7A7A8"/>
<path d="M15.3238 13.2763H14.5513V14.0488H15.3238V13.2763Z" fill="#A7A7A8"/>
<path d="M15.3238 12.495H14.5513V13.275H15.3238V12.495Z" fill="black"/>
<path d="M15.3238 11.7225H14.5513V12.495H15.3238V11.7225Z" fill="#939393"/>
<path d="M14.5515 14.0488H13.7715V14.8288H14.5515V14.0488Z" fill="#939393"/>
<path d="M14.5515 13.2763H13.7715V14.0488H14.5515V13.2763Z" fill="#939393"/>
<path d="M14.5515 12.495H13.7715V13.275H14.5515V12.495Z" fill="#939393"/>
</g>
<defs>
<clipPath id="clip0_69_12155">
<rect width="50" height="50" fill="white"/>
</clipPath>
</defs>
</svg>
