<svg width="50" height="50" viewBox="0 0 50 50" fill="none" xmlns="http://www.w3.org/2000/svg">
<g clip-path="url(#clip0_69_12153)">
<path d="M24.9998 48.2225C37.8253 48.2225 48.2223 37.8254 48.2223 25C48.2223 12.1746 37.8253 1.7775 24.9998 1.7775C12.1744 1.7775 1.77734 12.1746 1.77734 25C1.77734 37.8254 12.1744 48.2225 24.9998 48.2225Z" fill="black"/>
<path d="M24.9998 49.0975C11.7123 49.0975 0.902344 38.2875 0.902344 25C0.902344 11.7125 11.7123 0.902496 24.9998 0.902496C38.2873 0.902496 49.0973 11.7125 49.0973 25C49.0973 38.2875 38.2873 49.0975 24.9998 49.0975ZM24.9998 2.6525C12.6773 2.6525 2.65234 12.6775 2.65234 25C2.65234 37.3225 12.6773 47.3475 24.9998 47.3475C37.3223 47.3475 47.3473 37.3225 47.3473 25C47.3473 12.6775 37.3223 2.6525 24.9998 2.6525Z" fill="#0D561B"/>
<path d="M38.5924 9.53H37.7861V10.345H38.5924V9.53Z" fill="black"/>
<path d="M38.5924 8.72375H37.7861V9.53H38.5924V8.72375Z" fill="black"/>
<path d="M37.7849 10.345H36.9712V11.1513H37.7849V10.345Z" fill="black"/>
<path d="M37.7849 9.53H36.9712V10.345H37.7849V9.53Z" fill="#416072"/>
<path d="M37.7849 8.72375H36.9712V9.53H37.7849V8.72375Z" fill="black"/>
<path d="M36.9711 27.3763H36.1636V28.19H36.9711V27.3763Z" fill="black"/>
<path d="M36.9711 11.1525H36.1636V11.9675H36.9711V11.1525Z" fill="black"/>
<path d="M36.9711 10.345H36.1636V11.1513H36.9711V10.345Z" fill="#2E4851"/>
<path d="M36.9711 9.53H36.1636V10.345H36.9711V9.53Z" fill="#416072"/>
<path d="M36.9711 8.72375H36.1636V9.53H36.9711V8.72375Z" fill="black"/>
<path d="M36.1638 28.19H35.3501V29.005H36.1638V28.19Z" fill="black"/>
<path d="M36.1638 27.3763H35.3501V28.19H36.1638V27.3763Z" fill="#E7BD00"/>
<path d="M36.1638 26.5688H35.3501V27.375H36.1638V26.5688Z" fill="black"/>
<path d="M36.1638 11.9675H35.3501V12.7737H36.1638V11.9675Z" fill="black"/>
<path d="M36.1638 11.1525H35.3501V11.9675H36.1638V11.1525Z" fill="#416072"/>
<path d="M36.1638 10.345H35.3501V11.1513H36.1638V10.345Z" fill="#2E4851"/>
<path d="M36.1638 9.53H35.3501V10.345H36.1638V9.53Z" fill="#607C89"/>
<path d="M36.1638 8.72375H35.3501V9.53H36.1638V8.72375Z" fill="black"/>
<path d="M35.3487 28.19H34.5425V29.005H35.3487V28.19Z" fill="black"/>
<path d="M35.3487 27.3763H34.5425V28.19H35.3487V27.3763Z" fill="#E7BD00"/>
<path d="M35.3487 26.5688H34.5425V27.375H35.3487V26.5688Z" fill="black"/>
<path d="M35.3487 12.7737H34.5425V13.5887H35.3487V12.7737Z" fill="black"/>
<path d="M35.3487 11.9675H34.5425V12.7737H35.3487V11.9675Z" fill="#416072"/>
<path d="M35.3487 11.1525H34.5425V11.9675H35.3487V11.1525Z" fill="#416072"/>
<path d="M35.3487 10.345H34.5425V11.1513H35.3487V10.345Z" fill="#2E4851"/>
<path d="M35.3487 9.53H34.5425V10.345H35.3487V9.53Z" fill="#607C89"/>
<path d="M35.3487 8.72375H34.5425V9.53H35.3487V8.72375Z" fill="black"/>
<path d="M34.5425 28.19H33.7275V29.005H34.5425V28.19Z" fill="black"/>
<path d="M34.5425 27.3763H33.7275V28.19H34.5425V27.3763Z" fill="black"/>
<path d="M34.5425 24.1325H33.7275V24.9475H34.5425V24.1325Z" fill="black"/>
<path d="M34.5425 23.3263H33.7275V24.1325H34.5425V23.3263Z" fill="black"/>
<path d="M34.5425 22.5113H33.7275V23.3263H34.5425V22.5113Z" fill="black"/>
<path d="M34.5425 21.705H33.7275V22.5113H34.5425V21.705Z" fill="black"/>
<path d="M34.5425 12.7737H33.7275V13.5887H34.5425V12.7737Z" fill="black"/>
<path d="M34.5425 11.9675H33.7275V12.7737H34.5425V11.9675Z" fill="#416072"/>
<path d="M34.5425 11.1525H33.7275V11.9675H34.5425V11.1525Z" fill="#2E4851"/>
<path d="M34.5425 10.345H33.7275V11.1513H34.5425V10.345Z" fill="#416072"/>
<path d="M34.5425 9.53H33.7275V10.345H34.5425V9.53Z" fill="#607C89"/>
<path d="M34.5425 8.72375H33.7275V9.53H34.5425V8.72375Z" fill="black"/>
<path d="M33.7276 29.005H32.9214V29.8113H33.7276V29.005Z" fill="black"/>
<path d="M33.7276 28.19H32.9214V29.005H33.7276V28.19Z" fill="#0D561B"/>
<path d="M33.7276 27.3763H32.9214V28.19H33.7276V27.3763Z" fill="#0D561B"/>
<path d="M33.7276 26.5688H32.9214V27.375H33.7276V26.5688Z" fill="black"/>
<path d="M33.7276 25.7538H32.9214V26.5688H33.7276V25.7538Z" fill="black"/>
<path d="M33.7276 24.9475H32.9214V25.7538H33.7276V24.9475Z" fill="black"/>
<path d="M33.7276 24.1325H32.9214V24.9475H33.7276V24.1325Z" fill="#0D561B"/>
<path d="M33.7276 23.3263H32.9214V24.1325H33.7276V23.3263Z" fill="#0D561B"/>
<path d="M33.7276 22.5113H32.9214V23.3263H33.7276V22.5113Z" fill="#5DA34B"/>
<path d="M33.7276 21.705H32.9214V22.5113H33.7276V21.705Z" fill="#0C4913"/>
<path d="M33.7276 20.89H32.9214V21.705H33.7276V20.89Z" fill="black"/>
<path d="M33.7276 12.7737H32.9214V13.5887H33.7276V12.7737Z" fill="black"/>
<path d="M33.7276 11.9675H32.9214V12.7737H33.7276V11.9675Z" fill="#416072"/>
<path d="M33.7276 11.1525H32.9214V11.9675H33.7276V11.1525Z" fill="#2E4851"/>
<path d="M33.7276 10.345H32.9214V11.1513H33.7276V10.345Z" fill="#416072"/>
<path d="M33.7276 9.53H32.9214V10.345H33.7276V9.53Z" fill="#607C89"/>
<path d="M33.7276 8.72375H32.9214V9.53H33.7276V8.72375Z" fill="black"/>
<path d="M32.921 40.3563H32.106V41.1713H32.921V40.3563Z" fill="black"/>
<path d="M32.921 29.8125H32.106V30.6275H32.921V29.8125Z" fill="black"/>
<path d="M32.921 29.005H32.106V29.8113H32.921V29.005Z" fill="#0D561B"/>
<path d="M32.921 28.19H32.106V29.005H32.921V28.19Z" fill="#0D561B"/>
<path d="M32.921 27.3763H32.106V28.19H32.921V27.3763Z" fill="#0D561B"/>
<path d="M32.921 26.5688H32.106V27.375H32.921V26.5688Z" fill="#0D561B"/>
<path d="M32.921 25.7538H32.106V26.5688H32.921V25.7538Z" fill="#0D561B"/>
<path d="M32.921 24.9475H32.106V25.7538H32.921V24.9475Z" fill="#0D561B"/>
<path d="M32.921 24.1325H32.106V24.9475H32.921V24.1325Z" fill="#0D561B"/>
<path d="M32.921 23.3263H32.106V24.1325H32.921V23.3263Z" fill="#0D561B"/>
<path d="M32.921 22.5113H32.106V23.3263H32.921V22.5113Z" fill="#5DA34B"/>
<path d="M32.921 21.705H32.106V22.5113H32.921V21.705Z" fill="#0C4913"/>
<path d="M32.921 20.89H32.106V21.705H32.921V20.89Z" fill="#429331"/>
<path d="M32.921 20.075H32.106V20.89H32.921V20.075Z" fill="black"/>
<path d="M32.921 19.2675H32.106V20.0738H32.921V19.2675Z" fill="black"/>
<path d="M32.921 12.7737H32.106V13.5887H32.921V12.7737Z" fill="black"/>
<path d="M32.921 11.9675H32.106V12.7737H32.921V11.9675Z" fill="#416072"/>
<path d="M32.921 11.1525H32.106V11.9675H32.921V11.1525Z" fill="#2E4851"/>
<path d="M32.921 10.345H32.106V11.1513H32.921V10.345Z" fill="#607C89"/>
<path d="M32.921 9.53H32.106V10.345H32.921V9.53Z" fill="#607C89"/>
<path d="M32.921 8.72375H32.106V9.53H32.921V8.72375Z" fill="black"/>
<path d="M32.1062 40.3563H31.2925V41.1713H32.1062V40.3563Z" fill="#429331"/>
<path d="M32.1062 39.55H31.2925V40.3562H32.1062V39.55Z" fill="black"/>
<path d="M32.1062 29.8125H31.2925V30.6275H32.1062V29.8125Z" fill="black"/>
<path d="M32.1062 29.005H31.2925V29.8113H32.1062V29.005Z" fill="#0D561B"/>
<path d="M32.1062 28.19H31.2925V29.005H32.1062V28.19Z" fill="#0D561B"/>
<path d="M32.1062 27.3763H31.2925V28.19H32.1062V27.3763Z" fill="#0D561B"/>
<path d="M32.1062 26.5688H31.2925V27.375H32.1062V26.5688Z" fill="#0D561B"/>
<path d="M32.1062 25.7538H31.2925V26.5688H32.1062V25.7538Z" fill="#0D561B"/>
<path d="M32.1062 24.9475H31.2925V25.7538H32.1062V24.9475Z" fill="#0D561B"/>
<path d="M32.1062 24.1325H31.2925V24.9475H32.1062V24.1325Z" fill="#0D561B"/>
<path d="M32.1062 23.3263H31.2925V24.1325H32.1062V23.3263Z" fill="#5DA34B"/>
<path d="M32.1062 22.5113H31.2925V23.3263H32.1062V22.5113Z" fill="#0C4913"/>
<path d="M32.1062 21.705H31.2925V22.5113H32.1062V21.705Z" fill="#429331"/>
<path d="M32.1062 20.89H31.2925V21.705H32.1062V20.89Z" fill="#429331"/>
<path d="M32.1062 20.075H31.2925V20.89H32.1062V20.075Z" fill="#5DA34B"/>
<path d="M32.1062 19.2675H31.2925V20.0738H32.1062V19.2675Z" fill="#0C4913"/>
<path d="M32.1062 18.4525H31.2925V19.2675H32.1062V18.4525Z" fill="black"/>
<path d="M32.1062 17.6462H31.2925V18.4525H32.1062V17.6462Z" fill="black"/>
<path d="M32.1062 13.5887H31.2925V14.395H32.1062V13.5887Z" fill="black"/>
<path d="M32.1062 12.7737H31.2925V13.5887H32.1062V12.7737Z" fill="#416072"/>
<path d="M32.1062 11.9675H31.2925V12.7737H32.1062V11.9675Z" fill="#2E4851"/>
<path d="M32.1062 11.1525H31.2925V11.9675H32.1062V11.1525Z" fill="#416072"/>
<path d="M32.1062 10.345H31.2925V11.1513H32.1062V10.345Z" fill="#607C89"/>
<path d="M32.1062 9.53H31.2925V10.345H32.1062V9.53Z" fill="black"/>
<path d="M31.2914 40.3563H30.4839V41.1713H31.2914V40.3563Z" fill="#5BAF43"/>
<path d="M31.2914 39.55H30.4839V40.3562H31.2914V39.55Z" fill="#429331"/>
<path d="M31.2914 38.735H30.4839V39.5488H31.2914V38.735Z" fill="black"/>
<path d="M31.2914 37.9275H30.4839V38.735H31.2914V37.9275Z" fill="black"/>
<path d="M31.2914 37.1138H30.4839V37.9275H31.2914V37.1138Z" fill="black"/>
<path d="M31.2914 29.8125H30.4839V30.6275H31.2914V29.8125Z" fill="black"/>
<path d="M31.2914 29.005H30.4839V29.8113H31.2914V29.005Z" fill="black"/>
<path d="M31.2914 28.19H30.4839V29.005H31.2914V28.19Z" fill="#0D561B"/>
<path d="M31.2914 27.3763H30.4839V28.19H31.2914V27.3763Z" fill="black"/>
<path d="M31.2914 26.5688H30.4839V27.375H31.2914V26.5688Z" fill="black"/>
<path d="M31.2914 25.7538H30.4839V26.5688H31.2914V25.7538Z" fill="black"/>
<path d="M31.2914 24.9475H30.4839V25.7538H31.2914V24.9475Z" fill="black"/>
<path d="M31.2914 24.1325H30.4839V24.9475H31.2914V24.1325Z" fill="black"/>
<path d="M31.2914 23.3263H30.4839V24.1325H31.2914V23.3263Z" fill="#0C4913"/>
<path d="M31.2914 22.5113H30.4839V23.3263H31.2914V22.5113Z" fill="#429331"/>
<path d="M31.2914 21.705H30.4839V22.5113H31.2914V21.705Z" fill="#429331"/>
<path d="M31.2914 20.89H30.4839V21.705H31.2914V20.89Z" fill="#5DA34B"/>
<path d="M31.2914 20.075H30.4839V20.89H31.2914V20.075Z" fill="#5DA34B"/>
<path d="M31.2914 19.2675H30.4839V20.0738H31.2914V19.2675Z" fill="#0C4913"/>
<path d="M31.2914 18.4525H30.4839V19.2675H31.2914V18.4525Z" fill="#429331"/>
<path d="M31.2914 17.6462H30.4839V18.4525H31.2914V17.6462Z" fill="#429331"/>
<path d="M31.2914 16.8313H30.4839V17.6463H31.2914V16.8313Z" fill="black"/>
<path d="M31.2914 13.5887H30.4839V14.395H31.2914V13.5887Z" fill="black"/>
<path d="M31.2914 12.7737H30.4839V13.5887H31.2914V12.7737Z" fill="#416072"/>
<path d="M31.2914 11.9675H30.4839V12.7737H31.2914V11.9675Z" fill="#2E4851"/>
<path d="M31.2914 11.1525H30.4839V11.9675H31.2914V11.1525Z" fill="#416072"/>
<path d="M31.2914 10.345H30.4839V11.1513H31.2914V10.345Z" fill="#607C89"/>
<path d="M31.2914 9.53H30.4839V10.345H31.2914V9.53Z" fill="black"/>
<path d="M30.4851 40.3563H29.6714V41.1713H30.4851V40.3563Z" fill="#5BAF43"/>
<path d="M30.4851 39.55H29.6714V40.3562H30.4851V39.55Z" fill="#429331"/>
<path d="M30.4851 38.735H29.6714V39.5488H30.4851V38.735Z" fill="#0C4913"/>
<path d="M30.4851 37.9275H29.6714V38.735H30.4851V37.9275Z" fill="#429331"/>
<path d="M30.4851 37.1138H29.6714V37.9275H30.4851V37.1138Z" fill="#429331"/>
<path d="M30.4851 36.3062H29.6714V37.1125H30.4851V36.3062Z" fill="black"/>
<path d="M30.4851 35.4912H29.6714V36.3062H30.4851V35.4912Z" fill="black"/>
<path d="M30.4851 34.685H29.6714V35.4912H30.4851V34.685Z" fill="black"/>
<path d="M30.4851 33.87H29.6714V34.685H30.4851V33.87Z" fill="black"/>
<path d="M30.4851 33.0562H29.6714V33.87H30.4851V33.0562Z" fill="black"/>
<path d="M30.4851 30.6275H29.6714V31.4338H30.4851V30.6275Z" fill="black"/>
<path d="M30.4851 29.8125H29.6714V30.6275H30.4851V29.8125Z" fill="#E7BD00"/>
<path d="M30.4851 29.005H29.6714V29.8113H30.4851V29.005Z" fill="#E7BD00"/>
<path d="M30.4851 28.19H29.6714V29.005H30.4851V28.19Z" fill="black"/>
<path d="M30.4851 24.1325H29.6714V24.9475H30.4851V24.1325Z" fill="black"/>
<path d="M30.4851 23.3263H29.6714V24.1325H30.4851V23.3263Z" fill="black"/>
<path d="M30.4851 22.5113H29.6714V23.3263H30.4851V22.5113Z" fill="black"/>
<path d="M30.4851 21.705H29.6714V22.5113H30.4851V21.705Z" fill="#5DA34B"/>
<path d="M30.4851 20.89H29.6714V21.705H30.4851V20.89Z" fill="#5DA34B"/>
<path d="M30.4851 20.075H29.6714V20.89H30.4851V20.075Z" fill="#0C4913"/>
<path d="M30.4851 19.2675H29.6714V20.0738H30.4851V19.2675Z" fill="#5DA34B"/>
<path d="M30.4851 18.4525H29.6714V19.2675H30.4851V18.4525Z" fill="#429331"/>
<path d="M30.4851 17.6462H29.6714V18.4525H30.4851V17.6462Z" fill="#429331"/>
<path d="M30.4851 16.8313H29.6714V17.6463H30.4851V16.8313Z" fill="#0C4913"/>
<path d="M30.4851 16.025H29.6714V16.8312H30.4851V16.025Z" fill="black"/>
<path d="M30.4851 13.5887H29.6714V14.395H30.4851V13.5887Z" fill="black"/>
<path d="M30.4851 12.7737H29.6714V13.5887H30.4851V12.7737Z" fill="#416072"/>
<path d="M30.4851 11.9675H29.6714V12.7737H30.4851V11.9675Z" fill="#2E4851"/>
<path d="M30.4851 11.1525H29.6714V11.9675H30.4851V11.1525Z" fill="#416072"/>
<path d="M30.4851 10.345H29.6714V11.1513H30.4851V10.345Z" fill="#607C89"/>
<path d="M30.4851 9.53H29.6714V10.345H30.4851V9.53Z" fill="black"/>
<path d="M29.67 40.3563H28.8638V41.1713H29.67V40.3563Z" fill="#429331"/>
<path d="M29.67 39.55H28.8638V40.3562H29.67V39.55Z" fill="#0C4913"/>
<path d="M29.67 38.735H28.8638V39.5488H29.67V38.735Z" fill="#429331"/>
<path d="M29.67 37.9275H28.8638V38.735H29.67V37.9275Z" fill="#429331"/>
<path d="M29.67 37.1138H28.8638V37.9275H29.67V37.1138Z" fill="#429331"/>
<path d="M29.67 36.3062H28.8638V37.1125H29.67V36.3062Z" fill="#0C4913"/>
<path d="M29.67 35.4912H28.8638V36.3062H29.67V35.4912Z" fill="#0C4913"/>
<path d="M29.67 34.685H28.8638V35.4912H29.67V34.685Z" fill="#0C4913"/>
<path d="M29.67 33.87H28.8638V34.685H29.67V33.87Z" fill="#5BAF43"/>
<path d="M29.67 33.0562H28.8638V33.87H29.67V33.0562Z" fill="#429331"/>
<path d="M29.67 32.2475H28.8638V33.055H29.67V32.2475Z" fill="black"/>
<path d="M29.67 31.4337H28.8638V32.2475H29.67V31.4337Z" fill="black"/>
<path d="M29.67 30.6275H28.8638V31.4338H29.67V30.6275Z" fill="#416072"/>
<path d="M29.67 29.8125H28.8638V30.6275H29.67V29.8125Z" fill="#416072"/>
<path d="M29.67 29.005H28.8638V29.8113H29.67V29.005Z" fill="#E7BD00"/>
<path d="M29.67 28.19H28.8638V29.005H29.67V28.19Z" fill="black"/>
<path d="M29.67 21.705H28.8638V22.5113H29.67V21.705Z" fill="black"/>
<path d="M29.67 20.89H28.8638V21.705H29.67V20.89Z" fill="#0C4913"/>
<path d="M29.67 20.075H28.8638V20.89H29.67V20.075Z" fill="#5DA34B"/>
<path d="M29.67 19.2675H28.8638V20.0738H29.67V19.2675Z" fill="#429331"/>
<path d="M29.67 18.4525H28.8638V19.2675H29.67V18.4525Z" fill="#429331"/>
<path d="M29.67 17.6462H28.8638V18.4525H29.67V17.6462Z" fill="#429331"/>
<path d="M29.67 16.8313H28.8638V17.6463H29.67V16.8313Z" fill="#429331"/>
<path d="M29.67 16.025H28.8638V16.8312H29.67V16.025Z" fill="black"/>
<path d="M29.67 14.395H28.8638V15.21H29.67V14.395Z" fill="black"/>
<path d="M29.67 13.5887H28.8638V14.395H29.67V13.5887Z" fill="#416072"/>
<path d="M29.67 12.7737H28.8638V13.5887H29.67V12.7737Z" fill="#2E4851"/>
<path d="M29.67 11.9675H28.8638V12.7737H29.67V11.9675Z" fill="#416072"/>
<path d="M29.67 11.1525H28.8638V11.9675H29.67V11.1525Z" fill="#607C89"/>
<path d="M29.67 10.345H28.8638V11.1513H29.67V10.345Z" fill="black"/>
<path d="M28.8638 40.3563H28.0488V41.1713H28.8638V40.3563Z" fill="black"/>
<path d="M28.8638 39.55H28.0488V40.3562H28.8638V39.55Z" fill="black"/>
<path d="M28.8638 38.735H28.0488V39.5488H28.8638V38.735Z" fill="#429331"/>
<path d="M28.8638 37.9275H28.0488V38.735H28.8638V37.9275Z" fill="#429331"/>
<path d="M28.8638 37.1138H28.0488V37.9275H28.8638V37.1138Z" fill="#429331"/>
<path d="M28.8638 36.3062H28.0488V37.1125H28.8638V36.3062Z" fill="#5BAF43"/>
<path d="M28.8638 35.4912H28.0488V36.3062H28.8638V35.4912Z" fill="#0C4913"/>
<path d="M28.8638 34.685H28.0488V35.4912H28.8638V34.685Z" fill="#5BAF43"/>
<path d="M28.8638 33.87H28.0488V34.685H28.8638V33.87Z" fill="#5BAF43"/>
<path d="M28.8638 33.0562H28.0488V33.87H28.8638V33.0562Z" fill="#429331"/>
<path d="M28.8638 32.2475H28.0488V33.055H28.8638V32.2475Z" fill="#429331"/>
<path d="M28.8638 31.4337H28.0488V32.2475H28.8638V31.4337Z" fill="black"/>
<path d="M28.8638 30.6275H28.0488V31.4338H28.8638V30.6275Z" fill="#416072"/>
<path d="M28.8638 29.8125H28.0488V30.6275H28.8638V29.8125Z" fill="#416072"/>
<path d="M28.8638 29.005H28.0488V29.8113H28.8638V29.005Z" fill="black"/>
<path d="M28.8638 28.19H28.0488V29.005H28.8638V28.19Z" fill="#0C4913"/>
<path d="M28.8638 27.3763H28.0488V28.19H28.8638V27.3763Z" fill="black"/>
<path d="M28.8638 26.5688H28.0488V27.375H28.8638V26.5688Z" fill="black"/>
<path d="M28.8638 25.7538H28.0488V26.5688H28.8638V25.7538Z" fill="black"/>
<path d="M28.8638 24.9475H28.0488V25.7538H28.8638V24.9475Z" fill="black"/>
<path d="M28.8638 20.89H28.0488V21.705H28.8638V20.89Z" fill="black"/>
<path d="M28.8638 20.075H28.0488V20.89H28.8638V20.075Z" fill="#0C4913"/>
<path d="M28.8638 19.2675H28.0488V20.0738H28.8638V19.2675Z" fill="#0C4913"/>
<path d="M28.8638 18.4525H28.0488V19.2675H28.8638V18.4525Z" fill="#0C4913"/>
<path d="M28.8638 17.6462H28.0488V18.4525H28.8638V17.6462Z" fill="#429331"/>
<path d="M28.8638 16.8313H28.0488V17.6463H28.8638V16.8313Z" fill="#429331"/>
<path d="M28.8638 16.025H28.0488V16.8312H28.8638V16.025Z" fill="black"/>
<path d="M28.8638 14.395H28.0488V15.21H28.8638V14.395Z" fill="black"/>
<path d="M28.8638 13.5887H28.0488V14.395H28.8638V13.5887Z" fill="#416072"/>
<path d="M28.8638 12.7737H28.0488V13.5887H28.8638V12.7737Z" fill="#2E4851"/>
<path d="M28.8638 11.9675H28.0488V12.7737H28.8638V11.9675Z" fill="#416072"/>
<path d="M28.8638 11.1525H28.0488V11.9675H28.8638V11.1525Z" fill="#607C89"/>
<path d="M28.8638 10.345H28.0488V11.1513H28.8638V10.345Z" fill="black"/>
<path d="M28.0475 38.735H27.2412V39.5488H28.0475V38.735Z" fill="black"/>
<path d="M28.0475 37.9275H27.2412V38.735H28.0475V37.9275Z" fill="black"/>
<path d="M28.0475 37.1138H27.2412V37.9275H28.0475V37.1138Z" fill="black"/>
<path d="M28.0475 36.3062H27.2412V37.1125H28.0475V36.3062Z" fill="#5BAF43"/>
<path d="M28.0475 35.4912H27.2412V36.3062H28.0475V35.4912Z" fill="#5BAF43"/>
<path d="M28.0475 34.685H27.2412V35.4912H28.0475V34.685Z" fill="#5BAF43"/>
<path d="M28.0475 33.87H27.2412V34.685H28.0475V33.87Z" fill="#429331"/>
<path d="M28.0475 33.0562H27.2412V33.87H28.0475V33.0562Z" fill="#429331"/>
<path d="M28.0475 32.2475H27.2412V33.055H28.0475V32.2475Z" fill="black"/>
<path d="M28.0475 31.4337H27.2412V32.2475H28.0475V31.4337Z" fill="#416072"/>
<path d="M28.0475 30.6275H27.2412V31.4338H28.0475V30.6275Z" fill="#416072"/>
<path d="M28.0475 29.8125H27.2412V30.6275H28.0475V29.8125Z" fill="#2E4851"/>
<path d="M28.0475 29.005H27.2412V29.8113H28.0475V29.005Z" fill="black"/>
<path d="M28.0475 28.19H27.2412V29.005H28.0475V28.19Z" fill="#0C4913"/>
<path d="M28.0475 27.3763H27.2412V28.19H28.0475V27.3763Z" fill="#0D561B"/>
<path d="M28.0475 26.5688H27.2412V27.375H28.0475V26.5688Z" fill="#14661E"/>
<path d="M28.0475 25.7538H27.2412V26.5688H28.0475V25.7538Z" fill="#1F7227"/>
<path d="M28.0475 24.9475H27.2412V25.7538H28.0475V24.9475Z" fill="black"/>
<path d="M28.0475 24.1325H27.2412V24.9475H28.0475V24.1325Z" fill="black"/>
<path d="M28.0475 22.5113H27.2412V23.3263H28.0475V22.5113Z" fill="black"/>
<path d="M28.0475 21.705H27.2412V22.5113H28.0475V21.705Z" fill="black"/>
<path d="M28.0475 20.89H27.2412V21.705H28.0475V20.89Z" fill="#0C4913"/>
<path d="M28.0475 20.075H27.2412V20.89H28.0475V20.075Z" fill="#0C4913"/>
<path d="M28.0475 19.2675H27.2412V20.0738H28.0475V19.2675Z" fill="#0C4913"/>
<path d="M28.0475 18.4525H27.2412V19.2675H28.0475V18.4525Z" fill="#429331"/>
<path d="M28.0475 17.6462H27.2412V18.4525H28.0475V17.6462Z" fill="#429331"/>
<path d="M28.0475 16.8313H27.2412V17.6463H28.0475V16.8313Z" fill="#0C4913"/>
<path d="M28.0475 16.025H27.2412V16.8312H28.0475V16.025Z" fill="#429331"/>
<path d="M28.0475 15.21H27.2412V16.025H28.0475V15.21Z" fill="black"/>
<path d="M28.0475 14.395H27.2412V15.21H28.0475V14.395Z" fill="black"/>
<path d="M28.0475 13.5887H27.2412V14.395H28.0475V13.5887Z" fill="#416072"/>
<path d="M28.0475 12.7737H27.2412V13.5887H28.0475V12.7737Z" fill="#2E4851"/>
<path d="M28.0475 11.9675H27.2412V12.7737H28.0475V11.9675Z" fill="#416072"/>
<path d="M28.0475 11.1525H27.2412V11.9675H28.0475V11.1525Z" fill="#607C89"/>
<path d="M28.0475 10.345H27.2412V11.1513H28.0475V10.345Z" fill="black"/>
<path d="M27.2422 36.3062H26.4272V37.1125H27.2422V36.3062Z" fill="black"/>
<path d="M27.2422 35.4912H26.4272V36.3062H27.2422V35.4912Z" fill="black"/>
<path d="M27.2422 34.685H26.4272V35.4912H27.2422V34.685Z" fill="black"/>
<path d="M27.2422 33.87H26.4272V34.685H27.2422V33.87Z" fill="#429331"/>
<path d="M27.2422 33.0562H26.4272V33.87H27.2422V33.0562Z" fill="#429331"/>
<path d="M27.2422 32.2475H26.4272V33.055H27.2422V32.2475Z" fill="black"/>
<path d="M27.2422 31.4337H26.4272V32.2475H27.2422V31.4337Z" fill="#416072"/>
<path d="M27.2422 30.6275H26.4272V31.4338H27.2422V30.6275Z" fill="#2E4851"/>
<path d="M27.2422 29.8125H26.4272V30.6275H27.2422V29.8125Z" fill="black"/>
<path d="M27.2422 29.005H26.4272V29.8113H27.2422V29.005Z" fill="#0C4913"/>
<path d="M27.2422 28.19H26.4272V29.005H27.2422V28.19Z" fill="#0D561B"/>
<path d="M27.2422 27.3763H26.4272V28.19H27.2422V27.3763Z" fill="#0D561B"/>
<path d="M27.2422 26.5688H26.4272V27.375H27.2422V26.5688Z" fill="#14661E"/>
<path d="M27.2422 25.7538H26.4272V26.5688H27.2422V25.7538Z" fill="#14661E"/>
<path d="M27.2422 24.9475H26.4272V25.7538H27.2422V24.9475Z" fill="black"/>
<path d="M27.2422 24.1325H26.4272V24.9475H27.2422V24.1325Z" fill="#0C4913"/>
<path d="M27.2422 23.3263H26.4272V24.1325H27.2422V23.3263Z" fill="black"/>
<path d="M27.2422 22.5113H26.4272V23.3263H27.2422V22.5113Z" fill="#0C4913"/>
<path d="M27.2422 21.705H26.4272V22.5113H27.2422V21.705Z" fill="#0C4913"/>
<path d="M27.2422 20.89H26.4272V21.705H27.2422V20.89Z" fill="#0C4913"/>
<path d="M27.2422 20.075H26.4272V20.89H27.2422V20.075Z" fill="#0C4913"/>
<path d="M27.2422 19.2675H26.4272V20.0738H27.2422V19.2675Z" fill="#429331"/>
<path d="M27.2422 18.4525H26.4272V19.2675H27.2422V18.4525Z" fill="#429331"/>
<path d="M27.2422 17.6462H26.4272V18.4525H27.2422V17.6462Z" fill="#0C4913"/>
<path d="M27.2422 16.8313H26.4272V17.6463H27.2422V16.8313Z" fill="#429331"/>
<path d="M27.2422 16.025H26.4272V16.8312H27.2422V16.025Z" fill="#429331"/>
<path d="M27.2422 15.21H26.4272V16.025H27.2422V15.21Z" fill="black"/>
<path d="M27.2422 14.395H26.4272V15.21H27.2422V14.395Z" fill="black"/>
<path d="M27.2422 13.5887H26.4272V14.395H27.2422V13.5887Z" fill="black"/>
<path d="M27.2422 12.7737H26.4272V13.5887H27.2422V12.7737Z" fill="black"/>
<path d="M27.2422 11.9675H26.4272V12.7737H27.2422V11.9675Z" fill="black"/>
<path d="M27.2422 11.1525H26.4272V11.9675H27.2422V11.1525Z" fill="black"/>
<path d="M26.4261 33.87H25.6123V34.685H26.4261V33.87Z" fill="black"/>
<path d="M26.4261 33.0562H25.6123V33.87H26.4261V33.0562Z" fill="black"/>
<path d="M26.4261 32.2475H25.6123V33.055H26.4261V32.2475Z" fill="black"/>
<path d="M26.4261 31.4337H25.6123V32.2475H26.4261V31.4337Z" fill="#416072"/>
<path d="M26.4261 30.6275H25.6123V31.4338H26.4261V30.6275Z" fill="#2E4851"/>
<path d="M26.4261 29.8125H25.6123V30.6275H26.4261V29.8125Z" fill="black"/>
<path d="M26.4261 29.005H25.6123V29.8113H26.4261V29.005Z" fill="#0C4913"/>
<path d="M26.4261 28.19H25.6123V29.005H26.4261V28.19Z" fill="#0D561B"/>
<path d="M26.4261 27.3763H25.6123V28.19H26.4261V27.3763Z" fill="#0D561B"/>
<path d="M26.4261 26.5688H25.6123V27.375H26.4261V26.5688Z" fill="#0D561B"/>
<path d="M26.4261 25.7538H25.6123V26.5688H26.4261V25.7538Z" fill="#14661E"/>
<path d="M26.4261 24.9475H25.6123V25.7538H26.4261V24.9475Z" fill="black"/>
<path d="M26.4261 24.1325H25.6123V24.9475H26.4261V24.1325Z" fill="#0C4913"/>
<path d="M26.4261 23.3263H25.6123V24.1325H26.4261V23.3263Z" fill="#0C4913"/>
<path d="M26.4261 22.5113H25.6123V23.3263H26.4261V22.5113Z" fill="#0C4913"/>
<path d="M26.4261 21.705H25.6123V22.5113H26.4261V21.705Z" fill="#0C4913"/>
<path d="M26.4261 20.89H25.6123V21.705H26.4261V20.89Z" fill="#429331"/>
<path d="M26.4261 20.075H25.6123V20.89H26.4261V20.075Z" fill="#429331"/>
<path d="M26.4261 19.2675H25.6123V20.0738H26.4261V19.2675Z" fill="#0C4913"/>
<path d="M26.4261 18.4525H25.6123V19.2675H26.4261V18.4525Z" fill="#0C4913"/>
<path d="M26.4261 17.6462H25.6123V18.4525H26.4261V17.6462Z" fill="#0C4913"/>
<path d="M26.4261 16.8313H25.6123V17.6463H26.4261V16.8313Z" fill="#429331"/>
<path d="M26.4261 16.025H25.6123V16.8312H26.4261V16.025Z" fill="#0C4913"/>
<path d="M26.4261 15.21H25.6123V16.025H26.4261V15.21Z" fill="#0C4913"/>
<path d="M26.4261 14.395H25.6123V15.21H26.4261V14.395Z" fill="#0C4913"/>
<path d="M26.4261 13.5887H25.6123V14.395H26.4261V13.5887Z" fill="black"/>
<path d="M26.4261 12.7737H25.6123V13.5887H26.4261V12.7737Z" fill="#0C4913"/>
<path d="M26.4261 11.9675H25.6123V12.7737H26.4261V11.9675Z" fill="black"/>
<path d="M26.4261 11.1525H25.6123V11.9675H26.4261V11.1525Z" fill="#429331"/>
<path d="M26.4261 10.345H25.6123V11.1513H26.4261V10.345Z" fill="black"/>
<path d="M25.6109 33.0562H24.8047V33.87H25.6109V33.0562Z" fill="black"/>
<path d="M25.6109 32.2475H24.8047V33.055H25.6109V32.2475Z" fill="#416072"/>
<path d="M25.6109 31.4337H24.8047V32.2475H25.6109V31.4337Z" fill="#2E4851"/>
<path d="M25.6109 30.6275H24.8047V31.4338H25.6109V30.6275Z" fill="#416072"/>
<path d="M25.6109 29.8125H24.8047V30.6275H25.6109V29.8125Z" fill="black"/>
<path d="M25.6109 29.005H24.8047V29.8113H25.6109V29.005Z" fill="#0C4913"/>
<path d="M25.6109 28.19H24.8047V29.005H25.6109V28.19Z" fill="#0D561B"/>
<path d="M25.6109 27.3763H24.8047V28.19H25.6109V27.3763Z" fill="#0D561B"/>
<path d="M25.6109 26.5688H24.8047V27.375H25.6109V26.5688Z" fill="#14661E"/>
<path d="M25.6109 25.7538H24.8047V26.5688H25.6109V25.7538Z" fill="black"/>
<path d="M25.6109 24.9475H24.8047V25.7538H25.6109V24.9475Z" fill="#429331"/>
<path d="M25.6109 24.1325H24.8047V24.9475H25.6109V24.1325Z" fill="#429331"/>
<path d="M25.6109 23.3263H24.8047V24.1325H25.6109V23.3263Z" fill="#0C4913"/>
<path d="M25.6109 22.5113H24.8047V23.3263H25.6109V22.5113Z" fill="#0C4913"/>
<path d="M25.6109 21.705H24.8047V22.5113H25.6109V21.705Z" fill="#0C4913"/>
<path d="M25.6109 20.89H24.8047V21.705H25.6109V20.89Z" fill="#5DA34B"/>
<path d="M25.6109 20.075H24.8047V20.89H25.6109V20.075Z" fill="#429331"/>
<path d="M25.6109 19.2675H24.8047V20.0738H25.6109V19.2675Z" fill="#0C4913"/>
<path d="M25.6109 18.4525H24.8047V19.2675H25.6109V18.4525Z" fill="#0C4913"/>
<path d="M25.6109 17.6462H24.8047V18.4525H25.6109V17.6462Z" fill="#0C4913"/>
<path d="M25.6109 16.8313H24.8047V17.6463H25.6109V16.8313Z" fill="#0C4913"/>
<path d="M25.6109 16.025H24.8047V16.8312H25.6109V16.025Z" fill="#0C4913"/>
<path d="M25.6109 15.21H24.8047V16.025H25.6109V15.21Z" fill="#429331"/>
<path d="M25.6109 14.395H24.8047V15.21H25.6109V14.395Z" fill="#429331"/>
<path d="M25.6109 13.5887H24.8047V14.395H25.6109V13.5887Z" fill="#429331"/>
<path d="M25.6109 12.7737H24.8047V13.5887H25.6109V12.7737Z" fill="#429331"/>
<path d="M25.6109 11.9675H24.8047V12.7737H25.6109V11.9675Z" fill="#429331"/>
<path d="M25.6109 11.1525H24.8047V11.9675H25.6109V11.1525Z" fill="#429331"/>
<path d="M25.6109 10.345H24.8047V11.1513H25.6109V10.345Z" fill="black"/>
<path d="M24.8047 33.0562H23.9897V33.87H24.8047V33.0562Z" fill="black"/>
<path d="M24.8047 32.2475H23.9897V33.055H24.8047V32.2475Z" fill="#416072"/>
<path d="M24.8047 31.4337H23.9897V32.2475H24.8047V31.4337Z" fill="#2E4851"/>
<path d="M24.8047 30.6275H23.9897V31.4338H24.8047V30.6275Z" fill="black"/>
<path d="M24.8047 29.8125H23.9897V30.6275H24.8047V29.8125Z" fill="#0C4913"/>
<path d="M24.8047 29.005H23.9897V29.8113H24.8047V29.005Z" fill="#0D561B"/>
<path d="M24.8047 28.19H23.9897V29.005H24.8047V28.19Z" fill="#0D561B"/>
<path d="M24.8047 27.3763H23.9897V28.19H24.8047V27.3763Z" fill="#0D561B"/>
<path d="M24.8047 26.5688H23.9897V27.375H24.8047V26.5688Z" fill="#14661E"/>
<path d="M24.8047 25.7538H23.9897V26.5688H24.8047V25.7538Z" fill="black"/>
<path d="M24.8047 24.9475H23.9897V25.7538H24.8047V24.9475Z" fill="#429331"/>
<path d="M24.8047 24.1325H23.9897V24.9475H24.8047V24.1325Z" fill="#429331"/>
<path d="M24.8047 23.3263H23.9897V24.1325H24.8047V23.3263Z" fill="#429331"/>
<path d="M24.8047 22.5113H23.9897V23.3263H24.8047V22.5113Z" fill="#0C4913"/>
<path d="M24.8047 21.705H23.9897V22.5113H24.8047V21.705Z" fill="#0C4913"/>
<path d="M24.8047 20.89H23.9897V21.705H24.8047V20.89Z" fill="#5DA34B"/>
<path d="M24.8047 20.075H23.9897V20.89H24.8047V20.075Z" fill="#429331"/>
<path d="M24.8047 19.2675H23.9897V20.0738H24.8047V19.2675Z" fill="#0C4913"/>
<path d="M24.8047 18.4525H23.9897V19.2675H24.8047V18.4525Z" fill="#073A0F"/>
<path d="M24.8047 17.6462H23.9897V18.4525H24.8047V17.6462Z" fill="#073A0F"/>
<path d="M24.8047 16.8313H23.9897V17.6463H24.8047V16.8313Z" fill="#429331"/>
<path d="M24.8047 16.025H23.9897V16.8312H24.8047V16.025Z" fill="#429331"/>
<path d="M24.8047 15.21H23.9897V16.025H24.8047V15.21Z" fill="#0C4913"/>
<path d="M24.8047 14.395H23.9897V15.21H24.8047V14.395Z" fill="#429331"/>
<path d="M24.8047 13.5887H23.9897V14.395H24.8047V13.5887Z" fill="black"/>
<path d="M24.8047 12.7737H23.9897V13.5887H24.8047V12.7737Z" fill="#429331"/>
<path d="M24.8047 11.9675H23.9897V12.7737H24.8047V11.9675Z" fill="black"/>
<path d="M24.8047 11.1525H23.9897V11.9675H24.8047V11.1525Z" fill="#5BAF43"/>
<path d="M24.8047 10.345H23.9897V11.1513H24.8047V10.345Z" fill="black"/>
<path d="M23.9898 37.9275H23.1836V38.735H23.9898V37.9275Z" fill="black"/>
<path d="M23.9898 37.1138H23.1836V37.9275H23.9898V37.1138Z" fill="black"/>
<path d="M23.9898 36.3062H23.1836V37.1125H23.9898V36.3062Z" fill="black"/>
<path d="M23.9898 35.4912H23.1836V36.3062H23.9898V35.4912Z" fill="black"/>
<path d="M23.9898 34.685H23.1836V35.4912H23.9898V34.685Z" fill="black"/>
<path d="M23.9898 33.87H23.1836V34.685H23.9898V33.87Z" fill="black"/>
<path d="M23.9898 33.0562H23.1836V33.87H23.9898V33.0562Z" fill="black"/>
<path d="M23.9898 32.2475H23.1836V33.055H23.9898V32.2475Z" fill="#416072"/>
<path d="M23.9898 31.4337H23.1836V32.2475H23.9898V31.4337Z" fill="#2E4851"/>
<path d="M23.9898 30.6275H23.1836V31.4338H23.9898V30.6275Z" fill="black"/>
<path d="M23.9898 29.8125H23.1836V30.6275H23.9898V29.8125Z" fill="#0C4913"/>
<path d="M23.9898 29.005H23.1836V29.8113H23.9898V29.005Z" fill="#0D561B"/>
<path d="M23.9898 28.19H23.1836V29.005H23.9898V28.19Z" fill="#0D561B"/>
<path d="M23.9898 27.3763H23.1836V28.19H23.9898V27.3763Z" fill="#0D561B"/>
<path d="M23.9898 26.5688H23.1836V27.375H23.9898V26.5688Z" fill="#14661E"/>
<path d="M23.9898 25.7538H23.1836V26.5688H23.9898V25.7538Z" fill="black"/>
<path d="M23.9898 24.9475H23.1836V25.7538H23.9898V24.9475Z" fill="#0C4913"/>
<path d="M23.9898 24.1325H23.1836V24.9475H23.9898V24.1325Z" fill="#429331"/>
<path d="M23.9898 23.3263H23.1836V24.1325H23.9898V23.3263Z" fill="#429331"/>
<path d="M23.9898 22.5113H23.1836V23.3263H23.9898V22.5113Z" fill="#429331"/>
<path d="M23.9898 21.705H23.1836V22.5113H23.9898V21.705Z" fill="#0C4913"/>
<path d="M23.9898 20.89H23.1836V21.705H23.9898V20.89Z" fill="#5DA34B"/>
<path d="M23.9898 20.075H23.1836V20.89H23.9898V20.075Z" fill="#5DA34B"/>
<path d="M23.9898 19.2675H23.1836V20.0738H23.9898V19.2675Z" fill="#0C4913"/>
<path d="M23.9898 18.4525H23.1836V19.2675H23.9898V18.4525Z" fill="#073A0F"/>
<path d="M23.9898 17.6462H23.1836V18.4525H23.9898V17.6462Z" fill="#073A0F"/>
<path d="M23.9898 16.8313H23.1836V17.6463H23.9898V16.8313Z" fill="#429331"/>
<path d="M23.9898 16.025H23.1836V16.8312H23.9898V16.025Z" fill="#429331"/>
<path d="M23.9898 15.21H23.1836V16.025H23.9898V15.21Z" fill="#0C4913"/>
<path d="M23.9898 14.395H23.1836V15.21H23.9898V14.395Z" fill="#429331"/>
<path d="M23.9898 13.5887H23.1836V14.395H23.9898V13.5887Z" fill="black"/>
<path d="M23.9898 12.7737H23.1836V13.5887H23.9898V12.7737Z" fill="#429331"/>
<path d="M23.9898 11.9675H23.1836V12.7737H23.9898V11.9675Z" fill="black"/>
<path d="M23.9898 11.1525H23.1836V11.9675H23.9898V11.1525Z" fill="#5BAF43"/>
<path d="M23.9898 10.345H23.1836V11.1513H23.9898V10.345Z" fill="black"/>
<path d="M23.1837 40.3563H22.3687V41.1713H23.1837V40.3563Z" fill="black"/>
<path d="M23.1837 39.55H22.3687V40.3562H23.1837V39.55Z" fill="black"/>
<path d="M23.1837 38.735H22.3687V39.5488H23.1837V38.735Z" fill="black"/>
<path d="M23.1837 37.9275H22.3687V38.735H23.1837V37.9275Z" fill="#429331"/>
<path d="M23.1837 37.1138H22.3687V37.9275H23.1837V37.1138Z" fill="#429331"/>
<path d="M23.1837 36.3062H22.3687V37.1125H23.1837V36.3062Z" fill="#429331"/>
<path d="M23.1837 35.4912H22.3687V36.3062H23.1837V35.4912Z" fill="#429331"/>
<path d="M23.1837 34.685H22.3687V35.4912H23.1837V34.685Z" fill="#0C4913"/>
<path d="M23.1837 33.87H22.3687V34.685H23.1837V33.87Z" fill="black"/>
<path d="M23.1837 33.0562H22.3687V33.87H23.1837V33.0562Z" fill="#416072"/>
<path d="M23.1837 32.2475H22.3687V33.055H23.1837V32.2475Z" fill="#2E4851"/>
<path d="M23.1837 31.4337H22.3687V32.2475H23.1837V31.4337Z" fill="#416072"/>
<path d="M23.1837 30.6275H22.3687V31.4338H23.1837V30.6275Z" fill="black"/>
<path d="M23.1837 29.8125H22.3687V30.6275H23.1837V29.8125Z" fill="#0C4913"/>
<path d="M23.1837 29.005H22.3687V29.8113H23.1837V29.005Z" fill="#0D561B"/>
<path d="M23.1837 28.19H22.3687V29.005H23.1837V28.19Z" fill="#0D561B"/>
<path d="M23.1837 27.3763H22.3687V28.19H23.1837V27.3763Z" fill="#0D561B"/>
<path d="M23.1837 26.5688H22.3687V27.375H23.1837V26.5688Z" fill="#0D561B"/>
<path d="M23.1837 25.7538H22.3687V26.5688H23.1837V25.7538Z" fill="#14661E"/>
<path d="M23.1837 24.9475H22.3687V25.7538H23.1837V24.9475Z" fill="black"/>
<path d="M23.1837 24.1325H22.3687V24.9475H23.1837V24.1325Z" fill="#429331"/>
<path d="M23.1837 23.3263H22.3687V24.1325H23.1837V23.3263Z" fill="#429331"/>
<path d="M23.1837 22.5113H22.3687V23.3263H23.1837V22.5113Z" fill="#0C4913"/>
<path d="M23.1837 21.705H22.3687V22.5113H23.1837V21.705Z" fill="#0C4913"/>
<path d="M23.1837 20.89H22.3687V21.705H23.1837V20.89Z" fill="#429331"/>
<path d="M23.1837 20.075H22.3687V20.89H23.1837V20.075Z" fill="#0C4913"/>
<path d="M23.1837 19.2675H22.3687V20.0738H23.1837V19.2675Z" fill="#0C4913"/>
<path d="M23.1837 18.4525H22.3687V19.2675H23.1837V18.4525Z" fill="#5DA34B"/>
<path d="M23.1837 17.6462H22.3687V18.4525H23.1837V17.6462Z" fill="#073A0F"/>
<path d="M23.1837 16.8313H22.3687V17.6463H23.1837V16.8313Z" fill="#429331"/>
<path d="M23.1837 16.025H22.3687V16.8312H23.1837V16.025Z" fill="#429331"/>
<path d="M23.1837 15.21H22.3687V16.025H23.1837V15.21Z" fill="#0C4913"/>
<path d="M23.1837 14.395H22.3687V15.21H23.1837V14.395Z" fill="#0C4913"/>
<path d="M23.1837 13.5887H22.3687V14.395H23.1837V13.5887Z" fill="#0C4913"/>
<path d="M23.1837 12.7737H22.3687V13.5887H23.1837V12.7737Z" fill="#0C4913"/>
<path d="M23.1837 11.9675H22.3687V12.7737H23.1837V11.9675Z" fill="#0C4913"/>
<path d="M23.1837 11.1525H22.3687V11.9675H23.1837V11.1525Z" fill="#5BAF43"/>
<path d="M23.1837 10.345H22.3687V11.1513H23.1837V10.345Z" fill="black"/>
<path d="M22.3687 40.3563H21.5625V41.1713H22.3687V40.3563Z" fill="#429331"/>
<path d="M22.3687 39.55H21.5625V40.3562H22.3687V39.55Z" fill="#0C4913"/>
<path d="M22.3687 38.735H21.5625V39.5488H22.3687V38.735Z" fill="#429331"/>
<path d="M22.3687 37.9275H21.5625V38.735H22.3687V37.9275Z" fill="#429331"/>
<path d="M22.3687 37.1138H21.5625V37.9275H22.3687V37.1138Z" fill="#429331"/>
<path d="M22.3687 36.3062H21.5625V37.1125H22.3687V36.3062Z" fill="#429331"/>
<path d="M22.3687 35.4912H21.5625V36.3062H22.3687V35.4912Z" fill="#0C4913"/>
<path d="M22.3687 34.685H21.5625V35.4912H22.3687V34.685Z" fill="#0C4913"/>
<path d="M22.3687 33.87H21.5625V34.685H22.3687V33.87Z" fill="black"/>
<path d="M22.3687 33.0562H21.5625V33.87H22.3687V33.0562Z" fill="#416072"/>
<path d="M22.3687 32.2475H21.5625V33.055H22.3687V32.2475Z" fill="#2E4851"/>
<path d="M22.3687 31.4337H21.5625V32.2475H22.3687V31.4337Z" fill="#416072"/>
<path d="M22.3687 30.6275H21.5625V31.4338H22.3687V30.6275Z" fill="black"/>
<path d="M22.3687 29.8125H21.5625V30.6275H22.3687V29.8125Z" fill="#0C4913"/>
<path d="M22.3687 29.005H21.5625V29.8113H22.3687V29.005Z" fill="#0D561B"/>
<path d="M22.3687 28.19H21.5625V29.005H22.3687V28.19Z" fill="#0D561B"/>
<path d="M22.3687 27.3763H21.5625V28.19H22.3687V27.3763Z" fill="#0D561B"/>
<path d="M22.3687 26.5688H21.5625V27.375H22.3687V26.5688Z" fill="#14661E"/>
<path d="M22.3687 25.7538H21.5625V26.5688H22.3687V25.7538Z" fill="black"/>
<path d="M22.3687 24.9475H21.5625V25.7538H22.3687V24.9475Z" fill="#0C4913"/>
<path d="M22.3687 24.1325H21.5625V24.9475H22.3687V24.1325Z" fill="#0C4913"/>
<path d="M22.3687 23.3263H21.5625V24.1325H22.3687V23.3263Z" fill="#0C4913"/>
<path d="M22.3687 22.5113H21.5625V23.3263H22.3687V22.5113Z" fill="#0C4913"/>
<path d="M22.3687 21.705H21.5625V22.5113H22.3687V21.705Z" fill="#0C4913"/>
<path d="M22.3687 20.89H21.5625V21.705H22.3687V20.89Z" fill="#429331"/>
<path d="M22.3687 20.075H21.5625V20.89H22.3687V20.075Z" fill="#0C4913"/>
<path d="M22.3687 19.2675H21.5625V20.0738H22.3687V19.2675Z" fill="#0C4913"/>
<path d="M22.3687 18.4525H21.5625V19.2675H22.3687V18.4525Z" fill="#5DA34B"/>
<path d="M22.3687 17.6462H21.5625V18.4525H22.3687V17.6462Z" fill="#429331"/>
<path d="M22.3687 16.8313H21.5625V17.6463H22.3687V16.8313Z" fill="#0C4913"/>
<path d="M22.3687 16.025H21.5625V16.8312H22.3687V16.025Z" fill="#429331"/>
<path d="M22.3687 15.21H21.5625V16.025H22.3687V15.21Z" fill="black"/>
<path d="M22.3687 14.395H21.5625V15.21H22.3687V14.395Z" fill="black"/>
<path d="M22.3687 13.5887H21.5625V14.395H22.3687V13.5887Z" fill="black"/>
<path d="M22.3687 12.7737H21.5625V13.5887H22.3687V12.7737Z" fill="black"/>
<path d="M22.3687 11.9675H21.5625V12.7737H22.3687V11.9675Z" fill="black"/>
<path d="M22.3687 11.1525H21.5625V11.9675H22.3687V11.1525Z" fill="black"/>
<path d="M21.5626 40.3563H20.7476V41.1713H21.5626V40.3563Z" fill="#429331"/>
<path d="M21.5626 39.55H20.7476V40.3562H21.5626V39.55Z" fill="#429331"/>
<path d="M21.5626 38.735H20.7476V39.5488H21.5626V38.735Z" fill="#0C4913"/>
<path d="M21.5626 37.9275H20.7476V38.735H21.5626V37.9275Z" fill="#5BAF43"/>
<path d="M21.5626 37.1138H20.7476V37.9275H21.5626V37.1138Z" fill="#429331"/>
<path d="M21.5626 36.3062H20.7476V37.1125H21.5626V36.3062Z" fill="#429331"/>
<path d="M21.5626 35.4912H20.7476V36.3062H21.5626V35.4912Z" fill="#0C4913"/>
<path d="M21.5626 34.685H20.7476V35.4912H21.5626V34.685Z" fill="#5BAF43"/>
<path d="M21.5626 33.87H20.7476V34.685H21.5626V33.87Z" fill="black"/>
<path d="M21.5626 33.0562H20.7476V33.87H21.5626V33.0562Z" fill="#416072"/>
<path d="M21.5626 32.2475H20.7476V33.055H21.5626V32.2475Z" fill="#2E4851"/>
<path d="M21.5626 31.4337H20.7476V32.2475H21.5626V31.4337Z" fill="black"/>
<path d="M21.5626 30.6275H20.7476V31.4338H21.5626V30.6275Z" fill="#0C4913"/>
<path d="M21.5626 29.8125H20.7476V30.6275H21.5626V29.8125Z" fill="#0D561B"/>
<path d="M21.5626 29.005H20.7476V29.8113H21.5626V29.005Z" fill="#0D561B"/>
<path d="M21.5626 28.19H20.7476V29.005H21.5626V28.19Z" fill="#0D561B"/>
<path d="M21.5626 27.3763H20.7476V28.19H21.5626V27.3763Z" fill="#14661E"/>
<path d="M21.5626 26.5688H20.7476V27.375H21.5626V26.5688Z" fill="black"/>
<path d="M21.5626 25.7538H20.7476V26.5688H21.5626V25.7538Z" fill="black"/>
<path d="M21.5626 24.9475H20.7476V25.7538H21.5626V24.9475Z" fill="black"/>
<path d="M21.5626 24.1325H20.7476V24.9475H21.5626V24.1325Z" fill="black"/>
<path d="M21.5626 23.3263H20.7476V24.1325H21.5626V23.3263Z" fill="#0C4913"/>
<path d="M21.5626 22.5113H20.7476V23.3263H21.5626V22.5113Z" fill="black"/>
<path d="M21.5626 21.705H20.7476V22.5113H21.5626V21.705Z" fill="#429331"/>
<path d="M21.5626 20.89H20.7476V21.705H21.5626V20.89Z" fill="#0C4913"/>
<path d="M21.5626 20.075H20.7476V20.89H21.5626V20.075Z" fill="#0C4913"/>
<path d="M21.5626 19.2675H20.7476V20.0738H21.5626V19.2675Z" fill="#0C4913"/>
<path d="M21.5626 18.4525H20.7476V19.2675H21.5626V18.4525Z" fill="#0C4913"/>
<path d="M21.5626 17.6462H20.7476V18.4525H21.5626V17.6462Z" fill="#0C4913"/>
<path d="M21.5626 16.8313H20.7476V17.6463H21.5626V16.8313Z" fill="#0C4913"/>
<path d="M21.5626 16.025H20.7476V16.8312H21.5626V16.025Z" fill="black"/>
<path d="M21.5626 15.21H20.7476V16.025H21.5626V15.21Z" fill="#102126"/>
<path d="M21.5626 14.395H20.7476V15.21H21.5626V14.395Z" fill="#102126"/>
<path d="M21.5626 13.5887H20.7476V14.395H21.5626V13.5887Z" fill="#416072"/>
<path d="M21.5626 12.7737H20.7476V13.5887H21.5626V12.7737Z" fill="black"/>
<path d="M20.7477 40.3563H19.9414V41.1713H20.7477V40.3563Z" fill="#429331"/>
<path d="M20.7477 39.55H19.9414V40.3562H20.7477V39.55Z" fill="#0C4913"/>
<path d="M20.7477 38.735H19.9414V39.5488H20.7477V38.735Z" fill="#5BAF43"/>
<path d="M20.7477 37.9275H19.9414V38.735H20.7477V37.9275Z" fill="black"/>
<path d="M20.7477 37.1138H19.9414V37.9275H20.7477V37.1138Z" fill="black"/>
<path d="M20.7477 36.3062H19.9414V37.1125H20.7477V36.3062Z" fill="black"/>
<path d="M20.7477 35.4912H19.9414V36.3062H20.7477V35.4912Z" fill="black"/>
<path d="M20.7477 34.685H19.9414V35.4912H20.7477V34.685Z" fill="black"/>
<path d="M20.7477 33.87H19.9414V34.685H20.7477V33.87Z" fill="black"/>
<path d="M20.7477 33.0562H19.9414V33.87H20.7477V33.0562Z" fill="#2E4851"/>
<path d="M20.7477 32.2475H19.9414V33.055H20.7477V32.2475Z" fill="#416072"/>
<path d="M20.7477 31.4337H19.9414V32.2475H20.7477V31.4337Z" fill="black"/>
<path d="M20.7477 30.6275H19.9414V31.4338H20.7477V30.6275Z" fill="black"/>
<path d="M20.7477 29.8125H19.9414V30.6275H20.7477V29.8125Z" fill="#0C4913"/>
<path d="M20.7477 29.005H19.9414V29.8113H20.7477V29.005Z" fill="#0D561B"/>
<path d="M20.7477 28.19H19.9414V29.005H20.7477V28.19Z" fill="#0D561B"/>
<path d="M20.7477 27.3763H19.9414V28.19H20.7477V27.3763Z" fill="black"/>
<path d="M20.7477 26.5688H19.9414V27.375H20.7477V26.5688Z" fill="black"/>
<path d="M20.7477 23.3263H19.9414V24.1325H20.7477V23.3263Z" fill="black"/>
<path d="M20.7477 22.5113H19.9414V23.3263H20.7477V22.5113Z" fill="black"/>
<path d="M20.7477 21.705H19.9414V22.5113H20.7477V21.705Z" fill="black"/>
<path d="M20.7477 20.89H19.9414V21.705H20.7477V20.89Z" fill="#0C4913"/>
<path d="M20.7477 20.075H19.9414V20.89H20.7477V20.075Z" fill="#0C4913"/>
<path d="M20.7477 19.2675H19.9414V20.0738H20.7477V19.2675Z" fill="#0C4913"/>
<path d="M20.7477 18.4525H19.9414V19.2675H20.7477V18.4525Z" fill="#429331"/>
<path d="M20.7477 17.6462H19.9414V18.4525H20.7477V17.6462Z" fill="#429331"/>
<path d="M20.7477 16.8313H19.9414V17.6463H20.7477V16.8313Z" fill="black"/>
<path d="M20.7477 16.025H19.9414V16.8312H20.7477V16.025Z" fill="#102126"/>
<path d="M20.7477 15.21H19.9414V16.025H20.7477V15.21Z" fill="#102126"/>
<path d="M20.7477 14.395H19.9414V15.21H20.7477V14.395Z" fill="#2E4851"/>
<path d="M20.7477 13.5887H19.9414V14.395H20.7477V13.5887Z" fill="#416072"/>
<path d="M20.7477 12.7737H19.9414V13.5887H20.7477V12.7737Z" fill="black"/>
<path d="M19.941 40.3563H19.126V41.1713H19.941V40.3563Z" fill="#429331"/>
<path d="M19.941 39.55H19.126V40.3562H19.941V39.55Z" fill="black"/>
<path d="M19.941 38.735H19.126V39.5488H19.941V38.735Z" fill="black"/>
<path d="M19.941 34.685H19.126V35.4912H19.941V34.685Z" fill="black"/>
<path d="M19.941 33.87H19.126V34.685H19.941V33.87Z" fill="#416072"/>
<path d="M19.941 33.0562H19.126V33.87H19.941V33.0562Z" fill="#2E4851"/>
<path d="M19.941 32.2475H19.126V33.055H19.941V32.2475Z" fill="#416072"/>
<path d="M19.941 31.4337H19.126V32.2475H19.941V31.4337Z" fill="black"/>
<path d="M19.941 29.8125H19.126V30.6275H19.941V29.8125Z" fill="black"/>
<path d="M19.941 29.005H19.126V29.8113H19.941V29.005Z" fill="black"/>
<path d="M19.941 28.19H19.126V29.005H19.941V28.19Z" fill="black"/>
<path d="M19.941 24.1325H19.126V24.9475H19.941V24.1325Z" fill="black"/>
<path d="M19.941 23.3263H19.126V24.1325H19.941V23.3263Z" fill="#429331"/>
<path d="M19.941 22.5113H19.126V23.3263H19.941V22.5113Z" fill="#429331"/>
<path d="M19.941 21.705H19.126V22.5113H19.941V21.705Z" fill="#0C4913"/>
<path d="M19.941 20.89H19.126V21.705H19.941V20.89Z" fill="#0C4913"/>
<path d="M19.941 20.075H19.126V20.89H19.941V20.075Z" fill="#0C4913"/>
<path d="M19.941 19.2675H19.126V20.0738H19.941V19.2675Z" fill="#429331"/>
<path d="M19.941 18.4525H19.126V19.2675H19.941V18.4525Z" fill="#429331"/>
<path d="M19.941 17.6462H19.126V18.4525H19.941V17.6462Z" fill="black"/>
<path d="M19.941 16.8313H19.126V17.6463H19.941V16.8313Z" fill="#102126"/>
<path d="M19.941 16.025H19.126V16.8312H19.941V16.025Z" fill="#102126"/>
<path d="M19.941 15.21H19.126V16.025H19.941V15.21Z" fill="#2E4851"/>
<path d="M19.941 14.395H19.126V15.21H19.941V14.395Z" fill="#416072"/>
<path d="M19.941 13.5887H19.126V14.395H19.941V13.5887Z" fill="black"/>
<path d="M19.126 40.3563H18.311V41.1713H19.126V40.3563Z" fill="#5BAF43"/>
<path d="M19.126 39.55H18.311V40.3562H19.126V39.55Z" fill="black"/>
<path d="M19.126 35.4912H18.311V36.3062H19.126V35.4912Z" fill="black"/>
<path d="M19.126 34.685H18.311V35.4912H19.126V34.685Z" fill="#416072"/>
<path d="M19.126 33.87H18.311V34.685H19.126V33.87Z" fill="#2E4851"/>
<path d="M19.126 33.0562H18.311V33.87H19.126V33.0562Z" fill="#416072"/>
<path d="M19.126 32.2475H18.311V33.055H19.126V32.2475Z" fill="#416072"/>
<path d="M19.126 31.4337H18.311V32.2475H19.126V31.4337Z" fill="black"/>
<path d="M19.126 23.3263H18.311V24.1325H19.126V23.3263Z" fill="black"/>
<path d="M19.126 22.5113H18.311V23.3263H19.126V22.5113Z" fill="black"/>
<path d="M19.126 21.705H18.311V22.5113H19.126V21.705Z" fill="#429331"/>
<path d="M19.126 20.89H18.311V21.705H19.126V20.89Z" fill="#429331"/>
<path d="M19.126 20.075H18.311V20.89H19.126V20.075Z" fill="#429331"/>
<path d="M19.126 19.2675H18.311V20.0738H19.126V19.2675Z" fill="#429331"/>
<path d="M19.126 18.4525H18.311V19.2675H19.126V18.4525Z" fill="black"/>
<path d="M19.126 17.6462H18.311V18.4525H19.126V17.6462Z" fill="#102126"/>
<path d="M19.126 16.8313H18.311V17.6463H19.126V16.8313Z" fill="#102126"/>
<path d="M19.126 16.025H18.311V16.8312H19.126V16.025Z" fill="#102126"/>
<path d="M19.126 15.21H18.311V16.025H19.126V15.21Z" fill="#2E4851"/>
<path d="M19.126 14.395H18.311V15.21H19.126V14.395Z" fill="#416072"/>
<path d="M19.126 13.5887H18.311V14.395H19.126V13.5887Z" fill="black"/>
<path d="M18.3111 40.3563H17.5049V41.1713H18.3111V40.3563Z" fill="black"/>
<path d="M18.3111 35.4912H17.5049V36.3062H18.3111V35.4912Z" fill="black"/>
<path d="M18.3111 34.685H17.5049V35.4912H18.3111V34.685Z" fill="#416072"/>
<path d="M18.3111 33.87H17.5049V34.685H18.3111V33.87Z" fill="#2E4851"/>
<path d="M18.3111 33.0562H17.5049V33.87H18.3111V33.0562Z" fill="#416072"/>
<path d="M18.3111 32.2475H17.5049V33.055H18.3111V32.2475Z" fill="black"/>
<path d="M18.3111 24.1325H17.5049V24.9475H18.3111V24.1325Z" fill="black"/>
<path d="M18.3111 23.3263H17.5049V24.1325H18.3111V23.3263Z" fill="black"/>
<path d="M18.3111 22.5113H17.5049V23.3263H18.3111V22.5113Z" fill="#0C4913"/>
<path d="M18.3111 21.705H17.5049V22.5113H18.3111V21.705Z" fill="#0C4913"/>
<path d="M18.3111 20.89H17.5049V21.705H18.3111V20.89Z" fill="#0C4913"/>
<path d="M18.3111 20.075H17.5049V20.89H18.3111V20.075Z" fill="#0C4913"/>
<path d="M18.3111 19.2675H17.5049V20.0738H18.3111V19.2675Z" fill="black"/>
<path d="M18.3111 18.4525H17.5049V19.2675H18.3111V18.4525Z" fill="#102126"/>
<path d="M18.3111 17.6462H17.5049V18.4525H18.3111V17.6462Z" fill="#102126"/>
<path d="M18.3111 16.8313H17.5049V17.6463H18.3111V16.8313Z" fill="#102126"/>
<path d="M18.3111 16.025H17.5049V16.8312H18.3111V16.025Z" fill="#2F4B5B"/>
<path d="M18.3111 15.21H17.5049V16.025H18.3111V15.21Z" fill="#2E4851"/>
<path d="M18.3111 14.395H17.5049V15.21H18.3111V14.395Z" fill="#416072"/>
<path d="M18.3111 13.5887H17.5049V14.395H18.3111V13.5887Z" fill="black"/>
<path d="M17.5049 35.4912H16.6899V36.3062H17.5049V35.4912Z" fill="black"/>
<path d="M17.5049 34.685H16.6899V35.4912H17.5049V34.685Z" fill="#416072"/>
<path d="M17.5049 33.87H16.6899V34.685H17.5049V33.87Z" fill="#2E4851"/>
<path d="M17.5049 33.0562H16.6899V33.87H17.5049V33.0562Z" fill="#416072"/>
<path d="M17.5049 32.2475H16.6899V33.055H17.5049V32.2475Z" fill="black"/>
<path d="M17.5049 24.1325H16.6899V24.9475H17.5049V24.1325Z" fill="black"/>
<path d="M17.5049 23.3263H16.6899V24.1325H17.5049V23.3263Z" fill="#0C4913"/>
<path d="M17.5049 22.5113H16.6899V23.3263H17.5049V22.5113Z" fill="#0C4913"/>
<path d="M17.5049 21.705H16.6899V22.5113H17.5049V21.705Z" fill="#0C4913"/>
<path d="M17.5049 20.89H16.6899V21.705H17.5049V20.89Z" fill="#429331"/>
<path d="M17.5049 20.075H16.6899V20.89H17.5049V20.075Z" fill="#0D561B"/>
<path d="M17.5049 19.2675H16.6899V20.0738H17.5049V19.2675Z" fill="#0D561B"/>
<path d="M17.5049 18.4525H16.6899V19.2675H17.5049V18.4525Z" fill="black"/>
<path d="M17.5049 17.6462H16.6899V18.4525H17.5049V17.6462Z" fill="#102126"/>
<path d="M17.5049 16.8313H16.6899V17.6463H17.5049V16.8313Z" fill="#2F4B5B"/>
<path d="M17.5049 16.025H16.6899V16.8312H17.5049V16.025Z" fill="#E7BD00"/>
<path d="M17.5049 15.21H16.6899V16.025H17.5049V15.21Z" fill="#2E4851"/>
<path d="M17.5049 14.395H16.6899V15.21H17.5049V14.395Z" fill="black"/>
<path d="M16.6886 35.4912H15.8823V36.3062H16.6886V35.4912Z" fill="black"/>
<path d="M16.6886 34.685H15.8823V35.4912H16.6886V34.685Z" fill="#416072"/>
<path d="M16.6886 33.87H15.8823V34.685H16.6886V33.87Z" fill="#2E4851"/>
<path d="M16.6886 33.0562H15.8823V33.87H16.6886V33.0562Z" fill="#416072"/>
<path d="M16.6886 32.2475H15.8823V33.055H16.6886V32.2475Z" fill="black"/>
<path d="M16.6886 24.1325H15.8823V24.9475H16.6886V24.1325Z" fill="black"/>
<path d="M16.6886 23.3263H15.8823V24.1325H16.6886V23.3263Z" fill="#0C4913"/>
<path d="M16.6886 22.5113H15.8823V23.3263H16.6886V22.5113Z" fill="#0C4913"/>
<path d="M16.6886 21.705H15.8823V22.5113H16.6886V21.705Z" fill="#429331"/>
<path d="M16.6886 20.89H15.8823V21.705H16.6886V20.89Z" fill="#0D561B"/>
<path d="M16.6886 20.075H15.8823V20.89H16.6886V20.075Z" fill="#0D561B"/>
<path d="M16.6886 19.2675H15.8823V20.0738H16.6886V19.2675Z" fill="#0D561B"/>
<path d="M16.6886 18.4525H15.8823V19.2675H16.6886V18.4525Z" fill="#0D561B"/>
<path d="M16.6886 17.6462H15.8823V18.4525H16.6886V17.6462Z" fill="black"/>
<path d="M16.6886 16.8313H15.8823V17.6463H16.6886V16.8313Z" fill="#102126"/>
<path d="M16.6886 16.025H15.8823V16.8312H16.6886V16.025Z" fill="#E7BD00"/>
<path d="M16.6886 15.21H15.8823V16.025H16.6886V15.21Z" fill="#E7BD00"/>
<path d="M16.6886 14.395H15.8823V15.21H16.6886V14.395Z" fill="black"/>
<path d="M15.8824 35.4912H15.0674V36.3062H15.8824V35.4912Z" fill="black"/>
<path d="M15.8824 34.685H15.0674V35.4912H15.8824V34.685Z" fill="#416072"/>
<path d="M15.8824 33.87H15.0674V34.685H15.8824V33.87Z" fill="#2E4851"/>
<path d="M15.8824 33.0562H15.0674V33.87H15.8824V33.0562Z" fill="#416072"/>
<path d="M15.8824 32.2475H15.0674V33.055H15.8824V32.2475Z" fill="black"/>
<path d="M15.8824 23.3263H15.0674V24.1325H15.8824V23.3263Z" fill="black"/>
<path d="M15.8824 22.5113H15.0674V23.3263H15.8824V22.5113Z" fill="#0C4913"/>
<path d="M15.8824 21.705H15.0674V22.5113H15.8824V21.705Z" fill="#429331"/>
<path d="M15.8824 20.89H15.0674V21.705H15.8824V20.89Z" fill="#0D561B"/>
<path d="M15.8824 20.075H15.0674V20.89H15.8824V20.075Z" fill="#0D561B"/>
<path d="M15.8824 19.2675H15.0674V20.0738H15.8824V19.2675Z" fill="#0D561B"/>
<path d="M15.8824 18.4525H15.0674V19.2675H15.8824V18.4525Z" fill="#0D561B"/>
<path d="M15.8824 17.6462H15.0674V18.4525H15.8824V17.6462Z" fill="black"/>
<path d="M15.8824 16.8313H15.0674V17.6463H15.8824V16.8313Z" fill="black"/>
<path d="M15.8824 16.025H15.0674V16.8312H15.8824V16.025Z" fill="black"/>
<path d="M15.8824 15.21H15.0674V16.025H15.8824V15.21Z" fill="black"/>
<path d="M15.0675 35.4912H14.2612V36.3062H15.0675V35.4912Z" fill="black"/>
<path d="M15.0675 34.685H14.2612V35.4912H15.0675V34.685Z" fill="#416072"/>
<path d="M15.0675 33.87H14.2612V34.685H15.0675V33.87Z" fill="#2E4851"/>
<path d="M15.0675 33.0562H14.2612V33.87H15.0675V33.0562Z" fill="#416072"/>
<path d="M15.0675 32.2475H14.2612V33.055H15.0675V32.2475Z" fill="black"/>
<path d="M15.0675 22.5113H14.2612V23.3263H15.0675V22.5113Z" fill="black"/>
<path d="M15.0675 21.705H14.2612V22.5113H15.0675V21.705Z" fill="black"/>
<path d="M15.0675 20.89H14.2612V21.705H15.0675V20.89Z" fill="black"/>
<path d="M15.0675 20.075H14.2612V20.89H15.0675V20.075Z" fill="black"/>
<path d="M15.0675 19.2675H14.2612V20.0738H15.0675V19.2675Z" fill="#0D561B"/>
<path d="M15.0675 18.4525H14.2612V19.2675H15.0675V18.4525Z" fill="#0D561B"/>
<path d="M15.0675 17.6462H14.2612V18.4525H15.0675V17.6462Z" fill="black"/>
<path d="M15.0675 16.8313H14.2612V17.6463H15.0675V16.8313Z" fill="black"/>
<path d="M15.0675 16.025H14.2612V16.8312H15.0675V16.025Z" fill="black"/>
<path d="M15.0675 15.21H14.2612V16.025H15.0675V15.21Z" fill="black"/>
<path d="M14.2613 34.685H13.4463V35.4912H14.2613V34.685Z" fill="black"/>
<path d="M14.2613 33.87H13.4463V34.685H14.2613V33.87Z" fill="#416072"/>
<path d="M14.2613 33.0562H13.4463V33.87H14.2613V33.0562Z" fill="#416072"/>
<path d="M14.2613 32.2475H13.4463V33.055H14.2613V32.2475Z" fill="black"/>
<path d="M14.2613 20.075H13.4463V20.89H14.2613V20.075Z" fill="black"/>
<path d="M14.2613 19.2675H13.4463V20.0738H14.2613V19.2675Z" fill="black"/>
<path d="M14.2613 18.4525H13.4463V19.2675H14.2613V18.4525Z" fill="black"/>
<path d="M14.2613 17.6462H13.4463V18.4525H14.2613V17.6462Z" fill="black"/>
<path d="M14.2613 16.8313H13.4463V17.6463H14.2613V16.8313Z" fill="#0D561B"/>
<path d="M14.2613 16.025H13.4463V16.8312H14.2613V16.025Z" fill="#0D561B"/>
<path d="M14.2613 15.21H13.4463V16.025H14.2613V15.21Z" fill="black"/>
<path d="M13.4463 33.87H12.6313V34.685H13.4463V33.87Z" fill="black"/>
<path d="M13.4463 33.0562H12.6313V33.87H13.4463V33.0562Z" fill="#416072"/>
<path d="M13.4463 32.2475H12.6313V33.055H13.4463V32.2475Z" fill="black"/>
<path d="M13.4463 19.2675H12.6313V20.0738H13.4463V19.2675Z" fill="black"/>
<path d="M13.4463 18.4525H12.6313V19.2675H13.4463V18.4525Z" fill="black"/>
<path d="M13.4463 17.6462H12.6313V18.4525H13.4463V17.6462Z" fill="#0D561B"/>
<path d="M13.4463 16.8313H12.6313V17.6463H13.4463V16.8313Z" fill="#0D561B"/>
<path d="M13.4463 16.025H12.6313V16.8312H13.4463V16.025Z" fill="#0D561B"/>
<path d="M13.4463 15.21H12.6313V16.025H13.4463V15.21Z" fill="black"/>
<path d="M12.631 33.0562H11.8247V33.87H12.631V33.0562Z" fill="black"/>
<path d="M12.631 32.2475H11.8247V33.055H12.631V32.2475Z" fill="black"/>
<path d="M12.631 19.2675H11.8247V20.0738H12.631V19.2675Z" fill="black"/>
<path d="M12.631 18.4525H11.8247V19.2675H12.631V18.4525Z" fill="black"/>
<path d="M12.631 17.6462H11.8247V18.4525H12.631V17.6462Z" fill="#0D561B"/>
<path d="M12.631 16.8313H11.8247V17.6463H12.631V16.8313Z" fill="#0D561B"/>
<path d="M12.631 16.025H11.8247V16.8312H12.631V16.025Z" fill="black"/>
<path d="M11.8248 19.2675H11.0098V20.0738H11.8248V19.2675Z" fill="black"/>
<path d="M11.8248 18.4525H11.0098V19.2675H11.8248V18.4525Z" fill="#E7BD00"/>
<path d="M11.8248 17.6462H11.0098V18.4525H11.8248V17.6462Z" fill="black"/>
<path d="M11.8248 16.8313H11.0098V17.6463H11.8248V16.8313Z" fill="black"/>
<path d="M11.0099 20.075H10.2036V20.89H11.0099V20.075Z" fill="black"/>
<path d="M11.0099 19.2675H10.2036V20.0738H11.0099V19.2675Z" fill="#E7BD00"/>
<path d="M11.0099 18.4525H10.2036V19.2675H11.0099V18.4525Z" fill="black"/>
<path d="M10.2037 20.075H9.38867V20.89H10.2037V20.075Z" fill="black"/>
<path d="M10.2037 19.2675H9.38867V20.0738H10.2037V19.2675Z" fill="black"/>
<path d="M10.2037 18.4525H9.38867V19.2675H10.2037V18.4525Z" fill="black"/>
</g>
<defs>
<clipPath id="clip0_69_12153">
<rect width="50" height="50" fill="white"/>
</clipPath>
</defs>
</svg>
