<svg width="50" height="50" viewBox="0 0 50 50" fill="none" xmlns="http://www.w3.org/2000/svg">
<g clip-path="url(#clip0_69_12156)">
<path d="M48.2223 25C48.2223 37.825 37.8248 48.2225 24.9998 48.2225C12.1748 48.2225 1.77734 37.825 1.77734 25C1.77734 12.175 12.1736 1.7775 24.9998 1.7775C37.8261 1.7775 48.2223 12.175 48.2223 25Z" fill="black"/>
<path d="M24.9998 49.0975C11.7123 49.0975 0.902344 38.2875 0.902344 25C0.902344 11.7125 11.7123 0.902496 24.9998 0.902496C38.2873 0.902496 49.0973 11.7125 49.0973 25C49.0973 38.2875 38.2873 49.0975 24.9998 49.0975ZM24.9998 2.6525C12.6773 2.6525 2.65234 12.6775 2.65234 25C2.65234 37.3225 12.6773 47.3475 24.9998 47.3475C37.3223 47.3475 47.3473 37.3225 47.3473 25C47.3473 12.6775 37.3223 2.6525 24.9998 2.6525Z" fill="#B5A518"/>
<path d="M38.0574 18.2225H37.1699V19.11H38.0574V18.2225Z" fill="black"/>
<path d="M38.0574 17.3263H37.1699V18.2225H38.0574V17.3263Z" fill="black"/>
<path d="M38.0574 16.43H37.1699V17.3262H38.0574V16.43Z" fill="black"/>
<path d="M38.0574 15.5425H37.1699V16.43H38.0574V15.5425Z" fill="black"/>
<path d="M38.0574 14.6487H37.1699V15.545H38.0574V14.6487Z" fill="black"/>
<path d="M38.0574 13.7613H37.1699V14.6488H38.0574V13.7613Z" fill="black"/>
<path d="M38.0574 11.0812H37.1699V11.9775H38.0574V11.0812Z" fill="black"/>
<path d="M37.1702 21.7888H36.2739V22.6763H37.1702V21.7888Z" fill="black"/>
<path d="M37.1702 20.8925H36.2739V21.7887H37.1702V20.8925Z" fill="black"/>
<path d="M37.1702 20.005H36.2739V20.8925H37.1702V20.005Z" fill="black"/>
<path d="M37.1702 19.1088H36.2739V20.005H37.1702V19.1088Z" fill="black"/>
<path d="M37.1702 18.2225H36.2739V19.11H37.1702V18.2225Z" fill="#3D3D3B"/>
<path d="M37.1702 17.3263H36.2739V18.2225H37.1702V17.3263Z" fill="#3D3D3B"/>
<path d="M37.1702 16.43H36.2739V17.3262H37.1702V16.43Z" fill="#3D3D3B"/>
<path d="M37.1702 15.5425H36.2739V16.43H37.1702V15.5425Z" fill="#3D3D3B"/>
<path d="M37.1702 14.6487H36.2739V15.545H37.1702V14.6487Z" fill="#3D3D3B"/>
<path d="M37.1702 13.7613H36.2739V14.6488H37.1702V13.7613Z" fill="#3D3D3B"/>
<path d="M37.1702 12.865H36.2739V13.7612H37.1702V12.865Z" fill="black"/>
<path d="M37.1702 11.9775H36.2739V12.865H37.1702V11.9775Z" fill="black"/>
<path d="M37.1702 11.0812H36.2739V11.9775H37.1702V11.0812Z" fill="#3D3D3B"/>
<path d="M37.1702 10.195H36.2739V11.0825H37.1702V10.195Z" fill="black"/>
<path d="M36.2762 23.57H35.3887V24.4663H36.2762V23.57Z" fill="black"/>
<path d="M36.2762 22.6737H35.3887V23.57H36.2762V22.6737Z" fill="black"/>
<path d="M36.2762 21.7888H35.3887V22.6763H36.2762V21.7888Z" fill="#3D3D3B"/>
<path d="M36.2762 20.8925H35.3887V21.7887H36.2762V20.8925Z" fill="#3D3D3B"/>
<path d="M36.2762 20.005H35.3887V20.8925H36.2762V20.005Z" fill="#3D3D3B"/>
<path d="M36.2762 19.1088H35.3887V20.005H36.2762V19.1088Z" fill="#3D3D3B"/>
<path d="M36.2762 18.2225H35.3887V19.11H36.2762V18.2225Z" fill="#2B2B2A"/>
<path d="M36.2762 17.3263H35.3887V18.2225H36.2762V17.3263Z" fill="#2B2B2A"/>
<path d="M36.2762 16.43H35.3887V17.3262H36.2762V16.43Z" fill="#2B2B2A"/>
<path d="M36.2762 15.5425H35.3887V16.43H36.2762V15.5425Z" fill="#2B2B2A"/>
<path d="M36.2762 14.6487H35.3887V15.545H36.2762V14.6487Z" fill="#2B2B2A"/>
<path d="M36.2762 13.7613H35.3887V14.6488H36.2762V13.7613Z" fill="#2B2B2A"/>
<path d="M36.2762 12.865H35.3887V13.7612H36.2762V12.865Z" fill="#3D3D3B"/>
<path d="M36.2762 11.9775H35.3887V12.865H36.2762V11.9775Z" fill="#3D3D3B"/>
<path d="M36.2762 11.0812H35.3887V11.9775H36.2762V11.0812Z" fill="#2B2B2A"/>
<path d="M36.2762 10.195H35.3887V11.0825H36.2762V10.195Z" fill="black"/>
<path d="M35.3889 25.3538H34.4927V26.25H35.3889V25.3538Z" fill="black"/>
<path d="M35.3889 24.4662H34.4927V25.3537H35.3889V24.4662Z" fill="black"/>
<path d="M35.3889 23.57H34.4927V24.4663H35.3889V23.57Z" fill="#3D3D3B"/>
<path d="M35.3889 22.6737H34.4927V23.57H35.3889V22.6737Z" fill="#2B2B2A"/>
<path d="M35.3889 21.7888H34.4927V22.6763H35.3889V21.7888Z" fill="#2B2B2A"/>
<path d="M35.3889 20.8925H34.4927V21.7887H35.3889V20.8925Z" fill="#2B2B2A"/>
<path d="M35.3889 20.005H34.4927V20.8925H35.3889V20.005Z" fill="#2B2B2A"/>
<path d="M35.3889 19.1088H34.4927V20.005H35.3889V19.1088Z" fill="#2B2B2A"/>
<path d="M35.3889 12.865H34.4927V13.7612H35.3889V12.865Z" fill="#2B2B2A"/>
<path d="M35.3889 11.9775H34.4927V12.865H35.3889V11.9775Z" fill="#2B2B2A"/>
<path d="M35.3889 11.0812H34.4927V11.9775H35.3889V11.0812Z" fill="#8A8D8E"/>
<path d="M34.4924 27.1363H33.5962V28.0325H34.4924V27.1363Z" fill="black"/>
<path d="M34.4924 26.25H33.5962V27.1375H34.4924V26.25Z" fill="black"/>
<path d="M34.4924 25.3538H33.5962V26.25H34.4924V25.3538Z" fill="#3D3D3B"/>
<path d="M34.4924 24.4662H33.5962V25.3537H34.4924V24.4662Z" fill="#2B2B2A"/>
<path d="M34.4924 23.57H33.5962V24.4663H34.4924V23.57Z" fill="#2B2B2A"/>
<path d="M34.4924 11.9775H33.5962V12.865H34.4924V11.9775Z" fill="#8A8D8E"/>
<path d="M33.5965 28.0325H32.709V28.92H33.5965V28.0325Z" fill="black"/>
<path d="M33.5965 27.1363H32.709V28.0325H33.5965V27.1363Z" fill="#DD8976"/>
<path d="M33.5965 26.25H32.709V27.1375H33.5965V26.25Z" fill="#DD8976"/>
<path d="M33.5965 25.3538H32.709V26.25H33.5965V25.3538Z" fill="#2B2B2A"/>
<path d="M33.5965 12.865H32.709V13.7612H33.5965V12.865Z" fill="#8A8D8E"/>
<path d="M32.7088 28.92H31.8125V29.8163H32.7088V28.92Z" fill="black"/>
<path d="M32.7088 28.0325H31.8125V28.92H32.7088V28.0325Z" fill="#DD8976"/>
<path d="M32.7088 27.1363H31.8125V28.0325H32.7088V27.1363Z" fill="#DD8976"/>
<path d="M32.7088 26.25H31.8125V27.1375H32.7088V26.25Z" fill="#F7AB94"/>
<path d="M32.7088 25.3538H31.8125V26.25H32.7088V25.3538Z" fill="black"/>
<path d="M32.7088 24.4662H31.8125V25.3537H32.7088V24.4662Z" fill="black"/>
<path d="M32.7088 23.57H31.8125V24.4663H32.7088V23.57Z" fill="black"/>
<path d="M32.7088 13.7613H31.8125V14.6488H32.7088V13.7613Z" fill="#8A8D8E"/>
<path d="M31.8138 40.5212H30.9263V41.4087H31.8138V40.5212Z" fill="black"/>
<path d="M31.8138 39.625H30.9263V40.5213H31.8138V39.625Z" fill="black"/>
<path d="M31.8138 28.92H30.9263V29.8163H31.8138V28.92Z" fill="black"/>
<path d="M31.8138 28.0325H30.9263V28.92H31.8138V28.0325Z" fill="#F7AB94"/>
<path d="M31.8138 27.1363H30.9263V28.0325H31.8138V27.1363Z" fill="#F7AB94"/>
<path d="M31.8138 26.25H30.9263V27.1375H31.8138V26.25Z" fill="#373801"/>
<path d="M31.8138 25.3538H30.9263V26.25H31.8138V25.3538Z" fill="#373801"/>
<path d="M31.8138 24.4662H30.9263V25.3537H31.8138V24.4662Z" fill="#373801"/>
<path d="M31.8138 23.57H30.9263V24.4663H31.8138V23.57Z" fill="#373801"/>
<path d="M31.8138 22.6737H30.9263V23.57H31.8138V22.6737Z" fill="black"/>
<path d="M31.8138 21.7888H30.9263V22.6763H31.8138V21.7888Z" fill="black"/>
<path d="M31.8138 20.8925H30.9263V21.7887H31.8138V20.8925Z" fill="black"/>
<path d="M31.8138 20.005H30.9263V20.8925H31.8138V20.005Z" fill="black"/>
<path d="M31.8138 19.1088H30.9263V20.005H31.8138V19.1088Z" fill="black"/>
<path d="M31.8138 14.6487H30.9263V15.545H31.8138V14.6487Z" fill="#8A8D8E"/>
<path d="M30.926 40.5212H30.0298V41.4087H30.926V40.5212Z" fill="black"/>
<path d="M30.926 39.625H30.0298V40.5213H30.926V39.625Z" fill="#660801"/>
<path d="M30.926 38.7387H30.0298V39.6262H30.926V38.7387Z" fill="black"/>
<path d="M30.926 33.3813H30.0298V34.2775H30.926V33.3813Z" fill="black"/>
<path d="M30.926 32.4937H30.0298V33.3812H30.926V32.4937Z" fill="black"/>
<path d="M30.926 31.5975H30.0298V32.4938H30.926V31.5975Z" fill="black"/>
<path d="M30.926 29.815H30.0298V30.7025H30.926V29.815Z" fill="black"/>
<path d="M30.926 28.92H30.0298V29.8163H30.926V28.92Z" fill="#3D3D3B"/>
<path d="M30.926 28.0325H30.0298V28.92H30.926V28.0325Z" fill="black"/>
<path d="M30.926 27.1363H30.0298V28.0325H30.926V27.1363Z" fill="#373801"/>
<path d="M30.926 26.25H30.0298V27.1375H30.926V26.25Z" fill="#373801"/>
<path d="M30.926 25.3538H30.0298V26.25H30.926V25.3538Z" fill="#373801"/>
<path d="M30.926 24.4662H30.0298V25.3537H30.926V24.4662Z" fill="#5C6302"/>
<path d="M30.926 23.57H30.0298V24.4663H30.926V23.57Z" fill="#5C6302"/>
<path d="M30.926 22.6737H30.0298V23.57H30.926V22.6737Z" fill="#5C6302"/>
<path d="M30.926 21.7888H30.0298V22.6763H30.926V21.7888Z" fill="#5C6302"/>
<path d="M30.926 20.8925H30.0298V21.7887H30.926V20.8925Z" fill="black"/>
<path d="M30.926 20.005H30.0298V20.8925H30.926V20.005Z" fill="#2B2B2A"/>
<path d="M30.926 19.1088H30.0298V20.005H30.926V19.1088Z" fill="#2B2B2A"/>
<path d="M30.926 18.2225H30.0298V19.11H30.926V18.2225Z" fill="black"/>
<path d="M30.926 17.3263H30.0298V18.2225H30.926V17.3263Z" fill="black"/>
<path d="M30.926 15.5425H30.0298V16.43H30.926V15.5425Z" fill="#8A8D8E"/>
<path d="M30.0301 40.5212H29.1426V41.4087H30.0301V40.5212Z" fill="black"/>
<path d="M30.0301 39.625H29.1426V40.5213H30.0301V39.625Z" fill="#660801"/>
<path d="M30.0301 38.7387H29.1426V39.6262H30.0301V38.7387Z" fill="#3F1401"/>
<path d="M30.0301 37.8425H29.1426V38.7388H30.0301V37.8425Z" fill="black"/>
<path d="M30.0301 36.9463H29.1426V37.8425H30.0301V36.9463Z" fill="black"/>
<path d="M30.0301 36.06H29.1426V36.9475H30.0301V36.06Z" fill="black"/>
<path d="M30.0301 35.1638H29.1426V36.06H30.0301V35.1638Z" fill="black"/>
<path d="M30.0301 34.2775H29.1426V35.165H30.0301V34.2775Z" fill="black"/>
<path d="M30.0301 33.3813H29.1426V34.2775H30.0301V33.3813Z" fill="#2B2B2A"/>
<path d="M30.0301 32.4937H29.1426V33.3812H30.0301V32.4937Z" fill="#2B2B2A"/>
<path d="M30.0301 31.5975H29.1426V32.4938H30.0301V31.5975Z" fill="#2B2B2A"/>
<path d="M30.0301 30.7013H29.1426V31.5975H30.0301V30.7013Z" fill="black"/>
<path d="M30.0301 29.815H29.1426V30.7025H30.0301V29.815Z" fill="black"/>
<path d="M30.0301 28.92H29.1426V29.8163H30.0301V28.92Z" fill="#3D3D3B"/>
<path d="M30.0301 28.0325H29.1426V28.92H30.0301V28.0325Z" fill="#2B2B2A"/>
<path d="M30.0301 27.1363H29.1426V28.0325H30.0301V27.1363Z" fill="black"/>
<path d="M30.0301 26.25H29.1426V27.1375H30.0301V26.25Z" fill="#373801"/>
<path d="M30.0301 25.3538H29.1426V26.25H30.0301V25.3538Z" fill="#5C6302"/>
<path d="M30.0301 24.4662H29.1426V25.3537H30.0301V24.4662Z" fill="#5C6302"/>
<path d="M30.0301 23.57H29.1426V24.4663H30.0301V23.57Z" fill="#5C6302"/>
<path d="M30.0301 22.6737H29.1426V23.57H30.0301V22.6737Z" fill="#5C6302"/>
<path d="M30.0301 21.7888H29.1426V22.6763H30.0301V21.7888Z" fill="black"/>
<path d="M30.0301 20.8925H29.1426V21.7887H30.0301V20.8925Z" fill="#3D3D3B"/>
<path d="M30.0301 20.005H29.1426V20.8925H30.0301V20.005Z" fill="#2B2B2A"/>
<path d="M30.0301 19.1088H29.1426V20.005H30.0301V19.1088Z" fill="#2B2B2A"/>
<path d="M30.0301 18.2225H29.1426V19.11H30.0301V18.2225Z" fill="#3D3D3B"/>
<path d="M30.0301 17.3263H29.1426V18.2225H30.0301V17.3263Z" fill="black"/>
<path d="M30.0301 16.43H29.1426V17.3262H30.0301V16.43Z" fill="#8A8D8E"/>
<path d="M30.0301 15.5425H29.1426V16.43H30.0301V15.5425Z" fill="black"/>
<path d="M30.0301 14.6487H29.1426V15.545H30.0301V14.6487Z" fill="black"/>
<path d="M30.0301 11.9775H29.1426V12.865H30.0301V11.9775Z" fill="black"/>
<path d="M30.0301 11.0812H29.1426V11.9775H30.0301V11.0812Z" fill="black"/>
<path d="M30.0301 10.195H29.1426V11.0825H30.0301V10.195Z" fill="black"/>
<path d="M29.1438 40.5212H28.2476V41.4087H29.1438V40.5212Z" fill="black"/>
<path d="M29.1438 39.625H28.2476V40.5213H29.1438V39.625Z" fill="#5B1E00"/>
<path d="M29.1438 38.7387H28.2476V39.6262H29.1438V38.7387Z" fill="#3F1401"/>
<path d="M29.1438 37.8425H28.2476V38.7388H29.1438V37.8425Z" fill="#3F1401"/>
<path d="M29.1438 36.9463H28.2476V37.8425H29.1438V36.9463Z" fill="#3F1401"/>
<path d="M29.1438 36.06H28.2476V36.9475H29.1438V36.06Z" fill="#3F1401"/>
<path d="M29.1438 35.1638H28.2476V36.06H29.1438V35.1638Z" fill="#3F1401"/>
<path d="M29.1438 34.2775H28.2476V35.165H29.1438V34.2775Z" fill="black"/>
<path d="M29.1438 33.3813H28.2476V34.2775H29.1438V33.3813Z" fill="#B5A518"/>
<path d="M29.1438 32.4937H28.2476V33.3812H29.1438V32.4937Z" fill="#2B2B2A"/>
<path d="M29.1438 31.5975H28.2476V32.4938H29.1438V31.5975Z" fill="#2B2B2A"/>
<path d="M29.1438 30.7013H28.2476V31.5975H29.1438V30.7013Z" fill="#2B2B2A"/>
<path d="M29.1438 29.815H28.2476V30.7025H29.1438V29.815Z" fill="black"/>
<path d="M29.1438 28.92H28.2476V29.8163H29.1438V28.92Z" fill="black"/>
<path d="M29.1438 28.0325H28.2476V28.92H29.1438V28.0325Z" fill="black"/>
<path d="M29.1438 27.1363H28.2476V28.0325H29.1438V27.1363Z" fill="black"/>
<path d="M29.1438 26.25H28.2476V27.1375H29.1438V26.25Z" fill="black"/>
<path d="M29.1438 25.3538H28.2476V26.25H29.1438V25.3538Z" fill="black"/>
<path d="M29.1438 24.4662H28.2476V25.3537H29.1438V24.4662Z" fill="black"/>
<path d="M29.1438 23.57H28.2476V24.4663H29.1438V23.57Z" fill="black"/>
<path d="M29.1438 22.6737H28.2476V23.57H29.1438V22.6737Z" fill="black"/>
<path d="M29.1438 21.7888H28.2476V22.6763H29.1438V21.7888Z" fill="#373801"/>
<path d="M29.1438 20.8925H28.2476V21.7887H29.1438V20.8925Z" fill="black"/>
<path d="M29.1438 20.005H28.2476V20.8925H29.1438V20.005Z" fill="black"/>
<path d="M29.1438 19.1088H28.2476V20.005H29.1438V19.1088Z" fill="#2B2B2A"/>
<path d="M29.1438 18.2225H28.2476V19.11H29.1438V18.2225Z" fill="#2B2B2A"/>
<path d="M29.1438 17.3263H28.2476V18.2225H29.1438V17.3263Z" fill="#3D3D3B"/>
<path d="M29.1438 16.43H28.2476V17.3262H29.1438V16.43Z" fill="black"/>
<path d="M29.1438 15.5425H28.2476V16.43H29.1438V15.5425Z" fill="black"/>
<path d="M29.1438 14.6487H28.2476V15.545H29.1438V14.6487Z" fill="#2B2B2A"/>
<path d="M29.1438 13.7613H28.2476V14.6488H29.1438V13.7613Z" fill="black"/>
<path d="M29.1438 12.865H28.2476V13.7612H29.1438V12.865Z" fill="black"/>
<path d="M29.1438 11.9775H28.2476V12.865H29.1438V11.9775Z" fill="#2B2B2A"/>
<path d="M29.1438 11.0812H28.2476V11.9775H29.1438V11.0812Z" fill="#2B2B2A"/>
<path d="M29.1438 10.195H28.2476V11.0825H29.1438V10.195Z" fill="black"/>
<path d="M28.2473 40.5212H27.3511V41.4087H28.2473V40.5212Z" fill="black"/>
<path d="M28.2473 39.625H27.3511V40.5213H28.2473V39.625Z" fill="#5B1E00"/>
<path d="M28.2473 38.7387H27.3511V39.6262H28.2473V38.7387Z" fill="#660801"/>
<path d="M28.2473 37.8425H27.3511V38.7388H28.2473V37.8425Z" fill="#660801"/>
<path d="M28.2473 36.9463H27.3511V37.8425H28.2473V36.9463Z" fill="#660801"/>
<path d="M28.2473 36.06H27.3511V36.9475H28.2473V36.06Z" fill="#3F1401"/>
<path d="M28.2473 35.1638H27.3511V36.06H28.2473V35.1638Z" fill="#5B1E00"/>
<path d="M28.2473 34.2775H27.3511V35.165H28.2473V34.2775Z" fill="black"/>
<path d="M28.2473 33.3813H27.3511V34.2775H28.2473V33.3813Z" fill="#B5A518"/>
<path d="M28.2473 32.4937H27.3511V33.3812H28.2473V32.4937Z" fill="#B5A518"/>
<path d="M28.2473 31.5975H27.3511V32.4938H28.2473V31.5975Z" fill="#2B2B2A"/>
<path d="M28.2473 30.7013H27.3511V31.5975H28.2473V30.7013Z" fill="#3D3D3B"/>
<path d="M28.2473 29.815H27.3511V30.7025H28.2473V29.815Z" fill="#2B2B2A"/>
<path d="M28.2473 28.92H27.3511V29.8163H28.2473V28.92Z" fill="black"/>
<path d="M28.2473 28.0325H27.3511V28.92H28.2473V28.0325Z" fill="#373801"/>
<path d="M28.2473 27.1363H27.3511V28.0325H28.2473V27.1363Z" fill="#373801"/>
<path d="M28.2473 26.25H27.3511V27.1375H28.2473V26.25Z" fill="#5C6302"/>
<path d="M28.2473 25.3538H27.3511V26.25H28.2473V25.3538Z" fill="#5C6302"/>
<path d="M28.2473 24.4662H27.3511V25.3537H28.2473V24.4662Z" fill="#5C6302"/>
<path d="M28.2473 23.57H27.3511V24.4663H28.2473V23.57Z" fill="#373801"/>
<path d="M28.2473 22.6737H27.3511V23.57H28.2473V22.6737Z" fill="#373801"/>
<path d="M28.2473 21.7888H27.3511V22.6763H28.2473V21.7888Z" fill="#373801"/>
<path d="M28.2473 20.8925H27.3511V21.7887H28.2473V20.8925Z" fill="#2B2B2A"/>
<path d="M28.2473 20.005H27.3511V20.8925H28.2473V20.005Z" fill="#3D3D3B"/>
<path d="M28.2473 19.1088H27.3511V20.005H28.2473V19.1088Z" fill="black"/>
<path d="M28.2473 18.2225H27.3511V19.11H28.2473V18.2225Z" fill="#2B2B2A"/>
<path d="M28.2473 17.3263H27.3511V18.2225H28.2473V17.3263Z" fill="black"/>
<path d="M28.2473 16.43H27.3511V17.3262H28.2473V16.43Z" fill="#2B2B2A"/>
<path d="M28.2473 15.5425H27.3511V16.43H28.2473V15.5425Z" fill="#2B2B2A"/>
<path d="M28.2473 14.6487H27.3511V15.545H28.2473V14.6487Z" fill="#2B2B2A"/>
<path d="M28.2473 13.7613H27.3511V14.6488H28.2473V13.7613Z" fill="#2B2B2A"/>
<path d="M28.2473 12.865H27.3511V13.7612H28.2473V12.865Z" fill="#2B2B2A"/>
<path d="M28.2473 11.9775H27.3511V12.865H28.2473V11.9775Z" fill="#2B2B2A"/>
<path d="M28.2473 11.0812H27.3511V11.9775H28.2473V11.0812Z" fill="#2B2B2A"/>
<path d="M28.2473 10.195H27.3511V11.0825H28.2473V10.195Z" fill="black"/>
<path d="M27.3523 40.5212H26.4648V41.4087H27.3523V40.5212Z" fill="black"/>
<path d="M27.3523 39.625H26.4648V40.5213H27.3523V39.625Z" fill="#5B1E00"/>
<path d="M27.3523 38.7387H26.4648V39.6262H27.3523V38.7387Z" fill="#5B1E00"/>
<path d="M27.3523 37.8425H26.4648V38.7388H27.3523V37.8425Z" fill="#660801"/>
<path d="M27.3523 36.9463H26.4648V37.8425H27.3523V36.9463Z" fill="#5B1E00"/>
<path d="M27.3523 36.06H26.4648V36.9475H27.3523V36.06Z" fill="#5B1E00"/>
<path d="M27.3523 35.1638H26.4648V36.06H27.3523V35.1638Z" fill="#5B1E00"/>
<path d="M27.3523 34.2775H26.4648V35.165H27.3523V34.2775Z" fill="black"/>
<path d="M27.3523 33.3813H26.4648V34.2775H27.3523V33.3813Z" fill="#B5A518"/>
<path d="M27.3523 32.4937H26.4648V33.3812H27.3523V32.4937Z" fill="#B5A518"/>
<path d="M27.3523 31.5975H26.4648V32.4938H27.3523V31.5975Z" fill="#B5A518"/>
<path d="M27.3523 30.7013H26.4648V31.5975H27.3523V30.7013Z" fill="#3D3D3B"/>
<path d="M27.3523 29.815H26.4648V30.7025H27.3523V29.815Z" fill="#3D3D3B"/>
<path d="M27.3523 28.92H26.4648V29.8163H27.3523V28.92Z" fill="#373801"/>
<path d="M27.3523 28.0325H26.4648V28.92H27.3523V28.0325Z" fill="#373801"/>
<path d="M27.3523 27.1363H26.4648V28.0325H27.3523V27.1363Z" fill="#373801"/>
<path d="M27.3523 26.25H26.4648V27.1375H27.3523V26.25Z" fill="#5C6302"/>
<path d="M27.3523 25.3538H26.4648V26.25H27.3523V25.3538Z" fill="#5C6302"/>
<path d="M27.3523 24.4662H26.4648V25.3537H27.3523V24.4662Z" fill="#5C6302"/>
<path d="M27.3523 23.57H26.4648V24.4663H27.3523V23.57Z" fill="#5C6302"/>
<path d="M27.3523 22.6737H26.4648V23.57H27.3523V22.6737Z" fill="#373801"/>
<path d="M27.3523 21.7888H26.4648V22.6763H27.3523V21.7888Z" fill="#373801"/>
<path d="M27.3523 20.8925H26.4648V21.7887H27.3523V20.8925Z" fill="#2B2B2A"/>
<path d="M27.3523 20.005H26.4648V20.8925H27.3523V20.005Z" fill="#2B2B2A"/>
<path d="M27.3523 19.1088H26.4648V20.005H27.3523V19.1088Z" fill="#2B2B2A"/>
<path d="M27.3523 18.2225H26.4648V19.11H27.3523V18.2225Z" fill="#2B2B2A"/>
<path d="M27.3523 17.3263H26.4648V18.2225H27.3523V17.3263Z" fill="black"/>
<path d="M27.3523 16.43H26.4648V17.3262H27.3523V16.43Z" fill="#2B2B2A"/>
<path d="M27.3523 15.5425H26.4648V16.43H27.3523V15.5425Z" fill="#2B2B2A"/>
<path d="M27.3523 14.6487H26.4648V15.545H27.3523V14.6487Z" fill="#2B2B2A"/>
<path d="M27.3523 13.7613H26.4648V14.6488H27.3523V13.7613Z" fill="#2B2B2A"/>
<path d="M27.3523 12.865H26.4648V13.7612H27.3523V12.865Z" fill="#2B2B2A"/>
<path d="M27.3523 11.9775H26.4648V12.865H27.3523V11.9775Z" fill="#2B2B2A"/>
<path d="M27.3523 11.0812H26.4648V11.9775H27.3523V11.0812Z" fill="#2B2B2A"/>
<path d="M27.3523 10.195H26.4648V11.0825H27.3523V10.195Z" fill="black"/>
<path d="M26.4651 39.625H25.5688V40.5213H26.4651V39.625Z" fill="black"/>
<path d="M26.4651 38.7387H25.5688V39.6262H26.4651V38.7387Z" fill="black"/>
<path d="M26.4651 37.8425H25.5688V38.7388H26.4651V37.8425Z" fill="black"/>
<path d="M26.4651 36.9463H25.5688V37.8425H26.4651V36.9463Z" fill="black"/>
<path d="M26.4651 36.06H25.5688V36.9475H26.4651V36.06Z" fill="black"/>
<path d="M26.4651 35.1638H25.5688V36.06H26.4651V35.1638Z" fill="black"/>
<path d="M26.4651 34.2775H25.5688V35.165H26.4651V34.2775Z" fill="black"/>
<path d="M26.4651 33.3813H25.5688V34.2775H26.4651V33.3813Z" fill="black"/>
<path d="M26.4651 32.4937H25.5688V33.3812H26.4651V32.4937Z" fill="black"/>
<path d="M26.4651 31.5975H25.5688V32.4938H26.4651V31.5975Z" fill="#B5A518"/>
<path d="M26.4651 30.7013H25.5688V31.5975H26.4651V30.7013Z" fill="#B5A518"/>
<path d="M26.4651 29.815H25.5688V30.7025H26.4651V29.815Z" fill="#B5A518"/>
<path d="M26.4651 28.92H25.5688V29.8163H26.4651V28.92Z" fill="#373801"/>
<path d="M26.4651 28.0325H25.5688V28.92H26.4651V28.0325Z" fill="#B5A518"/>
<path d="M26.4651 27.1363H25.5688V28.0325H26.4651V27.1363Z" fill="#5C6302"/>
<path d="M26.4651 26.25H25.5688V27.1375H26.4651V26.25Z" fill="#5C6302"/>
<path d="M26.4651 25.3538H25.5688V26.25H26.4651V25.3538Z" fill="#5C6302"/>
<path d="M26.4651 24.4662H25.5688V25.3537H26.4651V24.4662Z" fill="#5C6302"/>
<path d="M26.4651 23.57H25.5688V24.4663H26.4651V23.57Z" fill="#5C6302"/>
<path d="M26.4651 22.6737H25.5688V23.57H26.4651V22.6737Z" fill="#B5A518"/>
<path d="M26.4651 21.7888H25.5688V22.6763H26.4651V21.7888Z" fill="#B5A518"/>
<path d="M26.4651 20.8925H25.5688V21.7887H26.4651V20.8925Z" fill="#3D3D3B"/>
<path d="M26.4651 20.005H25.5688V20.8925H26.4651V20.005Z" fill="#2B2B2A"/>
<path d="M26.4651 19.1088H25.5688V20.005H26.4651V19.1088Z" fill="#3D3D3B"/>
<path d="M26.4651 18.2225H25.5688V19.11H26.4651V18.2225Z" fill="black"/>
<path d="M26.4651 17.3263H25.5688V18.2225H26.4651V17.3263Z" fill="#F7AB94"/>
<path d="M26.4651 16.43H25.5688V17.3262H26.4651V16.43Z" fill="#F7AB94"/>
<path d="M26.4651 15.5425H25.5688V16.43H26.4651V15.5425Z" fill="#F7AB94"/>
<path d="M26.4651 14.6487H25.5688V15.545H26.4651V14.6487Z" fill="#F7AB94"/>
<path d="M26.4651 13.7613H25.5688V14.6488H26.4651V13.7613Z" fill="#2B2B2A"/>
<path d="M26.4651 12.865H25.5688V13.7612H26.4651V12.865Z" fill="#2B2B2A"/>
<path d="M26.4651 11.9775H25.5688V12.865H26.4651V11.9775Z" fill="#2B2B2A"/>
<path d="M26.4651 11.0812H25.5688V11.9775H26.4651V11.0812Z" fill="#3D3D3B"/>
<path d="M26.4651 10.195H25.5688V11.0825H26.4651V10.195Z" fill="black"/>
<path d="M25.5687 33.3813H24.6812V34.2775H25.5687V33.3813Z" fill="black"/>
<path d="M25.5687 32.4937H24.6812V33.3812H25.5687V32.4937Z" fill="black"/>
<path d="M25.5687 31.5975H24.6812V32.4938H25.5687V31.5975Z" fill="black"/>
<path d="M25.5687 30.7013H24.6812V31.5975H25.5687V30.7013Z" fill="black"/>
<path d="M25.5687 29.815H24.6812V30.7025H25.5687V29.815Z" fill="black"/>
<path d="M25.5687 28.92H24.6812V29.8163H25.5687V28.92Z" fill="#373801"/>
<path d="M25.5687 28.0325H24.6812V28.92H25.5687V28.0325Z" fill="#B5A518"/>
<path d="M25.5687 27.1363H24.6812V28.0325H25.5687V27.1363Z" fill="#B5A518"/>
<path d="M25.5687 26.25H24.6812V27.1375H25.5687V26.25Z" fill="#5C6302"/>
<path d="M25.5687 25.3538H24.6812V26.25H25.5687V25.3538Z" fill="#5C6302"/>
<path d="M25.5687 24.4662H24.6812V25.3537H25.5687V24.4662Z" fill="#B5A518"/>
<path d="M25.5687 23.57H24.6812V24.4663H25.5687V23.57Z" fill="#B5A518"/>
<path d="M25.5687 22.6737H24.6812V23.57H25.5687V22.6737Z" fill="#5C6302"/>
<path d="M25.5687 21.7888H24.6812V22.6763H25.5687V21.7888Z" fill="#2B2B2A"/>
<path d="M25.5687 20.8925H24.6812V21.7887H25.5687V20.8925Z" fill="#3D3D3B"/>
<path d="M25.5687 20.005H24.6812V20.8925H25.5687V20.005Z" fill="#3D3D3B"/>
<path d="M25.5687 19.1088H24.6812V20.005H25.5687V19.1088Z" fill="#3D3D3B"/>
<path d="M25.5687 18.2225H24.6812V19.11H25.5687V18.2225Z" fill="black"/>
<path d="M25.5687 17.3263H24.6812V18.2225H25.5687V17.3263Z" fill="#F7AB94"/>
<path d="M25.5687 16.43H24.6812V17.3262H25.5687V16.43Z" fill="#F7AB94"/>
<path d="M25.5687 15.5425H24.6812V16.43H25.5687V15.5425Z" fill="#F7AB94"/>
<path d="M25.5687 14.6487H24.6812V15.545H25.5687V14.6487Z" fill="#F7AB94"/>
<path d="M25.5687 13.7613H24.6812V14.6488H25.5687V13.7613Z" fill="#F7AB94"/>
<path d="M25.5687 12.865H24.6812V13.7612H25.5687V12.865Z" fill="#2B2B2A"/>
<path d="M25.5687 11.9775H24.6812V12.865H25.5687V11.9775Z" fill="#3D3D3B"/>
<path d="M25.5687 11.0812H24.6812V11.9775H25.5687V11.0812Z" fill="#3D3D3B"/>
<path d="M25.5687 10.195H24.6812V11.0825H25.5687V10.195Z" fill="black"/>
<path d="M24.6814 36.06H23.7852V36.9475H24.6814V36.06Z" fill="black"/>
<path d="M24.6814 35.1638H23.7852V36.06H24.6814V35.1638Z" fill="black"/>
<path d="M24.6814 34.2775H23.7852V35.165H24.6814V34.2775Z" fill="black"/>
<path d="M24.6814 33.3813H23.7852V34.2775H24.6814V33.3813Z" fill="#B5A518"/>
<path d="M24.6814 32.4937H23.7852V33.3812H24.6814V32.4937Z" fill="#B5A518"/>
<path d="M24.6814 31.5975H23.7852V32.4938H24.6814V31.5975Z" fill="#2B2B2A"/>
<path d="M24.6814 30.7013H23.7852V31.5975H24.6814V30.7013Z" fill="#2B2B2A"/>
<path d="M24.6814 29.815H23.7852V30.7025H24.6814V29.815Z" fill="#2B2B2A"/>
<path d="M24.6814 28.92H23.7852V29.8163H24.6814V28.92Z" fill="black"/>
<path d="M24.6814 28.0325H23.7852V28.92H24.6814V28.0325Z" fill="#373801"/>
<path d="M24.6814 27.1363H23.7852V28.0325H24.6814V27.1363Z" fill="#B5A518"/>
<path d="M24.6814 26.25H23.7852V27.1375H24.6814V26.25Z" fill="#B5A518"/>
<path d="M24.6814 25.3538H23.7852V26.25H24.6814V25.3538Z" fill="#5C6302"/>
<path d="M24.6814 24.4662H23.7852V25.3537H24.6814V24.4662Z" fill="#B5A518"/>
<path d="M24.6814 23.57H23.7852V24.4663H24.6814V23.57Z" fill="#B5A518"/>
<path d="M24.6814 22.6737H23.7852V23.57H24.6814V22.6737Z" fill="#5C6302"/>
<path d="M24.6814 21.7888H23.7852V22.6763H24.6814V21.7888Z" fill="#2B2B2A"/>
<path d="M24.6814 20.8925H23.7852V21.7887H24.6814V20.8925Z" fill="#3D3D3B"/>
<path d="M24.6814 20.005H23.7852V20.8925H24.6814V20.005Z" fill="#3D3D3B"/>
<path d="M24.6814 19.1088H23.7852V20.005H24.6814V19.1088Z" fill="#3D3D3B"/>
<path d="M24.6814 18.2225H23.7852V19.11H24.6814V18.2225Z" fill="black"/>
<path d="M24.6814 17.3263H23.7852V18.2225H24.6814V17.3263Z" fill="#F7AB94"/>
<path d="M24.6814 16.43H23.7852V17.3262H24.6814V16.43Z" fill="#F7AB94"/>
<path d="M24.6814 15.5425H23.7852V16.43H24.6814V15.5425Z" fill="#F7AB94"/>
<path d="M24.6814 14.6487H23.7852V15.545H24.6814V14.6487Z" fill="#F7AB94"/>
<path d="M24.6814 13.7613H23.7852V14.6488H24.6814V13.7613Z" fill="#F7AB94"/>
<path d="M24.6814 12.865H23.7852V13.7612H24.6814V12.865Z" fill="#3D3D3B"/>
<path d="M24.6814 11.9775H23.7852V12.865H24.6814V11.9775Z" fill="#3D3D3B"/>
<path d="M24.6814 11.0812H23.7852V11.9775H24.6814V11.0812Z" fill="#3D3D3B"/>
<path d="M24.6814 10.195H23.7852V11.0825H24.6814V10.195Z" fill="black"/>
<path d="M23.7864 38.7387H22.8989V39.6262H23.7864V38.7387Z" fill="black"/>
<path d="M23.7864 37.8425H22.8989V38.7388H23.7864V37.8425Z" fill="black"/>
<path d="M23.7864 36.9463H22.8989V37.8425H23.7864V36.9463Z" fill="black"/>
<path d="M23.7864 36.06H22.8989V36.9475H23.7864V36.06Z" fill="#3F1401"/>
<path d="M23.7864 35.1638H22.8989V36.06H23.7864V35.1638Z" fill="#3F1401"/>
<path d="M23.7864 34.2775H22.8989V35.165H23.7864V34.2775Z" fill="black"/>
<path d="M23.7864 33.3813H22.8989V34.2775H23.7864V33.3813Z" fill="#B5A518"/>
<path d="M23.7864 32.4937H22.8989V33.3812H23.7864V32.4937Z" fill="#2B2B2A"/>
<path d="M23.7864 31.5975H22.8989V32.4938H23.7864V31.5975Z" fill="#2B2B2A"/>
<path d="M23.7864 30.7013H22.8989V31.5975H23.7864V30.7013Z" fill="#3D3D3B"/>
<path d="M23.7864 29.815H22.8989V30.7025H23.7864V29.815Z" fill="#2B2B2A"/>
<path d="M23.7864 28.92H22.8989V29.8163H23.7864V28.92Z" fill="black"/>
<path d="M23.7864 28.0325H22.8989V28.92H23.7864V28.0325Z" fill="#373801"/>
<path d="M23.7864 27.1363H22.8989V28.0325H23.7864V27.1363Z" fill="#373801"/>
<path d="M23.7864 26.25H22.8989V27.1375H23.7864V26.25Z" fill="#5C6302"/>
<path d="M23.7864 25.3538H22.8989V26.25H23.7864V25.3538Z" fill="#5C6302"/>
<path d="M23.7864 24.4662H22.8989V25.3537H23.7864V24.4662Z" fill="#B5A518"/>
<path d="M23.7864 23.57H22.8989V24.4663H23.7864V23.57Z" fill="#B5A518"/>
<path d="M23.7864 22.6737H22.8989V23.57H23.7864V22.6737Z" fill="#373801"/>
<path d="M23.7864 21.7888H22.8989V22.6763H23.7864V21.7888Z" fill="#2B2B2A"/>
<path d="M23.7864 20.8925H22.8989V21.7887H23.7864V20.8925Z" fill="#3D3D3B"/>
<path d="M23.7864 20.005H22.8989V20.8925H23.7864V20.005Z" fill="#3D3D3B"/>
<path d="M23.7864 19.1088H22.8989V20.005H23.7864V19.1088Z" fill="#3D3D3B"/>
<path d="M23.7864 18.2225H22.8989V19.11H23.7864V18.2225Z" fill="black"/>
<path d="M23.7864 17.3263H22.8989V18.2225H23.7864V17.3263Z" fill="#F7AB94"/>
<path d="M23.7864 16.43H22.8989V17.3262H23.7864V16.43Z" fill="#F7AB94"/>
<path d="M23.7864 15.5425H22.8989V16.43H23.7864V15.5425Z" fill="#F7AB94"/>
<path d="M23.7864 14.6487H22.8989V15.545H23.7864V14.6487Z" fill="#F7AB94"/>
<path d="M23.7864 13.7613H22.8989V14.6488H23.7864V13.7613Z" fill="#3D3D3B"/>
<path d="M23.7864 12.865H22.8989V13.7612H23.7864V12.865Z" fill="#3D3D3B"/>
<path d="M23.7864 11.9775H22.8989V12.865H23.7864V11.9775Z" fill="#3D3D3B"/>
<path d="M23.7864 11.0812H22.8989V11.9775H23.7864V11.0812Z" fill="#3D3D3B"/>
<path d="M23.7864 10.195H22.8989V11.0825H23.7864V10.195Z" fill="black"/>
<path d="M22.8987 41.4088H22.0024V42.305H22.8987V41.4088Z" fill="black"/>
<path d="M22.8987 40.5212H22.0024V41.4087H22.8987V40.5212Z" fill="black"/>
<path d="M22.8987 39.625H22.0024V40.5213H22.8987V39.625Z" fill="black"/>
<path d="M22.8987 38.7387H22.0024V39.6262H22.8987V38.7387Z" fill="#3F1401"/>
<path d="M22.8987 37.8425H22.0024V38.7388H22.8987V37.8425Z" fill="#3F1401"/>
<path d="M22.8987 36.9463H22.0024V37.8425H22.8987V36.9463Z" fill="#3F1401"/>
<path d="M22.8987 36.06H22.0024V36.9475H22.8987V36.06Z" fill="#3F1401"/>
<path d="M22.8987 35.1638H22.0024V36.06H22.8987V35.1638Z" fill="#3F1401"/>
<path d="M22.8987 34.2775H22.0024V35.165H22.8987V34.2775Z" fill="#3F1401"/>
<path d="M22.8987 33.3813H22.0024V34.2775H22.8987V33.3813Z" fill="black"/>
<path d="M22.8987 32.4937H22.0024V33.3812H22.8987V32.4937Z" fill="#2B2B2A"/>
<path d="M22.8987 31.5975H22.0024V32.4938H22.8987V31.5975Z" fill="#3D3D3B"/>
<path d="M22.8987 30.7013H22.0024V31.5975H22.8987V30.7013Z" fill="#3D3D3B"/>
<path d="M22.8987 29.815H22.0024V30.7025H22.8987V29.815Z" fill="#3D3D3B"/>
<path d="M22.8987 28.92H22.0024V29.8163H22.8987V28.92Z" fill="#3D3D3B"/>
<path d="M22.8987 28.0325H22.0024V28.92H22.8987V28.0325Z" fill="black"/>
<path d="M22.8987 27.1363H22.0024V28.0325H22.8987V27.1363Z" fill="#373801"/>
<path d="M22.8987 26.25H22.0024V27.1375H22.8987V26.25Z" fill="#5C6302"/>
<path d="M22.8987 25.3538H22.0024V26.25H22.8987V25.3538Z" fill="#5C6302"/>
<path d="M22.8987 24.4662H22.0024V25.3537H22.8987V24.4662Z" fill="#5C6302"/>
<path d="M22.8987 23.57H22.0024V24.4663H22.8987V23.57Z" fill="#373801"/>
<path d="M22.8987 22.6737H22.0024V23.57H22.8987V22.6737Z" fill="#B5A518"/>
<path d="M22.8987 21.7888H22.0024V22.6763H22.8987V21.7888Z" fill="#B5A518"/>
<path d="M22.8987 20.8925H22.0024V21.7887H22.8987V20.8925Z" fill="#3D3D3B"/>
<path d="M22.8987 20.005H22.0024V20.8925H22.8987V20.005Z" fill="#3D3D3B"/>
<path d="M22.8987 19.1088H22.0024V20.005H22.8987V19.1088Z" fill="#3D3D3B"/>
<path d="M22.8987 18.2225H22.0024V19.11H22.8987V18.2225Z" fill="#2B2B2A"/>
<path d="M22.8987 17.3263H22.0024V18.2225H22.8987V17.3263Z" fill="black"/>
<path d="M22.8987 16.43H22.0024V17.3262H22.8987V16.43Z" fill="#F7AB94"/>
<path d="M22.8987 15.5425H22.0024V16.43H22.8987V15.5425Z" fill="#F7AB94"/>
<path d="M22.8987 14.6487H22.0024V15.545H22.8987V14.6487Z" fill="#F7AB94"/>
<path d="M22.8987 13.7613H22.0024V14.6488H22.8987V13.7613Z" fill="#3D3D3B"/>
<path d="M22.8987 12.865H22.0024V13.7612H22.8987V12.865Z" fill="#3D3D3B"/>
<path d="M22.8987 11.9775H22.0024V12.865H22.8987V11.9775Z" fill="#3D3D3B"/>
<path d="M22.8987 11.0812H22.0024V11.9775H22.8987V11.0812Z" fill="black"/>
<path d="M22.0037 41.4088H21.1162V42.305H22.0037V41.4088Z" fill="black"/>
<path d="M22.0037 40.5212H21.1162V41.4087H22.0037V40.5212Z" fill="#3F1401"/>
<path d="M22.0037 39.625H21.1162V40.5213H22.0037V39.625Z" fill="#3F1401"/>
<path d="M22.0037 38.7387H21.1162V39.6262H22.0037V38.7387Z" fill="#5B1E00"/>
<path d="M22.0037 37.8425H21.1162V38.7388H22.0037V37.8425Z" fill="#660801"/>
<path d="M22.0037 36.9463H21.1162V37.8425H22.0037V36.9463Z" fill="#660801"/>
<path d="M22.0037 36.06H21.1162V36.9475H22.0037V36.06Z" fill="#5B1E00"/>
<path d="M22.0037 35.1638H21.1162V36.06H22.0037V35.1638Z" fill="#3F1401"/>
<path d="M22.0037 34.2775H21.1162V35.165H22.0037V34.2775Z" fill="#5B1E00"/>
<path d="M22.0037 33.3813H21.1162V34.2775H22.0037V33.3813Z" fill="black"/>
<path d="M22.0037 32.4937H21.1162V33.3812H22.0037V32.4937Z" fill="#3D3D3B"/>
<path d="M22.0037 31.5975H21.1162V32.4938H22.0037V31.5975Z" fill="#3D3D3B"/>
<path d="M22.0037 30.7013H21.1162V31.5975H22.0037V30.7013Z" fill="#3D3D3B"/>
<path d="M22.0037 29.815H21.1162V30.7025H22.0037V29.815Z" fill="#2B2B2A"/>
<path d="M22.0037 28.92H21.1162V29.8163H22.0037V28.92Z" fill="#2B2B2A"/>
<path d="M22.0037 28.0325H21.1162V28.92H22.0037V28.0325Z" fill="black"/>
<path d="M22.0037 27.1363H21.1162V28.0325H22.0037V27.1363Z" fill="#373801"/>
<path d="M22.0037 26.25H21.1162V27.1375H22.0037V26.25Z" fill="#5C6302"/>
<path d="M22.0037 25.3538H21.1162V26.25H22.0037V25.3538Z" fill="#5C6302"/>
<path d="M22.0037 24.4662H21.1162V25.3537H22.0037V24.4662Z" fill="#373801"/>
<path d="M22.0037 23.57H21.1162V24.4663H22.0037V23.57Z" fill="#373801"/>
<path d="M22.0037 22.6737H21.1162V23.57H22.0037V22.6737Z" fill="#373801"/>
<path d="M22.0037 21.7888H21.1162V22.6763H22.0037V21.7888Z" fill="#373801"/>
<path d="M22.0037 20.8925H21.1162V21.7887H22.0037V20.8925Z" fill="#373801"/>
<path d="M22.0037 20.005H21.1162V20.8925H22.0037V20.005Z" fill="#3D3D3B"/>
<path d="M22.0037 19.1088H21.1162V20.005H22.0037V19.1088Z" fill="#2B2B2A"/>
<path d="M22.0037 18.2225H21.1162V19.11H22.0037V18.2225Z" fill="#2B2B2A"/>
<path d="M22.0037 17.3263H21.1162V18.2225H22.0037V17.3263Z" fill="black"/>
<path d="M22.0037 16.43H21.1162V17.3262H22.0037V16.43Z" fill="#F7AB94"/>
<path d="M22.0037 15.5425H21.1162V16.43H22.0037V15.5425Z" fill="#F7AB94"/>
<path d="M22.0037 14.6487H21.1162V15.545H22.0037V14.6487Z" fill="#2B2B2A"/>
<path d="M22.0037 13.7613H21.1162V14.6488H22.0037V13.7613Z" fill="#3D3D3B"/>
<path d="M22.0037 12.865H21.1162V13.7612H22.0037V12.865Z" fill="#3D3D3B"/>
<path d="M22.0037 11.9775H21.1162V12.865H22.0037V11.9775Z" fill="#3D3D3B"/>
<path d="M22.0037 11.0812H21.1162V11.9775H22.0037V11.0812Z" fill="black"/>
<path d="M21.1165 41.4088H20.2202V42.305H21.1165V41.4088Z" fill="black"/>
<path d="M21.1165 40.5212H20.2202V41.4087H21.1165V40.5212Z" fill="#660801"/>
<path d="M21.1165 39.625H20.2202V40.5213H21.1165V39.625Z" fill="#3F1401"/>
<path d="M21.1165 38.7387H20.2202V39.6262H21.1165V38.7387Z" fill="#5B1E00"/>
<path d="M21.1165 37.8425H20.2202V38.7388H21.1165V37.8425Z" fill="#660801"/>
<path d="M21.1165 36.9463H20.2202V37.8425H21.1165V36.9463Z" fill="#5B1E00"/>
<path d="M21.1165 36.06H20.2202V36.9475H21.1165V36.06Z" fill="#5B1E00"/>
<path d="M21.1165 35.1638H20.2202V36.06H21.1165V35.1638Z" fill="#3F1401"/>
<path d="M21.1165 34.2775H20.2202V35.165H21.1165V34.2775Z" fill="#5B1E00"/>
<path d="M21.1165 33.3813H20.2202V34.2775H21.1165V33.3813Z" fill="black"/>
<path d="M21.1165 32.4937H20.2202V33.3812H21.1165V32.4937Z" fill="#B5A518"/>
<path d="M21.1165 31.5975H20.2202V32.4938H21.1165V31.5975Z" fill="#B5A518"/>
<path d="M21.1165 30.7013H20.2202V31.5975H21.1165V30.7013Z" fill="black"/>
<path d="M21.1165 29.815H20.2202V30.7025H21.1165V29.815Z" fill="black"/>
<path d="M21.1165 28.92H20.2202V29.8163H21.1165V28.92Z" fill="black"/>
<path d="M21.1165 28.0325H20.2202V28.92H21.1165V28.0325Z" fill="#3F1401"/>
<path d="M21.1165 27.1363H20.2202V28.0325H21.1165V27.1363Z" fill="black"/>
<path d="M21.1165 26.25H20.2202V27.1375H21.1165V26.25Z" fill="black"/>
<path d="M21.1165 25.3538H20.2202V26.25H21.1165V25.3538Z" fill="black"/>
<path d="M21.1165 24.4662H20.2202V25.3537H21.1165V24.4662Z" fill="black"/>
<path d="M21.1165 23.57H20.2202V24.4663H21.1165V23.57Z" fill="black"/>
<path d="M21.1165 22.6737H20.2202V23.57H21.1165V22.6737Z" fill="#373801"/>
<path d="M21.1165 21.7888H20.2202V22.6763H21.1165V21.7888Z" fill="black"/>
<path d="M21.1165 20.8925H20.2202V21.7887H21.1165V20.8925Z" fill="black"/>
<path d="M21.1165 20.005H20.2202V20.8925H21.1165V20.005Z" fill="black"/>
<path d="M21.1165 19.1088H20.2202V20.005H21.1165V19.1088Z" fill="#2B2B2A"/>
<path d="M21.1165 18.2225H20.2202V19.11H21.1165V18.2225Z" fill="#2B2B2A"/>
<path d="M21.1165 17.3263H20.2202V18.2225H21.1165V17.3263Z" fill="#2B2B2A"/>
<path d="M21.1165 16.43H20.2202V17.3262H21.1165V16.43Z" fill="black"/>
<path d="M21.1165 15.5425H20.2202V16.43H21.1165V15.5425Z" fill="black"/>
<path d="M21.1165 14.6487H20.2202V15.545H21.1165V14.6487Z" fill="#2B2B2A"/>
<path d="M21.1165 13.7613H20.2202V14.6488H21.1165V13.7613Z" fill="#3D3D3B"/>
<path d="M21.1165 12.865H20.2202V13.7612H21.1165V12.865Z" fill="black"/>
<path d="M21.1165 11.9775H20.2202V12.865H21.1165V11.9775Z" fill="black"/>
<path d="M20.22 41.4088H19.3237V42.305H20.22V41.4088Z" fill="black"/>
<path d="M20.22 40.5212H19.3237V41.4087H20.22V40.5212Z" fill="#660801"/>
<path d="M20.22 39.625H19.3237V40.5213H20.22V39.625Z" fill="#660801"/>
<path d="M20.22 38.7387H19.3237V39.6262H20.22V38.7387Z" fill="#5B1E00"/>
<path d="M20.22 37.8425H19.3237V38.7388H20.22V37.8425Z" fill="black"/>
<path d="M20.22 36.9463H19.3237V37.8425H20.22V36.9463Z" fill="black"/>
<path d="M20.22 36.06H19.3237V36.9475H20.22V36.06Z" fill="black"/>
<path d="M20.22 35.1638H19.3237V36.06H20.22V35.1638Z" fill="black"/>
<path d="M20.22 34.2775H19.3237V35.165H20.22V34.2775Z" fill="black"/>
<path d="M20.22 32.4937H19.3237V33.3812H20.22V32.4937Z" fill="black"/>
<path d="M20.22 31.5975H19.3237V32.4938H20.22V31.5975Z" fill="black"/>
<path d="M20.22 30.7013H19.3237V31.5975H20.22V30.7013Z" fill="#3F1401"/>
<path d="M20.22 29.815H19.3237V30.7025H20.22V29.815Z" fill="#3F1401"/>
<path d="M20.22 28.92H19.3237V29.8163H20.22V28.92Z" fill="#3F1401"/>
<path d="M20.22 28.0325H19.3237V28.92H20.22V28.0325Z" fill="black"/>
<path d="M20.22 27.1363H19.3237V28.0325H20.22V27.1363Z" fill="black"/>
<path d="M20.22 26.25H19.3237V27.1375H20.22V26.25Z" fill="#B5A518"/>
<path d="M20.22 25.3538H19.3237V26.25H20.22V25.3538Z" fill="#B5A518"/>
<path d="M20.22 24.4662H19.3237V25.3537H20.22V24.4662Z" fill="#B5A518"/>
<path d="M20.22 23.57H19.3237V24.4663H20.22V23.57Z" fill="black"/>
<path d="M20.22 22.6737H19.3237V23.57H20.22V22.6737Z" fill="black"/>
<path d="M20.22 21.7888H19.3237V22.6763H20.22V21.7888Z" fill="black"/>
<path d="M20.22 20.8925H19.3237V21.7887H20.22V20.8925Z" fill="#2B2B2A"/>
<path d="M20.22 20.005H19.3237V20.8925H20.22V20.005Z" fill="#2B2B2A"/>
<path d="M20.22 19.1088H19.3237V20.005H20.22V19.1088Z" fill="#3D3D3B"/>
<path d="M20.22 18.2225H19.3237V19.11H20.22V18.2225Z" fill="#2B2B2A"/>
<path d="M20.22 17.3263H19.3237V18.2225H20.22V17.3263Z" fill="black"/>
<path d="M20.22 16.43H19.3237V17.3262H20.22V16.43Z" fill="black"/>
<path d="M20.22 14.6487H19.3237V15.545H20.22V14.6487Z" fill="black"/>
<path d="M20.22 13.7613H19.3237V14.6488H20.22V13.7613Z" fill="black"/>
<path d="M19.325 41.4088H18.4375V42.305H19.325V41.4088Z" fill="black"/>
<path d="M19.325 40.5212H18.4375V41.4087H19.325V40.5212Z" fill="#660801"/>
<path d="M19.325 39.625H18.4375V40.5213H19.325V39.625Z" fill="#660801"/>
<path d="M19.325 38.7387H18.4375V39.6262H19.325V38.7387Z" fill="black"/>
<path d="M19.325 32.4937H18.4375V33.3812H19.325V32.4937Z" fill="black"/>
<path d="M19.325 31.5975H18.4375V32.4938H19.325V31.5975Z" fill="#3D3D3B"/>
<path d="M19.325 30.7013H18.4375V31.5975H19.325V30.7013Z" fill="#3D3D3B"/>
<path d="M19.325 29.815H18.4375V30.7025H19.325V29.815Z" fill="#3F1401"/>
<path d="M19.325 28.92H18.4375V29.8163H19.325V28.92Z" fill="black"/>
<path d="M19.325 28.0325H18.4375V28.92H19.325V28.0325Z" fill="#DD8976"/>
<path d="M19.325 27.1363H18.4375V28.0325H19.325V27.1363Z" fill="#373801"/>
<path d="M19.325 26.25H18.4375V27.1375H19.325V26.25Z" fill="#5C6302"/>
<path d="M19.325 25.3538H18.4375V26.25H19.325V25.3538Z" fill="#5C6302"/>
<path d="M19.325 24.4662H18.4375V25.3537H19.325V24.4662Z" fill="#373801"/>
<path d="M19.325 23.57H18.4375V24.4663H19.325V23.57Z" fill="#373801"/>
<path d="M19.325 22.6737H18.4375V23.57H19.325V22.6737Z" fill="#373801"/>
<path d="M19.325 21.7888H18.4375V22.6763H19.325V21.7888Z" fill="black"/>
<path d="M19.325 20.8925H18.4375V21.7887H19.325V20.8925Z" fill="#2B2B2A"/>
<path d="M19.325 20.005H18.4375V20.8925H19.325V20.005Z" fill="#3D3D3B"/>
<path d="M19.325 19.1088H18.4375V20.005H19.325V19.1088Z" fill="#3D3D3B"/>
<path d="M19.325 18.2225H18.4375V19.11H19.325V18.2225Z" fill="#3D3D3B"/>
<path d="M19.325 17.3263H18.4375V18.2225H19.325V17.3263Z" fill="black"/>
<path d="M18.4373 41.4088H17.541V42.305H18.4373V41.4088Z" fill="black"/>
<path d="M18.4373 40.5212H17.541V41.4087H18.4373V40.5212Z" fill="black"/>
<path d="M18.4373 39.625H17.541V40.5213H18.4373V39.625Z" fill="black"/>
<path d="M18.4373 31.5975H17.541V32.4938H18.4373V31.5975Z" fill="black"/>
<path d="M18.4373 30.7013H17.541V31.5975H18.4373V30.7013Z" fill="#3D3D3B"/>
<path d="M18.4373 29.815H17.541V30.7025H18.4373V29.815Z" fill="black"/>
<path d="M18.4373 28.92H17.541V29.8163H18.4373V28.92Z" fill="#DD8976"/>
<path d="M18.4373 28.0325H17.541V28.92H18.4373V28.0325Z" fill="#DD8976"/>
<path d="M18.4373 27.1363H17.541V28.0325H18.4373V27.1363Z" fill="#5C6302"/>
<path d="M18.4373 26.25H17.541V27.1375H18.4373V26.25Z" fill="#5C6302"/>
<path d="M18.4373 25.3538H17.541V26.25H18.4373V25.3538Z" fill="#373801"/>
<path d="M18.4373 24.4662H17.541V25.3537H18.4373V24.4662Z" fill="#373801"/>
<path d="M18.4373 23.57H17.541V24.4663H18.4373V23.57Z" fill="#5C6302"/>
<path d="M18.4373 22.6737H17.541V23.57H18.4373V22.6737Z" fill="#5C6302"/>
<path d="M18.4373 21.7888H17.541V22.6763H18.4373V21.7888Z" fill="black"/>
<path d="M18.4373 20.8925H17.541V21.7887H18.4373V20.8925Z" fill="#3D3D3B"/>
<path d="M18.4373 20.005H17.541V20.8925H18.4373V20.005Z" fill="#3D3D3B"/>
<path d="M18.4373 19.1088H17.541V20.005H18.4373V19.1088Z" fill="#3D3D3B"/>
<path d="M18.4373 18.2225H17.541V19.11H18.4373V18.2225Z" fill="#2B2B2A"/>
<path d="M18.4373 17.3263H17.541V18.2225H18.4373V17.3263Z" fill="black"/>
<path d="M17.5413 31.5975H16.6538V32.4938H17.5413V31.5975Z" fill="black"/>
<path d="M17.5413 30.7013H16.6538V31.5975H17.5413V30.7013Z" fill="#5C6302"/>
<path d="M17.5413 29.815H16.6538V30.7025H17.5413V29.815Z" fill="black"/>
<path d="M17.5413 28.92H16.6538V29.8163H17.5413V28.92Z" fill="#DD8976"/>
<path d="M17.5413 28.0325H16.6538V28.92H17.5413V28.0325Z" fill="#F7AB94"/>
<path d="M17.5413 27.1363H16.6538V28.0325H17.5413V27.1363Z" fill="#F7AB94"/>
<path d="M17.5413 26.25H16.6538V27.1375H17.5413V26.25Z" fill="#373801"/>
<path d="M17.5413 25.3538H16.6538V26.25H17.5413V25.3538Z" fill="#373801"/>
<path d="M17.5413 24.4662H16.6538V25.3537H17.5413V24.4662Z" fill="#5C6302"/>
<path d="M17.5413 23.57H16.6538V24.4663H17.5413V23.57Z" fill="#5C6302"/>
<path d="M17.5413 22.6737H16.6538V23.57H17.5413V22.6737Z" fill="#5C6302"/>
<path d="M17.5413 21.7888H16.6538V22.6763H17.5413V21.7888Z" fill="#5C6302"/>
<path d="M17.5413 20.8925H16.6538V21.7887H17.5413V20.8925Z" fill="black"/>
<path d="M17.5413 20.005H16.6538V20.8925H17.5413V20.005Z" fill="#2B2B2A"/>
<path d="M17.5413 19.1088H16.6538V20.005H17.5413V19.1088Z" fill="#2B2B2A"/>
<path d="M17.5413 18.2225H16.6538V19.11H17.5413V18.2225Z" fill="black"/>
<path d="M16.6536 32.4937H15.7573V33.3812H16.6536V32.4937Z" fill="black"/>
<path d="M16.6536 31.5975H15.7573V32.4938H16.6536V31.5975Z" fill="#5C6302"/>
<path d="M16.6536 30.7013H15.7573V31.5975H16.6536V30.7013Z" fill="#5C6302"/>
<path d="M16.6536 29.815H15.7573V30.7025H16.6536V29.815Z" fill="#8A8D8E"/>
<path d="M16.6536 28.92H15.7573V29.8163H16.6536V28.92Z" fill="black"/>
<path d="M16.6536 28.0325H15.7573V28.92H16.6536V28.0325Z" fill="#F7AB94"/>
<path d="M16.6536 27.1363H15.7573V28.0325H16.6536V27.1363Z" fill="black"/>
<path d="M16.6536 26.25H15.7573V27.1375H16.6536V26.25Z" fill="black"/>
<path d="M16.6536 25.3538H15.7573V26.25H16.6536V25.3538Z" fill="black"/>
<path d="M16.6536 24.4662H15.7573V25.3537H16.6536V24.4662Z" fill="black"/>
<path d="M16.6536 23.57H15.7573V24.4663H16.6536V23.57Z" fill="black"/>
<path d="M16.6536 22.6737H15.7573V23.57H16.6536V22.6737Z" fill="black"/>
<path d="M16.6536 21.7888H15.7573V22.6763H16.6536V21.7888Z" fill="black"/>
<path d="M16.6536 20.005H15.7573V20.8925H16.6536V20.005Z" fill="black"/>
<path d="M16.6536 19.1088H15.7573V20.005H16.6536V19.1088Z" fill="black"/>
<path d="M15.7586 31.5975H14.8711V32.4938H15.7586V31.5975Z" fill="black"/>
<path d="M15.7586 30.7013H14.8711V31.5975H15.7586V30.7013Z" fill="black"/>
<path d="M15.7586 29.815H14.8711V30.7025H15.7586V29.815Z" fill="#8A8D8E"/>
<path d="M15.7586 28.92H14.8711V29.8163H15.7586V28.92Z" fill="#8A8D8E"/>
<path d="M15.7586 28.0325H14.8711V28.92H15.7586V28.0325Z" fill="black"/>
<path d="M15.7586 27.1363H14.8711V28.0325H15.7586V27.1363Z" fill="#8A8D8E"/>
<path d="M14.8723 29.815H13.9761V30.7025H14.8723V29.815Z" fill="black"/>
<path d="M14.8723 28.92H13.9761V29.8163H14.8723V28.92Z" fill="#8A8D8E"/>
<path d="M14.8723 28.0325H13.9761V28.92H14.8723V28.0325Z" fill="black"/>
<path d="M14.8723 27.1363H13.9761V28.0325H14.8723V27.1363Z" fill="#8A8D8E"/>
<path d="M14.8723 26.25H13.9761V27.1375H14.8723V26.25Z" fill="#8A8D8E"/>
<path d="M13.9763 29.815H13.0801V30.7025H13.9763V29.815Z" fill="black"/>
<path d="M13.9763 28.92H13.0801V29.8163H13.9763V28.92Z" fill="#8A8D8E"/>
<path d="M13.9763 28.0325H13.0801V28.92H13.9763V28.0325Z" fill="#8A8D8E"/>
<path d="M13.9763 27.1363H13.0801V28.0325H13.9763V27.1363Z" fill="black"/>
<path d="M13.9763 26.25H13.0801V27.1375H13.9763V26.25Z" fill="#8A8D8E"/>
<path d="M13.0799 28.92H12.1924V29.8163H13.0799V28.92Z" fill="black"/>
<path d="M13.0799 28.0325H12.1924V28.92H13.0799V28.0325Z" fill="#8A8D8E"/>
<path d="M28.0737 25.0988H27.6162V25.5563H28.0737V25.0988Z" fill="#373801"/>
<path d="M28.0737 24.65H27.6162V25.0975H28.0737V24.65Z" fill="#373801"/>
<path d="M28.0737 24.2025H27.6162V24.65H28.0737V24.2025Z" fill="#373801"/>
<path d="M27.6164 24.65H27.1689V25.0975H27.6164V24.65Z" fill="#373801"/>
<path d="M27.6164 24.2025H27.1689V24.65H27.6164V24.2025Z" fill="#373801"/>
<path d="M27.6164 23.745H27.1689V24.2025H27.6164V23.745Z" fill="#373801"/>
<path d="M27.6164 23.2975H27.1689V23.745H27.6164V23.2975Z" fill="#373801"/>
<path d="M27.1677 24.2025H26.7202V24.65H27.1677V24.2025Z" fill="#373801"/>
<path d="M27.1677 23.745H26.7202V24.2025H27.1677V23.745Z" fill="#373801"/>
<path d="M27.1677 23.2975H26.7202V23.745H27.1677V23.2975Z" fill="#373801"/>
<path d="M26.7212 23.745H26.2637V24.2025H26.7212V23.745Z" fill="#373801"/>
<path d="M26.7212 23.2975H26.2637V23.745H26.7212V23.2975Z" fill="#373801"/>
<path d="M26.7212 22.8387H26.2637V23.2962H26.7212V22.8387Z" fill="#373801"/>
<path d="M26.7212 22.3925H26.2637V22.84H26.7212V22.3925Z" fill="#373801"/>
<path d="M26.7212 21.9438H26.2637V22.3913H26.7212V21.9438Z" fill="#373801"/>
<path d="M26.7212 21.485H26.2637V21.9425H26.7212V21.485Z" fill="#111110"/>
<path d="M26.2624 23.2975H25.8149V23.745H26.2624V23.2975Z" fill="#373801"/>
<path d="M26.2624 22.8387H25.8149V23.2962H26.2624V22.8387Z" fill="#373801"/>
<path d="M26.2624 22.3925H25.8149V22.84H26.2624V22.3925Z" fill="#373801"/>
<path d="M26.2624 21.9438H25.8149V22.3913H26.2624V21.9438Z" fill="#373801"/>
<path d="M26.2624 21.485H25.8149V21.9425H26.2624V21.485Z" fill="#111110"/>
<path d="M25.8164 25.0988H25.3589V25.5563H25.8164V25.0988Z" fill="#5C6302"/>
<path d="M25.8164 21.485H25.3589V21.9425H25.8164V21.485Z" fill="#111110"/>
<path d="M25.3577 15.6162H24.9102V16.0737H25.3577V15.6162Z" fill="#282728"/>
<path d="M25.3577 14.72H24.9102V15.1675H25.3577V14.72Z" fill="#F7AB94"/>
<path d="M25.3577 14.2638H24.9102V14.7213H25.3577V14.2638Z" fill="#F7AB94"/>
<path d="M24.9099 24.2025H24.4624V24.65H24.9099V24.2025Z" fill="#128986"/>
<path d="M24.9099 16.9788H24.4624V17.4263H24.9099V16.9788Z" fill="#DD0590"/>
<path d="M24.9099 15.6162H24.4624V16.0737H24.9099V15.6162Z" fill="#282728"/>
<path d="M24.9099 14.72H24.4624V15.1675H24.9099V14.72Z" fill="#F7AB94"/>
<path d="M24.4624 24.65H24.0049V25.0975H24.4624V24.65Z" fill="#128986"/>
<path d="M24.4624 24.2025H24.0049V24.65H24.4624V24.2025Z" fill="#B5A518"/>
<path d="M24.4624 23.745H24.0049V24.2025H24.4624V23.745Z" fill="#128986"/>
<path d="M24.4624 16.9788H24.0049V17.4263H24.4624V16.9788Z" fill="#DD0590"/>
<path d="M24.0051 24.2025H23.5576V24.65H24.0051V24.2025Z" fill="#128986"/>
<path d="M24.0051 16.9788H23.5576V17.4263H24.0051V16.9788Z" fill="#DD0590"/>
<path d="M23.5564 16.9788H23.1089V17.4263H23.5564V16.9788Z" fill="#DD0590"/>
<path d="M23.1098 25.0988H22.6523V25.5563H23.1098V25.0988Z" fill="#5C6302"/>
<path d="M23.1098 21.485H22.6523V21.9425H23.1098V21.485Z" fill="#111110"/>
<path d="M23.1098 15.6162H22.6523V16.0737H23.1098V15.6162Z" fill="#282728"/>
<path d="M22.6511 23.2975H22.2036V23.745H22.6511V23.2975Z" fill="#373801"/>
<path d="M22.6511 22.8387H22.2036V23.2962H22.6511V22.8387Z" fill="#373801"/>
<path d="M22.6511 22.3925H22.2036V22.84H22.6511V22.3925Z" fill="#373801"/>
<path d="M22.6511 21.9438H22.2036V22.3913H22.6511V21.9438Z" fill="#373801"/>
<path d="M22.6511 21.485H22.2036V21.9425H22.6511V21.485Z" fill="#111110"/>
<path d="M22.6511 15.6162H22.2036V16.0737H22.6511V15.6162Z" fill="#282728"/>
<path d="M22.6511 14.72H22.2036V15.1675H22.6511V14.72Z" fill="#F7AB94"/>
<path d="M22.2051 23.2975H21.7476V23.745H22.2051V23.2975Z" fill="#373801"/>
<path d="M22.2051 22.8387H21.7476V23.2962H22.2051V22.8387Z" fill="#373801"/>
<path d="M22.2051 22.3925H21.7476V22.84H22.2051V22.3925Z" fill="#373801"/>
<path d="M22.2051 21.9438H21.7476V22.3913H22.2051V21.9438Z" fill="#373801"/>
<path d="M22.2051 21.485H21.7476V21.9425H22.2051V21.485Z" fill="#111110"/>
<path d="M22.2051 21.0388H21.7476V21.4863H22.2051V21.0388Z" fill="#111110"/>
<path d="M22.2051 20.5912H21.7476V21.0387H22.2051V20.5912Z" fill="#111110"/>
<path d="M21.7463 20.5912H21.2988V21.0387H21.7463V20.5912Z" fill="#111110"/>
<path d="M21.2986 20.5912H20.8511V21.0387H21.2986V20.5912Z" fill="#111110"/>
<path d="M20.3938 16.0738H19.9463V16.5213H20.3938V16.0738Z" fill="#705E03"/>
<path d="M20.3938 15.6162H19.9463V16.0737H20.3938V15.6162Z" fill="black"/>
<path d="M20.3938 15.1688H19.9463V15.6163H20.3938V15.1688Z" fill="black"/>
<path d="M19.9448 16.0738H19.4873V16.5213H19.9448V16.0738Z" fill="#705E03"/>
<path d="M19.9448 15.6162H19.4873V16.0737H19.9448V15.6162Z" fill="#705E03"/>
<path d="M19.9448 15.1688H19.4873V15.6163H19.9448V15.1688Z" fill="black"/>
<path d="M19.4885 16.9788H19.041V17.4263H19.4885V16.9788Z" fill="#705E03"/>
<path d="M19.4885 16.5212H19.041V16.9787H19.4885V16.5212Z" fill="#705E03"/>
<path d="M19.4885 16.0738H19.041V16.5213H19.4885V16.0738Z" fill="#705E03"/>
<path d="M19.4885 15.6162H19.041V16.0737H19.4885V15.6162Z" fill="#705E03"/>
<path d="M19.4885 15.1688H19.041V15.6163H19.4885V15.1688Z" fill="#705E03"/>
<path d="M19.4885 14.72H19.041V15.1675H19.4885V14.72Z" fill="black"/>
<path d="M19.0413 16.9788H18.5938V17.4263H19.0413V16.9788Z" fill="#705E03"/>
<path d="M19.0413 16.5212H18.5938V16.9787H19.0413V16.5212Z" fill="#705E03"/>
<path d="M19.0413 16.0738H18.5938V16.5213H19.0413V16.0738Z" fill="#705E03"/>
<path d="M19.0413 15.6162H18.5938V16.0737H19.0413V15.6162Z" fill="#705E03"/>
<path d="M19.0413 15.1688H18.5938V15.6163H19.0413V15.1688Z" fill="#998304"/>
<path d="M19.0413 14.72H18.5938V15.1675H19.0413V14.72Z" fill="#998304"/>
<path d="M19.0413 14.2638H18.5938V14.7213H19.0413V14.2638Z" fill="black"/>
<path d="M18.5923 16.9788H18.1348V17.4263H18.5923V16.9788Z" fill="#705E03"/>
<path d="M18.5923 16.5212H18.1348V16.9787H18.5923V16.5212Z" fill="#705E03"/>
<path d="M18.5923 16.0738H18.1348V16.5213H18.5923V16.0738Z" fill="#998304"/>
<path d="M18.5923 15.6162H18.1348V16.0737H18.5923V15.6162Z" fill="#998304"/>
<path d="M18.5923 15.1688H18.1348V15.6163H18.5923V15.1688Z" fill="#998304"/>
<path d="M18.5923 14.72H18.1348V15.1675H18.5923V14.72Z" fill="#BFA908"/>
<path d="M18.5923 14.2638H18.1348V14.7213H18.5923V14.2638Z" fill="#BFA908"/>
<path d="M18.5923 13.815H18.1348V14.2625H18.5923V13.815Z" fill="black"/>
<path d="M18.5923 13.3588H18.1348V13.8163H18.5923V13.3588Z" fill="black"/>
<path d="M18.1335 16.9788H17.686V17.4263H18.1335V16.9788Z" fill="#705E03"/>
<path d="M18.1335 16.5212H17.686V16.9787H18.1335V16.5212Z" fill="#998304"/>
<path d="M18.1335 16.0738H17.686V16.5213H18.1335V16.0738Z" fill="#998304"/>
<path d="M18.1335 15.6162H17.686V16.0737H18.1335V15.6162Z" fill="#BFA908"/>
<path d="M18.1335 15.1688H17.686V15.6163H18.1335V15.1688Z" fill="#BFA908"/>
<path d="M18.1335 14.72H17.686V15.1675H18.1335V14.72Z" fill="#BFA908"/>
<path d="M18.1335 14.2638H17.686V14.7213H18.1335V14.2638Z" fill="black"/>
<path d="M18.1335 13.815H17.686V14.2625H18.1335V13.815Z" fill="black"/>
<path d="M17.6877 17.875H17.2402V18.3325H17.6877V17.875Z" fill="#705E03"/>
<path d="M17.6877 17.4262H17.2402V17.8737H17.6877V17.4262Z" fill="#705E03"/>
<path d="M17.6877 16.9788H17.2402V17.4263H17.6877V16.9788Z" fill="#998304"/>
<path d="M17.6877 16.5212H17.2402V16.9787H17.6877V16.5212Z" fill="#998304"/>
<path d="M17.6877 16.0738H17.2402V16.5213H17.6877V16.0738Z" fill="#BFA908"/>
<path d="M17.6877 15.6162H17.2402V16.0737H17.6877V15.6162Z" fill="#BFA908"/>
<path d="M17.6877 15.1688H17.2402V15.6163H17.6877V15.1688Z" fill="#BFA908"/>
<path d="M17.6877 14.72H17.2402V15.1675H17.6877V14.72Z" fill="black"/>
<path d="M17.6877 14.2638H17.2402V14.7213H17.6877V14.2638Z" fill="black"/>
<path d="M17.2388 17.875H16.7812V18.3325H17.2388V17.875Z" fill="#705E03"/>
<path d="M17.2388 17.4262H16.7812V17.8737H17.2388V17.4262Z" fill="#998304"/>
<path d="M17.2388 16.9788H16.7812V17.4263H17.2388V16.9788Z" fill="#998304"/>
<path d="M17.2388 16.5212H16.7812V16.9787H17.2388V16.5212Z" fill="#BFA908"/>
<path d="M17.2388 16.0738H16.7812V16.5213H17.2388V16.0738Z" fill="#BFA908"/>
<path d="M17.2388 15.6162H16.7812V16.0737H17.2388V15.6162Z" fill="#BFA908"/>
<path d="M17.2388 15.1688H16.7812V15.6163H17.2388V15.1688Z" fill="black"/>
<path d="M17.2388 14.72H16.7812V15.1675H17.2388V14.72Z" fill="black"/>
<path d="M17.2388 13.815H16.7812V14.2625H17.2388V13.815Z" fill="black"/>
<path d="M16.7815 17.875H16.334V18.3325H16.7815V17.875Z" fill="black"/>
<path d="M16.7815 17.4262H16.334V17.8737H16.7815V17.4262Z" fill="#998304"/>
<path d="M16.7815 16.9788H16.334V17.4263H16.7815V16.9788Z" fill="#998304"/>
<path d="M16.7815 16.5212H16.334V16.9787H16.7815V16.5212Z" fill="#BFA908"/>
<path d="M16.7815 16.0738H16.334V16.5213H16.7815V16.0738Z" fill="#BFA908"/>
<path d="M16.7815 15.6162H16.334V16.0737H16.7815V15.6162Z" fill="black"/>
<path d="M16.7815 15.1688H16.334V15.6163H16.7815V15.1688Z" fill="black"/>
<path d="M16.7815 13.3588H16.334V13.8163H16.7815V13.3588Z" fill="black"/>
<path d="M16.334 17.4262H15.8765V17.8737H16.334V17.4262Z" fill="black"/>
<path d="M16.334 16.9788H15.8765V17.4263H16.334V16.9788Z" fill="#BFA908"/>
<path d="M16.334 16.5212H15.8765V16.9787H16.334V16.5212Z" fill="#BFA908"/>
<path d="M16.334 16.0738H15.8765V16.5213H16.334V16.0738Z" fill="black"/>
<path d="M16.334 15.6162H15.8765V16.0737H16.334V15.6162Z" fill="black"/>
<path d="M16.334 12.91H15.8765V13.3575H16.334V12.91Z" fill="black"/>
<path d="M16.334 12.4625H15.8765V12.91H16.334V12.4625Z" fill="#545454"/>
<path d="M15.8762 16.9788H15.4287V17.4263H15.8762V16.9788Z" fill="black"/>
<path d="M15.8762 16.5212H15.4287V16.9787H15.8762V16.5212Z" fill="black"/>
<path d="M15.8762 16.0738H15.4287V16.5213H15.8762V16.0738Z" fill="black"/>
<path d="M15.8762 15.1688H15.4287V15.6163H15.8762V15.1688Z" fill="black"/>
<path d="M15.8762 12.91H15.4287V13.3575H15.8762V12.91Z" fill="#545454"/>
<path d="M15.8762 12.4625H15.4287V12.91H15.8762V12.4625Z" fill="black"/>
<path d="M15.8762 12.005H15.4287V12.4625H15.8762V12.005Z" fill="#545454"/>
<path d="M15.4275 16.9788H14.98V17.4263H15.4275V16.9788Z" fill="black"/>
<path d="M15.4275 16.5212H14.98V16.9787H15.4275V16.5212Z" fill="black"/>
<path d="M15.4275 14.72H14.98V15.1675H15.4275V14.72Z" fill="black"/>
<path d="M15.4275 12.4625H14.98V12.91H15.4275V12.4625Z" fill="#545454"/>
<path d="M15.4275 12.005H14.98V12.4625H15.4275V12.005Z" fill="black"/>
<path d="M15.4275 11.5575H14.98V12.005H15.4275V11.5575Z" fill="#545454"/>
<path d="M14.9814 14.2638H14.5239V14.7213H14.9814V14.2638Z" fill="black"/>
<path d="M14.9814 13.815H14.5239V14.2625H14.9814V13.815Z" fill="#545454"/>
<path d="M14.9814 12.005H14.5239V12.4625H14.9814V12.005Z" fill="#545454"/>
<path d="M14.9814 11.5575H14.5239V12.005H14.9814V11.5575Z" fill="black"/>
<path d="M14.9814 11.1088H14.5239V11.5563H14.9814V11.1088Z" fill="#545454"/>
<path d="M14.5227 14.2638H14.0752V14.7213H14.5227V14.2638Z" fill="#545454"/>
<path d="M14.5227 13.815H14.0752V14.2625H14.5227V13.815Z" fill="black"/>
<path d="M14.5227 13.3588H14.0752V13.8163H14.5227V13.3588Z" fill="#545454"/>
<path d="M14.5227 11.5575H14.0752V12.005H14.5227V11.5575Z" fill="#545454"/>
<path d="M14.0749 13.815H13.6274V14.2625H14.0749V13.815Z" fill="#545454"/>
<path d="M14.0749 13.3588H13.6274V13.8163H14.0749V13.3588Z" fill="black"/>
<path d="M14.0749 12.91H13.6274V13.3575H14.0749V12.91Z" fill="#545454"/>
<path d="M13.6274 13.3588H13.1699V13.8163H13.6274V13.3588Z" fill="#545454"/>
<path d="M13.6274 12.91H13.1699V13.3575H13.6274V12.91Z" fill="black"/>
<path d="M13.6274 12.4625H13.1699V12.91H13.6274V12.4625Z" fill="#545454"/>
<path d="M13.1702 12.91H12.7227V13.3575H13.1702V12.91Z" fill="#545454"/>
</g>
<defs>
<clipPath id="clip0_69_12156">
<rect width="50" height="50" fill="white"/>
</clipPath>
</defs>
</svg>
