<svg width="50" height="50" viewBox="0 0 50 50" fill="none" xmlns="http://www.w3.org/2000/svg">
<g clip-path="url(#clip0_69_12160)">
<path d="M48.2226 25C48.2226 37.825 37.8251 48.2225 25.0001 48.2225C12.1751 48.2225 1.77759 37.825 1.77759 25C1.77759 12.175 12.1738 1.7775 25.0001 1.7775C37.8263 1.7775 48.2226 12.175 48.2226 25Z" fill="black"/>
<path d="M25.0001 49.0975C11.7126 49.0975 0.902588 38.2875 0.902588 25C0.902588 11.7125 11.7126 0.902496 25.0001 0.902496C38.2876 0.902496 49.0976 11.7125 49.0976 25C49.0976 38.2875 38.2876 49.0975 25.0001 49.0975ZM25.0001 2.6525C12.6776 2.6525 2.65259 12.6775 2.65259 25C2.65259 37.3225 12.6776 47.3475 25.0001 47.3475C37.3226 47.3475 47.3476 37.3225 47.3476 25C47.3476 12.6775 37.3226 2.6525 25.0001 2.6525Z" fill="#79B6EE"/>
<path d="M41.0137 19.8813H40.1787V20.7238H41.0137V19.8813Z" fill="black"/>
<path d="M41.0137 19.0475H40.1787V19.8825H41.0137V19.0475Z" fill="black"/>
<path d="M41.0137 18.2037H40.1787V19.0462H41.0137V18.2037Z" fill="black"/>
<path d="M40.1775 20.725H39.335V21.56H40.1775V20.725Z" fill="black"/>
<path d="M40.1775 19.8813H39.335V20.7238H40.1775V19.8813Z" fill="#5B271D"/>
<path d="M40.1775 19.0475H39.335V19.8825H40.1775V19.0475Z" fill="#5B271D"/>
<path d="M40.1775 18.2037H39.335V19.0462H40.1775V18.2037Z" fill="#5B271D"/>
<path d="M40.1775 17.3712H39.335V18.2062H40.1775V17.3712Z" fill="black"/>
<path d="M39.3374 20.725H38.5024V21.56H39.3374V20.725Z" fill="black"/>
<path d="M39.3374 19.8813H38.5024V20.7238H39.3374V19.8813Z" fill="#5B271D"/>
<path d="M39.3374 19.0475H38.5024V19.8825H39.3374V19.0475Z" fill="#5B271D"/>
<path d="M39.3374 18.2037H38.5024V19.0462H39.3374V18.2037Z" fill="black"/>
<path d="M38.5012 30.795H37.6587V31.63H38.5012V30.795Z" fill="#B50012"/>
<path d="M38.5012 21.5575H37.6587V22.4H38.5012V21.5575Z" fill="black"/>
<path d="M38.5012 20.725H37.6587V21.56H38.5012V20.725Z" fill="black"/>
<path d="M38.5012 19.8813H37.6587V20.7238H38.5012V19.8813Z" fill="#5B271D"/>
<path d="M38.5012 19.0475H37.6587V19.8825H38.5012V19.0475Z" fill="black"/>
<path d="M37.66 31.6288H36.825V32.4713H37.66V31.6288Z" fill="#B50012"/>
<path d="M37.66 30.795H36.825V31.63H37.66V30.795Z" fill="#B50012"/>
<path d="M37.66 21.5575H36.825V22.4H37.66V21.5575Z" fill="black"/>
<path d="M37.66 20.725H36.825V21.56H37.66V20.725Z" fill="#5B271D"/>
<path d="M37.66 19.8813H36.825V20.7238H37.66V19.8813Z" fill="#5B271D"/>
<path d="M37.66 19.0475H36.825V19.8825H37.66V19.0475Z" fill="black"/>
<path d="M37.66 15.685H36.825V16.5275H37.66V15.685Z" fill="black"/>
<path d="M37.66 14.85H36.825V15.685H37.66V14.85Z" fill="black"/>
<path d="M37.66 14.0088H36.825V14.8513H37.66V14.0088Z" fill="black"/>
<path d="M36.8237 38.345H35.9812V39.18H36.8237V38.345Z" fill="#B50012"/>
<path d="M36.8237 34.9825H35.9812V35.825H36.8237V34.9825Z" fill="#B50012"/>
<path d="M36.8237 32.4725H35.9812V33.3075H36.8237V32.4725Z" fill="#B50012"/>
<path d="M36.8237 31.6288H35.9812V32.4713H36.8237V31.6288Z" fill="#727B9B"/>
<path d="M36.8237 30.795H35.9812V31.63H36.8237V30.795Z" fill="#B50012"/>
<path d="M36.8237 22.4012H35.9812V23.2437H36.8237V22.4012Z" fill="black"/>
<path d="M36.8237 21.5575H35.9812V22.4H36.8237V21.5575Z" fill="black"/>
<path d="M36.8237 20.725H35.9812V21.56H36.8237V20.725Z" fill="#5B271D"/>
<path d="M36.8237 19.8813H35.9812V20.7238H36.8237V19.8813Z" fill="black"/>
<path d="M36.8237 17.3712H35.9812V18.2062H36.8237V17.3712Z" fill="black"/>
<path d="M36.8237 16.5275H35.9812V17.37H36.8237V16.5275Z" fill="black"/>
<path d="M36.8237 15.685H35.9812V16.5275H36.8237V15.685Z" fill="black"/>
<path d="M36.8237 14.85H35.9812V15.685H36.8237V14.85Z" fill="#5B271D"/>
<path d="M36.8237 14.0088H35.9812V14.8513H36.8237V14.0088Z" fill="black"/>
<path d="M35.9837 38.345H35.1487V39.18H35.9837V38.345Z" fill="#B50012"/>
<path d="M35.9837 36.6688H35.1487V37.5038H35.9837V36.6688Z" fill="#B50012"/>
<path d="M35.9837 34.1487H35.1487V34.9837H35.9837V34.1487Z" fill="#B50012"/>
<path d="M35.9837 33.305H35.1487V34.1475H35.9837V33.305Z" fill="#B50012"/>
<path d="M35.9837 32.4725H35.1487V33.3075H35.9837V32.4725Z" fill="#727B9B"/>
<path d="M35.9837 31.6288H35.1487V32.4713H35.9837V31.6288Z" fill="#727B9B"/>
<path d="M35.9837 30.795H35.1487V31.63H35.9837V30.795Z" fill="#B50012"/>
<path d="M35.9837 22.4012H35.1487V23.2437H35.9837V22.4012Z" fill="black"/>
<path d="M35.9837 21.5575H35.1487V22.4H35.9837V21.5575Z" fill="#5B271D"/>
<path d="M35.9837 20.725H35.1487V21.56H35.9837V20.725Z" fill="#5B271D"/>
<path d="M35.9837 19.8813H35.1487V20.7238H35.9837V19.8813Z" fill="black"/>
<path d="M35.9837 19.0475H35.1487V19.8825H35.9837V19.0475Z" fill="black"/>
<path d="M35.9837 18.2037H35.1487V19.0462H35.9837V18.2037Z" fill="black"/>
<path d="M35.9837 17.3712H35.1487V18.2062H35.9837V17.3712Z" fill="#5B271D"/>
<path d="M35.9837 16.5275H35.1487V17.37H35.9837V16.5275Z" fill="#5B271D"/>
<path d="M35.9837 15.685H35.1487V16.5275H35.9837V15.685Z" fill="#5B271D"/>
<path d="M35.9837 14.85H35.1487V15.685H35.9837V14.85Z" fill="black"/>
<path d="M35.9837 14.0088H35.1487V14.8513H35.9837V14.0088Z" fill="black"/>
<path d="M35.1474 38.345H34.3049V39.18H35.1474V38.345Z" fill="#B50012"/>
<path d="M35.1474 37.5025H34.3049V38.345H35.1474V37.5025Z" fill="#B50012"/>
<path d="M35.1474 33.305H34.3049V34.1475H35.1474V33.305Z" fill="#B50012"/>
<path d="M35.1474 32.4725H34.3049V33.3075H35.1474V32.4725Z" fill="#727B9B"/>
<path d="M35.1474 31.6288H34.3049V32.4713H35.1474V31.6288Z" fill="#727B9B"/>
<path d="M35.1474 30.795H34.3049V31.63H35.1474V30.795Z" fill="#B50012"/>
<path d="M35.1474 22.4012H34.3049V23.2437H35.1474V22.4012Z" fill="black"/>
<path d="M35.1474 21.5575H34.3049V22.4H35.1474V21.5575Z" fill="#5B271D"/>
<path d="M35.1474 20.725H34.3049V21.56H35.1474V20.725Z" fill="black"/>
<path d="M35.1474 19.0475H34.3049V19.8825H35.1474V19.0475Z" fill="black"/>
<path d="M35.1474 18.2037H34.3049V19.0462H35.1474V18.2037Z" fill="#5B271D"/>
<path d="M35.1474 17.3712H34.3049V18.2062H35.1474V17.3712Z" fill="#5B271D"/>
<path d="M35.1474 16.5275H34.3049V17.37H35.1474V16.5275Z" fill="#5B271D"/>
<path d="M35.1474 15.685H34.3049V16.5275H35.1474V15.685Z" fill="black"/>
<path d="M35.1474 14.85H34.3049V15.685H35.1474V14.85Z" fill="black"/>
<path d="M34.3049 38.345H33.4624V39.18H34.3049V38.345Z" fill="#B50012"/>
<path d="M34.3049 33.305H33.4624V34.1475H34.3049V33.305Z" fill="#B50012"/>
<path d="M34.3049 32.4725H33.4624V33.3075H34.3049V32.4725Z" fill="#727B9B"/>
<path d="M34.3049 31.6288H33.4624V32.4713H34.3049V31.6288Z" fill="#727B9B"/>
<path d="M34.3049 30.795H33.4624V31.63H34.3049V30.795Z" fill="#B50012"/>
<path d="M34.3049 23.2437H33.4624V24.0787H34.3049V23.2437Z" fill="black"/>
<path d="M34.3049 22.4012H33.4624V23.2437H34.3049V22.4012Z" fill="#5B271D"/>
<path d="M34.3049 21.5575H33.4624V22.4H34.3049V21.5575Z" fill="#5B271D"/>
<path d="M34.3049 20.725H33.4624V21.56H34.3049V20.725Z" fill="black"/>
<path d="M34.3049 19.8813H33.4624V20.7238H34.3049V19.8813Z" fill="black"/>
<path d="M34.3049 19.0475H33.4624V19.8825H34.3049V19.0475Z" fill="black"/>
<path d="M34.3049 18.2037H33.4624V19.0462H34.3049V18.2037Z" fill="#5B271D"/>
<path d="M34.3049 17.3712H33.4624V18.2062H34.3049V17.3712Z" fill="#5B271D"/>
<path d="M34.3049 16.5275H33.4624V17.37H34.3049V16.5275Z" fill="#5B271D"/>
<path d="M34.3049 15.685H33.4624V16.5275H34.3049V15.685Z" fill="black"/>
<path d="M33.4624 33.305H32.6274V34.1475H33.4624V33.305Z" fill="#B50012"/>
<path d="M33.4624 32.4725H32.6274V33.3075H33.4624V32.4725Z" fill="#B50012"/>
<path d="M33.4624 31.6288H32.6274V32.4713H33.4624V31.6288Z" fill="#727B9B"/>
<path d="M33.4624 30.795H32.6274V31.63H33.4624V30.795Z" fill="#B50012"/>
<path d="M33.4624 23.2437H32.6274V24.0787H33.4624V23.2437Z" fill="black"/>
<path d="M33.4624 22.4012H32.6274V23.2437H33.4624V22.4012Z" fill="#5B271D"/>
<path d="M33.4624 21.5575H32.6274V22.4H33.4624V21.5575Z" fill="black"/>
<path d="M33.4624 20.725H32.6274V21.56H33.4624V20.725Z" fill="black"/>
<path d="M33.4624 19.8813H32.6274V20.7238H33.4624V19.8813Z" fill="black"/>
<path d="M33.4624 19.0475H32.6274V19.8825H33.4624V19.0475Z" fill="#5B271D"/>
<path d="M33.4624 18.2037H32.6274V19.0462H33.4624V18.2037Z" fill="#5B271D"/>
<path d="M33.4624 17.3712H32.6274V18.2062H33.4624V17.3712Z" fill="black"/>
<path d="M33.4624 16.5275H32.6274V17.37H33.4624V16.5275Z" fill="black"/>
<path d="M33.4624 15.685H32.6274V16.5275H33.4624V15.685Z" fill="black"/>
<path d="M32.6274 32.4725H31.7849V33.3075H32.6274V32.4725Z" fill="#B50012"/>
<path d="M32.6274 31.6288H31.7849V32.4713H32.6274V31.6288Z" fill="#727B9B"/>
<path d="M32.6274 30.795H31.7849V31.63H32.6274V30.795Z" fill="#727B9B"/>
<path d="M32.6274 29.9513H31.7849V30.7938H32.6274V29.9513Z" fill="#B50012"/>
<path d="M32.6274 24.0787H31.7849V24.9212H32.6274V24.0787Z" fill="black"/>
<path d="M32.6274 23.2437H31.7849V24.0787H32.6274V23.2437Z" fill="#5B271D"/>
<path d="M32.6274 22.4012H31.7849V23.2437H32.6274V22.4012Z" fill="#5B271D"/>
<path d="M32.6274 21.5575H31.7849V22.4H32.6274V21.5575Z" fill="black"/>
<path d="M32.6274 20.725H31.7849V21.56H32.6274V20.725Z" fill="#5B271D"/>
<path d="M32.6274 19.8813H31.7849V20.7238H32.6274V19.8813Z" fill="#5B271D"/>
<path d="M32.6274 19.0475H31.7849V19.8825H32.6274V19.0475Z" fill="#5B271D"/>
<path d="M32.6274 18.2037H31.7849V19.0462H32.6274V18.2037Z" fill="#5B271D"/>
<path d="M32.6274 17.3712H31.7849V18.2062H32.6274V17.3712Z" fill="black"/>
<path d="M31.7862 31.6288H30.9512V32.4713H31.7862V31.6288Z" fill="#B50012"/>
<path d="M31.7862 30.795H30.9512V31.63H31.7862V30.795Z" fill="#727B9B"/>
<path d="M31.7862 29.9513H30.9512V30.7938H31.7862V29.9513Z" fill="#727B9B"/>
<path d="M31.7862 29.1088H30.9512V29.9513H31.7862V29.1088Z" fill="black"/>
<path d="M31.7862 28.275H30.9512V29.11H31.7862V28.275Z" fill="black"/>
<path d="M31.7862 27.4325H30.9512V28.275H31.7862V27.4325Z" fill="black"/>
<path d="M31.7862 26.5975H30.9512V27.4325H31.7862V26.5975Z" fill="black"/>
<path d="M31.7862 25.755H30.9512V26.5975H31.7862V25.755Z" fill="black"/>
<path d="M31.7862 24.0787H30.9512V24.9212H31.7862V24.0787Z" fill="black"/>
<path d="M31.7862 23.2437H30.9512V24.0787H31.7862V23.2437Z" fill="#5B271D"/>
<path d="M31.7862 22.4012H30.9512V23.2437H31.7862V22.4012Z" fill="#5B271D"/>
<path d="M31.7862 21.5575H30.9512V22.4H31.7862V21.5575Z" fill="black"/>
<path d="M31.7862 20.725H30.9512V21.56H31.7862V20.725Z" fill="#5B271D"/>
<path d="M31.7862 19.8813H30.9512V20.7238H31.7862V19.8813Z" fill="black"/>
<path d="M31.7862 19.0475H30.9512V19.8825H31.7862V19.0475Z" fill="black"/>
<path d="M31.7862 18.2037H30.9512V19.0462H31.7862V18.2037Z" fill="black"/>
<path d="M31.7862 17.3712H30.9512V18.2062H31.7862V17.3712Z" fill="black"/>
<path d="M30.9511 30.795H30.1086V31.63H30.9511V30.795Z" fill="#B50012"/>
<path d="M30.9511 29.9513H30.1086V30.7938H30.9511V29.9513Z" fill="#727B9B"/>
<path d="M30.9511 29.1088H30.1086V29.9513H30.9511V29.1088Z" fill="black"/>
<path d="M30.9511 28.275H30.1086V29.11H30.9511V28.275Z" fill="black"/>
<path d="M30.9511 27.4325H30.1086V28.275H30.9511V27.4325Z" fill="#507993"/>
<path d="M30.9511 26.5975H30.1086V27.4325H30.9511V26.5975Z" fill="#507993"/>
<path d="M30.9511 25.755H30.1086V26.5975H30.9511V25.755Z" fill="black"/>
<path d="M30.9511 24.9213H30.1086V25.7563H30.9511V24.9213Z" fill="black"/>
<path d="M30.9511 23.2437H30.1086V24.0787H30.9511V23.2437Z" fill="black"/>
<path d="M30.9511 22.4012H30.1086V23.2437H30.9511V22.4012Z" fill="#5B271D"/>
<path d="M30.9511 21.5575H30.1086V22.4H30.9511V21.5575Z" fill="black"/>
<path d="M30.9511 20.725H30.1086V21.56H30.9511V20.725Z" fill="#5B271D"/>
<path d="M30.9511 19.8813H30.1086V20.7238H30.9511V19.8813Z" fill="black"/>
<path d="M30.1087 29.9513H29.2737V30.7938H30.1087V29.9513Z" fill="black"/>
<path d="M30.1087 29.1088H29.2737V29.9513H30.1087V29.1088Z" fill="black"/>
<path d="M30.1087 28.275H29.2737V29.11H30.1087V28.275Z" fill="#E0AD86"/>
<path d="M30.1087 27.4325H29.2737V28.275H30.1087V27.4325Z" fill="#79B6EE"/>
<path d="M30.1087 26.5975H29.2737V27.4325H30.1087V26.5975Z" fill="#507993"/>
<path d="M30.1087 25.755H29.2737V26.5975H30.1087V25.755Z" fill="#507993"/>
<path d="M30.1087 24.9213H29.2737V25.7563H30.1087V24.9213Z" fill="black"/>
<path d="M30.1087 24.0787H29.2737V24.9212H30.1087V24.0787Z" fill="black"/>
<path d="M30.1087 22.4012H29.2737V23.2437H30.1087V22.4012Z" fill="black"/>
<path d="M30.1087 21.5575H29.2737V22.4H30.1087V21.5575Z" fill="black"/>
<path d="M30.1087 20.725H29.2737V21.56H30.1087V20.725Z" fill="black"/>
<path d="M30.1087 19.8813H29.2737V20.7238H30.1087V19.8813Z" fill="black"/>
<path d="M30.1087 19.0475H29.2737V19.8825H30.1087V19.0475Z" fill="black"/>
<path d="M30.1087 18.2037H29.2737V19.0462H30.1087V18.2037Z" fill="black"/>
<path d="M30.1087 17.3712H29.2737V18.2062H30.1087V17.3712Z" fill="black"/>
<path d="M30.1087 16.5275H29.2737V17.37H30.1087V16.5275Z" fill="black"/>
<path d="M30.1087 15.685H29.2737V16.5275H30.1087V15.685Z" fill="black"/>
<path d="M30.1087 14.85H29.2737V15.685H30.1087V14.85Z" fill="black"/>
<path d="M30.1087 14.0088H29.2737V14.8513H30.1087V14.0088Z" fill="black"/>
<path d="M29.2737 29.9513H28.4312V30.7938H29.2737V29.9513Z" fill="black"/>
<path d="M29.2737 29.1088H28.4312V29.9513H29.2737V29.1088Z" fill="#E0AD86"/>
<path d="M29.2737 28.275H28.4312V29.11H29.2737V28.275Z" fill="#E0AD86"/>
<path d="M29.2737 27.4325H28.4312V28.275H29.2737V27.4325Z" fill="#E0AD86"/>
<path d="M29.2737 26.5975H28.4312V27.4325H29.2737V26.5975Z" fill="#679EC6"/>
<path d="M29.2737 25.755H28.4312V26.5975H29.2737V25.755Z" fill="#507993"/>
<path d="M29.2737 24.9213H28.4312V25.7563H29.2737V24.9213Z" fill="#507993"/>
<path d="M29.2737 24.0787H28.4312V24.9212H29.2737V24.0787Z" fill="black"/>
<path d="M29.2737 23.2437H28.4312V24.0787H29.2737V23.2437Z" fill="black"/>
<path d="M29.2737 22.4012H28.4312V23.2437H29.2737V22.4012Z" fill="black"/>
<path d="M29.2737 21.5575H28.4312V22.4H29.2737V21.5575Z" fill="#60342E"/>
<path d="M29.2737 20.725H28.4312V21.56H29.2737V20.725Z" fill="black"/>
<path d="M29.2737 19.8813H28.4312V20.7238H29.2737V19.8813Z" fill="black"/>
<path d="M29.2737 19.0475H28.4312V19.8825H29.2737V19.0475Z" fill="black"/>
<path d="M29.2737 18.2037H28.4312V19.0462H29.2737V18.2037Z" fill="black"/>
<path d="M29.2737 17.3712H28.4312V18.2062H29.2737V17.3712Z" fill="#507993"/>
<path d="M29.2737 16.5275H28.4312V17.37H29.2737V16.5275Z" fill="#507993"/>
<path d="M29.2737 15.685H28.4312V16.5275H29.2737V15.685Z" fill="#507993"/>
<path d="M29.2737 14.85H28.4312V15.685H29.2737V14.85Z" fill="black"/>
<path d="M29.2737 14.0088H28.4312V14.8513H29.2737V14.0088Z" fill="black"/>
<path d="M29.2737 13.1737H28.4312V14.0087H29.2737V13.1737Z" fill="black"/>
<path d="M28.4299 38.345H27.5874V39.18H28.4299V38.345Z" fill="black"/>
<path d="M28.4299 37.5025H27.5874V38.345H28.4299V37.5025Z" fill="black"/>
<path d="M28.4299 36.6688H27.5874V37.5038H28.4299V36.6688Z" fill="black"/>
<path d="M28.4299 35.8262H27.5874V36.6687H28.4299V35.8262Z" fill="black"/>
<path d="M28.4299 34.9825H27.5874V35.825H28.4299V34.9825Z" fill="black"/>
<path d="M28.4299 34.1487H27.5874V34.9837H28.4299V34.1487Z" fill="black"/>
<path d="M28.4299 33.305H27.5874V34.1475H28.4299V33.305Z" fill="black"/>
<path d="M28.4299 29.9513H27.5874V30.7938H28.4299V29.9513Z" fill="black"/>
<path d="M28.4299 29.1088H27.5874V29.9513H28.4299V29.1088Z" fill="#E0AD86"/>
<path d="M28.4299 28.275H27.5874V29.11H28.4299V28.275Z" fill="#E0AD86"/>
<path d="M28.4299 27.4325H27.5874V28.275H28.4299V27.4325Z" fill="#E0AD86"/>
<path d="M28.4299 26.5975H27.5874V27.4325H28.4299V26.5975Z" fill="#679EC6"/>
<path d="M28.4299 25.755H27.5874V26.5975H28.4299V25.755Z" fill="#679EC6"/>
<path d="M28.4299 24.9213H27.5874V25.7563H28.4299V24.9213Z" fill="#507993"/>
<path d="M28.4299 24.0787H27.5874V24.9212H28.4299V24.0787Z" fill="#507993"/>
<path d="M28.4299 23.2437H27.5874V24.0787H28.4299V23.2437Z" fill="black"/>
<path d="M28.4299 22.4012H27.5874V23.2437H28.4299V22.4012Z" fill="#60342E"/>
<path d="M28.4299 21.5575H27.5874V22.4H28.4299V21.5575Z" fill="#60342E"/>
<path d="M28.4299 20.725H27.5874V21.56H28.4299V20.725Z" fill="#60342E"/>
<path d="M28.4299 19.8813H27.5874V20.7238H28.4299V19.8813Z" fill="black"/>
<path d="M28.4299 19.0475H27.5874V19.8825H28.4299V19.0475Z" fill="black"/>
<path d="M28.4299 18.2037H27.5874V19.0462H28.4299V18.2037Z" fill="#507993"/>
<path d="M28.4299 17.3712H27.5874V18.2062H28.4299V17.3712Z" fill="#679EC6"/>
<path d="M28.4299 16.5275H27.5874V17.37H28.4299V16.5275Z" fill="#679EC6"/>
<path d="M28.4299 15.685H27.5874V16.5275H28.4299V15.685Z" fill="#679EC6"/>
<path d="M28.4299 14.85H27.5874V15.685H28.4299V14.85Z" fill="#507993"/>
<path d="M28.4299 14.0088H27.5874V14.8513H28.4299V14.0088Z" fill="#507993"/>
<path d="M28.4299 13.1737H27.5874V14.0087H28.4299V13.1737Z" fill="black"/>
<path d="M28.4299 12.3312H27.5874V13.1737H28.4299V12.3312Z" fill="black"/>
<path d="M27.5899 38.345H26.7549V39.18H27.5899V38.345Z" fill="black"/>
<path d="M27.5899 37.5025H26.7549V38.345H27.5899V37.5025Z" fill="#60401E"/>
<path d="M27.5899 36.6688H26.7549V37.5038H27.5899V36.6688Z" fill="#60401E"/>
<path d="M27.5899 35.8262H26.7549V36.6687H27.5899V35.8262Z" fill="#60401E"/>
<path d="M27.5899 34.9825H26.7549V35.825H27.5899V34.9825Z" fill="#1C323A"/>
<path d="M27.5899 34.1487H26.7549V34.9837H27.5899V34.1487Z" fill="#1C323A"/>
<path d="M27.5899 33.305H26.7549V34.1475H27.5899V33.305Z" fill="black"/>
<path d="M27.5899 32.4725H26.7549V33.3075H27.5899V32.4725Z" fill="black"/>
<path d="M27.5899 31.6288H26.7549V32.4713H27.5899V31.6288Z" fill="black"/>
<path d="M27.5899 30.795H26.7549V31.63H27.5899V30.795Z" fill="black"/>
<path d="M27.5899 29.9513H26.7549V30.7938H27.5899V29.9513Z" fill="black"/>
<path d="M27.5899 29.1088H26.7549V29.9513H27.5899V29.1088Z" fill="black"/>
<path d="M27.5899 28.275H26.7549V29.11H27.5899V28.275Z" fill="black"/>
<path d="M27.5899 27.4325H26.7549V28.275H27.5899V27.4325Z" fill="black"/>
<path d="M27.5899 26.5975H26.7549V27.4325H27.5899V26.5975Z" fill="#679EC6"/>
<path d="M27.5899 25.755H26.7549V26.5975H27.5899V25.755Z" fill="#679EC6"/>
<path d="M27.5899 24.9213H26.7549V25.7563H27.5899V24.9213Z" fill="#679EC6"/>
<path d="M27.5899 24.0787H26.7549V24.9212H27.5899V24.0787Z" fill="#507993"/>
<path d="M27.5899 23.2437H26.7549V24.0787H27.5899V23.2437Z" fill="#507993"/>
<path d="M27.5899 22.4012H26.7549V23.2437H27.5899V22.4012Z" fill="black"/>
<path d="M27.5899 21.5575H26.7549V22.4H27.5899V21.5575Z" fill="#60342E"/>
<path d="M27.5899 20.725H26.7549V21.56H27.5899V20.725Z" fill="black"/>
<path d="M27.5899 19.8813H26.7549V20.7238H27.5899V19.8813Z" fill="#6D4541"/>
<path d="M27.5899 19.0475H26.7549V19.8825H27.5899V19.0475Z" fill="#6D4541"/>
<path d="M27.5899 18.2037H26.7549V19.0462H27.5899V18.2037Z" fill="#679EC6"/>
<path d="M27.5899 17.3712H26.7549V18.2062H27.5899V17.3712Z" fill="#679EC6"/>
<path d="M27.5899 16.5275H26.7549V17.37H27.5899V16.5275Z" fill="#679EC6"/>
<path d="M27.5899 15.685H26.7549V16.5275H27.5899V15.685Z" fill="#679EC6"/>
<path d="M27.5899 14.85H26.7549V15.685H27.5899V14.85Z" fill="#679EC6"/>
<path d="M27.5899 14.0088H26.7549V14.8513H27.5899V14.0088Z" fill="#507993"/>
<path d="M27.5899 13.1737H26.7549V14.0087H27.5899V13.1737Z" fill="#507993"/>
<path d="M27.5899 12.3312H26.7549V13.1737H27.5899V12.3312Z" fill="black"/>
<path d="M27.5899 11.4962H26.7549V12.3312H27.5899V11.4962Z" fill="black"/>
<path d="M26.7551 38.345H25.9126V39.18H26.7551V38.345Z" fill="black"/>
<path d="M26.7551 37.5025H25.9126V38.345H26.7551V37.5025Z" fill="#60401E"/>
<path d="M26.7551 36.6688H25.9126V37.5038H26.7551V36.6688Z" fill="#60401E"/>
<path d="M26.7551 35.8262H25.9126V36.6687H26.7551V35.8262Z" fill="#354D59"/>
<path d="M26.7551 34.9825H25.9126V35.825H26.7551V34.9825Z" fill="#354D59"/>
<path d="M26.7551 34.1487H25.9126V34.9837H26.7551V34.1487Z" fill="#1C323A"/>
<path d="M26.7551 33.305H25.9126V34.1475H26.7551V33.305Z" fill="#1C323A"/>
<path d="M26.7551 32.4725H25.9126V33.3075H26.7551V32.4725Z" fill="#1C323A"/>
<path d="M26.7551 31.6288H25.9126V32.4713H26.7551V31.6288Z" fill="#1C323A"/>
<path d="M26.7551 30.795H25.9126V31.63H26.7551V30.795Z" fill="#1C323A"/>
<path d="M26.7551 29.9513H25.9126V30.7938H26.7551V29.9513Z" fill="#1C323A"/>
<path d="M26.7551 29.1088H25.9126V29.9513H26.7551V29.1088Z" fill="#1C323A"/>
<path d="M26.7551 28.275H25.9126V29.11H26.7551V28.275Z" fill="#507993"/>
<path d="M26.7551 27.4325H25.9126V28.275H26.7551V27.4325Z" fill="black"/>
<path d="M26.7551 26.5975H25.9126V27.4325H26.7551V26.5975Z" fill="black"/>
<path d="M26.7551 25.755H25.9126V26.5975H26.7551V25.755Z" fill="#679EC6"/>
<path d="M26.7551 24.9213H25.9126V25.7563H26.7551V24.9213Z" fill="#679EC6"/>
<path d="M26.7551 24.0787H25.9126V24.9212H26.7551V24.0787Z" fill="#679EC6"/>
<path d="M26.7551 23.2437H25.9126V24.0787H26.7551V23.2437Z" fill="#507993"/>
<path d="M26.7551 22.4012H25.9126V23.2437H26.7551V22.4012Z" fill="#507993"/>
<path d="M26.7551 21.5575H25.9126V22.4H26.7551V21.5575Z" fill="black"/>
<path d="M26.7551 20.725H25.9126V21.56H26.7551V20.725Z" fill="#6D4541"/>
<path d="M26.7551 19.8813H25.9126V20.7238H26.7551V19.8813Z" fill="#6D4541"/>
<path d="M26.7551 19.0475H25.9126V19.8825H26.7551V19.0475Z" fill="#79B6EE"/>
<path d="M26.7551 18.2037H25.9126V19.0462H26.7551V18.2037Z" fill="#BA7D54"/>
<path d="M26.7551 17.3712H25.9126V18.2062H26.7551V17.3712Z" fill="#BA7D54"/>
<path d="M26.7551 16.5275H25.9126V17.37H26.7551V16.5275Z" fill="#BA7D54"/>
<path d="M26.7551 15.685H25.9126V16.5275H26.7551V15.685Z" fill="#679EC6"/>
<path d="M26.7551 14.85H25.9126V15.685H26.7551V14.85Z" fill="#679EC6"/>
<path d="M26.7551 14.0088H25.9126V14.8513H26.7551V14.0088Z" fill="#679EC6"/>
<path d="M26.7551 13.1737H25.9126V14.0087H26.7551V13.1737Z" fill="#507993"/>
<path d="M26.7551 12.3312H25.9126V13.1737H26.7551V12.3312Z" fill="#507993"/>
<path d="M26.7551 11.4962H25.9126V12.3312H26.7551V11.4962Z" fill="black"/>
<path d="M25.9124 38.345H25.0774V39.18H25.9124V38.345Z" fill="black"/>
<path d="M25.9124 37.5025H25.0774V38.345H25.9124V37.5025Z" fill="black"/>
<path d="M25.9124 36.6688H25.0774V37.5038H25.9124V36.6688Z" fill="black"/>
<path d="M25.9124 35.8262H25.0774V36.6687H25.9124V35.8262Z" fill="black"/>
<path d="M25.9124 34.9825H25.0774V35.825H25.9124V34.9825Z" fill="#354D59"/>
<path d="M25.9124 34.1487H25.0774V34.9837H25.9124V34.1487Z" fill="#354D59"/>
<path d="M25.9124 33.305H25.0774V34.1475H25.9124V33.305Z" fill="#354D59"/>
<path d="M25.9124 32.4725H25.0774V33.3075H25.9124V32.4725Z" fill="#354D59"/>
<path d="M25.9124 31.6288H25.0774V32.4713H25.9124V31.6288Z" fill="#354D59"/>
<path d="M25.9124 30.795H25.0774V31.63H25.9124V30.795Z" fill="#1C323A"/>
<path d="M25.9124 29.9513H25.0774V30.7938H25.9124V29.9513Z" fill="#1C323A"/>
<path d="M25.9124 29.1088H25.0774V29.9513H25.9124V29.1088Z" fill="#507993"/>
<path d="M25.9124 28.275H25.0774V29.11H25.9124V28.275Z" fill="#507993"/>
<path d="M25.9124 27.4325H25.0774V28.275H25.9124V27.4325Z" fill="#507993"/>
<path d="M25.9124 26.5975H25.0774V27.4325H25.9124V26.5975Z" fill="#79B6EE"/>
<path d="M25.9124 25.755H25.0774V26.5975H25.9124V25.755Z" fill="#679EC6"/>
<path d="M25.9124 24.9213H25.0774V25.7563H25.9124V24.9213Z" fill="#679EC6"/>
<path d="M25.9124 24.0787H25.0774V24.9212H25.9124V24.0787Z" fill="#679EC6"/>
<path d="M25.9124 23.2437H25.0774V24.0787H25.9124V23.2437Z" fill="#79B6EE"/>
<path d="M25.9124 22.4012H25.0774V23.2437H25.9124V22.4012Z" fill="#507993"/>
<path d="M25.9124 21.5575H25.0774V22.4H25.9124V21.5575Z" fill="#6D4541"/>
<path d="M25.9124 20.725H25.0774V21.56H25.9124V20.725Z" fill="#6D4541"/>
<path d="M25.9124 19.8813H25.0774V20.7238H25.9124V19.8813Z" fill="#BA7D54"/>
<path d="M25.9124 19.0475H25.0774V19.8825H25.9124V19.0475Z" fill="#BA7D54"/>
<path d="M25.9124 18.2037H25.0774V19.0462H25.9124V18.2037Z" fill="#BA7D54"/>
<path d="M25.9124 17.3712H25.0774V18.2062H25.9124V17.3712Z" fill="#BA7D54"/>
<path d="M25.9124 16.5275H25.0774V17.37H25.9124V16.5275Z" fill="#1C1C1C"/>
<path d="M25.9124 15.685H25.0774V16.5275H25.9124V15.685Z" fill="#1C1C1C"/>
<path d="M25.9124 14.85H25.0774V15.685H25.9124V14.85Z" fill="#507993"/>
<path d="M25.9124 14.0088H25.0774V14.8513H25.9124V14.0088Z" fill="#679EC6"/>
<path d="M25.9124 13.1737H25.0774V14.0087H25.9124V13.1737Z" fill="#679EC6"/>
<path d="M25.9124 12.3312H25.0774V13.1737H25.9124V12.3312Z" fill="#507993"/>
<path d="M25.9124 11.4962H25.0774V12.3312H25.9124V11.4962Z" fill="#507993"/>
<path d="M25.9124 10.6537H25.0774V11.4962H25.9124V10.6537Z" fill="black"/>
<path d="M25.0761 38.345H24.2336V39.18H25.0761V38.345Z" fill="black"/>
<path d="M25.0761 34.9825H24.2336V35.825H25.0761V34.9825Z" fill="black"/>
<path d="M25.0761 34.1487H24.2336V34.9837H25.0761V34.1487Z" fill="black"/>
<path d="M25.0761 33.305H24.2336V34.1475H25.0761V33.305Z" fill="#354D59"/>
<path d="M25.0761 32.4725H24.2336V33.3075H25.0761V32.4725Z" fill="#354D59"/>
<path d="M25.0761 31.6288H24.2336V32.4713H25.0761V31.6288Z" fill="#354D59"/>
<path d="M25.0761 30.795H24.2336V31.63H25.0761V30.795Z" fill="#354D59"/>
<path d="M25.0761 29.9513H24.2336V30.7938H25.0761V29.9513Z" fill="#1C323A"/>
<path d="M25.0761 29.1088H24.2336V29.9513H25.0761V29.1088Z" fill="#507993"/>
<path d="M25.0761 28.275H24.2336V29.11H25.0761V28.275Z" fill="#507993"/>
<path d="M25.0761 27.4325H24.2336V28.275H25.0761V27.4325Z" fill="#679EC6"/>
<path d="M25.0761 26.5975H24.2336V27.4325H25.0761V26.5975Z" fill="#679EC6"/>
<path d="M25.0761 25.755H24.2336V26.5975H25.0761V25.755Z" fill="#679EC6"/>
<path d="M25.0761 24.9213H24.2336V25.7563H25.0761V24.9213Z" fill="#679EC6"/>
<path d="M25.0761 24.0787H24.2336V24.9212H25.0761V24.0787Z" fill="#679EC6"/>
<path d="M25.0761 23.2437H24.2336V24.0787H25.0761V23.2437Z" fill="#679EC6"/>
<path d="M25.0761 22.4012H24.2336V23.2437H25.0761V22.4012Z" fill="#679EC6"/>
<path d="M25.0761 21.5575H24.2336V22.4H25.0761V21.5575Z" fill="#6D4541"/>
<path d="M25.0761 20.725H24.2336V21.56H25.0761V20.725Z" fill="#6D4541"/>
<path d="M25.0761 19.8813H24.2336V20.7238H25.0761V19.8813Z" fill="#E0AD86"/>
<path d="M25.0761 19.0475H24.2336V19.8825H25.0761V19.0475Z" fill="#E0AD86"/>
<path d="M25.0761 18.2037H24.2336V19.0462H25.0761V18.2037Z" fill="#E0AD86"/>
<path d="M25.0761 17.3712H24.2336V18.2062H25.0761V17.3712Z" fill="#BA7D54"/>
<path d="M25.0761 16.5275H24.2336V17.37H25.0761V16.5275Z" fill="#1C1C1C"/>
<path d="M25.0761 15.685H24.2336V16.5275H25.0761V15.685Z" fill="#545453"/>
<path d="M25.0761 14.85H24.2336V15.685H25.0761V14.85Z" fill="#507993"/>
<path d="M25.0761 14.0088H24.2336V14.8513H25.0761V14.0088Z" fill="#679EC6"/>
<path d="M25.0761 13.1737H24.2336V14.0087H25.0761V13.1737Z" fill="#679EC6"/>
<path d="M25.0761 12.3312H24.2336V13.1737H25.0761V12.3312Z" fill="#679EC6"/>
<path d="M25.0761 11.4962H24.2336V12.3312H25.0761V11.4962Z" fill="#507993"/>
<path d="M25.0761 10.6537H24.2336V11.4962H25.0761V10.6537Z" fill="black"/>
<path d="M25.0761 9.82001H24.2336V10.655H25.0761V9.82001Z" fill="black"/>
<path d="M24.2364 34.1487H23.4014V34.9837H24.2364V34.1487Z" fill="black"/>
<path d="M24.2364 33.305H23.4014V34.1475H24.2364V33.305Z" fill="#1C323A"/>
<path d="M24.2364 32.4725H23.4014V33.3075H24.2364V32.4725Z" fill="#354D59"/>
<path d="M24.2364 31.6288H23.4014V32.4713H24.2364V31.6288Z" fill="#354D59"/>
<path d="M24.2364 30.795H23.4014V31.63H24.2364V30.795Z" fill="#354D59"/>
<path d="M24.2364 29.9513H23.4014V30.7938H24.2364V29.9513Z" fill="#1C323A"/>
<path d="M24.2364 29.1088H23.4014V29.9513H24.2364V29.1088Z" fill="#507993"/>
<path d="M24.2364 28.275H23.4014V29.11H24.2364V28.275Z" fill="#79B6EE"/>
<path d="M24.2364 27.4325H23.4014V28.275H24.2364V27.4325Z" fill="#679EC6"/>
<path d="M24.2364 26.5975H23.4014V27.4325H24.2364V26.5975Z" fill="#679EC6"/>
<path d="M24.2364 25.755H23.4014V26.5975H24.2364V25.755Z" fill="#679EC6"/>
<path d="M24.2364 24.9213H23.4014V25.7563H24.2364V24.9213Z" fill="#679EC6"/>
<path d="M24.2364 24.0787H23.4014V24.9212H24.2364V24.0787Z" fill="#679EC6"/>
<path d="M24.2364 23.2437H23.4014V24.0787H24.2364V23.2437Z" fill="#679EC6"/>
<path d="M24.2364 22.4012H23.4014V23.2437H24.2364V22.4012Z" fill="#679EC6"/>
<path d="M24.2364 21.5575H23.4014V22.4H24.2364V21.5575Z" fill="#6D4541"/>
<path d="M24.2364 20.725H23.4014V21.56H24.2364V20.725Z" fill="#6D4541"/>
<path d="M24.2364 19.8813H23.4014V20.7238H24.2364V19.8813Z" fill="#E0AD86"/>
<path d="M24.2364 19.0475H23.4014V19.8825H24.2364V19.0475Z" fill="#E0AD86"/>
<path d="M24.2364 18.2037H23.4014V19.0462H24.2364V18.2037Z" fill="#E0AD86"/>
<path d="M24.2364 17.3712H23.4014V18.2062H24.2364V17.3712Z" fill="#BA7D54"/>
<path d="M24.2364 16.5275H23.4014V17.37H24.2364V16.5275Z" fill="#BA7D54"/>
<path d="M24.2364 15.685H23.4014V16.5275H24.2364V15.685Z" fill="#507993"/>
<path d="M24.2364 14.85H23.4014V15.685H24.2364V14.85Z" fill="#679EC6"/>
<path d="M24.2364 14.0088H23.4014V14.8513H24.2364V14.0088Z" fill="#679EC6"/>
<path d="M24.2364 13.1737H23.4014V14.0087H24.2364V13.1737Z" fill="#679EC6"/>
<path d="M24.2364 12.3312H23.4014V13.1737H24.2364V12.3312Z" fill="#679EC6"/>
<path d="M24.2364 11.4962H23.4014V12.3312H24.2364V11.4962Z" fill="#679EC6"/>
<path d="M24.2364 10.6537H23.4014V11.4962H24.2364V10.6537Z" fill="#507993"/>
<path d="M24.2364 9.82001H23.4014V10.655H24.2364V9.82001Z" fill="black"/>
<path d="M23.4001 38.345H22.5576V39.18H23.4001V38.345Z" fill="black"/>
<path d="M23.4001 37.5025H22.5576V38.345H23.4001V37.5025Z" fill="black"/>
<path d="M23.4001 36.6688H22.5576V37.5038H23.4001V36.6688Z" fill="black"/>
<path d="M23.4001 35.8262H22.5576V36.6687H23.4001V35.8262Z" fill="black"/>
<path d="M23.4001 34.9825H22.5576V35.825H23.4001V34.9825Z" fill="black"/>
<path d="M23.4001 34.1487H22.5576V34.9837H23.4001V34.1487Z" fill="black"/>
<path d="M23.4001 33.305H22.5576V34.1475H23.4001V33.305Z" fill="#1C323A"/>
<path d="M23.4001 32.4725H22.5576V33.3075H23.4001V32.4725Z" fill="#1C323A"/>
<path d="M23.4001 31.6288H22.5576V32.4713H23.4001V31.6288Z" fill="#1C323A"/>
<path d="M23.4001 30.795H22.5576V31.63H23.4001V30.795Z" fill="#354D59"/>
<path d="M23.4001 29.9513H22.5576V30.7938H23.4001V29.9513Z" fill="#354D59"/>
<path d="M23.4001 29.1088H22.5576V29.9513H23.4001V29.1088Z" fill="#507993"/>
<path d="M23.4001 28.275H22.5576V29.11H23.4001V28.275Z" fill="#679EC6"/>
<path d="M23.4001 27.4325H22.5576V28.275H23.4001V27.4325Z" fill="#79B6EE"/>
<path d="M23.4001 26.5975H22.5576V27.4325H23.4001V26.5975Z" fill="#79B6EE"/>
<path d="M23.4001 25.755H22.5576V26.5975H23.4001V25.755Z" fill="#679EC6"/>
<path d="M23.4001 24.9213H22.5576V25.7563H23.4001V24.9213Z" fill="#679EC6"/>
<path d="M23.4001 24.0787H22.5576V24.9212H23.4001V24.0787Z" fill="#679EC6"/>
<path d="M23.4001 23.2437H22.5576V24.0787H23.4001V23.2437Z" fill="#679EC6"/>
<path d="M23.4001 22.4012H22.5576V23.2437H23.4001V22.4012Z" fill="#679EC6"/>
<path d="M23.4001 21.5575H22.5576V22.4H23.4001V21.5575Z" fill="#6D4541"/>
<path d="M23.4001 20.725H22.5576V21.56H23.4001V20.725Z" fill="#6D4541"/>
<path d="M23.4001 19.8813H22.5576V20.7238H23.4001V19.8813Z" fill="#E0AD86"/>
<path d="M23.4001 19.0475H22.5576V19.8825H23.4001V19.0475Z" fill="#E0AD86"/>
<path d="M23.4001 18.2037H22.5576V19.0462H23.4001V18.2037Z" fill="#E0AD86"/>
<path d="M23.4001 17.3712H22.5576V18.2062H23.4001V17.3712Z" fill="#BA7D54"/>
<path d="M23.4001 16.5275H22.5576V17.37H23.4001V16.5275Z" fill="#507993"/>
<path d="M23.4001 15.685H22.5576V16.5275H23.4001V15.685Z" fill="#679EC6"/>
<path d="M23.4001 14.85H22.5576V15.685H23.4001V14.85Z" fill="#679EC6"/>
<path d="M23.4001 14.0088H22.5576V14.8513H23.4001V14.0088Z" fill="#679EC6"/>
<path d="M23.4001 13.1737H22.5576V14.0087H23.4001V13.1737Z" fill="#679EC6"/>
<path d="M23.4001 12.3312H22.5576V13.1737H23.4001V12.3312Z" fill="#79B6EE"/>
<path d="M23.4001 11.4962H22.5576V12.3312H23.4001V11.4962Z" fill="#79B6EE"/>
<path d="M23.4001 10.6537H22.5576V11.4962H23.4001V10.6537Z" fill="black"/>
<path d="M23.4001 9.82001H22.5576V10.655H23.4001V9.82001Z" fill="black"/>
<path d="M22.5586 38.345H21.7236V39.18H22.5586V38.345Z" fill="black"/>
<path d="M22.5586 37.5025H21.7236V38.345H22.5586V37.5025Z" fill="#60401E"/>
<path d="M22.5586 36.6688H21.7236V37.5038H22.5586V36.6688Z" fill="#60401E"/>
<path d="M22.5586 35.8262H21.7236V36.6687H22.5586V35.8262Z" fill="#60401E"/>
<path d="M22.5586 34.9825H21.7236V35.825H22.5586V34.9825Z" fill="#60401E"/>
<path d="M22.5586 34.1487H21.7236V34.9837H22.5586V34.1487Z" fill="#354D59"/>
<path d="M22.5586 33.305H21.7236V34.1475H22.5586V33.305Z" fill="#354D59"/>
<path d="M22.5586 32.4725H21.7236V33.3075H22.5586V32.4725Z" fill="#354D59"/>
<path d="M22.5586 31.6288H21.7236V32.4713H22.5586V31.6288Z" fill="#354D59"/>
<path d="M22.5586 30.795H21.7236V31.63H22.5586V30.795Z" fill="#354D59"/>
<path d="M22.5586 29.9513H21.7236V30.7938H22.5586V29.9513Z" fill="#354D59"/>
<path d="M22.5586 29.1088H21.7236V29.9513H22.5586V29.1088Z" fill="#507993"/>
<path d="M22.5586 28.275H21.7236V29.11H22.5586V28.275Z" fill="#507993"/>
<path d="M22.5586 27.4325H21.7236V28.275H22.5586V27.4325Z" fill="#679EC6"/>
<path d="M22.5586 26.5975H21.7236V27.4325H22.5586V26.5975Z" fill="#79B6EE"/>
<path d="M22.5586 25.755H21.7236V26.5975H22.5586V25.755Z" fill="#79B6EE"/>
<path d="M22.5586 24.9213H21.7236V25.7563H22.5586V24.9213Z" fill="#679EC6"/>
<path d="M22.5586 24.0787H21.7236V24.9212H22.5586V24.0787Z" fill="#79B6EE"/>
<path d="M22.5586 23.2437H21.7236V24.0787H22.5586V23.2437Z" fill="#79B6EE"/>
<path d="M22.5586 22.4012H21.7236V23.2437H22.5586V22.4012Z" fill="#79B6EE"/>
<path d="M22.5586 21.5575H21.7236V22.4H22.5586V21.5575Z" fill="#6D4541"/>
<path d="M22.5586 20.725H21.7236V21.56H22.5586V20.725Z" fill="#6D4541"/>
<path d="M22.5586 19.8813H21.7236V20.7238H22.5586V19.8813Z" fill="#E0AD86"/>
<path d="M22.5586 19.0475H21.7236V19.8825H22.5586V19.0475Z" fill="#E0AD86"/>
<path d="M22.5586 18.2037H21.7236V19.0462H22.5586V18.2037Z" fill="#E0AD86"/>
<path d="M22.5586 17.3712H21.7236V18.2062H22.5586V17.3712Z" fill="#BA7D54"/>
<path d="M22.5586 16.5275H21.7236V17.37H22.5586V16.5275Z" fill="#79B6EE"/>
<path d="M22.5586 15.685H21.7236V16.5275H22.5586V15.685Z" fill="#679EC6"/>
<path d="M22.5586 14.85H21.7236V15.685H22.5586V14.85Z" fill="#679EC6"/>
<path d="M22.5586 14.0088H21.7236V14.8513H22.5586V14.0088Z" fill="#79B6EE"/>
<path d="M22.5586 13.1737H21.7236V14.0087H22.5586V13.1737Z" fill="#79B6EE"/>
<path d="M22.5586 12.3312H21.7236V13.1737H22.5586V12.3312Z" fill="#79B6EE"/>
<path d="M22.5586 11.4962H21.7236V12.3312H22.5586V11.4962Z" fill="black"/>
<path d="M22.5586 10.6537H21.7236V11.4962H22.5586V10.6537Z" fill="black"/>
<path d="M21.7224 38.345H20.8799V39.18H21.7224V38.345Z" fill="black"/>
<path d="M21.7224 37.5025H20.8799V38.345H21.7224V37.5025Z" fill="#60401E"/>
<path d="M21.7224 36.6688H20.8799V37.5038H21.7224V36.6688Z" fill="#60401E"/>
<path d="M21.7224 35.8262H20.8799V36.6687H21.7224V35.8262Z" fill="#60401E"/>
<path d="M21.7224 34.9825H20.8799V35.825H21.7224V34.9825Z" fill="#354D59"/>
<path d="M21.7224 34.1487H20.8799V34.9837H21.7224V34.1487Z" fill="#354D59"/>
<path d="M21.7224 33.305H20.8799V34.1475H21.7224V33.305Z" fill="#354D59"/>
<path d="M21.7224 32.4725H20.8799V33.3075H21.7224V32.4725Z" fill="#354D59"/>
<path d="M21.7224 31.6288H20.8799V32.4713H21.7224V31.6288Z" fill="#354D59"/>
<path d="M21.7224 30.795H20.8799V31.63H21.7224V30.795Z" fill="#354D59"/>
<path d="M21.7224 29.9513H20.8799V30.7938H21.7224V29.9513Z" fill="#354D59"/>
<path d="M21.7224 29.1088H20.8799V29.9513H21.7224V29.1088Z" fill="#507993"/>
<path d="M21.7224 28.275H20.8799V29.11H21.7224V28.275Z" fill="#507993"/>
<path d="M21.7224 27.4325H20.8799V28.275H21.7224V27.4325Z" fill="#507993"/>
<path d="M21.7224 26.5975H20.8799V27.4325H21.7224V26.5975Z" fill="#79B6EE"/>
<path d="M21.7224 25.755H20.8799V26.5975H21.7224V25.755Z" fill="#679EC6"/>
<path d="M21.7224 24.9213H20.8799V25.7563H21.7224V24.9213Z" fill="#79B6EE"/>
<path d="M21.7224 24.0787H20.8799V24.9212H21.7224V24.0787Z" fill="#79B6EE"/>
<path d="M21.7224 23.2437H20.8799V24.0787H21.7224V23.2437Z" fill="#79B6EE"/>
<path d="M21.7224 22.4012H20.8799V23.2437H21.7224V22.4012Z" fill="#79B6EE"/>
<path d="M21.7224 21.5575H20.8799V22.4H21.7224V21.5575Z" fill="black"/>
<path d="M21.7224 20.725H20.8799V21.56H21.7224V20.725Z" fill="#6D4541"/>
<path d="M21.7224 19.8813H20.8799V20.7238H21.7224V19.8813Z" fill="#E0AD86"/>
<path d="M21.7224 19.0475H20.8799V19.8825H21.7224V19.0475Z" fill="#E0AD86"/>
<path d="M21.7224 18.2037H20.8799V19.0462H21.7224V18.2037Z" fill="#E0AD86"/>
<path d="M21.7224 17.3712H20.8799V18.2062H21.7224V17.3712Z" fill="#BA7D54"/>
<path d="M21.7224 16.5275H20.8799V17.37H21.7224V16.5275Z" fill="#0C0A08"/>
<path d="M21.7224 15.685H20.8799V16.5275H21.7224V15.685Z" fill="#507993"/>
<path d="M21.7224 14.85H20.8799V15.685H21.7224V14.85Z" fill="#79B6EE"/>
<path d="M21.7224 14.0088H20.8799V14.8513H21.7224V14.0088Z" fill="#79B6EE"/>
<path d="M21.7224 13.1737H20.8799V14.0087H21.7224V13.1737Z" fill="#79B6EE"/>
<path d="M21.7224 12.3312H20.8799V13.1737H21.7224V12.3312Z" fill="black"/>
<path d="M21.7224 11.4962H20.8799V12.3312H21.7224V11.4962Z" fill="black"/>
<path d="M20.8801 38.345H20.0376V39.18H20.8801V38.345Z" fill="black"/>
<path d="M20.8801 37.5025H20.0376V38.345H20.8801V37.5025Z" fill="#60401E"/>
<path d="M20.8801 36.6688H20.0376V37.5038H20.8801V36.6688Z" fill="black"/>
<path d="M20.8801 35.8262H20.0376V36.6687H20.8801V35.8262Z" fill="black"/>
<path d="M20.8801 34.9825H20.0376V35.825H20.8801V34.9825Z" fill="black"/>
<path d="M20.8801 34.1487H20.0376V34.9837H20.8801V34.1487Z" fill="#354D59"/>
<path d="M20.8801 33.305H20.0376V34.1475H20.8801V33.305Z" fill="#354D59"/>
<path d="M20.8801 32.4725H20.0376V33.3075H20.8801V32.4725Z" fill="#354D59"/>
<path d="M20.8801 31.6288H20.0376V32.4713H20.8801V31.6288Z" fill="#354D59"/>
<path d="M20.8801 30.795H20.0376V31.63H20.8801V30.795Z" fill="#354D59"/>
<path d="M20.8801 29.9513H20.0376V30.7938H20.8801V29.9513Z" fill="#354D59"/>
<path d="M20.8801 29.1088H20.0376V29.9513H20.8801V29.1088Z" fill="#507993"/>
<path d="M20.8801 28.275H20.0376V29.11H20.8801V28.275Z" fill="black"/>
<path d="M20.8801 27.4325H20.0376V28.275H20.8801V27.4325Z" fill="#679EC6"/>
<path d="M20.8801 26.5975H20.0376V27.4325H20.8801V26.5975Z" fill="#679EC6"/>
<path d="M20.8801 25.755H20.0376V26.5975H20.8801V25.755Z" fill="#79B6EE"/>
<path d="M20.8801 24.9213H20.0376V25.7563H20.8801V24.9213Z" fill="#79B6EE"/>
<path d="M20.8801 24.0787H20.0376V24.9212H20.8801V24.0787Z" fill="#79B6EE"/>
<path d="M20.8801 23.2437H20.0376V24.0787H20.8801V23.2437Z" fill="#679EC6"/>
<path d="M20.8801 22.4012H20.0376V23.2437H20.8801V22.4012Z" fill="black"/>
<path d="M20.8801 21.5575H20.0376V22.4H20.8801V21.5575Z" fill="black"/>
<path d="M20.8801 20.725H20.0376V21.56H20.8801V20.725Z" fill="black"/>
<path d="M20.8801 19.8813H20.0376V20.7238H20.8801V19.8813Z" fill="black"/>
<path d="M20.8801 19.0475H20.0376V19.8825H20.8801V19.0475Z" fill="#79B6EE"/>
<path d="M20.8801 18.2037H20.0376V19.0462H20.8801V18.2037Z" fill="#79B6EE"/>
<path d="M20.8801 17.3712H20.0376V18.2062H20.8801V17.3712Z" fill="#BA7D54"/>
<path d="M20.8801 16.5275H20.0376V17.37H20.8801V16.5275Z" fill="#BA7D54"/>
<path d="M20.8801 15.685H20.0376V16.5275H20.8801V15.685Z" fill="#BA7D54"/>
<path d="M20.8801 14.85H20.0376V15.685H20.8801V14.85Z" fill="#79B6EE"/>
<path d="M20.8801 14.0088H20.0376V14.8513H20.8801V14.0088Z" fill="#79B6EE"/>
<path d="M20.8801 13.1737H20.0376V14.0087H20.8801V13.1737Z" fill="black"/>
<path d="M20.8801 12.3312H20.0376V13.1737H20.8801V12.3312Z" fill="black"/>
<path d="M20.0389 38.345H19.2039V39.18H20.0389V38.345Z" fill="black"/>
<path d="M20.0389 37.5025H19.2039V38.345H20.0389V37.5025Z" fill="black"/>
<path d="M20.0389 36.6688H19.2039V37.5038H20.0389V36.6688Z" fill="black"/>
<path d="M20.0389 34.9825H19.2039V35.825H20.0389V34.9825Z" fill="black"/>
<path d="M20.0389 34.1487H19.2039V34.9837H20.0389V34.1487Z" fill="black"/>
<path d="M20.0389 33.305H19.2039V34.1475H20.0389V33.305Z" fill="black"/>
<path d="M20.0389 32.4725H19.2039V33.3075H20.0389V32.4725Z" fill="#354D59"/>
<path d="M20.0389 31.6288H19.2039V32.4713H20.0389V31.6288Z" fill="#354D59"/>
<path d="M20.0389 30.795H19.2039V31.63H20.0389V30.795Z" fill="#507993"/>
<path d="M20.0389 29.9513H19.2039V30.7938H20.0389V29.9513Z" fill="#507993"/>
<path d="M20.0389 29.1088H19.2039V29.9513H20.0389V29.1088Z" fill="black"/>
<path d="M20.0389 28.275H19.2039V29.11H20.0389V28.275Z" fill="black"/>
<path d="M20.0389 27.4325H19.2039V28.275H20.0389V27.4325Z" fill="#79B6EE"/>
<path d="M20.0389 26.5975H19.2039V27.4325H20.0389V26.5975Z" fill="#79B6EE"/>
<path d="M20.0389 25.755H19.2039V26.5975H20.0389V25.755Z" fill="#79B6EE"/>
<path d="M20.0389 24.9213H19.2039V25.7563H20.0389V24.9213Z" fill="#79B6EE"/>
<path d="M20.0389 24.0787H19.2039V24.9212H20.0389V24.0787Z" fill="#679EC6"/>
<path d="M20.0389 23.2437H19.2039V24.0787H20.0389V23.2437Z" fill="black"/>
<path d="M20.0389 19.8813H19.2039V20.7238H20.0389V19.8813Z" fill="black"/>
<path d="M20.0389 19.0475H19.2039V19.8825H20.0389V19.0475Z" fill="black"/>
<path d="M20.0389 18.2037H19.2039V19.0462H20.0389V18.2037Z" fill="black"/>
<path d="M20.0389 17.3712H19.2039V18.2062H20.0389V17.3712Z" fill="#79B6EE"/>
<path d="M20.0389 16.5275H19.2039V17.37H20.0389V16.5275Z" fill="#79B6EE"/>
<path d="M20.0389 15.685H19.2039V16.5275H20.0389V15.685Z" fill="#79B6EE"/>
<path d="M20.0389 14.85H19.2039V15.685H20.0389V14.85Z" fill="black"/>
<path d="M20.0389 14.0088H19.2039V14.8513H20.0389V14.0088Z" fill="black"/>
<path d="M20.0389 13.1737H19.2039V14.0087H20.0389V13.1737Z" fill="black"/>
<path d="M19.2038 38.345H18.3613V39.18H19.2038V38.345Z" fill="black"/>
<path d="M19.2038 37.5025H18.3613V38.345H19.2038V37.5025Z" fill="black"/>
<path d="M19.2038 33.305H18.3613V34.1475H19.2038V33.305Z" fill="black"/>
<path d="M19.2038 32.4725H18.3613V33.3075H19.2038V32.4725Z" fill="black"/>
<path d="M19.2038 31.6288H18.3613V32.4713H19.2038V31.6288Z" fill="black"/>
<path d="M19.2038 30.795H18.3613V31.63H19.2038V30.795Z" fill="black"/>
<path d="M19.2038 29.9513H18.3613V30.7938H19.2038V29.9513Z" fill="black"/>
<path d="M19.2038 29.1088H18.3613V29.9513H19.2038V29.1088Z" fill="black"/>
<path d="M19.2038 28.275H18.3613V29.11H19.2038V28.275Z" fill="#E0AD86"/>
<path d="M19.2038 27.4325H18.3613V28.275H19.2038V27.4325Z" fill="#E0AD86"/>
<path d="M19.2038 26.5975H18.3613V27.4325H19.2038V26.5975Z" fill="#79B6EE"/>
<path d="M19.2038 25.755H18.3613V26.5975H19.2038V25.755Z" fill="#79B6EE"/>
<path d="M19.2038 24.9213H18.3613V25.7563H19.2038V24.9213Z" fill="#679EC6"/>
<path d="M19.2038 24.0787H18.3613V24.9212H19.2038V24.0787Z" fill="black"/>
<path d="M19.2038 18.2037H18.3613V19.0462H19.2038V18.2037Z" fill="black"/>
<path d="M19.2038 17.3712H18.3613V18.2062H19.2038V17.3712Z" fill="black"/>
<path d="M19.2038 16.5275H18.3613V17.37H19.2038V16.5275Z" fill="black"/>
<path d="M19.2038 15.685H18.3613V16.5275H19.2038V15.685Z" fill="black"/>
<path d="M19.2038 14.85H18.3613V15.685H19.2038V14.85Z" fill="black"/>
<path d="M18.3614 29.9513H17.5264V30.7938H18.3614V29.9513Z" fill="black"/>
<path d="M18.3614 29.1088H17.5264V29.9513H18.3614V29.1088Z" fill="#E0AD86"/>
<path d="M18.3614 28.275H17.5264V29.11H18.3614V28.275Z" fill="#E0AD86"/>
<path d="M18.3614 27.4325H17.5264V28.275H18.3614V27.4325Z" fill="#E0AD86"/>
<path d="M18.3614 26.5975H17.5264V27.4325H18.3614V26.5975Z" fill="#E0AD86"/>
<path d="M18.3614 25.755H17.5264V26.5975H18.3614V25.755Z" fill="black"/>
<path d="M18.3614 24.9213H17.5264V25.7563H18.3614V24.9213Z" fill="black"/>
<path d="M17.5263 29.1088H16.6838V29.9513H17.5263V29.1088Z" fill="black"/>
<path d="M17.5263 28.275H16.6838V29.11H17.5263V28.275Z" fill="black"/>
<path d="M17.5263 27.4325H16.6838V28.275H17.5263V27.4325Z" fill="#E0AD86"/>
<path d="M17.5263 26.5975H16.6838V27.4325H17.5263V26.5975Z" fill="black"/>
<path d="M16.6851 38.345H15.8501V39.18H16.6851V38.345Z" fill="#B50012"/>
<path d="M16.6851 36.6688H15.8501V37.5038H16.6851V36.6688Z" fill="#B50012"/>
<path d="M16.6851 28.275H15.8501V29.11H16.6851V28.275Z" fill="#B50012"/>
<path d="M16.6851 27.4325H15.8501V28.275H16.6851V27.4325Z" fill="#4A4A68"/>
<path d="M16.6851 26.5975H15.8501V27.4325H16.6851V26.5975Z" fill="#B50012"/>
<path d="M16.6851 25.755H15.8501V26.5975H16.6851V25.755Z" fill="#B50012"/>
<path d="M15.8501 38.345H15.0076V39.18H15.8501V38.345Z" fill="#B50012"/>
<path d="M15.8501 34.9825H15.0076V35.825H15.8501V34.9825Z" fill="#B50012"/>
<path d="M15.8501 34.1487H15.0076V34.9837H15.8501V34.1487Z" fill="#B50012"/>
<path d="M15.8501 27.4325H15.0076V28.275H15.8501V27.4325Z" fill="#B50012"/>
<path d="M15.8501 26.5975H15.0076V27.4325H15.8501V26.5975Z" fill="#727B9B"/>
<path d="M15.8501 25.755H15.0076V26.5975H15.8501V25.755Z" fill="#727B9B"/>
<path d="M15.8501 24.9213H15.0076V25.7563H15.8501V24.9213Z" fill="#B50012"/>
<path d="M15.8501 24.0787H15.0076V24.9212H15.8501V24.0787Z" fill="#B50012"/>
<path d="M15.0075 38.345H14.165V39.18H15.0075V38.345Z" fill="#B50012"/>
<path d="M15.0075 37.5025H14.165V38.345H15.0075V37.5025Z" fill="#B50012"/>
<path d="M15.0075 28.275H14.165V29.11H15.0075V28.275Z" fill="#B50012"/>
<path d="M15.0075 27.4325H14.165V28.275H15.0075V27.4325Z" fill="#B50012"/>
<path d="M15.0075 26.5975H14.165V27.4325H15.0075V26.5975Z" fill="#B50012"/>
<path d="M15.0075 25.755H14.165V26.5975H15.0075V25.755Z" fill="#727B9B"/>
<path d="M15.0075 24.9213H14.165V25.7563H15.0075V24.9213Z" fill="#727B9B"/>
<path d="M15.0075 24.0787H14.165V24.9212H15.0075V24.0787Z" fill="#727B9B"/>
<path d="M15.0075 23.2437H14.165V24.0787H15.0075V23.2437Z" fill="#B50012"/>
<path d="M15.0075 22.4012H14.165V23.2437H15.0075V22.4012Z" fill="#B50012"/>
<path d="M14.1651 38.345H13.3301V39.18H14.1651V38.345Z" fill="#B50012"/>
<path d="M14.1651 35.8262H13.3301V36.6687H14.1651V35.8262Z" fill="#B50012"/>
<path d="M14.1651 30.795H13.3301V31.63H14.1651V30.795Z" fill="#B50012"/>
<path d="M14.1651 29.9513H13.3301V30.7938H14.1651V29.9513Z" fill="#B50012"/>
<path d="M14.1651 26.5975H13.3301V27.4325H14.1651V26.5975Z" fill="#B50012"/>
<path d="M14.1651 25.755H13.3301V26.5975H14.1651V25.755Z" fill="#B50012"/>
<path d="M14.1651 24.9213H13.3301V25.7563H14.1651V24.9213Z" fill="#B50012"/>
<path d="M14.1651 24.0787H13.3301V24.9212H14.1651V24.0787Z" fill="#727B9B"/>
<path d="M14.1651 23.2437H13.3301V24.0787H14.1651V23.2437Z" fill="#727B9B"/>
<path d="M14.1651 22.4012H13.3301V23.2437H14.1651V22.4012Z" fill="#727B9B"/>
<path d="M14.1651 21.5575H13.3301V22.4H14.1651V21.5575Z" fill="#B50012"/>
<path d="M13.3288 24.9213H12.4863V25.7563H13.3288V24.9213Z" fill="#B50012"/>
<path d="M13.3288 24.0787H12.4863V24.9212H13.3288V24.0787Z" fill="#B50012"/>
<path d="M13.3288 23.2437H12.4863V24.0787H13.3288V23.2437Z" fill="#B50012"/>
<path d="M13.3288 22.4012H12.4863V23.2437H13.3288V22.4012Z" fill="#B50012"/>
</g>
<defs>
<clipPath id="clip0_69_12160">
<rect width="50" height="50" fill="white"/>
</clipPath>
</defs>
</svg>
