<svg width="50" height="50" viewBox="0 0 50 50" fill="none" xmlns="http://www.w3.org/2000/svg">
<g clip-path="url(#clip0_69_12164)">
<path d="M25.0001 48.2225C37.8255 48.2225 48.2226 37.8254 48.2226 25C48.2226 12.1746 37.8255 1.7775 25.0001 1.7775C12.1747 1.7775 1.77759 12.1746 1.77759 25C1.77759 37.8254 12.1747 48.2225 25.0001 48.2225Z" fill="black"/>
<path d="M25.0001 49.0975C11.7126 49.0975 0.902588 38.2875 0.902588 25C0.902588 11.7125 11.7126 0.902496 25.0001 0.902496C38.2876 0.902496 49.0976 11.7125 49.0976 25C49.0976 38.2875 38.2876 49.0975 25.0001 49.0975ZM25.0001 2.6525C12.6776 2.6525 2.65259 12.6775 2.65259 25C2.65259 37.3225 12.6776 47.3475 25.0001 47.3475C37.3226 47.3475 47.3476 37.3225 47.3476 25C47.3476 12.6775 37.3226 2.6525 25.0001 2.6525Z" fill="#668466"/>
<path d="M36.5112 32.37H35.6387V33.2525H36.5112V32.37Z" fill="black"/>
<path d="M36.5112 31.4975H35.6387V32.37H36.5112V31.4975Z" fill="black"/>
<path d="M36.5112 30.615H35.6387V31.4975H36.5112V30.615Z" fill="black"/>
<path d="M36.5112 29.7337H35.6387V30.615H36.5112V29.7337Z" fill="black"/>
<path d="M36.5112 28.86H35.6387V29.7325H36.5112V28.86Z" fill="black"/>
<path d="M36.5112 27.9787H35.6387V28.8612H36.5112V27.9787Z" fill="black"/>
<path d="M36.5112 27.1062H35.6387V27.9787H36.5112V27.1062Z" fill="black"/>
<path d="M36.5112 26.2238H35.6387V27.1063H36.5112V26.2238Z" fill="black"/>
<path d="M36.5112 25.3512H35.6387V26.2237H36.5112V25.3512Z" fill="black"/>
<path d="M36.5112 24.4688H35.6387V25.3512H36.5112V24.4688Z" fill="black"/>
<path d="M36.5112 23.5963H35.6387V24.4688H36.5112V23.5963Z" fill="black"/>
<path d="M36.5112 22.7137H35.6387V23.5962H36.5112V22.7137Z" fill="black"/>
<path d="M36.5112 21.8325H35.6387V22.715H36.5112V21.8325Z" fill="black"/>
<path d="M36.5112 18.3225H35.6387V19.205H36.5112V18.3225Z" fill="black"/>
<path d="M36.5112 17.45H35.6387V18.3225H36.5112V17.45Z" fill="black"/>
<path d="M36.5112 16.5675H35.6387V17.45H36.5112V16.5675Z" fill="black"/>
<path d="M36.5112 15.6862H35.6387V16.5687H36.5112V15.6862Z" fill="black"/>
<path d="M35.6401 33.2525H34.7576V34.125H35.6401V33.2525Z" fill="black"/>
<path d="M35.6401 32.37H34.7576V33.2525H35.6401V32.37Z" fill="#577C57"/>
<path d="M35.6401 31.4975H34.7576V32.37H35.6401V31.4975Z" fill="#577C57"/>
<path d="M35.6401 30.615H34.7576V31.4975H35.6401V30.615Z" fill="#577C57"/>
<path d="M35.6401 29.7337H34.7576V30.615H35.6401V29.7337Z" fill="#577C57"/>
<path d="M35.6401 28.86H34.7576V29.7325H35.6401V28.86Z" fill="#577C57"/>
<path d="M35.6401 27.9787H34.7576V28.8612H35.6401V27.9787Z" fill="#668466"/>
<path d="M35.6401 27.1062H34.7576V27.9787H35.6401V27.1062Z" fill="#668466"/>
<path d="M35.6401 26.2238H34.7576V27.1063H35.6401V26.2238Z" fill="#668466"/>
<path d="M35.6401 25.3512H34.7576V26.2237H35.6401V25.3512Z" fill="#577C57"/>
<path d="M35.6401 24.4688H34.7576V25.3512H35.6401V24.4688Z" fill="#577C57"/>
<path d="M35.6401 23.5963H34.7576V24.4688H35.6401V23.5963Z" fill="#577C57"/>
<path d="M35.6401 22.7137H34.7576V23.5962H35.6401V22.7137Z" fill="#577C57"/>
<path d="M35.6401 21.8325H34.7576V22.715H35.6401V21.8325Z" fill="#577C57"/>
<path d="M35.6401 20.96H34.7576V21.8325H35.6401V20.96Z" fill="black"/>
<path d="M35.6401 20.0775H34.7576V20.96H35.6401V20.0775Z" fill="black"/>
<path d="M35.6401 19.205H34.7576V20.0775H35.6401V19.205Z" fill="black"/>
<path d="M35.6401 18.3225H34.7576V19.205H35.6401V18.3225Z" fill="#668466"/>
<path d="M35.6401 17.45H34.7576V18.3225H35.6401V17.45Z" fill="#446644"/>
<path d="M35.6401 16.5675H34.7576V17.45H35.6401V16.5675Z" fill="#446644"/>
<path d="M35.6401 15.6862H34.7576V16.5687H35.6401V15.6862Z" fill="#668466"/>
<path d="M35.6401 14.8138H34.7576V15.6863H35.6401V14.8138Z" fill="black"/>
<path d="M35.6401 13.9312H34.7576V14.8137H35.6401V13.9312Z" fill="black"/>
<path d="M34.7575 33.2525H33.8762V34.125H34.7575V33.2525Z" fill="black"/>
<path d="M34.7575 32.37H33.8762V33.2525H34.7575V32.37Z" fill="#446644"/>
<path d="M34.7575 31.4975H33.8762V32.37H34.7575V31.4975Z" fill="#668466"/>
<path d="M34.7575 30.615H33.8762V31.4975H34.7575V30.615Z" fill="#668466"/>
<path d="M34.7575 29.7337H33.8762V30.615H34.7575V29.7337Z" fill="#668466"/>
<path d="M34.7575 28.86H33.8762V29.7325H34.7575V28.86Z" fill="#668466"/>
<path d="M34.7575 27.9787H33.8762V28.8612H34.7575V27.9787Z" fill="#668466"/>
<path d="M34.7562 27.125H33.875V27.9975H34.7562V27.125Z" fill="#668466"/>
<path d="M34.7575 26.2238H33.8762V27.1063H34.7575V26.2238Z" fill="#668466"/>
<path d="M34.7575 25.3512H33.8762V26.2237H34.7575V25.3512Z" fill="#668466"/>
<path d="M34.7575 24.4688H33.8762V25.3512H34.7575V24.4688Z" fill="#668466"/>
<path d="M34.7575 23.5963H33.8762V24.4688H34.7575V23.5963Z" fill="#668466"/>
<path d="M34.7575 22.7137H33.8762V23.5962H34.7575V22.7137Z" fill="#668466"/>
<path d="M34.7575 21.8325H33.8762V22.715H34.7575V21.8325Z" fill="#577C57"/>
<path d="M34.7575 20.96H33.8762V21.8325H34.7575V20.96Z" fill="#446644"/>
<path d="M34.7575 20.0775H33.8762V20.96H34.7575V20.0775Z" fill="#668466"/>
<path d="M34.7575 19.205H33.8762V20.0775H34.7575V19.205Z" fill="#668466"/>
<path d="M34.7575 18.3225H33.8762V19.205H34.7575V18.3225Z" fill="#446644"/>
<path d="M34.7575 17.45H33.8762V18.3225H34.7575V17.45Z" fill="#668466"/>
<path d="M34.7575 16.5675H33.8762V17.45H34.7575V16.5675Z" fill="#668466"/>
<path d="M34.7575 15.6862H33.8762V16.5687H34.7575V15.6862Z" fill="#446644"/>
<path d="M34.7575 14.8138H33.8762V15.6863H34.7575V14.8138Z" fill="#668466"/>
<path d="M34.7575 13.9312H33.8762V14.8137H34.7575V13.9312Z" fill="black"/>
<path d="M33.875 33.2525H33.0012V34.125H33.875V33.2525Z" fill="black"/>
<path d="M33.875 32.37H33.0012V33.2525H33.875V32.37Z" fill="#446644"/>
<path d="M33.875 31.4975H33.0012V32.37H33.875V31.4975Z" fill="#446644"/>
<path d="M33.875 30.615H33.0012V31.4975H33.875V30.615Z" fill="#446644"/>
<path d="M33.875 29.7337H33.0012V30.615H33.875V29.7337Z" fill="#668466"/>
<path d="M33.875 28.86H33.0012V29.7325H33.875V28.86Z" fill="#668466"/>
<path d="M33.875 27.9787H33.0012V28.8612H33.875V27.9787Z" fill="#668466"/>
<path d="M33.875 27.1062H33.0012V27.9787H33.875V27.1062Z" fill="#668466"/>
<path d="M33.875 26.2238H33.0012V27.1063H33.875V26.2238Z" fill="#668466"/>
<path d="M33.875 25.3512H33.0012V26.2237H33.875V25.3512Z" fill="#668466"/>
<path d="M33.875 24.4688H33.0012V25.3512H33.875V24.4688Z" fill="#668466"/>
<path d="M33.875 23.5963H33.0012V24.4688H33.875V23.5963Z" fill="#668466"/>
<path d="M33.875 22.7137H33.0012V23.5962H33.875V22.7137Z" fill="#668466"/>
<path d="M33.875 21.8325H33.0012V22.715H33.875V21.8325Z" fill="#668466"/>
<path d="M33.875 20.96H33.0012V21.8325H33.875V20.96Z" fill="#446644"/>
<path d="M33.875 20.0775H33.0012V20.96H33.875V20.0775Z" fill="#668466"/>
<path d="M33.875 19.205H33.0012V20.0775H33.875V19.205Z" fill="#668466"/>
<path d="M33.875 18.3225H33.0012V19.205H33.875V18.3225Z" fill="#668466"/>
<path d="M33.875 17.45H33.0012V18.3225H33.875V17.45Z" fill="#446644"/>
<path d="M33.875 16.5675H33.0012V17.45H33.875V16.5675Z" fill="#668466"/>
<path d="M33.875 15.6862H33.0012V16.5687H33.875V15.6862Z" fill="#446644"/>
<path d="M33.875 14.8138H33.0012V15.6863H33.875V14.8138Z" fill="#668466"/>
<path d="M33.875 13.9312H33.0012V14.8137H33.875V13.9312Z" fill="black"/>
<path d="M33.0023 33.2525H32.1211V34.125H33.0023V33.2525Z" fill="black"/>
<path d="M33.0023 32.37H32.1211V33.2525H33.0023V32.37Z" fill="#446644"/>
<path d="M33.0023 31.4975H32.1211V32.37H33.0023V31.4975Z" fill="#446644"/>
<path d="M33.0023 30.615H32.1211V31.4975H33.0023V30.615Z" fill="#446644"/>
<path d="M33.0023 29.7337H32.1211V30.615H33.0023V29.7337Z" fill="#446644"/>
<path d="M33.0023 28.86H32.1211V29.7325H33.0023V28.86Z" fill="#668466"/>
<path d="M33.0023 27.9787H32.1211V28.8612H33.0023V27.9787Z" fill="#668466"/>
<path d="M33.0023 27.1062H32.1211V27.9787H33.0023V27.1062Z" fill="#668466"/>
<path d="M33.0023 26.2238H32.1211V27.1063H33.0023V26.2238Z" fill="black"/>
<path d="M33.0023 25.3512H32.1211V26.2237H33.0023V25.3512Z" fill="black"/>
<path d="M33.0023 24.4688H32.1211V25.3512H33.0023V24.4688Z" fill="black"/>
<path d="M33.0023 23.5963H32.1211V24.4688H33.0023V23.5963Z" fill="black"/>
<path d="M33.0023 22.7137H32.1211V23.5962H33.0023V22.7137Z" fill="black"/>
<path d="M33.0023 21.8325H32.1211V22.715H33.0023V21.8325Z" fill="#668466"/>
<path d="M33.0023 20.96H32.1211V21.8325H33.0023V20.96Z" fill="#446644"/>
<path d="M33.0023 20.0775H32.1211V20.96H33.0023V20.0775Z" fill="black"/>
<path d="M33.0023 19.205H32.1211V20.0775H33.0023V19.205Z" fill="black"/>
<path d="M33.0023 18.3225H32.1211V19.205H33.0023V18.3225Z" fill="black"/>
<path d="M33.0023 17.45H32.1211V18.3225H33.0023V17.45Z" fill="black"/>
<path d="M33.0023 16.5675H32.1211V17.45H33.0023V16.5675Z" fill="#668466"/>
<path d="M33.0023 15.6862H32.1211V16.5687H33.0023V15.6862Z" fill="#668466"/>
<path d="M33.0023 14.8138H32.1211V15.6863H33.0023V14.8138Z" fill="#668466"/>
<path d="M33.0023 13.9312H32.1211V14.8137H33.0023V13.9312Z" fill="black"/>
<path d="M32.1201 39.3987H31.2476V40.2712H32.1201V39.3987Z" fill="black"/>
<path d="M32.1201 38.5162H31.2476V39.3987H32.1201V38.5162Z" fill="black"/>
<path d="M32.1201 33.2525H31.2476V34.125H32.1201V33.2525Z" fill="black"/>
<path d="M32.1201 32.37H31.2476V33.2525H32.1201V32.37Z" fill="#446644"/>
<path d="M32.1201 31.4975H31.2476V32.37H32.1201V31.4975Z" fill="#446644"/>
<path d="M32.1201 30.615H31.2476V31.4975H32.1201V30.615Z" fill="#446644"/>
<path d="M32.1201 29.7337H31.2476V30.615H32.1201V29.7337Z" fill="#446644"/>
<path d="M32.1201 28.86H31.2476V29.7325H32.1201V28.86Z" fill="#446644"/>
<path d="M32.1201 27.9787H31.2476V28.8612H32.1201V27.9787Z" fill="#446644"/>
<path d="M32.1201 27.1062H31.2476V27.9787H32.1201V27.1062Z" fill="black"/>
<path d="M32.1201 26.2238H31.2476V27.1063H32.1201V26.2238Z" fill="#8ABC8A"/>
<path d="M32.1201 25.3512H31.2476V26.2237H32.1201V25.3512Z" fill="#8ABC8A"/>
<path d="M32.1201 24.4688H31.2476V25.3512H32.1201V24.4688Z" fill="#8ABC8A"/>
<path d="M32.1201 23.5963H31.2476V24.4688H32.1201V23.5963Z" fill="#8ABC8A"/>
<path d="M32.1201 22.7137H31.2476V23.5962H32.1201V22.7137Z" fill="#8ABC8A"/>
<path d="M32.1201 21.8325H31.2476V22.715H32.1201V21.8325Z" fill="black"/>
<path d="M32.1201 20.96H31.2476V21.8325H32.1201V20.96Z" fill="#446644"/>
<path d="M32.1201 20.0775H31.2476V20.96H32.1201V20.0775Z" fill="black"/>
<path d="M32.1201 19.205H31.2476V20.0775H32.1201V19.205Z" fill="#969696"/>
<path d="M32.1201 18.3225H31.2476V19.205H32.1201V18.3225Z" fill="#969696"/>
<path d="M32.1201 17.45H31.2476V18.3225H32.1201V17.45Z" fill="black"/>
<path d="M32.1201 16.5675H31.2476V17.45H32.1201V16.5675Z" fill="#668466"/>
<path d="M32.1201 15.6862H31.2476V16.5687H32.1201V15.6862Z" fill="#668466"/>
<path d="M32.1201 14.8138H31.2476V15.6863H32.1201V14.8138Z" fill="black"/>
<path d="M31.2475 39.3987H30.365V40.2712H31.2475V39.3987Z" fill="black"/>
<path d="M31.2475 38.5162H30.365V39.3987H31.2475V38.5162Z" fill="#724107"/>
<path d="M31.2475 37.6437H30.365V38.5162H31.2475V37.6437Z" fill="black"/>
<path d="M31.2475 36.7612H30.365V37.6437H31.2475V36.7612Z" fill="black"/>
<path d="M31.2475 32.37H30.365V33.2525H31.2475V32.37Z" fill="black"/>
<path d="M31.2475 31.4975H30.365V32.37H31.2475V31.4975Z" fill="#446644"/>
<path d="M31.2475 30.615H30.365V31.4975H31.2475V30.615Z" fill="#446644"/>
<path d="M31.2475 29.7337H30.365V30.615H31.2475V29.7337Z" fill="#446644"/>
<path d="M31.2475 28.86H30.365V29.7325H31.2475V28.86Z" fill="#446644"/>
<path d="M31.2475 27.9787H30.365V28.8612H31.2475V27.9787Z" fill="black"/>
<path d="M31.2475 27.1062H30.365V27.9787H31.2475V27.1062Z" fill="#9DCF9D"/>
<path d="M31.2475 26.2238H30.365V27.1063H31.2475V26.2238Z" fill="#9DCF9D"/>
<path d="M31.2475 25.3512H30.365V26.2237H31.2475V25.3512Z" fill="#9DCF9D"/>
<path d="M31.2475 24.4688H30.365V25.3512H31.2475V24.4688Z" fill="#9DCF9D"/>
<path d="M31.2475 23.5963H30.365V24.4688H31.2475V23.5963Z" fill="#9DCF9D"/>
<path d="M31.2475 22.7137H30.365V23.5962H31.2475V22.7137Z" fill="#8ABC8A"/>
<path d="M31.2475 21.8325H30.365V22.715H31.2475V21.8325Z" fill="#73C6C6"/>
<path d="M31.2475 20.96H30.365V21.8325H31.2475V20.96Z" fill="black"/>
<path d="M31.2475 20.0775H30.365V20.96H31.2475V20.0775Z" fill="black"/>
<path d="M31.2475 19.205H30.365V20.0775H31.2475V19.205Z" fill="#969696"/>
<path d="M31.2475 18.3225H30.365V19.205H31.2475V18.3225Z" fill="#969696"/>
<path d="M31.2475 17.45H30.365V18.3225H31.2475V17.45Z" fill="#969696"/>
<path d="M31.2475 16.5675H30.365V17.45H31.2475V16.5675Z" fill="black"/>
<path d="M31.2475 15.6862H30.365V16.5687H31.2475V15.6862Z" fill="black"/>
<path d="M30.3649 39.3987H29.4924V40.2712H30.3649V39.3987Z" fill="black"/>
<path d="M30.3649 38.5162H29.4924V39.3987H30.3649V38.5162Z" fill="#724107"/>
<path d="M30.3649 37.6437H29.4924V38.5162H30.3649V37.6437Z" fill="#4C3A1F"/>
<path d="M30.3649 36.7612H29.4924V37.6437H30.3649V36.7612Z" fill="#4C3A1F"/>
<path d="M30.3649 35.88H29.4924V36.7613H30.3649V35.88Z" fill="black"/>
<path d="M30.3649 35.0062H29.4924V35.88H30.3649V35.0062Z" fill="black"/>
<path d="M30.3649 34.1263H29.4924V35.0075H30.3649V34.1263Z" fill="black"/>
<path d="M30.3649 33.2525H29.4924V34.125H30.3649V33.2525Z" fill="black"/>
<path d="M30.3649 32.37H29.4924V33.2525H30.3649V32.37Z" fill="black"/>
<path d="M30.3649 31.4975H29.4924V32.37H30.3649V31.4975Z" fill="black"/>
<path d="M30.3649 30.615H29.4924V31.4975H30.3649V30.615Z" fill="black"/>
<path d="M30.3649 29.7337H29.4924V30.615H30.3649V29.7337Z" fill="#446644"/>
<path d="M30.3649 28.86H29.4924V29.7325H30.3649V28.86Z" fill="black"/>
<path d="M30.3649 27.9787H29.4924V28.8612H30.3649V27.9787Z" fill="#668466"/>
<path d="M30.3649 27.1062H29.4924V27.9787H30.3649V27.1062Z" fill="#668466"/>
<path d="M30.3649 26.2238H29.4924V27.1063H30.3649V26.2238Z" fill="#668466"/>
<path d="M30.3649 25.3512H29.4924V26.2237H30.3649V25.3512Z" fill="#668466"/>
<path d="M30.3649 24.4688H29.4924V25.3512H30.3649V24.4688Z" fill="#9DCF9D"/>
<path d="M30.3649 23.5963H29.4924V24.4688H30.3649V23.5963Z" fill="#9DCF9D"/>
<path d="M30.3649 22.7137H29.4924V23.5962H30.3649V22.7137Z" fill="#8ABC8A"/>
<path d="M30.3649 21.8325H29.4924V22.715H30.3649V21.8325Z" fill="#9FF5F7"/>
<path d="M30.3649 20.96H29.4924V21.8325H30.3649V20.96Z" fill="#73C6C6"/>
<path d="M30.3649 20.0775H29.4924V20.96H30.3649V20.0775Z" fill="#969696"/>
<path d="M30.3649 19.205H29.4924V20.0775H30.3649V19.205Z" fill="#969696"/>
<path d="M30.3649 18.3225H29.4924V19.205H30.3649V18.3225Z" fill="#969696"/>
<path d="M30.3649 17.45H29.4924V18.3225H30.3649V17.45Z" fill="#FFD8AE"/>
<path d="M30.3649 16.5675H29.4924V17.45H30.3649V16.5675Z" fill="#969696"/>
<path d="M30.3649 15.6862H29.4924V16.5687H30.3649V15.6862Z" fill="black"/>
<path d="M30.3649 14.8138H29.4924V15.6863H30.3649V14.8138Z" fill="black"/>
<path d="M30.3649 13.9312H29.4924V14.8137H30.3649V13.9312Z" fill="black"/>
<path d="M29.4938 39.3987H28.6113V40.2712H29.4938V39.3987Z" fill="black"/>
<path d="M29.4938 38.5162H28.6113V39.3987H29.4938V38.5162Z" fill="#724107"/>
<path d="M29.4938 37.6437H28.6113V38.5162H29.4938V37.6437Z" fill="#4C3A1F"/>
<path d="M29.4938 36.7612H28.6113V37.6437H29.4938V36.7612Z" fill="#4C3A1F"/>
<path d="M29.4938 35.88H28.6113V36.7613H29.4938V35.88Z" fill="#4C3A1F"/>
<path d="M29.4938 35.0062H28.6113V35.88H29.4938V35.0062Z" fill="#4C3A1F"/>
<path d="M29.4938 34.1263H28.6113V35.0075H29.4938V34.1263Z" fill="#4C3A1F"/>
<path d="M29.4938 33.2525H28.6113V34.125H29.4938V33.2525Z" fill="#634D27"/>
<path d="M29.4938 32.37H28.6113V33.2525H29.4938V32.37Z" fill="#634D27"/>
<path d="M29.4938 31.4975H28.6113V32.37H29.4938V31.4975Z" fill="#634D27"/>
<path d="M29.4938 30.615H28.6113V31.4975H29.4938V30.615Z" fill="#634D27"/>
<path d="M29.4938 29.7337H28.6113V30.615H29.4938V29.7337Z" fill="black"/>
<path d="M29.4938 28.86H28.6113V29.7325H29.4938V28.86Z" fill="black"/>
<path d="M29.4938 27.9787H28.6113V28.8612H29.4938V27.9787Z" fill="#FFD8AE"/>
<path d="M29.4938 27.1062H28.6113V27.9787H29.4938V27.1062Z" fill="#FFD8AE"/>
<path d="M29.4938 26.2238H28.6113V27.1063H29.4938V26.2238Z" fill="#FFD8AE"/>
<path d="M29.4938 25.3512H28.6113V26.2237H29.4938V25.3512Z" fill="#668466"/>
<path d="M29.4938 24.4688H28.6113V25.3512H29.4938V24.4688Z" fill="#9DCF9D"/>
<path d="M29.4938 23.5963H28.6113V24.4688H29.4938V23.5963Z" fill="#8ABC8A"/>
<path d="M29.4938 22.7137H28.6113V23.5962H29.4938V22.7137Z" fill="#9FF5F7"/>
<path d="M29.4938 21.8325H28.6113V22.715H29.4938V21.8325Z" fill="#9FF5F7"/>
<path d="M29.4938 20.96H28.6113V21.8325H29.4938V20.96Z" fill="#9FF5F7"/>
<path d="M29.4938 20.0775H28.6113V20.96H29.4938V20.0775Z" fill="#73C6C6"/>
<path d="M29.4938 19.205H28.6113V20.0775H29.4938V19.205Z" fill="#73C6C6"/>
<path d="M29.4938 18.3225H28.6113V19.205H29.4938V18.3225Z" fill="#DBAB7B"/>
<path d="M29.4938 17.45H28.6113V18.3225H29.4938V17.45Z" fill="#DBAB7B"/>
<path d="M29.4938 16.5675H28.6113V17.45H29.4938V16.5675Z" fill="#969696"/>
<path d="M29.4938 15.6862H28.6113V16.5687H29.4938V15.6862Z" fill="#969696"/>
<path d="M29.4938 14.8138H28.6113V15.6863H29.4938V14.8138Z" fill="#969696"/>
<path d="M29.4938 13.9312H28.6113V14.8137H29.4938V13.9312Z" fill="black"/>
<path d="M29.4938 13.0587H28.6113V13.9312H29.4938V13.0587Z" fill="black"/>
<path d="M28.6112 39.3987H27.73V40.2712H28.6112V39.3987Z" fill="black"/>
<path d="M28.6112 38.5162H27.73V39.3987H28.6112V38.5162Z" fill="black"/>
<path d="M28.6112 37.6437H27.73V38.5162H28.6112V37.6437Z" fill="black"/>
<path d="M28.6112 36.7612H27.73V37.6437H28.6112V36.7612Z" fill="#4C3A1F"/>
<path d="M28.6112 35.88H27.73V36.7613H28.6112V35.88Z" fill="#4C3A1F"/>
<path d="M28.6112 35.0062H27.73V35.88H28.6112V35.0062Z" fill="#634D27"/>
<path d="M28.6112 34.1263H27.73V35.0075H28.6112V34.1263Z" fill="#634D27"/>
<path d="M28.6112 33.2525H27.73V34.125H28.6112V33.2525Z" fill="#634D27"/>
<path d="M28.6112 32.37H27.73V33.2525H28.6112V32.37Z" fill="#634D27"/>
<path d="M28.6112 31.4975H27.73V32.37H28.6112V31.4975Z" fill="#634D27"/>
<path d="M28.6112 30.615H27.73V31.4975H28.6112V30.615Z" fill="#634D27"/>
<path d="M28.6112 29.7337H27.73V30.615H28.6112V29.7337Z" fill="#4C3A1F"/>
<path d="M28.6112 28.86H27.73V29.7325H28.6112V28.86Z" fill="#8ABC8A"/>
<path d="M28.6112 27.9787H27.73V28.8612H28.6112V27.9787Z" fill="#FFD8AE"/>
<path d="M28.6112 27.1062H27.73V27.9787H28.6112V27.1062Z" fill="#FFD8AE"/>
<path d="M28.6112 26.2238H27.73V27.1063H28.6112V26.2238Z" fill="#FFD8AE"/>
<path d="M28.6112 25.3512H27.73V26.2237H28.6112V25.3512Z" fill="#9DCF9D"/>
<path d="M28.6112 24.4688H27.73V25.3512H28.6112V24.4688Z" fill="#9DCF9D"/>
<path d="M28.6112 23.5963H27.73V24.4688H28.6112V23.5963Z" fill="#9FF5F7"/>
<path d="M28.6112 22.7137H27.73V23.5962H28.6112V22.7137Z" fill="#9FF5F7"/>
<path d="M28.6112 21.8325H27.73V22.715H28.6112V21.8325Z" fill="#73C6C6"/>
<path d="M28.6112 20.96H27.73V21.8325H28.6112V20.96Z" fill="#9FF5F7"/>
<path d="M28.6112 20.0775H27.73V20.96H28.6112V20.0775Z" fill="#9FF5F7"/>
<path d="M28.6112 19.205H27.73V20.0775H28.6112V19.205Z" fill="#73C6C6"/>
<path d="M28.6112 18.3225H27.73V19.205H28.6112V18.3225Z" fill="#FFD8AE"/>
<path d="M28.6112 17.45H27.73V18.3225H28.6112V17.45Z" fill="#FFD8AE"/>
<path d="M28.6112 16.5675H27.73V17.45H28.6112V16.5675Z" fill="#FFD8AE"/>
<path d="M28.6112 15.6862H27.73V16.5687H28.6112V15.6862Z" fill="#AFAFAF"/>
<path d="M28.6112 14.8138H27.73V15.6863H28.6112V14.8138Z" fill="#AFAFAF"/>
<path d="M28.6112 13.9312H27.73V14.8137H28.6112V13.9312Z" fill="#969696"/>
<path d="M28.6112 13.0587H27.73V13.9312H28.6112V13.0587Z" fill="#969696"/>
<path d="M28.6112 12.1762H27.73V13.0587H28.6112V12.1762Z" fill="black"/>
<path d="M27.7287 36.7612H26.8562V37.6437H27.7287V36.7612Z" fill="black"/>
<path d="M27.7287 35.88H26.8562V36.7613H27.7287V35.88Z" fill="black"/>
<path d="M27.7287 35.0062H26.8562V35.88H27.7287V35.0062Z" fill="#634D27"/>
<path d="M27.7287 34.1263H26.8562V35.0075H27.7287V34.1263Z" fill="#634D27"/>
<path d="M27.7287 33.2525H26.8562V34.125H27.7287V33.2525Z" fill="#634D27"/>
<path d="M27.7287 32.37H26.8562V33.2525H27.7287V32.37Z" fill="#634D27"/>
<path d="M27.7287 31.4975H26.8562V32.37H27.7287V31.4975Z" fill="#634D27"/>
<path d="M27.7287 30.615H26.8562V31.4975H27.7287V30.615Z" fill="#634D27"/>
<path d="M27.7287 29.7337H26.8562V30.615H27.7287V29.7337Z" fill="#4C3A1F"/>
<path d="M27.7287 28.86H26.8562V29.7325H27.7287V28.86Z" fill="#8ABC8A"/>
<path d="M27.7287 27.9787H26.8562V28.8612H27.7287V27.9787Z" fill="#9DCF9D"/>
<path d="M27.7287 27.1062H26.8562V27.9787H27.7287V27.1062Z" fill="#9DCF9D"/>
<path d="M27.7287 26.2238H26.8562V27.1063H27.7287V26.2238Z" fill="#FFD8AE"/>
<path d="M27.7287 25.3512H26.8562V26.2237H27.7287V25.3512Z" fill="#9DCF9D"/>
<path d="M27.7287 24.4688H26.8562V25.3512H27.7287V24.4688Z" fill="#73C6C6"/>
<path d="M27.7287 23.5963H26.8562V24.4688H27.7287V23.5963Z" fill="#9FF5F7"/>
<path d="M27.7287 22.7137H26.8562V23.5962H27.7287V22.7137Z" fill="#9FF5F7"/>
<path d="M27.7287 21.8325H26.8562V22.715H27.7287V21.8325Z" fill="#9FF5F7"/>
<path d="M27.7287 20.96H26.8562V21.8325H27.7287V20.96Z" fill="#73C6C6"/>
<path d="M27.7287 20.0775H26.8562V20.96H27.7287V20.0775Z" fill="#73C6C6"/>
<path d="M27.7287 19.205H26.8562V20.0775H27.7287V19.205Z" fill="#FFD8AE"/>
<path d="M27.7287 18.3225H26.8562V19.205H27.7287V18.3225Z" fill="#FFD8AE"/>
<path d="M27.7287 17.45H26.8562V18.3225H27.7287V17.45Z" fill="black"/>
<path d="M27.7287 16.5675H26.8562V17.45H27.7287V16.5675Z" fill="#FFD8AE"/>
<path d="M27.7287 15.6862H26.8562V16.5687H27.7287V15.6862Z" fill="#AFAFAF"/>
<path d="M27.7287 14.8138H26.8562V15.6863H27.7287V14.8138Z" fill="#AFAFAF"/>
<path d="M27.7287 13.9312H26.8562V14.8137H27.7287V13.9312Z" fill="#AFAFAF"/>
<path d="M27.7287 13.0587H26.8562V13.9312H27.7287V13.0587Z" fill="#969696"/>
<path d="M27.7287 12.1762H26.8562V13.0587H27.7287V12.1762Z" fill="black"/>
<path d="M26.8561 35.88H25.9736V36.7613H26.8561V35.88Z" fill="black"/>
<path d="M26.8561 35.0062H25.9736V35.88H26.8561V35.0062Z" fill="black"/>
<path d="M26.8561 34.1263H25.9736V35.0075H26.8561V34.1263Z" fill="black"/>
<path d="M26.8561 33.2525H25.9736V34.125H26.8561V33.2525Z" fill="#634D27"/>
<path d="M26.8561 32.37H25.9736V33.2525H26.8561V32.37Z" fill="#634D27"/>
<path d="M26.8561 31.4975H25.9736V32.37H26.8561V31.4975Z" fill="#634D27"/>
<path d="M26.8561 30.615H25.9736V31.4975H26.8561V30.615Z" fill="#634D27"/>
<path d="M26.8561 29.7337H25.9736V30.615H26.8561V29.7337Z" fill="#4C3A1F"/>
<path d="M26.8561 28.86H25.9736V29.7325H26.8561V28.86Z" fill="#8ABC8A"/>
<path d="M26.8561 27.9787H25.9736V28.8612H26.8561V27.9787Z" fill="#9DCF9D"/>
<path d="M26.8561 27.1062H25.9736V27.9787H26.8561V27.1062Z" fill="#9DCF9D"/>
<path d="M26.8561 26.2238H25.9736V27.1063H26.8561V26.2238Z" fill="#9DCF9D"/>
<path d="M26.8561 25.3512H25.9736V26.2237H26.8561V25.3512Z" fill="#9DCF9D"/>
<path d="M26.8561 24.4688H25.9736V25.3512H26.8561V24.4688Z" fill="#8ABC8A"/>
<path d="M26.8561 23.5963H25.9736V24.4688H26.8561V23.5963Z" fill="#73C6C6"/>
<path d="M26.8561 22.7137H25.9736V23.5962H26.8561V22.7137Z" fill="#9FF5F7"/>
<path d="M26.8561 21.8325H25.9736V22.715H26.8561V21.8325Z" fill="#9FF5F7"/>
<path d="M26.8561 20.96H25.9736V21.8325H26.8561V20.96Z" fill="#9FF5F7"/>
<path d="M26.8561 20.0775H25.9736V20.96H26.8561V20.0775Z" fill="#73C6C6"/>
<path d="M26.8561 19.205H25.9736V20.0775H26.8561V19.205Z" fill="#FFD8AE"/>
<path d="M26.8561 18.3225H25.9736V19.205H26.8561V18.3225Z" fill="#FFD8AE"/>
<path d="M26.8561 17.45H25.9736V18.3225H26.8561V17.45Z" fill="#FFD8AE"/>
<path d="M26.8561 16.5675H25.9736V17.45H26.8561V16.5675Z" fill="#FFD8AE"/>
<path d="M26.8561 15.6862H25.9736V16.5687H26.8561V15.6862Z" fill="#AFAFAF"/>
<path d="M26.8561 14.8138H25.9736V15.6863H26.8561V14.8138Z" fill="#AFAFAF"/>
<path d="M26.8561 13.9312H25.9736V14.8137H26.8561V13.9312Z" fill="#AFAFAF"/>
<path d="M26.8561 13.0587H25.9736V13.9312H26.8561V13.0587Z" fill="#969696"/>
<path d="M26.8561 12.1762H25.9736V13.0587H26.8561V12.1762Z" fill="black"/>
<path d="M25.9738 39.3987H25.1013V40.2712H25.9738V39.3987Z" fill="black"/>
<path d="M25.9738 38.5162H25.1013V39.3987H25.9738V38.5162Z" fill="black"/>
<path d="M25.9738 37.6437H25.1013V38.5162H25.9738V37.6437Z" fill="black"/>
<path d="M25.9738 36.7612H25.1013V37.6437H25.9738V36.7612Z" fill="black"/>
<path d="M25.9738 35.88H25.1013V36.7613H25.9738V35.88Z" fill="#4C3A1F"/>
<path d="M25.9738 35.0062H25.1013V35.88H25.9738V35.0062Z" fill="#634D27"/>
<path d="M25.9738 34.1263H25.1013V35.0075H25.9738V34.1263Z" fill="#634D27"/>
<path d="M25.9738 33.2525H25.1013V34.125H25.9738V33.2525Z" fill="#634D27"/>
<path d="M25.9738 32.37H25.1013V33.2525H25.9738V32.37Z" fill="#634D27"/>
<path d="M25.9738 31.4975H25.1013V32.37H25.9738V31.4975Z" fill="#634D27"/>
<path d="M25.9738 30.615H25.1013V31.4975H25.9738V30.615Z" fill="#4C3A1F"/>
<path d="M25.9738 29.7337H25.1013V30.615H25.9738V29.7337Z" fill="#8ABC8A"/>
<path d="M25.9738 28.86H25.1013V29.7325H25.9738V28.86Z" fill="#8ABC8A"/>
<path d="M25.9738 27.9787H25.1013V28.8612H25.9738V27.9787Z" fill="#9DCF9D"/>
<path d="M25.9738 27.1062H25.1013V27.9787H25.9738V27.1062Z" fill="#9DCF9D"/>
<path d="M25.9738 26.2238H25.1013V27.1063H25.9738V26.2238Z" fill="#9DCF9D"/>
<path d="M25.9738 25.3512H25.1013V26.2237H25.9738V25.3512Z" fill="#9DCF9D"/>
<path d="M25.9738 24.4688H25.1013V25.3512H25.9738V24.4688Z" fill="#8ABC8A"/>
<path d="M25.9738 23.5963H25.1013V24.4688H25.9738V23.5963Z" fill="#8ABC8A"/>
<path d="M25.9738 22.7137H25.1013V23.5962H25.9738V22.7137Z" fill="#73C6C6"/>
<path d="M25.9738 21.8325H25.1013V22.715H25.9738V21.8325Z" fill="#9FF5F7"/>
<path d="M25.9738 20.96H25.1013V21.8325H25.9738V20.96Z" fill="#9FF5F7"/>
<path d="M25.9738 20.0775H25.1013V20.96H25.9738V20.0775Z" fill="#73C6C6"/>
<path d="M25.9738 19.205H25.1013V20.0775H25.9738V19.205Z" fill="#FFD8AE"/>
<path d="M25.9738 18.3225H25.1013V19.205H25.9738V18.3225Z" fill="#FFD8AE"/>
<path d="M25.9738 17.45H25.1013V18.3225H25.9738V17.45Z" fill="#FFD8AE"/>
<path d="M25.9738 16.5675H25.1013V17.45H25.9738V16.5675Z" fill="#FFD8AE"/>
<path d="M25.9738 15.6862H25.1013V16.5687H25.9738V15.6862Z" fill="#AFAFAF"/>
<path d="M25.9738 14.8138H25.1013V15.6863H25.9738V14.8138Z" fill="#AFAFAF"/>
<path d="M25.9738 13.9312H25.1013V14.8137H25.9738V13.9312Z" fill="#AFAFAF"/>
<path d="M25.9738 13.0587H25.1013V13.9312H25.9738V13.0587Z" fill="#AFAFAF"/>
<path d="M25.9738 12.1762H25.1013V13.0587H25.9738V12.1762Z" fill="#969696"/>
<path d="M25.9738 11.3037H25.1013V12.1762H25.9738V11.3037Z" fill="black"/>
<path d="M25.1012 39.3987H24.2188V40.2712H25.1012V39.3987Z" fill="black"/>
<path d="M25.1012 38.5162H24.2188V39.3987H25.1012V38.5162Z" fill="#724107"/>
<path d="M25.1012 37.6437H24.2188V38.5162H25.1012V37.6437Z" fill="#4C3A1F"/>
<path d="M25.1012 36.7612H24.2188V37.6437H25.1012V36.7612Z" fill="#4C3A1F"/>
<path d="M25.1012 35.88H24.2188V36.7613H25.1012V35.88Z" fill="#4C3A1F"/>
<path d="M25.1012 35.0062H24.2188V35.88H25.1012V35.0062Z" fill="#4C3A1F"/>
<path d="M25.1012 34.1263H24.2188V35.0075H25.1012V34.1263Z" fill="#634D27"/>
<path d="M25.1012 33.2525H24.2188V34.125H25.1012V33.2525Z" fill="#634D27"/>
<path d="M25.1012 32.37H24.2188V33.2525H25.1012V32.37Z" fill="#634D27"/>
<path d="M25.1012 31.4975H24.2188V32.37H25.1012V31.4975Z" fill="#634D27"/>
<path d="M25.1012 30.615H24.2188V31.4975H25.1012V30.615Z" fill="#4C3A1F"/>
<path d="M25.1012 29.7337H24.2188V30.615H25.1012V29.7337Z" fill="#8ABC8A"/>
<path d="M25.1012 28.86H24.2188V29.7325H25.1012V28.86Z" fill="#9DCF9D"/>
<path d="M25.1012 27.9787H24.2188V28.8612H25.1012V27.9787Z" fill="#9FF5F7"/>
<path d="M25.1012 27.1062H24.2188V27.9787H25.1012V27.1062Z" fill="#9DCF9D"/>
<path d="M25.1012 26.2238H24.2188V27.1063H25.1012V26.2238Z" fill="#9DCF9D"/>
<path d="M25.1012 25.3512H24.2188V26.2237H25.1012V25.3512Z" fill="#9FF5F7"/>
<path d="M25.1012 24.4688H24.2188V25.3512H25.1012V24.4688Z" fill="#9DCF9D"/>
<path d="M25.1012 23.5963H24.2188V24.4688H25.1012V23.5963Z" fill="#9DCF9D"/>
<path d="M25.1012 22.7137H24.2188V23.5962H25.1012V22.7137Z" fill="#73C6C6"/>
<path d="M25.1012 21.8325H24.2188V22.715H25.1012V21.8325Z" fill="#9FF5F7"/>
<path d="M25.1012 20.96H24.2188V21.8325H25.1012V20.96Z" fill="#9FF5F7"/>
<path d="M25.1012 20.0775H24.2188V20.96H25.1012V20.0775Z" fill="#73C6C6"/>
<path d="M25.1012 19.205H24.2188V20.0775H25.1012V19.205Z" fill="#FFD8AE"/>
<path d="M25.1012 18.3225H24.2188V19.205H25.1012V18.3225Z" fill="#FFD8AE"/>
<path d="M25.1012 17.45H24.2188V18.3225H25.1012V17.45Z" fill="black"/>
<path d="M25.1012 16.5675H24.2188V17.45H25.1012V16.5675Z" fill="#FFD8AE"/>
<path d="M25.1012 15.6862H24.2188V16.5687H25.1012V15.6862Z" fill="#AFAFAF"/>
<path d="M25.1012 14.8138H24.2188V15.6863H25.1012V14.8138Z" fill="#AFAFAF"/>
<path d="M25.1012 13.9312H24.2188V14.8137H25.1012V13.9312Z" fill="#AFAFAF"/>
<path d="M25.1012 13.0587H24.2188V13.9312H25.1012V13.0587Z" fill="#AFAFAF"/>
<path d="M25.1012 12.1762H24.2188V13.0587H25.1012V12.1762Z" fill="#969696"/>
<path d="M25.1012 11.3037H24.2188V12.1762H25.1012V11.3037Z" fill="black"/>
<path d="M24.2187 39.3987H23.3462V40.2712H24.2187V39.3987Z" fill="black"/>
<path d="M24.2187 38.5162H23.3462V39.3987H24.2187V38.5162Z" fill="#724107"/>
<path d="M24.2187 37.6437H23.3462V38.5162H24.2187V37.6437Z" fill="#4C3A1F"/>
<path d="M24.2187 36.7612H23.3462V37.6437H24.2187V36.7612Z" fill="#4C3A1F"/>
<path d="M24.2187 35.88H23.3462V36.7613H24.2187V35.88Z" fill="#4C3A1F"/>
<path d="M24.2187 35.0062H23.3462V35.88H24.2187V35.0062Z" fill="#4C3A1F"/>
<path d="M24.2187 34.1263H23.3462V35.0075H24.2187V34.1263Z" fill="#4C3A1F"/>
<path d="M24.2187 33.2525H23.3462V34.125H24.2187V33.2525Z" fill="#634D27"/>
<path d="M24.2187 32.37H23.3462V33.2525H24.2187V32.37Z" fill="#634D27"/>
<path d="M24.2187 31.4975H23.3462V32.37H24.2187V31.4975Z" fill="#634D27"/>
<path d="M24.2187 30.615H23.3462V31.4975H24.2187V30.615Z" fill="#4C3A1F"/>
<path d="M24.2187 29.7337H23.3462V30.615H24.2187V29.7337Z" fill="#668466"/>
<path d="M24.2187 28.86H23.3462V29.7325H24.2187V28.86Z" fill="#668466"/>
<path d="M24.2187 27.9787H23.3462V28.8612H24.2187V27.9787Z" fill="#668466"/>
<path d="M24.2187 27.1062H23.3462V27.9787H24.2187V27.1062Z" fill="#668466"/>
<path d="M24.2187 26.2238H23.3462V27.1063H24.2187V26.2238Z" fill="#668466"/>
<path d="M24.2187 25.3512H23.3462V26.2237H24.2187V25.3512Z" fill="#668466"/>
<path d="M24.2187 24.4688H23.3462V25.3512H24.2187V24.4688Z" fill="#668466"/>
<path d="M24.2187 23.5963H23.3462V24.4688H24.2187V23.5963Z" fill="#668466"/>
<path d="M24.2187 22.7137H23.3462V23.5962H24.2187V22.7137Z" fill="#73C6C6"/>
<path d="M24.2187 21.8325H23.3462V22.715H24.2187V21.8325Z" fill="#9FF5F7"/>
<path d="M24.2187 20.96H23.3462V21.8325H24.2187V20.96Z" fill="#73C6C6"/>
<path d="M24.2187 20.0775H23.3462V20.96H24.2187V20.0775Z" fill="#73C6C6"/>
<path d="M24.2187 19.205H23.3462V20.0775H24.2187V19.205Z" fill="#FFD8AE"/>
<path d="M24.2187 18.3225H23.3462V19.205H24.2187V18.3225Z" fill="#FFD8AE"/>
<path d="M24.2187 17.45H23.3462V18.3225H24.2187V17.45Z" fill="#FFD8AE"/>
<path d="M24.2187 16.5675H23.3462V17.45H24.2187V16.5675Z" fill="#AFAFAF"/>
<path d="M24.2187 15.6862H23.3462V16.5687H24.2187V15.6862Z" fill="#AFAFAF"/>
<path d="M24.2187 14.8138H23.3462V15.6863H24.2187V14.8138Z" fill="#AFAFAF"/>
<path d="M24.2187 13.9312H23.3462V14.8137H24.2187V13.9312Z" fill="#AFAFAF"/>
<path d="M24.2187 13.0587H23.3462V13.9312H24.2187V13.0587Z" fill="#AFAFAF"/>
<path d="M24.2187 12.1762H23.3462V13.0587H24.2187V12.1762Z" fill="#AFAFAF"/>
<path d="M24.2187 11.3037H23.3462V12.1762H24.2187V11.3037Z" fill="black"/>
<path d="M23.3473 39.3987H22.4648V40.2712H23.3473V39.3987Z" fill="black"/>
<path d="M23.3473 38.5162H22.4648V39.3987H23.3473V38.5162Z" fill="#724107"/>
<path d="M23.3473 37.6437H22.4648V38.5162H23.3473V37.6437Z" fill="#724107"/>
<path d="M23.3473 36.7612H22.4648V37.6437H23.3473V36.7612Z" fill="black"/>
<path d="M23.3473 35.88H22.4648V36.7613H23.3473V35.88Z" fill="black"/>
<path d="M23.3473 35.0062H22.4648V35.88H23.3473V35.0062Z" fill="black"/>
<path d="M23.3473 34.1263H22.4648V35.0075H23.3473V34.1263Z" fill="#4C3A1F"/>
<path d="M23.3473 33.2525H22.4648V34.125H23.3473V33.2525Z" fill="#4C3A1F"/>
<path d="M23.3473 32.37H22.4648V33.2525H23.3473V32.37Z" fill="#4C3A1F"/>
<path d="M23.3473 31.4975H22.4648V32.37H23.3473V31.4975Z" fill="#4C3A1F"/>
<path d="M23.3473 30.615H22.4648V31.4975H23.3473V30.615Z" fill="#4C3A1F"/>
<path d="M23.3473 29.7337H22.4648V30.615H23.3473V29.7337Z" fill="#8ABC8A"/>
<path d="M23.3473 28.86H22.4648V29.7325H23.3473V28.86Z" fill="#9DCF9D"/>
<path d="M23.3473 27.9787H22.4648V28.8612H23.3473V27.9787Z" fill="#9DCF9D"/>
<path d="M23.3473 27.1062H22.4648V27.9787H23.3473V27.1062Z" fill="#9DCF9D"/>
<path d="M23.3473 26.2238H22.4648V27.1063H23.3473V26.2238Z" fill="#9DCF9D"/>
<path d="M23.3473 25.3512H22.4648V26.2237H23.3473V25.3512Z" fill="#9DCF9D"/>
<path d="M23.3473 24.4688H22.4648V25.3512H23.3473V24.4688Z" fill="#9DCF9D"/>
<path d="M23.3473 23.5963H22.4648V24.4688H23.3473V23.5963Z" fill="#73C6C6"/>
<path d="M23.3473 22.7137H22.4648V23.5962H23.3473V22.7137Z" fill="#9FF5F7"/>
<path d="M23.3473 21.8325H22.4648V22.715H23.3473V21.8325Z" fill="#9FF5F7"/>
<path d="M23.3473 20.96H22.4648V21.8325H23.3473V20.96Z" fill="#73C6C6"/>
<path d="M23.3473 20.0775H22.4648V20.96H23.3473V20.0775Z" fill="#73C6C6"/>
<path d="M23.3473 19.205H22.4648V20.0775H23.3473V19.205Z" fill="#969696"/>
<path d="M23.3473 18.3225H22.4648V19.205H23.3473V18.3225Z" fill="#FFD8AE"/>
<path d="M23.3473 17.45H22.4648V18.3225H23.3473V17.45Z" fill="#AFAFAF"/>
<path d="M23.3473 16.5675H22.4648V17.45H23.3473V16.5675Z" fill="#AFAFAF"/>
<path d="M23.3473 15.6862H22.4648V16.5687H23.3473V15.6862Z" fill="#AFAFAF"/>
<path d="M23.3473 14.8138H22.4648V15.6863H23.3473V14.8138Z" fill="#AFAFAF"/>
<path d="M23.3473 13.9312H22.4648V14.8137H23.3473V13.9312Z" fill="#AFAFAF"/>
<path d="M23.3473 13.0587H22.4648V13.9312H23.3473V13.0587Z" fill="#AFAFAF"/>
<path d="M23.3473 12.1762H22.4648V13.0587H23.3473V12.1762Z" fill="black"/>
<path d="M22.4638 39.3987H21.5913V40.2712H22.4638V39.3987Z" fill="black"/>
<path d="M22.4638 38.5162H21.5913V39.3987H22.4638V38.5162Z" fill="#724107"/>
<path d="M22.4638 37.6437H21.5913V38.5162H22.4638V37.6437Z" fill="black"/>
<path d="M22.4638 34.1263H21.5913V35.0075H22.4638V34.1263Z" fill="black"/>
<path d="M22.4638 33.2525H21.5913V34.125H22.4638V33.2525Z" fill="black"/>
<path d="M22.4638 32.37H21.5913V33.2525H22.4638V32.37Z" fill="black"/>
<path d="M22.4638 31.4975H21.5913V32.37H22.4638V31.4975Z" fill="black"/>
<path d="M22.4638 30.615H21.5913V31.4975H22.4638V30.615Z" fill="black"/>
<path d="M22.4638 29.7337H21.5913V30.615H22.4638V29.7337Z" fill="black"/>
<path d="M22.4638 28.86H21.5913V29.7325H22.4638V28.86Z" fill="#9DCF9D"/>
<path d="M22.4638 27.9787H21.5913V28.8612H22.4638V27.9787Z" fill="#9DCF9D"/>
<path d="M22.4638 27.1062H21.5913V27.9787H22.4638V27.1062Z" fill="#9DCF9D"/>
<path d="M22.4638 26.2238H21.5913V27.1063H22.4638V26.2238Z" fill="#9DCF9D"/>
<path d="M22.4638 25.3512H21.5913V26.2237H22.4638V25.3512Z" fill="#9DCF9D"/>
<path d="M22.4638 24.4688H21.5913V25.3512H22.4638V24.4688Z" fill="#9DCF9D"/>
<path d="M22.4638 23.5963H21.5913V24.4688H22.4638V23.5963Z" fill="#73C6C6"/>
<path d="M22.4638 22.7137H21.5913V23.5962H22.4638V22.7137Z" fill="#73C6C6"/>
<path d="M22.4638 21.8325H21.5913V22.715H22.4638V21.8325Z" fill="#73C6C6"/>
<path d="M22.4638 20.96H21.5913V21.8325H22.4638V20.96Z" fill="black"/>
<path d="M22.4638 20.0775H21.5913V20.96H22.4638V20.0775Z" fill="#969696"/>
<path d="M22.4638 19.205H21.5913V20.0775H22.4638V19.205Z" fill="#969696"/>
<path d="M22.4638 18.3225H21.5913V19.205H22.4638V18.3225Z" fill="#969696"/>
<path d="M22.4638 17.45H21.5913V18.3225H22.4638V17.45Z" fill="#969696"/>
<path d="M22.4638 16.5675H21.5913V17.45H22.4638V16.5675Z" fill="black"/>
<path d="M22.4638 15.6862H21.5913V16.5687H22.4638V15.6862Z" fill="#AFAFAF"/>
<path d="M22.4638 14.8138H21.5913V15.6863H22.4638V14.8138Z" fill="#AFAFAF"/>
<path d="M22.4638 13.9312H21.5913V14.8137H22.4638V13.9312Z" fill="#AFAFAF"/>
<path d="M22.4638 13.0587H21.5913V13.9312H22.4638V13.0587Z" fill="#969696"/>
<path d="M22.4638 12.1762H21.5913V13.0587H22.4638V12.1762Z" fill="black"/>
<path d="M21.5925 39.3987H20.71V40.2712H21.5925V39.3987Z" fill="black"/>
<path d="M21.5925 38.5162H20.71V39.3987H21.5925V38.5162Z" fill="black"/>
<path d="M21.5925 28.86H20.71V29.7325H21.5925V28.86Z" fill="black"/>
<path d="M21.5925 27.9787H20.71V28.8612H21.5925V27.9787Z" fill="#9DCF9D"/>
<path d="M21.5925 27.1062H20.71V27.9787H21.5925V27.1062Z" fill="#668466"/>
<path d="M21.5925 26.2238H20.71V27.1063H21.5925V26.2238Z" fill="#4F704F"/>
<path d="M21.5925 25.3512H20.71V26.2237H21.5925V25.3512Z" fill="#4F704F"/>
<path d="M21.5925 24.4688H20.71V25.3512H21.5925V24.4688Z" fill="black"/>
<path d="M21.5925 23.5963H20.71V24.4688H21.5925V23.5963Z" fill="black"/>
<path d="M21.5925 22.7137H20.71V23.5962H21.5925V22.7137Z" fill="black"/>
<path d="M21.5925 21.8325H20.71V22.715H21.5925V21.8325Z" fill="black"/>
<path d="M21.5925 20.0775H20.71V20.96H21.5925V20.0775Z" fill="black"/>
<path d="M21.5925 19.205H20.71V20.0775H21.5925V19.205Z" fill="#969696"/>
<path d="M21.5925 18.3225H20.71V19.205H21.5925V18.3225Z" fill="black"/>
<path d="M21.5925 17.45H20.71V18.3225H21.5925V17.45Z" fill="black"/>
<path d="M21.5925 14.8138H20.71V15.6863H21.5925V14.8138Z" fill="black"/>
<path d="M21.5925 13.9312H20.71V14.8137H21.5925V13.9312Z" fill="#969696"/>
<path d="M21.5925 13.0587H20.71V13.9312H21.5925V13.0587Z" fill="black"/>
<path d="M20.7099 28.86H19.8274V29.7325H20.7099V28.86Z" fill="black"/>
<path d="M20.7099 27.9787H19.8274V28.8612H20.7099V27.9787Z" fill="#668466"/>
<path d="M20.7099 27.1062H19.8274V27.9787H20.7099V27.1062Z" fill="#668466"/>
<path d="M20.7099 26.2238H19.8274V27.1063H20.7099V26.2238Z" fill="#668466"/>
<path d="M20.7099 25.3512H19.8274V26.2237H20.7099V25.3512Z" fill="#4F704F"/>
<path d="M20.7099 24.4688H19.8274V25.3512H20.7099V24.4688Z" fill="black"/>
<path d="M20.7099 20.0775H19.8274V20.96H20.7099V20.0775Z" fill="black"/>
<path d="M20.7099 19.205H19.8274V20.0775H20.7099V19.205Z" fill="black"/>
<path d="M20.7099 18.3225H19.8274V19.205H20.7099V18.3225Z" fill="black"/>
<path d="M20.7099 15.6862H19.8274V16.5687H20.7099V15.6862Z" fill="black"/>
<path d="M20.7099 14.8138H19.8274V15.6863H20.7099V14.8138Z" fill="#969696"/>
<path d="M20.7099 13.9312H19.8274V14.8137H20.7099V13.9312Z" fill="black"/>
<path d="M19.8276 29.7337H18.9551V30.615H19.8276V29.7337Z" fill="black"/>
<path d="M19.8276 28.86H18.9551V29.7325H19.8276V28.86Z" fill="#4F704F"/>
<path d="M19.8276 27.9787H18.9551V28.8612H19.8276V27.9787Z" fill="#668466"/>
<path d="M19.8276 27.1062H18.9551V27.9787H19.8276V27.1062Z" fill="#4F704F"/>
<path d="M19.8276 26.2238H18.9551V27.1063H19.8276V26.2238Z" fill="#668466"/>
<path d="M19.8276 25.3512H18.9551V26.2237H19.8276V25.3512Z" fill="#668466"/>
<path d="M19.8276 24.4688H18.9551V25.3512H19.8276V24.4688Z" fill="black"/>
<path d="M19.8276 23.5963H18.9551V24.4688H19.8276V23.5963Z" fill="black"/>
<path d="M19.8276 14.8138H18.9551V15.6863H19.8276V14.8138Z" fill="black"/>
<path d="M18.955 29.7337H18.0725V30.615H18.955V29.7337Z" fill="black"/>
<path d="M18.955 28.86H18.0725V29.7325H18.955V28.86Z" fill="#4F704F"/>
<path d="M18.955 27.9787H18.0725V28.8612H18.955V27.9787Z" fill="#4F704F"/>
<path d="M18.955 27.1062H18.0725V27.9787H18.955V27.1062Z" fill="#668466"/>
<path d="M18.955 26.2238H18.0725V27.1063H18.955V26.2238Z" fill="#668466"/>
<path d="M18.955 25.3512H18.0725V26.2237H18.955V25.3512Z" fill="black"/>
<path d="M18.0725 29.7337H17.2V30.615H18.0725V29.7337Z" fill="black"/>
<path d="M18.0725 28.86H17.2V29.7325H18.0725V28.86Z" fill="#4F704F"/>
<path d="M18.0725 27.9787H17.2V28.8612H18.0725V27.9787Z" fill="#FFD8AE"/>
<path d="M18.0725 27.1062H17.2V27.9787H18.0725V27.1062Z" fill="#FFD8AE"/>
<path d="M18.0725 26.2238H17.2V27.1063H18.0725V26.2238Z" fill="black"/>
<path d="M17.2011 29.7337H16.3186V30.615H17.2011V29.7337Z" fill="black"/>
<path d="M17.2011 28.86H16.3186V29.7325H17.2011V28.86Z" fill="#4F704F"/>
<path d="M17.2011 27.9787H16.3186V28.8612H17.2011V27.9787Z" fill="#FFD8AE"/>
<path d="M17.2011 27.1062H16.3186V27.9787H17.2011V27.1062Z" fill="black"/>
<path d="M16.3176 28.86H15.4451V29.7325H16.3176V28.86Z" fill="black"/>
<path d="M16.3176 27.9787H15.4451V28.8612H16.3176V27.9787Z" fill="#FFD8AE"/>
<path d="M16.3176 27.1062H15.4451V27.9787H16.3176V27.1062Z" fill="black"/>
<path d="M15.4462 28.86H14.5637V29.7325H15.4462V28.86Z" fill="black"/>
<path d="M15.4462 27.9787H14.5637V28.8612H15.4462V27.9787Z" fill="#FFD8AE"/>
<path d="M15.4462 27.1062H14.5637V27.9787H15.4462V27.1062Z" fill="black"/>
<path d="M14.5637 27.9787H13.6812V28.8612H14.5637V27.9787Z" fill="black"/>
<path d="M14.5637 27.1062H13.6812V27.9787H14.5637V27.1062Z" fill="black"/>
<path d="M13.6811 27.1062H12.8086V27.9787H13.6811V27.1062Z" fill="black"/>
<path d="M12.8088 27.1062H11.9263V27.9787H12.8088V27.1062Z" fill="black"/>
<path d="M11.9262 27.1062H11.0537V27.9787H11.9262V27.1062Z" fill="black"/>
<path d="M31.1036 23.7762H30.6624V24.2175H31.1036V23.7762Z" fill="#594F4F"/>
<path d="M30.6624 24.2175H30.2124V24.6675H30.6624V24.2175Z" fill="#594F4F"/>
<path d="M30.6624 23.7762H30.2124V24.2175H30.6624V23.7762Z" fill="black"/>
<path d="M30.6624 23.335H30.2124V23.7762H30.6624V23.335Z" fill="#594F4F"/>
<path d="M30.2125 24.6675H29.7712V25.1087H30.2125V24.6675Z" fill="#594F4F"/>
<path d="M30.2125 24.2175H29.7712V24.6675H30.2125V24.2175Z" fill="black"/>
<path d="M30.2125 23.7762H29.7712V24.2175H30.2125V23.7762Z" fill="#594F4F"/>
<path d="M29.7713 25.1075H29.3313V25.5575H29.7713V25.1075Z" fill="#594F4F"/>
<path d="M29.7713 24.6675H29.3313V25.1087H29.7713V24.6675Z" fill="black"/>
<path d="M29.7713 24.2175H29.3313V24.6675H29.7713V24.2175Z" fill="#594F4F"/>
<path d="M29.3311 25.1075H28.8811V25.5575H29.3311V25.1075Z" fill="black"/>
<path d="M29.3311 24.6675H28.8811V25.1087H29.3311V24.6675Z" fill="#594F4F"/>
<path d="M28.8812 25.5575H28.4399V25.9987H28.8812V25.5575Z" fill="black"/>
<path d="M28.44 25.9987H27.99V26.44H28.44V25.9987Z" fill="black"/>
<path d="M27.5487 27.3312H27.1074V27.7725H27.5487V27.3312Z" fill="black"/>
<path d="M27.1075 27.7712H26.6575V28.2212H27.1075V27.7712Z" fill="black"/>
<path d="M19.9901 23.335H19.5488V23.7762H19.9901V23.335Z" fill="black"/>
<path d="M19.5487 25.1075H19.1074V25.5575H19.5487V25.1075Z" fill="black"/>
<path d="M19.5487 23.335H19.1074V23.7762H19.5487V23.335Z" fill="black"/>
<path d="M19.1075 25.1075H18.6575V25.5575H19.1075V25.1075Z" fill="black"/>
<path d="M19.1075 24.6675H18.6575V25.1087H19.1075V24.6675Z" fill="#DDCA6C"/>
<path d="M19.1075 24.2175H18.6575V24.6675H19.1075V24.2175Z" fill="#DDCA6C"/>
<path d="M19.1075 23.7762H18.6575V24.2175H19.1075V23.7762Z" fill="#DDCA6C"/>
<path d="M19.1075 23.335H18.6575V23.7762H19.1075V23.335Z" fill="black"/>
<path d="M18.6588 25.9987H18.2175V26.44H18.6588V25.9987Z" fill="black"/>
<path d="M18.6588 25.5575H18.2175V25.9987H18.6588V25.5575Z" fill="#DDCA6C"/>
<path d="M18.6588 25.1075H18.2175V25.5575H18.6588V25.1075Z" fill="#DDCA6C"/>
<path d="M18.6588 24.6675H18.2175V25.1087H18.6588V24.6675Z" fill="#FCE76B"/>
<path d="M18.6588 24.2175H18.2175V24.6675H18.6588V24.2175Z" fill="#FCE76B"/>
<path d="M18.6588 23.7762H18.2175V24.2175H18.6588V23.7762Z" fill="#DDCA6C"/>
<path d="M18.6588 23.335H18.2175V23.7762H18.6588V23.335Z" fill="black"/>
<path d="M18.2174 25.9987H17.7761V26.44H18.2174V25.9987Z" fill="black"/>
<path d="M18.2174 25.5575H17.7761V25.9987H18.2174V25.5575Z" fill="#DDCA6C"/>
<path d="M18.2174 25.1075H17.7761V25.5575H18.2174V25.1075Z" fill="#FCE76B"/>
<path d="M18.2174 24.6675H17.7761V25.1087H18.2174V24.6675Z" fill="#FCE76B"/>
<path d="M18.2174 24.2175H17.7761V24.6675H18.2174V24.2175Z" fill="#FCE76B"/>
<path d="M18.2174 23.7762H17.7761V24.2175H18.2174V23.7762Z" fill="#DDCA6C"/>
<path d="M18.2174 23.335H17.7761V23.7762H18.2174V23.335Z" fill="black"/>
<path d="M17.7762 26.89H17.3262V27.3312H17.7762V26.89Z" fill="black"/>
<path d="M17.7762 26.44H17.3262V26.89H17.7762V26.44Z" fill="#DDCA6C"/>
<path d="M17.7762 25.9987H17.3262V26.44H17.7762V25.9987Z" fill="#DDCA6C"/>
<path d="M17.7762 25.5575H17.3262V25.9987H17.7762V25.5575Z" fill="#FCE76B"/>
<path d="M17.7762 25.1075H17.3262V25.5575H17.7762V25.1075Z" fill="#FCE76B"/>
<path d="M17.7762 24.6675H17.3262V25.1087H17.7762V24.6675Z" fill="#FCE76B"/>
<path d="M17.7762 24.2175H17.3262V24.6675H17.7762V24.2175Z" fill="#FCE76B"/>
<path d="M17.7762 23.7762H17.3262V24.2175H17.7762V23.7762Z" fill="#DDCA6C"/>
<path d="M17.7762 23.335H17.3262V23.7762H17.7762V23.335Z" fill="black"/>
<path d="M17.3263 26.89H16.885V27.3312H17.3263V26.89Z" fill="black"/>
<path d="M17.3263 26.44H16.885V26.89H17.3263V26.44Z" fill="#DDCA6C"/>
<path d="M17.3263 25.9987H16.885V26.44H17.3263V25.9987Z" fill="#FCE76B"/>
<path d="M17.3263 25.5575H16.885V25.9987H17.3263V25.5575Z" fill="#FCE76B"/>
<path d="M17.3263 25.1075H16.885V25.5575H17.3263V25.1075Z" fill="#FCE76B"/>
<path d="M17.3263 24.6675H16.885V25.1087H17.3263V24.6675Z" fill="#FCE76B"/>
<path d="M17.3263 24.2175H16.885V24.6675H17.3263V24.2175Z" fill="#FCE76B"/>
<path d="M17.3263 23.7762H16.885V24.2175H17.3263V23.7762Z" fill="#DDCA6C"/>
<path d="M17.3263 23.335H16.885V23.7762H17.3263V23.335Z" fill="black"/>
<path d="M16.8851 26.89H16.4351V27.3312H16.8851V26.89Z" fill="#DDCA6C"/>
<path d="M16.8851 26.44H16.4351V26.89H16.8851V26.44Z" fill="#FCE76B"/>
<path d="M16.8851 25.9987H16.4351V26.44H16.8851V25.9987Z" fill="#FCE76B"/>
<path d="M16.8851 25.5575H16.4351V25.9987H16.8851V25.5575Z" fill="#E80F42"/>
<path d="M16.8851 25.1075H16.4351V25.5575H16.8851V25.1075Z" fill="#FCE76B"/>
<path d="M16.8851 24.6675H16.4351V25.1087H16.8851V24.6675Z" fill="#FCE76B"/>
<path d="M16.8851 24.2175H16.4351V24.6675H16.8851V24.2175Z" fill="#FCE76B"/>
<path d="M16.8851 23.7762H16.4351V24.2175H16.8851V23.7762Z" fill="#DDCA6C"/>
<path d="M16.8851 23.335H16.4351V23.7762H16.8851V23.335Z" fill="black"/>
<path d="M16.4349 26.89H15.9937V27.3312H16.4349V26.89Z" fill="#DDCA6C"/>
<path d="M16.4349 26.44H15.9937V26.89H16.4349V26.44Z" fill="#FCE76B"/>
<path d="M16.4349 25.9987H15.9937V26.44H16.4349V25.9987Z" fill="#E80F42"/>
<path d="M16.4349 25.5575H15.9937V25.9987H16.4349V25.5575Z" fill="#E80F42"/>
<path d="M16.4349 25.1075H15.9937V25.5575H16.4349V25.1075Z" fill="#E80F42"/>
<path d="M16.4349 24.6675H15.9937V25.1087H16.4349V24.6675Z" fill="#FCE76B"/>
<path d="M16.4349 24.2175H15.9937V24.6675H16.4349V24.2175Z" fill="#FCE76B"/>
<path d="M16.4349 23.7762H15.9937V24.2175H16.4349V23.7762Z" fill="#DDCA6C"/>
<path d="M16.4349 23.335H15.9937V23.7762H16.4349V23.335Z" fill="black"/>
<path d="M15.995 26.89H15.5537V27.3312H15.995V26.89Z" fill="#DDCA6C"/>
<path d="M15.995 26.44H15.5537V26.89H15.995V26.44Z" fill="#FCE76B"/>
<path d="M15.995 25.9987H15.5537V26.44H15.995V25.9987Z" fill="#E80F42"/>
<path d="M15.995 25.5575H15.5537V25.9987H15.995V25.5575Z" fill="#E80F42"/>
<path d="M15.995 25.1075H15.5537V25.5575H15.995V25.1075Z" fill="#E80F42"/>
<path d="M15.995 24.6675H15.5537V25.1087H15.995V24.6675Z" fill="#FCE76B"/>
<path d="M15.995 24.2175H15.5537V24.6675H15.995V24.2175Z" fill="#FCE76B"/>
<path d="M15.995 23.7762H15.5537V24.2175H15.995V23.7762Z" fill="#DDCA6C"/>
<path d="M15.995 23.335H15.5537V23.7762H15.995V23.335Z" fill="black"/>
<path d="M15.5538 26.89H15.1038V27.3312H15.5538V26.89Z" fill="#DDCA6C"/>
<path d="M15.5538 26.44H15.1038V26.89H15.5538V26.44Z" fill="#FCE76B"/>
<path d="M15.5538 25.9987H15.1038V26.44H15.5538V25.9987Z" fill="#E80F42"/>
<path d="M15.5538 25.5575H15.1038V25.9987H15.5538V25.5575Z" fill="#FCE76B"/>
<path d="M15.5538 25.1075H15.1038V25.5575H15.5538V25.1075Z" fill="#E80F42"/>
<path d="M15.5538 24.6675H15.1038V25.1087H15.5538V24.6675Z" fill="#FCE76B"/>
<path d="M15.5538 24.2175H15.1038V24.6675H15.5538V24.2175Z" fill="#FCE76B"/>
<path d="M15.5538 23.7762H15.1038V24.2175H15.5538V23.7762Z" fill="#DDCA6C"/>
<path d="M15.5538 23.335H15.1038V23.7762H15.5538V23.335Z" fill="black"/>
<path d="M15.1036 26.89H14.6624V27.3312H15.1036V26.89Z" fill="#DDCA6C"/>
<path d="M15.1036 26.44H14.6624V26.89H15.1036V26.44Z" fill="#E80F42"/>
<path d="M15.1036 25.9987H14.6624V26.44H15.1036V25.9987Z" fill="#FCE76B"/>
<path d="M15.1036 25.5575H14.6624V25.9987H15.1036V25.5575Z" fill="#FCE76B"/>
<path d="M15.1036 25.1075H14.6624V25.5575H15.1036V25.1075Z" fill="#FCE76B"/>
<path d="M15.1036 24.6675H14.6624V25.1087H15.1036V24.6675Z" fill="#E80F42"/>
<path d="M15.1036 24.2175H14.6624V24.6675H15.1036V24.2175Z" fill="#FCE76B"/>
<path d="M15.1036 23.7762H14.6624V24.2175H15.1036V23.7762Z" fill="#DDCA6C"/>
<path d="M15.1036 23.335H14.6624V23.7762H15.1036V23.335Z" fill="black"/>
<path d="M14.6624 26.89H14.2212V27.3312H14.6624V26.89Z" fill="#DDCA6C"/>
<path d="M14.6624 26.44H14.2212V26.89H14.6624V26.44Z" fill="#E80F42"/>
<path d="M14.6624 25.9987H14.2212V26.44H14.6624V25.9987Z" fill="#FCE76B"/>
<path d="M14.6624 25.5575H14.2212V25.9987H14.6624V25.5575Z" fill="#FCE76B"/>
<path d="M14.6624 25.1075H14.2212V25.5575H14.6624V25.1075Z" fill="#FCE76B"/>
<path d="M14.6624 24.6675H14.2212V25.1087H14.6624V24.6675Z" fill="#E80F42"/>
<path d="M14.6624 24.2175H14.2212V24.6675H14.6624V24.2175Z" fill="#FCE76B"/>
<path d="M14.6624 23.7762H14.2212V24.2175H14.6624V23.7762Z" fill="#DDCA6C"/>
<path d="M14.6624 23.335H14.2212V23.7762H14.6624V23.335Z" fill="black"/>
<path d="M14.2212 26.89H13.7712V27.3312H14.2212V26.89Z" fill="#DDCA6C"/>
<path d="M14.2212 26.44H13.7712V26.89H14.2212V26.44Z" fill="#FCE76B"/>
<path d="M14.2212 25.9987H13.7712V26.44H14.2212V25.9987Z" fill="#FCE76B"/>
<path d="M14.2212 25.5575H13.7712V25.9987H14.2212V25.5575Z" fill="#FCE76B"/>
<path d="M14.2212 25.1075H13.7712V25.5575H14.2212V25.1075Z" fill="#FCE76B"/>
<path d="M14.2212 24.6675H13.7712V25.1087H14.2212V24.6675Z" fill="#FCE76B"/>
<path d="M14.2212 24.2175H13.7712V24.6675H14.2212V24.2175Z" fill="#DDCA6C"/>
<path d="M14.2212 23.7762H13.7712V24.2175H14.2212V23.7762Z" fill="#DDCA6C"/>
<path d="M14.2212 23.335H13.7712V23.7762H14.2212V23.335Z" fill="black"/>
<path d="M13.7725 26.89H13.3313V27.3312H13.7725V26.89Z" fill="#DDCA6C"/>
<path d="M13.7725 26.44H13.3313V26.89H13.7725V26.44Z" fill="#FCE76B"/>
<path d="M13.7725 25.9987H13.3313V26.44H13.7725V25.9987Z" fill="#FCE76B"/>
<path d="M13.7725 25.5575H13.3313V25.9987H13.7725V25.5575Z" fill="#FCE76B"/>
<path d="M13.7725 25.1075H13.3313V25.5575H13.7725V25.1075Z" fill="#FCE76B"/>
<path d="M13.7725 24.6675H13.3313V25.1087H13.7725V24.6675Z" fill="#DDCA6C"/>
<path d="M13.7725 24.2175H13.3313V24.6675H13.7725V24.2175Z" fill="black"/>
<path d="M13.7725 23.7762H13.3313V24.2175H13.7725V23.7762Z" fill="black"/>
<path d="M13.3311 26.89H12.8811V27.3312H13.3311V26.89Z" fill="#DDCA6C"/>
<path d="M13.3311 26.44H12.8811V26.89H13.3311V26.44Z" fill="#FCE76B"/>
<path d="M13.3311 25.9987H12.8811V26.44H13.3311V25.9987Z" fill="#FCE76B"/>
<path d="M13.3311 25.5575H12.8811V25.9987H13.3311V25.5575Z" fill="#DDCA6C"/>
<path d="M13.3311 25.1075H12.8811V25.5575H13.3311V25.1075Z" fill="#DDCA6C"/>
<path d="M13.3311 24.6675H12.8811V25.1087H13.3311V24.6675Z" fill="black"/>
<path d="M13.3311 24.2175H12.8811V24.6675H13.3311V24.2175Z" fill="black"/>
<path d="M12.8812 26.89H12.4399V27.3312H12.8812V26.89Z" fill="#DDCA6C"/>
<path d="M12.8812 26.44H12.4399V26.89H12.8812V26.44Z" fill="#FCE76B"/>
<path d="M12.8812 25.9987H12.4399V26.44H12.8812V25.9987Z" fill="#DDCA6C"/>
<path d="M12.8812 25.5575H12.4399V25.9987H12.8812V25.5575Z" fill="black"/>
<path d="M12.8812 25.1075H12.4399V25.5575H12.8812V25.1075Z" fill="black"/>
<path d="M12.8812 24.6675H12.4399V25.1087H12.8812V24.6675Z" fill="#DDCA6C"/>
<path d="M12.8812 24.2175H12.4399V24.6675H12.8812V24.2175Z" fill="#DDCA6C"/>
<path d="M12.8812 23.7762H12.4399V24.2175H12.8812V23.7762Z" fill="black"/>
<path d="M12.44 26.89H11.9988V27.3312H12.44V26.89Z" fill="#DDCA6C"/>
<path d="M12.44 26.44H11.9988V26.89H12.44V26.44Z" fill="#DDCA6C"/>
<path d="M12.44 25.9987H11.9988V26.44H12.44V25.9987Z" fill="black"/>
<path d="M12.44 25.5575H11.9988V25.9987H12.44V25.5575Z" fill="#DDCA6C"/>
<path d="M12.44 25.1075H11.9988V25.5575H12.44V25.1075Z" fill="#DDCA6C"/>
<path d="M12.44 24.6675H11.9988V25.1087H12.44V24.6675Z" fill="#DDCA6C"/>
<path d="M12.44 24.2175H11.9988V24.6675H12.44V24.2175Z" fill="#DDCA6C"/>
<path d="M12.44 23.7762H11.9988V24.2175H12.44V23.7762Z" fill="black"/>
<path d="M11.9988 26.89H11.5488V27.3312H11.9988V26.89Z" fill="#DDCA6C"/>
<path d="M11.9988 26.44H11.5488V26.89H11.9988V26.44Z" fill="black"/>
<path d="M11.9988 25.9987H11.5488V26.44H11.9988V25.9987Z" fill="#DDCA6C"/>
<path d="M11.9988 25.5575H11.5488V25.9987H11.9988V25.5575Z" fill="#DDCA6C"/>
<path d="M11.9988 25.1075H11.5488V25.5575H11.9988V25.1075Z" fill="#DDCA6C"/>
<path d="M11.9988 24.6675H11.5488V25.1087H11.9988V24.6675Z" fill="#DDCA6C"/>
<path d="M11.9988 24.2175H11.5488V24.6675H11.9988V24.2175Z" fill="#DDCA6C"/>
<path d="M11.9988 23.7762H11.5488V24.2175H11.9988V23.7762Z" fill="#DDCA6C"/>
<path d="M11.9988 23.335H11.5488V23.7762H11.9988V23.335Z" fill="black"/>
<path d="M11.5487 26.89H11.1074V27.3312H11.5487V26.89Z" fill="black"/>
<path d="M11.5487 26.44H11.1074V26.89H11.5487V26.44Z" fill="#DDCA6C"/>
<path d="M11.5487 25.9987H11.1074V26.44H11.5487V25.9987Z" fill="#DDCA6C"/>
<path d="M11.5487 25.5575H11.1074V25.9987H11.5487V25.5575Z" fill="#DDCA6C"/>
<path d="M11.5487 25.1075H11.1074V25.5575H11.5487V25.1075Z" fill="#DDCA6C"/>
<path d="M11.5487 24.6675H11.1074V25.1087H11.5487V24.6675Z" fill="#DDCA6C"/>
<path d="M11.5487 24.2175H11.1074V24.6675H11.5487V24.2175Z" fill="#DDCA6C"/>
<path d="M11.5487 23.7762H11.1074V24.2175H11.5487V23.7762Z" fill="#DDCA6C"/>
<path d="M11.5487 23.335H11.1074V23.7762H11.5487V23.335Z" fill="black"/>
<path d="M11.1075 27.3312H10.6575V27.7725H11.1075V27.3312Z" fill="black"/>
<path d="M11.1075 26.89H10.6575V27.3312H11.1075V26.89Z" fill="black"/>
<path d="M11.1075 26.44H10.6575V26.89H11.1075V26.44Z" fill="black"/>
<path d="M11.1075 25.9987H10.6575V26.44H11.1075V25.9987Z" fill="black"/>
<path d="M11.1075 25.5575H10.6575V25.9987H11.1075V25.5575Z" fill="black"/>
<path d="M11.1075 25.1075H10.6575V25.5575H11.1075V25.1075Z" fill="black"/>
<path d="M11.1075 24.6675H10.6575V25.1087H11.1075V24.6675Z" fill="black"/>
<path d="M11.1075 24.2175H10.6575V24.6675H11.1075V24.2175Z" fill="black"/>
<path d="M11.1075 23.7762H10.6575V24.2175H11.1075V23.7762Z" fill="black"/>
<path d="M11.1075 23.335H10.6575V23.7762H11.1075V23.335Z" fill="black"/>
</g>
<defs>
<clipPath id="clip0_69_12164">
<rect width="50" height="50" fill="white"/>
</clipPath>
</defs>
</svg>
