<svg width="50" height="50" viewBox="0 0 50 50" fill="none" xmlns="http://www.w3.org/2000/svg">
<g clip-path="url(#clip0_69_12150)">
<path d="M48.2223 25C48.2223 37.825 37.8248 48.2225 24.9998 48.2225C12.1748 48.2225 1.77734 37.825 1.77734 25C1.77734 12.175 12.1736 1.7775 24.9998 1.7775C37.8261 1.7775 48.2223 12.175 48.2223 25Z" fill="black"/>
<path d="M24.9998 49.0975C11.7123 49.0975 0.902344 38.2875 0.902344 25C0.902344 11.7125 11.7123 0.902496 24.9998 0.902496C38.2873 0.902496 49.0973 11.7125 49.0973 25C49.0973 38.2875 38.2873 49.0975 24.9998 49.0975ZM24.9998 2.6525C12.6773 2.6525 2.65234 12.6775 2.65234 25C2.65234 37.3225 12.6773 47.3475 24.9998 47.3475C37.3223 47.3475 47.3473 37.3225 47.3473 25C47.3473 12.6775 37.3223 2.6525 24.9998 2.6525Z" fill="#439B3E"/>
<path d="M35.9911 25.7838H35.1812V26.5938H35.9911V25.7838Z" fill="#754807"/>
<path d="M35.1813 27.4113H34.3638V28.2213H35.1813V27.4113Z" fill="#968E8B"/>
<path d="M35.1813 26.5938H34.3638V27.4112H35.1813V26.5938Z" fill="#754807"/>
<path d="M35.1813 25.7838H34.3638V26.5938H35.1813V25.7838Z" fill="#754807"/>
<path d="M35.1813 24.965H34.3638V25.7825H35.1813V24.965Z" fill="#754807"/>
<path d="M34.3624 28.22H33.5449V29.0375H34.3624V28.22Z" fill="#754807"/>
<path d="M34.3624 27.4113H33.5449V28.2213H34.3624V27.4113Z" fill="#754807"/>
<path d="M34.3624 26.5938H33.5449V27.4112H34.3624V26.5938Z" fill="#968E8B"/>
<path d="M34.3624 25.7838H33.5449V26.5938H34.3624V25.7838Z" fill="#754807"/>
<path d="M34.3624 24.965H33.5449V25.7825H34.3624V24.965Z" fill="#754807"/>
<path d="M34.3624 24.1562H33.5449V24.9662H34.3624V24.1562Z" fill="#754807"/>
<path d="M34.3624 20.0837H33.5449V20.8937H34.3624V20.0837Z" fill="#020000"/>
<path d="M34.3624 19.2662H33.5449V20.0837H34.3624V19.2662Z" fill="#020000"/>
<path d="M34.3624 18.4562H33.5449V19.2662H34.3624V18.4562Z" fill="#020000"/>
<path d="M34.3624 17.6388H33.5449V18.4563H34.3624V17.6388Z" fill="#020000"/>
<path d="M33.5449 29.0375H32.7349V29.855H33.5449V29.0375Z" fill="#968E8B"/>
<path d="M33.5449 28.22H32.7349V29.0375H33.5449V28.22Z" fill="#754807"/>
<path d="M33.5449 27.4113H32.7349V28.2213H33.5449V27.4113Z" fill="#754807"/>
<path d="M33.5449 26.5938H32.7349V27.4112H33.5449V26.5938Z" fill="#754807"/>
<path d="M33.5449 25.7838H32.7349V26.5938H33.5449V25.7838Z" fill="#968E8B"/>
<path d="M33.5449 24.965H32.7349V25.7825H33.5449V24.965Z" fill="#754807"/>
<path d="M33.5449 24.1562H32.7349V24.9662H33.5449V24.1562Z" fill="#754807"/>
<path d="M33.5449 21.7112H32.7349V22.5287H33.5449V21.7112Z" fill="#020000"/>
<path d="M33.5449 20.8925H32.7349V21.71H33.5449V20.8925Z" fill="#020000"/>
<path d="M33.5449 20.0837H32.7349V20.8937H33.5449V20.0837Z" fill="#586689"/>
<path d="M33.5449 19.2662H32.7349V20.0837H33.5449V19.2662Z" fill="#586689"/>
<path d="M33.5449 18.4562H32.7349V19.2662H33.5449V18.4562Z" fill="#586689"/>
<path d="M33.5449 17.6388H32.7349V18.4563H33.5449V17.6388Z" fill="#586689"/>
<path d="M33.5449 16.83H32.7349V17.64H33.5449V16.83Z" fill="#020000"/>
<path d="M32.735 29.8563H31.9175V30.6663H32.735V29.8563Z" fill="#754807"/>
<path d="M32.735 29.0375H31.9175V29.855H32.735V29.0375Z" fill="#754807"/>
<path d="M32.735 28.22H31.9175V29.0375H32.735V28.22Z" fill="#968E8B"/>
<path d="M32.735 27.4113H31.9175V28.2213H32.735V27.4113Z" fill="#754807"/>
<path d="M32.735 26.5938H31.9175V27.4112H32.735V26.5938Z" fill="#754807"/>
<path d="M32.735 25.7838H31.9175V26.5938H32.735V25.7838Z" fill="#754807"/>
<path d="M32.735 24.965H31.9175V25.7825H32.735V24.965Z" fill="#968E8B"/>
<path d="M32.735 22.5287H31.9175V23.3387H32.735V22.5287Z" fill="#020000"/>
<path d="M32.735 21.7112H31.9175V22.5287H32.735V21.7112Z" fill="#439B3E"/>
<path d="M32.735 20.8925H31.9175V21.71H32.735V20.8925Z" fill="#439B3E"/>
<path d="M32.735 20.0837H31.9175V20.8937H32.735V20.0837Z" fill="#717A97"/>
<path d="M32.735 19.2662H31.9175V20.0837H32.735V19.2662Z" fill="#717A97"/>
<path d="M32.735 18.4562H31.9175V19.2662H32.735V18.4562Z" fill="#586689"/>
<path d="M32.735 17.6388H31.9175V18.4563H32.735V17.6388Z" fill="#586689"/>
<path d="M32.735 16.83H31.9175V17.64H32.735V16.83Z" fill="#586689"/>
<path d="M32.735 16.0113H31.9175V16.8288H32.735V16.0113Z" fill="#020000"/>
<path d="M31.9189 41.2475H31.1089V42.065H31.9189V41.2475Z" fill="#020000"/>
<path d="M31.9189 40.4375H31.1089V41.2475H31.9189V40.4375Z" fill="#020000"/>
<path d="M31.9189 39.62H31.1089V40.4375H31.9189V39.62Z" fill="#020000"/>
<path d="M31.9189 38.8112H31.1089V39.6213H31.9189V38.8112Z" fill="#020000"/>
<path d="M31.9189 37.9925H31.1089V38.81H31.9189V37.9925Z" fill="#020100"/>
<path d="M31.9189 37.1825H31.1089V37.9925H31.9189V37.1825Z" fill="#020100"/>
<path d="M31.9189 36.365H31.1089V37.1825H31.9189V36.365Z" fill="#020000"/>
<path d="M31.9189 35.5562H31.1089V36.3662H31.9189V35.5562Z" fill="#020000"/>
<path d="M31.9189 34.7387H31.1089V35.5562H31.9189V34.7387Z" fill="#020000"/>
<path d="M31.9189 33.92H31.1089V34.7375H31.9189V33.92Z" fill="#020000"/>
<path d="M31.9189 33.11H31.1089V33.92H31.9189V33.11Z" fill="#020000"/>
<path d="M31.9189 32.2925H31.1089V33.11H31.9189V32.2925Z" fill="#020000"/>
<path d="M31.9189 31.4838H31.1089V32.2938H31.9189V31.4838Z" fill="#020000"/>
<path d="M31.9189 30.6663H31.1089V31.4838H31.9189V30.6663Z" fill="#020000"/>
<path d="M31.9189 29.8563H31.1089V30.6663H31.9189V29.8563Z" fill="#020000"/>
<path d="M31.9189 29.0375H31.1089V29.855H31.9189V29.0375Z" fill="#754807"/>
<path d="M31.9189 28.22H31.1089V29.0375H31.9189V28.22Z" fill="#754807"/>
<path d="M31.9189 27.4113H31.1089V28.2213H31.9189V27.4113Z" fill="#968E8B"/>
<path d="M31.9189 26.5938H31.1089V27.4112H31.9189V26.5938Z" fill="#754807"/>
<path d="M31.9189 25.7838H31.1089V26.5938H31.9189V25.7838Z" fill="#49302B"/>
<path d="M31.9189 24.965H31.1089V25.7825H31.9189V24.965Z" fill="#49302B"/>
<path d="M31.9189 24.1562H31.1089V24.9662H31.9189V24.1562Z" fill="#968E8B"/>
<path d="M31.9189 23.3387H31.1089V24.1562H31.9189V23.3387Z" fill="#020000"/>
<path d="M31.9189 22.5287H31.1089V23.3387H31.9189V22.5287Z" fill="#439B3E"/>
<path d="M31.9189 21.7112H31.1089V22.5287H31.9189V21.7112Z" fill="#439B3E"/>
<path d="M31.9189 20.8925H31.1089V21.71H31.9189V20.8925Z" fill="#439B3E"/>
<path d="M31.9189 20.0837H31.1089V20.8937H31.9189V20.0837Z" fill="#439B3E"/>
<path d="M31.9189 19.2662H31.1089V20.0837H31.9189V19.2662Z" fill="#717A97"/>
<path d="M31.9189 18.4562H31.1089V19.2662H31.9189V18.4562Z" fill="#717A97"/>
<path d="M31.9189 17.6388H31.1089V18.4563H31.9189V17.6388Z" fill="#586689"/>
<path d="M31.9189 16.83H31.1089V17.64H31.9189V16.83Z" fill="#586689"/>
<path d="M31.9189 16.0113H31.1089V16.8288H31.9189V16.0113Z" fill="#586689"/>
<path d="M31.9189 15.1938H31.1089V16.0113H31.9189V15.1938Z" fill="#020000"/>
<path d="M31.1085 41.2475H30.291V42.065H31.1085V41.2475Z" fill="#020000"/>
<path d="M31.1085 40.4375H30.291V41.2475H31.1085V40.4375Z" fill="#2B1910"/>
<path d="M31.1085 39.62H30.291V40.4375H31.1085V39.62Z" fill="#2B1910"/>
<path d="M31.1085 38.8112H30.291V39.6213H31.1085V38.8112Z" fill="#2B1910"/>
<path d="M31.1085 37.9925H30.291V38.81H31.1085V37.9925Z" fill="#2B1910"/>
<path d="M31.1085 37.1825H30.291V37.9925H31.1085V37.1825Z" fill="#2B1910"/>
<path d="M31.1085 36.365H30.291V37.1825H31.1085V36.365Z" fill="#2B1910"/>
<path d="M31.1085 35.5562H30.291V36.3662H31.1085V35.5562Z" fill="#381D18"/>
<path d="M31.1085 34.7387H30.291V35.5562H31.1085V34.7387Z" fill="#381D18"/>
<path d="M31.1085 33.92H30.291V34.7375H31.1085V33.92Z" fill="#381D18"/>
<path d="M31.1085 33.11H30.291V33.92H31.1085V33.11Z" fill="#381D18"/>
<path d="M31.1085 32.2925H30.291V33.11H31.1085V32.2925Z" fill="#381D18"/>
<path d="M31.1085 31.4838H30.291V32.2938H31.1085V31.4838Z" fill="#381D18"/>
<path d="M31.1085 30.6663H30.291V31.4838H31.1085V30.6663Z" fill="#381D18"/>
<path d="M31.1085 29.8563H30.291V30.6663H31.1085V29.8563Z" fill="#381D18"/>
<path d="M31.1085 29.0375H30.291V29.855H31.1085V29.0375Z" fill="#020000"/>
<path d="M31.1085 28.22H30.291V29.0375H31.1085V28.22Z" fill="#754807"/>
<path d="M31.1085 27.4113H30.291V28.2213H31.1085V27.4113Z" fill="#968E8B"/>
<path d="M31.1085 26.5938H30.291V27.4112H31.1085V26.5938Z" fill="#49302B"/>
<path d="M31.1085 25.7838H30.291V26.5938H31.1085V25.7838Z" fill="#49302B"/>
<path d="M31.1085 24.965H30.291V25.7825H31.1085V24.965Z" fill="#968E8B"/>
<path d="M31.1085 24.1562H30.291V24.9662H31.1085V24.1562Z" fill="#020000"/>
<path d="M31.1085 23.3387H30.291V24.1562H31.1085V23.3387Z" fill="#439B3E"/>
<path d="M31.1085 22.5287H30.291V23.3387H31.1085V22.5287Z" fill="#439B3E"/>
<path d="M31.1085 21.7112H30.291V22.5287H31.1085V21.7112Z" fill="#34872D"/>
<path d="M31.1085 20.8925H30.291V21.71H31.1085V20.8925Z" fill="#34872D"/>
<path d="M31.1085 20.0837H30.291V20.8937H31.1085V20.0837Z" fill="#439B3E"/>
<path d="M31.1085 19.2662H30.291V20.0837H31.1085V19.2662Z" fill="#717A97"/>
<path d="M31.1085 18.4562H30.291V19.2662H31.1085V18.4562Z" fill="#717A97"/>
<path d="M31.1085 17.6388H30.291V18.4563H31.1085V17.6388Z" fill="#717A97"/>
<path d="M31.1085 16.83H30.291V17.64H31.1085V16.83Z" fill="#586689"/>
<path d="M31.1085 16.0113H30.291V16.8288H31.1085V16.0113Z" fill="#586689"/>
<path d="M31.1085 15.1938H30.291V16.0113H31.1085V15.1938Z" fill="#020000"/>
<path d="M30.2914 40.4375H29.4814V41.2475H30.2914V40.4375Z" fill="#020100"/>
<path d="M30.2914 39.62H29.4814V40.4375H30.2914V39.62Z" fill="#2B1910"/>
<path d="M30.2914 38.8112H29.4814V39.6213H30.2914V38.8112Z" fill="#2B1910"/>
<path d="M30.2914 37.9925H29.4814V38.81H30.2914V37.9925Z" fill="#2B1910"/>
<path d="M30.2914 37.1825H29.4814V37.9925H30.2914V37.1825Z" fill="#2B1910"/>
<path d="M30.2914 36.365H29.4814V37.1825H30.2914V36.365Z" fill="#2B1910"/>
<path d="M30.2914 35.5562H29.4814V36.3662H30.2914V35.5562Z" fill="#49302B"/>
<path d="M30.2914 34.7387H29.4814V35.5562H30.2914V34.7387Z" fill="#381D18"/>
<path d="M30.2914 33.92H29.4814V34.7375H30.2914V33.92Z" fill="#381D18"/>
<path d="M30.2914 33.11H29.4814V33.92H30.2914V33.11Z" fill="#381D18"/>
<path d="M30.2914 32.2925H29.4814V33.11H30.2914V32.2925Z" fill="#020100"/>
<path d="M30.2914 31.4838H29.4814V32.2938H30.2914V31.4838Z" fill="#020000"/>
<path d="M30.2914 30.6663H29.4814V31.4838H30.2914V30.6663Z" fill="#020000"/>
<path d="M30.2914 29.8563H29.4814V30.6663H30.2914V29.8563Z" fill="#020000"/>
<path d="M30.2914 29.0375H29.4814V29.855H30.2914V29.0375Z" fill="#020000"/>
<path d="M30.2914 28.22H29.4814V29.0375H30.2914V28.22Z" fill="#020000"/>
<path d="M30.2914 27.4113H29.4814V28.2213H30.2914V27.4113Z" fill="#00FFE2"/>
<path d="M30.2914 26.5938H29.4814V27.4112H30.2914V26.5938Z" fill="#968E8B"/>
<path d="M30.2914 25.7838H29.4814V26.5938H30.2914V25.7838Z" fill="#968E8B"/>
<path d="M30.2914 24.965H29.4814V25.7825H30.2914V24.965Z" fill="#020000"/>
<path d="M30.2914 24.1562H29.4814V24.9662H30.2914V24.1562Z" fill="#439B3E"/>
<path d="M30.2914 23.3387H29.4814V24.1562H30.2914V23.3387Z" fill="#439B3E"/>
<path d="M30.2914 22.5287H29.4814V23.3387H30.2914V22.5287Z" fill="#34872D"/>
<path d="M30.2914 21.7112H29.4814V22.5287H30.2914V21.7112Z" fill="#34872D"/>
<path d="M30.2914 20.8925H29.4814V21.71H30.2914V20.8925Z" fill="#439B3E"/>
<path d="M30.2914 20.0837H29.4814V20.8937H30.2914V20.0837Z" fill="#439B3E"/>
<path d="M30.2914 19.2662H29.4814V20.0837H30.2914V19.2662Z" fill="#439B3E"/>
<path d="M30.2914 18.4562H29.4814V19.2662H30.2914V18.4562Z" fill="#717A97"/>
<path d="M30.2914 17.6388H29.4814V18.4563H30.2914V17.6388Z" fill="#717A97"/>
<path d="M30.2914 16.83H29.4814V17.64H30.2914V16.83Z" fill="#717A97"/>
<path d="M30.2914 16.0113H29.4814V16.8288H30.2914V16.0113Z" fill="#586689"/>
<path d="M30.2914 15.1938H29.4814V16.0113H30.2914V15.1938Z" fill="#020000"/>
<path d="M29.4801 41.2475H28.6626V42.065H29.4801V41.2475Z" fill="#020000"/>
<path d="M29.4801 40.4375H28.6626V41.2475H29.4801V40.4375Z" fill="#2B1910"/>
<path d="M29.4801 39.62H28.6626V40.4375H29.4801V39.62Z" fill="#2B1910"/>
<path d="M29.4801 38.8112H28.6626V39.6213H29.4801V38.8112Z" fill="#2B1910"/>
<path d="M29.4801 37.9925H28.6626V38.81H29.4801V37.9925Z" fill="#2B1910"/>
<path d="M29.4801 37.1825H28.6626V37.9925H29.4801V37.1825Z" fill="#2B1910"/>
<path d="M29.4801 36.365H28.6626V37.1825H29.4801V36.365Z" fill="#2B1910"/>
<path d="M29.4801 35.5562H28.6626V36.3662H29.4801V35.5562Z" fill="#49302B"/>
<path d="M29.4801 34.7387H28.6626V35.5562H29.4801V34.7387Z" fill="#49302B"/>
<path d="M29.4801 33.92H28.6626V34.7375H29.4801V33.92Z" fill="#49302B"/>
<path d="M29.4801 33.11H28.6626V33.92H29.4801V33.11Z" fill="#381D18"/>
<path d="M29.4801 32.2925H28.6626V33.11H29.4801V32.2925Z" fill="#020100"/>
<path d="M29.4801 31.4838H28.6626V32.2938H29.4801V31.4838Z" fill="#05D6B8"/>
<path d="M29.4801 30.6663H28.6626V31.4838H29.4801V30.6663Z" fill="#05D6B8"/>
<path d="M29.4801 29.8563H28.6626V30.6663H29.4801V29.8563Z" fill="#05D6B8"/>
<path d="M29.4801 29.0375H28.6626V29.855H29.4801V29.0375Z" fill="#05D6B8"/>
<path d="M29.4801 28.22H28.6626V29.0375H29.4801V28.22Z" fill="#05D6B8"/>
<path d="M29.4801 27.4113H28.6626V28.2213H29.4801V27.4113Z" fill="#05D6B8"/>
<path d="M29.4801 26.5938H28.6626V27.4112H29.4801V26.5938Z" fill="#05D6B8"/>
<path d="M29.4801 25.7838H28.6626V26.5938H29.4801V25.7838Z" fill="#05D6B8"/>
<path d="M29.4801 24.965H28.6626V25.7825H29.4801V24.965Z" fill="#020000"/>
<path d="M29.4801 24.1562H28.6626V24.9662H29.4801V24.1562Z" fill="#439B3E"/>
<path d="M29.4801 23.3387H28.6626V24.1562H29.4801V23.3387Z" fill="#439B3E"/>
<path d="M29.4801 22.5287H28.6626V23.3387H29.4801V22.5287Z" fill="#439B3E"/>
<path d="M29.4801 21.7112H28.6626V22.5287H29.4801V21.7112Z" fill="#439B3E"/>
<path d="M29.4801 20.8925H28.6626V21.71H29.4801V20.8925Z" fill="#439B3E"/>
<path d="M29.4801 20.0837H28.6626V20.8937H29.4801V20.0837Z" fill="#439B3E"/>
<path d="M29.4801 19.2662H28.6626V20.0837H29.4801V19.2662Z" fill="#439B3E"/>
<path d="M29.4801 18.4562H28.6626V19.2662H29.4801V18.4562Z" fill="#717A97"/>
<path d="M29.4801 17.6388H28.6626V18.4563H29.4801V17.6388Z" fill="#717A97"/>
<path d="M29.4801 16.83H28.6626V17.64H29.4801V16.83Z" fill="#717A97"/>
<path d="M29.4801 16.0113H28.6626V16.8288H29.4801V16.0113Z" fill="#717A97"/>
<path d="M29.4801 15.1938H28.6626V16.0113H29.4801V15.1938Z" fill="#05D6B8"/>
<path d="M29.4801 12.7575H28.6626V13.5675H29.4801V12.7575Z" fill="black"/>
<path d="M29.4801 11.9388H28.6626V12.7563H29.4801V11.9388Z" fill="black"/>
<path d="M29.4801 11.1288H28.6626V11.9388H29.4801V11.1288Z" fill="black"/>
<path d="M28.6627 41.2475H27.8452V42.065H28.6627V41.2475Z" fill="#020000"/>
<path d="M28.6627 40.4375H27.8452V41.2475H28.6627V40.4375Z" fill="#2B1910"/>
<path d="M28.6627 39.62H27.8452V40.4375H28.6627V39.62Z" fill="#020100"/>
<path d="M28.6627 38.8112H27.8452V39.6213H28.6627V38.8112Z" fill="#020100"/>
<path d="M28.6627 37.9925H27.8452V38.81H28.6627V37.9925Z" fill="#020000"/>
<path d="M28.6627 37.1825H27.8452V37.9925H28.6627V37.1825Z" fill="#020000"/>
<path d="M28.6627 36.365H27.8452V37.1825H28.6627V36.365Z" fill="#020000"/>
<path d="M28.6627 35.5562H27.8452V36.3662H28.6627V35.5562Z" fill="#49302B"/>
<path d="M28.6627 34.7387H27.8452V35.5562H28.6627V34.7387Z" fill="#49302B"/>
<path d="M28.6627 33.92H27.8452V34.7375H28.6627V33.92Z" fill="#49302B"/>
<path d="M28.6627 33.11H27.8452V33.92H28.6627V33.11Z" fill="#49302B"/>
<path d="M28.6627 32.2925H27.8452V33.11H28.6627V32.2925Z" fill="#020100"/>
<path d="M28.6627 31.4838H27.8452V32.2938H28.6627V31.4838Z" fill="#05D6B8"/>
<path d="M28.6627 30.6663H27.8452V31.4838H28.6627V30.6663Z" fill="#05D6B8"/>
<path d="M28.6627 29.8563H27.8452V30.6663H28.6627V29.8563Z" fill="#00FFE2"/>
<path d="M28.6627 29.0375H27.8452V29.855H28.6627V29.0375Z" fill="#00FFE2"/>
<path d="M28.6627 28.22H27.8452V29.0375H28.6627V28.22Z" fill="#00FFE2"/>
<path d="M28.6627 27.4113H27.8452V28.2213H28.6627V27.4113Z" fill="#05D6B8"/>
<path d="M28.6627 26.5938H27.8452V27.4112H28.6627V26.5938Z" fill="#05D6B8"/>
<path d="M28.6627 25.7838H27.8452V26.5938H28.6627V25.7838Z" fill="#05D6B8"/>
<path d="M28.6627 24.965H27.8452V25.7825H28.6627V24.965Z" fill="#020000"/>
<path d="M28.6627 24.1562H27.8452V24.9662H28.6627V24.1562Z" fill="#439B3E"/>
<path d="M28.6627 23.3387H27.8452V24.1562H28.6627V23.3387Z" fill="#439B3E"/>
<path d="M28.6627 22.5287H27.8452V23.3387H28.6627V22.5287Z" fill="#439B3E"/>
<path d="M28.6627 21.7112H27.8452V22.5287H28.6627V21.7112Z" fill="#439B3E"/>
<path d="M28.6627 20.8925H27.8452V21.71H28.6627V20.8925Z" fill="#439B3E"/>
<path d="M28.6627 20.0837H27.8452V20.8937H28.6627V20.0837Z" fill="#439B3E"/>
<path d="M28.6627 19.2662H27.8452V20.0837H28.6627V19.2662Z" fill="#439B3E"/>
<path d="M28.6627 18.4562H27.8452V19.2662H28.6627V18.4562Z" fill="#717A97"/>
<path d="M28.6627 17.6388H27.8452V18.4563H28.6627V17.6388Z" fill="#717A97"/>
<path d="M28.6627 16.83H27.8452V17.64H28.6627V16.83Z" fill="#717A97"/>
<path d="M28.6627 16.0113H27.8452V16.8288H28.6627V16.0113Z" fill="#05D6B8"/>
<path d="M28.6627 15.1938H27.8452V16.0113H28.6627V15.1938Z" fill="#050100"/>
<path d="M28.6627 13.5675H27.8452V14.385H28.6627V13.5675Z" fill="black"/>
<path d="M28.6627 12.7575H27.8452V13.5675H28.6627V12.7575Z" fill="#439B3E"/>
<path d="M28.6627 11.9388H27.8452V12.7563H28.6627V11.9388Z" fill="#439B3E"/>
<path d="M28.6627 11.1288H27.8452V11.9388H28.6627V11.1288Z" fill="#439B3E"/>
<path d="M28.6627 10.3112H27.8452V11.1287H28.6627V10.3112Z" fill="black"/>
<path d="M28.6627 9.5025H27.8452V10.3125H28.6627V9.5025Z" fill="black"/>
<path d="M27.8461 41.2475H27.0361V42.065H27.8461V41.2475Z" fill="#020000"/>
<path d="M27.8461 40.4375H27.0361V41.2475H27.8461V40.4375Z" fill="#2B1910"/>
<path d="M27.8461 39.62H27.0361V40.4375H27.8461V39.62Z" fill="#020100"/>
<path d="M27.8461 36.365H27.0361V37.1825H27.8461V36.365Z" fill="#020000"/>
<path d="M27.8461 35.5562H27.0361V36.3662H27.8461V35.5562Z" fill="#020000"/>
<path d="M27.8461 34.7387H27.0361V35.5562H27.8461V34.7387Z" fill="#49302B"/>
<path d="M27.8461 33.92H27.0361V34.7375H27.8461V33.92Z" fill="#49302B"/>
<path d="M27.8461 33.11H27.0361V33.92H27.8461V33.11Z" fill="#49302B"/>
<path d="M27.8461 32.2925H27.0361V33.11H27.8461V32.2925Z" fill="#020100"/>
<path d="M27.8461 31.4838H27.0361V32.2938H27.8461V31.4838Z" fill="#05D6B8"/>
<path d="M27.8461 30.6663H27.0361V31.4838H27.8461V30.6663Z" fill="#00FFE2"/>
<path d="M27.8461 29.8563H27.0361V30.6663H27.8461V29.8563Z" fill="#00FFE2"/>
<path d="M27.8461 29.0375H27.0361V29.855H27.8461V29.0375Z" fill="#00FFE2"/>
<path d="M27.8461 28.22H27.0361V29.0375H27.8461V28.22Z" fill="#00FFE2"/>
<path d="M27.8461 27.4113H27.0361V28.2213H27.8461V27.4113Z" fill="#00FFE2"/>
<path d="M27.8461 26.5938H27.0361V27.4112H27.8461V26.5938Z" fill="#05D6B8"/>
<path d="M27.8461 25.7838H27.0361V26.5938H27.8461V25.7838Z" fill="#05D6B8"/>
<path d="M27.8461 24.965H27.0361V25.7825H27.8461V24.965Z" fill="#020000"/>
<path d="M27.8461 24.1562H27.0361V24.9662H27.8461V24.1562Z" fill="#020000"/>
<path d="M27.8461 23.3387H27.0361V24.1562H27.8461V23.3387Z" fill="#439B3E"/>
<path d="M27.8461 22.5287H27.0361V23.3387H27.8461V22.5287Z" fill="#439B3E"/>
<path d="M27.8461 21.7112H27.0361V22.5287H27.8461V21.7112Z" fill="#439B3E"/>
<path d="M27.8461 20.8925H27.0361V21.71H27.8461V20.8925Z" fill="#439B3E"/>
<path d="M27.8461 20.0837H27.0361V20.8937H27.8461V20.0837Z" fill="#020000"/>
<path d="M27.8461 19.2662H27.0361V20.0837H27.8461V19.2662Z" fill="#05D6B8"/>
<path d="M27.8461 18.4562H27.0361V19.2662H27.8461V18.4562Z" fill="#05D6B8"/>
<path d="M27.8461 17.6388H27.0361V18.4563H27.8461V17.6388Z" fill="#717A97"/>
<path d="M27.8461 16.83H27.0361V17.64H27.8461V16.83Z" fill="#05D6B8"/>
<path d="M27.8461 16.0113H27.0361V16.8288H27.8461V16.0113Z" fill="#717A97"/>
<path d="M27.8461 15.1938H27.0361V16.0113H27.8461V15.1938Z" fill="#050100"/>
<path d="M27.8461 14.3838H27.0361V15.1938H27.8461V14.3838Z" fill="black"/>
<path d="M27.8461 13.5675H27.0361V14.385H27.8461V13.5675Z" fill="#439B3E"/>
<path d="M27.8461 12.7575H27.0361V13.5675H27.8461V12.7575Z" fill="#439B3E"/>
<path d="M27.8461 11.9388H27.0361V12.7563H27.8461V11.9388Z" fill="#439B3E"/>
<path d="M27.8461 11.1288H27.0361V11.9388H27.8461V11.1288Z" fill="#439B3E"/>
<path d="M27.8461 10.3112H27.0361V11.1287H27.8461V10.3112Z" fill="#439B3E"/>
<path d="M27.8461 9.5025H27.0361V10.3125H27.8461V9.5025Z" fill="#439B3E"/>
<path d="M27.8461 8.685H27.0361V9.5025H27.8461V8.685Z" fill="black"/>
<path d="M27.0362 41.2475H26.2188V42.065H27.0362V41.2475Z" fill="#020000"/>
<path d="M27.0362 40.4375H26.2188V41.2475H27.0362V40.4375Z" fill="#020000"/>
<path d="M27.0362 39.62H26.2188V40.4375H27.0362V39.62Z" fill="#020100"/>
<path d="M27.0362 35.5562H26.2188V36.3662H27.0362V35.5562Z" fill="#020000"/>
<path d="M27.0362 34.7387H26.2188V35.5562H27.0362V34.7387Z" fill="#020000"/>
<path d="M27.0362 33.92H26.2188V34.7375H27.0362V33.92Z" fill="#49302B"/>
<path d="M27.0362 33.11H26.2188V33.92H27.0362V33.11Z" fill="#49302B"/>
<path d="M27.0362 32.2925H26.2188V33.11H27.0362V32.2925Z" fill="#020000"/>
<path d="M27.0362 31.4838H26.2188V32.2938H27.0362V31.4838Z" fill="#00FFE2"/>
<path d="M27.0362 30.6663H26.2188V31.4838H27.0362V30.6663Z" fill="#00FFE2"/>
<path d="M27.0362 29.8563H26.2188V30.6663H27.0362V29.8563Z" fill="#00FFE2"/>
<path d="M27.0362 29.0375H26.2188V29.855H27.0362V29.0375Z" fill="#00FFE2"/>
<path d="M27.0362 28.22H26.2188V29.0375H27.0362V28.22Z" fill="#00FFE2"/>
<path d="M27.0362 27.4113H26.2188V28.2213H27.0362V27.4113Z" fill="#00FFE2"/>
<path d="M27.0362 26.5938H26.2188V27.4112H27.0362V26.5938Z" fill="#00FFE2"/>
<path d="M27.0362 25.7838H26.2188V26.5938H27.0362V25.7838Z" fill="#00FFE2"/>
<path d="M27.0362 24.965H26.2188V25.7825H27.0362V24.965Z" fill="#00FFE2"/>
<path d="M27.0362 24.1562H26.2188V24.9662H27.0362V24.1562Z" fill="#020000"/>
<path d="M27.0362 23.3387H26.2188V24.1562H27.0362V23.3387Z" fill="#439B3E"/>
<path d="M27.0362 22.5287H26.2188V23.3387H27.0362V22.5287Z" fill="#439B3E"/>
<path d="M27.0362 21.7112H26.2188V22.5287H27.0362V21.7112Z" fill="#439B3E"/>
<path d="M27.0362 20.8925H26.2188V21.71H27.0362V20.8925Z" fill="#020000"/>
<path d="M27.0362 20.0837H26.2188V20.8937H27.0362V20.0837Z" fill="#00FFE2"/>
<path d="M27.0362 19.2662H26.2188V20.0837H27.0362V19.2662Z" fill="#00FFE2"/>
<path d="M27.0362 18.4562H26.2188V19.2662H27.0362V18.4562Z" fill="#05D6B8"/>
<path d="M27.0362 17.6388H26.2188V18.4563H27.0362V17.6388Z" fill="#05D6B8"/>
<path d="M27.0362 16.83H26.2188V17.64H27.0362V16.83Z" fill="#717A97"/>
<path d="M27.0362 16.0113H26.2188V16.8288H27.0362V16.0113Z" fill="#717A97"/>
<path d="M27.0362 15.1938H26.2188V16.0113H27.0362V15.1938Z" fill="#586689"/>
<path d="M27.0362 14.3838H26.2188V15.1938H27.0362V14.3838Z" fill="#8E4E38"/>
<path d="M27.0362 13.5675H26.2188V14.385H27.0362V13.5675Z" fill="#8E4E38"/>
<path d="M27.0362 12.7575H26.2188V13.5675H27.0362V12.7575Z" fill="#8E4E38"/>
<path d="M27.0362 11.9388H26.2188V12.7563H27.0362V11.9388Z" fill="#439B3E"/>
<path d="M27.0362 11.1288H26.2188V11.9388H27.0362V11.1288Z" fill="#FF0031"/>
<path d="M27.0362 10.3112H26.2188V11.1287H27.0362V10.3112Z" fill="black"/>
<path d="M27.0362 9.5025H26.2188V10.3125H27.0362V9.5025Z" fill="#439B3E"/>
<path d="M27.0362 8.685H26.2188V9.5025H27.0362V8.685Z" fill="black"/>
<path d="M26.2187 34.7387H25.4087V35.5562H26.2187V34.7387Z" fill="#020000"/>
<path d="M26.2187 33.92H25.4087V34.7375H26.2187V33.92Z" fill="#020000"/>
<path d="M26.2187 33.11H25.4087V33.92H26.2187V33.11Z" fill="#020000"/>
<path d="M26.2187 32.2925H25.4087V33.11H26.2187V32.2925Z" fill="#020000"/>
<path d="M26.2187 31.4838H25.4087V32.2938H26.2187V31.4838Z" fill="#00FFE2"/>
<path d="M26.2187 30.6663H25.4087V31.4838H26.2187V30.6663Z" fill="#00FFE2"/>
<path d="M26.2187 29.8563H25.4087V30.6663H26.2187V29.8563Z" fill="#00FFE2"/>
<path d="M26.2187 29.0375H25.4087V29.855H26.2187V29.0375Z" fill="#00FFE2"/>
<path d="M26.2187 28.22H25.4087V29.0375H26.2187V28.22Z" fill="#00FFE2"/>
<path d="M26.2187 27.4113H25.4087V28.2213H26.2187V27.4113Z" fill="#020000"/>
<path d="M26.2187 26.5938H25.4087V27.4112H26.2187V26.5938Z" fill="#00FFE2"/>
<path d="M26.2187 25.7838H25.4087V26.5938H26.2187V25.7838Z" fill="#00FFE2"/>
<path d="M26.2187 24.965H25.4087V25.7825H26.2187V24.965Z" fill="#00FFE2"/>
<path d="M26.2187 24.1562H25.4087V24.9662H26.2187V24.1562Z" fill="#020000"/>
<path d="M26.2187 23.3387H25.4087V24.1562H26.2187V23.3387Z" fill="#439B3E"/>
<path d="M26.2187 22.5287H25.4087V23.3387H26.2187V22.5287Z" fill="#439B3E"/>
<path d="M26.2187 21.7112H25.4087V22.5287H26.2187V21.7112Z" fill="#439B3E"/>
<path d="M26.2187 20.8925H25.4087V21.71H26.2187V20.8925Z" fill="#020000"/>
<path d="M26.2187 20.0837H25.4087V20.8937H26.2187V20.0837Z" fill="#00FFE2"/>
<path d="M26.2187 19.2662H25.4087V20.0837H26.2187V19.2662Z" fill="#00FFE2"/>
<path d="M26.2187 18.4562H25.4087V19.2662H26.2187V18.4562Z" fill="#00FFE2"/>
<path d="M26.2187 17.6388H25.4087V18.4563H26.2187V17.6388Z" fill="#717A97"/>
<path d="M26.2187 16.83H25.4087V17.64H26.2187V16.83Z" fill="#717A97"/>
<path d="M26.2187 16.0113H25.4087V16.8288H26.2187V16.0113Z" fill="#717A97"/>
<path d="M26.2187 15.1938H25.4087V16.0113H26.2187V15.1938Z" fill="#8E4E38"/>
<path d="M26.2187 14.3838H25.4087V15.1938H26.2187V14.3838Z" fill="#8E4E38"/>
<path d="M26.2187 13.5675H25.4087V14.385H26.2187V13.5675Z" fill="#439B3E"/>
<path d="M26.2187 12.7575H25.4087V13.5675H26.2187V12.7575Z" fill="#8E4E38"/>
<path d="M26.2187 11.9388H25.4087V12.7563H26.2187V11.9388Z" fill="#439B3E"/>
<path d="M26.2187 11.1288H25.4087V11.9388H26.2187V11.1288Z" fill="black"/>
<path d="M26.2187 10.3112H25.4087V11.1287H26.2187V10.3112Z" fill="#439B3E"/>
<path d="M26.2187 9.5025H25.4087V10.3125H26.2187V9.5025Z" fill="#439B3E"/>
<path d="M26.2187 8.685H25.4087V9.5025H26.2187V8.685Z" fill="black"/>
<path d="M25.4073 40.4375H24.5898V41.2475H25.4073V40.4375Z" fill="#020000"/>
<path d="M25.4073 39.62H24.5898V40.4375H25.4073V39.62Z" fill="#020000"/>
<path d="M25.4073 38.8112H24.5898V39.6213H25.4073V38.8112Z" fill="#020000"/>
<path d="M25.4073 37.9925H24.5898V38.81H25.4073V37.9925Z" fill="#020000"/>
<path d="M25.4073 37.1825H24.5898V37.9925H25.4073V37.1825Z" fill="#020000"/>
<path d="M25.4073 36.365H24.5898V37.1825H25.4073V36.365Z" fill="#020000"/>
<path d="M25.4073 35.5562H24.5898V36.3662H25.4073V35.5562Z" fill="#020000"/>
<path d="M25.4073 34.7387H24.5898V35.5562H25.4073V34.7387Z" fill="#020000"/>
<path d="M25.4073 33.92H24.5898V34.7375H25.4073V33.92Z" fill="#381D18"/>
<path d="M25.4073 33.11H24.5898V33.92H25.4073V33.11Z" fill="#381D18"/>
<path d="M25.4073 32.2925H24.5898V33.11H25.4073V32.2925Z" fill="#020000"/>
<path d="M25.4073 31.4838H24.5898V32.2938H25.4073V31.4838Z" fill="#00FFE2"/>
<path d="M25.4073 30.6663H24.5898V31.4838H25.4073V30.6663Z" fill="#00FFE2"/>
<path d="M25.4073 29.8563H24.5898V30.6663H25.4073V29.8563Z" fill="#00FFE2"/>
<path d="M25.4073 29.0375H24.5898V29.855H25.4073V29.0375Z" fill="#00FFE2"/>
<path d="M25.4073 28.22H24.5898V29.0375H25.4073V28.22Z" fill="#00FFE2"/>
<path d="M25.4073 27.4113H24.5898V28.2213H25.4073V27.4113Z" fill="#020000"/>
<path d="M25.4073 26.5938H24.5898V27.4112H25.4073V26.5938Z" fill="#00FFE2"/>
<path d="M25.4073 25.7838H24.5898V26.5938H25.4073V25.7838Z" fill="#00FFE2"/>
<path d="M25.4073 24.965H24.5898V25.7825H25.4073V24.965Z" fill="#00FFE2"/>
<path d="M25.4073 24.1562H24.5898V24.9662H25.4073V24.1562Z" fill="#020000"/>
<path d="M25.4073 23.3387H24.5898V24.1562H25.4073V23.3387Z" fill="#34872D"/>
<path d="M25.4073 22.5287H24.5898V23.3387H25.4073V22.5287Z" fill="#34872D"/>
<path d="M25.4073 21.7112H24.5898V22.5287H25.4073V21.7112Z" fill="#34872D"/>
<path d="M25.4073 20.8925H24.5898V21.71H25.4073V20.8925Z" fill="#020000"/>
<path d="M25.4073 20.0837H24.5898V20.8937H25.4073V20.0837Z" fill="#00FFE2"/>
<path d="M25.4073 19.2662H24.5898V20.0837H25.4073V19.2662Z" fill="#00FFE2"/>
<path d="M25.4073 18.4562H24.5898V19.2662H25.4073V18.4562Z" fill="#00FFE2"/>
<path d="M25.4073 17.6388H24.5898V18.4563H25.4073V17.6388Z" fill="#717A97"/>
<path d="M25.4073 16.83H24.5898V17.64H25.4073V16.83Z" fill="#717A97"/>
<path d="M25.4073 16.0113H24.5898V16.8288H25.4073V16.0113Z" fill="#717A97"/>
<path d="M25.4073 15.1938H24.5898V16.0113H25.4073V15.1938Z" fill="#8E4E38"/>
<path d="M25.4073 14.3838H24.5898V15.1938H25.4073V14.3838Z" fill="#8E4E38"/>
<path d="M25.4073 13.5675H24.5898V14.385H25.4073V13.5675Z" fill="#439B3E"/>
<path d="M25.4073 12.7575H24.5898V13.5675H25.4073V12.7575Z" fill="#439B3E"/>
<path d="M25.4073 11.9388H24.5898V12.7563H25.4073V11.9388Z" fill="#439B3E"/>
<path d="M25.4073 11.1288H24.5898V11.9388H25.4073V11.1288Z" fill="#439B3E"/>
<path d="M25.4073 10.3112H24.5898V11.1287H25.4073V10.3112Z" fill="#439B3E"/>
<path d="M25.4073 9.5025H24.5898V10.3125H25.4073V9.5025Z" fill="#439B3E"/>
<path d="M25.4073 8.685H24.5898V9.5025H25.4073V8.685Z" fill="black"/>
<path d="M24.5912 40.4375H23.7812V41.2475H24.5912V40.4375Z" fill="#020000"/>
<path d="M24.5912 39.62H23.7812V40.4375H24.5912V39.62Z" fill="#2B1910"/>
<path d="M24.5912 38.8112H23.7812V39.6213H24.5912V38.8112Z" fill="#2B1910"/>
<path d="M24.5912 37.9925H23.7812V38.81H24.5912V37.9925Z" fill="#2B1910"/>
<path d="M24.5912 37.1825H23.7812V37.9925H24.5912V37.1825Z" fill="#2B1910"/>
<path d="M24.5912 36.365H23.7812V37.1825H24.5912V36.365Z" fill="#2B1910"/>
<path d="M24.5912 35.5562H23.7812V36.3662H24.5912V35.5562Z" fill="#381D18"/>
<path d="M24.5912 34.7387H23.7812V35.5562H24.5912V34.7387Z" fill="#381D18"/>
<path d="M24.5912 33.92H23.7812V34.7375H24.5912V33.92Z" fill="#381D18"/>
<path d="M24.5912 33.11H23.7812V33.92H24.5912V33.11Z" fill="#381D18"/>
<path d="M24.5912 32.2925H23.7812V33.11H24.5912V32.2925Z" fill="#020000"/>
<path d="M24.5912 31.4838H23.7812V32.2938H24.5912V31.4838Z" fill="#00FFE2"/>
<path d="M24.5912 30.6663H23.7812V31.4838H24.5912V30.6663Z" fill="#00FFE2"/>
<path d="M24.5912 29.8563H23.7812V30.6663H24.5912V29.8563Z" fill="#00FFE2"/>
<path d="M24.5912 29.0375H23.7812V29.855H24.5912V29.0375Z" fill="#00FFE2"/>
<path d="M24.5912 28.22H23.7812V29.0375H24.5912V28.22Z" fill="#00FFE2"/>
<path d="M24.5912 27.4113H23.7812V28.2213H24.5912V27.4113Z" fill="#020000"/>
<path d="M24.5912 26.5938H23.7812V27.4112H24.5912V26.5938Z" fill="#00FFE2"/>
<path d="M24.5912 25.7838H23.7812V26.5938H24.5912V25.7838Z" fill="#05D6B8"/>
<path d="M24.5912 24.965H23.7812V25.7825H24.5912V24.965Z" fill="#05D6B8"/>
<path d="M24.5912 24.1562H23.7812V24.9662H24.5912V24.1562Z" fill="#05D6B8"/>
<path d="M24.5912 23.3387H23.7812V24.1562H24.5912V23.3387Z" fill="#020000"/>
<path d="M24.5912 22.5287H23.7812V23.3387H24.5912V22.5287Z" fill="#439B3E"/>
<path d="M24.5912 21.7112H23.7812V22.5287H24.5912V21.7112Z" fill="#439B3E"/>
<path d="M24.5912 20.8925H23.7812V21.71H24.5912V20.8925Z" fill="#020000"/>
<path d="M24.5912 20.0837H23.7812V20.8937H24.5912V20.0837Z" fill="#00FFE2"/>
<path d="M24.5912 19.2662H23.7812V20.0837H24.5912V19.2662Z" fill="#00FFE2"/>
<path d="M24.5912 18.4562H23.7812V19.2662H24.5912V18.4562Z" fill="#00FFE2"/>
<path d="M24.5912 17.6388H23.7812V18.4563H24.5912V17.6388Z" fill="#717A97"/>
<path d="M24.5912 16.83H23.7812V17.64H24.5912V16.83Z" fill="#717A97"/>
<path d="M24.5912 16.0113H23.7812V16.8288H24.5912V16.0113Z" fill="#717A97"/>
<path d="M24.5912 15.1938H23.7812V16.0113H24.5912V15.1938Z" fill="#8E4E38"/>
<path d="M24.5912 14.3838H23.7812V15.1938H24.5912V14.3838Z" fill="#8E4E38"/>
<path d="M24.5912 13.5675H23.7812V14.385H24.5912V13.5675Z" fill="#439B3E"/>
<path d="M24.5912 12.7575H23.7812V13.5675H24.5912V12.7575Z" fill="#8E4E38"/>
<path d="M24.5912 11.9388H23.7812V12.7563H24.5912V11.9388Z" fill="#439B3E"/>
<path d="M24.5912 11.1288H23.7812V11.9388H24.5912V11.1288Z" fill="black"/>
<path d="M24.5912 10.3112H23.7812V11.1287H24.5912V10.3112Z" fill="#439B3E"/>
<path d="M24.5912 9.5025H23.7812V10.3125H24.5912V9.5025Z" fill="#439B3E"/>
<path d="M24.5912 8.685H23.7812V9.5025H24.5912V8.685Z" fill="black"/>
<path d="M23.7814 39.62H22.9639V40.4375H23.7814V39.62Z" fill="#020000"/>
<path d="M23.7814 38.8112H22.9639V39.6213H23.7814V38.8112Z" fill="#2B1910"/>
<path d="M23.7814 37.9925H22.9639V38.81H23.7814V37.9925Z" fill="#2B1910"/>
<path d="M23.7814 37.1825H22.9639V37.9925H23.7814V37.1825Z" fill="#2B1910"/>
<path d="M23.7814 36.365H22.9639V37.1825H23.7814V36.365Z" fill="#2B1910"/>
<path d="M23.7814 35.5562H22.9639V36.3662H23.7814V35.5562Z" fill="#49302B"/>
<path d="M23.7814 34.7387H22.9639V35.5562H23.7814V34.7387Z" fill="#49302B"/>
<path d="M23.7814 33.92H22.9639V34.7375H23.7814V33.92Z" fill="#381D18"/>
<path d="M23.7814 33.11H22.9639V33.92H23.7814V33.11Z" fill="#381D18"/>
<path d="M23.7814 32.2925H22.9639V33.11H23.7814V32.2925Z" fill="#020000"/>
<path d="M23.7814 31.4838H22.9639V32.2938H23.7814V31.4838Z" fill="#00FFE2"/>
<path d="M23.7814 30.6663H22.9639V31.4838H23.7814V30.6663Z" fill="#00FFE2"/>
<path d="M23.7814 29.8563H22.9639V30.6663H23.7814V29.8563Z" fill="#00FFE2"/>
<path d="M23.7814 29.0375H22.9639V29.855H23.7814V29.0375Z" fill="#00FFE2"/>
<path d="M23.7814 28.22H22.9639V29.0375H23.7814V28.22Z" fill="#00FFE2"/>
<path d="M23.7814 27.4113H22.9639V28.2213H23.7814V27.4113Z" fill="#020000"/>
<path d="M23.7814 26.5938H22.9639V27.4112H23.7814V26.5938Z" fill="#00FFE2"/>
<path d="M23.7814 25.7838H22.9639V26.5938H23.7814V25.7838Z" fill="#00FFE2"/>
<path d="M23.7814 24.965H22.9639V25.7825H23.7814V24.965Z" fill="#05D6B8"/>
<path d="M23.7814 24.1562H22.9639V24.9662H23.7814V24.1562Z" fill="#020000"/>
<path d="M23.7814 23.3387H22.9639V24.1562H23.7814V23.3387Z" fill="#439B3E"/>
<path d="M23.7814 22.5287H22.9639V23.3387H23.7814V22.5287Z" fill="#439B3E"/>
<path d="M23.7814 21.7112H22.9639V22.5287H23.7814V21.7112Z" fill="#439B3E"/>
<path d="M23.7814 20.8925H22.9639V21.71H23.7814V20.8925Z" fill="#439B3E"/>
<path d="M23.7814 20.0837H22.9639V20.8937H23.7814V20.0837Z" fill="#020000"/>
<path d="M23.7814 19.2662H22.9639V20.0837H23.7814V19.2662Z" fill="#00FFE2"/>
<path d="M23.7814 18.4562H22.9639V19.2662H23.7814V18.4562Z" fill="#00FFE2"/>
<path d="M23.7814 17.6388H22.9639V18.4563H23.7814V17.6388Z" fill="#717A97"/>
<path d="M23.7814 16.83H22.9639V17.64H23.7814V16.83Z" fill="#717A97"/>
<path d="M23.7814 16.0113H22.9639V16.8288H23.7814V16.0113Z" fill="#717A97"/>
<path d="M23.7814 15.1938H22.9639V16.0113H23.7814V15.1938Z" fill="#586689"/>
<path d="M23.7814 14.3838H22.9639V15.1938H23.7814V14.3838Z" fill="#8E4E38"/>
<path d="M23.7814 13.5675H22.9639V14.385H23.7814V13.5675Z" fill="#8E4E38"/>
<path d="M23.7814 12.7575H22.9639V13.5675H23.7814V12.7575Z" fill="#8E4E38"/>
<path d="M23.7814 11.9388H22.9639V12.7563H23.7814V11.9388Z" fill="#439B3E"/>
<path d="M23.7814 11.1288H22.9639V11.9388H23.7814V11.1288Z" fill="#FF0031"/>
<path d="M23.7814 10.3112H22.9639V11.1287H23.7814V10.3112Z" fill="black"/>
<path d="M23.7814 9.5025H22.9639V10.3125H23.7814V9.5025Z" fill="black"/>
<path d="M22.9638 40.4375H22.1538V41.2475H22.9638V40.4375Z" fill="#020000"/>
<path d="M22.9638 39.62H22.1538V40.4375H22.9638V39.62Z" fill="#2B1910"/>
<path d="M22.9638 38.8112H22.1538V39.6213H22.9638V38.8112Z" fill="#2B1910"/>
<path d="M22.9638 37.9925H22.1538V38.81H22.9638V37.9925Z" fill="#2B1910"/>
<path d="M22.9638 37.1825H22.1538V37.9925H22.9638V37.1825Z" fill="#2B1910"/>
<path d="M22.9638 36.365H22.1538V37.1825H22.9638V36.365Z" fill="#2B1910"/>
<path d="M22.9638 35.5562H22.1538V36.3662H22.9638V35.5562Z" fill="#49302B"/>
<path d="M22.9638 34.7387H22.1538V35.5562H22.9638V34.7387Z" fill="#49302B"/>
<path d="M22.9638 33.92H22.1538V34.7375H22.9638V33.92Z" fill="#49302B"/>
<path d="M22.9638 33.11H22.1538V33.92H22.9638V33.11Z" fill="#381D18"/>
<path d="M22.9638 32.2925H22.1538V33.11H22.9638V32.2925Z" fill="#020000"/>
<path d="M22.9638 31.4838H22.1538V32.2938H22.9638V31.4838Z" fill="#00FFE2"/>
<path d="M22.9638 30.6663H22.1538V31.4838H22.9638V30.6663Z" fill="#00FFE2"/>
<path d="M22.9638 29.8563H22.1538V30.6663H22.9638V29.8563Z" fill="#00FFE2"/>
<path d="M22.9638 29.0375H22.1538V29.855H22.9638V29.0375Z" fill="#00FFE2"/>
<path d="M22.9638 28.22H22.1538V29.0375H22.9638V28.22Z" fill="#00FFE2"/>
<path d="M22.9638 27.4113H22.1538V28.2213H22.9638V27.4113Z" fill="#E5DAD4"/>
<path d="M22.9638 26.5938H22.1538V27.4112H22.9638V26.5938Z" fill="#E5DAD4"/>
<path d="M22.9638 25.7838H22.1538V26.5938H22.9638V25.7838Z" fill="#E5DAD4"/>
<path d="M22.9638 24.965H22.1538V25.7825H22.9638V24.965Z" fill="#05D6B8"/>
<path d="M22.9638 24.1562H22.1538V24.9662H22.9638V24.1562Z" fill="#020000"/>
<path d="M22.9638 23.3387H22.1538V24.1562H22.9638V23.3387Z" fill="#439B3E"/>
<path d="M22.9638 22.5287H22.1538V23.3387H22.9638V22.5287Z" fill="#439B3E"/>
<path d="M22.9638 21.7112H22.1538V22.5287H22.9638V21.7112Z" fill="black"/>
<path d="M22.9638 20.8925H22.1538V21.71H22.9638V20.8925Z" fill="#E5DAD4"/>
<path d="M22.9638 20.0837H22.1538V20.8937H22.9638V20.0837Z" fill="#020000"/>
<path d="M22.9638 19.2662H22.1538V20.0837H22.9638V19.2662Z" fill="#00FFE2"/>
<path d="M22.9638 18.4562H22.1538V19.2662H22.9638V18.4562Z" fill="#00FFE2"/>
<path d="M22.9638 17.6388H22.1538V18.4563H22.9638V17.6388Z" fill="#717A97"/>
<path d="M22.9638 16.83H22.1538V17.64H22.9638V16.83Z" fill="#717A97"/>
<path d="M22.9638 16.0113H22.1538V16.8288H22.9638V16.0113Z" fill="#717A97"/>
<path d="M22.9638 15.1938H22.1538V16.0113H22.9638V15.1938Z" fill="#00FFE2"/>
<path d="M22.9638 14.3838H22.1538V15.1938H22.9638V14.3838Z" fill="black"/>
<path d="M22.9638 13.5675H22.1538V14.385H22.9638V13.5675Z" fill="black"/>
<path d="M22.9638 12.7575H22.1538V13.5675H22.9638V12.7575Z" fill="black"/>
<path d="M22.9638 11.9388H22.1538V12.7563H22.9638V11.9388Z" fill="black"/>
<path d="M22.9638 11.1288H22.1538V11.9388H22.9638V11.1288Z" fill="black"/>
<path d="M22.9638 10.3112H22.1538V11.1287H22.9638V10.3112Z" fill="black"/>
<path d="M22.1539 40.4375H21.3364V41.2475H22.1539V40.4375Z" fill="#020000"/>
<path d="M22.1539 39.62H21.3364V40.4375H22.1539V39.62Z" fill="#2B1910"/>
<path d="M22.1539 38.8112H21.3364V39.6213H22.1539V38.8112Z" fill="#2B1910"/>
<path d="M22.1539 37.9925H21.3364V38.81H22.1539V37.9925Z" fill="#2B1910"/>
<path d="M22.1539 37.1825H21.3364V37.9925H22.1539V37.1825Z" fill="#2B1910"/>
<path d="M22.1539 36.365H21.3364V37.1825H22.1539V36.365Z" fill="#2B1910"/>
<path d="M22.1539 35.5562H21.3364V36.3662H22.1539V35.5562Z" fill="#49302B"/>
<path d="M22.1539 34.7387H21.3364V35.5562H22.1539V34.7387Z" fill="#49302B"/>
<path d="M22.1539 33.92H21.3364V34.7375H22.1539V33.92Z" fill="#49302B"/>
<path d="M22.1539 33.11H21.3364V33.92H22.1539V33.11Z" fill="#49302B"/>
<path d="M22.1539 32.2925H21.3364V33.11H22.1539V32.2925Z" fill="#020000"/>
<path d="M22.1539 31.4838H21.3364V32.2938H22.1539V31.4838Z" fill="#00FFE2"/>
<path d="M22.1539 30.6663H21.3364V31.4838H22.1539V30.6663Z" fill="#00FFE2"/>
<path d="M22.1539 29.8563H21.3364V30.6663H22.1539V29.8563Z" fill="#00FFE2"/>
<path d="M22.1539 29.0375H21.3364V29.855H22.1539V29.0375Z" fill="#00FFE2"/>
<path d="M22.1539 28.22H21.3364V29.0375H22.1539V28.22Z" fill="#00FFE2"/>
<path d="M22.1539 27.4113H21.3364V28.2213H22.1539V27.4113Z" fill="#E5DAD4"/>
<path d="M22.1539 26.5938H21.3364V27.4112H22.1539V26.5938Z" fill="#E5DAD4"/>
<path d="M22.1539 25.7838H21.3364V26.5938H22.1539V25.7838Z" fill="#E5DAD4"/>
<path d="M22.1539 24.965H21.3364V25.7825H22.1539V24.965Z" fill="#E5DAD4"/>
<path d="M22.1539 24.1562H21.3364V24.9662H22.1539V24.1562Z" fill="#E5DAD4"/>
<path d="M22.1539 23.3387H21.3364V24.1562H22.1539V23.3387Z" fill="black"/>
<path d="M22.1539 22.5287H21.3364V23.3387H22.1539V22.5287Z" fill="#E5DAD4"/>
<path d="M22.1539 21.7112H21.3364V22.5287H22.1539V21.7112Z" fill="#E5DAD4"/>
<path d="M22.1539 20.8925H21.3364V21.71H22.1539V20.8925Z" fill="#E5DAD4"/>
<path d="M22.1539 20.0837H21.3364V20.8937H22.1539V20.0837Z" fill="#E5DAD4"/>
<path d="M22.1539 19.2662H21.3364V20.0837H22.1539V19.2662Z" fill="#05D6B8"/>
<path d="M22.1539 18.4562H21.3364V19.2662H22.1539V18.4562Z" fill="#00FFE2"/>
<path d="M22.1539 17.6388H21.3364V18.4563H22.1539V17.6388Z" fill="#00FFE2"/>
<path d="M22.1539 16.83H21.3364V17.64H22.1539V16.83Z" fill="#00FFE2"/>
<path d="M22.1539 16.0113H21.3364V16.8288H22.1539V16.0113Z" fill="#00FFE2"/>
<path d="M22.1539 15.1938H21.3364V16.0113H22.1539V15.1938Z" fill="#050100"/>
<path d="M21.3351 40.4375H20.5176V41.2475H21.3351V40.4375Z" fill="#020000"/>
<path d="M21.3351 39.62H20.5176V40.4375H21.3351V39.62Z" fill="#2B1910"/>
<path d="M21.3351 38.8112H20.5176V39.6213H21.3351V38.8112Z" fill="#2B1910"/>
<path d="M21.3351 37.9925H20.5176V38.81H21.3351V37.9925Z" fill="#020000"/>
<path d="M21.3351 37.1825H20.5176V37.9925H21.3351V37.1825Z" fill="#020000"/>
<path d="M21.3351 36.365H20.5176V37.1825H21.3351V36.365Z" fill="#020000"/>
<path d="M21.3351 35.5562H20.5176V36.3662H21.3351V35.5562Z" fill="#49302B"/>
<path d="M21.3351 34.7387H20.5176V35.5562H21.3351V34.7387Z" fill="#49302B"/>
<path d="M21.3351 33.92H20.5176V34.7375H21.3351V33.92Z" fill="#49302B"/>
<path d="M21.3351 33.11H20.5176V33.92H21.3351V33.11Z" fill="#49302B"/>
<path d="M21.3351 32.2925H20.5176V33.11H21.3351V32.2925Z" fill="#020000"/>
<path d="M21.3351 31.4838H20.5176V32.2938H21.3351V31.4838Z" fill="#00FFE2"/>
<path d="M21.3351 30.6663H20.5176V31.4838H21.3351V30.6663Z" fill="#05D6B8"/>
<path d="M21.3351 29.8563H20.5176V30.6663H21.3351V29.8563Z" fill="#00FFE2"/>
<path d="M21.3351 29.0375H20.5176V29.855H21.3351V29.0375Z" fill="#00FFE2"/>
<path d="M21.3351 28.22H20.5176V29.0375H21.3351V28.22Z" fill="#00FFE2"/>
<path d="M21.3351 27.4113H20.5176V28.2213H21.3351V27.4113Z" fill="#E5DAD4"/>
<path d="M21.3351 26.5938H20.5176V27.4112H21.3351V26.5938Z" fill="#E5DAD4"/>
<path d="M21.3351 25.7838H20.5176V26.5938H21.3351V25.7838Z" fill="#E5DAD4"/>
<path d="M21.3351 24.965H20.5176V25.7825H21.3351V24.965Z" fill="#E5DAD4"/>
<path d="M21.3351 24.1562H20.5176V24.9662H21.3351V24.1562Z" fill="#E5DAD4"/>
<path d="M21.3351 23.3387H20.5176V24.1562H21.3351V23.3387Z" fill="#E5DAD4"/>
<path d="M21.3351 22.5287H20.5176V23.3387H21.3351V22.5287Z" fill="#E5DAD4"/>
<path d="M21.3351 21.7112H20.5176V22.5287H21.3351V21.7112Z" fill="#E5DAD4"/>
<path d="M21.3351 20.8925H20.5176V21.71H21.3351V20.8925Z" fill="black"/>
<path d="M21.3351 20.0837H20.5176V20.8937H21.3351V20.0837Z" fill="black"/>
<path d="M21.3351 19.2662H20.5176V20.0837H21.3351V19.2662Z" fill="#05D6B8"/>
<path d="M21.3351 18.4562H20.5176V19.2662H21.3351V18.4562Z" fill="#05D6B8"/>
<path d="M21.3351 17.6388H20.5176V18.4563H21.3351V17.6388Z" fill="#00FFE2"/>
<path d="M21.3351 16.83H20.5176V17.64H21.3351V16.83Z" fill="#00FFE2"/>
<path d="M21.3351 16.0113H20.5176V16.8288H21.3351V16.0113Z" fill="#586689"/>
<path d="M21.3351 15.1938H20.5176V16.0113H21.3351V15.1938Z" fill="#586689"/>
<path d="M21.3351 14.3838H20.5176V15.1938H21.3351V14.3838Z" fill="#050100"/>
<path d="M20.519 40.4375H19.709V41.2475H20.519V40.4375Z" fill="#020000"/>
<path d="M20.519 39.62H19.709V40.4375H20.519V39.62Z" fill="#2B1910"/>
<path d="M20.519 38.8112H19.709V39.6213H20.519V38.8112Z" fill="#2B1910"/>
<path d="M20.519 36.365H19.709V37.1825H20.519V36.365Z" fill="#020000"/>
<path d="M20.519 35.5562H19.709V36.3662H20.519V35.5562Z" fill="#020000"/>
<path d="M20.519 34.7387H19.709V35.5562H20.519V34.7387Z" fill="#020100"/>
<path d="M20.519 33.92H19.709V34.7375H20.519V33.92Z" fill="#49302B"/>
<path d="M20.519 33.11H19.709V33.92H20.519V33.11Z" fill="#49302B"/>
<path d="M20.519 32.2925H19.709V33.11H20.519V32.2925Z" fill="#020000"/>
<path d="M20.519 31.4838H19.709V32.2938H20.519V31.4838Z" fill="#05D6B8"/>
<path d="M20.519 30.6663H19.709V31.4838H20.519V30.6663Z" fill="#00FFE2"/>
<path d="M20.519 29.8563H19.709V30.6663H20.519V29.8563Z" fill="#00FFE2"/>
<path d="M20.519 29.0375H19.709V29.855H20.519V29.0375Z" fill="#00FFE2"/>
<path d="M20.519 28.22H19.709V29.0375H20.519V28.22Z" fill="#05D6B8"/>
<path d="M20.519 27.4113H19.709V28.2213H20.519V27.4113Z" fill="#020000"/>
<path d="M20.519 26.5938H19.709V27.4112H20.519V26.5938Z" fill="#00FFE2"/>
<path d="M20.519 25.7838H19.709V26.5938H20.519V25.7838Z" fill="#E5DAD4"/>
<path d="M20.519 24.965H19.709V25.7825H20.519V24.965Z" fill="#E5DAD4"/>
<path d="M20.519 24.1562H19.709V24.9662H20.519V24.1562Z" fill="#E5DAD4"/>
<path d="M20.519 23.3387H19.709V24.1562H20.519V23.3387Z" fill="#E5DAD4"/>
<path d="M20.519 22.5287H19.709V23.3387H20.519V22.5287Z" fill="#E5DAD4"/>
<path d="M20.519 21.7112H19.709V22.5287H20.519V21.7112Z" fill="black"/>
<path d="M20.519 20.8925H19.709V21.71H20.519V20.8925Z" fill="#439B3E"/>
<path d="M20.519 20.0837H19.709V20.8937H20.519V20.0837Z" fill="#439B3E"/>
<path d="M20.519 19.2662H19.709V20.0837H20.519V19.2662Z" fill="#020000"/>
<path d="M20.519 18.4562H19.709V19.2662H20.519V18.4562Z" fill="#020000"/>
<path d="M20.519 17.6388H19.709V18.4563H20.519V17.6388Z" fill="#020000"/>
<path d="M20.519 16.83H19.709V17.64H20.519V16.83Z" fill="#586689"/>
<path d="M20.519 16.0113H19.709V16.8288H20.519V16.0113Z" fill="#586689"/>
<path d="M20.519 15.1938H19.709V16.0113H20.519V15.1938Z" fill="#586689"/>
<path d="M20.519 14.3838H19.709V15.1938H20.519V14.3838Z" fill="#050100"/>
<path d="M19.7086 40.4375H18.8911V41.2475H19.7086V40.4375Z" fill="#020000"/>
<path d="M19.7086 39.62H18.8911V40.4375H19.7086V39.62Z" fill="#020000"/>
<path d="M19.7086 38.8112H18.8911V39.6213H19.7086V38.8112Z" fill="#020000"/>
<path d="M19.7086 33.92H18.8911V34.7375H19.7086V33.92Z" fill="#020100"/>
<path d="M19.7086 33.11H18.8911V33.92H19.7086V33.11Z" fill="#020000"/>
<path d="M19.7086 32.2925H18.8911V33.11H19.7086V32.2925Z" fill="#020000"/>
<path d="M19.7086 31.4838H18.8911V32.2938H19.7086V31.4838Z" fill="#05D6B8"/>
<path d="M19.7086 30.6663H18.8911V31.4838H19.7086V30.6663Z" fill="#05D6B8"/>
<path d="M19.7086 29.8563H18.8911V30.6663H19.7086V29.8563Z" fill="#00FFE2"/>
<path d="M19.7086 29.0375H18.8911V29.855H19.7086V29.0375Z" fill="#05D6B8"/>
<path d="M19.7086 28.22H18.8911V29.0375H19.7086V28.22Z" fill="#05D6B8"/>
<path d="M19.7086 27.4113H18.8911V28.2213H19.7086V27.4113Z" fill="black"/>
<path d="M19.7086 26.5938H18.8911V27.4112H19.7086V26.5938Z" fill="#020000"/>
<path d="M19.7086 25.7838H18.8911V26.5938H19.7086V25.7838Z" fill="#00FFE2"/>
<path d="M19.7086 24.965H18.8911V25.7825H19.7086V24.965Z" fill="#E5DAD4"/>
<path d="M19.7086 24.1562H18.8911V24.9662H19.7086V24.1562Z" fill="#E5DAD4"/>
<path d="M19.7086 23.3387H18.8911V24.1562H19.7086V23.3387Z" fill="#020000"/>
<path d="M19.7086 22.5287H18.8911V23.3387H19.7086V22.5287Z" fill="#439B3E"/>
<path d="M19.7086 21.7112H18.8911V22.5287H19.7086V21.7112Z" fill="#439B3E"/>
<path d="M19.7086 20.8925H18.8911V21.71H19.7086V20.8925Z" fill="#439B3E"/>
<path d="M19.7086 20.0837H18.8911V20.8937H19.7086V20.0837Z" fill="#439B3E"/>
<path d="M19.7086 19.2662H18.8911V20.0837H19.7086V19.2662Z" fill="#020000"/>
<path d="M19.7086 18.4562H18.8911V19.2662H19.7086V18.4562Z" fill="#439B3E"/>
<path d="M19.7086 17.6388H18.8911V18.4563H19.7086V17.6388Z" fill="#439B3E"/>
<path d="M19.7086 16.83H18.8911V17.64H19.7086V16.83Z" fill="#439B3E"/>
<path d="M19.7086 16.0113H18.8911V16.8288H19.7086V16.0113Z" fill="#586689"/>
<path d="M19.7086 15.1938H18.8911V16.0113H19.7086V15.1938Z" fill="#020000"/>
<path d="M18.8911 32.2925H18.0811V33.11H18.8911V32.2925Z" fill="#020000"/>
<path d="M18.8911 31.4838H18.0811V32.2938H18.8911V31.4838Z" fill="#020000"/>
<path d="M18.8911 30.6663H18.0811V31.4838H18.8911V30.6663Z" fill="#020000"/>
<path d="M18.8911 29.8563H18.0811V30.6663H18.8911V29.8563Z" fill="#020000"/>
<path d="M18.8911 29.0375H18.0811V29.855H18.8911V29.0375Z" fill="#020000"/>
<path d="M18.8911 28.22H18.0811V29.0375H18.8911V28.22Z" fill="#020000"/>
<path d="M18.8911 27.4113H18.0811V28.2213H18.8911V27.4113Z" fill="#020000"/>
<path d="M18.8911 26.5938H18.0811V27.4112H18.8911V26.5938Z" fill="black"/>
<path d="M18.8911 25.7838H18.0811V26.5938H18.8911V25.7838Z" fill="#020000"/>
<path d="M18.8911 24.965H18.0811V25.7825H18.8911V24.965Z" fill="#020000"/>
<path d="M18.8911 24.1562H18.0811V24.9662H18.8911V24.1562Z" fill="#020000"/>
<path d="M18.8911 23.3387H18.0811V24.1562H18.8911V23.3387Z" fill="#020000"/>
<path d="M18.8911 22.5287H18.0811V23.3387H18.8911V22.5287Z" fill="#439B3E"/>
<path d="M18.8911 21.7112H18.0811V22.5287H18.8911V21.7112Z" fill="#439B3E"/>
<path d="M18.8911 20.8925H18.0811V21.71H18.8911V20.8925Z" fill="#439B3E"/>
<path d="M18.8911 20.0837H18.0811V20.8937H18.8911V20.0837Z" fill="#439B3E"/>
<path d="M18.8911 19.2662H18.0811V20.0837H18.8911V19.2662Z" fill="#020000"/>
<path d="M18.8911 18.4562H18.0811V19.2662H18.8911V18.4562Z" fill="#439B3E"/>
<path d="M18.8911 17.6388H18.0811V18.4563H18.8911V17.6388Z" fill="#439B3E"/>
<path d="M18.8911 16.83H18.0811V17.64H18.8911V16.83Z" fill="#439B3E"/>
<path d="M18.8911 16.0113H18.0811V16.8288H18.8911V16.0113Z" fill="#020000"/>
<path d="M18.0812 23.3387H17.2637V24.1562H18.0812V23.3387Z" fill="#020000"/>
<path d="M18.0812 22.5287H17.2637V23.3387H18.0812V22.5287Z" fill="#020000"/>
<path d="M18.0812 21.7112H17.2637V22.5287H18.0812V21.7112Z" fill="#020000"/>
<path d="M18.0812 20.8925H17.2637V21.71H18.0812V20.8925Z" fill="#439B3E"/>
<path d="M18.0812 20.0837H17.2637V20.8937H18.0812V20.0837Z" fill="#439B3E"/>
<path d="M18.0812 19.2662H17.2637V20.0837H18.0812V19.2662Z" fill="#439B3E"/>
<path d="M18.0812 18.4562H17.2637V19.2662H18.0812V18.4562Z" fill="#439B3E"/>
<path d="M18.0812 17.6388H17.2637V18.4563H18.0812V17.6388Z" fill="#34872D"/>
<path d="M18.0812 16.83H17.2637V17.64H18.0812V16.83Z" fill="#439B3E"/>
<path d="M18.0812 16.0113H17.2637V16.8288H18.0812V16.0113Z" fill="#020000"/>
<path d="M17.2651 21.7112H16.4551V22.5287H17.2651V21.7112Z" fill="#020000"/>
<path d="M17.2651 20.8925H16.4551V21.71H17.2651V20.8925Z" fill="#439B3E"/>
<path d="M17.2651 20.0837H16.4551V20.8937H17.2651V20.0837Z" fill="#439B3E"/>
<path d="M17.2651 19.2662H16.4551V20.0837H17.2651V19.2662Z" fill="#439B3E"/>
<path d="M17.2651 18.4562H16.4551V19.2662H17.2651V18.4562Z" fill="#34872D"/>
<path d="M17.2651 17.6388H16.4551V18.4563H17.2651V17.6388Z" fill="#439B3E"/>
<path d="M17.2651 16.83H16.4551V17.64H17.2651V16.83Z" fill="#020000"/>
<path d="M16.4537 21.7112H15.6362V22.5287H16.4537V21.7112Z" fill="#020000"/>
<path d="M16.4537 20.8925H15.6362V21.71H16.4537V20.8925Z" fill="#439B3E"/>
<path d="M16.4537 20.0837H15.6362V20.8937H16.4537V20.0837Z" fill="#439B3E"/>
<path d="M16.4537 19.2662H15.6362V20.0837H16.4537V19.2662Z" fill="#439B3E"/>
<path d="M16.4537 18.4562H15.6362V19.2662H16.4537V18.4562Z" fill="#439B3E"/>
<path d="M16.4537 17.6388H15.6362V18.4563H16.4537V17.6388Z" fill="#439B3E"/>
<path d="M16.4537 16.83H15.6362V17.64H16.4537V16.83Z" fill="#050100"/>
<path d="M15.6363 20.8925H14.8188V21.71H15.6363V20.8925Z" fill="#020000"/>
<path d="M15.6363 20.0837H14.8188V20.8937H15.6363V20.0837Z" fill="#439B3E"/>
<path d="M15.6363 19.2662H14.8188V20.0837H15.6363V19.2662Z" fill="#439B3E"/>
<path d="M15.6363 18.4562H14.8188V19.2662H15.6363V18.4562Z" fill="#439B3E"/>
<path d="M15.6363 17.6388H14.8188V18.4563H15.6363V17.6388Z" fill="#020000"/>
<path d="M14.8188 20.0837H14.0088V20.8937H14.8188V20.0837Z" fill="#020000"/>
<path d="M14.8188 19.2662H14.0088V20.0837H14.8188V19.2662Z" fill="#020000"/>
<path d="M14.8188 18.4562H14.0088V19.2662H14.8188V18.4562Z" fill="#020000"/>
</g>
<defs>
<clipPath id="clip0_69_12150">
<rect width="50" height="50" fill="white"/>
</clipPath>
</defs>
</svg>
