<svg width="50" height="50" viewBox="0 0 50 50" fill="none" xmlns="http://www.w3.org/2000/svg">
<g clip-path="url(#clip0_69_12149)">
<path d="M24.9998 48.2225C37.8253 48.2225 48.2223 37.8254 48.2223 25C48.2223 12.1746 37.8253 1.7775 24.9998 1.7775C12.1744 1.7775 1.77734 12.1746 1.77734 25C1.77734 37.8254 12.1744 48.2225 24.9998 48.2225Z" fill="black"/>
<path d="M24.9998 49.0975C11.7123 49.0975 0.902344 38.2875 0.902344 25C0.902344 11.7125 11.7123 0.902496 24.9998 0.902496C38.2873 0.902496 49.0973 11.7125 49.0973 25C49.0973 38.2875 38.2873 49.0975 24.9998 49.0975ZM24.9998 2.6525C12.6773 2.6525 2.65234 12.6775 2.65234 25C2.65234 37.3225 12.6773 47.3475 24.9998 47.3475C37.3223 47.3475 47.3473 37.3225 47.3473 25C47.3473 12.6775 37.3223 2.6525 24.9998 2.6525Z" fill="#EF0012"/>
<path d="M27.7287 29.265H26.7925V30.1912H27.7287V29.265Z" fill="#544B56"/>
<path d="M35.1777 40.4487H34.2515V41.375H35.1777V40.4487Z" fill="black"/>
<path d="M22.1313 40.4487H21.2051V41.375H22.1313V40.4487Z" fill="black"/>
<path d="M34.2512 40.4487H33.3149V41.375H34.2512V40.4487Z" fill="black"/>
<path d="M33.3149 40.4487H32.3799V41.375H33.3149V40.4487Z" fill="black"/>
<path d="M30.5161 40.4487H29.5898V41.375H30.5161V40.4487Z" fill="black"/>
<path d="M31.4524 40.4487H30.5161V41.375H31.4524V40.4487Z" fill="black"/>
<path d="M32.3789 40.4487H31.4526V41.375H32.3789V40.4487Z" fill="black"/>
<path d="M24.9299 40.4487H23.9937V41.375H24.9299V40.4487Z" fill="black"/>
<path d="M23.9936 40.4487H23.0674V41.375H23.9936V40.4487Z" fill="black"/>
<path d="M23.0676 40.4487H22.1313V41.375H23.0676V40.4487Z" fill="black"/>
<path d="M26.7925 40.4487H25.8662V41.375H26.7925V40.4487Z" fill="black"/>
<path d="M25.8664 40.4487H24.9302V41.375H25.8664V40.4487Z" fill="black"/>
<path d="M28.6538 20.88H27.7275V21.8063H28.6538V20.88Z" fill="#9087B5"/>
<path d="M27.7287 20.88H26.7925V21.8063H27.7287V20.88Z" fill="#9087B5"/>
<path d="M26.7925 20.88H25.8662V21.8063H26.7925V20.88Z" fill="#9087B5"/>
<path d="M29.5901 20.88H28.6538V21.8063H29.5901V20.88Z" fill="#9087B5"/>
<path d="M33.3149 39.5125H32.3799V40.4488H33.3149V39.5125Z" fill="#544B56"/>
<path d="M27.7287 13.4212H26.7925V14.3575H27.7287V13.4212Z" fill="black"/>
<path d="M26.7925 13.4212H25.8662V14.3575H26.7925V13.4212Z" fill="black"/>
<path d="M30.5161 18.0812H29.5898V19.0175H30.5161V18.0812Z" fill="#F49364"/>
<path d="M30.5161 17.1462H29.5898V18.0825H30.5161V17.1462Z" fill="#F49364"/>
<path d="M27.7287 19.0175H26.7925V19.9437H27.7287V19.0175Z" fill="#FFEFD3"/>
<path d="M27.7287 17.1462H26.7925V18.0825H27.7287V17.1462Z" fill="#FFEFD3"/>
<path d="M28.6538 19.0175H27.7275V19.9437H28.6538V19.0175Z" fill="#FFEFD3"/>
<path d="M28.6538 18.0812H27.7275V19.0175H28.6538V18.0812Z" fill="#FFEFD3"/>
<path d="M27.7287 18.0812H26.7925V19.0175H27.7287V18.0812Z" fill="#FFEFD3"/>
<path d="M28.6538 17.1462H27.7275V18.0825H28.6538V17.1462Z" fill="#FFEFD3"/>
<path d="M26.7925 18.0812H25.8662V19.0175H26.7925V18.0812Z" fill="#FFEFD3"/>
<path d="M26.7925 17.1462H25.8662V18.0825H26.7925V17.1462Z" fill="#FFEFD3"/>
<path d="M26.7925 19.0175H25.8662V19.9437H26.7925V19.0175Z" fill="#FFEFD3"/>
<path d="M29.5901 18.0812H28.6538V19.0175H29.5901V18.0812Z" fill="#FFEFD3"/>
<path d="M29.5901 17.1462H28.6538V18.0825H29.5901V17.1462Z" fill="#FFEFD3"/>
<path d="M29.5901 19.0175H28.6538V19.9437H29.5901V19.0175Z" fill="#FFEFD3"/>
<path d="M18.4074 30.1913H17.4712V31.1275H18.4074V30.1913Z" fill="#F49364"/>
<path d="M17.4712 26.4675H16.5449V27.4037H17.4712V26.4675Z" fill="#F49364"/>
<path d="M18.4074 25.5413H17.4712V26.4675H18.4074V25.5413Z" fill="#F49364"/>
<path d="M17.4712 25.5413H16.5449V26.4675H17.4712V25.5413Z" fill="#F49364"/>
<path d="M27.7287 19.9438H26.7925V20.88H27.7287V19.9438Z" fill="#7A3124"/>
<path d="M28.6538 19.9438H27.7275V20.88H28.6538V19.9438Z" fill="#7A3124"/>
<path d="M29.5901 19.9438H28.6538V20.88H29.5901V19.9438Z" fill="#7A3124"/>
<path d="M30.5161 19.0175H29.5898V19.9437H30.5161V19.0175Z" fill="#7A3124"/>
<path d="M18.4074 29.265H17.4712V30.1912H18.4074V29.265Z" fill="#7A3124"/>
<path d="M18.4074 27.4025H17.4712V28.3287H18.4074V27.4025Z" fill="#7A3124"/>
<path d="M18.4074 26.4675H17.4712V27.4037H18.4074V26.4675Z" fill="#7A3124"/>
<path d="M17.4712 27.4025H16.5449V28.3287H17.4712V27.4025Z" fill="#7A3124"/>
<path d="M22.1313 27.4025H21.2051V28.3287H22.1313V27.4025Z" fill="#7A3124"/>
<path d="M22.1313 26.4675H21.2051V27.4037H22.1313V26.4675Z" fill="#7A3124"/>
<path d="M22.1313 25.5413H21.2051V26.4675H22.1313V25.5413Z" fill="#7A3124"/>
<path d="M23.0676 25.5413H22.1313V26.4675H23.0676V25.5413Z" fill="#7A3124"/>
<path d="M23.0676 26.4675H22.1313V27.4037H23.0676V26.4675Z" fill="#7A3124"/>
<path d="M23.0676 27.4025H22.1313V28.3287H23.0676V27.4025Z" fill="#7A3124"/>
<path d="M21.2048 26.4675H20.2686V27.4037H21.2048V26.4675Z" fill="#9087B5"/>
<path d="M21.2048 25.5413H20.2686V26.4675H21.2048V25.5413Z" fill="#9087B5"/>
<path d="M21.2048 27.4025H20.2686V28.3287H21.2048V27.4025Z" fill="#9087B5"/>
<path d="M17.4712 23.6688H16.5449V24.605H17.4712V23.6688Z" fill="#544B56"/>
<path d="M23.9936 35.7875H23.0674V36.7138H23.9936V35.7875Z" fill="#E7DACE"/>
<path d="M32.3789 35.7875H31.4526V36.7138H32.3789V35.7875Z" fill="#E7DACE"/>
<path d="M31.4524 35.7875H30.5161V36.7138H31.4524V35.7875Z" fill="#E7DACE"/>
<path d="M33.3149 22.7425H32.3799V23.6687H33.3149V22.7425Z" fill="#E7DACE"/>
<path d="M31.4524 23.6688H30.5161V24.605H31.4524V23.6688Z" fill="#E7DACE"/>
<path d="M31.4524 22.7425H30.5161V23.6687H31.4524V22.7425Z" fill="#E7DACE"/>
<path d="M31.4524 25.5413H30.5161V26.4675H31.4524V25.5413Z" fill="#E7DACE"/>
<path d="M31.4524 24.605H30.5161V25.5412H31.4524V24.605Z" fill="#E7DACE"/>
<path d="M32.3789 22.7425H31.4526V23.6687H32.3789V22.7425Z" fill="#E7DACE"/>
<path d="M31.4524 20.88H30.5161V21.8063H31.4524V20.88Z" fill="#E7DACE"/>
<path d="M32.3789 20.88H31.4526V21.8063H32.3789V20.88Z" fill="#E7DACE"/>
<path d="M28.6538 12.495H27.7275V13.4212H28.6538V12.495Z" fill="#E7DACE"/>
<path d="M27.7287 12.495H26.7925V13.4212H27.7287V12.495Z" fill="#E7DACE"/>
<path d="M29.5901 12.495H28.6538V13.4212H29.5901V12.495Z" fill="#E7DACE"/>
<path d="M27.7287 22.7425H26.7925V23.6687H27.7287V22.7425Z" fill="#E7DACE"/>
<path d="M28.6538 23.6688H27.7275V24.605H28.6538V23.6688Z" fill="#E7DACE"/>
<path d="M28.6538 21.8062H27.7275V22.7425H28.6538V21.8062Z" fill="#E7DACE"/>
<path d="M27.7287 24.605H26.7925V25.5412H27.7287V24.605Z" fill="#E7DACE"/>
<path d="M27.7287 23.6688H26.7925V24.605H27.7287V23.6688Z" fill="#E7DACE"/>
<path d="M28.6538 22.7425H27.7275V23.6687H28.6538V22.7425Z" fill="#E7DACE"/>
<path d="M21.2048 28.3287H20.2686V29.265H21.2048V28.3287Z" fill="#544B56"/>
<path d="M20.2685 27.4025H19.3423V28.3287H20.2685V27.4025Z" fill="#544B56"/>
<path d="M20.2685 26.4675H19.3423V27.4037H20.2685V26.4675Z" fill="#544B56"/>
<path d="M19.3425 26.4675H18.4062V27.4037H19.3425V26.4675Z" fill="#544B56"/>
<path d="M19.3425 27.4025H18.4062V28.3287H19.3425V27.4025Z" fill="#544B56"/>
<path d="M34.2512 39.5125H33.3149V40.4488H34.2512V39.5125Z" fill="#544B56"/>
<path d="M33.3149 38.5775H32.3799V39.5125H33.3149V38.5775Z" fill="#544B56"/>
<path d="M30.5161 36.715H29.5898V37.65H30.5161V36.715Z" fill="#544B56"/>
<path d="M32.3789 39.5125H31.4526V40.4488H32.3789V39.5125Z" fill="#544B56"/>
<path d="M32.3789 38.5775H31.4526V39.5125H32.3789V38.5775Z" fill="#544B56"/>
<path d="M32.3789 37.65H31.4526V38.5775H32.3789V37.65Z" fill="#544B56"/>
<path d="M32.3789 36.715H31.4526V37.65H32.3789V36.715Z" fill="#544B56"/>
<path d="M31.4524 39.5125H30.5161V40.4488H31.4524V39.5125Z" fill="#544B56"/>
<path d="M31.4524 37.65H30.5161V38.5775H31.4524V37.65Z" fill="#544B56"/>
<path d="M31.4524 38.5775H30.5161V39.5125H31.4524V38.5775Z" fill="#544B56"/>
<path d="M31.4524 36.715H30.5161V37.65H31.4524V36.715Z" fill="#544B56"/>
<path d="M30.5161 34.8525H29.5898V35.7888H30.5161V34.8525Z" fill="#544B56"/>
<path d="M31.4524 34.8525H30.5161V35.7888H31.4524V34.8525Z" fill="#544B56"/>
<path d="M29.5901 33.9262H28.6538V34.8525H29.5901V33.9262Z" fill="#544B56"/>
<path d="M29.5901 32.99H28.6538V33.9262H29.5901V32.99Z" fill="#544B56"/>
<path d="M30.5161 32.99H29.5898V33.9262H30.5161V32.99Z" fill="#544B56"/>
<path d="M30.5161 33.9262H29.5898V34.8525H30.5161V33.9262Z" fill="#544B56"/>
<path d="M30.5161 32.055H29.5898V32.99H30.5161V32.055Z" fill="#544B56"/>
<path d="M31.4524 32.99H30.5161V33.9262H31.4524V32.99Z" fill="#544B56"/>
<path d="M31.4524 33.9262H30.5161V34.8525H31.4524V33.9262Z" fill="#544B56"/>
<path d="M32.3789 33.9262H31.4526V34.8525H32.3789V33.9262Z" fill="#544B56"/>
<path d="M24.9299 37.65H23.9937V38.5775H24.9299V37.65Z" fill="#544B56"/>
<path d="M24.9299 38.5775H23.9937V39.5125H24.9299V38.5775Z" fill="#544B56"/>
<path d="M24.9299 39.5125H23.9937V40.4488H24.9299V39.5125Z" fill="#544B56"/>
<path d="M24.9299 36.715H23.9937V37.65H24.9299V36.715Z" fill="#544B56"/>
<path d="M23.9936 36.715H23.0674V37.65H23.9936V36.715Z" fill="#544B56"/>
<path d="M23.9936 39.5125H23.0674V40.4488H23.9936V39.5125Z" fill="#544B56"/>
<path d="M23.0676 39.5125H22.1313V40.4488H23.0676V39.5125Z" fill="#544B56"/>
<path d="M25.8664 35.7875H24.9302V36.7138H25.8664V35.7875Z" fill="#544B56"/>
<path d="M25.8664 37.65H24.9302V38.5775H25.8664V37.65Z" fill="#544B56"/>
<path d="M25.8664 39.5125H24.9302V40.4488H25.8664V39.5125Z" fill="#544B56"/>
<path d="M25.8664 38.5775H24.9302V39.5125H25.8664V38.5775Z" fill="#544B56"/>
<path d="M25.8664 36.715H24.9302V37.65H25.8664V36.715Z" fill="#544B56"/>
<path d="M38.9026 29.265H37.9751V30.1912H38.9026V29.265Z" fill="black"/>
<path d="M38.9026 28.3287H37.9751V29.265H38.9026V28.3287Z" fill="black"/>
<path d="M38.9026 27.4025H37.9751V28.3287H38.9026V27.4025Z" fill="black"/>
<path d="M38.9026 26.4675H37.9751V27.4037H38.9026V26.4675Z" fill="black"/>
<path d="M38.9026 25.5413H37.9751V26.4675H38.9026V25.5413Z" fill="black"/>
<path d="M38.9026 24.605H37.9751V25.5412H38.9026V24.605Z" fill="black"/>
<path d="M38.9026 23.6688H37.9751V24.605H38.9026V23.6688Z" fill="black"/>
<path d="M38.9026 22.7425H37.9751V23.6687H38.9026V22.7425Z" fill="black"/>
<path d="M38.9026 21.8062H37.9751V22.7425H38.9026V21.8062Z" fill="black"/>
<path d="M37.975 30.1913H37.04V31.1275H37.975V30.1913Z" fill="black"/>
<path d="M37.975 29.265H37.04V30.1912H37.975V29.265Z" fill="#544B56"/>
<path d="M37.975 28.3287H37.04V29.265H37.975V28.3287Z" fill="#544B56"/>
<path d="M37.975 27.4025H37.04V28.3287H37.975V27.4025Z" fill="#544B56"/>
<path d="M37.975 26.4675H37.04V27.4037H37.975V26.4675Z" fill="#544B56"/>
<path d="M37.975 25.5413H37.04V26.4675H37.975V25.5413Z" fill="#544B56"/>
<path d="M37.975 24.605H37.04V25.5412H37.975V24.605Z" fill="#544B56"/>
<path d="M37.975 23.6688H37.04V24.605H37.975V23.6688Z" fill="#544B56"/>
<path d="M37.975 22.7425H37.04V23.6687H37.975V22.7425Z" fill="#544B56"/>
<path d="M37.975 21.8062H37.04V22.7425H37.975V21.8062Z" fill="#544B56"/>
<path d="M37.975 20.88H37.04V21.8063H37.975V20.88Z" fill="black"/>
<path d="M37.04 31.1275H36.1138V32.0538H37.04V31.1275Z" fill="black"/>
<path d="M37.04 30.1913H36.1138V31.1275H37.04V30.1913Z" fill="#544B56"/>
<path d="M37.04 29.265H36.1138V30.1912H37.04V29.265Z" fill="#89031A"/>
<path d="M37.04 28.3287H36.1138V29.265H37.04V28.3287Z" fill="#89031A"/>
<path d="M37.04 27.4025H36.1138V28.3287H37.04V27.4025Z" fill="#89031A"/>
<path d="M37.04 26.4675H36.1138V27.4037H37.04V26.4675Z" fill="#89031A"/>
<path d="M37.04 25.5413H36.1138V26.4675H37.04V25.5413Z" fill="#89031A"/>
<path d="M37.04 24.605H36.1138V25.5412H37.04V24.605Z" fill="#89031A"/>
<path d="M37.04 23.6688H36.1138V24.605H37.04V23.6688Z" fill="#89031A"/>
<path d="M37.04 22.7425H36.1138V23.6687H37.04V22.7425Z" fill="#89031A"/>
<path d="M37.04 21.8062H36.1138V22.7425H37.04V21.8062Z" fill="#544B56"/>
<path d="M37.04 20.88H36.1138V21.8063H37.04V20.88Z" fill="black"/>
<path d="M36.114 32.055H35.1777V32.99H36.114V32.055Z" fill="black"/>
<path d="M36.114 31.1275H35.1777V32.0538H36.114V31.1275Z" fill="#544B56"/>
<path d="M36.114 30.1913H35.1777V31.1275H36.114V30.1913Z" fill="#89031A"/>
<path d="M36.114 29.265H35.1777V30.1912H36.114V29.265Z" fill="#89031A"/>
<path d="M36.114 28.3287H35.1777V29.265H36.114V28.3287Z" fill="#89031A"/>
<path d="M36.114 27.4025H35.1777V28.3287H36.114V27.4025Z" fill="#89031A"/>
<path d="M36.114 26.4675H35.1777V27.4037H36.114V26.4675Z" fill="#89031A"/>
<path d="M36.114 25.5413H35.1777V26.4675H36.114V25.5413Z" fill="#89031A"/>
<path d="M36.114 24.605H35.1777V25.5412H36.114V24.605Z" fill="#89031A"/>
<path d="M36.114 23.6688H35.1777V24.605H36.114V23.6688Z" fill="#89031A"/>
<path d="M36.114 22.7425H35.1777V23.6687H36.114V22.7425Z" fill="#544B56"/>
<path d="M36.114 21.8062H35.1777V22.7425H36.114V21.8062Z" fill="black"/>
<path d="M35.1777 39.5125H34.2515V40.4488H35.1777V39.5125Z" fill="black"/>
<path d="M35.1777 32.99H34.2515V33.9262H35.1777V32.99Z" fill="black"/>
<path d="M35.1777 32.055H34.2515V32.99H35.1777V32.055Z" fill="#544B56"/>
<path d="M35.1777 31.1275H34.2515V32.0538H35.1777V31.1275Z" fill="#89031A"/>
<path d="M35.1777 30.1913H34.2515V31.1275H35.1777V30.1913Z" fill="#89031A"/>
<path d="M35.1777 29.265H34.2515V30.1912H35.1777V29.265Z" fill="#89031A"/>
<path d="M35.1777 28.3287H34.2515V29.265H35.1777V28.3287Z" fill="#89031A"/>
<path d="M35.1777 27.4025H34.2515V28.3287H35.1777V27.4025Z" fill="#89031A"/>
<path d="M35.1777 26.4675H34.2515V27.4037H35.1777V26.4675Z" fill="#89031A"/>
<path d="M35.1777 25.5413H34.2515V26.4675H35.1777V25.5413Z" fill="#89031A"/>
<path d="M35.1777 24.605H34.2515V25.5412H35.1777V24.605Z" fill="#89031A"/>
<path d="M35.1777 23.6688H34.2515V24.605H35.1777V23.6688Z" fill="#89031A"/>
<path d="M35.1777 22.7425H34.2515V23.6687H35.1777V22.7425Z" fill="#544B56"/>
<path d="M35.1777 21.8062H34.2515V22.7425H35.1777V21.8062Z" fill="black"/>
<path d="M34.2512 38.5775H33.3149V39.5125H34.2512V38.5775Z" fill="black"/>
<path d="M34.2512 35.7875H33.3149V36.7138H34.2512V35.7875Z" fill="black"/>
<path d="M34.2512 32.99H33.3149V33.9262H34.2512V32.99Z" fill="black"/>
<path d="M34.2512 32.055H33.3149V32.99H34.2512V32.055Z" fill="#9087B5"/>
<path d="M34.2512 31.1275H33.3149V32.0538H34.2512V31.1275Z" fill="#544B56"/>
<path d="M34.2512 30.1913H33.3149V31.1275H34.2512V30.1913Z" fill="#A30417"/>
<path d="M34.2512 29.265H33.3149V30.1912H34.2512V29.265Z" fill="#A30417"/>
<path d="M34.2512 28.3287H33.3149V29.265H34.2512V28.3287Z" fill="#A30417"/>
<path d="M34.2512 27.4025H33.3149V28.3287H34.2512V27.4025Z" fill="#A30417"/>
<path d="M34.2512 26.4675H33.3149V27.4037H34.2512V26.4675Z" fill="#EF0012"/>
<path d="M34.2512 25.5413H33.3149V26.4675H34.2512V25.5413Z" fill="#EF0012"/>
<path d="M34.2512 24.605H33.3149V25.5412H34.2512V24.605Z" fill="#EF0012"/>
<path d="M34.2512 23.6688H33.3149V24.605H34.2512V23.6688Z" fill="#EF0012"/>
<path d="M34.2512 22.7425H33.3149V23.6687H34.2512V22.7425Z" fill="#9087B5"/>
<path d="M34.2512 21.8062H33.3149V22.7425H34.2512V21.8062Z" fill="black"/>
<path d="M34.2512 20.88H33.3149V21.8063H34.2512V20.88Z" fill="black"/>
<path d="M33.3149 37.65H32.3799V38.5775H33.3149V37.65Z" fill="black"/>
<path d="M33.3149 36.715H32.3799V37.65H33.3149V36.715Z" fill="black"/>
<path d="M33.3149 35.7875H32.3799V36.7138H33.3149V35.7875Z" fill="#9087B5"/>
<path d="M33.3149 34.8525H32.3799V35.7888H33.3149V34.8525Z" fill="black"/>
<path d="M33.3149 33.9262H32.3799V34.8525H33.3149V33.9262Z" fill="black"/>
<path d="M33.3149 32.99H32.3799V33.9262H33.3149V32.99Z" fill="black"/>
<path d="M33.3149 32.055H32.3799V32.99H33.3149V32.055Z" fill="black"/>
<path d="M33.3149 31.1275H32.3799V32.0538H33.3149V31.1275Z" fill="#9087B5"/>
<path d="M33.3149 30.1913H32.3799V31.1275H33.3149V30.1913Z" fill="#544B56"/>
<path d="M33.3149 29.265H32.3799V30.1912H33.3149V29.265Z" fill="#A30417"/>
<path d="M33.3149 28.3287H32.3799V29.265H33.3149V28.3287Z" fill="#A30417"/>
<path d="M33.3149 27.4025H32.3799V28.3287H33.3149V27.4025Z" fill="#A30417"/>
<path d="M33.3149 26.4675H32.3799V27.4037H33.3149V26.4675Z" fill="#A30417"/>
<path d="M33.3149 25.5413H32.3799V26.4675H33.3149V25.5413Z" fill="#EF0012"/>
<path d="M33.3149 24.605H32.3799V25.5412H33.3149V24.605Z" fill="#EF0012"/>
<path d="M33.3149 23.6688H32.3799V24.605H33.3149V23.6688Z" fill="#EF0012"/>
<path d="M33.3149 21.8062H32.3799V22.7425H33.3149V21.8062Z" fill="black"/>
<path d="M33.3149 20.88H32.3799V21.8063H33.3149V20.88Z" fill="#9087B5"/>
<path d="M33.3149 19.9438H32.3799V20.88H33.3149V19.9438Z" fill="black"/>
<path d="M33.3149 17.1462H32.3799V18.0825H33.3149V17.1462Z" fill="black"/>
<path d="M33.3149 16.22H32.3799V17.1463H33.3149V16.22Z" fill="black"/>
<path d="M33.3149 15.2838H32.3799V16.22H33.3149V15.2838Z" fill="black"/>
<path d="M32.3789 34.8525H31.4526V35.7888H32.3789V34.8525Z" fill="black"/>
<path d="M32.3789 32.99H31.4526V33.9262H32.3789V32.99Z" fill="black"/>
<path d="M32.3789 32.055H31.4526V32.99H32.3789V32.055Z" fill="black"/>
<path d="M32.3789 31.1275H31.4526V32.0538H32.3789V31.1275Z" fill="black"/>
<path d="M32.3789 30.1913H31.4526V31.1275H32.3789V30.1913Z" fill="#9087B5"/>
<path d="M32.3789 29.265H31.4526V30.1912H32.3789V29.265Z" fill="#A30417"/>
<path d="M32.3789 28.3287H31.4526V29.265H32.3789V28.3287Z" fill="#A30417"/>
<path d="M32.3789 27.4025H31.4526V28.3287H32.3789V27.4025Z" fill="#A30417"/>
<path d="M32.3789 26.4675H31.4526V27.4037H32.3789V26.4675Z" fill="#A30417"/>
<path d="M32.3789 25.5413H31.4526V26.4675H32.3789V25.5413Z" fill="#A30417"/>
<path d="M32.3789 24.605H31.4526V25.5412H32.3789V24.605Z" fill="#EF0012"/>
<path d="M32.3789 23.6688H31.4526V24.605H32.3789V23.6688Z" fill="#EF0012"/>
<path d="M32.3789 21.8062H31.4526V22.7425H32.3789V21.8062Z" fill="black"/>
<path d="M32.3789 19.9438H31.4526V20.88H32.3789V19.9438Z" fill="black"/>
<path d="M32.3789 18.0812H31.4526V19.0175H32.3789V18.0812Z" fill="black"/>
<path d="M32.3789 17.1462H31.4526V18.0825H32.3789V17.1462Z" fill="#544B56"/>
<path d="M32.3789 16.22H31.4526V17.1463H32.3789V16.22Z" fill="black"/>
<path d="M32.3789 15.2838H31.4526V16.22H32.3789V15.2838Z" fill="#544B56"/>
<path d="M32.3789 14.3575H31.4526V15.2837H32.3789V14.3575Z" fill="black"/>
<path d="M32.3789 13.4212H31.4526V14.3575H32.3789V13.4212Z" fill="black"/>
<path d="M31.4524 32.055H30.5161V32.99H31.4524V32.055Z" fill="black"/>
<path d="M31.4524 31.1275H30.5161V32.0538H31.4524V31.1275Z" fill="black"/>
<path d="M31.4524 30.1913H30.5161V31.1275H31.4524V30.1913Z" fill="black"/>
<path d="M31.4524 29.265H30.5161V30.1912H31.4524V29.265Z" fill="#9087B5"/>
<path d="M31.4524 28.3287H30.5161V29.265H31.4524V28.3287Z" fill="#9087B5"/>
<path d="M31.4524 27.4025H30.5161V28.3287H31.4524V27.4025Z" fill="#9087B5"/>
<path d="M31.4524 26.4675H30.5161V27.4037H31.4524V26.4675Z" fill="#9087B5"/>
<path d="M31.4524 21.8062H30.5161V22.7425H31.4524V21.8062Z" fill="black"/>
<path d="M31.4524 19.9438H30.5161V20.88H31.4524V19.9438Z" fill="black"/>
<path d="M31.4524 19.0175H30.5161V19.9437H31.4524V19.0175Z" fill="black"/>
<path d="M31.4524 18.0812H30.5161V19.0175H31.4524V18.0812Z" fill="#544B56"/>
<path d="M31.4524 17.1462H30.5161V18.0825H31.4524V17.1462Z" fill="#544B56"/>
<path d="M31.4524 16.22H30.5161V17.1463H31.4524V16.22Z" fill="black"/>
<path d="M31.4524 15.2838H30.5161V16.22H31.4524V15.2838Z" fill="#9087B5"/>
<path d="M31.4524 14.3575H30.5161V15.2837H31.4524V14.3575Z" fill="#544B56"/>
<path d="M31.4524 13.4212H30.5161V14.3575H31.4524V13.4212Z" fill="#9087B5"/>
<path d="M31.4524 12.495H30.5161V13.4212H31.4524V12.495Z" fill="black"/>
<path d="M30.5161 39.5125H29.5898V40.4488H30.5161V39.5125Z" fill="black"/>
<path d="M30.5161 38.5775H29.5898V39.5125H30.5161V38.5775Z" fill="black"/>
<path d="M30.5161 37.65H29.5898V38.5775H30.5161V37.65Z" fill="black"/>
<path d="M30.5161 35.7875H29.5898V36.7138H30.5161V35.7875Z" fill="#9087B5"/>
<path d="M30.5161 31.1275H29.5898V32.0538H30.5161V31.1275Z" fill="black"/>
<path d="M30.5161 30.1913H29.5898V31.1275H30.5161V30.1913Z" fill="black"/>
<path d="M30.5161 29.265H29.5898V30.1912H30.5161V29.265Z" fill="black"/>
<path d="M30.5161 28.3287H29.5898V29.265H30.5161V28.3287Z" fill="black"/>
<path d="M30.5161 27.4025H29.5898V28.3287H30.5161V27.4025Z" fill="black"/>
<path d="M30.5161 26.4675H29.5898V27.4037H30.5161V26.4675Z" fill="black"/>
<path d="M30.5161 25.5413H29.5898V26.4675H30.5161V25.5413Z" fill="black"/>
<path d="M30.5161 24.605H29.5898V25.5412H30.5161V24.605Z" fill="black"/>
<path d="M30.5161 23.6688H29.5898V24.605H30.5161V23.6688Z" fill="black"/>
<path d="M30.5161 22.7425H29.5898V23.6687H30.5161V22.7425Z" fill="black"/>
<path d="M30.5161 21.8062H29.5898V22.7425H30.5161V21.8062Z" fill="black"/>
<path d="M30.5161 20.88H29.5898V21.8063H30.5161V20.88Z" fill="#9087B5"/>
<path d="M30.5161 19.9438H29.5898V20.88H30.5161V19.9438Z" fill="black"/>
<path d="M30.5161 16.22H29.5898V17.1463H30.5161V16.22Z" fill="black"/>
<path d="M30.5161 15.2838H29.5898V16.22H30.5161V15.2838Z" fill="#9087B5"/>
<path d="M30.5161 14.3575H29.5898V15.2837H30.5161V14.3575Z" fill="#9087B5"/>
<path d="M30.5161 13.4212H29.5898V14.3575H30.5161V13.4212Z" fill="#544B56"/>
<path d="M30.5161 12.495H29.5898V13.4212H30.5161V12.495Z" fill="#9087B5"/>
<path d="M30.5161 11.5587H29.5898V12.495H30.5161V11.5587Z" fill="black"/>
<path d="M29.5901 36.715H28.6538V37.65H29.5901V36.715Z" fill="black"/>
<path d="M29.5901 35.7875H28.6538V36.7138H29.5901V35.7875Z" fill="black"/>
<path d="M29.5901 34.8525H28.6538V35.7888H29.5901V34.8525Z" fill="black"/>
<path d="M29.5901 32.055H28.6538V32.99H29.5901V32.055Z" fill="black"/>
<path d="M29.5901 31.1275H28.6538V32.0538H29.5901V31.1275Z" fill="black"/>
<path d="M29.5901 30.1913H28.6538V31.1275H29.5901V30.1913Z" fill="black"/>
<path d="M29.5901 29.265H28.6538V30.1912H29.5901V29.265Z" fill="black"/>
<path d="M29.5901 28.3287H28.6538V29.265H29.5901V28.3287Z" fill="black"/>
<path d="M29.5901 27.4025H28.6538V28.3287H29.5901V27.4025Z" fill="black"/>
<path d="M29.5901 26.4675H28.6538V27.4037H29.5901V26.4675Z" fill="#544B56"/>
<path d="M29.5901 25.5413H28.6538V26.4675H29.5901V25.5413Z" fill="#9087B5"/>
<path d="M29.5901 24.605H28.6538V25.5412H29.5901V24.605Z" fill="#9087B5"/>
<path d="M29.5901 23.6688H28.6538V24.605H29.5901V23.6688Z" fill="#9087B5"/>
<path d="M29.5901 22.7425H28.6538V23.6687H29.5901V22.7425Z" fill="#9087B5"/>
<path d="M29.5901 21.8062H28.6538V22.7425H29.5901V21.8062Z" fill="#9087B5"/>
<path d="M29.5901 16.22H28.6538V17.1463H29.5901V16.22Z" fill="black"/>
<path d="M29.5901 15.2838H28.6538V16.22H29.5901V15.2838Z" fill="#9087B5"/>
<path d="M29.5901 14.3575H28.6538V15.2837H29.5901V14.3575Z" fill="#9087B5"/>
<path d="M29.5901 13.4212H28.6538V14.3575H29.5901V13.4212Z" fill="#544B56"/>
<path d="M29.5901 11.5587H28.6538V12.495H29.5901V11.5587Z" fill="black"/>
<path d="M28.6538 33.9262H27.7275V34.8525H28.6538V33.9262Z" fill="black"/>
<path d="M28.6538 32.99H27.7275V33.9262H28.6538V32.99Z" fill="black"/>
<path d="M28.6538 32.055H27.7275V32.99H28.6538V32.055Z" fill="#544B56"/>
<path d="M28.6538 31.1275H27.7275V32.0538H28.6538V31.1275Z" fill="#9087B5"/>
<path d="M28.6538 30.1913H27.7275V31.1275H28.6538V30.1913Z" fill="#9087B5"/>
<path d="M28.6538 29.265H27.7275V30.1912H28.6538V29.265Z" fill="#9087B5"/>
<path d="M28.6538 28.3287H27.7275V29.265H28.6538V28.3287Z" fill="black"/>
<path d="M28.6538 27.4025H27.7275V28.3287H28.6538V27.4025Z" fill="#544B56"/>
<path d="M28.6538 26.4675H27.7275V27.4037H28.6538V26.4675Z" fill="#9087B5"/>
<path d="M28.6538 25.5413H27.7275V26.4675H28.6538V25.5413Z" fill="#9087B5"/>
<path d="M28.6538 24.605H27.7275V25.5412H28.6538V24.605Z" fill="#9087B5"/>
<path d="M28.6538 16.22H27.7275V17.1463H28.6538V16.22Z" fill="black"/>
<path d="M28.6538 15.2838H27.7275V16.22H28.6538V15.2838Z" fill="#9087B5"/>
<path d="M28.6538 14.3575H27.7275V15.2837H28.6538V14.3575Z" fill="#9087B5"/>
<path d="M28.6538 13.4212H27.7275V14.3575H28.6538V13.4212Z" fill="#544B56"/>
<path d="M28.6538 11.5587H27.7275V12.495H28.6538V11.5587Z" fill="black"/>
<path d="M27.7287 33.9262H26.7925V34.8525H27.7287V33.9262Z" fill="black"/>
<path d="M27.7287 32.99H26.7925V33.9262H27.7287V32.99Z" fill="black"/>
<path d="M27.7287 32.055H26.7925V32.99H27.7287V32.055Z" fill="#9087B5"/>
<path d="M27.7287 31.1275H26.7925V32.0538H27.7287V31.1275Z" fill="#9087B5"/>
<path d="M27.7287 30.1913H26.7925V31.1275H27.7287V30.1913Z" fill="#9087B5"/>
<path d="M27.7287 28.3287H26.7925V29.265H27.7287V28.3287Z" fill="#544B56"/>
<path d="M27.7287 27.4025H26.7925V28.3287H27.7287V27.4025Z" fill="#9087B5"/>
<path d="M27.7287 26.4675H26.7925V27.4037H27.7287V26.4675Z" fill="#9087B5"/>
<path d="M27.7287 25.5413H26.7925V26.4675H27.7287V25.5413Z" fill="#9087B5"/>
<path d="M27.7287 21.8062H26.7925V22.7425H27.7287V21.8062Z" fill="#9087B5"/>
<path d="M27.7287 16.22H26.7925V17.1463H27.7287V16.22Z" fill="black"/>
<path d="M27.7287 15.2838H26.7925V16.22H27.7287V15.2838Z" fill="#9087B5"/>
<path d="M27.7287 14.3575H26.7925V15.2837H27.7287V14.3575Z" fill="#9087B5"/>
<path d="M27.7287 11.5587H26.7925V12.495H27.7287V11.5587Z" fill="black"/>
<path d="M26.7925 39.5125H25.8662V40.4488H26.7925V39.5125Z" fill="black"/>
<path d="M26.7925 38.5775H25.8662V39.5125H26.7925V38.5775Z" fill="black"/>
<path d="M26.7925 37.65H25.8662V38.5775H26.7925V37.65Z" fill="black"/>
<path d="M26.7925 36.715H25.8662V37.65H26.7925V36.715Z" fill="black"/>
<path d="M26.7925 35.7875H25.8662V36.7138H26.7925V35.7875Z" fill="black"/>
<path d="M26.7925 34.8525H25.8662V35.7888H26.7925V34.8525Z" fill="black"/>
<path d="M26.7925 33.9262H25.8662V34.8525H26.7925V33.9262Z" fill="#544B56"/>
<path d="M26.7925 32.99H25.8662V33.9262H26.7925V32.99Z" fill="black"/>
<path d="M26.7925 32.055H25.8662V32.99H26.7925V32.055Z" fill="#544B56"/>
<path d="M26.7925 31.1275H25.8662V32.0538H26.7925V31.1275Z" fill="#544B56"/>
<path d="M26.7925 30.1913H25.8662V31.1275H26.7925V30.1913Z" fill="#544B56"/>
<path d="M26.7925 29.265H25.8662V30.1912H26.7925V29.265Z" fill="#544B56"/>
<path d="M26.7925 28.3287H25.8662V29.265H26.7925V28.3287Z" fill="#544B56"/>
<path d="M26.7925 27.4025H25.8662V28.3287H26.7925V27.4025Z" fill="#544B56"/>
<path d="M26.7925 26.4675H25.8662V27.4037H26.7925V26.4675Z" fill="#544B56"/>
<path d="M26.7925 25.5413H25.8662V26.4675H26.7925V25.5413Z" fill="#544B56"/>
<path d="M26.7925 24.605H25.8662V25.5412H26.7925V24.605Z" fill="#544B56"/>
<path d="M26.7925 23.6688H25.8662V24.605H26.7925V23.6688Z" fill="#9087B5"/>
<path d="M26.7925 22.7425H25.8662V23.6687H26.7925V22.7425Z" fill="#9087B5"/>
<path d="M26.7925 21.8062H25.8662V22.7425H26.7925V21.8062Z" fill="#9087B5"/>
<path d="M26.7925 19.9438H25.8662V20.88H26.7925V19.9438Z" fill="black"/>
<path d="M26.7925 16.22H25.8662V17.1463H26.7925V16.22Z" fill="black"/>
<path d="M26.7925 15.2838H25.8662V16.22H26.7925V15.2838Z" fill="#544B56"/>
<path d="M26.7925 14.3575H25.8662V15.2837H26.7925V14.3575Z" fill="#544B56"/>
<path d="M26.7925 12.495H25.8662V13.4212H26.7925V12.495Z" fill="#9087B5"/>
<path d="M26.7925 11.5587H25.8662V12.495H26.7925V11.5587Z" fill="black"/>
<path d="M25.8664 34.8525H24.9302V35.7888H25.8664V34.8525Z" fill="black"/>
<path d="M25.8664 33.9262H24.9302V34.8525H25.8664V33.9262Z" fill="#544B56"/>
<path d="M25.8664 32.99H24.9302V33.9262H25.8664V32.99Z" fill="#544B56"/>
<path d="M25.8664 32.055H24.9302V32.99H25.8664V32.055Z" fill="black"/>
<path d="M25.8664 31.1275H24.9302V32.0538H25.8664V31.1275Z" fill="black"/>
<path d="M25.8664 30.1913H24.9302V31.1275H25.8664V30.1913Z" fill="black"/>
<path d="M25.8664 29.265H24.9302V30.1912H25.8664V29.265Z" fill="black"/>
<path d="M25.8664 28.3287H24.9302V29.265H25.8664V28.3287Z" fill="black"/>
<path d="M25.8664 27.4025H24.9302V28.3287H25.8664V27.4025Z" fill="black"/>
<path d="M25.8664 26.4675H24.9302V27.4037H25.8664V26.4675Z" fill="#544B56"/>
<path d="M25.8664 25.5413H24.9302V26.4675H25.8664V25.5413Z" fill="#544B56"/>
<path d="M25.8664 24.605H24.9302V25.5412H25.8664V24.605Z" fill="#544B56"/>
<path d="M25.8664 23.6688H24.9302V24.605H25.8664V23.6688Z" fill="#9087B5"/>
<path d="M25.8664 22.7425H24.9302V23.6687H25.8664V22.7425Z" fill="#9087B5"/>
<path d="M25.8664 21.8062H24.9302V22.7425H25.8664V21.8062Z" fill="#544B56"/>
<path d="M25.8664 20.88H24.9302V21.8063H25.8664V20.88Z" fill="#544B56"/>
<path d="M25.8664 19.9438H24.9302V20.88H25.8664V19.9438Z" fill="black"/>
<path d="M25.8664 19.0175H24.9302V19.9437H25.8664V19.0175Z" fill="black"/>
<path d="M25.8664 18.0812H24.9302V19.0175H25.8664V18.0812Z" fill="#544B56"/>
<path d="M25.8664 17.1462H24.9302V18.0825H25.8664V17.1462Z" fill="#544B56"/>
<path d="M25.8664 16.22H24.9302V17.1463H25.8664V16.22Z" fill="black"/>
<path d="M25.8664 15.2838H24.9302V16.22H25.8664V15.2838Z" fill="#544B56"/>
<path d="M25.8664 14.3575H24.9302V15.2837H25.8664V14.3575Z" fill="#544B56"/>
<path d="M25.8664 13.4212H24.9302V14.3575H25.8664V13.4212Z" fill="black"/>
<path d="M25.8664 12.495H24.9302V13.4212H25.8664V12.495Z" fill="black"/>
<path d="M24.9299 35.7875H23.9937V36.7138H24.9299V35.7875Z" fill="#9087B5"/>
<path d="M24.9299 34.8525H23.9937V35.7888H24.9299V34.8525Z" fill="#544B56"/>
<path d="M24.9299 33.9262H23.9937V34.8525H24.9299V33.9262Z" fill="#544B56"/>
<path d="M24.9299 32.99H23.9937V33.9262H24.9299V32.99Z" fill="#544B56"/>
<path d="M24.9299 32.055H23.9937V32.99H24.9299V32.055Z" fill="#544B56"/>
<path d="M24.9299 31.1275H23.9937V32.0538H24.9299V31.1275Z" fill="black"/>
<path d="M24.9299 30.1913H23.9937V31.1275H24.9299V30.1913Z" fill="#9087B5"/>
<path d="M24.9299 29.265H23.9937V30.1912H24.9299V29.265Z" fill="#9087B5"/>
<path d="M24.9299 28.3287H23.9937V29.265H24.9299V28.3287Z" fill="black"/>
<path d="M24.9299 27.4025H23.9937V28.3287H24.9299V27.4025Z" fill="black"/>
<path d="M24.9299 26.4675H23.9937V27.4037H24.9299V26.4675Z" fill="black"/>
<path d="M24.9299 25.5413H23.9937V26.4675H24.9299V25.5413Z" fill="#544B56"/>
<path d="M24.9299 24.605H23.9937V25.5412H24.9299V24.605Z" fill="#544B56"/>
<path d="M24.9299 23.6688H23.9937V24.605H24.9299V23.6688Z" fill="black"/>
<path d="M24.9299 22.7425H23.9937V23.6687H24.9299V22.7425Z" fill="black"/>
<path d="M24.9299 21.8062H23.9937V22.7425H24.9299V21.8062Z" fill="#544B56"/>
<path d="M24.9299 20.88H23.9937V21.8063H24.9299V20.88Z" fill="#9087B5"/>
<path d="M24.9299 19.9438H23.9937V20.88H24.9299V19.9438Z" fill="black"/>
<path d="M24.9299 18.0812H23.9937V19.0175H24.9299V18.0812Z" fill="black"/>
<path d="M24.9299 17.1462H23.9937V18.0825H24.9299V17.1462Z" fill="black"/>
<path d="M24.9299 16.22H23.9937V17.1463H24.9299V16.22Z" fill="black"/>
<path d="M24.9299 15.2838H23.9937V16.22H24.9299V15.2838Z" fill="#9087B5"/>
<path d="M24.9299 14.3575H23.9937V15.2837H24.9299V14.3575Z" fill="#9087B5"/>
<path d="M24.9299 13.4212H23.9937V14.3575H24.9299V13.4212Z" fill="black"/>
<path d="M23.9936 38.5775H23.0674V39.5125H23.9936V38.5775Z" fill="black"/>
<path d="M23.9936 37.65H23.0674V38.5775H23.9936V37.65Z" fill="black"/>
<path d="M23.9936 34.8525H23.0674V35.7888H23.9936V34.8525Z" fill="#544B56"/>
<path d="M23.9936 33.9262H23.0674V34.8525H23.9936V33.9262Z" fill="#544B56"/>
<path d="M23.9936 32.99H23.0674V33.9262H23.9936V32.99Z" fill="#544B56"/>
<path d="M23.9936 32.055H23.0674V32.99H23.9936V32.055Z" fill="black"/>
<path d="M23.9936 31.1275H23.0674V32.0538H23.9936V31.1275Z" fill="#9087B5"/>
<path d="M23.9936 30.1913H23.0674V31.1275H23.9936V30.1913Z" fill="#9087B5"/>
<path d="M23.9936 29.265H23.0674V30.1912H23.9936V29.265Z" fill="#544B56"/>
<path d="M23.9936 28.3287H23.0674V29.265H23.9936V28.3287Z" fill="black"/>
<path d="M23.9936 27.4025H23.0674V28.3287H23.9936V27.4025Z" fill="black"/>
<path d="M23.9936 26.4675H23.0674V27.4037H23.9936V26.4675Z" fill="black"/>
<path d="M23.9936 25.5413H23.0674V26.4675H23.9936V25.5413Z" fill="black"/>
<path d="M23.9936 24.605H23.0674V25.5412H23.9936V24.605Z" fill="black"/>
<path d="M23.9936 23.6688H23.0674V24.605H23.9936V23.6688Z" fill="#544B56"/>
<path d="M23.9936 22.7425H23.0674V23.6687H23.9936V22.7425Z" fill="#544B56"/>
<path d="M23.9936 21.8062H23.0674V22.7425H23.9936V21.8062Z" fill="#9087B5"/>
<path d="M23.9936 20.88H23.0674V21.8063H23.9936V20.88Z" fill="#9087B5"/>
<path d="M23.9936 19.9438H23.0674V20.88H23.9936V19.9438Z" fill="black"/>
<path d="M23.9936 16.22H23.0674V17.1463H23.9936V16.22Z" fill="black"/>
<path d="M23.9936 15.2838H23.0674V16.22H23.9936V15.2838Z" fill="black"/>
<path d="M23.9936 14.3575H23.0674V15.2837H23.9936V14.3575Z" fill="black"/>
<path d="M23.0676 38.5775H22.1313V39.5125H23.0676V38.5775Z" fill="black"/>
<path d="M23.0676 36.715H22.1313V37.65H23.0676V36.715Z" fill="black"/>
<path d="M23.0676 35.7875H22.1313V36.7138H23.0676V35.7875Z" fill="#9087B5"/>
<path d="M23.0676 34.8525H22.1313V35.7888H23.0676V34.8525Z" fill="black"/>
<path d="M23.0676 33.9262H22.1313V34.8525H23.0676V33.9262Z" fill="black"/>
<path d="M23.0676 32.99H22.1313V33.9262H23.0676V32.99Z" fill="black"/>
<path d="M23.0676 32.055H22.1313V32.99H23.0676V32.055Z" fill="black"/>
<path d="M23.0676 31.1275H22.1313V32.0538H23.0676V31.1275Z" fill="black"/>
<path d="M23.0676 30.1913H22.1313V31.1275H23.0676V30.1913Z" fill="black"/>
<path d="M23.0676 29.265H22.1313V30.1912H23.0676V29.265Z" fill="black"/>
<path d="M23.0676 28.3287H22.1313V29.265H23.0676V28.3287Z" fill="black"/>
<path d="M23.0676 24.605H22.1313V25.5412H23.0676V24.605Z" fill="black"/>
<path d="M23.0676 23.6688H22.1313V24.605H23.0676V23.6688Z" fill="#544B56"/>
<path d="M23.0676 22.7425H22.1313V23.6687H23.0676V22.7425Z" fill="#9087B5"/>
<path d="M23.0676 21.8062H22.1313V22.7425H23.0676V21.8062Z" fill="#9087B5"/>
<path d="M23.0676 20.88H22.1313V21.8063H23.0676V20.88Z" fill="black"/>
<path d="M22.1313 39.5125H21.2051V40.4488H22.1313V39.5125Z" fill="black"/>
<path d="M22.1313 35.7875H21.2051V36.7138H22.1313V35.7875Z" fill="black"/>
<path d="M22.1313 28.3287H21.2051V29.265H22.1313V28.3287Z" fill="black"/>
<path d="M22.1313 24.605H21.2051V25.5412H22.1313V24.605Z" fill="black"/>
<path d="M22.1313 23.6688H21.2051V24.605H22.1313V23.6688Z" fill="black"/>
<path d="M22.1313 22.7425H21.2051V23.6687H22.1313V22.7425Z" fill="black"/>
<path d="M22.1313 21.8062H21.2051V22.7425H22.1313V21.8062Z" fill="black"/>
<path d="M21.2048 29.265H20.2686V30.1912H21.2048V29.265Z" fill="black"/>
<path d="M21.2048 24.605H20.2686V25.5412H21.2048V24.605Z" fill="black"/>
<path d="M20.2685 28.3287H19.3423V29.265H20.2685V28.3287Z" fill="black"/>
<path d="M20.2685 25.5413H19.3423V26.4675H20.2685V25.5413Z" fill="black"/>
<path d="M19.3425 31.1275H18.4062V32.0538H19.3425V31.1275Z" fill="black"/>
<path d="M19.3425 30.1913H18.4062V31.1275H19.3425V30.1913Z" fill="black"/>
<path d="M19.3425 29.265H18.4062V30.1912H19.3425V29.265Z" fill="black"/>
<path d="M19.3425 28.3287H18.4062V29.265H19.3425V28.3287Z" fill="black"/>
<path d="M19.3425 25.5413H18.4062V26.4675H19.3425V25.5413Z" fill="black"/>
<path d="M19.3425 24.605H18.4062V25.5412H19.3425V24.605Z" fill="black"/>
<path d="M19.3425 23.6688H18.4062V24.605H19.3425V23.6688Z" fill="black"/>
<path d="M18.4074 31.1275H17.4712V32.0538H18.4074V31.1275Z" fill="black"/>
<path d="M18.4074 28.3287H17.4712V29.265H18.4074V28.3287Z" fill="black"/>
<path d="M18.4074 24.605H17.4712V25.5412H18.4074V24.605Z" fill="#9087B5"/>
<path d="M18.4074 23.6688H17.4712V24.605H18.4074V23.6688Z" fill="#E7DACE"/>
<path d="M18.4074 22.7425H17.4712V23.6687H18.4074V22.7425Z" fill="black"/>
<path d="M17.4712 31.1275H16.5449V32.0538H17.4712V31.1275Z" fill="black"/>
<path d="M17.4712 30.1913H16.5449V31.1275H17.4712V30.1913Z" fill="black"/>
<path d="M17.4712 29.265H16.5449V30.1912H17.4712V29.265Z" fill="black"/>
<path d="M17.4712 28.3287H16.5449V29.265H17.4712V28.3287Z" fill="black"/>
<path d="M17.4712 24.605H16.5449V25.5412H17.4712V24.605Z" fill="#9087B5"/>
<path d="M17.4712 22.7425H16.5449V23.6687H17.4712V22.7425Z" fill="black"/>
<path d="M17.4712 21.8062H16.5449V22.7425H17.4712V21.8062Z" fill="black"/>
<path d="M17.4712 20.88H16.5449V21.8063H17.4712V20.88Z" fill="black"/>
<path d="M16.5451 28.3287H15.6089V29.265H16.5451V28.3287Z" fill="black"/>
<path d="M16.5451 27.4025H15.6089V28.3287H16.5451V27.4025Z" fill="black"/>
<path d="M16.5451 26.4675H15.6089V27.4037H16.5451V26.4675Z" fill="black"/>
<path d="M16.5451 25.5413H15.6089V26.4675H16.5451V25.5413Z" fill="#9087B5"/>
<path d="M16.5451 24.605H15.6089V25.5412H16.5451V24.605Z" fill="#544B56"/>
<path d="M16.5451 23.6688H15.6089V24.605H16.5451V23.6688Z" fill="#E7DACE"/>
<path d="M16.5451 22.7425H15.6089V23.6687H16.5451V22.7425Z" fill="#E7DACE"/>
<path d="M16.5451 21.8062H15.6089V22.7425H16.5451V21.8062Z" fill="#E7DACE"/>
<path d="M16.5451 20.88H15.6089V21.8063H16.5451V20.88Z" fill="#E7DACE"/>
<path d="M16.5451 19.9438H15.6089V20.88H16.5451V19.9438Z" fill="black"/>
<path d="M16.5451 19.0175H15.6089V19.9437H16.5451V19.0175Z" fill="black"/>
<path d="M16.5451 18.0812H15.6089V19.0175H16.5451V18.0812Z" fill="black"/>
<path d="M15.6089 26.4675H14.6826V27.4037H15.6089V26.4675Z" fill="black"/>
<path d="M15.6089 25.5413H14.6826V26.4675H15.6089V25.5413Z" fill="#9087B5"/>
<path d="M15.6089 24.605H14.6826V25.5412H15.6089V24.605Z" fill="#544B56"/>
<path d="M15.6089 23.6688H14.6826V24.605H15.6089V23.6688Z" fill="#E7DACE"/>
<path d="M15.6089 22.7425H14.6826V23.6687H15.6089V22.7425Z" fill="#E7DACE"/>
<path d="M15.6089 21.8062H14.6826V22.7425H15.6089V21.8062Z" fill="#E7DACE"/>
<path d="M15.6089 20.88H14.6826V21.8063H15.6089V20.88Z" fill="#E7DACE"/>
<path d="M15.6089 19.9438H14.6826V20.88H15.6089V19.9438Z" fill="#E7DACE"/>
<path d="M15.6089 19.0175H14.6826V19.9437H15.6089V19.0175Z" fill="#E7DACE"/>
<path d="M15.6089 18.0812H14.6826V19.0175H15.6089V18.0812Z" fill="#E7DACE"/>
<path d="M15.6089 17.1462H14.6826V18.0825H15.6089V17.1462Z" fill="black"/>
<path d="M15.6089 16.22H14.6826V17.1463H15.6089V16.22Z" fill="black"/>
<path d="M15.6089 15.2838H14.6826V16.22H15.6089V15.2838Z" fill="black"/>
<path d="M14.6823 26.4675H13.7461V27.4037H14.6823V26.4675Z" fill="black"/>
<path d="M14.6823 25.5413H13.7461V26.4675H14.6823V25.5413Z" fill="#E7DACE"/>
<path d="M14.6823 24.605H13.7461V25.5412H14.6823V24.605Z" fill="black"/>
<path d="M14.6823 23.6688H13.7461V24.605H14.6823V23.6688Z" fill="black"/>
<path d="M14.6823 22.7425H13.7461V23.6687H14.6823V22.7425Z" fill="black"/>
<path d="M14.6823 21.8062H13.7461V22.7425H14.6823V21.8062Z" fill="black"/>
<path d="M14.6823 20.88H13.7461V21.8063H14.6823V20.88Z" fill="#E7DACE"/>
<path d="M14.6823 19.9438H13.7461V20.88H14.6823V19.9438Z" fill="#E7DACE"/>
<path d="M14.6823 19.0175H13.7461V19.9437H14.6823V19.0175Z" fill="#E7DACE"/>
<path d="M14.6823 18.0812H13.7461V19.0175H14.6823V18.0812Z" fill="#E7DACE"/>
<path d="M14.6823 17.1462H13.7461V18.0825H14.6823V17.1462Z" fill="#E7DACE"/>
<path d="M14.6823 16.22H13.7461V17.1463H14.6823V16.22Z" fill="#E7DACE"/>
<path d="M14.6823 15.2838H13.7461V16.22H14.6823V15.2838Z" fill="#E7DACE"/>
<path d="M14.6823 14.3575H13.7461V15.2837H14.6823V14.3575Z" fill="black"/>
<path d="M14.6823 13.4212H13.7461V14.3575H14.6823V13.4212Z" fill="black"/>
<path d="M13.7461 25.5413H12.8198V26.4675H13.7461V25.5413Z" fill="black"/>
<path d="M13.7461 20.88H12.8198V21.8063H13.7461V20.88Z" fill="black"/>
<path d="M13.7461 19.9438H12.8198V20.88H13.7461V19.9438Z" fill="black"/>
<path d="M13.7461 19.0175H12.8198V19.9437H13.7461V19.0175Z" fill="black"/>
<path d="M13.7461 18.0812H12.8198V19.0175H13.7461V18.0812Z" fill="#E7DACE"/>
<path d="M13.7461 17.1462H12.8198V18.0825H13.7461V17.1462Z" fill="#E7DACE"/>
<path d="M13.7461 16.22H12.8198V17.1463H13.7461V16.22Z" fill="#E7DACE"/>
<path d="M13.7461 15.2838H12.8198V16.22H13.7461V15.2838Z" fill="#E7DACE"/>
<path d="M13.7461 14.3575H12.8198V15.2837H13.7461V14.3575Z" fill="#E7DACE"/>
<path d="M13.7461 13.4212H12.8198V14.3575H13.7461V13.4212Z" fill="#E7DACE"/>
<path d="M13.7461 12.495H12.8198V13.4212H13.7461V12.495Z" fill="black"/>
<path d="M12.82 18.0812H11.8838V19.0175H12.82V18.0812Z" fill="black"/>
<path d="M12.82 17.1462H11.8838V18.0825H12.82V17.1462Z" fill="black"/>
<path d="M12.82 16.22H11.8838V17.1463H12.82V16.22Z" fill="black"/>
<path d="M12.82 15.2838H11.8838V16.22H12.82V15.2838Z" fill="#E7DACE"/>
<path d="M12.82 14.3575H11.8838V15.2837H12.82V14.3575Z" fill="#E7DACE"/>
<path d="M12.82 13.4212H11.8838V14.3575H12.82V13.4212Z" fill="#E7DACE"/>
<path d="M12.82 12.495H11.8838V13.4212H12.82V12.495Z" fill="black"/>
<path d="M11.8838 15.2838H10.9575V16.22H11.8838V15.2838Z" fill="black"/>
<path d="M11.8838 14.3575H10.9575V15.2837H11.8838V14.3575Z" fill="black"/>
<path d="M11.8838 13.4212H10.9575V14.3575H11.8838V13.4212Z" fill="black"/>
</g>
<defs>
<clipPath id="clip0_69_12149">
<rect width="50" height="50" fill="white"/>
</clipPath>
</defs>
</svg>
