<svg width="50" height="50" viewBox="0 0 50 50" fill="none" xmlns="http://www.w3.org/2000/svg">
<g clip-path="url(#clip0_69_12157)">
<path d="M24.9998 48.2225C37.8253 48.2225 48.2223 37.8254 48.2223 25C48.2223 12.1746 37.8253 1.7775 24.9998 1.7775C12.1744 1.7775 1.77734 12.1746 1.77734 25C1.77734 37.8254 12.1744 48.2225 24.9998 48.2225Z" fill="black"/>
<path d="M24.9998 49.0975C11.7123 49.0975 0.902344 38.2875 0.902344 25C0.902344 11.7125 11.7123 0.902496 24.9998 0.902496C38.2873 0.902496 49.0973 11.7125 49.0973 25C49.0973 38.2875 38.2873 49.0975 24.9998 49.0975ZM24.9998 2.6525C12.6773 2.6525 2.65234 12.6775 2.65234 25C2.65234 37.3225 12.6773 47.3475 24.9998 47.3475C37.3223 47.3475 47.3473 37.3225 47.3473 25C47.3473 12.6775 37.3223 2.6525 24.9998 2.6525Z" fill="#24DCEA"/>
<path d="M35.6702 16.71H34.8027V17.5863H35.6702V16.71Z" fill="black"/>
<path d="M35.6702 15.8425H34.8027V16.71H35.6702V15.8425Z" fill="black"/>
<path d="M34.8025 16.71H33.9263V17.5863H34.8025V16.71Z" fill="black"/>
<path d="M34.8025 15.8425H33.9263V16.71H34.8025V15.8425Z" fill="#0404BF"/>
<path d="M34.8025 14.9663H33.9263V15.8425H34.8025V14.9663Z" fill="black"/>
<path d="M33.9253 16.71H33.0503V17.5863H33.9253V16.71Z" fill="black"/>
<path d="M33.9253 15.8425H33.0503V16.71H33.9253V15.8425Z" fill="#0404BF"/>
<path d="M33.9253 14.9663H33.0503V15.8425H33.9253V14.9663Z" fill="black"/>
<path d="M33.0501 39.3975H32.1826V40.2663H33.0501V39.3975Z" fill="black"/>
<path d="M33.0501 38.5225H32.1826V39.3975H33.0501V38.5225Z" fill="black"/>
<path d="M33.0501 37.655H32.1826V38.5225H33.0501V37.655Z" fill="black"/>
<path d="M33.0501 36.7775H32.1826V37.6538H33.0501V36.7775Z" fill="black"/>
<path d="M33.0501 35.91H32.1826V36.7775H33.0501V35.91Z" fill="black"/>
<path d="M33.0501 29.8025H32.1826V30.67H33.0501V29.8025Z" fill="black"/>
<path d="M33.0501 28.9263H32.1826V29.8025H33.0501V28.9263Z" fill="black"/>
<path d="M33.0501 28.05H32.1826V28.925H33.0501V28.05Z" fill="black"/>
<path d="M33.0501 27.1825H32.1826V28.05H33.0501V27.1825Z" fill="black"/>
<path d="M33.0501 26.3063H32.1826V27.1825H33.0501V26.3063Z" fill="black"/>
<path d="M33.0501 25.4388H32.1826V26.3063H33.0501V25.4388Z" fill="black"/>
<path d="M33.0501 24.5613H32.1826V25.4375H33.0501V24.5613Z" fill="black"/>
<path d="M33.0501 23.6938H32.1826V24.5613H33.0501V23.6938Z" fill="black"/>
<path d="M33.0501 22.8175H32.1826V23.6938H33.0501V22.8175Z" fill="black"/>
<path d="M33.0501 21.95H32.1826V22.8175H33.0501V21.95Z" fill="black"/>
<path d="M33.0501 21.0738H32.1826V21.95H33.0501V21.0738Z" fill="black"/>
<path d="M33.0501 16.71H32.1826V17.5863H33.0501V16.71Z" fill="black"/>
<path d="M33.0501 15.8425H32.1826V16.71H33.0501V15.8425Z" fill="#0404BF"/>
<path d="M33.0501 14.9663H32.1826V15.8425H33.0501V14.9663Z" fill="#0404BF"/>
<path d="M33.0501 14.09H32.1826V14.9663H33.0501V14.09Z" fill="black"/>
<path d="M32.1829 39.3975H31.3066V40.2663H32.1829V39.3975Z" fill="#030384"/>
<path d="M32.1829 38.5225H31.3066V39.3975H32.1829V38.5225Z" fill="#030384"/>
<path d="M32.1829 37.655H31.3066V38.5225H32.1829V37.655Z" fill="#030384"/>
<path d="M32.1829 36.7775H31.3066V37.6538H32.1829V36.7775Z" fill="#030384"/>
<path d="M32.1829 35.91H31.3066V36.7775H32.1829V35.91Z" fill="#030384"/>
<path d="M32.1829 35.0338H31.3066V35.91H32.1829V35.0338Z" fill="black"/>
<path d="M32.1829 34.1588H31.3066V35.0338H32.1829V34.1588Z" fill="black"/>
<path d="M32.1829 33.2888H31.3066V34.1575H32.1829V33.2888Z" fill="black"/>
<path d="M32.1829 32.415H31.3066V33.29H32.1829V32.415Z" fill="black"/>
<path d="M32.1829 31.5463H31.3066V32.4138H32.1829V31.5463Z" fill="black"/>
<path d="M32.1829 30.67H31.3066V31.5463H32.1829V30.67Z" fill="black"/>
<path d="M32.1829 29.8025H31.3066V30.67H32.1829V29.8025Z" fill="#E5A070"/>
<path d="M32.1829 28.9263H31.3066V29.8025H32.1829V28.9263Z" fill="#0404BF"/>
<path d="M32.1829 28.05H31.3066V28.925H32.1829V28.05Z" fill="#0404BF"/>
<path d="M32.1829 27.1825H31.3066V28.05H32.1829V27.1825Z" fill="#0404BF"/>
<path d="M32.1829 26.3063H31.3066V27.1825H32.1829V26.3063Z" fill="#0404BF"/>
<path d="M32.1829 25.4388H31.3066V26.3063H32.1829V25.4388Z" fill="#0404BF"/>
<path d="M32.1829 24.5613H31.3066V25.4375H32.1829V24.5613Z" fill="#0404BF"/>
<path d="M32.1829 23.6938H31.3066V24.5613H32.1829V23.6938Z" fill="#0404BF"/>
<path d="M32.1829 22.8175H31.3066V23.6938H32.1829V22.8175Z" fill="#0404BF"/>
<path d="M32.1829 21.95H31.3066V22.8175H32.1829V21.95Z" fill="#0404BF"/>
<path d="M32.1829 21.0738H31.3066V21.95H32.1829V21.0738Z" fill="#0404BF"/>
<path d="M32.1829 20.1975H31.3066V21.0738H32.1829V20.1975Z" fill="black"/>
<path d="M32.1829 18.4538H31.3066V19.33H32.1829V18.4538Z" fill="black"/>
<path d="M32.1829 17.5863H31.3066V18.4538H32.1829V17.5863Z" fill="black"/>
<path d="M32.1829 16.71H31.3066V17.5863H32.1829V16.71Z" fill="black"/>
<path d="M32.1829 15.8425H31.3066V16.71H32.1829V15.8425Z" fill="#0404BF"/>
<path d="M32.1829 14.9663H31.3066V15.8425H32.1829V14.9663Z" fill="#0404BF"/>
<path d="M32.1829 14.09H31.3066V14.9663H32.1829V14.09Z" fill="#030384"/>
<path d="M32.1829 13.2225H31.3066V14.09H32.1829V13.2225Z" fill="black"/>
<path d="M32.1829 12.345H31.3066V13.2213H32.1829V12.345Z" fill="black"/>
<path d="M32.1829 11.4775H31.3066V12.345H32.1829V11.4775Z" fill="black"/>
<path d="M32.1829 10.6013H31.3066V11.4775H32.1829V10.6013Z" fill="black"/>
<path d="M31.3065 39.3975H30.439V40.2663H31.3065V39.3975Z" fill="#030384"/>
<path d="M31.3065 38.5225H30.439V39.3975H31.3065V38.5225Z" fill="#030384"/>
<path d="M31.3065 37.655H30.439V38.5225H31.3065V37.655Z" fill="#030384"/>
<path d="M31.3065 36.7775H30.439V37.6538H31.3065V36.7775Z" fill="#030384"/>
<path d="M31.3065 35.91H30.439V36.7775H31.3065V35.91Z" fill="#030384"/>
<path d="M31.3065 35.0338H30.439V35.91H31.3065V35.0338Z" fill="#030384"/>
<path d="M31.3065 34.1588H30.439V35.0338H31.3065V34.1588Z" fill="#030384"/>
<path d="M31.3065 33.2888H30.439V34.1575H31.3065V33.2888Z" fill="#030384"/>
<path d="M31.3065 32.415H30.439V33.29H31.3065V32.415Z" fill="#030384"/>
<path d="M31.3065 31.5463H30.439V32.4138H31.3065V31.5463Z" fill="#030384"/>
<path d="M31.3065 30.67H30.439V31.5463H31.3065V30.67Z" fill="#0707A5"/>
<path d="M31.3065 29.8025H30.439V30.67H31.3065V29.8025Z" fill="#EDB58C"/>
<path d="M31.3065 28.9263H30.439V29.8025H31.3065V28.9263Z" fill="#0404BF"/>
<path d="M31.3065 28.05H30.439V28.925H31.3065V28.05Z" fill="#0404BF"/>
<path d="M31.3065 27.1825H30.439V28.05H31.3065V27.1825Z" fill="#0404BF"/>
<path d="M31.3065 26.3063H30.439V27.1825H31.3065V26.3063Z" fill="#0404BF"/>
<path d="M31.3065 25.4388H30.439V26.3063H31.3065V25.4388Z" fill="#0404BF"/>
<path d="M31.3065 24.5613H30.439V25.4375H31.3065V24.5613Z" fill="#0404BF"/>
<path d="M31.3065 23.6938H30.439V24.5613H31.3065V23.6938Z" fill="#0404BF"/>
<path d="M31.3065 22.8175H30.439V23.6938H31.3065V22.8175Z" fill="#0404BF"/>
<path d="M31.3065 21.95H30.439V22.8175H31.3065V21.95Z" fill="#0404BF"/>
<path d="M31.3065 21.0738H30.439V21.95H31.3065V21.0738Z" fill="#0404BF"/>
<path d="M31.3065 20.1975H30.439V21.0738H31.3065V20.1975Z" fill="black"/>
<path d="M31.3065 19.33H30.439V20.1975H31.3065V19.33Z" fill="black"/>
<path d="M31.3065 18.4538H30.439V19.33H31.3065V18.4538Z" fill="#D8D7D6"/>
<path d="M31.3065 17.5863H30.439V18.4538H31.3065V17.5863Z" fill="#9E9B98"/>
<path d="M31.3065 16.71H30.439V17.5863H31.3065V16.71Z" fill="black"/>
<path d="M31.3065 15.8425H30.439V16.71H31.3065V15.8425Z" fill="#030384"/>
<path d="M31.3065 14.9663H30.439V15.8425H31.3065V14.9663Z" fill="#0404BF"/>
<path d="M31.3065 14.09H30.439V14.9663H31.3065V14.09Z" fill="#030384"/>
<path d="M31.3065 13.2225H30.439V14.09H31.3065V13.2225Z" fill="black"/>
<path d="M31.3065 12.345H30.439V13.2213H31.3065V12.345Z" fill="#030384"/>
<path d="M31.3065 11.4775H30.439V12.345H31.3065V11.4775Z" fill="#030384"/>
<path d="M31.3065 10.6013H30.439V11.4775H31.3065V10.6013Z" fill="#030384"/>
<path d="M31.3065 9.73376H30.439V10.6013H31.3065V9.73376Z" fill="black"/>
<path d="M30.4378 39.3975H29.5615V40.2663H30.4378V39.3975Z" fill="#0404BF"/>
<path d="M30.4378 38.5225H29.5615V39.3975H30.4378V38.5225Z" fill="#0404BF"/>
<path d="M30.4378 37.655H29.5615V38.5225H30.4378V37.655Z" fill="#0404BF"/>
<path d="M30.4378 36.7775H29.5615V37.6538H30.4378V36.7775Z" fill="#0404BF"/>
<path d="M30.4378 35.91H29.5615V36.7775H30.4378V35.91Z" fill="#0404BF"/>
<path d="M30.4378 35.0338H29.5615V35.91H30.4378V35.0338Z" fill="#0404BF"/>
<path d="M30.4378 34.1588H29.5615V35.0338H30.4378V34.1588Z" fill="#0404BF"/>
<path d="M30.4378 33.2888H29.5615V34.1575H30.4378V33.2888Z" fill="#0404BF"/>
<path d="M30.4378 32.415H29.5615V33.29H30.4378V32.415Z" fill="#0404BF"/>
<path d="M30.4378 31.5463H29.5615V32.4138H30.4378V31.5463Z" fill="#030384"/>
<path d="M30.4378 30.67H29.5615V31.5463H30.4378V30.67Z" fill="#0707A5"/>
<path d="M30.4378 29.8025H29.5615V30.67H30.4378V29.8025Z" fill="#EDB58C"/>
<path d="M30.4378 28.9263H29.5615V29.8025H30.4378V28.9263Z" fill="#0404BF"/>
<path d="M30.4378 28.05H29.5615V28.925H30.4378V28.05Z" fill="#0404BF"/>
<path d="M30.4378 27.1825H29.5615V28.05H30.4378V27.1825Z" fill="#0404BF"/>
<path d="M30.4378 26.3063H29.5615V27.1825H30.4378V26.3063Z" fill="#0404BF"/>
<path d="M30.4378 25.4388H29.5615V26.3063H30.4378V25.4388Z" fill="#0404BF"/>
<path d="M30.4378 24.5613H29.5615V25.4375H30.4378V24.5613Z" fill="#0404BF"/>
<path d="M30.4378 23.6938H29.5615V24.5613H30.4378V23.6938Z" fill="#0404BF"/>
<path d="M30.4378 22.8175H29.5615V23.6938H30.4378V22.8175Z" fill="#0404BF"/>
<path d="M30.4378 21.95H29.5615V22.8175H30.4378V21.95Z" fill="#0404BF"/>
<path d="M30.4378 21.0738H29.5615V21.95H30.4378V21.0738Z" fill="#030384"/>
<path d="M30.4378 20.1975H29.5615V21.0738H30.4378V20.1975Z" fill="black"/>
<path d="M30.4378 19.33H29.5615V20.1975H30.4378V19.33Z" fill="#D8D7D6"/>
<path d="M30.4378 18.4538H29.5615V19.33H30.4378V18.4538Z" fill="#D8D7D6"/>
<path d="M30.4378 17.5863H29.5615V18.4538H30.4378V17.5863Z" fill="#D8D7D6"/>
<path d="M30.4378 16.71H29.5615V17.5863H30.4378V16.71Z" fill="black"/>
<path d="M30.4378 15.8425H29.5615V16.71H30.4378V15.8425Z" fill="#030384"/>
<path d="M30.4378 14.9663H29.5615V15.8425H30.4378V14.9663Z" fill="#0404BF"/>
<path d="M30.4378 14.09H29.5615V14.9663H30.4378V14.09Z" fill="#0404BF"/>
<path d="M30.4378 13.2225H29.5615V14.09H30.4378V13.2225Z" fill="#030384"/>
<path d="M30.4378 12.345H29.5615V13.2213H30.4378V12.345Z" fill="#030384"/>
<path d="M30.4378 11.4775H29.5615V12.345H30.4378V11.4775Z" fill="#030384"/>
<path d="M30.4378 10.6013H29.5615V11.4775H30.4378V10.6013Z" fill="#030384"/>
<path d="M30.4378 9.73376H29.5615V10.6013H30.4378V9.73376Z" fill="#030384"/>
<path d="M30.4378 8.85751H29.5615V9.73376H30.4378V8.85751Z" fill="black"/>
<path d="M29.5613 39.3975H28.6938V40.2663H29.5613V39.3975Z" fill="#0404BF"/>
<path d="M29.5613 38.5225H28.6938V39.3975H29.5613V38.5225Z" fill="#0404BF"/>
<path d="M29.5613 37.655H28.6938V38.5225H29.5613V37.655Z" fill="#0404BF"/>
<path d="M29.5613 36.7775H28.6938V37.6538H29.5613V36.7775Z" fill="#0404BF"/>
<path d="M29.5613 35.91H28.6938V36.7775H29.5613V35.91Z" fill="#0404BF"/>
<path d="M29.5613 35.0338H28.6938V35.91H29.5613V35.0338Z" fill="#0404BF"/>
<path d="M29.5613 34.1588H28.6938V35.0338H29.5613V34.1588Z" fill="#0404BF"/>
<path d="M29.5613 33.2888H28.6938V34.1575H29.5613V33.2888Z" fill="#0404BF"/>
<path d="M29.5613 32.415H28.6938V33.29H29.5613V32.415Z" fill="#0404BF"/>
<path d="M29.5613 31.5463H28.6938V32.4138H29.5613V31.5463Z" fill="#0404BF"/>
<path d="M29.5613 30.67H28.6938V31.5463H29.5613V30.67Z" fill="#030384"/>
<path d="M29.5613 29.8025H28.6938V30.67H29.5613V29.8025Z" fill="#0707A5"/>
<path d="M29.5613 28.9263H28.6938V29.8025H29.5613V28.9263Z" fill="black"/>
<path d="M29.5613 28.05H28.6938V28.925H29.5613V28.05Z" fill="black"/>
<path d="M29.5613 27.1825H28.6938V28.05H29.5613V27.1825Z" fill="black"/>
<path d="M29.5613 26.3063H28.6938V27.1825H29.5613V26.3063Z" fill="black"/>
<path d="M29.5613 25.4388H28.6938V26.3063H29.5613V25.4388Z" fill="black"/>
<path d="M29.5613 24.5613H28.6938V25.4375H29.5613V24.5613Z" fill="black"/>
<path d="M29.5613 23.6938H28.6938V24.5613H29.5613V23.6938Z" fill="#0404BF"/>
<path d="M29.5613 22.8175H28.6938V23.6938H29.5613V22.8175Z" fill="#030384"/>
<path d="M29.5613 21.95H28.6938V22.8175H29.5613V21.95Z" fill="#030384"/>
<path d="M29.5613 21.0738H28.6938V21.95H29.5613V21.0738Z" fill="black"/>
<path d="M29.5613 20.1975H28.6938V21.0738H29.5613V20.1975Z" fill="#9E9B98"/>
<path d="M29.5613 19.33H28.6938V20.1975H29.5613V19.33Z" fill="#9E9B98"/>
<path d="M29.5613 18.4538H28.6938V19.33H29.5613V18.4538Z" fill="#D8D7D6"/>
<path d="M29.5613 17.5863H28.6938V18.4538H29.5613V17.5863Z" fill="#9E9B98"/>
<path d="M29.5613 16.71H28.6938V17.5863H29.5613V16.71Z" fill="#9E9B98"/>
<path d="M29.5613 15.8425H28.6938V16.71H29.5613V15.8425Z" fill="black"/>
<path d="M29.5613 14.9663H28.6938V15.8425H29.5613V14.9663Z" fill="#0404BF"/>
<path d="M29.5613 14.09H28.6938V14.9663H29.5613V14.09Z" fill="#0404BF"/>
<path d="M29.5613 13.2225H28.6938V14.09H29.5613V13.2225Z" fill="#030384"/>
<path d="M29.5613 12.345H28.6938V13.2213H29.5613V12.345Z" fill="#030384"/>
<path d="M29.5613 11.4775H28.6938V12.345H29.5613V11.4775Z" fill="#030384"/>
<path d="M29.5613 10.6013H28.6938V11.4775H29.5613V10.6013Z" fill="#030384"/>
<path d="M29.5613 9.73376H28.6938V10.6013H29.5613V9.73376Z" fill="#030384"/>
<path d="M29.5613 8.85751H28.6938V9.73376H29.5613V8.85751Z" fill="black"/>
<path d="M28.6941 39.3975H27.8179V40.2663H28.6941V39.3975Z" fill="#0404BF"/>
<path d="M28.6941 38.5225H27.8179V39.3975H28.6941V38.5225Z" fill="#0404BF"/>
<path d="M28.6941 37.655H27.8179V38.5225H28.6941V37.655Z" fill="#0404BF"/>
<path d="M28.6941 36.7775H27.8179V37.6538H28.6941V36.7775Z" fill="#0404BF"/>
<path d="M28.6941 35.91H27.8179V36.7775H28.6941V35.91Z" fill="#0404BF"/>
<path d="M28.6941 35.0338H27.8179V35.91H28.6941V35.0338Z" fill="#0404BF"/>
<path d="M28.6941 34.1588H27.8179V35.0338H28.6941V34.1588Z" fill="#0404BF"/>
<path d="M28.6941 33.2888H27.8179V34.1575H28.6941V33.2888Z" fill="#0404BF"/>
<path d="M28.6941 32.415H27.8179V33.29H28.6941V32.415Z" fill="#0404BF"/>
<path d="M28.6941 31.5463H27.8179V32.4138H28.6941V31.5463Z" fill="#0404BF"/>
<path d="M28.6941 30.67H27.8179V31.5463H28.6941V30.67Z" fill="#0404BF"/>
<path d="M28.6941 29.8025H27.8179V30.67H28.6941V29.8025Z" fill="#030384"/>
<path d="M28.6941 28.9263H27.8179V29.8025H28.6941V28.9263Z" fill="#D6B409"/>
<path d="M28.6941 28.05H27.8179V28.925H28.6941V28.05Z" fill="#0404BF"/>
<path d="M28.6941 27.1825H27.8179V28.05H28.6941V27.1825Z" fill="#0404BF"/>
<path d="M28.6941 26.3063H27.8179V27.1825H28.6941V26.3063Z" fill="#0404BF"/>
<path d="M28.6941 25.4388H27.8179V26.3063H28.6941V25.4388Z" fill="#0404BF"/>
<path d="M28.6941 24.5613H27.8179V25.4375H28.6941V24.5613Z" fill="#0404BF"/>
<path d="M28.6941 23.6938H27.8179V24.5613H28.6941V23.6938Z" fill="#0404BF"/>
<path d="M28.6941 22.8175H27.8179V23.6938H28.6941V22.8175Z" fill="#030384"/>
<path d="M28.6941 21.95H27.8179V22.8175H28.6941V21.95Z" fill="black"/>
<path d="M28.6941 21.0738H27.8179V21.95H28.6941V21.0738Z" fill="#D8D7D6"/>
<path d="M28.6941 20.1975H27.8179V21.0738H28.6941V20.1975Z" fill="#D8D7D6"/>
<path d="M28.6941 19.33H27.8179V20.1975H28.6941V19.33Z" fill="#D8D7D6"/>
<path d="M28.6941 18.4538H27.8179V19.33H28.6941V18.4538Z" fill="#9E9B98"/>
<path d="M28.6941 17.5863H27.8179V18.4538H28.6941V17.5863Z" fill="#EFB589"/>
<path d="M28.6941 16.71H27.8179V17.5863H28.6941V16.71Z" fill="#EFB589"/>
<path d="M28.6941 15.8425H27.8179V16.71H28.6941V15.8425Z" fill="black"/>
<path d="M28.6941 14.9663H27.8179V15.8425H28.6941V14.9663Z" fill="#0404BF"/>
<path d="M28.6941 14.09H27.8179V14.9663H28.6941V14.09Z" fill="#0404BF"/>
<path d="M28.6941 13.2225H27.8179V14.09H28.6941V13.2225Z" fill="#0404BF"/>
<path d="M28.6941 12.345H27.8179V13.2213H28.6941V12.345Z" fill="#030384"/>
<path d="M28.6941 11.4775H27.8179V12.345H28.6941V11.4775Z" fill="#030384"/>
<path d="M28.6941 10.6013H27.8179V11.4775H28.6941V10.6013Z" fill="#030384"/>
<path d="M28.6941 9.73376H27.8179V10.6013H28.6941V9.73376Z" fill="#030384"/>
<path d="M28.6941 8.85751H27.8179V9.73376H28.6941V8.85751Z" fill="black"/>
<path d="M27.8177 39.3975H26.9502V40.2663H27.8177V39.3975Z" fill="#0404BF"/>
<path d="M27.8177 38.5225H26.9502V39.3975H27.8177V38.5225Z" fill="#0404BF"/>
<path d="M27.8177 37.655H26.9502V38.5225H27.8177V37.655Z" fill="#0404BF"/>
<path d="M27.8177 36.7775H26.9502V37.6538H27.8177V36.7775Z" fill="#0404BF"/>
<path d="M27.8177 35.91H26.9502V36.7775H27.8177V35.91Z" fill="#0404BF"/>
<path d="M27.8177 35.0338H26.9502V35.91H27.8177V35.0338Z" fill="#0404BF"/>
<path d="M27.8177 34.1588H26.9502V35.0338H27.8177V34.1588Z" fill="#0404BF"/>
<path d="M27.8177 33.2888H26.9502V34.1575H27.8177V33.2888Z" fill="#0404BF"/>
<path d="M27.8177 32.415H26.9502V33.29H27.8177V32.415Z" fill="#0404BF"/>
<path d="M27.8177 31.5463H26.9502V32.4138H27.8177V31.5463Z" fill="#0404BF"/>
<path d="M27.8177 30.67H26.9502V31.5463H27.8177V30.67Z" fill="#0404BF"/>
<path d="M27.8177 29.8025H26.9502V30.67H27.8177V29.8025Z" fill="#0404BF"/>
<path d="M27.8177 28.9263H26.9502V29.8025H27.8177V28.9263Z" fill="#F9C126"/>
<path d="M27.8177 28.05H26.9502V28.925H27.8177V28.05Z" fill="#0404BF"/>
<path d="M27.8177 27.1825H26.9502V28.05H27.8177V27.1825Z" fill="#0404BF"/>
<path d="M27.8177 26.3063H26.9502V27.1825H27.8177V26.3063Z" fill="#0404BF"/>
<path d="M27.8177 25.4388H26.9502V26.3063H27.8177V25.4388Z" fill="#0404BF"/>
<path d="M27.8177 24.5613H26.9502V25.4375H27.8177V24.5613Z" fill="#0404BF"/>
<path d="M27.8177 23.6938H26.9502V24.5613H27.8177V23.6938Z" fill="black"/>
<path d="M27.8177 22.8175H26.9502V23.6938H27.8177V22.8175Z" fill="black"/>
<path d="M27.8177 21.95H26.9502V22.8175H27.8177V21.95Z" fill="#9E9B98"/>
<path d="M27.8177 21.0738H26.9502V21.95H27.8177V21.0738Z" fill="#D8D7D6"/>
<path d="M27.8177 20.1975H26.9502V21.0738H27.8177V20.1975Z" fill="#D8D7D6"/>
<path d="M27.8177 19.33H26.9502V20.1975H27.8177V19.33Z" fill="#9E9B98"/>
<path d="M27.8177 18.4538H26.9502V19.33H27.8177V18.4538Z" fill="#EFB589"/>
<path d="M27.8177 17.5863H26.9502V18.4538H27.8177V17.5863Z" fill="#EFB589"/>
<path d="M27.8177 16.71H26.9502V17.5863H27.8177V16.71Z" fill="#EFB589"/>
<path d="M27.8177 15.8425H26.9502V16.71H27.8177V15.8425Z" fill="black"/>
<path d="M27.8177 14.9663H26.9502V15.8425H27.8177V14.9663Z" fill="#0404BF"/>
<path d="M27.8177 14.09H26.9502V14.9663H27.8177V14.09Z" fill="#0404BF"/>
<path d="M27.8177 13.2225H26.9502V14.09H27.8177V13.2225Z" fill="#0404BF"/>
<path d="M27.8177 12.345H26.9502V13.2213H27.8177V12.345Z" fill="#030384"/>
<path d="M27.8177 11.4775H26.9502V12.345H27.8177V11.4775Z" fill="#030384"/>
<path d="M27.8177 10.6013H26.9502V11.4775H27.8177V10.6013Z" fill="#030384"/>
<path d="M27.8177 9.73376H26.9502V10.6013H27.8177V9.73376Z" fill="black"/>
<path d="M26.9505 39.3975H26.0742V40.2663H26.9505V39.3975Z" fill="#0404BF"/>
<path d="M26.9505 38.5225H26.0742V39.3975H26.9505V38.5225Z" fill="#0404BF"/>
<path d="M26.9505 37.655H26.0742V38.5225H26.9505V37.655Z" fill="#0404BF"/>
<path d="M26.9505 36.7775H26.0742V37.6538H26.9505V36.7775Z" fill="#0404BF"/>
<path d="M26.9505 35.91H26.0742V36.7775H26.9505V35.91Z" fill="#0404BF"/>
<path d="M26.9505 35.0338H26.0742V35.91H26.9505V35.0338Z" fill="#0404BF"/>
<path d="M26.9505 34.1588H26.0742V35.0338H26.9505V34.1588Z" fill="#0404BF"/>
<path d="M26.9505 33.2888H26.0742V34.1575H26.9505V33.2888Z" fill="#0404BF"/>
<path d="M26.9505 32.415H26.0742V33.29H26.9505V32.415Z" fill="#0404BF"/>
<path d="M26.9505 31.5463H26.0742V32.4138H26.9505V31.5463Z" fill="#0404BF"/>
<path d="M26.9505 30.67H26.0742V31.5463H26.9505V30.67Z" fill="#0404BF"/>
<path d="M26.9505 29.8025H26.0742V30.67H26.9505V29.8025Z" fill="#0404BF"/>
<path d="M26.9505 28.9263H26.0742V29.8025H26.9505V28.9263Z" fill="#F9C126"/>
<path d="M26.9505 28.05H26.0742V28.925H26.9505V28.05Z" fill="#0404BF"/>
<path d="M26.9505 27.1825H26.0742V28.05H26.9505V27.1825Z" fill="#0404BF"/>
<path d="M26.9505 26.3063H26.0742V27.1825H26.9505V26.3063Z" fill="#0404BF"/>
<path d="M26.9505 25.4388H26.0742V26.3063H26.9505V25.4388Z" fill="#0404BF"/>
<path d="M26.9505 24.5613H26.0742V25.4375H26.9505V24.5613Z" fill="black"/>
<path d="M26.9505 23.6938H26.0742V24.5613H26.9505V23.6938Z" fill="#9E9B98"/>
<path d="M26.9505 22.8175H26.0742V23.6938H26.9505V22.8175Z" fill="#D8D7D6"/>
<path d="M26.9505 21.95H26.0742V22.8175H26.9505V21.95Z" fill="#D8D7D6"/>
<path d="M26.9505 21.0738H26.0742V21.95H26.9505V21.0738Z" fill="#D8D7D6"/>
<path d="M26.9505 20.1975H26.0742V21.0738H26.9505V20.1975Z" fill="#D8D7D6"/>
<path d="M26.9505 19.33H26.0742V20.1975H26.9505V19.33Z" fill="#D8D7D6"/>
<path d="M26.9505 18.4538H26.0742V19.33H26.9505V18.4538Z" fill="#9E9B98"/>
<path d="M26.9505 17.5863H26.0742V18.4538H26.9505V17.5863Z" fill="#D8D7D6"/>
<path d="M26.9505 16.71H26.0742V17.5863H26.9505V16.71Z" fill="#EFB589"/>
<path d="M26.9505 15.8425H26.0742V16.71H26.9505V15.8425Z" fill="black"/>
<path d="M26.9505 14.9663H26.0742V15.8425H26.9505V14.9663Z" fill="#0404BF"/>
<path d="M26.9505 14.09H26.0742V14.9663H26.9505V14.09Z" fill="#0404BF"/>
<path d="M26.9505 13.2225H26.0742V14.09H26.9505V13.2225Z" fill="#0404BF"/>
<path d="M26.9505 12.345H26.0742V13.2213H26.9505V12.345Z" fill="#030384"/>
<path d="M26.9505 11.4775H26.0742V12.345H26.9505V11.4775Z" fill="#030384"/>
<path d="M26.9505 10.6013H26.0742V11.4775H26.9505V10.6013Z" fill="black"/>
<path d="M26.074 39.3975H25.1978V40.2663H26.074V39.3975Z" fill="#0404BF"/>
<path d="M26.074 38.5225H25.1978V39.3975H26.074V38.5225Z" fill="#0404BF"/>
<path d="M26.074 37.655H25.1978V38.5225H26.074V37.655Z" fill="#0404BF"/>
<path d="M26.074 36.7775H25.1978V37.6538H26.074V36.7775Z" fill="#0404BF"/>
<path d="M26.074 35.91H25.1978V36.7775H26.074V35.91Z" fill="#0404BF"/>
<path d="M26.074 35.0338H25.1978V35.91H26.074V35.0338Z" fill="#0404BF"/>
<path d="M26.074 34.1588H25.1978V35.0338H26.074V34.1588Z" fill="#0404BF"/>
<path d="M26.074 33.2888H25.1978V34.1575H26.074V33.2888Z" fill="#0404BF"/>
<path d="M26.074 32.415H25.1978V33.29H26.074V32.415Z" fill="#0404BF"/>
<path d="M26.074 31.5463H25.1978V32.4138H26.074V31.5463Z" fill="#0404BF"/>
<path d="M26.074 30.67H25.1978V31.5463H26.074V30.67Z" fill="#0404BF"/>
<path d="M26.074 29.8025H25.1978V30.67H26.074V29.8025Z" fill="#0404BF"/>
<path d="M26.074 28.9263H25.1978V29.8025H26.074V28.9263Z" fill="#F9C126"/>
<path d="M26.074 28.05H25.1978V28.925H26.074V28.05Z" fill="#0404BF"/>
<path d="M26.074 27.1825H25.1978V28.05H26.074V27.1825Z" fill="#0404BF"/>
<path d="M26.074 26.3063H25.1978V27.1825H26.074V26.3063Z" fill="#0404BF"/>
<path d="M26.074 25.4388H25.1978V26.3063H26.074V25.4388Z" fill="#0404BF"/>
<path d="M26.074 24.5613H25.1978V25.4375H26.074V24.5613Z" fill="#0404BF"/>
<path d="M26.074 23.6938H25.1978V24.5613H26.074V23.6938Z" fill="black"/>
<path d="M26.074 22.8175H25.1978V23.6938H26.074V22.8175Z" fill="#D8D7D6"/>
<path d="M26.074 21.95H25.1978V22.8175H26.074V21.95Z" fill="#D8D7D6"/>
<path d="M26.074 21.0738H25.1978V21.95H26.074V21.0738Z" fill="#D8D7D6"/>
<path d="M26.074 20.1975H25.1978V21.0738H26.074V20.1975Z" fill="#D8D7D6"/>
<path d="M26.074 19.33H25.1978V20.1975H26.074V19.33Z" fill="#D8D7D6"/>
<path d="M26.074 18.4538H25.1978V19.33H26.074V18.4538Z" fill="#9E9B98"/>
<path d="M26.074 17.5863H25.1978V18.4538H26.074V17.5863Z" fill="#D8D7D6"/>
<path d="M26.074 16.71H25.1978V17.5863H26.074V16.71Z" fill="#EFB589"/>
<path d="M26.074 15.8425H25.1978V16.71H26.074V15.8425Z" fill="black"/>
<path d="M26.074 14.9663H25.1978V15.8425H26.074V14.9663Z" fill="#0404BF"/>
<path d="M26.074 14.09H25.1978V14.9663H26.074V14.09Z" fill="#0404BF"/>
<path d="M26.074 13.2225H25.1978V14.09H26.074V13.2225Z" fill="#0404BF"/>
<path d="M26.074 12.345H25.1978V13.2213H26.074V12.345Z" fill="#0404BF"/>
<path d="M26.074 11.4775H25.1978V12.345H26.074V11.4775Z" fill="black"/>
<path d="M25.1976 39.3975H24.3301V40.2663H25.1976V39.3975Z" fill="#0404BF"/>
<path d="M25.1976 38.5225H24.3301V39.3975H25.1976V38.5225Z" fill="#0404BF"/>
<path d="M25.1976 37.655H24.3301V38.5225H25.1976V37.655Z" fill="#0404BF"/>
<path d="M25.1976 36.7775H24.3301V37.6538H25.1976V36.7775Z" fill="#0404BF"/>
<path d="M25.1976 35.91H24.3301V36.7775H25.1976V35.91Z" fill="#0404BF"/>
<path d="M25.1976 35.0338H24.3301V35.91H25.1976V35.0338Z" fill="#0404BF"/>
<path d="M25.1976 34.1588H24.3301V35.0338H25.1976V34.1588Z" fill="#0404BF"/>
<path d="M25.1976 33.2888H24.3301V34.1575H25.1976V33.2888Z" fill="#0404BF"/>
<path d="M25.1976 32.415H24.3301V33.29H25.1976V32.415Z" fill="#0404BF"/>
<path d="M25.1976 31.5463H24.3301V32.4138H25.1976V31.5463Z" fill="#0404BF"/>
<path d="M25.1976 30.67H24.3301V31.5463H25.1976V30.67Z" fill="#0404BF"/>
<path d="M25.1976 29.8025H24.3301V30.67H25.1976V29.8025Z" fill="#0404BF"/>
<path d="M25.1976 28.9263H24.3301V29.8025H25.1976V28.9263Z" fill="#F9C126"/>
<path d="M25.1976 28.05H24.3301V28.925H25.1976V28.05Z" fill="#0404BF"/>
<path d="M25.1976 27.1825H24.3301V28.05H25.1976V27.1825Z" fill="#0404BF"/>
<path d="M25.1976 26.3063H24.3301V27.1825H25.1976V26.3063Z" fill="#0404BF"/>
<path d="M25.1976 25.4388H24.3301V26.3063H25.1976V25.4388Z" fill="#0404BF"/>
<path d="M25.1976 24.5613H24.3301V25.4375H25.1976V24.5613Z" fill="#0404BF"/>
<path d="M25.1976 23.6938H24.3301V24.5613H25.1976V23.6938Z" fill="#0404BF"/>
<path d="M25.1976 22.8175H24.3301V23.6938H25.1976V22.8175Z" fill="black"/>
<path d="M25.1976 21.95H24.3301V22.8175H25.1976V21.95Z" fill="#D8D7D6"/>
<path d="M25.1976 21.0738H24.3301V21.95H25.1976V21.0738Z" fill="#D8D7D6"/>
<path d="M25.1976 20.1975H24.3301V21.0738H25.1976V20.1975Z" fill="#D8D7D6"/>
<path d="M25.1976 19.33H24.3301V20.1975H25.1976V19.33Z" fill="#D8D7D6"/>
<path d="M25.1976 18.4538H24.3301V19.33H25.1976V18.4538Z" fill="#9E9B98"/>
<path d="M25.1976 17.5863H24.3301V18.4538H25.1976V17.5863Z" fill="#D8D7D6"/>
<path d="M25.1976 16.71H24.3301V17.5863H25.1976V16.71Z" fill="#EFB589"/>
<path d="M25.1976 15.8425H24.3301V16.71H25.1976V15.8425Z" fill="black"/>
<path d="M25.1976 14.9663H24.3301V15.8425H25.1976V14.9663Z" fill="#0404BF"/>
<path d="M25.1976 14.09H24.3301V14.9663H25.1976V14.09Z" fill="#0404BF"/>
<path d="M25.1976 13.2225H24.3301V14.09H25.1976V13.2225Z" fill="black"/>
<path d="M25.1976 12.345H24.3301V13.2213H25.1976V12.345Z" fill="black"/>
<path d="M24.3304 39.3975H23.4541V40.2663H24.3304V39.3975Z" fill="#0404BF"/>
<path d="M24.3304 38.5225H23.4541V39.3975H24.3304V38.5225Z" fill="#0404BF"/>
<path d="M24.3304 37.655H23.4541V38.5225H24.3304V37.655Z" fill="#0404BF"/>
<path d="M24.3304 36.7775H23.4541V37.6538H24.3304V36.7775Z" fill="#0404BF"/>
<path d="M24.3304 35.91H23.4541V36.7775H24.3304V35.91Z" fill="#0404BF"/>
<path d="M24.3304 35.0338H23.4541V35.91H24.3304V35.0338Z" fill="#0404BF"/>
<path d="M24.3304 34.1588H23.4541V35.0338H24.3304V34.1588Z" fill="#0404BF"/>
<path d="M24.3304 33.2888H23.4541V34.1575H24.3304V33.2888Z" fill="#0404BF"/>
<path d="M24.3304 32.415H23.4541V33.29H24.3304V32.415Z" fill="#0404BF"/>
<path d="M24.3304 31.5463H23.4541V32.4138H24.3304V31.5463Z" fill="#030384"/>
<path d="M24.3304 30.67H23.4541V31.5463H24.3304V30.67Z" fill="black"/>
<path d="M24.3304 29.8025H23.4541V30.67H24.3304V29.8025Z" fill="black"/>
<path d="M24.3304 28.9263H23.4541V29.8025H24.3304V28.9263Z" fill="black"/>
<path d="M24.3304 28.05H23.4541V28.925H24.3304V28.05Z" fill="black"/>
<path d="M24.3304 27.1825H23.4541V28.05H24.3304V27.1825Z" fill="black"/>
<path d="M24.3304 26.3063H23.4541V27.1825H24.3304V26.3063Z" fill="black"/>
<path d="M24.3304 25.4388H23.4541V26.3063H24.3304V25.4388Z" fill="black"/>
<path d="M24.3304 24.5613H23.4541V25.4375H24.3304V24.5613Z" fill="black"/>
<path d="M24.3304 23.6938H23.4541V24.5613H24.3304V23.6938Z" fill="black"/>
<path d="M24.3304 22.8175H23.4541V23.6938H24.3304V22.8175Z" fill="black"/>
<path d="M24.3304 21.95H23.4541V22.8175H24.3304V21.95Z" fill="black"/>
<path d="M24.3304 21.0738H23.4541V21.95H24.3304V21.0738Z" fill="#9E9B98"/>
<path d="M24.3304 20.1975H23.4541V21.0738H24.3304V20.1975Z" fill="#9E9B98"/>
<path d="M24.3304 19.33H23.4541V20.1975H24.3304V19.33Z" fill="black"/>
<path d="M24.3304 18.4538H23.4541V19.33H24.3304V18.4538Z" fill="black"/>
<path d="M24.3304 17.5863H23.4541V18.4538H24.3304V17.5863Z" fill="black"/>
<path d="M24.3304 16.71H23.4541V17.5863H24.3304V16.71Z" fill="black"/>
<path d="M24.3304 15.8425H23.4541V16.71H24.3304V15.8425Z" fill="#030384"/>
<path d="M24.3304 14.9663H23.4541V15.8425H24.3304V14.9663Z" fill="#0404BF"/>
<path d="M24.3304 14.09H23.4541V14.9663H24.3304V14.09Z" fill="#0404BF"/>
<path d="M24.3304 13.2225H23.4541V14.09H24.3304V13.2225Z" fill="black"/>
<path d="M23.4539 39.3975H22.5864V40.2663H23.4539V39.3975Z" fill="black"/>
<path d="M23.4539 38.5225H22.5864V39.3975H23.4539V38.5225Z" fill="black"/>
<path d="M23.4539 37.655H22.5864V38.5225H23.4539V37.655Z" fill="black"/>
<path d="M23.4539 36.7775H22.5864V37.6538H23.4539V36.7775Z" fill="black"/>
<path d="M23.4539 35.91H22.5864V36.7775H23.4539V35.91Z" fill="black"/>
<path d="M23.4539 35.0338H22.5864V35.91H23.4539V35.0338Z" fill="black"/>
<path d="M23.4539 34.1588H22.5864V35.0338H23.4539V34.1588Z" fill="black"/>
<path d="M23.4539 33.2888H22.5864V34.1575H23.4539V33.2888Z" fill="black"/>
<path d="M23.4539 32.415H22.5864V33.29H23.4539V32.415Z" fill="black"/>
<path d="M23.4539 31.5463H22.5864V32.4138H23.4539V31.5463Z" fill="black"/>
<path d="M23.4539 27.1825H22.5864V28.05H23.4539V27.1825Z" fill="black"/>
<path d="M23.4539 26.3063H22.5864V27.1825H23.4539V26.3063Z" fill="#030384"/>
<path d="M23.4539 25.4388H22.5864V26.3063H23.4539V25.4388Z" fill="#030384"/>
<path d="M23.4539 24.5613H22.5864V25.4375H23.4539V24.5613Z" fill="#030384"/>
<path d="M23.4539 23.6938H22.5864V24.5613H23.4539V23.6938Z" fill="black"/>
<path d="M23.4539 21.0738H22.5864V21.95H23.4539V21.0738Z" fill="black"/>
<path d="M23.4539 20.1975H22.5864V21.0738H23.4539V20.1975Z" fill="black"/>
<path d="M23.4539 16.71H22.5864V17.5863H23.4539V16.71Z" fill="black"/>
<path d="M23.4539 15.8425H22.5864V16.71H23.4539V15.8425Z" fill="#030384"/>
<path d="M23.4539 14.9663H22.5864V15.8425H23.4539V14.9663Z" fill="#0404BF"/>
<path d="M23.4539 14.09H22.5864V14.9663H23.4539V14.09Z" fill="black"/>
<path d="M22.5867 27.1825H21.7104V28.05H22.5867V27.1825Z" fill="black"/>
<path d="M22.5867 26.3063H21.7104V27.1825H22.5867V26.3063Z" fill="#030384"/>
<path d="M22.5867 25.4388H21.7104V26.3063H22.5867V25.4388Z" fill="#030384"/>
<path d="M22.5867 24.5613H21.7104V25.4375H22.5867V24.5613Z" fill="#030384"/>
<path d="M22.5867 23.6938H21.7104V24.5613H22.5867V23.6938Z" fill="black"/>
<path d="M22.5867 16.71H21.7104V17.5863H22.5867V16.71Z" fill="black"/>
<path d="M22.5867 15.8425H21.7104V16.71H22.5867V15.8425Z" fill="#030384"/>
<path d="M22.5867 14.9663H21.7104V15.8425H22.5867V14.9663Z" fill="black"/>
<path d="M21.7103 27.1825H20.8428V28.05H21.7103V27.1825Z" fill="black"/>
<path d="M21.7103 26.3063H20.8428V27.1825H21.7103V26.3063Z" fill="#030384"/>
<path d="M21.7103 25.4388H20.8428V26.3063H21.7103V25.4388Z" fill="#030384"/>
<path d="M21.7103 24.5613H20.8428V25.4375H21.7103V24.5613Z" fill="#030384"/>
<path d="M21.7103 23.6938H20.8428V24.5613H21.7103V23.6938Z" fill="black"/>
<path d="M21.7103 18.4538H20.8428V19.33H21.7103V18.4538Z" fill="black"/>
<path d="M21.7103 17.5863H20.8428V18.4538H21.7103V17.5863Z" fill="black"/>
<path d="M21.7103 16.71H20.8428V17.5863H21.7103V16.71Z" fill="black"/>
<path d="M21.7103 15.8425H20.8428V16.71H21.7103V15.8425Z" fill="#030384"/>
<path d="M21.7103 14.9663H20.8428V15.8425H21.7103V14.9663Z" fill="black"/>
<path d="M20.8426 27.1825H19.9663V28.05H20.8426V27.1825Z" fill="black"/>
<path d="M20.8426 26.3063H19.9663V27.1825H20.8426V26.3063Z" fill="black"/>
<path d="M20.8426 25.4388H19.9663V26.3063H20.8426V25.4388Z" fill="black"/>
<path d="M20.8426 24.5613H19.9663V25.4375H20.8426V24.5613Z" fill="black"/>
<path d="M20.8426 23.6938H19.9663V24.5613H20.8426V23.6938Z" fill="black"/>
<path d="M20.8426 19.33H19.9663V20.1975H20.8426V19.33Z" fill="black"/>
<path d="M20.8426 18.4538H19.9663V19.33H20.8426V18.4538Z" fill="#FCB029"/>
<path d="M20.8426 17.5863H19.9663V18.4538H20.8426V17.5863Z" fill="#FCB029"/>
<path d="M20.8426 16.71H19.9663V17.5863H20.8426V16.71Z" fill="black"/>
<path d="M20.8426 15.8425H19.9663V16.71H20.8426V15.8425Z" fill="black"/>
<path d="M20.8426 14.9663H19.9663V15.8425H20.8426V14.9663Z" fill="black"/>
<path d="M19.9666 26.3063H19.0903V27.1825H19.9666V26.3063Z" fill="black"/>
<path d="M19.9666 25.4388H19.0903V26.3063H19.9666V25.4388Z" fill="black"/>
<path d="M19.9666 24.5613H19.0903V25.4375H19.9666V24.5613Z" fill="black"/>
<path d="M19.9666 23.6938H19.0903V24.5613H19.9666V23.6938Z" fill="#EDB58C"/>
<path d="M19.9666 22.8175H19.0903V23.6938H19.9666V22.8175Z" fill="black"/>
<path d="M19.9666 20.1975H19.0903V21.0738H19.9666V20.1975Z" fill="black"/>
<path d="M19.9666 19.33H19.0903V20.1975H19.9666V19.33Z" fill="#FCB029"/>
<path d="M19.9666 18.4538H19.0903V19.33H19.9666V18.4538Z" fill="#FCB029"/>
<path d="M19.9666 17.5863H19.0903V18.4538H19.9666V17.5863Z" fill="#2BE1F9"/>
<path d="M19.9666 16.71H19.0903V17.5863H19.9666V16.71Z" fill="#2BE1F9"/>
<path d="M19.9666 15.8425H19.0903V16.71H19.9666V15.8425Z" fill="#2BE1F9"/>
<path d="M19.0902 38.5225H18.2227V39.3975H19.0902V38.5225Z" fill="black"/>
<path d="M19.0902 37.655H18.2227V38.5225H19.0902V37.655Z" fill="black"/>
<path d="M19.0902 36.7775H18.2227V37.6538H19.0902V36.7775Z" fill="black"/>
<path d="M19.0902 35.91H18.2227V36.7775H19.0902V35.91Z" fill="black"/>
<path d="M19.0902 35.0338H18.2227V35.91H19.0902V35.0338Z" fill="black"/>
<path d="M19.0902 34.1588H18.2227V35.0338H19.0902V34.1588Z" fill="black"/>
<path d="M19.0902 33.2888H18.2227V34.1575H19.0902V33.2888Z" fill="black"/>
<path d="M19.0902 32.415H18.2227V33.29H19.0902V32.415Z" fill="black"/>
<path d="M19.0902 31.5463H18.2227V32.4138H19.0902V31.5463Z" fill="black"/>
<path d="M19.0902 30.67H18.2227V31.5463H19.0902V30.67Z" fill="black"/>
<path d="M19.0902 29.8025H18.2227V30.67H19.0902V29.8025Z" fill="black"/>
<path d="M19.0902 28.9263H18.2227V29.8025H19.0902V28.9263Z" fill="black"/>
<path d="M19.0902 28.05H18.2227V28.925H19.0902V28.05Z" fill="black"/>
<path d="M19.0902 27.1825H18.2227V28.05H19.0902V27.1825Z" fill="black"/>
<path d="M19.0902 26.3063H18.2227V27.1825H19.0902V26.3063Z" fill="black"/>
<path d="M19.0902 25.4388H18.2227V26.3063H19.0902V25.4388Z" fill="black"/>
<path d="M19.0902 24.5613H18.2227V25.4375H19.0902V24.5613Z" fill="#EDB58C"/>
<path d="M19.0902 23.6938H18.2227V24.5613H19.0902V23.6938Z" fill="#EDB58C"/>
<path d="M19.0902 22.8175H18.2227V23.6938H19.0902V22.8175Z" fill="black"/>
<path d="M19.0902 21.95H18.2227V22.8175H19.0902V21.95Z" fill="black"/>
<path d="M19.0902 21.0738H18.2227V21.95H19.0902V21.0738Z" fill="black"/>
<path d="M19.0902 20.1975H18.2227V21.0738H19.0902V20.1975Z" fill="black"/>
<path d="M19.0902 19.33H18.2227V20.1975H19.0902V19.33Z" fill="black"/>
<path d="M19.0902 18.4538H18.2227V19.33H19.0902V18.4538Z" fill="#2BE1F9"/>
<path d="M19.0902 17.5863H18.2227V18.4538H19.0902V17.5863Z" fill="#2BE1F9"/>
<path d="M19.0902 16.71H18.2227V17.5863H19.0902V16.71Z" fill="#2BE1F9"/>
<path d="M19.0902 15.8425H18.2227V16.71H19.0902V15.8425Z" fill="#2BE1F9"/>
<path d="M19.0902 14.9663H18.2227V15.8425H19.0902V14.9663Z" fill="#2BE1F9"/>
<path d="M18.2215 39.3975H17.3452V40.2663H18.2215V39.3975Z" fill="black"/>
<path d="M18.2215 38.5225H17.3452V39.3975H18.2215V38.5225Z" fill="#823D27"/>
<path d="M18.2215 37.655H17.3452V38.5225H18.2215V37.655Z" fill="#823D27"/>
<path d="M18.2215 36.7775H17.3452V37.6538H18.2215V36.7775Z" fill="#823D27"/>
<path d="M18.2215 35.91H17.3452V36.7775H18.2215V35.91Z" fill="#823D27"/>
<path d="M18.2215 35.0338H17.3452V35.91H18.2215V35.0338Z" fill="#823D27"/>
<path d="M18.2215 34.1588H17.3452V35.0338H18.2215V34.1588Z" fill="#823D27"/>
<path d="M18.2215 33.2888H17.3452V34.1575H18.2215V33.2888Z" fill="#823D27"/>
<path d="M18.2215 32.415H17.3452V33.29H18.2215V32.415Z" fill="#823D27"/>
<path d="M18.2215 31.5463H17.3452V32.4138H18.2215V31.5463Z" fill="#823D27"/>
<path d="M18.2215 30.67H17.3452V31.5463H18.2215V30.67Z" fill="#823D27"/>
<path d="M18.2215 29.8025H17.3452V30.67H18.2215V29.8025Z" fill="#823D27"/>
<path d="M18.2215 28.9263H17.3452V29.8025H18.2215V28.9263Z" fill="#823D27"/>
<path d="M18.2215 28.05H17.3452V28.925H18.2215V28.05Z" fill="#823D27"/>
<path d="M18.2215 27.1825H17.3452V28.05H18.2215V27.1825Z" fill="#823D27"/>
<path d="M18.2215 26.3063H17.3452V27.1825H18.2215V26.3063Z" fill="#823D27"/>
<path d="M18.2215 25.4388H17.3452V26.3063H18.2215V25.4388Z" fill="#823D27"/>
<path d="M18.2215 24.5613H17.3452V25.4375H18.2215V24.5613Z" fill="black"/>
<path d="M18.2215 23.6938H17.3452V24.5613H18.2215V23.6938Z" fill="#823D27"/>
<path d="M18.2215 22.8175H17.3452V23.6938H18.2215V22.8175Z" fill="black"/>
<path d="M18.2215 21.95H17.3452V22.8175H18.2215V21.95Z" fill="#823D27"/>
<path d="M18.2215 21.0738H17.3452V21.95H18.2215V21.0738Z" fill="#823D27"/>
<path d="M18.2215 20.1975H17.3452V21.0738H18.2215V20.1975Z" fill="#823D27"/>
<path d="M18.2215 19.33H17.3452V20.1975H18.2215V19.33Z" fill="#FCB029"/>
<path d="M18.2215 18.4538H17.3452V19.33H18.2215V18.4538Z" fill="#FCB029"/>
<path d="M18.2215 17.5863H17.3452V18.4538H18.2215V17.5863Z" fill="#FCB029"/>
<path d="M18.2215 16.71H17.3452V17.5863H18.2215V16.71Z" fill="#2BE1F9"/>
<path d="M18.2215 15.8425H17.3452V16.71H18.2215V15.8425Z" fill="#2BE1F9"/>
<path d="M18.2215 14.9663H17.3452V15.8425H18.2215V14.9663Z" fill="#2BE1F9"/>
<path d="M18.2215 14.09H17.3452V14.9663H18.2215V14.09Z" fill="#2BE1F9"/>
<path d="M17.345 38.5225H16.4775V39.3975H17.345V38.5225Z" fill="black"/>
<path d="M17.345 37.655H16.4775V38.5225H17.345V37.655Z" fill="black"/>
<path d="M17.345 36.7775H16.4775V37.6538H17.345V36.7775Z" fill="black"/>
<path d="M17.345 35.91H16.4775V36.7775H17.345V35.91Z" fill="black"/>
<path d="M17.345 35.0338H16.4775V35.91H17.345V35.0338Z" fill="black"/>
<path d="M17.345 34.1588H16.4775V35.0338H17.345V34.1588Z" fill="black"/>
<path d="M17.345 33.2888H16.4775V34.1575H17.345V33.2888Z" fill="black"/>
<path d="M17.345 32.415H16.4775V33.29H17.345V32.415Z" fill="black"/>
<path d="M17.345 31.5463H16.4775V32.4138H17.345V31.5463Z" fill="black"/>
<path d="M17.345 30.67H16.4775V31.5463H17.345V30.67Z" fill="black"/>
<path d="M17.345 29.8025H16.4775V30.67H17.345V29.8025Z" fill="black"/>
<path d="M17.345 28.9263H16.4775V29.8025H17.345V28.9263Z" fill="black"/>
<path d="M17.345 28.05H16.4775V28.925H17.345V28.05Z" fill="black"/>
<path d="M17.345 27.1825H16.4775V28.05H17.345V27.1825Z" fill="black"/>
<path d="M17.345 26.3063H16.4775V27.1825H17.345V26.3063Z" fill="black"/>
<path d="M17.345 25.4388H16.4775V26.3063H17.345V25.4388Z" fill="#EDB58C"/>
<path d="M17.345 24.5613H16.4775V25.4375H17.345V24.5613Z" fill="#823D27"/>
<path d="M17.345 23.6938H16.4775V24.5613H17.345V23.6938Z" fill="#EDB58C"/>
<path d="M17.345 22.8175H16.4775V23.6938H17.345V22.8175Z" fill="black"/>
<path d="M17.345 21.95H16.4775V22.8175H17.345V21.95Z" fill="black"/>
<path d="M17.345 21.0738H16.4775V21.95H17.345V21.0738Z" fill="black"/>
<path d="M17.345 20.1975H16.4775V21.0738H17.345V20.1975Z" fill="black"/>
<path d="M17.345 19.33H16.4775V20.1975H17.345V19.33Z" fill="#2BE1F9"/>
<path d="M17.345 18.4538H16.4775V19.33H17.345V18.4538Z" fill="#2BE1F9"/>
<path d="M17.345 17.5863H16.4775V18.4538H17.345V17.5863Z" fill="#2BE1F9"/>
<path d="M17.345 16.71H16.4775V17.5863H17.345V16.71Z" fill="#2BE1F9"/>
<path d="M17.345 15.8425H16.4775V16.71H17.345V15.8425Z" fill="#2BE1F9"/>
<path d="M17.345 14.9663H16.4775V15.8425H17.345V14.9663Z" fill="#2BE1F9"/>
<path d="M17.345 14.09H16.4775V14.9663H17.345V14.09Z" fill="#2BE1F9"/>
<path d="M16.4778 26.3063H15.6016V27.1825H16.4778V26.3063Z" fill="black"/>
<path d="M16.4778 25.4388H15.6016V26.3063H16.4778V25.4388Z" fill="black"/>
<path d="M16.4778 24.5613H15.6016V25.4375H16.4778V24.5613Z" fill="black"/>
<path d="M16.4778 23.6938H15.6016V24.5613H16.4778V23.6938Z" fill="black"/>
<path d="M16.4778 22.8175H15.6016V23.6938H16.4778V22.8175Z" fill="black"/>
<path d="M16.4778 20.1975H15.6016V21.0738H16.4778V20.1975Z" fill="black"/>
<path d="M16.4778 19.33H15.6016V20.1975H16.4778V19.33Z" fill="#FCB029"/>
<path d="M16.4778 18.4538H15.6016V19.33H16.4778V18.4538Z" fill="#2BE1F9"/>
<path d="M16.4778 17.5863H15.6016V18.4538H16.4778V17.5863Z" fill="#2BE1F9"/>
<path d="M16.4778 16.71H15.6016V17.5863H16.4778V16.71Z" fill="#2BE1F9"/>
<path d="M16.4778 15.8425H15.6016V16.71H16.4778V15.8425Z" fill="#2BE1F9"/>
<path d="M16.4778 14.9663H15.6016V15.8425H16.4778V14.9663Z" fill="#2BE1F9"/>
<path d="M15.6014 20.1975H14.7339V21.0738H15.6014V20.1975Z" fill="black"/>
<path d="M15.6014 19.33H14.7339V20.1975H15.6014V19.33Z" fill="#FCB029"/>
<path d="M15.6014 18.4538H14.7339V19.33H15.6014V18.4538Z" fill="#FCB029"/>
<path d="M15.6014 17.5863H14.7339V18.4538H15.6014V17.5863Z" fill="#2BE1F9"/>
<path d="M15.6014 16.71H14.7339V17.5863H15.6014V16.71Z" fill="#2BE1F9"/>
<path d="M15.6014 15.8425H14.7339V16.71H15.6014V15.8425Z" fill="#2BE1F9"/>
<path d="M14.7342 19.33H13.8579V20.1975H14.7342V19.33Z" fill="black"/>
<path d="M14.7342 18.4538H13.8579V19.33H14.7342V18.4538Z" fill="#FCB029"/>
<path d="M14.7342 17.5863H13.8579V18.4538H14.7342V17.5863Z" fill="#FCB029"/>
<path d="M13.8577 18.4538H12.9902V19.33H13.8577V18.4538Z" fill="black"/>
<path d="M13.8577 17.5863H12.9902V18.4538H13.8577V17.5863Z" fill="black"/>
</g>
<defs>
<clipPath id="clip0_69_12157">
<rect width="50" height="50" fill="white"/>
</clipPath>
</defs>
</svg>
