<svg width="163" height="48" viewBox="0 0 163 48" fill="none" xmlns="http://www.w3.org/2000/svg">
<mask id="mask0_690_112164" style="mask-type:alpha" maskUnits="userSpaceOnUse" x="0" y="0" width="163" height="48">
<path d="M31.5461 4.0377L32.2438 4.08212L33.9148 4.19922C34.1217 4.19922 35.1681 4.55053 35.5372 4.31228C36.6851 3.54506 36.9812 4.40112 38.2953 4.45765L39.0213 4.48996C40.0881 4.53438 41.3373 3.89233 41.9903 4.57879C42.5622 5.18046 43.2355 4.48996 43.7912 4.59898C44.6024 4.76051 45.3487 4.59898 46.1072 4.57879C46.8656 4.5586 47.2144 5.28949 48.269 4.6111C48.6178 4.38497 49.3682 4.36074 49.7697 4.29613C49.9542 4.27596 50.1371 4.24359 50.3173 4.19922C50.5151 4.11341 50.7307 4.07602 50.946 4.09019C51.242 4.14673 51.3516 4.42535 51.53 4.64744C51.677 4.83284 51.8125 5.02703 51.9356 5.22892C52.1889 5.62714 52.3291 6.08624 52.3412 6.55742C52.3398 6.667 52.3303 6.77632 52.3128 6.8845C52.1425 7.69211 51.8302 8.72584 50.9987 8.29781C50.8608 8.22513 50.5931 8.38261 50.2402 8.46337L49.2424 8.71373C48.8003 8.82275 48.9585 10.2764 48.3663 10.4339C47.8837 10.5591 46.7156 9.37192 46.2004 9.51326L44.1724 10.0786L42.4121 10.5874L41.6009 10.8175C40.952 11.0073 41.2683 11.5646 40.1246 11.294C39.6825 11.185 38.851 11.6534 38.4373 11.7867C37.8086 11.9845 37.2205 12.1905 36.6242 12.3762C36.243 12.5054 35.74 13.2121 35.379 13.3413C34.4015 13.6805 33.5214 13.4422 32.6169 13.9753C32.5384 14.0086 32.4625 14.0478 32.3898 14.0924C32.3249 14.1408 32.2275 14.2458 32.3289 14.2943C32.4303 14.3427 32.7345 14.2458 32.8846 14.2216C33.3145 14.1489 33.7485 14.1045 34.1785 14.052C34.4259 14.0197 34.6733 13.9914 34.9207 13.9551C35.1593 13.9089 35.4003 13.8766 35.6427 13.8582L36.1253 13.7895C36.4823 13.737 36.8635 13.4826 37.2002 13.628C37.9222 13.9349 38.6482 13.4059 39.3093 13.313C40.2868 13.1717 40.5261 13.7411 41.4711 13.0748C42.2823 12.5135 43.2031 12.8244 43.7303 12.776C45.3527 12.6306 45.5799 13.0102 46.2491 12.6145C47.1374 12.0855 47.9324 12.9779 48.342 12.6145C48.9666 12.0774 49.7129 12.885 50.0739 13.1636C50.3106 13.4139 50.525 13.6841 50.7148 13.9712C50.9402 14.3168 51.1227 14.6883 51.2583 15.0776C51.4498 15.5739 51.5779 16.0921 51.6395 16.6202C51.6395 16.9553 51.6679 17.1815 51.6679 17.2905C51.6849 17.5652 51.6435 17.8404 51.5462 18.0981C51.505 18.2228 51.4339 18.3356 51.339 18.4268C51.2442 18.518 51.1284 18.5848 51.0018 18.6213C50.8751 18.6579 50.7414 18.6632 50.6123 18.6368C50.4831 18.6104 50.3624 18.553 50.2605 18.4696C50.1104 18.3686 49.8995 18.5342 49.7048 18.5786C48.3826 18.9017 50.4511 21.28 49.1654 21.4537C47.543 21.6717 49.2789 18.3565 47.1374 19.0753C46.7175 19.1828 46.2906 19.2611 45.8597 19.3095C44.7403 19.5154 45.0039 21.272 42.4162 19.9879C41.6739 19.6204 40.7938 20.3351 39.9826 20.5209C39.0619 20.7268 38.129 20.9247 37.1758 21.171C37.0179 21.1838 36.8631 21.222 36.7175 21.2841C35.4074 22.0634 35.3223 21.6435 34.6327 21.8575C33.9432 22.0715 33.6715 22.6126 33.0103 22.8912C32.4547 23.1173 31.4691 23.0649 30.9458 23.3637C30.7267 23.4873 30.5142 23.6221 30.309 23.7675C30.2563 23.8038 30.2076 23.8442 30.159 23.8846C30.1103 23.9249 29.944 24.0622 30.1184 24.0501C30.2551 24.0292 30.3905 24.0009 30.524 23.9653L30.9174 23.9128L32.1342 23.7069H32.2194C33.781 23.4404 35.6224 22.4955 37.7031 22.867C39.8528 23.2708 41.4225 22.3824 42.5703 22.3017C43.7182 22.2209 44.5375 22.0594 44.9471 22.1846C45.8597 22.4632 46.5046 22.4834 46.8697 22.6651C47.6584 23.2041 48.4079 23.7978 49.1126 24.4418C49.6644 24.9405 50.0015 25.6319 50.0536 26.372C50.0536 26.7475 49.648 27.4744 48.9139 28.5485C48.1798 29.6226 46.7804 30.2202 46.5493 32.2271C46.456 33.0347 46.0179 33.8019 45.8151 34.5894C45.7174 34.9754 45.6402 35.3663 45.5839 35.7604C45.5434 36.0673 45.5839 36.3944 45.5231 36.6972C45.4785 36.9112 45.4744 37.1656 45.2878 37.1737C44.9593 37.1737 44.8295 36.0915 44.2617 36.4388C43.9007 36.6528 43.9129 39.1725 43.0449 37.105C42.7123 36.2974 42.3067 34.3794 42.6839 33.1397C42.7772 32.8288 42.6271 31.7426 42.8826 31.4841C43.7993 30.5433 43.126 30.3414 43.3977 29.5741C43.5478 29.1703 43.9453 28.7423 44.1238 28.3345C44.2698 27.9993 44.2171 27.6763 44.3915 27.3532C44.4337 27.2855 44.4549 27.2068 44.4523 27.1271C44.4117 26.8687 44.0224 26.9938 43.8723 26.9938C43.3856 26.9938 43.564 27.7126 42.4162 26.9938C42.2945 26.9171 41.8565 26.9938 41.7105 26.9938C37.9343 26.9938 40.3192 28.815 38.9037 28.9159C37.7883 29.0007 39.212 26.5658 34.0365 27.6117C31.8422 28.0518 33.128 29.0694 32.2803 29.2269C31.8341 29.3157 31.5218 27.9387 30.1427 28.3587C29.798 28.4637 29.4532 28.5606 29.1125 28.6777C28.6866 28.8271 29.0476 29.9214 27.8592 29.2107C27.6645 29.0936 27.4536 29.4126 27.2508 29.5136C27.048 29.6145 26.9385 29.7357 26.7519 29.7155C26.4924 29.6912 26.176 29.344 25.9854 29.1663C25.7409 28.9407 25.5257 28.6857 25.3445 28.4072C25.0022 27.8378 24.8252 27.1849 24.8335 26.5214C24.826 26.3761 24.826 26.2306 24.8335 26.0853C24.9389 25.6815 25.4986 25.1364 26.5167 24.4297C26.9791 24.1094 27.5347 23.758 28.1837 23.3758C28.7678 23.0312 29.3883 22.6893 30.0454 22.3501C30.9918 21.8629 32.0166 21.3783 33.1199 20.8964C33.9878 20.5169 34.9045 20.14 35.8698 19.7658C36.3728 19.572 36.8757 19.3903 37.3786 19.2126C38.2223 18.9178 39.0781 18.6473 39.9339 18.405C41.2846 18.0254 42.6596 17.7064 44.0345 17.4641C44.2414 17.4237 44.4401 17.3995 44.6592 17.3793C44.7038 17.3793 44.8579 17.3793 44.8822 17.3389C44.9066 17.2986 44.8173 17.2501 44.7768 17.2501C44.3712 17.2501 43.994 17.2097 43.6005 17.2097C43.1017 17.2097 42.5987 17.1815 42.0998 17.1815C41.7875 17.1815 40.3274 17.0522 40.0475 17.2057C37.7842 18.4615 37.768 17.4278 36.0888 17.7427L35.5251 17.8558C33.927 18.1627 34.9085 19.2651 34.2028 19.4347C33.274 19.6568 33.3429 18.195 30.6416 19.0834L29.8791 19.3297C29.6601 19.4064 29.7453 19.8789 29.222 19.5639C29.0436 19.4549 28.8408 19.7173 28.6501 19.79C28.4595 19.8627 28.35 19.9556 28.204 19.9313C28.1243 19.9086 28.0535 19.8621 28.0012 19.7981C27.805 19.5803 27.6272 19.3466 27.4698 19.0995C27.2508 18.7442 26.9669 18.6957 27.0115 17.9245C27.0561 17.1532 26.8614 16.6202 26.8614 16.1477C26.8614 15.925 26.8859 15.7029 26.9345 15.4855C26.9473 15.3582 26.9773 15.2333 27.0237 15.114C27.0967 14.9807 27.2833 14.9484 27.405 14.8919C27.6159 14.8031 28.0296 14.8919 28.2161 14.5244C28.3135 14.3342 28.4748 14.1839 28.6719 14.0998C28.869 14.0157 29.0895 14.0031 29.295 14.0641C30.9621 14.371 32.5804 11.823 34.9167 11.6696C37.1434 11.5242 38.3724 10.2684 40.1205 9.61824C40.9682 9.30328 41.8159 8.98831 42.6798 8.7218C43.1138 8.58451 43.5519 8.46337 43.994 8.36242C44.4361 8.26147 44.8782 8.23724 45.3081 8.12014C45.3718 8.10149 45.4341 8.07856 45.4947 8.05149C45.5337 8.03729 45.5685 8.01371 45.5961 7.98284C45.6093 7.96537 45.6164 7.94412 45.6164 7.92227C45.6164 7.90043 45.6093 7.87918 45.5961 7.8617C45.5732 7.8471 45.5462 7.84003 45.519 7.84151C45.0407 7.8632 44.5654 7.92945 44.0994 8.03938C43.0449 8.22109 41.9538 7.78094 40.9155 8.39876C40.2138 8.80256 39.3215 8.52798 38.5265 8.62489L37.6747 8.73392C36.9284 8.83891 37.0582 9.65862 36.393 9.73938C35.2046 9.88071 34.3204 8.38665 32.3979 9.31539C31.8175 9.5681 31.1624 9.59262 30.5646 9.38404C30.1105 9.25739 29.6337 9.23393 29.1693 9.31539C29.0391 9.31168 28.9098 9.2927 28.784 9.25886C28.3784 9.11349 28.1878 8.90351 28.1715 8.63297C28.1553 8.36242 28.1715 8.19282 28.1715 8.13225C28.1851 7.61544 28.2711 7.10304 28.4271 6.60992C28.6258 5.97191 29.0233 5.65291 29.1369 4.71609C29.2317 4.40456 29.3681 4.10712 29.5425 3.83176C29.6358 3.53707 29.7538 3.25071 29.8953 2.9757C30.0738 2.70111 30.2441 2.9757 30.3658 3.15741C30.5092 3.38798 30.6966 3.58828 30.9174 3.74696C31.116 3.85789 31.322 3.95503 31.534 4.0377" fill="#692C90"/>
<path d="M130.821 9.98572C130.78 10.3572 130.642 10.6843 130.594 11.0639C130.578 11.2556 130.589 11.4485 130.626 11.6373C130.69 12.0415 130.592 12.4545 130.354 12.7881C130.164 13.1111 130.087 13.5028 129.912 13.8743C129.659 14.5195 129.261 15.0984 128.748 15.5663C125.783 18.0295 126.976 19.4912 126.035 19.6043C124.785 19.7496 127.422 17.1128 125.098 18.3283C124.063 18.8694 122.084 20.9934 121.407 19.8627C121.09 19.3297 120.222 20.2342 119.626 20.3998C119.302 20.4886 118.973 20.5653 118.649 20.6461C118.386 20.6717 118.128 20.7385 117.886 20.844C117.874 20.8521 117.863 20.8636 117.857 20.8772C117.851 20.8907 117.848 20.9058 117.85 20.9207C117.874 21.058 118.377 21.0983 118.495 21.1307L119.306 21.3326C120.117 21.5264 120.247 22.2371 121.739 21.8535C122.226 21.7283 122.737 22.0231 123.232 22.1079C123.479 22.1296 123.718 22.2084 123.93 22.338C124.149 22.4915 124.254 22.7661 124.473 22.9155C125.434 23.5777 124.972 23.824 125.098 24.3126C125.21 24.6808 125.225 25.0715 125.142 25.4473C125.003 25.914 124.826 26.369 124.615 26.8081C124.493 27.0867 124.368 27.3855 124.242 27.7045C123.861 28.6535 123.897 29.9295 123.025 31.044C122.506 31.6982 122.478 32.6875 122.19 33.6041C122.1 33.8787 122.015 34.1613 121.926 34.444C121.772 34.9407 121.796 35.5302 121.484 35.9825C120.478 37.4523 120.953 38.1186 120.721 39.2816C120.612 39.8267 120.316 40.3839 120.409 40.9573C120.815 43.3478 120.089 42.9158 119.951 43.9535C119.89 44.4058 119.833 44.854 119.78 45.3063C119.756 45.5001 119.748 45.7101 119.728 45.8918C119.728 46.0089 119.91 47.3455 119.322 47.507C118.705 47.4141 119.087 46.021 118.251 46.0775C117.866 46.1018 118.186 47.1153 117.59 47.0709C117.266 47.0467 116.864 46.1866 117.314 44.9065C117.432 44.5714 117.172 44.2927 116.97 44.0383C116.888 43.9293 116.836 45.4072 116.564 45.2861C116.037 45.0478 116.394 42.8956 116.686 42.5079C116.978 42.1203 116.836 41.4823 116.921 40.9775L116.982 40.606C117.095 39.9478 116.913 39.1483 117.351 38.6516C118.649 37.1858 118.34 36.1884 118.247 34.9286C118.052 32.2514 118.973 32.4775 119.395 31.2943C119.691 30.4625 120.563 29.6791 120.34 28.8271C120.166 28.1487 120.806 27.7288 121.05 27.1877C121.382 26.4528 121.05 25.6088 122.108 25.0152C122.138 24.9863 122.157 24.9488 122.164 24.9081C122.17 24.8674 122.164 24.8258 122.145 24.7891C122.06 24.6033 121.739 24.6639 121.565 24.6437C121.374 24.627 121.185 24.6 120.997 24.563C118.604 23.9169 119.257 27.6238 118.13 26.9858C117.282 26.5214 120.762 24.0865 115.996 23.3152C115.72 23.2708 115.481 23.5817 115.217 23.0285C115.128 22.8468 114.686 22.7216 114.516 22.9478C114.477 23.0072 114.448 23.0727 114.43 23.1416C114.248 23.7271 114.767 23.5817 113.879 24.8981C113.678 25.1692 113.528 25.4743 113.437 25.7986C113.295 26.2872 113.4 26.5456 113.262 27.0504C113.104 27.3724 113.012 27.7223 112.991 28.0801C113.323 30.5312 112.824 29.2915 112.617 29.6226C112.468 29.9861 112.385 30.3729 112.37 30.7654C112.289 31.1692 112.212 31.573 112.143 31.9768C112.105 32.1841 112.073 32.39 112.046 32.5946C112.046 32.748 112.046 32.9984 111.94 33.1115C111.835 33.2245 111.721 33.2003 111.612 33.2326C111.477 33.2717 111.356 33.3472 111.263 33.4507C111.153 33.5678 111.113 34.2179 110.934 34.2098C110.864 34.1943 110.798 34.1648 110.739 34.1232C110.681 34.0816 110.631 34.0286 110.593 33.9675C110.367 33.5289 110.177 33.0724 110.026 32.6027L109.989 32.5259C109.911 32.2505 109.737 32.0116 109.498 31.8516C109.133 31.5366 109.206 30.9229 109.182 30.4423C109.137 30.2466 109.135 30.0434 109.176 29.8468C109.217 29.6502 109.301 29.4649 109.421 29.3036C109.617 28.9616 109.719 28.5745 109.717 28.181C109.69 27.4295 109.922 26.6912 110.374 26.0893C110.946 25.3383 110.959 24.2722 111.267 23.3354C111.628 22.2411 112.058 22.5278 112.398 19.9758C112.444 19.7869 112.507 19.603 112.589 19.4266C112.943 18.3848 113.277 17.3861 113.591 16.4304C113.911 15.4572 114.211 14.5325 114.495 13.6442C114.613 13.2767 115.104 12.562 115.043 11.8795C114.966 10.9831 115.298 10.2886 115.627 9.47693C115.736 9.20638 115.883 9.00044 116.203 9.00044C116.292 9.01153 116.38 9.02908 116.467 9.05294C116.671 9.12477 116.858 9.23901 117.014 9.38809C117.242 9.57895 117.451 9.79126 117.639 10.0221C117.919 10.3734 118.308 10.7691 118.198 11.2738C118.13 11.5848 117.886 11.8351 117.842 12.142C117.851 12.4285 117.893 12.713 117.967 12.99C118 13.3938 118.016 13.7572 118.012 14.1408C118.012 14.4477 118.109 15.6551 117.732 15.8126C116.742 16.2164 117.732 14.3952 117.034 14.9404C116.739 15.2092 116.549 15.5743 116.499 15.9701C116.448 16.2136 116.416 16.4606 116.402 16.709C116.398 16.7426 116.398 16.7764 116.402 16.81C116.471 17.0199 116.884 16.9271 117.038 16.915C117.29 16.8907 117.537 16.8382 117.785 16.81C118.288 16.7575 118.754 17.0523 119.229 16.6242C119.573 16.3133 120.129 16.4748 120.551 16.39C121.253 16.2446 121.898 15.6834 122.482 15.8812C123.232 16.1356 123.341 15.5784 123.719 15.4047C123.942 15.3038 124.153 15.2028 124.36 15.0979C124.825 14.8754 125.277 14.6274 125.714 14.3549C126.12 14.0843 126.371 13.5473 126.793 13.519C127.495 13.4544 127.304 13.0142 127.507 12.7518C127.71 12.4893 127.807 12.348 127.941 12.1501C128.075 11.9522 128.115 11.5282 128.347 11.4394C128.91 11.2375 128.752 10.5147 128.825 10.0907C128.886 9.75959 128.931 9.47289 128.951 9.23868C128.951 9.10543 128.971 8.98833 128.971 8.88738C128.975 8.77955 128.962 8.67179 128.931 8.56837C128.792 8.09871 128.558 7.66279 128.241 7.28832C128.111 7.11468 127.876 6.55744 127.771 6.77953C126.935 8.49569 126.793 6.0648 126.091 5.74176C125.762 5.59799 125.42 5.48445 125.069 5.40256C122.997 4.90589 124.209 7.96671 122.964 7.50233C121.614 7.00566 124.485 5.07952 122.153 5.10779H121.772C121.288 5.14224 120.806 5.2029 120.328 5.2895C119.326 5.46313 119.294 6.45245 117.59 6.11729C117.018 6.00423 116.568 6.64224 116.114 6.96528C115.659 7.28832 115.363 7.8496 114.804 8.01516C114.244 8.18072 113.96 8.82277 113.587 9.26695C113.214 9.71113 112.658 9.80804 112.731 10.4137C112.759 10.6924 113.011 11.2779 112.699 11.7301C112.386 12.1824 112.504 12.8931 112.39 13.2161C111.652 15.2957 111.745 13.1394 111.709 12.5297C111.672 11.9199 111.303 13.1677 111.117 13.7128C111.048 13.9147 110.983 14.1166 110.93 14.3104C110.813 14.7142 110.723 15.0413 110.654 15.3321C110.571 15.6369 110.519 15.9494 110.5 16.2648C110.496 16.3051 110.496 16.3457 110.5 16.386C110.505 16.441 110.505 16.4965 110.5 16.5515C110.512 16.6772 110.476 16.8028 110.399 16.9028C110.273 17.0199 110.086 16.9311 109.94 16.9796C109.652 17.0684 109.405 17.7872 109.036 17.452C108.886 17.3188 108.833 16.1195 108.695 15.962C108.557 15.8045 108.602 15.433 108.419 15.5138C108.237 15.5945 108.302 16.1881 108.107 16.0387C107.657 15.6995 107.754 14.2418 107.726 13.7734C107.726 13.418 107.754 13.0708 107.791 12.7316C107.827 12.3924 107.726 12.0128 107.977 11.5969C108.229 11.181 108.213 10.6964 108.383 10.2684C108.655 9.56576 109.194 9.79997 109.446 8.29379C109.506 8.03418 109.648 7.80063 109.851 7.62751C110.002 7.48435 110.16 7.34955 110.326 7.22371C110.452 7.13084 110.525 7.17929 110.654 7.22371C110.784 7.26813 110.857 7.1591 110.91 7.06623C111.012 6.87563 111.091 6.67367 111.145 6.46456C111.393 5.65696 112.281 5.07952 113.076 4.92608C114.747 4.60304 114.11 4.25577 114.645 3.96907C115.088 3.73082 115.542 3.51277 116.004 3.31895L116.69 3.0484C117.567 2.69011 118.47 2.39722 119.391 2.17215C119.82 2.07139 120.257 2.01189 120.697 1.99447C121.403 1.99232 122.108 2.02872 122.81 2.1035C123.744 2.19775 124.663 2.39688 125.552 2.69709C126.25 2.93937 125.434 3.21799 127.414 3.6218C127.872 3.71467 128.144 4.18308 128.452 4.5142C128.882 4.97453 129.478 5.36218 129.563 5.93154C129.738 7.10661 130.419 7.54675 130.614 8.37455C130.729 8.81766 130.803 9.27055 130.833 9.72728C130.841 9.81593 130.841 9.90514 130.833 9.99379" fill="#692C90"/>
<path d="M75.7444 5.95172C75.7305 6.22373 75.6925 6.49399 75.6308 6.75932C75.6155 6.91065 75.5437 7.05073 75.4294 7.15173C75.3152 7.25272 75.167 7.30724 75.0143 7.30446C74.9453 7.30446 74.8561 7.19139 74.7628 6.98545C74.6249 6.66645 74.5194 6.13343 74.0084 5.98402C73.4973 5.83462 73.4568 5.62868 73.0552 5.49542C71.8384 5.09162 72.171 6.86027 71.8384 6.83201C71.2868 6.83201 71.2625 4.49399 69.9078 5.48331C69.6685 5.66098 69.3886 5.5883 69.2101 5.61656C67.1335 5.91942 69.2669 7.34888 68.1759 7.51443C67.2308 7.65576 68.549 5.62464 66.7968 5.94364C66.6297 5.98378 66.4844 6.08645 66.3912 6.23034C66.2777 6.38379 66.2087 6.61396 65.9856 6.5655C65.7625 6.51704 65.4786 6.22631 65.1744 6.29899C64.8013 6.38379 64.7688 6.70279 64.6512 6.98545C64.5823 7.19139 64.5174 7.41752 64.4484 7.62346C64.2862 8.05553 63.9617 8.46741 63.9901 8.94389C64.0874 10.5793 63.6534 10.8418 63.0329 11.7019C62.4123 12.562 63.2681 15.8529 62.6273 16.176C62.1608 16.4183 62.2217 14.4719 61.8161 15.3038C61.5686 15.7924 61.6619 16.3617 61.2847 16.919C60.7858 17.6458 61.1103 18.615 60.5019 19.3903C60.0111 20.0202 60.1207 23.4888 59.9016 24.2359C59.642 25.104 59.3095 23.3717 59.0661 24.2359C59.062 24.3376 59.0386 24.4376 58.9971 24.5307C58.8939 24.7817 58.7719 25.0247 58.6321 25.2575C58.4367 25.5389 58.2989 25.8558 58.2265 26.1903C58.1129 26.691 58.2265 26.9413 58.1576 27.4663C58.0205 27.8065 57.9503 28.1698 57.9507 28.5364C57.9494 28.5489 57.9509 28.5615 57.9551 28.5734C57.9593 28.5853 57.9661 28.5961 57.975 28.605C58.409 30.8582 57.9061 29.8164 57.6749 30.0829C57.5376 30.4618 57.4756 30.8636 57.4924 31.2661C57.4417 31.5448 57.4118 31.8269 57.4031 32.11C57.3763 32.243 57.3614 32.3782 57.3585 32.5138C57.3226 32.7249 57.2996 32.938 57.2896 33.1518C57.2896 33.3093 57.3342 33.5556 57.2206 33.6768C57.1339 33.7589 57.0198 33.8063 56.9002 33.81C56.7542 33.8543 56.6308 33.9525 56.5554 34.0846C56.4419 34.1977 56.4662 34.8357 56.2837 34.8599C56.1012 34.8841 56.0079 34.7226 55.9146 34.6297C55.6566 34.1924 55.4354 33.7346 55.2535 33.2608C55.2535 33.2366 55.2291 33.2124 55.2291 33.1922C55.0953 32.9418 55.1399 32.8974 54.6613 32.53C54.2557 32.2352 54.3165 31.6214 54.2557 31.1449C54.1573 30.742 54.2229 30.3167 54.4382 29.9618C54.4828 29.8689 54.5315 29.776 54.5761 29.663C54.6412 29.3878 54.6725 29.1058 54.6694 28.8231C54.6694 28.71 54.6451 28.5929 54.6451 28.4596C54.6488 27.8656 54.8142 27.2837 55.1237 26.7758C55.13 26.7415 55.1454 26.7094 55.1683 26.6829C55.504 26.0998 55.6933 25.4445 55.7199 24.7729C55.7645 24.4539 55.6875 24.0542 55.9024 23.8361C56.4662 23.2708 56.2675 22.9962 56.4743 22.4511C56.6812 21.9059 56.9205 21.7888 57.1111 21.2599C57.3545 20.5815 57.5167 19.5074 57.7763 18.837C57.882 18.4063 58.0301 17.9871 58.2184 17.5853C58.7741 16.705 59.0499 16.4667 59.3257 15.6066C59.5082 15.0898 59.1878 13.9914 59.6339 13.4544C60.1531 12.8325 60.1288 11.8836 60.36 11.1042C60.4289 10.765 60.7047 10.6237 60.794 10.2966C60.8832 9.96955 60.8183 9.45672 60.9116 9.11753C61.0049 8.77833 61.0941 8.45529 61.1833 8.1161C61.2523 7.91016 61.301 7.7123 61.3658 7.52251C61.3902 7.43367 61.5281 7.07025 61.301 7.15909C61.2181 7.1836 61.1399 7.22182 61.0698 7.27215C60.9319 7.32061 60.798 7.38522 60.6642 7.43367C60.2342 7.61942 60.2261 8.50779 59.7232 8.61278C59.3662 8.68546 59.4109 7.85363 58.766 8.04745C58.3396 8.15131 57.9076 8.23085 57.4721 8.2857C57.2975 8.31637 57.1253 8.35955 56.957 8.41491C56.8123 8.48122 56.6524 8.50758 56.494 8.49124C56.3356 8.4749 56.1845 8.41646 56.0565 8.32204C55.8352 8.1515 55.5744 8.03903 55.2981 7.99496C54.8925 7.9465 54.6086 7.53059 54.3774 7.18735C54.2633 6.95188 54.1275 6.72748 53.9718 6.51704C53.7686 6.30181 53.6406 6.02709 53.6067 5.73367C53.5581 5.44293 53.6067 5.15219 53.6067 4.86145C53.562 4.66337 53.562 4.45788 53.6067 4.25979C53.6494 4.16414 53.6807 4.06386 53.7 3.96098C53.7243 3.69851 53.7 3.45219 54.0651 3.45219C54.1583 3.45219 54.203 3.50064 54.2719 3.58948C54.3509 3.69337 54.4125 3.80927 54.4544 3.93271C54.5562 4.16697 54.6885 4.3869 54.8479 4.58687C54.9313 4.68865 55.0357 4.77155 55.1539 4.83003C55.2721 4.88852 55.4014 4.92126 55.5333 4.92606C55.9389 4.92606 56.3891 4.62725 56.8759 4.79685C57.898 5.15623 58.839 4.74031 60.1653 4.39304C60.5019 4.30017 61.3496 3.70658 61.7877 3.70658C63.0045 3.70658 63.5885 2.54363 64.6269 2.85052C66.4156 3.37143 66.9875 3.13318 68.184 2.48306C69.0044 1.97312 69.9889 1.79268 70.938 1.97831C72.7105 2.7213 73.4081 2.38211 74.1138 2.93532C74.49 3.18742 74.8228 3.49831 75.0994 3.85599C75.2951 4.13347 75.4418 4.44208 75.5334 4.76858C75.6599 5.1507 75.7282 5.54948 75.7362 5.95172" fill="#692C90"/>
<path d="M135.712 7.94664C135.562 7.78916 134.852 7.9951 134.621 7.94664C134.264 7.87799 133.871 7.1673 133.648 7.44996C132.97 8.31814 132.869 6.59794 132.638 5.95993C132.508 5.63541 132.436 5.29126 132.423 4.94235C132.423 4.83736 132.399 4.64354 132.476 4.56278C132.553 4.48202 132.812 4.5224 132.974 4.5224C133.591 4.5224 134.232 3.99746 135.505 3.97727C136.637 3.97727 137.241 2.62857 138.75 2.71337C139.874 2.77797 140.51 2.01075 140.92 1.90576C141.009 1.90576 141.099 1.90576 141.188 1.90576C141.492 1.91955 141.791 1.99506 142.065 2.12768C142.339 2.2603 142.583 2.44723 142.782 2.67702C143.014 2.91509 143.195 3.19815 143.313 3.50865C143.431 3.81915 143.483 4.15045 143.467 4.48202C143.483 4.69036 143.468 4.89988 143.423 5.10387C143.325 5.39461 142.904 5.42692 142.648 5.50768C142.186 5.67727 141.776 6.13357 141.281 6.08511C139.987 5.96397 139.983 6.73523 139.501 7.01386C139.239 7.12433 139.003 7.28643 138.807 7.49034C138.655 7.76296 138.556 8.06158 138.515 8.37063C138.43 8.68156 138.316 8.99249 138.223 9.30341C138.085 9.76779 137.955 10.2322 137.817 10.6965C137.501 11.6737 136.422 12.5904 136.422 13.4182C136.422 16.16 134.942 17.2139 135.165 19.4227C136.207 29.7519 133.696 19.5438 133.542 25.722C133.518 26.5861 133.06 27.3857 132.942 28.2417C132.91 28.48 132.739 29.2876 132.922 29.4531C133.104 29.6187 133.368 29.3926 133.615 29.4531C134.021 29.5541 134.491 30.1234 134.893 30.2123C135.243 30.2776 135.567 30.4394 135.829 30.6793C136.09 30.9192 136.279 31.2275 136.373 31.5691C136.477 31.8266 136.536 32.0996 136.548 32.3767C136.548 32.627 136.487 33.8263 136.183 33.7738C135.757 33.6971 135.424 32.5422 134.966 32.5422C134.682 32.5422 134.118 32.3686 133.749 32.7684C133.242 33.3175 132.589 33.1964 131.859 33.5961C130.817 35.175 129.973 33.9555 129.142 33.9555C128.712 33.9555 128.464 34.541 128.042 34.533C127.527 34.533 127.479 33.3216 127.479 32.946V32.6068C127.481 32.3804 127.512 32.1551 127.572 31.9365V31.8679C127.765 31.6359 127.999 31.4404 128.261 31.2904C128.594 31.0724 128.821 30.5071 129.361 30.6726C129.693 30.7736 130.022 30.4465 130.338 30.293C130.541 30.1961 130.792 30.1315 130.671 29.8892C130.585 29.7156 130.379 29.655 130.265 29.5097C130.116 29.2997 130.038 29.048 130.042 28.7909C130.042 28.4113 130.322 27.1649 130.882 25.0517C131.437 22.9398 132.658 20.6583 132.857 17.9165C133.141 13.9754 134.074 12.4208 134.885 10.9065C135.065 10.4759 135.201 10.028 135.29 9.56992C135.372 9.28726 135.96 8.21315 135.724 7.95472" fill="#692C90"/>
<path d="M82.964 2.24082V2.30542C82.9843 2.13987 82.9843 2.13179 82.964 2.24082Z" fill="#692C90"/>
<path d="M82.5301 1.56253C82.1245 1.49388 82.745 3.22619 82.1447 3.22619C81.5444 3.22619 82.3759 1.49388 81.3863 1.53426C81.0627 1.61705 80.7769 1.80632 80.5751 2.07132L78.3727 5.32193C77.7521 6.96944 75.9391 7.84165 74.9048 10.1312C74.6087 10.535 74.3329 10.9388 74.0368 11.379C73.5785 12.0291 73.1688 14.0602 72.7308 14.0077C72.4833 14.0602 72.893 12.9417 72.4144 13.4101C71.7938 13.9835 71.3842 15.2353 70.9258 15.9096C70.3283 16.7576 69.755 17.5854 69.2061 18.393C68.906 18.7968 68.5206 19.9557 68.2448 20.3474C67.8108 20.9733 67.5148 20.8158 67.101 21.3892C66.5738 22.1443 66.1641 23.3678 65.7747 23.917C65.4272 24.4118 64.9914 24.8388 64.489 25.1769C64.3269 25.3174 64.2093 25.5016 64.1503 25.7073C64.0912 25.913 64.0934 26.1313 64.1564 26.3358C64.1564 26.4408 64.4565 27.5472 64.6999 27.3534C64.5417 27.4826 64.2213 27.6926 63.8116 28.0035C63.402 28.3144 62.9193 28.6819 62.4164 29.0695C61.9134 29.4572 61.4997 29.7762 61.1144 30.0871C60.8809 30.264 60.6661 30.4643 60.4735 30.6847C60.4183 30.871 60.4099 31.0679 60.4492 31.2581C60.4601 31.5684 60.5148 31.8756 60.6114 32.1707C60.6801 32.4292 60.8327 32.6577 61.0454 32.8208C61.1876 32.9363 61.3649 33.0004 61.5484 33.0026C61.7283 33.0045 61.9065 32.9687 62.0716 32.8976L62.7571 32.4049C63.8765 31.5206 63.8562 35.1629 65.3853 30.4788C65.7909 29.2674 67.677 29.3805 68.7478 28.1327C69.6493 27.1307 70.7339 26.3085 71.9439 25.7099C72.5442 25.3949 73.1607 25.1163 73.7853 24.8579C73.976 24.7811 75.6024 23.8605 75.5335 24.4177C75.3906 25.0729 75.1994 25.7167 74.9616 26.3439C74.7588 27.0263 74.556 27.7128 74.4181 28.4073C74.3096 28.8507 74.247 29.3039 74.2315 29.76C74.2315 29.8367 74.2558 29.9175 74.2558 29.97C74.3591 30.5284 74.3043 31.1045 74.0976 31.6337C74.0554 31.7802 73.9851 31.9173 73.8908 32.0375C73.6251 32.5144 73.4181 33.0215 73.2743 33.5477C73.2743 33.576 73.2499 33.6002 73.2499 33.6527C73.2227 33.7096 73.2075 33.7714 73.2053 33.8344C73.1692 33.8994 73.1458 33.9707 73.1364 34.0444C73.1102 34.1016 73.095 34.1633 73.0917 34.2261L72.9092 34.8762C72.9092 34.8762 72.8606 35.0862 72.8403 35.1387C72.82 35.1912 72.7713 35.4254 72.7713 35.4738C72.7661 35.5291 72.7496 35.5827 72.7227 35.6313C72.7326 35.6915 72.7326 35.7529 72.7227 35.813C72.7132 35.8241 72.7062 35.837 72.702 35.8509C72.6978 35.8648 72.6965 35.8794 72.6983 35.8938C72.6537 36.1522 72.6091 36.3622 72.5847 36.5439C72.5847 36.5681 72.6091 36.6206 72.6091 36.6489C72.6284 36.7825 72.6742 36.9109 72.7438 37.0266C72.8135 37.1424 72.9055 37.2432 73.0147 37.3232C73.1526 37.3515 73.3351 37.3757 73.4203 37.2707C73.5582 37.0365 73.0999 36.5156 73.2134 36.3622C73.2824 36.2814 73.4649 36.3339 73.5785 36.4389C73.8786 36.6731 73.8786 37.194 73.8786 37.4565C73.9066 37.8299 73.8902 38.2054 73.8299 38.575V38.68C73.8299 38.8617 73.8664 38.2762 73.8664 38.3731C73.8664 38.3731 73.8664 38.5023 73.8421 39.0475C73.8421 39.3867 73.8218 39.8551 74.0733 40.0408C74.2558 40.17 74.6898 40.2993 74.7101 40.0408C74.7101 40.0408 74.7101 39.8833 74.7588 39.1282V38.6517C74.7344 37.9734 74.5397 38.2035 74.5154 37.6826C74.5154 37.6301 74.5397 37.5776 74.5397 37.4726C74.6533 36.5358 74.7912 36.5358 74.8155 35.9099C74.9048 35.7201 75.0265 35.6273 75.1968 35.6838C75.0561 36.1372 75.0421 36.6202 75.1563 37.081C75.3185 37.5776 75.5213 37.4848 75.6592 38.0703C75.7281 38.4095 76.1419 37.6665 76.1175 38.4377C76.1175 39.0879 76.0932 39.2938 76.2311 39.4795C76.3047 39.5933 76.4186 39.6751 76.5502 39.7088C76.6818 39.7425 76.8213 39.7255 76.9409 39.6613C77.168 39.5038 77.1477 39.0879 77.0991 38.5669C77.0788 37.9693 76.9409 37.8361 76.9166 37.2142C76.916 36.778 76.8862 36.3422 76.8273 35.9099C76.6448 34.4764 77.6061 33.3256 77.6385 31.1612L77.7521 30.5313C77.8413 30.0265 77.5574 30.18 77.6426 29.6631C77.7075 29.2593 77.7724 28.8555 77.8454 28.4113C77.8634 27.949 77.9383 27.4906 78.0685 27.0465C78.3056 26.5275 78.4181 25.9607 78.397 25.3909C78.4398 24.6191 78.5456 23.852 78.7134 23.0973C78.7864 22.6289 79.0054 22.536 79.3988 22.3704C79.4434 22.3422 79.5124 22.318 79.557 22.2897C79.8328 22.1847 80.1289 22.0555 80.4737 21.8859C80.5629 21.8576 80.6562 21.8051 80.7454 21.7809C80.8873 21.7363 81.0234 21.6753 81.151 21.5992C81.22 21.5992 81.22 21.8859 81.1956 22.3018C81.1754 22.4552 81.5161 23.8362 81.7472 21.365C81.7675 21.1792 81.9054 21.1267 82.2015 21.1792C82.7045 21.2075 82.6598 21.26 82.6598 20.5291C82.6598 20.3232 82.6842 20.1253 82.6842 19.9315C82.6842 18.2638 82.7531 17.7954 82.1123 17.7954C82.0038 17.8006 81.8963 17.8183 81.7919 17.8479C81.4958 17.9529 81.1753 18.6797 80.8306 18.8372C80.4858 18.9947 80.8995 18.0053 79.9626 18.603L79.5976 18.813L80.1005 16.4426C80.4453 14.8517 81.3173 13.0305 81.2646 10.9711C81.2119 8.91173 82.0758 7.04212 82.4327 5.34616C82.7977 3.5775 82.9762 2.51954 83.0249 2.1965C83.0337 2.05584 82.996 1.91618 82.9177 1.79881C82.8393 1.68144 82.7245 1.59279 82.5909 1.54638L82.5301 1.56253ZM78.2348 11.8756C77.9833 13.0467 77.8697 14.355 77.4236 15.5987C76.8557 17.2139 76.9003 17.9932 76.6935 18.9301C76.6164 19.3056 76.6935 20.0849 76.369 20.3474C76.3116 20.3878 76.2468 20.4166 76.1784 20.4322C74.9616 20.836 73.5866 21.1631 72.7186 22.1605C72.0621 22.9327 71.253 23.5622 70.3418 24.0099C69.8713 24.236 69.4657 24.5712 69.0033 24.8175C68.7836 24.9495 68.5395 25.0361 68.2854 25.0719C67.819 25.0961 68.111 24.6681 68.257 24.4864C68.5571 24.0826 68.9587 23.7555 69.2426 23.3355C69.4008 23.1013 69.4008 23.699 69.6482 23.5455C69.7415 23.493 70.0822 22.112 70.2647 21.8778C70.4472 21.6436 70.6703 21.3044 70.8609 21.0177C71.0516 20.731 71.2665 20.4726 71.4328 20.2101C71.7735 19.6892 72.1426 19.1683 72.4833 18.6474C73.0999 17.7631 73.5136 19.8588 74.2883 16.1236C74.4708 15.3927 74.2112 14.7063 74.6939 14.145C75.4645 13.2566 74.8318 14.6659 75.4037 14.2984C75.5172 14.1692 75.6065 14.04 75.6998 13.8946C76.1054 13.3212 76.4298 12.8003 76.7503 12.3037C77.3221 11.4193 77.8129 9.95354 78.758 9.40033C78.8715 10.1716 78.3767 11.1084 78.2145 11.8635" fill="#692C90"/>
<path d="M144.421 27.9105C144.465 27.7914 144.503 27.6701 144.534 27.5471C144.563 27.467 144.572 27.3809 144.558 27.2968" fill="#692C90"/>
<path d="M162.206 10.3411C162.648 14.5528 161.837 12.8003 161.152 14.1651C160.466 15.53 160.077 17.7549 157.501 17.5692C156.929 17.5288 155.656 18.7362 155.132 18.9704C154.537 19.244 153.926 19.4827 153.303 19.6851C151.977 20.0889 152.411 21.5951 151.701 21.793C150.91 22.011 150.46 20.3756 148.805 20.9329C148.416 21.0411 148.02 21.1247 147.621 21.1832L147.02 21.3084L146.712 21.373C146.591 21.3972 146.469 21.373 146.404 21.5143C146.282 21.7887 146.178 22.0706 146.092 22.3583C145.986 22.6611 145.885 22.964 145.787 23.2709L145.605 23.5899C145.566 23.6831 145.557 23.7863 145.581 23.8847C145.605 24.1552 145.763 24.2885 145.147 25.2737L145.102 25.3626C144.896 25.6373 144.741 25.9463 144.644 26.2752C144.591 26.5832 144.568 26.8955 144.575 27.2079C144.576 27.2466 144.569 27.2851 144.554 27.321C144.506 27.5229 144.461 27.7248 144.416 27.9106C144.317 28.0845 144.261 28.2799 144.254 28.4799C144.254 28.5243 144.279 28.5486 144.279 28.593C144.644 31.0521 144.141 29.8044 143.938 30.1436C143.888 30.2217 143.849 30.3058 143.82 30.3939C143.786 30.5265 143.763 30.6615 143.751 30.7977C143.731 30.9795 143.731 31.1652 143.707 31.3469C143.638 31.7507 143.569 32.1868 143.524 32.5987C143.482 32.8014 143.452 33.0063 143.435 33.2125C143.411 33.37 143.455 33.6163 143.342 33.7576C143.249 33.8268 143.137 33.8662 143.021 33.8707C142.876 33.9017 142.746 33.9833 142.656 34.1008C142.543 34.2341 142.518 34.8721 142.336 34.8721C142.153 34.8721 142.084 34.7348 141.991 34.6217C141.76 34.1784 141.555 33.7228 141.374 33.2569C141.374 33.2327 141.374 33.2125 141.374 33.1882C141.257 32.9379 141.306 32.8935 140.847 32.5301C140.482 32.2111 140.527 31.5973 140.507 31.0966C140.438 30.8007 140.461 30.4911 140.571 30.2082C140.62 30.1395 140.665 30.0467 140.734 29.9578C140.905 29.602 140.998 29.2137 141.005 28.8191V28.5445C141.003 27.8696 141.211 27.2105 141.602 26.6588L142.263 24.6075C142.274 24.5705 142.282 24.5327 142.287 24.4944C142.33 24.2871 142.384 24.0822 142.449 23.8806C142.517 23.6699 142.601 23.4647 142.701 23.2668C142.709 23.2573 142.714 23.2463 142.718 23.2345C142.721 23.2228 142.722 23.2104 142.721 23.1982C142.903 22.9016 143.012 22.5671 143.042 22.221C143.293 21.4901 143.739 19.7699 144.388 18.7079C145.605 16.7172 144.826 15.3887 145.901 13.6846C146.712 12.3803 146.785 10.9388 147.037 9.52949C147.05 9.38983 147.118 9.26094 147.225 9.17038C147.333 9.07983 147.472 9.0348 147.613 9.04493C147.698 9.04642 147.783 9.06141 147.864 9.08935C148.073 9.15309 148.262 9.27 148.412 9.42854C148.642 9.60954 148.85 9.81691 149.032 10.0464C149.22 10.2516 149.384 10.4779 149.519 10.7207C149.597 10.8648 149.631 11.028 149.619 11.191C149.607 11.3541 149.548 11.5103 149.45 11.6414C149.276 11.8675 149.336 12.0734 149.243 12.3682C149.15 12.663 149.036 13.0264 148.898 13.4383C148.76 13.8502 149.377 15.9661 148.756 15.9136C148.55 15.9136 148.205 15.6229 148.091 15.954C148.039 16.1155 147.982 16.2811 147.925 16.4466L147.84 16.697C147.84 16.7454 147.791 16.7818 147.775 16.8262C147.734 16.9594 147.852 16.9514 147.945 16.9514C148.099 16.9514 148.249 16.915 148.399 16.9029C148.614 16.9029 148.85 17.1735 149.065 17.1492C149.28 17.125 149.47 16.7899 149.689 16.7454C149.904 16.7053 150.121 16.677 150.338 16.6606C151.093 16.5516 151.774 17.02 152.585 16.2568C153.056 15.8046 153.855 15.9217 154.467 15.6915C154.694 15.6067 156.191 15.6471 156.71 14.791C157.838 12.9416 158.134 13.729 158.888 12.7518C159.54 11.9798 160.002 11.0674 160.239 10.0867C160.316 9.68703 160.362 9.28205 160.377 8.87533C160.39 8.76656 160.373 8.65621 160.328 8.55633C160.284 8.26155 160.296 8.03542 159.643 7.26012C157.286 4.43351 158.872 7.30858 157.745 7.17129C156.986 7.08245 157.493 5.11593 153.542 5.09574H153.173C150.89 5.25727 151.628 6.63827 148.416 6.30715C146.607 6.12544 146.112 8.02735 145.54 8.64113C144.98 9.23326 144.482 9.88144 144.056 10.5753C143.244 11.9442 143.244 14.5528 142.34 14.2863C142.261 14.2528 142.173 14.2453 142.089 14.2649C142.005 14.2845 141.929 14.3302 141.873 14.3953C141.78 14.5598 141.738 14.748 141.752 14.9364C141.756 15.165 141.776 15.3931 141.813 15.6188C141.813 15.748 141.853 15.8692 141.873 15.9944C141.906 16.2003 141.926 16.4079 141.934 16.6162C141.943 16.7507 141.943 16.8856 141.934 17.02C141.932 17.0839 141.924 17.1475 141.91 17.2098C141.905 17.2353 141.893 17.2591 141.876 17.2789C141.859 17.2987 141.837 17.3138 141.813 17.3229C141.735 17.339 141.655 17.3352 141.58 17.3119C141.505 17.2885 141.437 17.2465 141.383 17.1896C141.326 17.1371 141.277 17.0765 141.224 17.02C141.099 16.8746 140.977 16.7293 140.847 16.5879C140.786 16.5274 140.73 16.4708 140.665 16.4143C140.3 16.0751 140.101 16.9393 139.805 16.4628C139.489 15.8496 139.302 15.1794 139.253 14.4922C139.127 13.616 139.395 12.8164 139.598 11.9765C139.768 11.282 139.947 10.5834 140.166 9.90099C140.446 9.02474 140.843 7.61547 141.829 7.19955C144.1 6.35157 145.398 4.17104 147.454 3.3069C149.511 2.44277 151.417 2.44277 153.697 1.89763C157.278 1.04561 157.538 3.26248 159.866 4.49004C162.348 5.8024 162.198 7.99504 162.198 9.97367C162.222 10.111 162.198 10.224 162.222 10.3371" fill="#692C90"/>
<path d="M106.566 14.3024L106.542 13.6644C106.521 13.4383 106.497 13.1879 106.452 12.9133C106.399 12.6138 106.33 12.3172 106.245 12.025C106.198 11.7915 106.129 11.563 106.039 11.3426C105.856 10.8661 105.382 10.7126 105.333 9.82022C105.309 9.41642 104.899 9.1378 104.623 8.79456C104.254 8.33717 103.847 7.91167 103.406 7.52259C103.203 7.34088 103.053 7.06629 102.765 6.99764C100.847 6.53327 101.463 6.19004 100.64 5.78624C100.482 5.71759 100.234 5.70144 100.117 5.56011C98.6526 4.01355 98.608 5.01498 97.7157 4.80904L96.5962 4.6031C96.1136 4.51426 95.6349 4.44562 95.1077 4.39716C94.8805 4.39716 94.6737 4.35274 94.4709 4.35274C94.2681 4.35274 94.0653 4.33255 93.8503 4.33255C93.2825 4.33255 92.958 4.04989 92.2279 4.46581C91.8497 4.68943 91.4061 4.77776 90.9705 4.71616C90.6591 4.73052 90.3551 4.81619 90.0823 4.96652L89.6767 5.11997C89.545 5.17437 89.4094 5.21892 89.2711 5.25322C89.2671 5.23253 89.268 5.21121 89.2736 5.1909C89.2792 5.1706 89.2895 5.15185 89.3035 5.13612L89.4982 4.83327C89.5464 4.73803 89.6109 4.65193 89.6889 4.57887C89.9241 4.38505 89.7781 4.17507 89.9606 4.14276C90.0823 4.11046 90.0174 5.21284 90.2364 4.49003C90.2648 4.25179 90.204 3.27863 90.2729 3.10096C90.3641 2.82276 90.416 2.53329 90.427 2.24086V2.12779C90.4079 1.95216 90.3541 1.78202 90.2689 1.62708C90.1846 1.48153 90.0839 1.34605 89.9687 1.22328C89.769 0.987851 89.508 0.811802 89.2143 0.714485C89.0668 0.667463 88.9144 0.637651 88.76 0.625649C88.5179 0.621157 88.2836 0.710991 88.107 0.876006C88.0872 1.09812 88.0492 1.31825 87.9934 1.5342C87.9002 1.83302 87.7866 2.17221 87.6284 2.55986C87.5108 2.78599 87.2228 2.7981 87.2593 3.33516C87.2958 3.77127 86.874 4.10642 86.6671 4.5183C86.4846 4.85749 86.152 5.18054 86.0952 5.56415C85.9898 6.29099 85.6896 6.22234 85.5233 6.56558C85.4098 6.79171 85.2962 7.02187 85.1786 7.22377L84.8622 7.83755C84.7689 7.99907 84.7243 8.13637 84.6554 8.27366C84.4612 8.7695 84.3383 9.29016 84.2903 9.82022C84.2214 9.82022 84.1768 9.52544 84.1078 9.29528C84.0632 9.1378 83.9942 9.02473 83.9253 9.02473C83.6738 9.0005 83.3777 10.3209 83.3534 10.4784C83.0776 11.71 83.0776 12.9618 83.3291 13.0062C83.4223 13.0062 83.5805 12.8447 83.6049 12.8245C83.6728 12.7593 83.7266 12.681 83.763 12.5943C83.9253 12.1905 83.6292 11.6616 83.8117 11.4798C83.8789 11.4425 83.9554 11.4249 84.0322 11.4292C84.1091 11.4335 84.1831 11.4595 84.2457 11.5041C84.4282 11.6414 84.4728 11.9806 84.3593 12.4369C84.2194 12.9191 83.9696 13.3627 83.6292 13.7331C83.4223 13.939 83.2236 14.1369 83.2236 14.3953C83.2358 14.5529 83.2942 14.7035 83.3915 14.8284C83.4888 14.9533 83.6208 15.047 83.7712 15.0979C83.8401 15.1464 84.1768 15.3039 84.3431 15.1908C84.6189 15.0091 84.1159 14.258 84.2741 14.1651C84.3431 14.1449 84.5499 14.2782 84.6797 14.4639C84.8095 14.6497 84.9515 14.8476 84.8379 15.5986C84.7689 16.168 84.6351 16.2366 84.6107 16.7616C84.5864 17.1654 84.5661 17.4884 84.7933 17.6257C84.9097 17.6815 85.0392 17.7046 85.1679 17.6925C85.2966 17.6804 85.4195 17.6336 85.5233 17.5571C85.5979 17.4755 85.6484 17.375 85.6691 17.2667C85.6899 17.1584 85.6802 17.0464 85.641 16.9433C85.5923 16.487 85.3652 16.3982 85.3408 15.9419C85.3283 15.8008 85.361 15.6595 85.4341 15.5381C85.5168 15.429 85.634 15.3508 85.7667 15.316C85.8722 15.2837 85.9736 15.2433 86.0831 15.2069C86.6834 15.106 86.8091 16.3578 86.8091 16.3578V16.8989C86.7361 17.2744 86.7118 17.2744 86.8091 17.3552C86.8835 17.411 86.9712 17.4466 87.0637 17.4587C87.1561 17.4707 87.25 17.4587 87.3364 17.4238C87.6081 17.2865 87.5635 17.2017 87.5432 17.02C87.5038 16.8713 87.4873 16.7174 87.4946 16.5637C87.5189 16.3578 87.5878 16.2891 87.6122 16.1316C87.6344 16.0129 87.6344 15.891 87.6122 15.7723C87.5621 15.3632 87.4821 14.9583 87.3729 14.5609C87.2999 14.2661 87.166 14.0198 87.0565 13.5554C87.0109 13.3514 86.9757 13.1452 86.9511 12.9376C86.9511 12.8084 86.9267 12.6791 86.9186 12.5338C86.9022 12.3733 86.9187 12.2112 86.9673 12.0573C86.9755 12.0211 86.9906 11.9868 87.0119 11.9563C87.0344 12.0488 87.0426 12.1441 87.0362 12.239C87.0393 12.4032 87.09 12.5631 87.1823 12.6993C87.2238 12.7522 87.2788 12.7928 87.3417 12.817C87.4045 12.8412 87.4728 12.8479 87.5392 12.8366C87.9448 12.7841 86.8821 11.7706 87.3323 10.1473C87.348 10.1127 87.3716 10.0823 87.4013 10.0585C87.5392 9.87675 87.7379 9.38008 88.1111 9.46488C89.4414 9.77176 89.2995 8.80668 90.1675 8.46345C90.5325 8.30596 90.9787 7.83755 91.2869 8.05964C91.9521 8.55228 92.451 7.7891 93.0716 7.72045H93.1608C93.2054 7.72045 93.2541 7.69622 93.323 7.69622C93.4214 7.68535 93.5207 7.68535 93.6191 7.69622C94.2032 7.99907 94.694 7.57912 95.2658 7.57912H95.9716C96.4056 7.60335 96.8396 7.62758 97.2979 7.67199C98.2835 7.78506 99.046 7.42164 99.261 8.16059C100.802 13.41 101.48 7.55489 101.597 9.10549C101.654 9.88483 102.737 10.0383 103.106 10.539C103.306 10.8161 103.474 11.1139 103.609 11.4274C103.902 12.0431 104.079 12.7067 104.132 13.3858C104.129 13.8657 104.091 14.3447 104.019 14.8193C103.93 15.4224 103.785 16.0159 103.585 16.592C103.378 17.1412 103.151 17.7065 102.875 18.2758C102.421 19.2086 103.358 19.7093 102.652 20.6663C102.331 21.0701 102.011 21.4739 101.666 21.8777C100.936 22.7459 98.5634 23.2547 97.7116 24.7246C97.1884 25.621 95.8986 25.7946 95.1482 26.5659C93.6516 28.1205 93.8787 26.1096 91.3315 28.5001C90.9891 28.8016 90.5786 29.0163 90.135 29.126C89.9484 29.1785 88.9628 29.6307 88.8695 29.344C88.7763 29.0573 89.1291 28.6132 89.2143 28.387C89.3482 28.0236 89.5104 27.6642 89.6402 27.2968C89.9424 26.6604 90.0871 25.9611 90.062 25.2576C90.0377 24.664 90.9057 23.8443 91.1125 23.2991C91.364 22.6409 91.5181 22.7096 91.5911 21.9787C91.7259 21.419 91.926 20.8769 92.1873 20.3635C92.4834 19.5559 92.7592 18.7483 93.0553 17.9407C93.4001 16.9837 94.4263 17.872 93.9923 15.324C93.7205 13.8663 94.5196 13.7977 94.7264 13.1395C94.9779 12.3319 95.1807 11.6616 95.3429 11.0922C95.4565 10.6884 95.5254 10.3411 95.5944 10.0665C95.6097 9.87311 95.5812 9.67871 95.511 9.4977C95.4408 9.31669 95.3307 9.15368 95.1888 9.02069C94.903 8.77884 94.5593 8.61469 94.191 8.54421C94.0085 8.49979 93.826 8.45537 93.6637 8.43114C93.5523 8.40289 93.438 8.38798 93.323 8.38672C93.2906 8.38373 93.258 8.39078 93.2297 8.40691C93.1851 8.40691 93.1608 8.40691 93.1405 8.43114C93.0953 8.48343 93.0633 8.54574 93.0472 8.61285C92.7957 9.20644 92.6416 9.79599 92.4307 10.4098L92.0859 11.3426L91.7899 12.2309C91.6317 12.7316 91.4694 12.8003 91.2869 13.3252C91.1044 13.8502 90.6704 14.3953 90.715 15.3039C90.8326 16.9877 90.0296 17.3229 89.6645 18.3768C89.3441 19.2651 89.2589 20.3352 88.9344 21.2882C88.8655 21.5184 88.7722 21.7445 88.7032 21.9706C88.4518 22.6329 88.1111 22.221 87.7217 23.7716C87.4133 24.8263 87.0422 25.8619 86.6104 26.8728C86.3751 27.5269 86.1331 28.1811 85.8843 28.8353C85.7667 29.1502 85.7099 29.4813 85.5801 29.7923C85.2922 30.4908 84.5418 30.3778 83.8888 30.3778C83.5678 30.3811 83.2468 30.3663 82.9275 30.3334C82.7409 30.3334 82.4205 30.2203 82.2826 30.4101C82.2015 30.5272 82.2542 30.8139 82.2826 30.9229C82.3238 31.2433 82.407 31.5569 82.53 31.8557C82.6299 32.0585 82.7524 32.2495 82.8951 32.4251L83.1019 32.631C83.3493 32.8773 84.1281 32.9944 84.0389 33.4628C83.9624 33.6567 83.8659 33.8421 83.7509 34.016C83.6292 34.3027 83.5481 34.6016 83.4142 34.8802C83.247 35.2228 83.1191 35.5831 83.033 35.9543C82.921 36.2812 82.9083 36.6338 82.9965 36.9678C83.0654 36.9678 83.1141 36.7619 83.183 36.7619C83.252 36.7619 83.2966 37.0809 83.2723 37.2868C83.2479 37.626 83.1587 37.6906 83.1344 38.0137C83.11 38.3367 83.0898 38.5144 83.2479 38.6032C83.3427 38.64 83.4455 38.6511 83.5459 38.6355C83.6463 38.6199 83.7409 38.5781 83.8198 38.5144C83.9374 38.4013 83.9131 38.3085 83.9131 37.945C83.8746 37.6755 83.8898 37.4011 83.9577 37.1374C84.0713 36.8427 84.2335 36.8871 84.3633 36.6165C84.5459 36.1804 84.2498 35.8412 84.2498 35.498C84.2478 35.4438 84.2569 35.3897 84.2764 35.3391C84.2959 35.2884 84.3255 35.2422 84.3633 35.2032C84.4526 35.0901 84.6391 34.9771 84.704 34.9973C84.7689 35.0175 84.6594 35.3163 84.6391 35.7483V35.9785C84.6594 36.3177 84.773 36.3177 84.8663 36.8184C84.9164 37.0846 84.9395 37.3552 84.9352 37.626C84.9298 38.0561 84.8754 38.4842 84.773 38.902C84.6391 39.746 84.5215 40.0165 84.7527 40.1538C84.8286 40.1973 84.9138 40.2222 85.0012 40.2264C85.0887 40.2306 85.1759 40.214 85.2557 40.1781C85.4585 40.065 85.4382 39.8146 85.4382 39.6289C85.3936 38.7203 85.5274 39.1524 85.4585 38.2883C85.406 37.7974 85.3843 37.3038 85.3936 36.8103C85.3936 36.6731 85.3936 36.4065 85.6207 36.2854C85.6295 36.2763 85.6403 36.2693 85.6523 36.2651C85.6642 36.2609 85.677 36.2596 85.6896 36.2612C85.7789 36.2168 85.8722 36.1925 85.9168 36.2612C85.9287 36.2777 85.9351 36.2974 85.9351 36.3177C85.9351 36.338 85.9287 36.3578 85.9168 36.3742C85.8275 36.4873 85.6896 36.669 85.7586 36.7377C85.8275 36.8063 85.9614 36.7821 86.0547 36.7619C86.2372 36.7134 86.3062 36.5802 86.3994 36.3985C86.6282 35.8627 86.8206 35.3123 86.9754 34.751C87.0459 34.4117 87.1463 34.0793 87.2755 33.7576C87.4824 33.3821 87.8839 33.3538 88.2611 33.3094C88.7503 33.2432 89.2351 33.1488 89.7132 33.0267C90.3871 32.8893 91.0511 32.7072 91.7006 32.4816C95.7201 30.931 90.3703 36.3702 93.538 35.1588C95.8743 34.2664 93.469 31.8678 96.1136 30.5716C96.3407 30.4585 96.5475 30.3212 96.7747 30.1678C97.7806 29.5742 99.3543 26.5901 100.198 27.3412C101.042 28.0923 100.604 30.8179 102.283 25.5887C102.477 24.987 103.094 24.6074 103.471 24.0865C103.609 23.9008 103.723 23.7191 103.877 23.5172C104.091 23.1658 104.286 22.8032 104.461 22.431C104.9 21.6658 105.276 20.8663 105.584 20.0404C105.905 19.1319 106.801 19.669 106.314 17.2138C106.201 16.6445 106.497 16.0792 106.521 15.5098C106.542 15.106 106.566 14.7022 106.566 14.2984" fill="#692C90"/>
<path d="M25.1864 10.6804C25.1327 12.4807 24.9265 14.2732 24.5698 16.0389C24.5496 16.1115 24.5496 16.1802 24.5252 16.2771C24.5009 16.3013 24.5009 16.3498 24.5009 16.4184C24.4563 16.7778 24.5698 17.5693 24.5009 17.8317C24.1561 18.7403 24.1561 19.8871 23.5153 20.9612C23.4482 21.1055 23.3638 21.241 23.2638 21.365C22.7609 22.0596 22.7163 23.0852 22.4526 24.0664C22.3593 24.3531 22.266 24.6398 22.1768 24.9265C22.0389 25.4555 22.0389 26.0774 21.7428 26.5418C20.7085 28.0843 21.1831 28.7829 20.96 30.0023C20.8464 30.5757 20.5544 31.1491 20.6396 31.771C21.0452 34.2786 20.3192 33.8263 20.1813 34.9005C20.1123 35.381 20.0677 35.8575 19.9987 36.338C19.9744 36.5278 19.9744 36.7418 19.9541 36.9356C19.9338 37.1294 20.1366 38.466 19.5485 38.6558C18.932 38.5589 19.2971 37.1012 18.4737 37.1496C18.0681 37.1739 18.4047 38.248 17.8126 38.1995C17.4921 38.1753 17.0784 37.2667 17.5367 35.9301C17.561 35.8471 17.5685 35.7601 17.5587 35.6741C17.549 35.5882 17.5222 35.505 17.48 35.4294C17.4242 35.2894 17.3431 35.1608 17.2407 35.0499C17.1839 34.9893 17.1636 35.0499 17.1514 35.1064C17.1149 35.2679 17.0946 35.4335 17.0703 35.591C17.0703 35.6838 16.9649 36.3986 16.7823 36.3138C16.5998 36.229 16.5065 35.8575 16.5065 35.4294C16.5019 34.7359 16.6399 34.0488 16.9121 33.4104C17.0598 33.2048 17.1353 32.9564 17.1271 32.7038C17.1514 32.3928 17.1271 32.0819 17.1717 31.7952C17.196 31.6741 17.2204 31.5287 17.2407 31.3914C17.3542 30.6969 17.1717 29.861 17.6057 29.3361C17.9635 28.9553 18.2341 28.5018 18.3987 28.0068C18.5632 27.5118 18.6179 26.9872 18.5589 26.4691C18.5589 26.1339 18.4777 25.8028 18.4899 25.4192C18.5832 22.5562 19.224 22.8349 19.6337 21.5911C19.8484 21.0953 20.0949 20.6138 20.3719 20.1496C20.523 19.8705 20.6011 19.558 20.599 19.241C20.6013 19.1691 20.5945 19.0972 20.5787 19.027C20.5442 18.8329 20.5528 18.6336 20.6039 18.4431C20.6551 18.2526 20.7476 18.0757 20.8748 17.9246C21.033 17.2341 21.1953 16.5396 21.2804 15.845C21.2639 15.599 21.3114 15.3528 21.4183 15.1303C21.5319 14.674 21.6009 14.246 21.6698 13.7897C21.8833 12.5651 21.9986 11.3256 22.0146 10.0828C22.027 9.26677 21.9343 8.45253 21.7388 7.65997C21.6639 7.35184 21.5493 7.05461 21.3981 6.77565C21.3291 6.63431 21.2804 6.4203 21.1223 6.37184C20.8018 6.29916 20.4246 7.25213 20.2421 7.46615C19.1875 8.58872 18.2141 9.21865 17.9464 10.7692C17.334 14.5085 15.886 16.0187 15.018 19.0189C14.8436 19.6165 14.6408 21.4417 14.0567 22.0353C12.4343 23.6505 13.3388 24.9387 12.917 26.5498C12.7791 27.1475 12.6168 27.7209 12.4586 28.2943C12.3984 28.5704 12.3645 28.8516 12.3572 29.1342C12.3421 29.3396 12.2899 29.5407 12.2031 29.7278C12.0125 30.0508 11.8908 29.643 11.7975 29.4451C11.7042 29.2472 11.6191 29.0857 11.3919 29.1059C10.8849 29.1503 10.8606 30.604 10.3292 30.3698C9.88308 30.1962 9.60322 29.433 9.44909 29.0171C9.33883 28.7276 9.2679 28.4248 9.23818 28.1166C9.21384 27.8178 9.07189 27.5472 9.03538 27.2524C9.00957 26.9445 9.03701 26.6345 9.1165 26.3358C10.2319 22.4916 12.2356 18.7241 11.9354 15.5099C11.6596 12.5662 12.5154 12.1826 12.2031 10.5149C12.1611 9.94106 12.1802 9.36446 12.2599 8.79466C12.2599 8.19512 12.2207 7.59621 12.1423 7.00177C12.1251 6.80908 12.0715 6.62136 11.9841 6.44857C11.9598 6.40415 11.9151 6.28301 11.8219 6.28301C11.6393 6.23455 11.3879 6.64239 11.2743 6.78372C11.0995 7.06315 10.9398 7.3516 10.7957 7.64786C10.3901 8.41104 10.4347 9.57803 9.69651 10.0707C6.9506 11.8676 8.86503 16.6284 7.99299 18.6878C7.28725 20.3555 7.25074 17.4764 6.61395 19.0916C5.96516 20.6097 5.42306 22.1708 4.99155 23.7636C4.88679 24.3799 4.69422 24.9782 4.41966 25.5403C4.30203 25.7584 4.43994 26.142 4.28175 26.4529C4.18944 26.6807 4.15463 26.9274 4.18035 27.1717C4.06678 27.7451 4.20469 28.0076 4.1114 28.581C4.06678 28.9848 3.85993 29.3482 3.95322 29.7278C4.59406 32.3848 3.92888 31.0684 3.74636 31.4762C3.56384 31.8841 3.63279 32.3605 3.60846 32.7886C3.58412 33.2166 3.5395 33.681 3.49489 34.1413C3.47463 34.3317 3.46651 34.5233 3.47055 34.7147V34.8358C3.47055 35.0014 3.51922 35.2639 3.42594 35.4092C3.33265 35.5546 3.1988 35.5263 3.08523 35.599C2.93964 35.6498 2.8116 35.7409 2.71614 35.8615C2.71614 35.8857 2.71614 35.9342 2.71614 36.0069C2.67152 36.2693 2.64719 36.7216 2.48495 36.7458C2.33091 36.7177 2.19327 36.6326 2.09963 36.5076C1.79426 36.0609 1.52957 35.5879 1.30871 35.0943C1.30871 35.0701 1.28437 35.0458 1.28437 35.0216C1.15944 34.7274 0.93967 34.4831 0.659747 34.3271C0.225755 34.0161 0.225755 33.3337 0.181139 32.8209C0.106559 32.6099 0.07811 32.3854 0.0976957 32.1626C0.117281 31.9397 0.18445 31.7236 0.294707 31.5287C0.466358 31.1306 0.536043 30.6963 0.497507 30.2648C0.381777 29.4989 0.524421 28.7164 0.903107 28.0399C0.897959 28.0284 0.895298 28.016 0.895298 28.0035C0.895298 27.991 0.897959 27.9786 0.903107 27.9672C0.923387 27.9429 0.923387 27.9187 0.947722 27.8945C1.47095 26.99 1.35332 25.8149 1.58857 24.765C1.70619 24.2239 1.99417 23.7394 2.09557 23.1983C2.11655 22.8423 2.1946 22.4919 2.32676 22.1605C2.46061 21.9101 2.5904 21.6598 2.73236 21.4175C4.35476 18.7565 4.79281 17.4401 5.04834 14.9567C5.54722 10.2039 6.69913 9.35998 7.8632 6.88063C8.32223 5.85345 8.87338 4.86957 9.50993 3.94096C9.64489 3.74523 9.80589 3.56864 9.98854 3.41601C10.0791 3.33173 10.1885 3.27018 10.3077 3.23647C10.4269 3.20276 10.5525 3.19786 10.674 3.22219C11.3067 3.27498 11.9141 3.49372 12.4343 3.85616C13.0209 4.27262 13.5512 4.76256 14.0121 5.31388C14.2382 5.56586 14.4292 5.84701 14.5799 6.14975C14.7826 6.66415 14.8845 7.21242 14.8801 7.76496C14.9448 8.36035 14.9746 8.959 14.9693 9.55784C14.9693 9.82031 14.9693 10.3654 14.9247 11.2094C14.9268 12.2896 14.7905 13.3657 14.5191 14.4115C14.4704 14.6013 14.2879 15.0819 14.4704 15.2474C14.6529 15.413 14.9287 14.246 14.9531 14.1491C15.3871 12.4289 15.6264 10.4543 16.7783 9.17423C17.9302 7.89418 18.1533 6.09322 18.8833 4.84951C19.6134 3.6058 20.2299 2.95972 20.8018 2.8628C21.3761 2.83861 21.9409 3.01388 22.3997 3.35863C22.8584 3.70337 23.1825 4.19615 23.3165 4.7526C23.787 6.707 24.7564 7.40558 25.0768 8.98444C25.1651 9.5453 25.2031 10.1129 25.1904 10.6804" fill="#692C90"/>
<path d="M135.157 15.3444C135.384 15.4695 134.792 16.4669 134.577 18.3002C134.492 19.0038 134.48 19.7141 134.54 20.4201C134.566 20.7316 134.608 21.0416 134.666 21.3489C134.82 22.1565 135.071 22.8672 134.82 23.0247C134.686 23.1095 134.524 22.8066 134.114 22.7824C133.944 22.7738 133.775 22.8059 133.621 22.8762C133.466 22.9465 133.331 23.0528 133.226 23.1862C133.043 23.4325 133.129 23.6263 133.076 24.3451C133.035 24.8579 132.938 25.5323 132.861 25.5323C132.784 25.5323 132.735 24.7247 132.707 24.2522C132.63 22.8228 132.768 22.637 132.861 22.5441C133.226 22.1928 133.741 22.5441 134.053 22.2413C134.366 21.9384 133.924 21.3045 133.899 20.1052C133.879 18.9947 134.285 19.0714 134.305 17.7914C134.305 16.9151 134.13 16.4225 134.487 15.8693C134.686 15.5624 135.027 15.2757 135.161 15.3524" fill="#442061"/>
<path d="M133.988 30.1033C134.098 29.9902 134.824 30.5515 134.873 30.5919C135.261 30.8335 135.57 31.183 135.761 31.5973C135.923 32.0254 135.899 32.5301 135.761 32.5745C135.623 32.619 135.554 32.2394 135.181 31.9931C134.613 31.6216 133.753 31.8033 133.222 32.0859C132.691 32.3686 132.816 32.5463 132.334 32.7239C131.782 32.9339 131.47 32.7239 131.141 33.0308C130.813 33.3377 130.971 33.4952 130.711 33.6688C130.524 33.7616 130.314 33.7969 130.106 33.7703C129.899 33.7437 129.705 33.6564 129.547 33.5194C129.547 33.4346 130.001 33.5598 130.358 33.2731C130.715 32.9864 130.545 32.623 130.849 32.4211C131.153 32.2192 131.413 32.5342 131.92 32.3888C132.427 32.2434 132.326 31.9608 132.869 31.6902C133.265 31.5173 133.694 31.4332 134.126 31.4439C134.593 31.4439 134.881 31.5368 134.938 31.4439C134.994 31.351 134.658 31.1935 134.325 30.7453C134.199 30.5717 133.94 30.184 134.021 30.1033" fill="#442061"/>
<path d="M141.894 5.1685C141.33 5.28964 141.22 5.22099 140.677 5.35021C140.366 5.40407 140.066 5.50771 139.789 5.6571C139.488 5.8267 139.428 5.95591 138.933 6.4647C138.219 7.17136 138.182 7.07041 138.045 7.31673C137.752 7.84571 138.073 8.02338 137.83 8.81079C137.655 9.37612 137.469 9.34785 137.189 10.1514C137.115 10.4121 137.023 10.6671 136.913 10.9146C136.71 11.3184 136.377 11.7828 136.268 11.7222C136.158 11.6616 136.292 11.1246 136.39 10.8056C136.653 9.9697 136.953 9.89298 137.201 9.28324C137.562 8.33834 137.043 8.01934 137.444 7.17943C137.678 6.75883 138.002 6.39481 138.393 6.1134C138.806 5.75204 139.271 5.45398 139.772 5.22907C140.371 4.93365 141.015 4.74244 141.679 4.66375C142.011 4.63548 142.352 4.63952 142.49 4.42146C142.628 4.20341 142.364 3.77942 142.49 3.69058C142.616 3.60175 142.778 3.735 142.895 3.87229C142.985 4.00234 143.034 4.15654 143.034 4.31446C143.034 4.47238 142.985 4.62658 142.895 4.75662C142.733 4.9989 142.461 5.06351 141.918 5.18465" fill="#442061"/>
<path d="M144.842 24.6559C144.81 25.0234 144.473 25.0597 144.291 25.4635C144.108 25.8673 144.347 26.0208 144.197 26.6507C144.104 27.0343 144.027 26.9374 143.922 27.3372C143.755 27.8339 143.755 28.3708 143.922 28.8676C143.982 28.9624 144.006 29.0755 143.991 29.1866C143.93 29.4046 143.642 29.3885 143.439 29.5904C143.236 29.7923 143.297 29.9175 143.256 30.5514C143.204 31.4156 143.183 31.1814 143.163 31.7184C143.131 32.5745 143.196 32.7441 143.025 32.9298C142.855 33.1156 142.583 33.0631 142.36 33.3336C142.137 33.6042 142.222 33.8989 142.109 33.9272C141.894 33.9757 141.431 33.0106 141.557 32.9217C141.614 32.8814 141.723 33.059 141.963 33.0792C142.128 33.0681 142.287 33.0137 142.425 32.9215C142.562 32.8294 142.673 32.7027 142.745 32.5543C142.92 32.2514 142.794 32.1505 142.835 31.0925C142.871 30.2526 142.948 30.4787 142.952 29.9255C142.932 29.7287 142.971 29.5303 143.066 29.3562C143.212 29.1179 143.374 29.1623 143.504 28.9887C143.759 28.6374 143.269 28.2053 143.386 27.4825C143.447 27.103 143.593 27.1635 143.731 26.6749C143.901 26.0531 143.707 25.8996 143.845 25.3706C144.015 24.7367 144.51 24.1835 144.721 24.2521C144.83 24.2885 144.871 24.5105 144.859 24.6559" fill="#442061"/>
<path d="M156.248 17.3148C156.146 17.658 155.765 17.7953 155.031 18.0699C155.031 18.0699 154.625 18.2274 153.332 18.7523C152.318 19.1561 152.204 19.2651 152.115 19.4186C151.94 19.7214 152.005 20.0122 151.681 20.4927C151.486 20.7754 151.377 20.8036 151.336 20.8117C151.076 20.8602 150.93 20.5371 150.525 20.2868C150.195 20.1076 149.822 20.0211 149.446 20.0364C148.797 20.0364 148.387 20.3635 148.322 20.2625C148.258 20.1616 148.456 19.9516 148.667 19.8062C149.029 19.6022 149.456 19.5444 149.86 19.6447C150.135 19.6719 150.401 19.7587 150.638 19.8991C151.044 20.1454 151.149 20.4402 151.283 20.3998C151.486 20.3433 151.243 19.6932 151.604 19.2126C151.746 19.0229 151.843 19.043 152.662 18.6635C153.482 18.2839 153.429 18.2597 153.899 18.0699C154.54 17.8276 154.54 17.9366 154.934 17.7468C155.7 17.3834 156.021 16.8221 156.195 16.9392C156.288 16.9917 156.284 17.1896 156.244 17.343" fill="#442061"/>
<path d="M143.617 10.111C143.377 10.6192 143.177 11.1458 143.021 11.6858C142.962 12.1085 142.855 12.5231 142.701 12.9215C142.514 13.3253 142.376 13.4585 142.263 13.515C141.963 13.6685 141.744 13.4868 141.504 13.6281C141.265 13.7694 141.204 14.3307 141.208 14.5003C141.208 14.9768 141.415 15.2797 141.529 16.1155C141.529 16.164 141.557 16.3255 141.504 16.3457C141.452 16.3659 141.151 15.5987 140.657 15.4775C140.251 15.3806 139.947 15.8813 139.845 15.7763C139.744 15.6713 139.845 15.3725 140.052 15.2029C140.259 15.0333 140.458 15.1424 140.624 14.997C140.892 14.783 140.624 14.4155 140.88 13.8785C141.018 13.5901 141.233 13.3445 141.5 13.1678C141.817 12.9376 141.906 13.0143 142.096 12.8488C142.433 12.5742 142.393 12.231 142.668 11.2336C142.751 10.8882 142.866 10.5515 143.013 10.2281C143.382 9.48106 143.978 8.95208 144.072 9.01669C144.165 9.0813 143.974 9.2832 143.634 10.0908" fill="#442061"/>
<path d="M148.696 11.6011C148.55 11.9516 148.457 12.3217 148.42 12.6994C148.294 13.261 148.256 13.8384 148.306 14.4115C148.359 14.8476 148.456 15.0899 148.306 15.2191C148.156 15.3483 147.807 15.1707 147.527 15.3564C147.166 15.5947 147.284 16.2407 147.158 16.2488C147.033 16.2569 146.899 15.9217 146.976 15.6068C147.053 15.2918 147.329 15.2353 147.572 14.9688C147.815 14.7023 147.726 14.565 147.941 13.1638C147.982 12.6323 148.096 12.1091 148.282 11.6091C148.397 11.4466 148.468 11.2576 148.489 11.06C148.517 10.6117 148.201 10.3129 148.282 10.2524C148.363 10.1918 148.614 10.3291 148.764 10.5269C148.866 10.658 148.923 10.8179 148.927 10.9832C148.912 11.2073 148.832 11.4222 148.696 11.6011Z" fill="#442061"/>
<path d="M159.253 5.80243C158.479 5.13616 158.357 4.99483 158.182 4.99483C157.935 5.02713 157.777 5.36229 157.752 5.41882C157.627 5.68937 157.712 5.863 157.631 5.90742C157.46 6.00029 157.087 5.27345 156.373 4.84138C155.887 4.60094 155.355 4.46346 154.812 4.43758C154.065 4.2988 153.299 4.28787 152.549 4.40528C152.09 4.4681 151.645 4.60447 151.23 4.80908C150.715 5.06751 150.399 5.38248 150.342 5.32594C150.285 5.26941 150.488 4.92214 150.772 4.65563C150.886 4.54661 151.263 4.20741 152.488 3.95302C152.967 3.82836 153.461 3.76726 153.956 3.77131C154.767 3.79553 154.637 4.00147 156.008 4.25991C156.362 4.28159 156.697 4.42423 156.958 4.66371C157.104 4.82523 157.124 4.95848 157.262 4.99886C157.533 5.07559 157.692 4.63948 158.118 4.54257C158.393 4.51739 158.671 4.57656 158.912 4.71219C159.153 4.84783 159.347 5.05347 159.468 5.30172C159.598 5.56419 159.655 5.91953 159.557 5.97203C159.46 6.02452 159.403 5.92357 159.253 5.79032" fill="#442061"/>
<path d="M161.565 9.17004C161.772 9.23465 161.565 9.85247 161.658 11.3667C161.695 12.0532 161.764 12.3964 161.521 12.6912C161.277 12.986 161.001 12.8527 160.649 13.1475C160.162 13.5513 160.401 14.0601 159.959 14.8879C159.618 15.5219 159.046 16.0226 158.904 15.9378C158.763 15.853 158.953 15.4249 159.27 14.5204C159.837 12.9052 160.081 12.6589 160.328 12.5014C160.758 12.2268 160.985 12.3883 161.139 12.134C161.472 11.6292 160.604 10.9225 160.864 9.98572C160.993 9.51328 161.371 9.10947 161.549 9.17812" fill="#442061"/>
<path d="M120.32 37.8643C120.178 38.4175 120.109 38.4983 119.995 38.9182C119.869 39.3812 119.793 39.8564 119.768 40.3356C119.736 41.0826 119.886 41.1432 119.788 41.7044C119.732 42.0558 119.675 42.0194 119.468 42.7584C119.333 43.1348 119.249 43.5271 119.217 43.9254C119.217 44.5634 119.509 44.947 119.354 45.0681C119.2 45.1893 119.156 44.9914 118.803 44.9752C118.514 44.9806 118.227 45.0268 117.951 45.1125C117.712 45.1691 117.651 45.1973 117.61 45.1569C117.489 45.0439 117.886 44.7128 117.838 44.2444C117.813 43.998 117.691 43.9778 117.432 43.3075C117.286 42.932 117.306 42.9037 117.318 42.9037C117.331 42.9037 117.781 43.1178 117.939 43.5216C118.097 43.9254 117.939 44.1313 118.146 44.3655C118.146 44.3655 118.336 44.5755 118.491 44.527C118.645 44.4786 118.661 44.1878 118.742 43.6104C118.77 43.4125 118.843 42.9118 118.949 42.4676C119.103 41.8175 119.204 41.8296 119.294 41.3249C119.383 40.8201 119.294 40.7959 119.363 40.2063C119.421 39.7977 119.505 39.3931 119.614 38.9949C119.853 38.0097 119.914 37.945 119.983 37.4605C120.04 37.0567 119.983 37.0567 120.072 36.4792C120.206 35.4576 120.364 35.2678 120.51 35.2234C120.566 35.1975 120.628 35.1879 120.689 35.1958C120.75 35.2037 120.808 35.2286 120.855 35.2678C120.953 35.3849 120.815 35.5868 120.693 35.9745C120.596 36.2935 120.656 36.2491 120.51 37.0284C120.47 37.2344 120.413 37.5251 120.328 37.8724" fill="#391853"/>
<path d="M125.499 17.4844C125.479 17.6944 125.094 17.7307 124.335 18.0659C123.926 18.2264 123.536 18.4309 123.171 18.6756C122.733 18.9825 122.688 19.1279 122.409 19.2208C122.044 19.3459 121.881 19.1037 121.244 19.0714C120.973 19.0559 120.7 19.0762 120.433 19.1319C119.906 19.2329 119.825 19.3863 119.054 19.7094C118.819 19.8103 118.839 19.7901 117.708 20.2303C117.124 20.4564 116.986 20.5129 116.941 20.6543C116.84 20.9854 117.29 21.5224 117.801 21.6597C118.207 21.7728 118.551 21.5951 118.612 21.692C118.673 21.7889 118.353 22.0958 118.028 22.1806C117.318 22.3664 116.256 21.8011 116.191 21.05C116.197 20.8491 116.248 20.652 116.338 20.4722C116.428 20.2924 116.557 20.1341 116.714 20.0082C117.306 19.4388 117.728 19.7255 118.795 19.2006C119.695 18.7685 119.882 18.3324 120.51 18.393C120.851 18.4172 120.916 18.5585 121.366 18.5747C121.778 18.5655 122.184 18.4721 122.559 18.3001C123.115 18.1228 123.65 17.883 124.153 17.5854C124.631 17.2825 124.871 17.0402 125.163 17.1291C125.337 17.1816 125.515 17.3431 125.499 17.4925" fill="#391853"/>
<path d="M112.849 25.4716C112.772 26.0409 112.694 26.1499 112.605 26.6587C112.509 27.0551 112.467 27.4626 112.48 27.8701C112.516 28.1609 112.589 28.4032 112.451 28.5405C112.313 28.6777 112.163 28.5687 112.021 28.6939C111.879 28.8191 111.936 29.0977 111.932 29.5015C111.932 29.982 111.766 29.978 111.685 30.507C111.555 31.3873 111.916 31.8032 111.624 32.0939C111.478 32.2393 111.348 32.1666 111.072 32.3968C110.796 32.6269 110.78 32.8006 110.666 32.8006C110.553 32.8006 110.529 32.3604 110.261 31.7951C110.046 31.3348 109.92 31.3711 109.77 30.9875C109.511 30.3374 109.673 29.6226 109.77 29.6146C109.867 29.6065 109.831 29.764 110.046 30.3495C110.066 30.406 110.164 30.6402 110.354 31.1086C110.545 31.577 110.634 31.7991 110.719 31.8113C110.898 31.8355 111.125 31.5246 111.21 31.2298C111.295 30.935 111.182 30.826 111.178 30.4222C111.178 29.9578 111.332 29.9659 111.393 29.4167C111.466 28.7787 111.287 28.4799 111.514 28.2578C111.656 28.1245 111.758 28.2053 111.9 28.0842C112.192 27.8338 111.9 27.3614 112.005 26.5013C112.052 26.0772 112.18 25.6659 112.382 25.2898C112.402 25.2535 112.707 24.6963 112.832 24.7407C112.958 24.7851 112.881 25.1122 112.832 25.4675" fill="#391853"/>
<path d="M128.172 5.87505C128.063 5.9437 127.929 5.76602 127.665 5.78218C127.402 5.79833 127.402 5.92754 127.26 5.9437C126.931 5.97196 126.854 5.35011 126.363 5.00688C126.064 4.84472 125.736 4.74465 125.397 4.71272C125.058 4.68079 124.716 4.71767 124.392 4.82113C124.177 4.88573 123.901 5.00284 123.723 4.86958C123.544 4.73633 123.65 4.55865 123.516 4.40925C123.313 4.18312 122.871 4.37291 122.141 4.47789C121.188 4.61923 121.176 4.40925 120.518 4.595C120.103 4.73031 119.702 4.90615 119.322 5.11994C119.012 5.33036 118.659 5.46839 118.288 5.52374C117.837 5.54393 117.403 5.33799 117.416 5.22493C117.428 5.11186 117.797 5.16436 118.381 5.01899C119.152 4.83324 119.168 4.61519 120.003 4.35675C120.247 4.28407 120.109 4.35675 121.407 4.08217C121.743 4.01352 122.092 3.94084 122.575 3.87623C123.419 3.76317 123.694 3.80355 123.816 3.9691C123.938 4.13466 123.816 4.27599 123.954 4.37291C124.092 4.46982 124.388 4.29618 124.895 4.23561C125.268 4.19746 125.646 4.24441 125.998 4.37291C126.301 4.44475 126.581 4.59361 126.809 4.80497C127.093 5.09571 127.016 5.27338 127.247 5.39856C127.616 5.6045 128.03 5.24916 128.209 5.44702C128.253 5.506 128.276 5.57877 128.272 5.65259C128.268 5.72641 128.239 5.79658 128.188 5.85082" fill="#391853"/>
<path d="M113.339 8.70175C112.954 9.20651 112.593 9.10556 112.374 9.48109C112.28 9.82283 112.257 10.18 112.305 10.531C112.305 10.8258 112.329 11.0761 112.305 11.492C112.269 12.0452 112.204 12.0614 112.192 12.0614C112.098 12.0614 112.094 11.5486 111.847 11.4678C111.599 11.387 111.149 11.9402 111.113 11.9927C110.906 12.3287 110.768 12.702 110.707 13.0911C110.346 14.3509 110.168 14.2419 110.155 14.783C110.143 15.3241 110.281 15.5664 110.062 15.95C110.013 16.0348 109.876 16.273 109.657 16.2932C109.251 16.3296 108.776 15.4008 108.943 15.2191C109.004 15.1545 109.15 15.1707 109.243 15.2191C109.474 15.3322 109.466 15.6512 109.543 15.6512C109.62 15.6512 109.77 14.8234 109.819 14.464C109.848 13.988 109.909 13.5145 110.001 13.0467C110.235 12.5415 110.527 12.0657 110.873 11.6293C110.999 11.3863 111.212 11.1991 111.47 11.1044C111.685 11.0438 111.766 11.1286 111.875 11.0559C112.143 10.854 111.526 10.1191 111.786 9.44071C111.916 9.0894 112.224 8.89962 112.816 8.52812C112.958 8.43928 113.457 8.12432 113.554 8.2293C113.652 8.33429 113.453 8.57254 113.347 8.70983" fill="#391853"/>
<path d="M117.769 10.9105C117.813 11.0478 117.505 11.1488 117.31 11.4799C117.167 11.7877 117.128 12.1331 117.197 12.4652C117.27 13.398 117.602 13.8946 117.424 14.04C117.318 14.1248 117.185 13.9673 116.921 14.04C116.515 14.1127 116.308 14.5528 116.207 14.7467C115.862 15.4291 115.984 16.0429 115.887 16.0509C115.789 16.059 115.688 15.6673 115.68 15.2958C115.672 14.9935 115.743 14.6944 115.887 14.4277C116.118 14.0238 116.321 14.0723 116.576 13.6968C116.793 13.3311 116.896 12.9094 116.872 12.4854C116.872 11.9281 116.702 11.7303 116.852 11.2941C116.874 11.1983 116.916 11.1082 116.976 11.0296C117.035 10.951 117.11 10.8856 117.197 10.8379C117.42 10.7369 117.732 10.8015 117.769 10.9307" fill="#391853"/>
<path d="M130.212 10.3371C130.156 10.8661 130.127 10.8015 130.099 11.1851C130.05 11.8715 130.152 11.9927 130.054 12.3278C129.957 12.663 129.791 12.7034 129.434 13.2647C129.077 13.8259 129.182 13.9107 128.837 14.5205C128.493 15.1302 127.706 15.7642 127.621 15.7319C127.535 15.6996 127.811 15.3281 127.848 15.2271C127.998 14.8799 128.294 14.7506 128.448 14.4962C128.699 14.0924 128.594 13.9753 128.813 13.511C129.109 12.8891 129.312 13.0345 129.478 12.5742C129.709 11.9483 129.361 11.597 129.685 11.0195C129.778 10.9014 129.842 10.763 129.872 10.6157C129.908 10.329 129.722 10.1877 129.734 9.84041C129.734 9.63447 129.803 9.66678 129.823 9.43661C129.872 8.93993 129.539 8.67746 129.685 8.45537C129.707 8.42034 129.737 8.3915 129.774 8.37169C129.81 8.35187 129.851 8.34175 129.892 8.34231C130.001 8.34231 130.079 8.50787 130.143 8.74611C130.27 9.26144 130.294 9.79658 130.212 10.3209" fill="#391853"/>
<path d="M104.866 20.5775C104.866 21.1388 104.392 21.3124 103.808 22.1321C103.224 22.9519 103.378 23.2628 102.798 23.7797C102.307 24.2158 102.137 24.0502 101.881 24.4177C101.739 24.6196 101.682 24.8215 101.476 26.2953C101.403 26.7799 101.378 26.9818 101.244 27.0262C101.001 27.107 100.814 26.5174 100.283 26.3398C99.4354 26.0611 98.4133 27.0545 98.3079 27.1474C97.6346 27.8177 97.9591 28.0842 97.3425 28.702C96.6003 29.441 95.9919 29.1987 95.1848 30.0709C94.8035 30.4747 94.6534 30.8462 94.5398 30.8018C94.4263 30.7574 94.3979 30.0951 94.7264 29.6146C95.1117 29.0452 95.6228 29.2108 96.3488 28.702C97.0748 28.1932 96.9045 27.8015 97.59 27.0101C98.1172 26.3922 98.5756 25.8956 99.2854 25.73C99.9952 25.5645 100.409 25.8996 100.758 25.5927C101.107 25.2858 100.802 24.8053 101.163 24.1754C101.459 23.6585 101.78 23.7716 102.356 23.2143C102.834 22.7459 102.725 22.5481 103.41 21.4295C103.816 20.7794 104.339 19.9193 104.651 20.0122C104.818 20.0647 104.879 20.3675 104.883 20.5613" fill="#442061"/>
<path d="M103.52 9.96153C103.114 10.0302 102.737 9.55773 102.627 9.43659C102.153 8.85108 102.279 8.35036 101.869 8.18077C101.707 8.11413 101.524 8.11413 101.362 8.18077C101.293 8.20903 101.147 8.28576 100.928 8.70571C100.709 9.12566 100.697 9.38006 100.604 9.39217C100.405 9.42044 100.385 8.38267 99.6626 7.70024C99.2211 7.32768 98.6767 7.09682 98.101 7.03801C97.4967 6.92898 97.5088 7.07435 96.4056 7.03801C95.3875 7.00167 95.2456 6.87245 94.5439 6.94513C93.8422 7.01782 93.4934 7.17934 93.465 7.10665C93.4366 7.03397 93.8706 6.70285 94.406 6.53326C95.128 6.32328 95.3591 6.62613 96.4056 6.64632C97.452 6.66651 97.6224 6.37981 98.4701 6.55748C98.8354 6.6325 99.1852 6.76906 99.5044 6.96129C99.7802 7.09674 100.023 7.29115 100.214 7.53065C100.531 7.97079 100.494 8.41901 100.62 8.42305C100.746 8.42709 100.733 8.01925 101.025 7.82946C101.176 7.76612 101.338 7.73722 101.501 7.74491C101.664 7.7526 101.823 7.79668 101.966 7.87388C102.236 8.00558 102.46 8.21347 102.611 8.47151C102.802 8.77436 102.709 8.84704 102.863 9.06509C103.203 9.54562 103.865 9.48909 103.873 9.7031C103.873 9.82424 103.682 9.94942 103.504 9.97769" fill="#442061"/>
<path d="M94.4871 11.1609C94.6778 11.5243 94.3006 12.0694 93.9355 12.6024C93.4772 13.2687 93.3312 13.2283 93.177 13.6281C93.0564 14.0754 93.0261 14.542 93.0878 15.001C93.1203 15.9661 93.2501 15.954 93.1568 16.2568C92.9702 16.8464 92.5159 16.8343 92.2158 17.5854C92.1385 17.84 92.0762 18.0988 92.0292 18.3607C91.8934 18.8491 91.7323 19.3303 91.5465 19.8022C91.1734 20.9006 91.1409 21.3892 91.0193 21.3811C90.8976 21.373 90.853 20.9167 90.9057 20.4887C90.9665 19.988 91.149 19.8709 91.3113 19.3904C91.6358 18.4656 91.218 18.1789 91.5871 17.4925C91.8102 17.0887 91.9927 17.1735 92.2726 16.6849C92.5091 16.2807 92.6479 15.8272 92.6782 15.3604C92.739 14.5084 92.4145 14.3751 92.5849 13.7452C92.7083 13.3763 92.9025 13.0348 93.1568 12.7397C93.5015 12.2915 93.6232 12.3359 93.7733 12.0088C94.041 11.4597 93.8463 10.9913 94.0491 10.9105C94.1789 10.858 94.3979 10.9872 94.4871 11.1609Z" fill="#442061"/>
<path d="M89.2305 8.32616C88.8249 8.5644 88.8979 8.64516 88.6302 8.76226C88.1476 8.97224 87.8799 8.72592 87.4824 8.87533C87.0849 9.02473 86.9186 9.42046 86.728 9.85657C86.4353 10.5414 86.3168 11.2877 86.3832 12.029C86.4927 13.2404 86.5495 13.8219 86.728 14.2257C86.728 14.2661 86.8132 14.4115 86.7483 14.5003C86.6834 14.5891 86.3143 14.4357 85.8519 14.5447C85.5315 14.6214 85.5193 14.7628 85.3733 14.7264C85.0204 14.6376 85.1664 13.834 84.6351 13.515C84.5256 13.4464 84.3877 13.406 84.3633 13.2848C84.3563 13.2109 84.375 13.1369 84.4164 13.0751C84.4578 13.0133 84.5192 12.9676 84.5905 12.9457C84.8136 12.881 85.0975 13.1476 85.2354 13.4019C85.3733 13.6563 85.284 13.8381 85.4422 13.9955C85.6004 14.153 86.002 14.2136 86.1277 14.0642C86.2534 13.9148 85.9371 13.5433 85.9006 12.8528C85.9039 12.5987 85.9338 12.3456 85.9898 12.0977C86.148 10.9226 85.6815 10.6763 85.9208 9.92521C86.0872 9.4943 86.3675 9.11619 86.732 8.83091C86.9817 8.53723 87.323 8.33534 87.7014 8.25751C88.107 8.20905 88.18 8.41903 88.5126 8.35038C88.8452 8.28174 88.9182 7.97485 89.5023 7.6195C89.8389 7.40953 90.3135 7.2157 90.3946 7.32069C90.4757 7.42568 90.2729 7.68815 90.0742 7.86986C89.8146 8.1081 89.6442 8.07984 89.2265 8.32616" fill="#442061"/>
<path d="M89.5509 32.3968C89.2305 32.4412 89.2751 32.4533 88.1719 32.6713C87.3364 32.8409 87.308 32.8369 87.2066 32.9015C86.801 33.172 86.655 33.6566 86.4724 34.2502C86.2899 34.8438 86.3426 35.0578 86.1074 35.3485C85.8721 35.6393 85.4828 35.8816 85.3246 35.7806C85.1664 35.6797 85.3692 35.3284 85.1867 34.7307C85.1258 34.5248 85.065 34.3269 84.8906 34.2502C84.6351 34.1331 84.3511 34.4965 84.2457 34.4117C84.1402 34.3269 84.2457 33.9191 84.5215 33.7697C84.6095 33.7328 84.7046 33.7159 84.8 33.72C84.8954 33.7242 84.9887 33.7495 85.0731 33.7939C85.2005 33.88 85.309 33.991 85.3919 34.1201C85.4749 34.2492 85.5307 34.3938 85.5558 34.545C85.6653 34.8842 85.641 35.0861 85.6937 35.0941C85.7464 35.1022 85.8559 34.545 86.1277 33.8141C86.2255 33.4405 86.3979 33.0903 86.6347 32.7844C86.874 32.534 87.0889 32.5058 88.3787 32.215C89.3603 31.9889 89.8511 31.8799 90.0782 31.8112C91.1449 31.5528 91.4572 31.4276 91.5019 31.5165C91.5465 31.6053 91.0963 32.0697 90.5365 32.2675C90.2138 32.3479 89.8834 32.3939 89.5509 32.4048" fill="#442061"/>
<path d="M60.1207 18.7685C60.3437 19.3419 59.6542 19.7094 59.4798 20.5978C59.2851 21.583 59.926 22.1888 59.5406 22.6168C59.3216 22.855 59.1107 22.6652 58.7294 22.9237C58.2549 23.2508 58.4536 23.6788 57.9182 24.6277C57.6262 25.1688 57.4559 25.2213 57.3991 25.6049C57.3301 26.0733 57.5694 26.1177 57.5532 26.6386C57.5329 27.3009 57.1476 27.4947 57.1841 28.165C57.1841 28.4638 57.2896 28.4315 57.3058 28.7142C57.3463 29.3118 57.0016 29.4733 56.8191 30.1437C56.7444 30.7003 56.724 31.2629 56.7582 31.8235C56.7582 32.4978 56.7826 32.6553 56.6649 32.7361C56.2593 32.9945 55.079 31.9285 55.1642 31.7912C55.2088 31.7104 55.5698 31.9729 55.8375 31.8235C56.1052 31.6741 56.0647 31.1976 56.2675 30.1437C56.3729 29.5864 56.4054 29.651 56.5108 29.1099C56.6609 28.3387 56.5514 28.1368 56.6974 27.3413C56.7907 26.8325 56.8353 26.8688 56.8799 26.4892C56.9529 25.8553 56.8394 25.6816 56.9408 25.2375C57.0422 24.7933 57.2084 24.8337 57.4599 24.2926C57.8939 23.3517 57.5938 22.8106 58.044 22.4633C58.3604 22.2211 58.5915 22.431 58.8552 22.1888C59.2121 21.8455 58.8552 21.2923 58.9485 20.299C59.0458 19.3743 59.5163 18.4455 59.8327 18.4738C59.999 18.4738 60.0963 18.7443 60.1085 18.7766" fill="#442061"/>
<path d="M62.7084 10.9952C63.0044 10.9952 63.2559 10.0705 63.3492 9.52941C63.4993 8.66931 63.2924 8.60066 63.4425 7.79306C63.5033 7.44579 63.6818 6.4807 64.2983 6.11728C64.5104 5.99326 64.7445 5.911 64.9878 5.875C65.1825 5.875 65.2109 5.875 65.3934 5.875C65.799 5.83866 65.8315 5.6206 66.2411 5.4712C66.5939 5.37925 66.9634 5.37096 67.32 5.44697C67.441 5.47967 67.5644 5.50263 67.6891 5.51561C68.0947 5.51561 68.1839 5.26929 68.6301 5.15219C69.0763 5.03509 69.3277 5.15219 69.3642 5.05932C69.4007 4.96644 69.2223 4.75647 68.9992 4.6959C68.6179 4.58687 68.4476 4.98663 67.8514 5.0997C67.4052 5.17238 67.3971 4.97048 66.7927 5.03105C66.4829 5.07905 66.1766 5.14785 65.8761 5.23699C65.3894 5.36621 65.4218 5.37832 65.2109 5.4187C64.6228 5.53177 64.4849 5.39851 64.1766 5.51158C63.8684 5.62464 63.6615 5.91538 63.4182 6.31918C63.1252 6.79598 62.9527 7.33633 62.9152 7.89401C62.8584 8.75007 63.1789 8.83487 63.0044 9.38C62.8098 9.99378 62.3028 10.2199 62.4082 10.6399C62.4488 10.7973 62.5745 10.975 62.7084 10.975" fill="#442061"/>
<path d="M48.703 27.85C48.1595 28.5971 47.2509 28.9605 46.821 29.6308C46.7422 29.7608 46.6718 29.8957 46.6101 30.0346C46.4465 30.6365 46.2405 31.2262 45.9936 31.7992C45.446 33.0106 45.1824 33.2569 45.1824 33.9474C45.1824 34.5451 45.4055 34.961 45.1824 35.1589C44.9593 35.3567 44.4848 34.9327 43.9899 35.1589C43.6208 35.3244 43.5843 35.6798 43.4383 35.6596C43.0854 35.6111 42.9151 33.6809 43.3004 33.5558C43.5397 33.4831 43.779 34.1574 44.1116 34.1049C44.4442 34.0524 44.5172 33.156 44.9836 31.8194C45.2366 31.0888 45.5598 30.3843 45.949 29.7156C46.5858 28.6536 47.2144 28.6657 47.7863 27.5674C48.0338 27.0868 48.2528 26.6507 48.1068 26.1985C47.9607 25.7462 47.5754 25.5484 46.7723 25.0557C45.9693 24.5631 45.5028 24.4016 45.5555 24.2764C45.6083 24.1512 46.3667 24.127 47.0238 24.2764C47.5322 24.366 48.0079 24.5874 48.4029 24.9184C48.7895 25.2257 49.0633 25.6516 49.1816 26.1298C49.224 26.4357 49.2053 26.7469 49.1267 27.0455C49.048 27.3442 48.9109 27.6244 48.7233 27.8702" fill="#442061"/>
<path d="M35.5089 26.6993C34.6977 26.6225 33.8865 26.5458 33.2132 26.9698C32.7508 27.2686 32.763 27.5472 32.3533 27.6441C31.8788 27.7532 31.7003 27.4019 31.0676 27.309C30.5403 27.2242 30.0536 27.4261 29.0801 27.8259C28.1067 28.2256 27.6686 28.5446 27.5794 28.4356C27.4902 28.3266 27.7782 27.943 28.0783 27.6805C28.6533 27.2076 29.3623 26.9253 30.1063 26.8729C30.563 26.8094 31.0248 26.7891 31.4853 26.8123C32.0126 26.8365 32.0207 26.8931 32.2965 26.8729C33.0185 26.8204 33.2375 26.3762 33.8905 26.1097C34.2961 25.9482 34.8194 25.9926 35.878 26.0814C36.3728 26.1218 38.1412 26.2672 38.1453 26.4852C38.1453 26.6387 37.4314 26.8002 36.8271 26.8204C36.3858 26.8041 35.9465 26.7541 35.5129 26.671" fill="#442061"/>
<path d="M50.2646 14.2985C50.4774 14.8035 50.6536 15.323 50.7918 15.8531C50.9581 16.7213 51.0393 17.1533 50.8243 17.4077C50.5485 17.7308 50.1469 17.5329 49.1411 17.9892C48.9924 18.0718 48.8379 18.1433 48.6787 18.2032C48.1027 18.3728 47.7782 18.1225 47.2428 18.2032C46.8007 18.2638 46.9021 18.4536 46.383 18.607C45.6935 18.7968 45.4501 18.502 44.9755 18.7282C44.501 18.9543 44.5943 19.237 44.2414 19.4591C43.5113 19.9154 42.3391 19.4591 42.3432 19.245C42.3432 19.1845 42.5906 19.0916 43.0773 18.9099C43.3443 18.8402 43.6017 18.7386 43.8439 18.607C44.213 18.3365 44.1238 18.0861 44.3955 17.9367C44.8011 17.7106 45.1053 18.2073 45.7421 18.1184C46.3789 18.0296 46.4114 17.5168 47.0563 17.4481C47.4619 17.4037 47.5227 17.6056 48.0378 17.6621C48.6219 17.7267 49.5264 17.5733 49.9644 16.9313C50.0949 16.7075 50.1787 16.4599 50.2108 16.2032C50.2428 15.9464 50.2225 15.6859 50.151 15.4372C49.8995 14.5125 49.0762 14.1894 49.2303 13.7614C49.2731 13.6613 49.347 13.5774 49.4411 13.5222C49.5353 13.467 49.6448 13.4432 49.7535 13.4545C49.9441 13.4909 50.0496 13.7089 50.2727 14.3065" fill="#442061"/>
<path d="M51.0393 4.99079C51.207 5.16233 51.3349 5.36835 51.4141 5.59437C51.4933 5.8204 51.5218 6.06094 51.4976 6.29911C51.4838 6.54101 51.4193 6.77735 51.3082 6.99294C51.1971 7.20853 51.042 7.39859 50.8527 7.55089C50.4471 7.82952 50.2605 7.58724 49.2627 7.88605C48.5083 8.10814 48.3096 8.33427 48.2204 8.46349C48.0338 8.73403 48.1149 8.88748 47.9445 9.01266C47.6322 9.24282 47.2226 8.82287 46.4763 8.79864C45.73 8.77441 45.1865 9.23475 45.0972 9.10553C45.008 8.97632 45.3365 8.46349 45.8314 8.29793C46.4073 8.12025 46.6953 8.59674 47.2713 8.45137C47.8472 8.306 47.7255 7.84971 48.3745 7.50648C49.0234 7.16324 49.3682 7.52667 50.0253 7.17132C50.5607 6.88462 51.0596 6.25469 50.9135 5.77013C50.8626 5.64687 50.7876 5.53487 50.6929 5.44062C50.5982 5.34636 50.4857 5.2717 50.3619 5.22096C49.8874 4.99483 49.4534 5.18461 49.4128 5.06751C49.3723 4.95041 49.6927 4.70005 50.0577 4.66371C50.2359 4.64602 50.4158 4.66681 50.5852 4.72464C50.7546 4.78248 50.9095 4.87602 51.0393 4.99887" fill="#442061"/>
<path d="M37.2529 16.8666C36.6617 16.8027 36.0648 16.8136 35.4764 16.8989C35.0688 16.9473 34.6855 17.1176 34.3772 17.3875C34.1176 17.6298 34.1663 17.7429 33.9716 17.9044C33.5052 18.3082 32.9617 17.8034 31.9842 17.9044C31.1243 17.9932 31.0472 18.4293 29.871 18.5747C29.5384 18.6151 29.0071 18.6474 28.9827 18.5424C28.9827 18.502 29.0436 18.4212 30.3293 17.9044C30.8014 17.6832 31.2947 17.51 31.8017 17.3875C32.552 17.2946 32.7021 17.5652 33.2375 17.3875C33.7729 17.2098 33.6796 16.9837 34.2799 16.6243C34.7966 16.3449 35.3751 16.1978 35.9631 16.1963C36.7743 16.168 36.7743 16.4103 37.5247 16.4103C38.6685 16.4103 39.3539 15.8611 39.577 16.1357C39.6174 16.2122 39.6357 16.2983 39.63 16.3846C39.6243 16.4708 39.5947 16.5538 39.5446 16.6243C39.3823 16.8828 39.0011 16.9474 37.2489 16.8666" fill="#442061"/>
<path d="M79.8247 21.0298C79.3136 21.3407 79.0987 21.2801 78.7215 21.5143C78.3945 21.736 78.1338 22.0416 77.967 22.3987C77.7561 22.8307 77.7886 23.1336 77.7521 23.8322C77.7121 24.5376 77.6308 25.24 77.5087 25.936C77.2937 27.0747 77.1031 26.9859 76.9895 27.854C76.8841 28.6374 77.0342 28.702 77.0179 30.079C77.0179 31.1127 76.9855 32.1424 76.6123 32.2434C76.5343 32.2557 76.4543 32.2451 76.3823 32.2128C76.3102 32.1805 76.2492 32.128 76.2067 32.0617C76.0242 31.8113 76.2067 31.4236 76.3 31.1491C76.5231 30.507 76.5109 29.7963 76.4825 28.3749C76.4319 27.9371 76.4524 27.4939 76.5434 27.0626C76.6612 26.723 76.8148 26.3968 77.0017 26.0894C77.46 25.0476 76.8557 24.5065 77.1558 22.9478C77.2005 22.5458 77.3394 22.1599 77.5614 21.8212C77.9649 21.3351 78.5086 20.9841 79.1189 20.8158C79.6138 20.6219 80.3357 20.412 80.3722 20.5412C80.4087 20.6704 80.0194 20.9086 79.8247 21.0298Z" fill="#442061"/>
<path d="M76.8516 11.4597C77.1014 11.1724 77.2892 10.8371 77.4032 10.4744C77.5813 9.96186 77.8804 9.49933 78.2753 9.12574C78.3523 9.06921 78.8512 8.66944 79.127 8.83096C79.2487 8.89961 79.3096 9.06921 79.3096 9.46897C79.3096 10.2766 79.0338 10.7733 78.7133 11.8474C78.6282 12.1381 78.3848 12.9497 78.4821 12.9901C78.5795 13.0305 78.7255 12.7155 78.7823 12.6227C79.0252 12.1974 79.1952 11.7347 79.2852 11.2538C79.5935 9.99391 79.7354 10.0141 79.7233 9.4932C79.7233 9.2065 79.703 8.54022 79.3177 8.35044C79.1961 8.31187 79.0676 8.29985 78.9409 8.31518C78.8142 8.33051 78.6923 8.37283 78.5835 8.43927C78.0729 8.71935 77.6631 9.15139 77.4114 9.67491C76.5677 11.0276 76.1459 11.6939 76.2635 11.8029C76.3811 11.912 76.6691 11.6374 76.8597 11.4597" fill="#442061"/>
<path d="M74.0287 15.2756C74.1098 15.3201 74.0003 15.7239 73.7772 16.5315C73.5947 17.1856 73.5014 17.5167 73.3392 17.654C73.0512 17.9003 72.8159 17.7832 72.4225 17.9488C72.0291 18.1144 71.9561 18.3284 71.3639 19.2289C70.4351 20.6502 70.3904 20.5574 69.9646 21.3327C69.6157 21.9666 69.4535 22.3826 69.3927 22.3624C69.3761 21.9832 69.4541 21.6058 69.6198 21.264C69.8875 20.5695 70.1187 20.4968 70.6784 19.6205C71.3395 18.5707 71.299 18.2153 71.8465 17.86C72.3941 17.5046 72.4874 17.7509 72.7875 17.4562C73.2986 16.9474 72.9903 16.2448 73.5987 15.5583C73.6312 15.522 73.9029 15.2231 74.0043 15.2837" fill="#442061"/>
<path d="M69.8551 26.2025C69.2832 26.8122 68.8938 26.7759 68.1718 27.4502C67.8108 27.7894 67.9285 27.7773 67.681 27.9711C66.9915 28.5122 66.5048 28.274 65.7828 28.7303C65.417 28.9513 65.1195 29.2685 64.923 29.6469C64.6958 30.1153 64.7851 30.4141 64.4646 31.2298C64.2456 31.7911 64.1239 31.8597 64.0388 31.8719C63.7427 31.9122 63.6332 31.3388 63.2276 31.2621C62.6475 31.1531 62.1365 32.1384 61.9418 32.0253C61.7471 31.9122 61.8485 31.2621 62.246 30.9875C62.6435 30.713 63.1951 31.1248 63.6859 30.8058C63.7589 30.7574 63.8157 30.7008 64.1767 29.9982C64.6593 29.0331 64.6877 28.8716 64.9392 28.6253C65.1702 28.4271 65.4283 28.2626 65.7058 28.1367C66.3547 27.7975 66.517 27.846 66.9631 27.6198C67.7054 27.216 67.4864 26.9374 68.2773 26.4609C68.8248 26.1338 68.9911 26.2388 69.7172 25.7906C70.1228 25.5524 70.3418 25.3464 70.3904 25.3868C70.4391 25.4272 70.1958 25.8633 69.8713 26.1944" fill="#442061"/>
<path d="M14.3771 19.5035C13.8782 21.0379 13.9715 20.8966 13.8498 21.151C13.5051 21.793 13.359 21.7042 13.0386 22.3382C12.8109 22.7783 12.6484 23.2489 12.556 23.7353C12.4173 24.3999 12.3399 25.0757 12.3248 25.7543C12.2518 27.2524 12.3491 27.9025 11.9192 28.1529C11.7407 28.2619 11.6069 28.2094 11.2094 28.4275C10.9752 28.5328 10.7694 28.6919 10.6091 28.8919C10.4428 29.1341 10.4752 29.2957 10.3819 29.2957C10.1832 29.336 9.87494 28.7263 9.73704 28.2215C9.6762 27.9873 9.60725 27.6158 9.69242 27.5795C9.7776 27.5432 9.93173 28.0277 10.313 28.1529C10.6943 28.2781 11.2418 27.955 11.5298 27.6037C11.8705 27.1999 11.8299 26.7961 11.8948 25.6816C11.9141 24.7289 12.0378 23.781 12.2639 22.855C12.4579 22.2501 12.7306 21.6732 13.0751 21.1389C13.3188 20.8228 13.5345 20.4864 13.72 20.1334C14.0891 19.2208 13.8498 18.4374 14.0851 18.3769C14.2067 18.3446 14.3609 18.5182 14.4298 18.6474C14.4764 18.7783 14.4964 18.917 14.4888 19.0557C14.4811 19.1943 14.4459 19.33 14.3852 19.455" fill="#442061"/>
<path d="M7.70904 13.0951C7.98484 13.6604 7.67659 14.0803 7.58735 14.9243C7.5175 15.7478 7.5379 16.5764 7.64819 17.3955C7.66521 17.4635 7.66859 17.5342 7.65815 17.6035C7.64771 17.6728 7.62366 17.7393 7.58735 17.7993C7.36833 18.078 6.85728 17.7993 6.39489 17.9851C6.1272 18.082 5.90412 18.3203 5.58369 19.1723C5.22063 20.1618 4.94911 21.1823 4.77249 22.221C4.43585 23.7918 4.33445 24.0542 4.24927 24.0502C4.16409 24.0462 4.03836 23.4808 4.0343 23.0124C4.0343 22.1281 4.3385 21.8576 4.61837 20.8198C4.97124 19.5115 4.69137 19.1723 5.13753 18.4414C5.36671 18.0092 5.73127 17.6633 6.17587 17.4561C6.58147 17.2825 6.80049 17.4117 6.98707 17.2098C7.2791 16.9191 6.98707 16.4991 7.01546 15.4452C7.01546 14.9001 7.10875 15.0414 7.23043 13.8905C7.29532 13.2606 7.3156 12.8447 7.44539 12.8205C7.57519 12.7962 7.66847 13.0506 7.68875 13.0951" fill="#442061"/>
<path d="M18.21 36.3501C18.21 36.3501 18.0762 36.5116 17.9991 36.4995C17.9221 36.4874 17.8653 36.1441 17.8612 36.0512C17.8247 35.5303 17.8977 34.8398 18.0316 34.8398C18.1654 34.8398 18.2019 35.0458 18.206 35.2436C18.206 35.5303 18.0153 35.6474 18.0843 35.7928C18.1532 35.9382 18.3844 35.914 18.5345 35.914C18.6272 35.924 18.7211 35.9153 18.8103 35.8882C18.8996 35.8611 18.9823 35.8163 19.0537 35.7565C19.1794 35.599 19.0537 35.4213 19.0537 35.0821C19.0537 34.7429 19.1672 34.7106 19.3295 34.1009C19.4755 33.5719 19.3863 33.5921 19.5363 33.0025C19.6509 32.7012 19.7325 32.3885 19.7797 32.0698C19.7539 31.7812 19.7133 31.4941 19.658 31.2097C19.6947 30.8399 19.7992 30.4799 19.9663 30.1477C20.1731 29.441 19.9663 29.3764 20.088 28.4275C20.1934 27.7047 20.4571 26.8123 20.6761 26.8123C20.7734 26.8123 20.8343 27.002 20.8586 27.0747C21.033 27.5835 20.6477 27.9187 20.4936 28.7182C20.4003 29.2108 20.5301 29.1503 20.4327 29.756C20.3354 30.3617 20.1691 30.499 20.0961 31.036C20.0231 31.5731 20.1772 31.6417 20.1569 32.3161C20.0757 32.8711 19.9633 33.4211 19.8203 33.9636C19.5404 35.175 19.5039 35.2719 19.5445 35.5465C19.5931 35.8978 19.7189 36.1805 19.5728 36.3097C19.4268 36.4389 19.3863 36.3097 18.8996 36.3097L18.21 36.3501Z" fill="#442061"/>
<path d="M24.5779 9.03683C24.9592 9.32353 24.8253 10.01 24.6225 11.5485C24.3265 13.8098 24.4481 13.6159 24.2778 14.2459C24.0547 15.0939 23.8438 15.4129 23.8722 16.1437C23.9343 16.5444 23.9574 16.9501 23.9411 17.3552C23.8925 17.8236 23.787 17.8962 23.6207 18.6796C23.4747 19.3742 23.4909 19.6286 23.3936 19.6407C23.2962 19.6528 22.988 19.1561 22.988 18.6352C23.0321 18.3219 23.1339 18.0194 23.2881 17.7428C23.4802 17.1611 23.5654 16.5496 23.5396 15.9378C23.5639 15.1302 23.4544 15.0293 23.5639 14.5205C23.6897 13.9471 23.8519 13.9834 23.9979 13.4464C24.2494 12.5499 23.8316 12.3117 24.0223 11.1164C24.1104 10.7868 24.1715 10.4505 24.2048 10.1109C24.2048 9.48505 24.0547 9.04087 24.2291 8.94396C24.3265 8.88743 24.4887 8.97222 24.5739 9.03683" fill="#442061"/>
<path d="M13.2496 5.44703C14.0608 6.69882 14.0608 6.60998 14.0608 6.70286C14.296 7.28433 14.3041 7.87792 14.3163 9.03683C14.3163 9.84444 14.2717 9.65061 14.2676 10.7247C14.2676 10.753 14.2676 11.6171 14.1784 12.7155C14.1419 13.1556 14.1094 13.4181 14.0405 13.4221C13.9715 13.4262 13.8377 13.0627 13.785 12.7841C13.6511 12.0653 13.9147 11.8513 13.9715 11.0478C14.0161 10.3451 13.8336 10.3169 13.8093 8.96818C13.8093 8.56438 13.8093 8.64111 13.8093 8.37056C13.7728 7.42566 13.7485 6.70286 13.3023 6.15368C12.917 5.6772 12.4019 5.57221 12.4546 5.34608C12.4843 5.27446 12.536 5.21402 12.6023 5.17341C12.6686 5.13279 12.7461 5.11408 12.8237 5.11995C13.0184 5.11995 13.1482 5.32993 13.2293 5.46318" fill="#442061"/>
<path d="M3.4543 29.1301C3.48868 29.5036 3.57046 29.8713 3.69766 30.2244C3.76059 30.3497 3.77222 30.4945 3.73011 30.6282C3.64899 30.8099 3.44619 30.822 3.30017 30.9351C3.06087 31.1249 3.08926 31.5085 3.11765 32.0334C3.21905 33.7698 3.18255 34.0847 3.02437 34.3795C2.90531 34.5827 2.76965 34.7759 2.61877 34.9569C2.37946 35.2679 2.26184 35.4213 2.16044 35.4132C1.91708 35.4132 1.91708 34.8237 1.4263 34.2584C1.19917 33.9797 0.903079 33.9353 0.943639 33.8223C0.984199 33.7092 1.24784 33.6446 1.46686 33.7011C1.68589 33.7576 1.87246 34.0443 1.95358 34.1897C2.07526 34.3997 2.07121 34.5087 2.1361 34.5249C2.27401 34.5491 2.51331 34.1655 2.62688 33.7617C2.8459 32.9864 2.44436 32.7118 2.56604 31.6579C2.60103 31.3554 2.67323 31.0584 2.78101 30.7736C2.93919 30.3697 3.01625 30.394 3.08926 30.1638C3.29612 29.4733 2.63905 29.0332 2.81345 28.3669C2.91532 28.121 3.07205 27.9015 3.27178 27.7248C3.27178 27.7248 3.51514 27.6562 3.60843 27.7248C3.70172 27.7935 3.63277 28.0115 3.57598 28.2458C3.49948 28.5345 3.45862 28.8315 3.4543 29.1301Z" fill="#442061"/>
</mask>
<g mask="url(#mask0_690_112164)">
<rect x="-9.21678" y="-16.6974" width="196.52" height="83.4069" fill="white"/>
</g>
</svg>
