<svg width="75" height="91" viewBox="0 0 75 91" fill="none" xmlns="http://www.w3.org/2000/svg">
<g clip-path="url(#clip0_690_112165)">
<path fill-rule="evenodd" clip-rule="evenodd" d="M61.3606 1.10403C61.6166 1.14511 61.7917 1.38172 61.7538 1.6352C61.6524 2.31195 61.5824 3.51152 61.714 4.86382C61.8054 5.80239 61.9925 6.79873 62.3244 7.73747L63.3441 7.15571C63.787 6.90305 64.3583 7.06164 64.6201 7.50992L68.177 13.5976C68.4388 14.0459 68.2922 14.6141 67.8493 14.8668L66.4261 15.6787C66.8338 16.8423 67.6194 18.5566 68.9257 20.2752C70.7868 22.7237 73.1939 24.8101 74.1534 25.5382C74.2563 25.6162 74.3222 25.7324 74.3362 25.8597C74.35 25.987 74.3106 26.1143 74.2271 26.2122C73.3724 27.2127 71.8125 28.6896 69.8819 29.9065C67.956 31.1203 65.612 32.1061 63.2026 32.0491C58.6154 31.9404 55.2361 31.2695 54.09 30.9362C53.937 30.8917 53.8169 30.7742 53.7703 30.6233C53.7237 30.4726 53.757 30.3088 53.8589 30.1875L56.0383 27.5912C56.1383 27.4721 56.2914 27.4095 56.4472 27.4238C57.4475 27.5157 59.9072 27.0508 61.2389 24.2803C61.8985 22.9082 61.9072 21.44 61.632 20.1388C61.5198 19.6085 61.3616 19.1117 61.1854 18.6686L51.4115 24.2449C50.9688 24.4975 50.3974 24.339 50.1355 23.8907L49.7798 23.2819L42.8371 27.2429L41.8856 26.7035L49.3056 22.4702L48.5942 21.2526L40.4586 25.8943L39.9828 25.6246L48.3571 20.8468L47.5272 19.4264L38.3178 24.6805L37.3664 24.1411L47.0529 18.6147L46.5788 17.803C46.3168 17.3547 46.4635 16.7865 46.9063 16.5338L57.5416 10.4661L57.5486 10.4206C57.2135 9.9686 56.3269 9.22512 54.9162 9.34216C53.2072 9.48393 50.3869 10.3451 49.1729 10.7672C49.0412 10.8129 48.8958 10.799 48.7754 10.7292C48.655 10.6593 48.5719 10.5406 48.5482 10.4046L48.1406 8.06682C48.1197 7.9466 48.147 7.82305 48.2167 7.72242C49.127 6.40926 50.8596 4.52016 53.128 3.07549C55.398 1.62978 58.2463 0.604163 61.3606 1.10403ZM32.163 27.1098L15.3802 36.6847C15.3479 36.7031 15.3174 36.7232 15.2883 36.7447C14.1728 36.3804 12.9109 36.4701 11.8135 37.0963C9.77204 38.261 9.07261 40.8404 10.2512 42.8577C11.4298 44.875 14.0402 45.5661 16.0816 44.4015C17.2723 43.7221 18.0065 42.5614 18.1777 41.3117L37.6582 30.1976L36.7025 29.6605L18.1838 40.2259C18.1246 39.7562 17.9841 39.2896 17.7568 38.8461L35.2689 28.855L34.7911 28.5865L17.5196 38.4403C17.1946 37.9483 16.7807 37.5439 16.3111 37.2359L33.1186 27.6468L32.163 27.1098ZM61.8633 9.0828L58.4106 11.0526L58.3099 11.7057L61.1821 16.6215C61.302 16.7965 61.4297 17.0037 61.5584 17.2384L65.2635 15.1245C65.2341 15.0125 65.2097 14.9103 65.1901 14.8186C64.6792 14.0224 63.4136 11.9529 62.0186 9.38312C61.9648 9.28404 61.9131 9.18389 61.8633 9.0828ZM53.9962 13.5711L57.3588 11.6527L57.3473 11.7271C57.3311 11.8323 57.3515 11.9398 57.4054 12.032L60.2376 16.8796L53.9962 13.5711ZM66.1034 14.5525C66.115 14.6127 66.1297 14.6805 66.1478 14.7553L67.3751 14.0551L63.8184 7.9674L62.6869 8.61285C62.7403 8.72346 62.796 8.8326 62.8544 8.94007C64.2843 11.5743 65.5749 13.674 66.0371 14.388C66.0696 14.4381 66.0921 14.494 66.1034 14.5525ZM53.9314 14.0595L60.7054 17.6501C60.7341 17.702 60.7631 17.7556 60.7921 17.8108L54.9628 21.1366L53.9314 14.0595ZM60.7581 1.96826C58.1221 1.67829 55.6748 2.5686 53.6419 3.86331C51.5808 5.17593 49.9839 6.88121 49.1084 8.09755L49.3886 9.70456C49.6923 9.60526 50.0452 9.49422 50.428 9.37985L50.4329 8.29896C51.1449 7.4869 53.2972 5.60962 56.2102 4.59702C58.5228 3.79311 59.9847 3.67928 60.6979 3.75042C60.682 3.06789 60.7102 2.45618 60.7581 1.96826ZM66.2699 27.6726C64.254 28.1713 60.8776 28.1802 58.3893 28.0757C57.7192 28.3012 57.0961 28.379 56.6164 28.3706L55.0674 30.2158C56.5445 30.5486 59.46 31.0229 63.2253 31.1121C65.3692 31.1629 67.5241 30.281 69.3719 29.1163C70.9901 28.0964 72.3351 26.8834 73.1797 25.97C72.7426 25.6159 72.1687 25.1217 71.5319 24.5238C70.4736 25.5754 68.5081 27.119 66.2699 27.6726ZM53.4373 13.89L47.5823 17.2304L54.4507 20.8439L53.4373 13.89ZM47.6341 17.7795L50.9374 23.4332L54.5081 21.396L47.6341 17.7795ZM15.0145 42.5751C13.9938 43.1575 12.6887 42.812 12.0994 41.8033C11.5101 40.7946 11.8598 39.5049 12.8805 38.9226C13.9012 38.3403 15.2064 38.6858 15.7957 39.6945C16.385 40.7031 16.0353 41.9929 15.0145 42.5751Z" fill="#FCFCFC"/>
<path fill-rule="evenodd" clip-rule="evenodd" d="M13.3044 1.6352C13.2664 1.38172 13.4415 1.14511 13.6974 1.10403C16.8119 0.604163 19.66 1.62978 21.9301 3.07549C24.1985 4.52016 25.9311 6.40926 26.8414 7.72242C26.9112 7.82305 26.9385 7.9466 26.9175 8.06682L26.5099 10.4046C26.4862 10.5406 26.4031 10.6593 26.2827 10.7292C26.1623 10.799 26.0169 10.8129 25.8852 10.7672C24.6711 10.3451 21.851 9.48393 20.142 9.34216C18.7311 9.22512 17.8446 9.9686 17.5095 10.4206L17.5165 10.4661L28.1518 16.5338C28.5947 16.7865 28.7413 17.3547 28.4794 17.803L28.0052 18.6147L59.678 36.6848C59.7101 36.7031 59.7408 36.7232 59.7698 36.7447C60.8853 36.3804 62.1472 36.4701 63.2447 37.0963C65.286 38.261 65.9855 40.8405 64.8069 42.8577C63.6283 44.875 61.0179 45.5661 58.9766 44.4015C57.7858 43.7221 57.0516 42.5614 56.8804 41.3117L25.2783 23.2819L24.9226 23.8907C24.6607 24.339 24.0894 24.4975 23.6465 24.2449L13.8726 18.6686C13.6966 19.1117 13.5383 19.6085 13.4262 20.1388C13.151 21.44 13.1597 22.9082 13.8192 24.2803C15.1509 27.0508 17.6107 27.5157 18.6108 27.4238C18.7668 27.4095 18.9198 27.4721 19.0197 27.5913L21.1992 30.1875C21.301 30.3088 21.3343 30.4726 21.2878 30.6234C21.2412 30.7742 21.1211 30.8917 20.9681 30.9363C19.8221 31.2695 16.4426 31.9404 11.8556 32.0491C9.44605 32.1062 7.1021 31.1203 5.17618 29.9065C3.2456 28.6897 1.68574 27.2128 0.831085 26.2122C0.747505 26.1144 0.70808 25.987 0.721974 25.8597C0.735869 25.7324 0.801874 25.6162 0.904645 25.5382C1.86421 24.8101 4.2713 22.7237 6.13242 20.2752C7.43873 18.5566 8.22429 16.8423 8.63197 15.6787L7.20878 14.8668C6.76594 14.6141 6.61926 14.0459 6.88117 13.5976L10.4379 7.50993C10.6998 7.06165 11.2712 6.90306 11.714 7.15572L12.7337 7.73748C13.0656 6.79874 13.2527 5.8024 13.3441 4.86382C13.4758 3.51152 13.4057 2.31195 13.3044 1.6352ZM16.6475 11.0526L13.1949 9.08282C13.1451 9.18389 13.0934 9.28404 13.0396 9.38312C11.6446 11.9529 10.3789 14.0224 9.86799 14.8186C9.84844 14.9103 9.82408 15.0125 9.79467 15.1245L13.4997 17.2384C13.6284 17.0037 13.756 16.7965 13.8761 16.6215L16.7481 11.7057L16.6475 11.0526ZM17.6994 11.6527L21.0619 13.5711L14.8205 16.8796L17.6527 12.032C17.7066 11.9398 17.7271 11.8323 17.7109 11.7271L17.6994 11.6527ZM8.91039 14.7553C8.92836 14.6805 8.9431 14.6127 8.95475 14.5525C8.96606 14.494 8.98857 14.4381 9.02104 14.388C9.48316 13.674 10.7738 11.5743 12.2038 8.94008C12.2621 8.83261 12.3179 8.72347 12.3711 8.61286L11.2398 7.96741L7.68302 14.0551L8.91039 14.7553ZM14.3528 17.6501L21.1267 14.0595L20.0954 21.1366L14.266 17.8108C14.295 17.7556 14.3239 17.702 14.3528 17.6501ZM21.4163 3.86331C19.3834 2.5686 16.9361 1.67829 14.3 1.96826C14.348 2.45618 14.376 3.06789 14.3603 3.75042C15.0734 3.67928 16.5353 3.79312 18.8479 4.59703C21.7609 5.60962 23.9132 7.4869 24.6252 8.29896L24.6302 9.37985C25.013 9.49422 25.3659 9.60526 25.6696 9.70456L25.9497 8.09755C25.0743 6.88121 23.4774 5.17593 21.4163 3.86331ZM16.6689 28.0757C14.1805 28.1803 10.8041 28.1713 8.78829 27.6726C6.55008 27.119 4.58451 25.5754 3.52614 24.5238C2.88941 25.1217 2.31549 25.6159 1.87847 25.97C2.72296 26.8834 4.06802 28.0964 5.68621 29.1163C7.53406 30.281 9.68895 31.1629 11.8328 31.1121C15.5982 31.0229 18.5137 30.5486 19.9906 30.2158L18.4418 28.3706C17.9621 28.379 17.339 28.3012 16.6689 28.0757ZM27.4757 17.2304L21.6207 13.89L20.6074 20.8439L27.4757 17.2304ZM24.1208 23.4332L27.424 17.7795L20.55 21.396L24.1208 23.4332ZM58.747 37.2359C58.2774 37.5439 57.8635 37.9483 57.5384 38.4403L26.701 20.8469L27.531 19.4264L58.747 37.2359ZM57.3013 38.8461C57.074 39.2896 56.9335 39.7562 56.8743 40.226L25.7526 22.4703L26.4639 21.2527L57.3013 38.8461ZM62.9587 41.8033C62.3695 42.812 61.0642 43.1575 60.0436 42.5751C59.0229 41.9929 58.6732 40.7031 59.2624 39.6945C59.8518 38.6858 61.1569 38.3403 62.1777 38.9226C63.1984 39.5049 63.5481 40.7946 62.9587 41.8033Z" fill="#FCFCFC"/>
<path d="M34.2951 67.8831L32.0662 70.976C30.0508 70.976 28.6043 69.7811 28.2487 67.5316L27.727 64.2512C27.3476 61.908 26.7548 61.3692 24.8341 61.2051L24.2413 61.5098V67.8362C24.7155 67.93 25.0712 68.0002 25.2372 68.0002C25.5455 68.0002 25.7826 67.8597 26.3043 67.1802L26.7548 67.4848C26.0908 68.2814 24.8816 69.7811 24.0516 70.9994C21.965 70.1794 20.5423 69.7342 18.0288 69.7342C16.701 69.7342 16.1082 70.0622 15.2546 70.7886L14.8752 70.3434L17.2938 68.1408C18.266 67.2505 19.3567 66.1258 19.3567 64.2981V61.1583H18.764C17.4598 61.1583 16.5588 61.6503 16.2267 62.4001L15.9422 62.2829C16.0608 59.729 17.1752 58.2294 19.1907 58.2294H19.333V54.7615C17.1515 53.1448 16.5824 52.9105 16.1794 52.9105C15.8237 52.9105 15.4916 53.0979 15.0412 53.5197L14.7092 53.1448L18.2185 50.2158C19.5938 51.1999 21.2537 52.4418 22.5341 53.379L23.696 52.6292V52.02C23.696 51.3405 23.5537 50.6142 23.4352 50.2627V50.2158L24.0754 50.3096C24.1702 50.6376 24.2177 51.3171 24.2177 51.856V52.3246L27.5135 50.2393C29.7187 50.8953 31.6868 51.9263 31.6868 54.5975C31.6868 56.7063 30.5249 58.3699 27.8218 59.5181C29.9322 59.7758 30.691 61.3926 31.0229 63.2906L31.4972 65.9851C31.8528 68.0236 32.4693 68.1877 32.991 68.1877C33.2755 68.1877 33.5126 67.9768 33.7971 67.5316L34.2951 67.8831ZM23.696 53.2385C23.198 53.5665 22.5578 53.9649 22.5578 53.9649V62.119C22.5578 64.673 21.0165 66.032 19.2144 67.2036L19.2381 67.2505C19.5938 67.1333 20.0918 66.9927 20.7794 66.9927C21.4433 66.9927 22.6764 67.4613 23.696 67.6722V53.2385ZM25.2372 52.2778L24.2413 52.9105V60.9005C27.3239 59.5415 28.3672 58.1591 28.3672 55.9565C28.3434 53.7774 27.0868 52.7933 25.2372 52.2778Z" fill="#FCFCFC"/>
<path d="M44.2541 68.7267C43.6139 69.3359 42.6891 70.2029 42.1437 70.7652C41.2427 70.0857 40.1045 69.289 39.5592 68.8907L37.354 70.7652C36.5715 70.1326 35.3147 69.2187 34.3426 68.5861V68.4689C34.6508 68.2815 34.8168 68.0238 34.8168 67.0864V63.9935C35.8127 63.5249 36.6901 63.0563 37.3065 62.6814C36.1684 62.2596 35.2198 61.2287 35.2198 59.729C35.2198 57.8076 36.1684 56.9173 37.022 55.9097C37.4725 55.3708 37.7571 54.9959 38.0416 54.5272C39.3694 55.1131 41.7169 56.1675 43.2581 56.7298V56.847C42.9262 57.1047 42.784 57.4562 42.784 58.1357V68.0238C43.0448 68.2815 43.8984 68.7736 44.2067 68.6564L44.2541 68.7267ZM39.9149 58.2528C38.7055 57.5265 38.1838 57.1984 37.6385 57.1984C37.1405 57.1984 35.8838 57.5499 35.8838 59.729C35.8838 61.1818 37.188 62.3767 39.0138 62.3767C39.2746 62.3767 39.6065 62.2831 39.9386 62.1893V58.2528H39.9149ZM39.9149 67.8363V62.8219C39.6066 62.9391 39.2983 63.0094 38.9663 63.0094C38.5395 63.0094 38.0653 62.8923 37.7097 62.7985C37.5673 63.0563 37.5199 63.4546 37.5199 63.9467V67.8363C37.9942 68.1409 38.3498 68.4454 38.8952 68.7501L39.9149 67.8363Z" fill="#FCFCFC"/>
<path d="M50.3006 68.7267L48.1191 70.7652C47.5026 70.2965 46.2458 69.4062 45.4633 68.9141V68.7969C45.819 68.586 45.9376 68.2814 45.9376 67.5082V57.2686L45.5819 57.0578C44.9892 56.7063 44.7994 56.7063 44.4912 56.7063L44.4675 56.5891L46.649 54.5272C47.2654 54.9958 48.451 55.8393 49.3047 56.4017V56.5188C48.9727 56.7063 48.8304 56.9875 48.8304 57.7373V68.0471C49.6841 68.586 49.9923 68.6563 50.2531 68.6563L50.3006 68.7267ZM46.7913 53.1447L45.8902 52.184C46.6727 51.4108 48.5459 49.4426 49.0202 48.7396C49.2335 49.0208 49.8026 50.1924 50.0398 50.825C49.3759 51.3874 47.6923 52.6058 46.7913 53.1447Z" fill="#FCFCFC"/>
<path d="M60.3306 57.1984C59.9986 57.4796 59.8564 57.6904 59.8564 58.7214V67.719C58.2677 68.6095 56.845 69.453 55.0904 70.7652C54.1655 70.156 52.316 69.0547 51.249 68.4923V68.3752C51.5336 68.2346 51.7233 67.9534 51.7233 67.4144V57.2218C52.3397 56.8937 53.8336 56.0034 54.7584 55.3942L53.7624 54.3163C52.4346 52.8636 52.1501 52.559 52.1501 51.3874C52.1501 50.5673 52.6243 49.4894 53.0511 48.7162L53.3594 48.8334C53.1934 49.6066 53.383 50.1924 54.948 51.7154C54.948 51.7154 59.3584 56.2611 60.3543 57.0578V57.1984H60.3306ZM56.9873 68.7501V57.7373L55.2089 55.8627L54.5924 56.2377V67.391C55.1378 67.7425 56.3233 68.4454 56.9399 68.7735L56.9873 68.7501Z" fill="#FCFCFC"/>
<path d="M25.83 82.1763C25.83 83.6291 24.8578 84.6366 23.5063 85.527L19.499 88.245C16.8907 87.05 14.4958 86.3471 12.6699 86.3471C10.6308 86.3471 9.20805 87.1438 9.20805 89.7212L9.1132 89.7447L8.4967 89.2291C8.97094 86.1831 10.5833 84.5194 12.0535 84.1212C12.3143 83.6291 12.5277 82.9261 12.5277 81.4265V78.2164H12.1958C10.8679 78.2164 9.96683 78.5445 9.5163 79.4582L9.25547 79.3411C9.54001 76.506 10.8441 75.2875 12.4566 75.2875H12.5751V71.7728C10.5359 70.3201 10.038 69.9217 9.27919 69.9217C8.80495 69.9217 8.63897 70.1326 8.16473 70.5309L7.83276 70.156L11.3421 67.2271C12.4566 68.0706 14.235 69.3125 15.6814 70.3435L16.9618 69.453V69.1016C16.9618 68.4221 16.8195 67.6957 16.701 67.3442V67.2974L17.2938 67.3911C17.3886 67.7191 17.4597 68.3986 17.4597 68.9376V69.125L20.1155 67.2739C21.3485 68.1878 23.6485 70.5778 24.9053 72.1477L20.969 74.9126C23.8856 75.3344 25.8537 77.162 25.8537 79.8331V82.1763H25.83ZM16.9855 70.0857L15.8237 70.9058V80.0675C15.8237 81.6139 14.5432 82.4809 12.8597 83.8634L12.8834 83.9102C13.3576 83.7696 14.2824 83.5588 15.1597 83.5588C15.6576 83.5588 16.4164 83.6994 16.9618 83.8165V70.0857H16.9855ZM21.8227 73.6239C20.898 72.3351 19.0722 70.32 17.8628 69.4765L17.4835 69.7342V76.6465L21.8227 73.6239ZM22.6289 80.583C22.6289 78.3336 21.0402 76.9745 18.3134 76.9745C18.0052 76.9745 17.6968 77.0917 17.4835 77.2323V83.9571C19.0485 84.332 20.732 85.1053 22.2258 85.8551L22.3207 85.8082C22.6052 85.363 22.6526 85.1287 22.6526 83.8165V80.583H22.6289Z" fill="#FCFCFC"/>
<path d="M34.0342 76.8573H33.9157C33.2281 76.1075 32.1848 74.6313 31.8528 73.8346L31.26 74.4438V84.4726C32.5879 85.2926 32.8487 85.4098 33.2755 85.4098C33.4652 85.4098 33.6312 85.2457 33.7971 85.0583L34.0579 84.7771L34.5322 85.1989C32.8961 86.8156 31.8291 87.8935 31.8291 87.8935C30.6672 87.1202 29.3867 86.4407 27.9403 85.7378V85.6206C28.2486 85.3395 28.4146 85.1052 28.4146 84.2382V74.3736C27.8218 73.9284 27.4424 73.7643 27.0156 73.7409L26.9682 73.6472C27.6084 73.0614 28.4383 72.335 29.0785 71.6086C29.861 72.2414 30.6909 72.9912 31.4023 73.53C32.3744 72.7099 32.6827 72.3819 33.4889 71.6086C34.0106 72.4288 34.959 73.7643 35.8364 74.6548C35.2436 75.2171 34.5559 76.131 34.0342 76.8573Z" fill="#FCFCFC"/>
<path d="M45.4633 73.9753C45.2025 74.1627 44.9891 74.4205 44.9891 75.2171V84.8006C43.7087 85.527 41.6931 86.7453 40.1994 87.8466C38.9663 87.0265 37.5436 86.1361 36.3817 85.4801V85.3629C36.7137 85.2223 36.856 84.8708 36.856 84.285V74.6313C38.2787 73.8346 40.1994 72.6163 41.6458 71.5852C42.8077 72.335 44.254 73.2254 45.4633 73.8581V73.9753ZM42.12 85.8784V74.9828C41.4798 74.5376 40.5313 73.9753 39.82 73.5535L39.7251 73.5769V84.4725C40.3416 84.9177 41.4323 85.5737 42.0726 85.9252L42.12 85.8784Z" fill="#FCFCFC"/>
<path d="M56.2285 73.9753C55.9677 74.1627 55.7543 74.4205 55.7543 75.2171V84.8006C54.4739 85.527 52.4583 86.7453 50.9645 87.8466C49.7315 87.0265 48.3088 86.1361 47.1469 85.4801V85.3629C47.4789 85.2223 47.6212 84.8708 47.6212 84.285V74.6313C49.0439 73.8346 50.9645 72.6163 52.4109 71.5852C53.5728 72.335 55.0192 73.2254 56.2285 73.8581V73.9753ZM52.8852 85.8784V74.9828C52.245 74.5376 51.2964 73.9753 50.5851 73.5535L50.4903 73.5769V84.4725C51.1068 84.9177 52.1975 85.5737 52.8377 85.9252L52.8852 85.8784Z" fill="#FCFCFC"/>
<path d="M66.9699 74.2799C66.638 74.5611 66.4957 74.7719 66.4957 75.803V84.8007C64.907 85.691 63.4843 86.5346 61.7297 87.8467C60.8049 87.2375 58.9553 86.1362 57.8883 85.5738V85.4567C58.1729 85.3161 58.3626 85.0349 58.3626 84.496V74.3034C58.979 73.9754 60.4729 73.0849 61.3977 72.4757L60.4017 71.3979C59.0739 69.9451 58.7894 69.6405 58.7894 68.4689C58.7894 67.6488 59.2637 66.571 59.6904 65.7977L59.9987 65.9149C59.8327 66.6882 60.0224 67.2739 61.5874 68.797C61.5874 68.797 65.9978 73.3426 66.9936 74.1393V74.2799H66.9699ZM63.6266 85.8551V74.8423L61.8483 72.9677L61.2317 73.3426V84.496C61.7771 84.8474 62.9626 85.5505 63.5792 85.8785L63.6266 85.8551Z" fill="#FCFCFC"/>
</g>
<defs>
<clipPath id="clip0_690_112165">
<rect width="74" height="90" fill="white" transform="translate(0.719238 0.97583)"/>
</clipPath>
</defs>
</svg>
