<svg viewBox="0 0 290 79" fill="none" xmlns="http://www.w3.org/2000/svg" class="w-52"><g clip-path="url(#TEC-Logo-Full-Light_svg__clip0)" fill="#fff"><path fill-rule="evenodd" clip-rule="evenodd" d="M109.397 78.75L97.182 66.477v-25.25L135.222 3h23.382L160 4.403v11.222L138.363 37.72l2.094 2.28h17.798L160 41.927v11.924l-24.778 24.9h-25.825zm13.61-61.722v23.146l11.866 11.924h23.731V41.4h-18.845l-5.584-5.786V21.938l6.282-6.488h18.147V4.403h-23.033l-12.564 12.625zm-110.9 61.907V41.597H0V28.385L24.916 3.369h12.985l2.106 2.114 2.807-2.114h20.004v13.389L50.71 29.266v24.486L25.267 78.935h-13.16zm26.32-63.058v37.17h11.055V16.759L37.199 4.426H26.32v11.451h12.108zm23.338-11.45H45.27L56.15 15.348h5.615V4.426z"></path><path fill-rule="evenodd" clip-rule="evenodd" d="M50.254 78.75V47.188l.02-6.136h.329v-12.8L75.73 3h37.342v25.25l-5.759 7.014-4.013 4.208v.877h9.772v13.853L88.642 78.75H50.255zm61.771-37.173H76.777v10.52h.062v.057h35.247v-10.52h-.061v-.057zm-6.282-18.587H76.428v9.82h.062v.056h29.314v-9.82h-.061v-.056zm6.282-18.938H76.777v10.872h.062v.056h35.247V4.11h-.061v-.057z"></path><path d="M179.584 6.64h-3.344V4.8h8.864v1.84h-3.344V16h-2.176V6.64zM186.989 14.16V6.64l1.84-1.84h5.76l1.84 1.84v7.52l-1.84 1.84h-5.76l-1.84-1.84zm6.448-.016l.816-.816V7.472l-.816-.816h-3.456l-.816.816v5.856l.816.816h3.456zM199.352 4.8h2.176v4.688h1.696l2.704-4.688h2.448l-3.28 5.584L208.648 16h-2.496l-2.944-4.656h-1.68V16h-2.176V4.8zM210.774 4.8h8.096v1.84h-5.92v2.832h5.456v1.808h-5.456v2.88h5.92V16h-8.096V4.8zM221.477 4.8h1.952l4.992 7.6h.032V4.8h2.096V16h-1.952l-4.992-7.584h-.032V16h-2.096V4.8zM177.04 23.8h8.096v1.84h-5.92v2.832h5.456v1.808h-5.456v2.88h5.92V35h-8.096V23.8zM187.743 23.8h1.952l4.992 7.6h.032v-7.6h2.096V35h-1.952l-4.992-7.584h-.032V35h-2.096V23.8zM199.739 33.16v-7.52l1.84-1.84h5.568l1.808 1.808v1.712h-2.176v-.912l-.752-.752h-3.296l-.816.816v5.856l.816.816h3.328l.784-.784v-1.744h-2.4V28.76h4.512v4.4l-1.84 1.84h-5.536l-1.84-1.84zM211.792 23.8h2.176V35h-2.176V23.8zM217.134 23.8h1.952l4.992 7.6h.032v-7.6h2.096V35h-1.952l-4.992-7.584h-.032V35h-2.096V23.8zM229.29 23.8h8.096v1.84h-5.92v2.832h5.456v1.808h-5.456v2.88h5.92V35h-8.096V23.8zM239.993 23.8h8.096v1.84h-5.92v2.832h5.456v1.808h-5.456v2.88h5.92V35h-8.096V23.8zM259.496 31.288V35h-2.176v-3.216l-.96-1.072h-3.488V35h-2.176V23.8h7.024l1.712 1.728v3.392l-1.088 1.104 1.152 1.264zm-6.624-2.368h3.856l.56-.56v-2.176l-.56-.56h-3.856v3.296zM262.573 23.8h2.176V35h-2.176V23.8zM267.915 23.8h1.952l4.992 7.6h.032v-7.6h2.096V35h-1.952l-4.992-7.584h-.032V35h-2.096V23.8zM279.911 33.16v-7.52l1.84-1.84h5.568l1.808 1.808v1.712h-2.176v-.912l-.752-.752h-3.296l-.816.816v5.856l.816.816h3.328l.784-.784v-1.744h-2.4V28.76h4.512v4.4l-1.84 1.84h-5.536l-1.84-1.84zM176.88 52.16v-7.52l1.84-1.84h5.472L186 44.608v1.712h-2.176v-.912l-.752-.752h-3.2l-.816.816v5.856l.816.816h3.2l.752-.752v-.912H186v1.712L184.192 54h-5.472l-1.84-1.84zM188.364 52.16v-7.52l1.84-1.84h5.76l1.84 1.84v7.52l-1.84 1.84h-5.76l-1.84-1.84zm6.448-.016l.816-.816v-5.856l-.816-.816h-3.456l-.816.816v5.856l.816.816h3.456zM200.727 42.8h2.016l3.328 7.232h.032l3.344-7.232h2.016V54h-2.096v-6.816h-.032l-2.576 5.248h-1.344l-2.56-5.248h-.032V54h-2.096V42.8zM214.54 42.8h2.016l3.328 7.232h.032l3.344-7.232h2.016V54h-2.096v-6.816h-.032l-2.576 5.248h-1.344l-2.56-5.248h-.032V54h-2.096V42.8zM228.192 52.16v-7.52l1.84-1.84h5.76l1.84 1.84v7.52l-1.84 1.84h-5.76l-1.84-1.84zm6.448-.016l.816-.816v-5.856l-.816-.816h-3.456l-.816.816v5.856l.816.816h3.456zM240.556 42.8h1.952l4.992 7.6h.032v-7.6h2.096V54h-1.952l-4.992-7.584h-.032V54h-2.096V42.8zM252.472 52.272v-1.6h2.144v.944l.528.528h3.312L259 51.6v-1.856l-.528-.528h-4.24l-1.728-1.728v-2.96l1.728-1.728h5.056l1.728 1.728v1.616h-2.144v-.96l-.528-.528h-3.168l-.528.528v1.648l.528.528h4.24l1.728 1.728v3.152l-1.76 1.76H254.2l-1.728-1.728z"></path></g><defs><clipPath id="TEC-Logo-Full-Light_svg__clip0"><path fill="#fff" d="M0 0h290v78.935H0z"></path></clipPath></defs></svg>