<svg width="86" height="65" viewBox="0 0 86 65" fill="none" xmlns="http://www.w3.org/2000/svg">
<path fill-rule="evenodd" clip-rule="evenodd" d="M11.7499 24.1761V14.8574L20.8098 1.13824H17.7682L10.4557 12.463L3.14309 1.13824H0.0368652L9.0967 14.8251V24.1761H11.7499ZM38.8458 14.3397C38.134 13.3906 37.0986 12.7219 35.7396 12.3336C36.8829 11.9022 37.7781 11.1903 38.4252 10.1981C39.0723 9.20581 39.3959 8.05176 39.3959 6.73593C39.3959 4.94553 38.7703 3.52184 37.5192 2.46486C36.2897 1.40788 34.6395 0.879395 32.5687 0.879395C31.1018 0.879395 29.6889 1.13824 28.33 1.65595C26.9926 2.15208 25.8601 2.84236 24.9325 3.72677L25.9356 5.76523C28.0927 3.99641 30.2714 3.112 32.4716 3.112C33.8306 3.112 34.8768 3.44635 35.6102 4.11505C36.3652 4.78375 36.7427 5.74366 36.7427 6.99478C36.7427 8.39689 36.2897 9.47545 35.3837 10.2304C34.4777 10.9854 33.1727 11.3629 31.4685 11.3629H29.333V13.5955H31.9862C35.5239 13.5955 37.2927 15.0084 37.2927 17.8342C37.2927 19.2579 36.8613 20.3365 35.9985 21.0699C35.1572 21.8033 33.9169 22.17 32.2775 22.17C29.9694 22.17 27.7475 21.2856 25.612 19.5168L24.5766 21.5552C25.5257 22.4612 26.6798 23.1623 28.0388 23.6584C29.4193 24.1545 30.8538 24.4026 32.3422 24.4026C34.6718 24.4026 36.5162 23.831 37.8751 22.6877C39.2341 21.5229 39.9136 19.9374 39.9136 17.9313C39.9136 16.486 39.5577 15.2888 38.8458 14.3397ZM60.8359 14.3397C60.124 13.3906 59.0886 12.7219 57.7296 12.3336C58.8729 11.9022 59.7681 11.1903 60.4152 10.1981C61.0624 9.20581 61.3859 8.05176 61.3859 6.73593C61.3859 4.94553 60.7604 3.52184 59.5093 2.46486C58.2797 1.40788 56.6295 0.879395 54.5587 0.879395C53.0919 0.879395 51.679 1.13824 50.32 1.65595C48.9826 2.15208 47.8501 2.84236 46.9226 3.72677L47.9256 5.76523C50.0827 3.99641 52.2614 3.112 54.4616 3.112C55.8206 3.112 56.8668 3.44635 57.6002 4.11505C58.3552 4.78375 58.7327 5.74366 58.7327 6.99478C58.7327 8.39689 58.2797 9.47545 57.3737 10.2304C56.4677 10.9854 55.1627 11.3629 53.4586 11.3629H51.3231V13.5955H53.9763C57.5139 13.5955 59.2828 15.0084 59.2828 17.8342C59.2828 19.2579 58.8513 20.3365 57.9885 21.0699C57.1472 21.8033 55.9069 22.17 54.2675 22.17C51.9594 22.17 49.7376 21.2856 47.602 19.5168L46.5666 21.5552C47.5158 22.4612 48.6698 23.1623 50.0288 23.6584C51.4093 24.1545 52.8438 24.4026 54.3322 24.4026C56.6619 24.4026 58.5062 23.831 59.8652 22.6877C61.2242 21.5229 61.9036 19.9374 61.9036 17.9313C61.9036 16.486 61.5477 15.2888 60.8359 14.3397ZM67.2295 3.4032H75.2539V24.1761H77.9395V3.4032H85.964V1.13824H67.2295V3.4032ZM22.46 41.7024H41.3346V54.9147C41.3346 55.8082 42.0589 56.5326 42.9524 56.5326C43.8459 56.5326 44.5703 55.8082 44.5703 54.9147V41.7024H63.4449V43.0506C63.4449 54.7621 54.3221 64.352 42.9524 64.352C31.5828 64.352 22.46 54.7621 22.46 43.0506V41.7024Z" fill="white"/>
</svg>
