<svg width="724" height="509" viewBox="0 0 724 509" fill="none" xmlns="http://www.w3.org/2000/svg">
<path fill-rule="evenodd" clip-rule="evenodd" d="M181.68 73.237L229.549 60.4106C230.987 57.7977 232.731 55.2994 234.78 52.9463C242.638 43.9227 253.726 38.4223 265.533 35.2586C277.69 32.0013 290.792 31.0713 302.331 36.2744C305.365 37.6423 308.05 39.3206 310.406 41.2421C320.273 28.6315 334.5 21.2106 350.531 16.915C360.109 14.3485 367.7 13.3393 374.041 13.311C382.101 13.2749 389.171 17.8983 392.568 24.7422C397.122 23.1943 401.963 21.7458 407.546 20.2498C417.487 17.5862 429.427 15.0496 438.801 14.5545C444.623 14.2469 450.302 16.424 454.427 20.5446C457.561 23.676 459.574 27.7063 460.227 32.0162C468.235 28.9784 476.166 26.4576 486.434 23.7062C496.319 21.0577 508.698 18.3969 518.102 17.9001L523.652 16.0599C542.638 8.83295 559.926 4.19551 579.633 1.06521C585.425 0.145066 591.335 1.74115 595.877 5.45227C600.419 9.16341 603.161 14.6367 603.414 20.4965C604.087 36.0914 604.873 49.4965 606.051 62.7042L609.09 98.0732L609.093 98.107C609.925 107.978 609.994 117.525 608.975 126.612L610.122 126.304C614.966 124.881 619.843 123.574 624.75 122.385L648.853 115.926C662.237 112.34 675.994 120.283 679.581 133.667L684.061 150.389C684.241 151.061 684.373 151.734 684.458 152.405C684.702 153.155 684.945 153.911 685.186 154.673C690.771 172.319 695.927 191.581 700.145 210.48L703.061 220.623C709.411 230.053 715.35 239.698 717.88 249.141C723.532 270.234 729.486 295.197 714.089 319.054C699.427 341.773 683.367 350.35 663.506 355.671C654.201 358.165 642.856 360.182 630.484 359.624C634.561 372.864 604.526 382.871 593.136 385.923C581.746 388.975 550.276 393.63 545.714 378.579C545.714 378.579 529.952 391.457 499.941 399.498C469.93 407.54 450.926 407.832 426.88 400.428C426.2 401.303 425.529 402.236 424.824 403.217L424.823 403.218C421.118 408.373 416.462 414.852 404.556 421.244C395.628 426.039 384.841 428.748 376.4 430.868L376.4 430.868C371.443 432.113 367.295 433.155 364.807 434.297C363.929 438.727 364.027 442.554 364.113 445.945C364.367 455.891 364.524 462.088 339.71 468.737L304.305 478.223C275.845 485.849 272.801 479.903 267.984 470.492C266.433 467.461 264.697 464.071 261.87 460.659L261.148 460.852C245.637 466.855 212.614 476.974 174.073 487.301C120.666 501.611 76.6369 510.97 74.8184 508.425C56.6901 507.161 42.2317 493.62 35.9122 474.247C30.9629 459.075 26.7715 443.433 23.4715 427.818C20.747 414.927 23.4889 401.89 30.4082 391.44C31.1503 380.523 31.8035 369.551 32.3684 358.575C27.8699 353.708 24.3267 347.844 22.1169 341.214C18.6406 330.785 15.2253 319.303 12.1582 306.269L11.8222 306.359L0.848142 265.403C-1.30363 257.372 3.46204 249.118 11.4926 246.966L79.9735 228.617C80.7053 223.904 83.0524 219.627 86.5392 216.487C86.2524 208.365 85.7974 200.292 85.1745 192.268C85.1712 192.225 85.168 192.182 85.1649 192.139C84.7022 185.648 84.0566 179.163 83.2872 172.637C82.9273 172.404 82.5738 172.16 82.2271 171.904C77.6693 168.538 74.7015 163.441 74.0237 157.816C72.4981 145.153 71.5751 132.934 71.3396 118.936C71.1808 109.497 77.4664 101.161 86.5851 98.7177L162.248 78.4439L181.68 73.237ZM243.844 84.3047C241.857 71.0997 250.557 60.5704 269.369 55.5296C289.422 50.1565 299.907 56.21 301.728 68.7947C303.715 81.9996 295.015 92.529 276.203 97.5698C256.15 102.943 245.665 96.8894 243.844 84.3047ZM303.126 96.3381C301.946 112.607 301.744 128.393 302.576 143.902L304.34 177.773C304.691 183.218 305.659 185.174 307.312 184.731C309.38 184.177 310.203 180.633 309.618 164.394L317.68 162.233C320.058 201.701 313.882 214.212 289.075 220.859C263.647 227.673 254.975 215.151 254.009 191.702C253.369 175.256 252.844 162.545 251.724 148.443C249.45 149.052 246.858 149.304 244.267 149.555C242.97 137.273 242.404 125.238 242.348 112.624C252.503 108.351 261.019 105.405 273.63 102.026C284.173 99.2008 295.503 96.8298 303.126 96.3381ZM188.056 130.273C186.608 118.253 185.82 105.391 185.516 93.508L238.852 79.2166C240.397 90.7677 241.391 103.574 241.805 115.871C239.587 116.687 237.161 117.558 234.887 118.168C235.269 137.785 236.065 157.292 237.48 176.633C238.825 194.884 240.171 213.136 242.136 231.221L175.156 249.168C164.193 223.966 152.969 198.613 140.972 173.687L141.408 181.104C142.196 193.966 143.135 206.565 144.542 219.261L152.564 217.776C153.461 225.22 154.104 232.987 154.536 240.644L164.033 238.099C184.916 277.748 207.582 317.181 231.901 355.909C234.666 355.431 236.941 355.085 239.526 354.918C243.945 368.464 247.694 382.454 250.64 396.395L155.906 421.779C151.487 408.232 147.739 394.243 144.792 380.302L144.794 380.301C149.08 378.627 153.365 376.952 157.716 375.524L150.694 361.096L119.525 369.448L120.232 385.83C124.716 384.892 129.199 383.954 133.503 383.327C137.922 396.873 141.67 410.863 144.617 424.804L71.4799 444.4C67.061 430.854 63.3126 416.865 60.3663 402.924C62.4436 401.841 64.5866 401.004 66.7297 400.166C69.1156 369.803 70.8134 338.835 71.8408 308.309C67.178 309.559 62.3837 310.317 57.5894 311.076L57.5885 311.076C53.5642 299.002 49.7019 285.569 46.4748 269.599L100.245 255.192C99.5504 247.605 99.0714 239.794 98.8146 232.178L99.334 231.991L99.3343 231.991L99.3346 231.991C101.56 231.19 103.637 230.443 105.939 229.826C105.772 216.798 105.191 203.881 104.197 191.075C103.314 178.682 101.81 166.455 100.1 154.284C98.0023 154.846 95.8574 155.232 93.5465 155.648L93.5461 155.648L93.5456 155.648L92.9605 155.754C91.5123 143.734 90.6438 132.223 90.4211 118.989L166.084 98.7149C176.84 123.972 187.803 149.174 199.648 174.362C199.509 172.937 199.451 171.557 199.393 170.207L199.393 170.207L199.393 170.207L199.393 170.206L199.393 170.206C199.346 169.102 199.3 168.018 199.211 166.945C198.424 154.083 197.485 141.484 196.078 128.788L188.056 130.273ZM363.784 72.3298C367.919 71.222 371.599 70.9005 374.715 70.9519C374.562 58.8063 373.79 46.8269 372.644 34.2827C368.44 34.3015 362.636 34.9702 354.367 37.186C324.805 45.1071 313.37 62.7949 316.566 95.3958C314.554 96.1564 312.391 97.1792 310.434 98.1466C310.31 109.259 311.012 120.149 312.238 131.342L320.094 129.237L324.443 168.619C326.77 189.71 324.57 194.731 319.926 196.418C320.279 208.651 321.416 220.871 322.552 232.917C307.934 239.131 296.455 253.461 298.53 283.605L288.337 245.564C276.767 246.56 265.346 249.094 254.302 252.054C242.767 255.144 231.364 258.726 220.109 263.846C223.121 278.033 226.738 291.531 231.223 305.323C232.017 305.202 232.789 305.119 233.551 305.037L233.551 305.037L233.552 305.037L233.552 305.037L233.552 305.037L233.552 305.037C234.974 304.884 236.364 304.735 237.801 304.349C242.579 317.273 246.801 330.084 250.286 343.091C253.377 354.626 255.977 366.293 258.266 377.779C255.877 378.683 253.734 379.52 251.412 380.668C254.669 394.789 258.286 408.287 262.525 422.145L341.552 400.97C339.526 390.465 336.83 380.402 333.332 370.292C332.367 370.466 331.37 370.622 330.364 370.779C328.23 371.112 326.055 371.452 324.054 371.989C320.179 361.453 316.137 348.332 312.406 335.39C326.341 368.745 345.284 373.665 360.746 369.522C388.233 362.157 402.637 335.413 388.63 283.137C379.275 248.226 363.314 232.191 345.392 229.605C362.061 222.652 380.807 204.828 375.113 150.168L371.57 115.444L377.565 113.838C377.302 101.279 376.584 89.5061 374.461 77.4456L373.866 77.6257C367.699 79.4931 361.345 81.4169 355.043 83.5348L354.711 82.2944C353.492 77.7464 356.135 74.3794 363.784 72.3298ZM452.402 56.3398C454.526 68.4003 455.298 80.3797 455.561 92.9387L438.816 97.4255C438.976 103.808 439.246 110.605 439.682 118.021C441.265 150.39 442.192 153.022 445.086 152.246C447.36 151.637 449.368 147.554 447.715 114.096L457.844 111.382C460.244 158.377 458.404 175.488 429.668 183.188C403.827 190.112 391.706 176.298 390.438 153.373L388.168 110.997L381.139 112.88C379.912 101.687 379.21 90.7967 379.335 79.6848C381.498 78.662 383.661 77.6392 386.086 76.7678C385.429 68.5243 384.509 60.1296 383.408 50.2323C392.323 46.2925 400.012 43.5674 411.382 40.5208C420.892 37.9727 431.188 35.8786 438.398 35.4978C438.044 42.3107 437.968 49.0492 437.89 56.0323L437.89 56.0343L437.89 56.0355C437.873 57.5727 437.855 59.1218 437.835 60.6861L438.4 60.509C443.103 59.0362 447.631 57.618 452.402 56.3398ZM529.483 35.686L529.483 35.6895C530.61 44.0277 531.736 52.366 532.449 60.815C533.621 84.209 530.695 92.3051 526.147 93.5237C520.978 94.9085 519.044 90.9955 518.278 73.2534C517.782 62.3077 517.589 50.8377 517.699 38.8434C510.489 39.2243 499.78 41.4291 490.27 43.9772C477.246 47.4669 468.523 50.469 458.161 54.7966C458.218 67.411 458.783 79.4458 460.08 91.7279C462.078 91.599 464.203 91.2496 466.179 90.9247L466.71 90.8376C467.42 95.9653 468.033 101.562 468.469 108.978C470.11 132.468 477.229 148.286 502.657 141.473C516.094 137.873 531.632 126.398 534.94 91.6107C538.056 137.97 533.56 148.481 524.464 150.918C519.296 152.303 515.213 150.295 514.308 142.783C499.615 145.833 485.971 149.489 472.549 153.972C473.035 179.766 492.169 190.813 533.308 179.79C534.78 179.396 536.218 178.987 537.623 178.564C525.665 187.43 520.82 201.082 526.034 220.541C532.15 243.366 546.566 253.971 581.062 249.199C605.657 245.766 609.882 247.79 611.329 253.189C612.381 257.116 610.093 260.36 603.712 262.069C596.104 264.108 588.605 261.646 586.172 252.565L585.778 251.092C569.921 253.763 554.459 257.906 537.92 263.916C541.852 281.538 546.653 299.454 551.795 315.7C568.142 312.898 584.095 308.624 599.653 302.877L589.723 265.818C604.522 295.522 623.872 299.018 645.96 293.1C675.165 285.274 685.866 269.254 678.567 242.012C672.451 219.188 658.185 210.121 627.077 214.774C599.782 218.931 596.048 216.775 594.667 211.621C593.351 206.713 596.507 203.763 602.217 202.496C607.191 201.426 612.153 203.253 614.06 210.37L614.915 213.561C630.771 210.89 646.233 206.747 662.773 200.737C658.84 183.115 654.039 165.199 648.897 148.953C632.55 151.755 616.597 156.029 601.039 161.776L610.575 197.363C597.592 168.728 580.796 163.964 560.329 168.779C582.333 155.251 589.924 133.694 587.104 100.234L584.07 64.9304C582.854 51.2972 582.052 37.5532 581.372 21.7824C563.094 24.6856 547.176 28.9509 529.483 35.686ZM116.819 296.52C124.069 309.834 131.319 323.148 138.324 336.528L118.445 341.855L116.819 296.52ZM323.761 332.61C316.889 334.452 310.959 329.991 307.803 318.21L303.265 301.276C300.683 290.657 303.719 284.319 310.346 282.544C317.954 280.505 324.051 287.552 328.589 304.486C333.126 321.42 331.369 330.572 323.761 332.61ZM475.323 293.841C481.213 292.263 484.022 287.038 480.541 277.975C497.212 272.456 514.392 267.853 531.213 263.872C532.493 266.685 533.396 269.074 534.119 271.773C541.879 300.733 520.927 326.602 482.396 336.926C435.765 349.421 407.136 332.892 395.233 288.47C382.936 242.576 404.338 210.536 449.005 198.568C490.237 187.52 516.083 203.479 525.815 239.802C527.525 246.183 528.481 251.714 528.552 255.904C522.549 257.353 514.875 259.443 503.34 262.586C495.883 264.617 486.814 267.088 475.54 270.109L457.624 274.909C463.161 292.628 467.96 295.814 475.323 293.841ZM474.929 252.122C472.364 242.55 467.806 235.354 460.198 237.393C453.571 239.169 450.469 245.261 454.138 261.902L475.981 256.049L474.929 252.122Z" fill="white"/>
</svg>
