<svg width="194" height="25" viewBox="0 0 194 25" fill="none" xmlns="http://www.w3.org/2000/svg">
<g clip-path="url(#clip0_683_112198)">
<path d="M16.53 7.92749C17.2867 7.68398 18.0165 6.02231 18.3881 5.35718C18.3881 5.72918 18.4692 6.4814 19.4692 6.80609C20.4693 7.13075 22.0369 6.69869 22.5099 6.27032V7.52165C22.5099 7.98161 23.118 9.51167 23.3883 10.5601C22.9491 11.1688 21.6585 12.3187 19.4692 12.0482C17.28 11.7776 14.9083 9.65231 14.4353 8.73917C14.8182 8.57006 15.7732 8.171 16.53 7.92749Z" fill="white"/>
<path fill-rule="evenodd" clip-rule="evenodd" d="M20.0928 2.30103C19.7102 2.82722 19.4027 3.61608 19.0813 4.61532C18.4141 6.68919 17.141 7.81368 16.512 8.1285C16.4115 8.17881 16.2544 8.2428 16.0535 8.32461C15.0444 8.73552 12.9313 9.59607 11.3459 11.4293C10.5284 12.3747 8.97741 13.5272 7.40368 14.5709C6.21046 15.3622 4.98354 16.1043 4.00982 16.6648C4.08531 16.6759 4.14656 16.6851 4.18355 16.6909C4.55657 16.75 4.95417 16.8132 5.35788 16.8774C6.86891 17.1177 8.46515 17.3715 9.17622 17.4677C10.3465 17.626 12.22 17.3732 13.9377 16.1728C15.2364 15.2652 15.3223 13.9471 15.2191 13.44L15.8811 13.305C16.0257 14.0154 15.8909 15.6328 14.3245 16.7274C12.4611 18.0296 10.4156 18.3179 9.08575 18.138C8.87201 18.1091 8.57984 18.0662 8.23505 18.0139C8.2497 18.0321 8.26427 18.0504 8.2788 18.0688C8.32337 18.125 8.36808 18.1824 8.41405 18.2413C8.49539 18.3456 8.58056 18.4549 8.67535 18.5713C8.96863 18.9316 9.30521 19.2985 9.68767 19.5491C10.885 20.3337 12.0737 20.3764 13.6322 20.4323C13.7116 20.4351 13.792 20.438 13.8734 20.441C14.0168 20.4464 14.1459 20.4286 14.3011 20.4072C14.3618 20.3989 14.4264 20.3899 14.4975 20.3817C15.5178 20.2627 16.3618 20.0346 17.1801 19.7028C17.2473 19.6755 17.3145 19.6485 17.3817 19.6214C18.2001 19.2916 19.0129 18.964 19.8019 18.3479C20.6055 17.7204 21.3403 16.8169 21.9086 15.8812C22.4783 14.9431 22.8629 14.0019 22.9882 13.312C23.2445 11.9013 22.9903 10.4416 22.5288 9.12141C22.3762 8.68515 22.2929 8.00679 22.244 7.32609C22.1981 6.68841 22.1804 6.01434 22.1735 5.46501L21.46 4.7508L21.9378 4.27251L22.7036 5.03907L22.7125 5.04297V3.0574C22.7125 2.86898 22.6745 2.51282 22.496 2.20355C22.3294 1.91499 22.0301 1.64461 21.4384 1.60229C20.8716 1.56176 20.4595 1.79683 20.0928 2.30103ZM22.8557 5.84397L23.3882 6.07719V3.0574C23.3882 2.80617 23.3417 2.31684 23.081 1.86516C22.8084 1.39278 22.3137 0.986762 21.4865 0.927615C20.6344 0.866684 20.016 1.25728 19.5465 1.90296C19.093 2.52664 18.7585 3.41186 18.4381 4.40799C17.8214 6.32487 16.662 7.29723 16.2098 7.52352C16.1388 7.55907 16.0142 7.60917 15.8469 7.67643C14.8932 8.05989 12.5519 9.00135 10.8351 10.9866C10.085 11.854 8.6066 12.9618 7.03048 14.007C5.46451 15.0456 3.83746 15.9996 2.81946 16.5595L1.95462 17.0352L2.87196 17.1808L0.65686 18.0991L0.811797 18.7488L4.35647 18.4785L7.58029 18.2848C7.6262 18.3364 7.68185 18.4039 7.74946 18.4891C7.78758 18.5372 7.82939 18.5908 7.87398 18.648C7.95858 18.7565 8.0532 18.8777 8.15152 18.9986C8.45538 19.3719 8.84519 19.8055 9.31759 20.115C10.6772 21.0059 12.0451 21.0537 13.5624 21.1068C13.6571 21.1101 13.7524 21.1134 13.8484 21.117C13.9664 21.1213 14.0862 21.1137 14.1987 21.102L13.9377 24.905H15.2191V21.102C15.9948 20.9926 16.3359 20.7325 16.992 20.4982L17.2059 24.9214H18.4381L18.0164 20.115C18.8233 19.7903 19.3548 19.5548 20.2175 18.8812C21.1032 18.1897 21.8886 17.2162 22.486 16.2326C23.0818 15.2514 23.5081 14.2311 23.653 13.4329C23.9374 11.8675 23.6509 10.2833 23.1665 8.89797C23.0471 8.55639 22.9671 7.96089 22.9179 7.27752C22.8835 6.79965 22.8653 6.29784 22.8557 5.84397ZM4.17213 17.3739L2.87076 17.9134L4.31058 17.8036L6.17309 17.6918C5.86507 17.6429 5.55271 17.5933 5.24439 17.5442C4.87649 17.4857 4.51434 17.4281 4.17213 17.3739Z" fill="white"/>
<path d="M20.876 3.13386C20.7987 3.32666 20.5864 3.42285 20.4018 3.34871C20.2172 3.27457 20.1301 3.05817 20.2074 2.86537C20.2846 2.67256 20.4969 2.57637 20.6816 2.65051C20.8662 2.72465 20.9532 2.94105 20.876 3.13386Z" fill="white"/>
<path d="M28.5609 24.9214V0.921387H35.0666V10.2964H43.6785V0.921387H50.1841V24.9214H43.6785V15.5464H35.0666V24.9214H28.5609Z" fill="white"/>
<path d="M53.2733 24.9214V0.921387H70.5438V6.17139H59.779V10.2964H69.6546V15.5464H59.779V19.6714H70.4971V24.9214H53.2733Z" fill="white"/>
<path d="M79.9954 24.9214H72.9749L80.8846 0.921387H89.7772L97.6872 24.9214H90.6667L85.4246 7.53078H85.2372L79.9954 24.9214ZM78.6848 15.4526H91.8835V20.3276H78.6848V15.4526Z" fill="white"/>
<path d="M109.216 24.9214H99.9952V0.921387H109.122C111.587 0.921387 113.717 1.40185 115.511 2.36279C117.313 3.31592 118.701 4.69092 119.676 6.4878C120.659 8.27685 121.151 10.4214 121.151 12.9214C121.151 15.4214 120.663 17.5698 119.688 19.3667C118.713 21.1558 117.332 22.5307 115.546 23.4917C113.76 24.4448 111.65 24.9214 109.216 24.9214ZM106.501 19.3901H108.982C110.167 19.3901 111.178 19.1987 112.012 18.8159C112.855 18.4331 113.494 17.773 113.931 16.8355C114.376 15.898 114.598 14.5933 114.598 12.9214C114.598 11.2495 114.372 9.94482 113.919 9.00732C113.475 8.06982 112.82 7.40967 111.954 7.02687C111.096 6.64404 110.043 6.45264 108.794 6.45264H106.501V19.3901Z" fill="white"/>
<path d="M124.161 24.9214V0.921387H130.666V19.6714H140.355V24.9214H124.161Z" fill="white"/>
<path d="M149.49 0.921387V24.9214H142.984V0.921387H149.49Z" fill="white"/>
<path d="M173.308 0.921387V24.9214H167.878L159.22 12.312H159.079V24.9214H152.574V0.921387H158.096L166.615 13.4839H166.802V0.921387H173.308Z" fill="white"/>
<path d="M176.385 24.9214V0.921387H193.656V6.17139H182.891V10.2964H192.766V15.5464H182.891V19.6714H193.609V24.9214H176.385Z" fill="white"/>
</g>
<defs>
<clipPath id="clip0_683_112198">
<rect width="193" height="24" fill="white" transform="translate(0.65686 0.921387)"/>
</clipPath>
</defs>
</svg>
