<svg width="56" height="53" viewBox="0 0 56 53" fill="none" xmlns="http://www.w3.org/2000/svg">
<g clip-path="url(#clip0_652_115361)">
<g clip-path="url(#clip1_652_115361)">
<path d="M51.2834 13.33L28.2264 0.876048C28.0669 0.788782 27.8881 0.743042 27.7064 0.743042C27.5246 0.743042 27.3458 0.788782 27.1864 0.876048L4.13036 13.33C3.00636 13.937 3.39836 15.804 4.65036 15.804H50.7654C52.0174 15.804 52.4094 13.937 51.2854 13.33H51.2834Z" fill="white"/>
<path fill-rule="evenodd" clip-rule="evenodd" d="M13.5144 39.8161C16.6814 39.8161 19.5264 38.5231 21.4844 36.4681H34.0584C36.0164 38.5231 38.8624 39.8161 42.0284 39.8161C47.9344 39.8161 52.7224 35.3191 52.7224 29.7711C52.7224 24.2231 47.9344 19.7261 42.0284 19.7261H13.5144C7.60938 19.7261 2.82138 24.2231 2.82138 29.7711C2.82138 35.3191 7.61038 39.8161 13.5144 39.8161ZM14.2744 24.9881C14.2739 24.97 14.2698 24.9521 14.2624 24.9356C14.2549 24.919 14.2443 24.9041 14.2311 24.8916C14.218 24.8792 14.2025 24.8695 14.1855 24.863C14.1686 24.8566 14.1505 24.8535 14.1324 24.8541H11.1864C11.1064 24.8541 11.0434 24.9141 11.0434 24.9881V27.8901H7.95338C7.87538 27.8901 7.81138 27.9501 7.81138 28.0241V30.7921C7.81138 30.8661 7.87538 30.9261 7.95438 30.9261H11.0434V33.8271C11.0434 33.9021 11.1074 33.9611 11.1864 33.9611H14.1324C14.2114 33.9611 14.2754 33.9011 14.2754 33.8271V30.9261H17.3644C17.4424 30.9261 17.5064 30.8661 17.5064 30.7921V28.0231C17.5064 27.9491 17.4424 27.8891 17.3644 27.8891H14.2744V24.9871V24.9881ZM38.4644 31.6181C39.5674 31.6181 40.4604 30.7781 40.4604 29.7431C40.4604 28.7071 39.5674 27.8681 38.4644 27.8681C37.3624 27.8681 36.4684 28.7071 36.4684 29.7431C36.4684 30.7781 37.3624 31.6181 38.4644 31.6181ZM48.4444 29.7431C48.4444 30.7781 47.5514 31.6181 46.4484 31.6181C45.3464 31.6181 44.4524 30.7781 44.4524 29.7431C44.4524 28.7071 45.3464 27.8681 46.4484 27.8681C47.5514 27.8681 48.4444 28.7071 48.4444 29.7431ZM40.4604 25.9931C40.4604 27.0281 41.3544 27.8681 42.4564 27.8681C43.5594 27.8681 44.4524 27.0281 44.4524 25.9921C44.4524 24.9571 43.5594 24.1171 42.4564 24.1171C41.3544 24.1171 40.4604 24.9571 40.4604 25.9921V25.9931ZM42.4564 35.3681C41.3544 35.3681 40.4604 34.5281 40.4604 33.4931C40.4604 32.4571 41.3544 31.6181 42.4564 31.6181C43.5594 31.6181 44.4524 32.4581 44.4524 33.4931C44.4524 34.5281 43.5594 35.3681 42.4564 35.3681ZM23.6364 23.7431C23.0064 23.7431 22.4964 24.2231 22.4964 24.8151C22.4964 25.4061 23.0064 25.8861 23.6364 25.8861H30.9084C31.5384 25.8861 32.0484 25.4061 32.0484 24.8151C32.0484 24.2231 31.5384 23.7431 30.9084 23.7431H23.6374H23.6364Z" fill="white"/>
<path d="M50.4004 44.118H5.01337C4.15837 44.118 3.46537 44.77 3.46537 45.575C3.46537 46.38 4.15837 47.033 5.01337 47.033H50.4004C51.2544 47.033 51.9474 46.38 51.9474 45.575C51.9474 44.77 51.2544 44.118 50.4004 44.118ZM53.3664 48.976H2.04737C1.19337 48.976 0.500366 49.629 0.500366 50.434C0.500366 51.239 1.19337 51.891 2.04737 51.891H53.3664C54.2204 51.891 54.9134 51.239 54.9134 50.434C54.9134 49.629 54.2204 48.976 53.3664 48.976Z" fill="white"/>
</g>
</g>
<defs>
<clipPath id="clip0_652_115361">
<rect width="55" height="52" fill="white" transform="translate(0.500366 0.743042)"/>
</clipPath>
<clipPath id="clip1_652_115361">
<rect width="55" height="52" fill="white" transform="translate(0.500366 0.743042)"/>
</clipPath>
</defs>
</svg>
