<svg width="117" height="40" viewBox="0 0 117 40" fill="none" xmlns="http://www.w3.org/2000/svg">
<g clip-path="url(#clip0_682_112195)">
<path d="M1.17548 36.9723L11.0266 0.572266H23.3404L33.1915 36.9723H25.9103L23.8758 28.9643H10.4912L8.45671 36.9723H1.17548ZM12.1509 22.6203H22.2161L17.6653 4.88827H16.7016L12.1509 22.6203ZM45.3333 37.3883C43.2632 37.3883 41.4429 36.9376 39.8724 36.0363C38.3376 35.1003 37.142 33.8176 36.2853 32.1883C35.4287 30.5589 35.0004 28.6869 35.0004 26.5723V11.1803H41.7463V26.0523C41.7463 27.9936 42.2281 29.4496 43.1918 30.4203C44.1912 31.3909 45.601 31.8763 47.4213 31.8763C49.4915 31.8763 51.0976 31.2176 52.2398 29.9003C53.382 28.5483 53.953 26.6763 53.953 24.2843V11.1803H60.6989V36.9723H54.0601V33.5923H53.0964C52.6681 34.4589 51.865 35.3083 50.6872 36.1403C49.5093 36.9723 47.7247 37.3883 45.3333 37.3883ZM65.5287 36.9723V11.1803H72.1675V14.0923H73.1312C73.5238 13.0523 74.1662 12.2896 75.0586 11.8043C75.9866 11.3189 77.0573 11.0763 78.2709 11.0763H81.4832V16.9003H78.1638C76.4506 16.9003 75.0407 17.3509 73.9342 18.2523C72.8278 19.1189 72.2746 20.4709 72.2746 22.3083V36.9723H65.5287ZM94.7866 37.7003C92.6451 37.7003 90.6641 37.1976 88.8438 36.1923C87.0235 35.1523 85.5601 33.6443 84.4537 31.6683C83.3472 29.6923 82.794 27.3003 82.794 24.4923V23.6603C82.794 20.8523 83.3472 18.4603 84.4537 16.4843C85.5601 14.5083 87.0235 13.0176 88.8438 12.0123C90.6998 10.9723 92.6807 10.4523 94.7866 10.4523C97.2137 10.4523 99.0518 10.8509 100.301 11.6483C101.586 12.4109 102.532 13.2949 103.139 14.3003H104.102V11.1803H110.741V30.0043C110.741 31.0443 111.241 31.5643 112.24 31.5643H114.382V36.9723H109.028C107.743 36.9723 106.672 36.6256 105.816 35.9323C104.995 35.2389 104.584 34.2856 104.584 33.0723V33.0203H103.62C103.014 34.3029 102.032 35.4123 100.676 36.3483C99.3552 37.2496 97.3921 37.7003 94.7866 37.7003ZM96.821 31.9803C98.9269 31.9803 100.658 31.3389 102.014 30.0563C103.406 28.7389 104.102 26.8323 104.102 24.3363V23.8163C104.102 21.3203 103.406 19.4309 102.014 18.1483C100.622 16.8309 98.8912 16.1723 96.821 16.1723C94.7509 16.1723 93.0198 16.8309 91.6278 18.1483C90.2358 19.4309 89.5398 21.3203 89.5398 23.8163V24.3363C89.5398 26.8323 90.2358 28.7389 91.6278 30.0563C93.0198 31.3389 94.7509 31.9803 96.821 31.9803Z" fill="white"/>
</g>
<defs>
<clipPath id="clip0_682_112195">
<rect width="116" height="39" fill="white" transform="translate(0.211792 0.138916)"/>
</clipPath>
</defs>
</svg>
